<?xml version="1.0" encoding="us-ascii" standalone="no"?><svg xmlns="http://www.w3.org/2000/svg" xmlns:xlink="http://www.w3.org/1999/xlink" contentStyleType="text/css" height="344px" preserveAspectRatio="none" style="width:299px;height:344px;background:#FFFFFF;" version="1.1" viewBox="0 0 299 344" width="299px" zoomAndPan="magnify"><defs/><g><!--cluster adventure::v1--><g id="cluster_adventure::v1"><path d="M8.5,6 L107.5,6 A3.75,3.75 0 0 1 110,8.5 L117,29.6094 L289.5,29.6094 A2.5,2.5 0 0 1 292,32.1094 L292,334.5 A2.5,2.5 0 0 1 289.5,337 L8.5,337 A2.5,2.5 0 0 1 6,334.5 L6,8.5 A2.5,2.5 0 0 1 8.5,6 " fill="none" style="stroke:#000000;stroke-width:1.5;"/><line style="stroke:#000000;stroke-width:1.5;" x1="6" x2="117" y1="29.6094" y2="29.6094"/><text fill="#000000" font-family="sans-serif" font-size="14" font-weight="bold" lengthAdjust="spacing" textLength="98" x="10" y="22.5332">adventure::v1</text></g><!--class Location--><g id="elem_Location"><rect codeLine="2" fill="#F1F1F1" height="100.8281" id="Location" rx="2.5" ry="2.5" style="stroke:#181818;stroke-width:0.5;" width="200" x="49" y="220"/><ellipse cx="117.75" cy="236" fill="#ADD1B2" rx="11" ry="11" style="stroke:#181818;stroke-width:1.0;"/><path d="M120.5156,231.875 Q120.6719,231.6563 120.8594,231.5469 Q121.0469,231.4375 121.2656,231.4375 Q121.6406,231.4375 121.875,231.7031 Q122.1094,231.9531 122.1094,232.5625 L122.1094,234.0156 Q122.1094,234.625 121.875,234.8906 Q121.6406,235.1563 121.2656,235.1563 Q120.9219,235.1563 120.7188,234.9531 Q120.5156,234.7656 120.4063,234.25 Q120.3594,233.8906 120.1719,233.7031 Q119.8438,233.3281 119.2344,233.1094 Q118.625,232.8906 118,232.8906 Q117.2344,232.8906 116.5938,233.2188 Q115.9688,233.5469 115.4688,234.2969 Q114.9844,235.0469 114.9844,236.0781 L114.9844,237.1719 Q114.9844,238.4063 115.875,239.2344 Q116.7656,240.0469 118.3594,240.0469 Q119.2969,240.0469 119.9531,239.7969 Q120.3438,239.6406 120.7656,239.2031 Q121.0313,238.9375 121.1719,238.8594 Q121.3281,238.7813 121.5313,238.7813 Q121.8594,238.7813 122.1094,239.0469 Q122.375,239.2969 122.375,239.6406 Q122.375,239.9844 122.0313,240.3906 Q121.5313,240.9688 120.7344,241.2969 Q119.6563,241.75 118.3594,241.75 Q116.8438,241.75 115.6406,241.125 Q114.6563,240.625 113.9688,239.5625 Q113.2813,238.4844 113.2813,237.2031 L113.2813,236.0469 Q113.2813,234.7188 113.8906,233.5781 Q114.5156,232.4219 115.6094,231.8125 Q116.7031,231.1875 117.9375,231.1875 Q118.6719,231.1875 119.3125,231.3594 Q119.9688,231.5156 120.5156,231.875 Z " fill="#000000"/><text fill="#000000" font-family="sans-serif" font-size="14" lengthAdjust="spacing" textLength="54" x="138.25" y="241.7285">Location</text><line style="stroke:#181818;stroke-width:0.5;" x1="50" x2="248" y1="252" y2="252"/><text fill="#000000" font-family="sans-serif" font-size="14" lengthAdjust="spacing" textLength="59" x="55" y="270.5332">name: str</text><text fill="#000000" font-family="sans-serif" font-size="14" lengthAdjust="spacing" textLength="93" x="55" y="288.1426">description: str</text><line style="stroke:#181818;stroke-width:0.5;" x1="50" x2="248" y1="295.2188" y2="295.2188"/><text fill="#000000" font-family="sans-serif" font-size="14" lengthAdjust="spacing" textLength="188" x="55" y="313.752">from_description(ld): Location</text></g><!--class World--><g id="elem_World"><rect codeLine="8" fill="#F1F1F1" height="118.4375" id="World" rx="2.5" ry="2.5" style="stroke:#181818;stroke-width:0.5;" width="254" x="22" y="42"/><ellipse cx="126.25" cy="58" fill="#ADD1B2" rx="11" ry="11" style="stroke:#181818;stroke-width:1.0;"/><path d="M129.0156,53.875 Q129.1719,53.6563 129.3594,53.5469 Q129.5469,53.4375 129.7656,53.4375 Q130.1406,53.4375 130.375,53.7031 Q130.6094,53.9531 130.6094,54.5625 L130.6094,56.0156 Q130.6094,56.625 130.375,56.8906 Q130.1406,57.1563 129.7656,57.1563 Q129.4219,57.1563 129.2188,56.9531 Q129.0156,56.7656 128.9063,56.25 Q128.8594,55.8906 128.6719,55.7031 Q128.3438,55.3281 127.7344,55.1094 Q127.125,54.8906 126.5,54.8906 Q125.7344,54.8906 125.0938,55.2188 Q124.4688,55.5469 123.9688,56.2969 Q123.4844,57.0469 123.4844,58.0781 L123.4844,59.1719 Q123.4844,60.4063 124.375,61.2344 Q125.2656,62.0469 126.8594,62.0469 Q127.7969,62.0469 128.4531,61.7969 Q128.8438,61.6406 129.2656,61.2031 Q129.5313,60.9375 129.6719,60.8594 Q129.8281,60.7813 130.0313,60.7813 Q130.3594,60.7813 130.6094,61.0469 Q130.875,61.2969 130.875,61.6406 Q130.875,61.9844 130.5313,62.3906 Q130.0313,62.9688 129.2344,63.2969 Q128.1563,63.75 126.8594,63.75 Q125.3438,63.75 124.1406,63.125 Q123.1563,62.625 122.4688,61.5625 Q121.7813,60.4844 121.7813,59.2031 L121.7813,58.0469 Q121.7813,56.7188 122.3906,55.5781 Q123.0156,54.4219 124.1094,53.8125 Q125.2031,53.1875 126.4375,53.1875 Q127.1719,53.1875 127.8125,53.3594 Q128.4688,53.5156 129.0156,53.875 Z " fill="#000000"/><text fill="#000000" font-family="sans-serif" font-size="14" lengthAdjust="spacing" textLength="37" x="146.75" y="63.7285">World</text><line style="stroke:#181818;stroke-width:0.5;" x1="23" x2="275" y1="74" y2="74"/><text fill="#000000" font-family="sans-serif" font-size="14" lengthAdjust="spacing" textLength="172" x="28" y="92.5332">locations: dict[str, Location]</text><text fill="#000000" font-family="sans-serif" font-size="14" lengthAdjust="spacing" textLength="156" x="28" y="110.1426">initial_location_name: str</text><line style="stroke:#181818;stroke-width:0.5;" x1="23" x2="275" y1="117.2188" y2="117.2188"/><text fill="#000000" font-family="sans-serif" font-size="14" lengthAdjust="spacing" textLength="242" x="28" y="135.752">from_location_descriptions(lds): World</text><text fill="#000000" font-family="sans-serif" font-size="14" font-weight="bold" lengthAdjust="spacing" textLength="228" x="28" y="153.3613">__getitem__(name: str): Location</text></g><!--link World to Location--><g id="link_World_Location"><path codeLine="15" d="M149,172.11 C149,191.58 149,195.09 149,213.84 " fill="none" id="World-Location" style="stroke:#181818;stroke-width:1.0;"/><polygon fill="#181818" points="149,160.11,145,166.11,149,172.11,153,166.11,149,160.11" style="stroke:#181818;stroke-width:1.0;"/><polygon fill="#181818" points="149,219.84,153,210.84,149,214.84,145,210.84,149,219.84" style="stroke:#181818;stroke-width:1.0;"/></g><!--SRC=[PO-n3i8m34HtlY9ZGLI8DQhw1UmC25bf4f2bDAdYq0NrtqbBCK5uz9tldhtgBGrAMw7CQ7rwH2lbU1JFZSYZdI8Ifw1Lmk3NvJm-dqb1AVB6MD8HXzdtAznYwA5GAsUsaZCNsxGfsiuXEbDKkTL9KXZKwPApztn-PHjwJAWSVEpmZxYGi5uWKMQY3BLKixtfMe2xJPXi3r1nNa7V7Bgs_E3DlglhzllWz080]--></g></svg>