<?xml version="1.0" encoding="us-ascii" standalone="no"?><svg xmlns="http://www.w3.org/2000/svg" xmlns:xlink="http://www.w3.org/1999/xlink" contentStyleType="text/css" height="379px" preserveAspectRatio="none" style="width:311px;height:379px;background:#FFFFFF;" version="1.1" viewBox="0 0 311 379" width="311px" zoomAndPan="magnify"><defs/><g><!--cluster adventure::v2b--><g id="cluster_adventure::v2b"><path d="M8.5,6 L116.5,6 A3.75,3.75 0 0 1 119,8.5 L126,29.6094 L301.5,29.6094 A2.5,2.5 0 0 1 304,32.1094 L304,369.5 A2.5,2.5 0 0 1 301.5,372 L8.5,372 A2.5,2.5 0 0 1 6,369.5 L6,8.5 A2.5,2.5 0 0 1 8.5,6 " fill="none" style="stroke:#000000;stroke-width:1.5;"/><line style="stroke:#000000;stroke-width:1.5;" x1="6" x2="126" y1="29.6094" y2="29.6094"/><text fill="#000000" font-family="sans-serif" font-size="14" font-weight="bold" lengthAdjust="spacing" textLength="107" x="10" y="22.5332">adventure::v2b</text></g><!--class Location--><g id="elem_Location"><rect codeLine="2" fill="#F1F1F1" height="136.0469" id="Location" rx="2.5" ry="2.5" style="stroke:#181818;stroke-width:0.5;" width="265" x="22.5" y="220"/><ellipse cx="123.75" cy="236" fill="#ADD1B2" rx="11" ry="11" style="stroke:#181818;stroke-width:1.0;"/><path d="M126.5156,231.875 Q126.6719,231.6563 126.8594,231.5469 Q127.0469,231.4375 127.2656,231.4375 Q127.6406,231.4375 127.875,231.7031 Q128.1094,231.9531 128.1094,232.5625 L128.1094,234.0156 Q128.1094,234.625 127.875,234.8906 Q127.6406,235.1563 127.2656,235.1563 Q126.9219,235.1563 126.7188,234.9531 Q126.5156,234.7656 126.4063,234.25 Q126.3594,233.8906 126.1719,233.7031 Q125.8438,233.3281 125.2344,233.1094 Q124.625,232.8906 124,232.8906 Q123.2344,232.8906 122.5938,233.2188 Q121.9688,233.5469 121.4688,234.2969 Q120.9844,235.0469 120.9844,236.0781 L120.9844,237.1719 Q120.9844,238.4063 121.875,239.2344 Q122.7656,240.0469 124.3594,240.0469 Q125.2969,240.0469 125.9531,239.7969 Q126.3438,239.6406 126.7656,239.2031 Q127.0313,238.9375 127.1719,238.8594 Q127.3281,238.7813 127.5313,238.7813 Q127.8594,238.7813 128.1094,239.0469 Q128.375,239.2969 128.375,239.6406 Q128.375,239.9844 128.0313,240.3906 Q127.5313,240.9688 126.7344,241.2969 Q125.6563,241.75 124.3594,241.75 Q122.8438,241.75 121.6406,241.125 Q120.6563,240.625 119.9688,239.5625 Q119.2813,238.4844 119.2813,237.2031 L119.2813,236.0469 Q119.2813,234.7188 119.8906,233.5781 Q120.5156,232.4219 121.6094,231.8125 Q122.7031,231.1875 123.9375,231.1875 Q124.6719,231.1875 125.3125,231.3594 Q125.9688,231.5156 126.5156,231.875 Z " fill="#000000"/><text fill="#000000" font-family="sans-serif" font-size="14" lengthAdjust="spacing" textLength="54" x="144.25" y="241.7285">Location</text><line style="stroke:#181818;stroke-width:0.5;" x1="23.5" x2="286.5" y1="252" y2="252"/><text fill="#000000" font-family="sans-serif" font-size="14" lengthAdjust="spacing" textLength="59" x="28.5" y="270.5332">name: str</text><text fill="#000000" font-family="sans-serif" font-size="14" lengthAdjust="spacing" textLength="93" x="28.5" y="288.1426">description: str</text><text fill="#000000" font-family="sans-serif" font-size="14" font-weight="bold" lengthAdjust="spacing" textLength="218" x="28.5" y="305.752">connections: dict[str, Location]</text><line style="stroke:#181818;stroke-width:0.5;" x1="23.5" x2="286.5" y1="312.8281" y2="312.8281"/><text fill="#000000" font-family="sans-serif" font-size="14" lengthAdjust="spacing" textLength="188" x="28.5" y="331.3613">from_description(ld): Location</text><text fill="#000000" font-family="sans-serif" font-size="14" font-weight="bold" lengthAdjust="spacing" textLength="253" x="28.5" y="348.9707">__getitem__(direction: str): Location</text></g><!--class World--><g id="elem_World"><rect codeLine="10" fill="#F1F1F1" height="118.4375" id="World" rx="2.5" ry="2.5" style="stroke:#181818;stroke-width:0.5;" width="254" x="28" y="42"/><ellipse cx="132.25" cy="58" fill="#ADD1B2" rx="11" ry="11" style="stroke:#181818;stroke-width:1.0;"/><path d="M135.0156,53.875 Q135.1719,53.6563 135.3594,53.5469 Q135.5469,53.4375 135.7656,53.4375 Q136.1406,53.4375 136.375,53.7031 Q136.6094,53.9531 136.6094,54.5625 L136.6094,56.0156 Q136.6094,56.625 136.375,56.8906 Q136.1406,57.1563 135.7656,57.1563 Q135.4219,57.1563 135.2188,56.9531 Q135.0156,56.7656 134.9063,56.25 Q134.8594,55.8906 134.6719,55.7031 Q134.3438,55.3281 133.7344,55.1094 Q133.125,54.8906 132.5,54.8906 Q131.7344,54.8906 131.0938,55.2188 Q130.4688,55.5469 129.9688,56.2969 Q129.4844,57.0469 129.4844,58.0781 L129.4844,59.1719 Q129.4844,60.4063 130.375,61.2344 Q131.2656,62.0469 132.8594,62.0469 Q133.7969,62.0469 134.4531,61.7969 Q134.8438,61.6406 135.2656,61.2031 Q135.5313,60.9375 135.6719,60.8594 Q135.8281,60.7813 136.0313,60.7813 Q136.3594,60.7813 136.6094,61.0469 Q136.875,61.2969 136.875,61.6406 Q136.875,61.9844 136.5313,62.3906 Q136.0313,62.9688 135.2344,63.2969 Q134.1563,63.75 132.8594,63.75 Q131.3438,63.75 130.1406,63.125 Q129.1563,62.625 128.4688,61.5625 Q127.7813,60.4844 127.7813,59.2031 L127.7813,58.0469 Q127.7813,56.7188 128.3906,55.5781 Q129.0156,54.4219 130.1094,53.8125 Q131.2031,53.1875 132.4375,53.1875 Q133.1719,53.1875 133.8125,53.3594 Q134.4688,53.5156 135.0156,53.875 Z " fill="#000000"/><text fill="#000000" font-family="sans-serif" font-size="14" lengthAdjust="spacing" textLength="37" x="152.75" y="63.7285">World</text><line style="stroke:#181818;stroke-width:0.5;" x1="29" x2="281" y1="74" y2="74"/><text fill="#000000" font-family="sans-serif" font-size="14" lengthAdjust="spacing" textLength="172" x="34" y="92.5332">locations: dict[str, Location]</text><text fill="#000000" font-family="sans-serif" font-size="14" lengthAdjust="spacing" textLength="156" x="34" y="110.1426">initial_location_name: str</text><line style="stroke:#181818;stroke-width:0.5;" x1="29" x2="281" y1="117.2188" y2="117.2188"/><text fill="#000000" font-family="sans-serif" font-size="14" lengthAdjust="spacing" textLength="242" x="34" y="135.752">from_location_descriptions(lds): World</text><text fill="#000000" font-family="sans-serif" font-size="14" lengthAdjust="spacing" textLength="209" x="34" y="153.3613">__getitem__(name: str): Location</text></g><!--link World to Location--><g id="link_World_Location"><path codeLine="17" d="M155,172.03 C155,191 155,194.22 155,213.81 " fill="none" id="World-Location" style="stroke:#181818;stroke-width:1.0;"/><polygon fill="#181818" points="155,160.03,151,166.03,155,172.03,159,166.03,155,160.03" style="stroke:#181818;stroke-width:1.0;"/><polygon fill="#181818" points="155,219.81,159,210.81,155,214.81,151,210.81,155,219.81" style="stroke:#181818;stroke-width:1.0;"/></g><!--SRC=[RP3D3i8W48JlVGgErTYOU2HDdy2x1sC8XTLiGg41xCNqtQK_hlYpnvsFsHcix23qKW6JUW0Rxnuu7mujUnGiZJ8o17PqIaPqTbrEOzCxpaBqjD4GbCT-uZw5kcsKinRK90NEDAfuJi2EV2_rlcs8lthNYSojD7h3YSrjXRX1n0YT4AL6lroOZsSFo7iiiaedvutE-fYL_f-FCBGOKHhnmiNlFypnISzwX5Gaf63pQSBp3cJstNUDleJULbNpbiSd]--></g></svg>