<?xml version="1.0" encoding="us-ascii" standalone="no"?><svg xmlns="http://www.w3.org/2000/svg" xmlns:xlink="http://www.w3.org/1999/xlink" contentStyleType="text/css" height="524px" preserveAspectRatio="none" style="width:610px;height:524px;background:#FFFFFF;" version="1.1" viewBox="0 0 610 524" width="610px" zoomAndPan="magnify"><defs/><g><!--cluster adventure::v3a--><g id="cluster_adventure::v3a"><path d="M8.5,6 L115.5,6 A3.75,3.75 0 0 1 118,8.5 L125,29.6094 L600.5,29.6094 A2.5,2.5 0 0 1 603,32.1094 L603,514.5 A2.5,2.5 0 0 1 600.5,517 L8.5,517 A2.5,2.5 0 0 1 6,514.5 L6,8.5 A2.5,2.5 0 0 1 8.5,6 " fill="none" style="stroke:#000000;stroke-width:1.5;"/><line style="stroke:#000000;stroke-width:1.5;" x1="6" x2="125" y1="29.6094" y2="29.6094"/><text fill="#000000" font-family="sans-serif" font-size="14" font-weight="bold" lengthAdjust="spacing" textLength="106" x="10" y="22.5332">adventure::v3a</text></g><!--class Location--><g id="elem_Location"><rect codeLine="3" fill="#F1F1F1" height="136.0469" id="Location" rx="2.5" ry="2.5" style="stroke:#181818;stroke-width:0.5;" width="333" x="122.5" y="365"/><ellipse cx="257.75" cy="381" fill="#ADD1B2" rx="11" ry="11" style="stroke:#181818;stroke-width:1.0;"/><path d="M260.5156,376.875 Q260.6719,376.6563 260.8594,376.5469 Q261.0469,376.4375 261.2656,376.4375 Q261.6406,376.4375 261.875,376.7031 Q262.1094,376.9531 262.1094,377.5625 L262.1094,379.0156 Q262.1094,379.625 261.875,379.8906 Q261.6406,380.1563 261.2656,380.1563 Q260.9219,380.1563 260.7188,379.9531 Q260.5156,379.7656 260.4063,379.25 Q260.3594,378.8906 260.1719,378.7031 Q259.8438,378.3281 259.2344,378.1094 Q258.625,377.8906 258,377.8906 Q257.2344,377.8906 256.5938,378.2188 Q255.9688,378.5469 255.4688,379.2969 Q254.9844,380.0469 254.9844,381.0781 L254.9844,382.1719 Q254.9844,383.4063 255.875,384.2344 Q256.7656,385.0469 258.3594,385.0469 Q259.2969,385.0469 259.9531,384.7969 Q260.3438,384.6406 260.7656,384.2031 Q261.0313,383.9375 261.1719,383.8594 Q261.3281,383.7813 261.5313,383.7813 Q261.8594,383.7813 262.1094,384.0469 Q262.375,384.2969 262.375,384.6406 Q262.375,384.9844 262.0313,385.3906 Q261.5313,385.9688 260.7344,386.2969 Q259.6563,386.75 258.3594,386.75 Q256.8438,386.75 255.6406,386.125 Q254.6563,385.625 253.9688,384.5625 Q253.2813,383.4844 253.2813,382.2031 L253.2813,381.0469 Q253.2813,379.7188 253.8906,378.5781 Q254.5156,377.4219 255.6094,376.8125 Q256.7031,376.1875 257.9375,376.1875 Q258.6719,376.1875 259.3125,376.3594 Q259.9688,376.5156 260.5156,376.875 Z " fill="#000000"/><text fill="#000000" font-family="sans-serif" font-size="14" lengthAdjust="spacing" textLength="54" x="278.25" y="386.7285">Location</text><line style="stroke:#181818;stroke-width:0.5;" x1="123.5" x2="454.5" y1="397" y2="397"/><text fill="#000000" font-family="sans-serif" font-size="14" lengthAdjust="spacing" textLength="59" x="128.5" y="415.5332">name: str</text><text fill="#000000" font-family="sans-serif" font-size="14" lengthAdjust="spacing" textLength="93" x="128.5" y="433.1426">description: str</text><text fill="#000000" font-family="sans-serif" font-size="14" lengthAdjust="spacing" textLength="192" x="128.5" y="450.752">connections: dict[str, Location]</text><line style="stroke:#181818;stroke-width:0.5;" x1="123.5" x2="454.5" y1="457.8281" y2="457.8281"/><text fill="#000000" font-family="sans-serif" font-size="14" lengthAdjust="spacing" textLength="321" x="128.5" y="476.3613">from_description(ld: LocationDescription): Location</text><text fill="#000000" font-family="sans-serif" font-size="14" lengthAdjust="spacing" textLength="228" x="128.5" y="493.9707">__getitem__(direction: str): Location</text></g><!--class World--><g id="elem_World"><rect codeLine="11" fill="#F1F1F1" height="118.4375" id="World" rx="2.5" ry="2.5" style="stroke:#181818;stroke-width:0.5;" width="395" x="191.5" y="186"/><ellipse cx="366.25" cy="202" fill="#ADD1B2" rx="11" ry="11" style="stroke:#181818;stroke-width:1.0;"/><path d="M369.0156,197.875 Q369.1719,197.6563 369.3594,197.5469 Q369.5469,197.4375 369.7656,197.4375 Q370.1406,197.4375 370.375,197.7031 Q370.6094,197.9531 370.6094,198.5625 L370.6094,200.0156 Q370.6094,200.625 370.375,200.8906 Q370.1406,201.1563 369.7656,201.1563 Q369.4219,201.1563 369.2188,200.9531 Q369.0156,200.7656 368.9063,200.25 Q368.8594,199.8906 368.6719,199.7031 Q368.3438,199.3281 367.7344,199.1094 Q367.125,198.8906 366.5,198.8906 Q365.7344,198.8906 365.0938,199.2188 Q364.4688,199.5469 363.9688,200.2969 Q363.4844,201.0469 363.4844,202.0781 L363.4844,203.1719 Q363.4844,204.4063 364.375,205.2344 Q365.2656,206.0469 366.8594,206.0469 Q367.7969,206.0469 368.4531,205.7969 Q368.8438,205.6406 369.2656,205.2031 Q369.5313,204.9375 369.6719,204.8594 Q369.8281,204.7813 370.0313,204.7813 Q370.3594,204.7813 370.6094,205.0469 Q370.875,205.2969 370.875,205.6406 Q370.875,205.9844 370.5313,206.3906 Q370.0313,206.9688 369.2344,207.2969 Q368.1563,207.75 366.8594,207.75 Q365.3438,207.75 364.1406,207.125 Q363.1563,206.625 362.4688,205.5625 Q361.7813,204.4844 361.7813,203.2031 L361.7813,202.0469 Q361.7813,200.7188 362.3906,199.5781 Q363.0156,198.4219 364.1094,197.8125 Q365.2031,197.1875 366.4375,197.1875 Q367.1719,197.1875 367.8125,197.3594 Q368.4688,197.5156 369.0156,197.875 Z " fill="#000000"/><text fill="#000000" font-family="sans-serif" font-size="14" lengthAdjust="spacing" textLength="37" x="386.75" y="207.7285">World</text><line style="stroke:#181818;stroke-width:0.5;" x1="192.5" x2="585.5" y1="218" y2="218"/><text fill="#000000" font-family="sans-serif" font-size="14" lengthAdjust="spacing" textLength="172" x="197.5" y="236.5332">locations: dict[str, Location]</text><text fill="#000000" font-family="sans-serif" font-size="14" lengthAdjust="spacing" textLength="156" x="197.5" y="254.1426">initial_location_name: str</text><line style="stroke:#181818;stroke-width:0.5;" x1="192.5" x2="585.5" y1="261.2188" y2="261.2188"/><text fill="#000000" font-family="sans-serif" font-size="14" lengthAdjust="spacing" textLength="383" x="197.5" y="279.752">from_location_descriptions(lds: LocationDescription[]): World</text><text fill="#000000" font-family="sans-serif" font-size="14" lengthAdjust="spacing" textLength="209" x="197.5" y="297.3613">__getitem__(name: str): Location</text></g><!--class WorldFactory--><g id="elem_WorldFactory"><rect codeLine="18" fill="#F1F1F1" height="65.6094" id="WorldFactory" rx="2.5" ry="2.5" style="stroke:#181818;stroke-width:0.5;" width="304" x="237" y="42"/><ellipse cx="342.25" cy="58" fill="#ADD1B2" rx="11" ry="11" style="stroke:#181818;stroke-width:1.0;"/><path d="M345.0156,53.875 Q345.1719,53.6563 345.3594,53.5469 Q345.5469,53.4375 345.7656,53.4375 Q346.1406,53.4375 346.375,53.7031 Q346.6094,53.9531 346.6094,54.5625 L346.6094,56.0156 Q346.6094,56.625 346.375,56.8906 Q346.1406,57.1563 345.7656,57.1563 Q345.4219,57.1563 345.2188,56.9531 Q345.0156,56.7656 344.9063,56.25 Q344.8594,55.8906 344.6719,55.7031 Q344.3438,55.3281 343.7344,55.1094 Q343.125,54.8906 342.5,54.8906 Q341.7344,54.8906 341.0938,55.2188 Q340.4688,55.5469 339.9688,56.2969 Q339.4844,57.0469 339.4844,58.0781 L339.4844,59.1719 Q339.4844,60.4063 340.375,61.2344 Q341.2656,62.0469 342.8594,62.0469 Q343.7969,62.0469 344.4531,61.7969 Q344.8438,61.6406 345.2656,61.2031 Q345.5313,60.9375 345.6719,60.8594 Q345.8281,60.7813 346.0313,60.7813 Q346.3594,60.7813 346.6094,61.0469 Q346.875,61.2969 346.875,61.6406 Q346.875,61.9844 346.5313,62.3906 Q346.0313,62.9688 345.2344,63.2969 Q344.1563,63.75 342.8594,63.75 Q341.3438,63.75 340.1406,63.125 Q339.1563,62.625 338.4688,61.5625 Q337.7813,60.4844 337.7813,59.2031 L337.7813,58.0469 Q337.7813,56.7188 338.3906,55.5781 Q339.0156,54.4219 340.1094,53.8125 Q341.2031,53.1875 342.4375,53.1875 Q343.1719,53.1875 343.8125,53.3594 Q344.4688,53.5156 345.0156,53.875 Z " fill="#000000"/><text fill="#000000" font-family="sans-serif" font-size="14" lengthAdjust="spacing" textLength="85" x="362.75" y="63.7285">WorldFactory</text><line style="stroke:#181818;stroke-width:0.5;" x1="238" x2="540" y1="74" y2="74"/><line style="stroke:#181818;stroke-width:0.5;" x1="238" x2="540" y1="82" y2="82"/><text fill="#000000" font-family="sans-serif" font-size="14" lengthAdjust="spacing" textLength="292" x="243" y="100.5332">create(lds: const LocationDescription[]): World</text></g><!--class Pawn--><g id="elem_Pawn"><rect codeLine="22" fill="#ADD8E6" height="100.8281" id="Pawn" rx="2.5" ry="2.5" style="stroke:#00008B;stroke-width:2.0;" width="134" x="22" y="194.5"/><ellipse cx="67.75" cy="210.5" fill="#ADD1B2" rx="11" ry="11" style="stroke:#181818;stroke-width:1.0;"/><path d="M70.5156,206.375 Q70.6719,206.1563 70.8594,206.0469 Q71.0469,205.9375 71.2656,205.9375 Q71.6406,205.9375 71.875,206.2031 Q72.1094,206.4531 72.1094,207.0625 L72.1094,208.5156 Q72.1094,209.125 71.875,209.3906 Q71.6406,209.6563 71.2656,209.6563 Q70.9219,209.6563 70.7188,209.4531 Q70.5156,209.2656 70.4063,208.75 Q70.3594,208.3906 70.1719,208.2031 Q69.8438,207.8281 69.2344,207.6094 Q68.625,207.3906 68,207.3906 Q67.2344,207.3906 66.5938,207.7188 Q65.9688,208.0469 65.4688,208.7969 Q64.9844,209.5469 64.9844,210.5781 L64.9844,211.6719 Q64.9844,212.9063 65.875,213.7344 Q66.7656,214.5469 68.3594,214.5469 Q69.2969,214.5469 69.9531,214.2969 Q70.3438,214.1406 70.7656,213.7031 Q71.0313,213.4375 71.1719,213.3594 Q71.3281,213.2813 71.5313,213.2813 Q71.8594,213.2813 72.1094,213.5469 Q72.375,213.7969 72.375,214.1406 Q72.375,214.4844 72.0313,214.8906 Q71.5313,215.4688 70.7344,215.7969 Q69.6563,216.25 68.3594,216.25 Q66.8438,216.25 65.6406,215.625 Q64.6563,215.125 63.9688,214.0625 Q63.2813,212.9844 63.2813,211.7031 L63.2813,210.5469 Q63.2813,209.2188 63.8906,208.0781 Q64.5156,206.9219 65.6094,206.3125 Q66.7031,205.6875 67.9375,205.6875 Q68.6719,205.6875 69.3125,205.8594 Q69.9688,206.0156 70.5156,206.375 Z " fill="#000000"/><text fill="#000000" font-family="sans-serif" font-size="14" lengthAdjust="spacing" textLength="34" x="88.25" y="216.2285">Pawn</text><line style="stroke:#00008B;stroke-width:2.0;" x1="23" x2="155" y1="226.5" y2="226.5"/><text fill="#000000" font-family="sans-serif" font-size="14" lengthAdjust="spacing" textLength="59" x="28" y="245.0332">name: str</text><text fill="#000000" font-family="sans-serif" font-size="14" lengthAdjust="spacing" textLength="111" x="28" y="262.6426">location: Location</text><line style="stroke:#00008B;stroke-width:2.0;" x1="23" x2="155" y1="269.7188" y2="269.7188"/><text fill="#000000" font-family="sans-serif" font-size="14" lengthAdjust="spacing" textLength="122" x="28" y="288.252">move(direction: str)</text></g><!--link World to Location--><g id="link_World_Location"><path codeLine="28" d="M352.088,314.6595 C341.718,333.9495 338.6003,339.7349 327.9003,359.6449 " fill="none" id="World-Location" style="stroke:#181818;stroke-width:1.0;"/><polygon fill="#181818" points="357.77,304.09,351.4058,307.4808,352.088,314.6595,358.4522,311.2688,357.77,304.09" style="stroke:#181818;stroke-width:1.0;"/><polygon fill="#181818" points="325.06,364.93,332.8439,358.8959,327.4269,360.5257,325.7971,355.1088,325.06,364.93" style="stroke:#181818;stroke-width:1.0;"/></g><!--link WorldFactory to World--><g id="link_WorldFactory_World"><path codeLine="29" d="M389,108.39 C389,130.32 389,153.92 389,179.86 " fill="none" id="WorldFactory-to-World" style="stroke:#181818;stroke-width:1.0;stroke-dasharray:7.0,7.0;"/><polygon fill="#181818" points="389,185.86,393,176.86,389,180.86,385,176.86,389,185.86" style="stroke:#181818;stroke-width:1.0;"/><text fill="#000000" font-family="sans-serif" font-size="13" lengthAdjust="spacing" textLength="45" x="394" y="152.4951">Creates</text></g><!--link Pawn to Location--><g id="link_Pawn_Location"><path codeLine="30" d="M142.33,295.6 C165.13,316.8 187.7062,337.7941 212.2562,360.6241 " fill="none" id="Pawn-to-Location" style="stroke:#181818;stroke-width:1.0;"/><polygon fill="#181818" points="216.65,364.71,212.7833,355.6519,212.9885,361.3051,207.3354,361.5103,216.65,364.71" style="stroke:#181818;stroke-width:1.0;"/></g><!--SRC=[ZP8nJyCm48Nt_WghB0NHB6n6wW0L4mCRGrLP5_ieLXsxigz12F7VSPpMTKf4yPPtxtplyyL2Ws474Xce5YtjFNBUtW7xch1uf84GsBEJGDhPWzWT6_iu2-IpeZ18htUTRrYGpbgKdHuuKrhIAbPlywNhR7pphX75DJEZUBOjJ_hrISszGcoGD64Zn4nftyzBESxTtvE2xDLvemeiSt1UIAgj9Wr67EtYztCac5mlg4B42gDSgtNCcXADOkKPbucUG9BpdmMOz0Y4_UYua43_232uzmK-B6DNHbkiQXStimI_VJ1xlAz1RhdHctUgu-UV_yZnFKOMsBWMppTNfkWtTJEVBuQz0zwgMlG2PrFsc933DDbI_BBv1m00]--></g></svg>