<?xml version="1.0" encoding="us-ascii" standalone="no"?><svg xmlns="http://www.w3.org/2000/svg" xmlns:xlink="http://www.w3.org/1999/xlink" contentStyleType="text/css" height="571px" preserveAspectRatio="none" style="width:530px;height:571px;background:#FFFFFF;" version="1.1" viewBox="0 0 530 571" width="530px" zoomAndPan="magnify"><defs/><g><!--cluster adventure::v3c--><g id="cluster_adventure::v3c"><path d="M8.5,6 L115.5,6 A3.75,3.75 0 0 1 118,8.5 L125,29.6094 L520.5,29.6094 A2.5,2.5 0 0 1 523,32.1094 L523,561.5 A2.5,2.5 0 0 1 520.5,564 L8.5,564 A2.5,2.5 0 0 1 6,561.5 L6,8.5 A2.5,2.5 0 0 1 8.5,6 " fill="none" style="stroke:#000000;stroke-width:1.5;"/><line style="stroke:#000000;stroke-width:1.5;" x1="6" x2="125" y1="29.6094" y2="29.6094"/><text fill="#000000" font-family="sans-serif" font-size="14" font-weight="bold" lengthAdjust="spacing" textLength="106" x="10" y="22.5332">adventure::v3c</text></g><!--class Action--><g id="elem_Action"><rect codeLine="5" fill="#ADD8E6" height="118.4375" id="Action" rx="2.5" ry="2.5" style="stroke:#00008B;stroke-width:2.0;" width="186" x="321" y="313"/><ellipse cx="390.25" cy="329" fill="#ADD1B2" rx="11" ry="11" style="stroke:#181818;stroke-width:1.0;"/><path d="M393.0156,324.875 Q393.1719,324.6563 393.3594,324.5469 Q393.5469,324.4375 393.7656,324.4375 Q394.1406,324.4375 394.375,324.7031 Q394.6094,324.9531 394.6094,325.5625 L394.6094,327.0156 Q394.6094,327.625 394.375,327.8906 Q394.1406,328.1563 393.7656,328.1563 Q393.4219,328.1563 393.2188,327.9531 Q393.0156,327.7656 392.9063,327.25 Q392.8594,326.8906 392.6719,326.7031 Q392.3438,326.3281 391.7344,326.1094 Q391.125,325.8906 390.5,325.8906 Q389.7344,325.8906 389.0938,326.2188 Q388.4688,326.5469 387.9688,327.2969 Q387.4844,328.0469 387.4844,329.0781 L387.4844,330.1719 Q387.4844,331.4063 388.375,332.2344 Q389.2656,333.0469 390.8594,333.0469 Q391.7969,333.0469 392.4531,332.7969 Q392.8438,332.6406 393.2656,332.2031 Q393.5313,331.9375 393.6719,331.8594 Q393.8281,331.7813 394.0313,331.7813 Q394.3594,331.7813 394.6094,332.0469 Q394.875,332.2969 394.875,332.6406 Q394.875,332.9844 394.5313,333.3906 Q394.0313,333.9688 393.2344,334.2969 Q392.1563,334.75 390.8594,334.75 Q389.3438,334.75 388.1406,334.125 Q387.1563,333.625 386.4688,332.5625 Q385.7813,331.4844 385.7813,330.2031 L385.7813,329.0469 Q385.7813,327.7188 386.3906,326.5781 Q387.0156,325.4219 388.1094,324.8125 Q389.2031,324.1875 390.4375,324.1875 Q391.1719,324.1875 391.8125,324.3594 Q392.4688,324.5156 393.0156,324.875 Z " fill="#000000"/><text fill="#000000" font-family="sans-serif" font-size="14" lengthAdjust="spacing" textLength="39" x="410.75" y="334.7285">Action</text><line style="stroke:#00008B;stroke-width:2.0;" x1="322" x2="506" y1="345" y2="345"/><line style="stroke:#00008B;stroke-width:2.0;" x1="322" x2="506" y1="353" y2="353"/><rect fill="#F24D5C" height="6" style="stroke:#C82930;stroke-width:1.0;" width="6" x="329" y="364.3047"/><text fill="#000000" font-family="sans-serif" font-size="14" lengthAdjust="spacing" textLength="49" x="341" y="371.5332">Action()</text><rect fill="#F24D5C" height="6" style="stroke:#C82930;stroke-width:1.0;" width="6" x="329" y="381.9141"/><text fill="#000000" font-family="sans-serif" font-size="14" font-style="italic" lengthAdjust="spacing" textLength="57" x="341" y="389.1426">~Action()</text><ellipse cx="332" cy="402.5234" fill="#84BE84" rx="3" ry="3" style="stroke:#038048;stroke-width:1.0;"/><text fill="#000000" font-family="sans-serif" font-size="14" font-style="italic" lengthAdjust="spacing" textLength="124" x="341" y="406.752">Description(): string</text><ellipse cx="332" cy="420.1328" fill="#84BE84" rx="3" ry="3" style="stroke:#038048;stroke-width:1.0;"/><text fill="#000000" font-family="sans-serif" font-size="14" font-style="italic" lengthAdjust="spacing" textLength="160" x="341" y="424.3613">Perform(instigator: Pawn)</text></g><!--class   MoveAction  --><g id="elem_  MoveAction  "><rect codeLine="12" fill="#ADD8E6" height="48" id="  MoveAction  " rx="2.5" ry="2.5" style="stroke:#00008B;stroke-width:2.0;" width="121" x="201.5" y="492"/><ellipse cx="216.5" cy="508" fill="#ADD1B2" rx="11" ry="11" style="stroke:#181818;stroke-width:1.0;"/><path d="M219.2656,503.875 Q219.4219,503.6563 219.6094,503.5469 Q219.7969,503.4375 220.0156,503.4375 Q220.3906,503.4375 220.625,503.7031 Q220.8594,503.9531 220.8594,504.5625 L220.8594,506.0156 Q220.8594,506.625 220.625,506.8906 Q220.3906,507.1563 220.0156,507.1563 Q219.6719,507.1563 219.4688,506.9531 Q219.2656,506.7656 219.1563,506.25 Q219.1094,505.8906 218.9219,505.7031 Q218.5938,505.3281 217.9844,505.1094 Q217.375,504.8906 216.75,504.8906 Q215.9844,504.8906 215.3438,505.2188 Q214.7188,505.5469 214.2188,506.2969 Q213.7344,507.0469 213.7344,508.0781 L213.7344,509.1719 Q213.7344,510.4063 214.625,511.2344 Q215.5156,512.0469 217.1094,512.0469 Q218.0469,512.0469 218.7031,511.7969 Q219.0938,511.6406 219.5156,511.2031 Q219.7813,510.9375 219.9219,510.8594 Q220.0781,510.7813 220.2813,510.7813 Q220.6094,510.7813 220.8594,511.0469 Q221.125,511.2969 221.125,511.6406 Q221.125,511.9844 220.7813,512.3906 Q220.2813,512.9688 219.4844,513.2969 Q218.4063,513.75 217.1094,513.75 Q215.5938,513.75 214.3906,513.125 Q213.4063,512.625 212.7188,511.5625 Q212.0313,510.4844 212.0313,509.2031 L212.0313,508.0469 Q212.0313,506.7188 212.6406,505.5781 Q213.2656,504.4219 214.3594,503.8125 Q215.4531,503.1875 216.6875,503.1875 Q217.4219,503.1875 218.0625,503.3594 Q218.7188,503.5156 219.2656,503.875 Z " fill="#000000"/><text fill="#000000" font-family="sans-serif" font-size="14" lengthAdjust="spacing" textLength="73" x="238.5" y="513.7285">MoveAction</text><line style="stroke:#00008B;stroke-width:2.0;" x1="202.5" x2="321.5" y1="524" y2="524"/><line style="stroke:#00008B;stroke-width:2.0;" x1="202.5" x2="321.5" y1="532" y2="532"/></g><!--class  SkipTurnAction --><g id="elem_ SkipTurnAction "><rect codeLine="16" fill="#ADD8E6" height="48" id=" SkipTurnAction " rx="2.5" ry="2.5" style="stroke:#00008B;stroke-width:2.0;" width="136" x="358" y="492"/><ellipse cx="373" cy="508" fill="#ADD1B2" rx="11" ry="11" style="stroke:#181818;stroke-width:1.0;"/><path d="M375.7656,503.875 Q375.9219,503.6563 376.1094,503.5469 Q376.2969,503.4375 376.5156,503.4375 Q376.8906,503.4375 377.125,503.7031 Q377.3594,503.9531 377.3594,504.5625 L377.3594,506.0156 Q377.3594,506.625 377.125,506.8906 Q376.8906,507.1563 376.5156,507.1563 Q376.1719,507.1563 375.9688,506.9531 Q375.7656,506.7656 375.6563,506.25 Q375.6094,505.8906 375.4219,505.7031 Q375.0938,505.3281 374.4844,505.1094 Q373.875,504.8906 373.25,504.8906 Q372.4844,504.8906 371.8438,505.2188 Q371.2188,505.5469 370.7188,506.2969 Q370.2344,507.0469 370.2344,508.0781 L370.2344,509.1719 Q370.2344,510.4063 371.125,511.2344 Q372.0156,512.0469 373.6094,512.0469 Q374.5469,512.0469 375.2031,511.7969 Q375.5938,511.6406 376.0156,511.2031 Q376.2813,510.9375 376.4219,510.8594 Q376.5781,510.7813 376.7813,510.7813 Q377.1094,510.7813 377.3594,511.0469 Q377.625,511.2969 377.625,511.6406 Q377.625,511.9844 377.2813,512.3906 Q376.7813,512.9688 375.9844,513.2969 Q374.9063,513.75 373.6094,513.75 Q372.0938,513.75 370.8906,513.125 Q369.9063,512.625 369.2188,511.5625 Q368.5313,510.4844 368.5313,509.2031 L368.5313,508.0469 Q368.5313,506.7188 369.1406,505.5781 Q369.7656,504.4219 370.8594,503.8125 Q371.9531,503.1875 373.1875,503.1875 Q373.9219,503.1875 374.5625,503.3594 Q375.2188,503.5156 375.7656,503.875 Z " fill="#000000"/><text fill="#000000" font-family="sans-serif" font-size="14" lengthAdjust="spacing" textLength="96" x="391" y="513.7285">SkipTurnAction</text><line style="stroke:#00008B;stroke-width:2.0;" x1="359" x2="493" y1="524" y2="524"/><line style="stroke:#00008B;stroke-width:2.0;" x1="359" x2="493" y1="532" y2="532"/></g><!--class Pawn--><g id="elem_Pawn"><rect codeLine="21" fill="#F1F1F1" height="100.8281" id="Pawn" rx="2.5" ry="2.5" style="stroke:#181818;stroke-width:0.5;" width="173" x="258.5" y="151"/><ellipse cx="323.75" cy="167" fill="#ADD1B2" rx="11" ry="11" style="stroke:#181818;stroke-width:1.0;"/><path d="M326.5156,162.875 Q326.6719,162.6563 326.8594,162.5469 Q327.0469,162.4375 327.2656,162.4375 Q327.6406,162.4375 327.875,162.7031 Q328.1094,162.9531 328.1094,163.5625 L328.1094,165.0156 Q328.1094,165.625 327.875,165.8906 Q327.6406,166.1563 327.2656,166.1563 Q326.9219,166.1563 326.7188,165.9531 Q326.5156,165.7656 326.4063,165.25 Q326.3594,164.8906 326.1719,164.7031 Q325.8438,164.3281 325.2344,164.1094 Q324.625,163.8906 324,163.8906 Q323.2344,163.8906 322.5938,164.2188 Q321.9688,164.5469 321.4688,165.2969 Q320.9844,166.0469 320.9844,167.0781 L320.9844,168.1719 Q320.9844,169.4063 321.875,170.2344 Q322.7656,171.0469 324.3594,171.0469 Q325.2969,171.0469 325.9531,170.7969 Q326.3438,170.6406 326.7656,170.2031 Q327.0313,169.9375 327.1719,169.8594 Q327.3281,169.7813 327.5313,169.7813 Q327.8594,169.7813 328.1094,170.0469 Q328.375,170.2969 328.375,170.6406 Q328.375,170.9844 328.0313,171.3906 Q327.5313,171.9688 326.7344,172.2969 Q325.6563,172.75 324.3594,172.75 Q322.8438,172.75 321.6406,172.125 Q320.6563,171.625 319.9688,170.5625 Q319.2813,169.4844 319.2813,168.2031 L319.2813,167.0469 Q319.2813,165.7188 319.8906,164.5781 Q320.5156,163.4219 321.6094,162.8125 Q322.7031,162.1875 323.9375,162.1875 Q324.6719,162.1875 325.3125,162.3594 Q325.9688,162.5156 326.5156,162.875 Z " fill="#000000"/><text fill="#000000" font-family="sans-serif" font-size="14" lengthAdjust="spacing" textLength="34" x="344.25" y="172.7285">Pawn</text><line style="stroke:#181818;stroke-width:0.5;" x1="259.5" x2="430.5" y1="183" y2="183"/><text fill="#000000" font-family="sans-serif" font-size="14" lengthAdjust="spacing" textLength="59" x="264.5" y="201.5332">name: str</text><text fill="#000000" font-family="sans-serif" font-size="14" lengthAdjust="spacing" textLength="116" x="264.5" y="219.1426">location: Location*</text><line style="stroke:#181818;stroke-width:0.5;" x1="259.5" x2="430.5" y1="226.2188" y2="226.2188"/><text fill="#000000" font-family="sans-serif" font-size="14" font-weight="bold" lengthAdjust="spacing" textLength="161" x="264.5" y="244.752">perform(action: Action)</text></g><!--class     Location    --><g id="elem_    Location    "><rect codeLine="29" fill="#F1F1F1" height="48" id="    Location    " rx="2.5" ry="2.5" style="stroke:#181818;stroke-width:0.5;" width="118" x="22" y="348"/><ellipse cx="37" cy="364" fill="#ADD1B2" rx="11" ry="11" style="stroke:#181818;stroke-width:1.0;"/><path d="M39.7656,359.875 Q39.9219,359.6563 40.1094,359.5469 Q40.2969,359.4375 40.5156,359.4375 Q40.8906,359.4375 41.125,359.7031 Q41.3594,359.9531 41.3594,360.5625 L41.3594,362.0156 Q41.3594,362.625 41.125,362.8906 Q40.8906,363.1563 40.5156,363.1563 Q40.1719,363.1563 39.9688,362.9531 Q39.7656,362.7656 39.6563,362.25 Q39.6094,361.8906 39.4219,361.7031 Q39.0938,361.3281 38.4844,361.1094 Q37.875,360.8906 37.25,360.8906 Q36.4844,360.8906 35.8438,361.2188 Q35.2188,361.5469 34.7188,362.2969 Q34.2344,363.0469 34.2344,364.0781 L34.2344,365.1719 Q34.2344,366.4063 35.125,367.2344 Q36.0156,368.0469 37.6094,368.0469 Q38.5469,368.0469 39.2031,367.7969 Q39.5938,367.6406 40.0156,367.2031 Q40.2813,366.9375 40.4219,366.8594 Q40.5781,366.7813 40.7813,366.7813 Q41.1094,366.7813 41.3594,367.0469 Q41.625,367.2969 41.625,367.6406 Q41.625,367.9844 41.2813,368.3906 Q40.7813,368.9688 39.9844,369.2969 Q38.9063,369.75 37.6094,369.75 Q36.0938,369.75 34.8906,369.125 Q33.9063,368.625 33.2188,367.5625 Q32.5313,366.4844 32.5313,365.2031 L32.5313,364.0469 Q32.5313,362.7188 33.1406,361.5781 Q33.7656,360.4219 34.8594,359.8125 Q35.9531,359.1875 37.1875,359.1875 Q37.9219,359.1875 38.5625,359.3594 Q39.2188,359.5156 39.7656,359.875 Z " fill="#000000"/><text fill="#000000" font-family="sans-serif" font-size="14" lengthAdjust="spacing" textLength="54" x="67" y="369.7285">Location</text><line style="stroke:#181818;stroke-width:0.5;" x1="23" x2="139" y1="380" y2="380"/><line style="stroke:#181818;stroke-width:0.5;" x1="23" x2="139" y1="388" y2="388"/></g><!--class         World        --><g id="elem_        World        "><rect codeLine="33" fill="#F1F1F1" height="48" id="        World        " rx="2.5" ry="2.5" style="stroke:#181818;stroke-width:0.5;" width="133" x="22.5" y="177.5"/><ellipse cx="37.5" cy="193.5" fill="#ADD1B2" rx="11" ry="11" style="stroke:#181818;stroke-width:1.0;"/><path d="M40.2656,189.375 Q40.4219,189.1563 40.6094,189.0469 Q40.7969,188.9375 41.0156,188.9375 Q41.3906,188.9375 41.625,189.2031 Q41.8594,189.4531 41.8594,190.0625 L41.8594,191.5156 Q41.8594,192.125 41.625,192.3906 Q41.3906,192.6563 41.0156,192.6563 Q40.6719,192.6563 40.4688,192.4531 Q40.2656,192.2656 40.1563,191.75 Q40.1094,191.3906 39.9219,191.2031 Q39.5938,190.8281 38.9844,190.6094 Q38.375,190.3906 37.75,190.3906 Q36.9844,190.3906 36.3438,190.7188 Q35.7188,191.0469 35.2188,191.7969 Q34.7344,192.5469 34.7344,193.5781 L34.7344,194.6719 Q34.7344,195.9063 35.625,196.7344 Q36.5156,197.5469 38.1094,197.5469 Q39.0469,197.5469 39.7031,197.2969 Q40.0938,197.1406 40.5156,196.7031 Q40.7813,196.4375 40.9219,196.3594 Q41.0781,196.2813 41.2813,196.2813 Q41.6094,196.2813 41.8594,196.5469 Q42.125,196.7969 42.125,197.1406 Q42.125,197.4844 41.7813,197.8906 Q41.2813,198.4688 40.4844,198.7969 Q39.4063,199.25 38.1094,199.25 Q36.5938,199.25 35.3906,198.625 Q34.4063,198.125 33.7188,197.0625 Q33.0313,195.9844 33.0313,194.7031 L33.0313,193.5469 Q33.0313,192.2188 33.6406,191.0781 Q34.2656,189.9219 35.3594,189.3125 Q36.4531,188.6875 37.6875,188.6875 Q38.4219,188.6875 39.0625,188.8594 Q39.7188,189.0156 40.2656,189.375 Z " fill="#000000"/><text fill="#000000" font-family="sans-serif" font-size="14" lengthAdjust="spacing" textLength="37" x="83.5" y="199.2285">World</text><line style="stroke:#181818;stroke-width:0.5;" x1="23.5" x2="154.5" y1="209.5" y2="209.5"/><line style="stroke:#181818;stroke-width:0.5;" x1="23.5" x2="154.5" y1="217.5" y2="217.5"/></g><!--class WorldFactory--><g id="elem_WorldFactory"><rect codeLine="39" fill="#F1F1F1" height="48" id="WorldFactory" rx="2.5" ry="2.5" style="stroke:#181818;stroke-width:0.5;" width="117" x="30.5" y="42"/><ellipse cx="45.5" cy="58" fill="#ADD1B2" rx="11" ry="11" style="stroke:#181818;stroke-width:1.0;"/><path d="M48.2656,53.875 Q48.4219,53.6563 48.6094,53.5469 Q48.7969,53.4375 49.0156,53.4375 Q49.3906,53.4375 49.625,53.7031 Q49.8594,53.9531 49.8594,54.5625 L49.8594,56.0156 Q49.8594,56.625 49.625,56.8906 Q49.3906,57.1563 49.0156,57.1563 Q48.6719,57.1563 48.4688,56.9531 Q48.2656,56.7656 48.1563,56.25 Q48.1094,55.8906 47.9219,55.7031 Q47.5938,55.3281 46.9844,55.1094 Q46.375,54.8906 45.75,54.8906 Q44.9844,54.8906 44.3438,55.2188 Q43.7188,55.5469 43.2188,56.2969 Q42.7344,57.0469 42.7344,58.0781 L42.7344,59.1719 Q42.7344,60.4063 43.625,61.2344 Q44.5156,62.0469 46.1094,62.0469 Q47.0469,62.0469 47.7031,61.7969 Q48.0938,61.6406 48.5156,61.2031 Q48.7813,60.9375 48.9219,60.8594 Q49.0781,60.7813 49.2813,60.7813 Q49.6094,60.7813 49.8594,61.0469 Q50.125,61.2969 50.125,61.6406 Q50.125,61.9844 49.7813,62.3906 Q49.2813,62.9688 48.4844,63.2969 Q47.4063,63.75 46.1094,63.75 Q44.5938,63.75 43.3906,63.125 Q42.4063,62.625 41.7188,61.5625 Q41.0313,60.4844 41.0313,59.2031 L41.0313,58.0469 Q41.0313,56.7188 41.6406,55.5781 Q42.2656,54.4219 43.3594,53.8125 Q44.4531,53.1875 45.6875,53.1875 Q46.4219,53.1875 47.0625,53.3594 Q47.7188,53.5156 48.2656,53.875 Z " fill="#000000"/><text fill="#000000" font-family="sans-serif" font-size="14" lengthAdjust="spacing" textLength="85" x="59.5" y="63.7285">WorldFactory</text><line style="stroke:#181818;stroke-width:0.5;" x1="31.5" x2="146.5" y1="74" y2="74"/><line style="stroke:#181818;stroke-width:0.5;" x1="31.5" x2="146.5" y1="82" y2="82"/></g><!--reverse link Action to   MoveAction  --><g id="link_Action_  MoveAction  "><path codeLine="14" d="M338.5866,443.4577 C315.7966,464.7477 304.45,475.34 286.82,491.82 " fill="none" id="Action-backto-  MoveAction  " style="stroke:#181818;stroke-width:1.0;"/><polygon fill="none" points="351.74,431.17,334.4907,439.0732,342.6825,447.8422,351.74,431.17" style="stroke:#181818;stroke-width:1.0;"/></g><!--reverse link Action to  SkipTurnAction --><g id="link_Action_ SkipTurnAction "><path codeLine="18" d="M420.4281,449.1067 C422.2181,470.3967 422.65,475.34 424.04,491.82 " fill="none" id="Action-backto- SkipTurnAction " style="stroke:#181818;stroke-width:1.0;"/><polygon fill="none" points="418.92,431.17,414.4492,449.6094,426.407,448.604,418.92,431.17" style="stroke:#181818;stroke-width:1.0;"/></g><!--link Pawn to Action--><g id="link_Pawn_Action"><path codeLine="27" d="M365.33,252.14 C373.12,271.17 379.8067,287.4973 387.8967,307.2573 " fill="none" id="Pawn-to-Action" style="stroke:#181818;stroke-width:1.0;stroke-dasharray:7.0,7.0;"/><polygon fill="#181818" points="390.17,312.81,390.4618,302.9655,388.2756,308.1828,383.0582,305.9966,390.17,312.81" style="stroke:#181818;stroke-width:1.0;"/></g><!--reverse link     Location     to     Location    --><g id="link_    Location    _    Location    "><path codeLine="31" d="M152.2099,355.5558 C171.5799,355.6458 175,361.09 175,372 C175,382.91 159.58,388.41 140.21,388.5 " fill="none" id="    Location    -backto-    Location    " style="stroke:#181818;stroke-width:1.0;"/><polygon fill="none" points="140.21,355.5,146.1913,359.5278,152.2099,355.5558,146.2285,351.5279,140.21,355.5" style="stroke:#181818;stroke-width:1.0;"/><text fill="#000000" font-family="sans-serif" font-size="13" lengthAdjust="spacing" textLength="116" x="181" y="377.4951">connectedLocations</text></g><!--link         World         to     Location    --><g id="link_        World        _    Location    "><path codeLine="36" d="M87.3336,237.5666 C85.8136,269.7366 83.9032,309.7667 82.3832,341.9367 " fill="none" id="        World        -    Location    " style="stroke:#181818;stroke-width:1.0;"/><polygon fill="#181818" points="87.9,225.58,83.6213,231.3845,87.3336,237.5666,91.6124,231.7621,87.9,225.58" style="stroke:#181818;stroke-width:1.0;"/><polygon fill="#181818" points="82.1,347.93,86.5203,339.1288,82.336,342.9356,78.5292,338.7512,82.1,347.93" style="stroke:#181818;stroke-width:1.0;"/></g><!--link Pawn to     Location    --><g id="link_Pawn_    Location    "><path codeLine="37" d="M267.22,252.14 C217.64,283.79 160.7575,320.0917 122.2975,344.6417 " fill="none" id="Pawn-to-    Location    " style="stroke:#181818;stroke-width:1.0;"/><polygon fill="#181818" points="117.24,347.87,126.9784,346.3992,121.4546,345.1797,122.674,339.6559,117.24,347.87" style="stroke:#181818;stroke-width:1.0;"/></g><!--link WorldFactory to         World        --><g id="link_WorldFactory_        World        "><path codeLine="42" d="M89,90.25 C89,114.61 89,146.64 89,171.06 " fill="none" id="WorldFactory-to-        World        " style="stroke:#181818;stroke-width:1.0;stroke-dasharray:7.0,7.0;"/><polygon fill="#181818" points="89,177.06,93,168.06,89,172.06,85,168.06,89,177.06" style="stroke:#181818;stroke-width:1.0;"/></g><!--SRC=[fL3FJuCm6BtpLpHusMQA1szr8T4idZHPeeddKhwnPbrBIi4OnB_T0jte1XoCt-dx-TxtNaxPWMQ0GffM84sfWP3gdeMe3W9amwWCp1wqhP4B9cXHe4Tck9BeHd09KQ94IZPK7vv42G-9nII2PtkJsDAxR0ExoyNogbtJf32QCjEWdycLMtzb0mNJFE_N2B9jBhFvzItedTB71PU5uHarIXEqfPzoO6Y2Au4XGg-g0gVJbd-Isfop4GukS_mTEnl6h6y7dh-NMhg3V_2Ea2wPFTKzTsk81oNf4JfdpnsX66rF2NfnsUeyMoTnxaoch5_gUPRhkoJsoTmxwwZCeuxJ_o5iqnDwBwCE1c4JOuNnH9iWfgG4PY0zzOiHJniVIejqyApsFvrRMc4SJt1sDvs9CtEFlqDyjauf_NL9UZ69edZkYw3v1G00]--></g></svg>