<?xml version="1.0" encoding="us-ascii" standalone="no"?><svg xmlns="http://www.w3.org/2000/svg" xmlns:xlink="http://www.w3.org/1999/xlink" contentStyleType="text/css" height="436px" preserveAspectRatio="none" style="width:514px;height:436px;background:#FFFFFF;" version="1.1" viewBox="0 0 514 436" width="514px" zoomAndPan="magnify"><defs/><g><!--cluster adventure::v3b--><g id="cluster_adventure::v3b"><path d="M8.5,6 L116.5,6 A3.75,3.75 0 0 1 119,8.5 L126,29.6094 L504.5,29.6094 A2.5,2.5 0 0 1 507,32.1094 L507,426.5 A2.5,2.5 0 0 1 504.5,429 L8.5,429 A2.5,2.5 0 0 1 6,426.5 L6,8.5 A2.5,2.5 0 0 1 8.5,6 " fill="none" style="stroke:#000000;stroke-width:1.5;"/><line style="stroke:#000000;stroke-width:1.5;" x1="6" x2="126" y1="29.6094" y2="29.6094"/><text fill="#000000" font-family="sans-serif" font-size="14" font-weight="bold" lengthAdjust="spacing" textLength="107" x="10" y="22.5332">adventure::v3b</text></g><!--class Pawn--><g id="elem_Pawn"><rect codeLine="3" fill="#F1F1F1" height="100.8281" id="Pawn" rx="2.5" ry="2.5" style="stroke:#181818;stroke-width:0.5;" width="292" x="199" y="168"/><ellipse cx="323.75" cy="184" fill="#ADD1B2" rx="11" ry="11" style="stroke:#181818;stroke-width:1.0;"/><path d="M326.5156,179.875 Q326.6719,179.6563 326.8594,179.5469 Q327.0469,179.4375 327.2656,179.4375 Q327.6406,179.4375 327.875,179.7031 Q328.1094,179.9531 328.1094,180.5625 L328.1094,182.0156 Q328.1094,182.625 327.875,182.8906 Q327.6406,183.1563 327.2656,183.1563 Q326.9219,183.1563 326.7188,182.9531 Q326.5156,182.7656 326.4063,182.25 Q326.3594,181.8906 326.1719,181.7031 Q325.8438,181.3281 325.2344,181.1094 Q324.625,180.8906 324,180.8906 Q323.2344,180.8906 322.5938,181.2188 Q321.9688,181.5469 321.4688,182.2969 Q320.9844,183.0469 320.9844,184.0781 L320.9844,185.1719 Q320.9844,186.4063 321.875,187.2344 Q322.7656,188.0469 324.3594,188.0469 Q325.2969,188.0469 325.9531,187.7969 Q326.3438,187.6406 326.7656,187.2031 Q327.0313,186.9375 327.1719,186.8594 Q327.3281,186.7813 327.5313,186.7813 Q327.8594,186.7813 328.1094,187.0469 Q328.375,187.2969 328.375,187.6406 Q328.375,187.9844 328.0313,188.3906 Q327.5313,188.9688 326.7344,189.2969 Q325.6563,189.75 324.3594,189.75 Q322.8438,189.75 321.6406,189.125 Q320.6563,188.625 319.9688,187.5625 Q319.2813,186.4844 319.2813,185.2031 L319.2813,184.0469 Q319.2813,182.7188 319.8906,181.5781 Q320.5156,180.4219 321.6094,179.8125 Q322.7031,179.1875 323.9375,179.1875 Q324.6719,179.1875 325.3125,179.3594 Q325.9688,179.5156 326.5156,179.875 Z " fill="#000000"/><text fill="#000000" font-family="sans-serif" font-size="14" lengthAdjust="spacing" textLength="34" x="344.25" y="189.7285">Pawn</text><line style="stroke:#181818;stroke-width:0.5;" x1="200" x2="490" y1="200" y2="200"/><text fill="#000000" font-family="sans-serif" font-size="14" lengthAdjust="spacing" textLength="59" x="205" y="218.5332">name: str</text><text fill="#000000" font-family="sans-serif" font-size="14" lengthAdjust="spacing" textLength="116" x="205" y="236.1426">location: Location*</text><line style="stroke:#181818;stroke-width:0.5;" x1="200" x2="490" y1="243.2188" y2="243.2188"/><text fill="#000000" font-family="sans-serif" font-size="14" font-weight="bold" lengthAdjust="spacing" textLength="280" x="205" y="261.752">perform_action(action: Action, **kwargs)</text></g><!--class Action--><g id="elem_Action"><rect codeLine="9" fill="#F1F1F1" height="83.2188" id="Action" rx="2.5" ry="2.5" style="stroke:#181818;stroke-width:0.5;" width="71" x="309.5" y="330"/><ellipse cx="324.5" cy="346" fill="#EB937F" rx="11" ry="11" style="stroke:#181818;stroke-width:1.0;"/><path d="M323.3594,346.7969 L323.3594,349.2969 L327.6875,349.2969 L327.6875,348.375 Q327.6875,347.7656 327.9219,347.5 Q328.1719,347.2344 328.5469,347.2344 Q328.9219,347.2344 329.1563,347.5 Q329.3906,347.7656 329.3906,348.375 L329.3906,351 L321.3906,351 Q320.7656,351 320.5,350.7656 Q320.25,350.5313 320.25,350.1406 Q320.25,349.7656 320.5156,349.5313 Q320.7813,349.2969 321.3906,349.2969 L321.6563,349.2969 L321.6563,342.6406 L321.3906,342.6406 Q320.7656,342.6406 320.5,342.4063 Q320.25,342.1719 320.25,341.7813 Q320.25,341.4063 320.5,341.1719 Q320.7656,340.9375 321.3906,340.9375 L329.0156,340.9375 L329.0156,343.5313 Q329.0156,344.1406 328.7813,344.4063 Q328.5625,344.6563 328.1719,344.6563 Q327.7969,344.6563 327.5625,344.4063 Q327.3281,344.1406 327.3281,343.5313 L327.3281,342.6406 L323.3594,342.6406 L323.3594,345.0938 L324.8438,345.0938 Q324.8438,344.4375 324.9688,344.25 Q325.2344,343.8438 325.7031,343.8438 Q326.0781,343.8438 326.3125,344.1094 Q326.5469,344.3594 326.5469,344.9688 L326.5469,346.9375 Q326.5469,347.4844 326.4219,347.6719 Q326.1563,348.0625 325.7031,348.0625 Q325.2344,348.0625 324.9688,347.6563 Q324.8438,347.4688 324.8438,346.7969 L323.3594,346.7969 Z " fill="#000000"/><text fill="#000000" font-family="sans-serif" font-size="14" lengthAdjust="spacing" textLength="39" x="338.5" y="351.7285">Action</text><line style="stroke:#181818;stroke-width:0.5;" x1="310.5" x2="379.5" y1="362" y2="362"/><text fill="#000000" font-family="sans-serif" font-size="14" lengthAdjust="spacing" textLength="34" x="315.5" y="380.5332">Move</text><text fill="#000000" font-family="sans-serif" font-size="14" lengthAdjust="spacing" textLength="57" x="315.5" y="398.1426">SkipTurn</text><line style="stroke:#181818;stroke-width:0.5;" x1="310.5" x2="379.5" y1="405.2188" y2="405.2188"/></g><!--class WorldFactory--><g id="elem_WorldFactory"><rect codeLine="14" fill="#F1F1F1" height="48" id="WorldFactory" rx="2.5" ry="2.5" style="stroke:#181818;stroke-width:0.5;" width="117" x="34.5" y="42"/><ellipse cx="49.5" cy="58" fill="#ADD1B2" rx="11" ry="11" style="stroke:#181818;stroke-width:1.0;"/><path d="M52.2656,53.875 Q52.4219,53.6563 52.6094,53.5469 Q52.7969,53.4375 53.0156,53.4375 Q53.3906,53.4375 53.625,53.7031 Q53.8594,53.9531 53.8594,54.5625 L53.8594,56.0156 Q53.8594,56.625 53.625,56.8906 Q53.3906,57.1563 53.0156,57.1563 Q52.6719,57.1563 52.4688,56.9531 Q52.2656,56.7656 52.1563,56.25 Q52.1094,55.8906 51.9219,55.7031 Q51.5938,55.3281 50.9844,55.1094 Q50.375,54.8906 49.75,54.8906 Q48.9844,54.8906 48.3438,55.2188 Q47.7188,55.5469 47.2188,56.2969 Q46.7344,57.0469 46.7344,58.0781 L46.7344,59.1719 Q46.7344,60.4063 47.625,61.2344 Q48.5156,62.0469 50.1094,62.0469 Q51.0469,62.0469 51.7031,61.7969 Q52.0938,61.6406 52.5156,61.2031 Q52.7813,60.9375 52.9219,60.8594 Q53.0781,60.7813 53.2813,60.7813 Q53.6094,60.7813 53.8594,61.0469 Q54.125,61.2969 54.125,61.6406 Q54.125,61.9844 53.7813,62.3906 Q53.2813,62.9688 52.4844,63.2969 Q51.4063,63.75 50.1094,63.75 Q48.5938,63.75 47.3906,63.125 Q46.4063,62.625 45.7188,61.5625 Q45.0313,60.4844 45.0313,59.2031 L45.0313,58.0469 Q45.0313,56.7188 45.6406,55.5781 Q46.2656,54.4219 47.3594,53.8125 Q48.4531,53.1875 49.6875,53.1875 Q50.4219,53.1875 51.0625,53.3594 Q51.7188,53.5156 52.2656,53.875 Z " fill="#000000"/><text fill="#000000" font-family="sans-serif" font-size="14" lengthAdjust="spacing" textLength="85" x="63.5" y="63.7285">WorldFactory</text><line style="stroke:#181818;stroke-width:0.5;" x1="35.5" x2="150.5" y1="74" y2="74"/><line style="stroke:#181818;stroke-width:0.5;" x1="35.5" x2="150.5" y1="82" y2="82"/></g><!--class         World          --><g id="elem_        World          "><rect codeLine="17" fill="#F1F1F1" height="48" id="        World          " rx="2.5" ry="2.5" style="stroke:#181818;stroke-width:0.5;" width="141" x="22.5" y="194.5"/><ellipse cx="37.5" cy="210.5" fill="#ADD1B2" rx="11" ry="11" style="stroke:#181818;stroke-width:1.0;"/><path d="M40.2656,206.375 Q40.4219,206.1563 40.6094,206.0469 Q40.7969,205.9375 41.0156,205.9375 Q41.3906,205.9375 41.625,206.2031 Q41.8594,206.4531 41.8594,207.0625 L41.8594,208.5156 Q41.8594,209.125 41.625,209.3906 Q41.3906,209.6563 41.0156,209.6563 Q40.6719,209.6563 40.4688,209.4531 Q40.2656,209.2656 40.1563,208.75 Q40.1094,208.3906 39.9219,208.2031 Q39.5938,207.8281 38.9844,207.6094 Q38.375,207.3906 37.75,207.3906 Q36.9844,207.3906 36.3438,207.7188 Q35.7188,208.0469 35.2188,208.7969 Q34.7344,209.5469 34.7344,210.5781 L34.7344,211.6719 Q34.7344,212.9063 35.625,213.7344 Q36.5156,214.5469 38.1094,214.5469 Q39.0469,214.5469 39.7031,214.2969 Q40.0938,214.1406 40.5156,213.7031 Q40.7813,213.4375 40.9219,213.3594 Q41.0781,213.2813 41.2813,213.2813 Q41.6094,213.2813 41.8594,213.5469 Q42.125,213.7969 42.125,214.1406 Q42.125,214.4844 41.7813,214.8906 Q41.2813,215.4688 40.4844,215.7969 Q39.4063,216.25 38.1094,216.25 Q36.5938,216.25 35.3906,215.625 Q34.4063,215.125 33.7188,214.0625 Q33.0313,212.9844 33.0313,211.7031 L33.0313,210.5469 Q33.0313,209.2188 33.6406,208.0781 Q34.2656,206.9219 35.3594,206.3125 Q36.4531,205.6875 37.6875,205.6875 Q38.4219,205.6875 39.0625,205.8594 Q39.7188,206.0156 40.2656,206.375 Z " fill="#000000"/><text fill="#000000" font-family="sans-serif" font-size="14" lengthAdjust="spacing" textLength="37" x="83.5" y="216.2285">World</text><line style="stroke:#181818;stroke-width:0.5;" x1="23.5" x2="162.5" y1="226.5" y2="226.5"/><line style="stroke:#181818;stroke-width:0.5;" x1="23.5" x2="162.5" y1="234.5" y2="234.5"/></g><!--class Location--><g id="elem_Location"><rect codeLine="20" fill="#F1F1F1" height="48" id="Location" rx="2.5" ry="2.5" style="stroke:#181818;stroke-width:0.5;" width="86" x="144" y="347.5"/><ellipse cx="159" cy="363.5" fill="#ADD1B2" rx="11" ry="11" style="stroke:#181818;stroke-width:1.0;"/><path d="M161.7656,359.375 Q161.9219,359.1563 162.1094,359.0469 Q162.2969,358.9375 162.5156,358.9375 Q162.8906,358.9375 163.125,359.2031 Q163.3594,359.4531 163.3594,360.0625 L163.3594,361.5156 Q163.3594,362.125 163.125,362.3906 Q162.8906,362.6563 162.5156,362.6563 Q162.1719,362.6563 161.9688,362.4531 Q161.7656,362.2656 161.6563,361.75 Q161.6094,361.3906 161.4219,361.2031 Q161.0938,360.8281 160.4844,360.6094 Q159.875,360.3906 159.25,360.3906 Q158.4844,360.3906 157.8438,360.7188 Q157.2188,361.0469 156.7188,361.7969 Q156.2344,362.5469 156.2344,363.5781 L156.2344,364.6719 Q156.2344,365.9063 157.125,366.7344 Q158.0156,367.5469 159.6094,367.5469 Q160.5469,367.5469 161.2031,367.2969 Q161.5938,367.1406 162.0156,366.7031 Q162.2813,366.4375 162.4219,366.3594 Q162.5781,366.2813 162.7813,366.2813 Q163.1094,366.2813 163.3594,366.5469 Q163.625,366.7969 163.625,367.1406 Q163.625,367.4844 163.2813,367.8906 Q162.7813,368.4688 161.9844,368.7969 Q160.9063,369.25 159.6094,369.25 Q158.0938,369.25 156.8906,368.625 Q155.9063,368.125 155.2188,367.0625 Q154.5313,365.9844 154.5313,364.7031 L154.5313,363.5469 Q154.5313,362.2188 155.1406,361.0781 Q155.7656,359.9219 156.8594,359.3125 Q157.9531,358.6875 159.1875,358.6875 Q159.9219,358.6875 160.5625,358.8594 Q161.2188,359.0156 161.7656,359.375 Z " fill="#000000"/><text fill="#000000" font-family="sans-serif" font-size="14" lengthAdjust="spacing" textLength="54" x="173" y="369.2285">Location</text><line style="stroke:#181818;stroke-width:0.5;" x1="145" x2="229" y1="379.5" y2="379.5"/><line style="stroke:#181818;stroke-width:0.5;" x1="145" x2="229" y1="387.5" y2="387.5"/></g><!--link         World           to Location--><g id="link_        World          _Location"><path codeLine="23" d="M107.48,242.76 C125.2,271.22 151.8284,314.0068 169.4884,342.3668 " fill="none" id="        World          -to-Location" style="stroke:#181818;stroke-width:1.0;"/><polygon fill="#181818" points="172.66,347.46,171.2981,337.7058,170.017,343.2156,164.5071,341.9346,172.66,347.46" style="stroke:#181818;stroke-width:1.0;"/></g><!--link WorldFactory to         World          --><g id="link_WorldFactory_        World          "><path codeLine="24" d="M93,90.19 C93,118.39 93,159.72 93,188.04 " fill="none" id="WorldFactory-to-        World          " style="stroke:#181818;stroke-width:1.0;stroke-dasharray:7.0,7.0;"/><polygon fill="#181818" points="93,194.04,97,185.04,93,189.04,89,185.04,93,194.04" style="stroke:#181818;stroke-width:1.0;"/><text fill="#000000" font-family="sans-serif" font-size="13" lengthAdjust="spacing" textLength="45" x="98" y="134.4951">Creates</text></g><!--link Pawn to Location--><g id="link_Pawn_Location"><path codeLine="25" d="M292.83,269.36 C265.32,295.65 237.2278,322.4947 215.5878,343.1747 " fill="none" id="Pawn-to-Location" style="stroke:#181818;stroke-width:1.0;"/><polygon fill="#181818" points="211.25,347.32,220.5202,343.9938,214.8648,343.8656,214.9931,338.2102,211.25,347.32" style="stroke:#181818;stroke-width:1.0;"/></g><!--link Pawn to Action--><g id="link_Pawn_Action"><path codeLine="26" d="M345,269.36 C345,288.95 345,305.15 345,323.75 " fill="none" id="Pawn-to-Action" style="stroke:#181818;stroke-width:1.0;stroke-dasharray:7.0,7.0;"/><polygon fill="#181818" points="345,329.75,349,320.75,345,324.75,341,320.75,345,329.75" style="stroke:#181818;stroke-width:1.0;"/></g><!--SRC=[TL3D2e904Bxx58Edagn3joM423eL10KTOxGfHDsLMJKYUlTqrKMfvZ8xy_tCx4ZCIESO4U2r8bcKJ49Kon1U3jGHfQWr7F0XkqOJijO8q0NRJgeYB68b1UowbsUnLHZan3V5sGMZ1fgqIS3Qv1buNl90lklfQX46HlTsJ29PPXrhC7wlAhB5COdpKyboA6kNFYjEhzjwbk9dfnxXRczXY633_KNklpN6_bluVc0rZcNqsypdmN-jgA4D4nQaNICrr_yoDDt6gBsFy_u0]--></g></svg>