<?xml version="1.0" encoding="us-ascii" standalone="no"?><svg xmlns="http://www.w3.org/2000/svg" xmlns:xlink="http://www.w3.org/1999/xlink" contentStyleType="text/css" height="441px" preserveAspectRatio="none" style="width:848px;height:441px;background:#FFFFFF;" version="1.1" viewBox="0 0 848 441" width="848px" zoomAndPan="magnify"><defs/><g><!--class Book--><g id="elem_Book"><rect codeLine="3" fill="#F1F1F1" height="136.0469" id="Book" rx="2.5" ry="2.5" style="stroke:#181818;stroke-width:0.5;" width="107" x="371.5" y="7"/><ellipse cx="405.85" cy="23" fill="#ADD1B2" rx="11" ry="11" style="stroke:#181818;stroke-width:1.0;"/><path d="M408.6156,18.875 Q408.7719,18.6563 408.9594,18.5469 Q409.1469,18.4375 409.3656,18.4375 Q409.7406,18.4375 409.975,18.7031 Q410.2094,18.9531 410.2094,19.5625 L410.2094,21.0156 Q410.2094,21.625 409.975,21.8906 Q409.7406,22.1563 409.3656,22.1563 Q409.0219,22.1563 408.8188,21.9531 Q408.6156,21.7656 408.5063,21.25 Q408.4594,20.8906 408.2719,20.7031 Q407.9438,20.3281 407.3344,20.1094 Q406.725,19.8906 406.1,19.8906 Q405.3344,19.8906 404.6938,20.2188 Q404.0688,20.5469 403.5688,21.2969 Q403.0844,22.0469 403.0844,23.0781 L403.0844,24.1719 Q403.0844,25.4063 403.975,26.2344 Q404.8656,27.0469 406.4594,27.0469 Q407.3969,27.0469 408.0531,26.7969 Q408.4438,26.6406 408.8656,26.2031 Q409.1313,25.9375 409.2719,25.8594 Q409.4281,25.7813 409.6313,25.7813 Q409.9594,25.7813 410.2094,26.0469 Q410.475,26.2969 410.475,26.6406 Q410.475,26.9844 410.1313,27.3906 Q409.6313,27.9688 408.8344,28.2969 Q407.7563,28.75 406.4594,28.75 Q404.9438,28.75 403.7406,28.125 Q402.7563,27.625 402.0688,26.5625 Q401.3813,25.4844 401.3813,24.2031 L401.3813,23.0469 Q401.3813,21.7188 401.9906,20.5781 Q402.6156,19.4219 403.7094,18.8125 Q404.8031,18.1875 406.0375,18.1875 Q406.7719,18.1875 407.4125,18.3594 Q408.0688,18.5156 408.6156,18.875 Z " fill="#000000"/><text fill="#000000" font-family="sans-serif" font-size="14" lengthAdjust="spacing" textLength="32" x="424.15" y="28.7285">Book</text><line style="stroke:#181818;stroke-width:0.5;" x1="372.5" x2="477.5" y1="39" y2="39"/><text fill="#000000" font-family="sans-serif" font-size="14" lengthAdjust="spacing" textLength="46" x="377.5" y="57.5332">title: str</text><text fill="#000000" font-family="sans-serif" font-size="14" lengthAdjust="spacing" textLength="65" x="377.5" y="75.1426">author: str</text><text fill="#000000" font-family="sans-serif" font-size="14" lengthAdjust="spacing" textLength="62" x="377.5" y="92.752">pages: int</text><line style="stroke:#181818;stroke-width:0.5;" x1="372.5" x2="477.5" y1="99.8281" y2="99.8281"/><ellipse cx="382.5" cy="114.1328" fill="#84BE84" rx="3" ry="3" style="stroke:#038048;stroke-width:1.0;"/><text fill="#000000" font-family="sans-serif" font-size="14" lengthAdjust="spacing" textLength="79" x="391.5" y="118.3613">print(): None</text><ellipse cx="382.5" cy="131.7422" fill="#84BE84" rx="3" ry="3" style="stroke:#038048;stroke-width:1.0;"/><text fill="#000000" font-family="sans-serif" font-size="14" lengthAdjust="spacing" textLength="81" x="391.5" y="135.9707">save(): None</text></g><path d="M514,48.5 L514,65.8516 L470.5,112.6328 L514,73.8516 L514,91.2031 A0,0 0 0 0 514,91.2031 L658,91.2031 A0,0 0 0 0 658,91.2031 L658,58.5 L648,48.5 L514,48.5 A0,0 0 0 0 514,48.5 " fill="#FEFFDD" style="stroke:#181818;stroke-width:0.5;"/><path d="M648,48.5 L648,58.5 L658,58.5 L648,48.5 " fill="#FEFFDD" style="stroke:#181818;stroke-width:0.5;"/><text fill="#000000" font-family="sans-serif" font-size="13" lengthAdjust="spacing" textLength="66" x="520" y="66.9951">Delegate to</text><text fill="#000000" font-family="sans-serif" font-size="13" lengthAdjust="spacing" textLength="123" x="520" y="83.3467">BookDatabase.save()</text><path d="M210,48.5 L210,91.2031 A0,0 0 0 0 210,91.2031 L336,91.2031 A0,0 0 0 0 336,91.2031 L336,73.8516 L375.5,130.2422 L336,65.8516 L336,58.5 L326,48.5 L210,48.5 A0,0 0 0 0 210,48.5 " fill="#FEFFDD" style="stroke:#181818;stroke-width:0.5;"/><path d="M326,48.5 L326,58.5 L336,58.5 L326,48.5 " fill="#FEFFDD" style="stroke:#181818;stroke-width:0.5;"/><text fill="#000000" font-family="sans-serif" font-size="13" lengthAdjust="spacing" textLength="66" x="216" y="66.9951">Delegate to</text><text fill="#000000" font-family="sans-serif" font-size="13" lengthAdjust="spacing" textLength="105" x="216" y="83.3467">BookPrinter.print()</text><!--class BookDatabase--><g id="elem_BookDatabase"><rect codeLine="21" fill="#F1F1F1" height="65.6094" id="BookDatabase" rx="2.5" ry="2.5" style="stroke:#181818;stroke-width:0.5;" width="180" x="208" y="223"/><ellipse cx="247.3" cy="239" fill="#B4A7E5" rx="11" ry="11" style="stroke:#181818;stroke-width:1.0;"/><path d="M248.2531,235.6406 L248.2531,242.2969 L249.9719,242.2969 Q250.5813,242.2969 250.8469,242.5313 Q251.1125,242.7656 251.1125,243.1563 Q251.1125,243.5313 250.8469,243.7656 Q250.5813,244 249.9719,244 L244.8313,244 Q244.2219,244 243.9563,243.7656 Q243.6906,243.5313 243.6906,243.1406 Q243.6906,242.7656 243.9563,242.5313 Q244.2219,242.2969 244.8313,242.2969 L246.55,242.2969 L246.55,235.6406 L244.8313,235.6406 Q244.2219,235.6406 243.9563,235.4063 Q243.6906,235.1719 243.6906,234.7813 Q243.6906,234.4063 243.9563,234.1719 Q244.2219,233.9375 244.8313,233.9375 L249.9719,233.9375 Q250.5813,233.9375 250.8469,234.1719 Q251.1125,234.4063 251.1125,234.7813 Q251.1125,235.1719 250.8469,235.4063 Q250.5813,235.6406 249.9719,235.6406 L248.2531,235.6406 Z " fill="#000000"/><text fill="#000000" font-family="sans-serif" font-size="14" font-style="italic" lengthAdjust="spacing" textLength="94" x="266.7" y="244.7285">BookDatabase</text><line style="stroke:#181818;stroke-width:0.5;" x1="209" x2="387" y1="255" y2="255"/><line style="stroke:#181818;stroke-width:0.5;" x1="209" x2="387" y1="263" y2="263"/><ellipse cx="219" cy="277.3047" fill="#84BE84" rx="3" ry="3" style="stroke:#038048;stroke-width:1.0;"/><text fill="#000000" font-family="sans-serif" font-size="14" font-style="italic" lengthAdjust="spacing" textLength="154" x="228" y="281.5332">save(book: Book): None</text></g><polygon fill="none" points="282.8674,288.6094,280.8462,309.7024,268.1336,303.8381" style="stroke:#181818;stroke-width:1.0;"/><line style="stroke:#181818;stroke-width:1.0;" x1="274.4899" x2="273" y1="306.7702" y2="310"/><line style="stroke:#181818;stroke-width:1.0;" x1="320.951" x2="338.472" y1="223" y2="197.9566"/><!--class SqlBookDatabase--><g id="elem_SqlBookDatabase"><rect codeLine="25" fill="#F1F1F1" height="65.6094" id="SqlBookDatabase" rx="2.5" ry="2.5" style="stroke:#181818;stroke-width:0.5;" width="178" x="7" y="369"/><ellipse cx="36.85" cy="385" fill="#ADD1B2" rx="11" ry="11" style="stroke:#181818;stroke-width:1.0;"/><path d="M39.6156,380.875 Q39.7719,380.6563 39.9594,380.5469 Q40.1469,380.4375 40.3656,380.4375 Q40.7406,380.4375 40.975,380.7031 Q41.2094,380.9531 41.2094,381.5625 L41.2094,383.0156 Q41.2094,383.625 40.975,383.8906 Q40.7406,384.1563 40.3656,384.1563 Q40.0219,384.1563 39.8188,383.9531 Q39.6156,383.7656 39.5063,383.25 Q39.4594,382.8906 39.2719,382.7031 Q38.9438,382.3281 38.3344,382.1094 Q37.725,381.8906 37.1,381.8906 Q36.3344,381.8906 35.6938,382.2188 Q35.0688,382.5469 34.5688,383.2969 Q34.0844,384.0469 34.0844,385.0781 L34.0844,386.1719 Q34.0844,387.4063 34.975,388.2344 Q35.8656,389.0469 37.4594,389.0469 Q38.3969,389.0469 39.0531,388.7969 Q39.4438,388.6406 39.8656,388.2031 Q40.1313,387.9375 40.2719,387.8594 Q40.4281,387.7813 40.6313,387.7813 Q40.9594,387.7813 41.2094,388.0469 Q41.475,388.2969 41.475,388.6406 Q41.475,388.9844 41.1313,389.3906 Q40.6313,389.9688 39.8344,390.2969 Q38.7563,390.75 37.4594,390.75 Q35.9438,390.75 34.7406,390.125 Q33.7563,389.625 33.0688,388.5625 Q32.3813,387.4844 32.3813,386.2031 L32.3813,385.0469 Q32.3813,383.7188 32.9906,382.5781 Q33.6156,381.4219 34.7094,380.8125 Q35.8031,380.1875 37.0375,380.1875 Q37.7719,380.1875 38.4125,380.3594 Q39.0688,380.5156 39.6156,380.875 Z " fill="#000000"/><text fill="#000000" font-family="sans-serif" font-size="14" lengthAdjust="spacing" textLength="113" x="54.15" y="390.7285">SqlBookDatabase</text><line style="stroke:#181818;stroke-width:0.5;" x1="8" x2="184" y1="401" y2="401"/><line style="stroke:#181818;stroke-width:0.5;" x1="8" x2="184" y1="409" y2="409"/><ellipse cx="18" cy="423.3047" fill="#84BE84" rx="3" ry="3" style="stroke:#038048;stroke-width:1.0;"/><text fill="#000000" font-family="sans-serif" font-size="14" lengthAdjust="spacing" textLength="152" x="27" y="427.5332">save(book: Book): None</text></g><!--class MongoBookDatabase--><g id="elem_MongoBookDatabase"><rect codeLine="28" fill="#F1F1F1" height="65.6094" id="MongoBookDatabase" rx="2.5" ry="2.5" style="stroke:#181818;stroke-width:0.5;" width="178" x="220" y="369"/><ellipse cx="239.5" cy="385" fill="#ADD1B2" rx="11" ry="11" style="stroke:#181818;stroke-width:1.0;"/><path d="M242.2656,380.875 Q242.4219,380.6563 242.6094,380.5469 Q242.7969,380.4375 243.0156,380.4375 Q243.3906,380.4375 243.625,380.7031 Q243.8594,380.9531 243.8594,381.5625 L243.8594,383.0156 Q243.8594,383.625 243.625,383.8906 Q243.3906,384.1563 243.0156,384.1563 Q242.6719,384.1563 242.4688,383.9531 Q242.2656,383.7656 242.1563,383.25 Q242.1094,382.8906 241.9219,382.7031 Q241.5938,382.3281 240.9844,382.1094 Q240.375,381.8906 239.75,381.8906 Q238.9844,381.8906 238.3438,382.2188 Q237.7188,382.5469 237.2188,383.2969 Q236.7344,384.0469 236.7344,385.0781 L236.7344,386.1719 Q236.7344,387.4063 237.625,388.2344 Q238.5156,389.0469 240.1094,389.0469 Q241.0469,389.0469 241.7031,388.7969 Q242.0938,388.6406 242.5156,388.2031 Q242.7813,387.9375 242.9219,387.8594 Q243.0781,387.7813 243.2813,387.7813 Q243.6094,387.7813 243.8594,388.0469 Q244.125,388.2969 244.125,388.6406 Q244.125,388.9844 243.7813,389.3906 Q243.2813,389.9688 242.4844,390.2969 Q241.4063,390.75 240.1094,390.75 Q238.5938,390.75 237.3906,390.125 Q236.4063,389.625 235.7188,388.5625 Q235.0313,387.4844 235.0313,386.2031 L235.0313,385.0469 Q235.0313,383.7188 235.6406,382.5781 Q236.2656,381.4219 237.3594,380.8125 Q238.4531,380.1875 239.6875,380.1875 Q240.4219,380.1875 241.0625,380.3594 Q241.7188,380.5156 242.2656,380.875 Z " fill="#000000"/><text fill="#000000" font-family="sans-serif" font-size="14" lengthAdjust="spacing" textLength="136" x="254.5" y="390.7285">MongoBookDatabase</text><line style="stroke:#181818;stroke-width:0.5;" x1="221" x2="397" y1="401" y2="401"/><line style="stroke:#181818;stroke-width:0.5;" x1="221" x2="397" y1="409" y2="409"/><ellipse cx="231" cy="423.3047" fill="#84BE84" rx="3" ry="3" style="stroke:#038048;stroke-width:1.0;"/><text fill="#000000" font-family="sans-serif" font-size="14" lengthAdjust="spacing" textLength="152" x="240" y="427.5332">save(book: Book): None</text></g><!--class BookPrinter--><g id="elem_BookPrinter"><rect codeLine="35" fill="#F1F1F1" height="65.6094" id="BookPrinter" rx="2.5" ry="2.5" style="stroke:#181818;stroke-width:0.5;" width="179" x="463.5" y="223"/><ellipse cx="511.25" cy="239" fill="#B4A7E5" rx="11" ry="11" style="stroke:#181818;stroke-width:1.0;"/><path d="M512.2031,235.6406 L512.2031,242.2969 L513.9219,242.2969 Q514.5313,242.2969 514.7969,242.5313 Q515.0625,242.7656 515.0625,243.1563 Q515.0625,243.5313 514.7969,243.7656 Q514.5313,244 513.9219,244 L508.7813,244 Q508.1719,244 507.9063,243.7656 Q507.6406,243.5313 507.6406,243.1406 Q507.6406,242.7656 507.9063,242.5313 Q508.1719,242.2969 508.7813,242.2969 L510.5,242.2969 L510.5,235.6406 L508.7813,235.6406 Q508.1719,235.6406 507.9063,235.4063 Q507.6406,235.1719 507.6406,234.7813 Q507.6406,234.4063 507.9063,234.1719 Q508.1719,233.9375 508.7813,233.9375 L513.9219,233.9375 Q514.5313,233.9375 514.7969,234.1719 Q515.0625,234.4063 515.0625,234.7813 Q515.0625,235.1719 514.7969,235.4063 Q514.5313,235.6406 513.9219,235.6406 L512.2031,235.6406 Z " fill="#000000"/><text fill="#000000" font-family="sans-serif" font-size="14" font-style="italic" lengthAdjust="spacing" textLength="75" x="531.75" y="244.7285">BookPrinter</text><line style="stroke:#181818;stroke-width:0.5;" x1="464.5" x2="641.5" y1="255" y2="255"/><line style="stroke:#181818;stroke-width:0.5;" x1="464.5" x2="641.5" y1="263" y2="263"/><ellipse cx="474.5" cy="277.3047" fill="#84BE84" rx="3" ry="3" style="stroke:#038048;stroke-width:1.0;"/><text fill="#000000" font-family="sans-serif" font-size="14" font-style="italic" lengthAdjust="spacing" textLength="153" x="483.5" y="281.5332">print(book: Book): None</text></g><polygon fill="none" points="568.1326,288.6094,582.8664,303.8381,570.1538,309.7024" style="stroke:#181818;stroke-width:1.0;"/><line style="stroke:#181818;stroke-width:1.0;" x1="576.5101" x2="578" y1="306.7702" y2="310"/><line style="stroke:#181818;stroke-width:1.0;" x1="529.8697" x2="512.2206" y1="223" y2="197.969"/><!--class BwBookPrinter--><g id="elem_BwBookPrinter"><rect codeLine="39" fill="#F1F1F1" height="65.6094" id="BwBookPrinter" rx="2.5" ry="2.5" style="stroke:#181818;stroke-width:0.5;" width="176" x="454" y="369"/><ellipse cx="492.4" cy="385" fill="#ADD1B2" rx="11" ry="11" style="stroke:#181818;stroke-width:1.0;"/><path d="M495.1656,380.875 Q495.3219,380.6563 495.5094,380.5469 Q495.6969,380.4375 495.9156,380.4375 Q496.2906,380.4375 496.525,380.7031 Q496.7594,380.9531 496.7594,381.5625 L496.7594,383.0156 Q496.7594,383.625 496.525,383.8906 Q496.2906,384.1563 495.9156,384.1563 Q495.5719,384.1563 495.3688,383.9531 Q495.1656,383.7656 495.0563,383.25 Q495.0094,382.8906 494.8219,382.7031 Q494.4938,382.3281 493.8844,382.1094 Q493.275,381.8906 492.65,381.8906 Q491.8844,381.8906 491.2438,382.2188 Q490.6188,382.5469 490.1188,383.2969 Q489.6344,384.0469 489.6344,385.0781 L489.6344,386.1719 Q489.6344,387.4063 490.525,388.2344 Q491.4156,389.0469 493.0094,389.0469 Q493.9469,389.0469 494.6031,388.7969 Q494.9938,388.6406 495.4156,388.2031 Q495.6813,387.9375 495.8219,387.8594 Q495.9781,387.7813 496.1813,387.7813 Q496.5094,387.7813 496.7594,388.0469 Q497.025,388.2969 497.025,388.6406 Q497.025,388.9844 496.6813,389.3906 Q496.1813,389.9688 495.3844,390.2969 Q494.3063,390.75 493.0094,390.75 Q491.4938,390.75 490.2906,390.125 Q489.3063,389.625 488.6188,388.5625 Q487.9313,387.4844 487.9313,386.2031 L487.9313,385.0469 Q487.9313,383.7188 488.5406,382.5781 Q489.1656,381.4219 490.2594,380.8125 Q491.3531,380.1875 492.5875,380.1875 Q493.3219,380.1875 493.9625,380.3594 Q494.6188,380.5156 495.1656,380.875 Z " fill="#000000"/><text fill="#000000" font-family="sans-serif" font-size="14" lengthAdjust="spacing" textLength="92" x="511.6" y="390.7285">BwBookPrinter</text><line style="stroke:#181818;stroke-width:0.5;" x1="455" x2="629" y1="401" y2="401"/><line style="stroke:#181818;stroke-width:0.5;" x1="455" x2="629" y1="409" y2="409"/><ellipse cx="465" cy="423.3047" fill="#84BE84" rx="3" ry="3" style="stroke:#038048;stroke-width:1.0;"/><text fill="#000000" font-family="sans-serif" font-size="14" lengthAdjust="spacing" textLength="150" x="474" y="427.5332">print(book: Book): None</text></g><!--class ColorBookPrinter--><g id="elem_ColorBookPrinter"><rect codeLine="43" fill="#F1F1F1" height="65.6094" id="ColorBookPrinter" rx="2.5" ry="2.5" style="stroke:#181818;stroke-width:0.5;" width="176" x="665" y="369"/><ellipse cx="696.2" cy="385" fill="#ADD1B2" rx="11" ry="11" style="stroke:#181818;stroke-width:1.0;"/><path d="M698.9656,380.875 Q699.1219,380.6563 699.3094,380.5469 Q699.4969,380.4375 699.7156,380.4375 Q700.0906,380.4375 700.325,380.7031 Q700.5594,380.9531 700.5594,381.5625 L700.5594,383.0156 Q700.5594,383.625 700.325,383.8906 Q700.0906,384.1563 699.7156,384.1563 Q699.3719,384.1563 699.1688,383.9531 Q698.9656,383.7656 698.8563,383.25 Q698.8094,382.8906 698.6219,382.7031 Q698.2938,382.3281 697.6844,382.1094 Q697.075,381.8906 696.45,381.8906 Q695.6844,381.8906 695.0438,382.2188 Q694.4188,382.5469 693.9188,383.2969 Q693.4344,384.0469 693.4344,385.0781 L693.4344,386.1719 Q693.4344,387.4063 694.325,388.2344 Q695.2156,389.0469 696.8094,389.0469 Q697.7469,389.0469 698.4031,388.7969 Q698.7938,388.6406 699.2156,388.2031 Q699.4813,387.9375 699.6219,387.8594 Q699.7781,387.7813 699.9813,387.7813 Q700.3094,387.7813 700.5594,388.0469 Q700.825,388.2969 700.825,388.6406 Q700.825,388.9844 700.4813,389.3906 Q699.9813,389.9688 699.1844,390.2969 Q698.1063,390.75 696.8094,390.75 Q695.2938,390.75 694.0906,390.125 Q693.1063,389.625 692.4188,388.5625 Q691.7313,387.4844 691.7313,386.2031 L691.7313,385.0469 Q691.7313,383.7188 692.3406,382.5781 Q692.9656,381.4219 694.0594,380.8125 Q695.1531,380.1875 696.3875,380.1875 Q697.1219,380.1875 697.7625,380.3594 Q698.4188,380.5156 698.9656,380.875 Z " fill="#000000"/><text fill="#000000" font-family="sans-serif" font-size="14" lengthAdjust="spacing" textLength="108" x="713.8" y="390.7285">ColorBookPrinter</text><line style="stroke:#181818;stroke-width:0.5;" x1="666" x2="840" y1="401" y2="401"/><line style="stroke:#181818;stroke-width:0.5;" x1="666" x2="840" y1="409" y2="409"/><ellipse cx="676" cy="423.3047" fill="#84BE84" rx="3" ry="3" style="stroke:#038048;stroke-width:1.0;"/><text fill="#000000" font-family="sans-serif" font-size="14" lengthAdjust="spacing" textLength="150" x="685" y="427.5332">print(book: Book): None</text></g><!--reverse link BookDatabase to SqlBookDatabase--><g id="link_BookDatabase_SqlBookDatabase"><path codeLine="32" d="M273,310 C273,310 209.36,342.72 158.4,368.92 " fill="none" id="BookDatabase-backto-SqlBookDatabase" style="stroke:#181818;stroke-width:1.0;"/></g><!--reverse link BookDatabase to MongoBookDatabase--><g id="link_BookDatabase_MongoBookDatabase"><path codeLine="33" d="M273,310 C273,310 285.94,342.72 296.31,368.92 " fill="none" id="BookDatabase-backto-MongoBookDatabase" style="stroke:#181818;stroke-width:1.0;"/></g><!--reverse link BookPrinter to BwBookPrinter--><g id="link_BookPrinter_BwBookPrinter"><path codeLine="47" d="M578,310 C578,310 565.06,342.72 554.69,368.92 " fill="none" id="BookPrinter-backto-BwBookPrinter" style="stroke:#181818;stroke-width:1.0;"/></g><!--reverse link BookPrinter to ColorBookPrinter--><g id="link_BookPrinter_ColorBookPrinter"><path codeLine="48" d="M578,310 C578,310 640.92,342.72 691.3,368.92 " fill="none" id="BookPrinter-backto-ColorBookPrinter" style="stroke:#181818;stroke-width:1.0;"/></g><!--link Book to BookDatabase--><g id="link_Book_BookDatabase"><path codeLine="50" d="M377.35,143.16 C363.34,162.9 351.712,179.2966 338.472,197.9566 " fill="none" id="Book-to-BookDatabase" style="stroke:#181818;stroke-width:1.0;"/><polygon fill="#181818" points="335,202.85,343.4703,197.8246,337.8934,198.7722,336.9458,193.1953,335,202.85" style="stroke:#181818;stroke-width:1.0;"/></g><!--link Book to BookPrinter--><g id="link_Book_BookPrinter"><path codeLine="51" d="M473.03,143.16 C487.14,162.9 498.8806,179.309 512.2206,197.969 " fill="none" id="Book-to-BookPrinter" style="stroke:#181818;stroke-width:1.0;"/><polygon fill="#181818" points="515.71,202.85,513.7299,193.2022,512.8022,198.7825,507.2219,197.8548,515.71,202.85" style="stroke:#181818;stroke-width:1.0;"/></g><!--SRC=[bL0zJyCm4DtzAsu4LUd0Q266qeK1LAc_u18kJbJZ2_OLXjB_JcA7aYOfg9vyv_VXzyAkTWrwV0FZUTyykOfyBUWAWZkb2eiXm8fv1mS5xP5QB6a8ukE8UwdO_yuD6WeQQYTnN3I-lTxSQdXXHsaLy8DEcwDIZeN0rwOIu39QQHrf4RucImPRX72Sk_Sr2kOOQ9ca5BbNw5HwBKlbGAh3N5JQT3xab_qt1qfnNsBRmj2nBs411ypRo5Z84U8dyiuhGWV9KddRTpidSP6MMC_i35_5KsVe-wyi6rlF82Osu-HzGtF1Ksb_95zzpYZyotfao_uwuX0TOvqvJv_75aa1ikm19dsTjZ_ORm00]--></g></svg>