<?xml version="1.0" encoding="us-ascii" standalone="no"?><svg xmlns="http://www.w3.org/2000/svg" xmlns:xlink="http://www.w3.org/1999/xlink" contentStyleType="text/css" height="240px" preserveAspectRatio="none" style="width:534px;height:240px;background:#FFFFFF;" version="1.1" viewBox="0 0 534 240" width="534px" zoomAndPan="magnify"><defs/><g><!--class MovieV2--><g id="elem_MovieV2"><rect codeLine="2" fill="#F1F1F1" height="100.8281" id="MovieV2" rx="2.5" ry="2.5" style="stroke:#181818;stroke-width:0.5;" width="150" x="192" y="7"/><ellipse cx="235.8" cy="23" fill="#ADD1B2" rx="11" ry="11" style="stroke:#181818;stroke-width:1.0;"/><path d="M238.5656,18.875 Q238.7219,18.6563 238.9094,18.5469 Q239.0969,18.4375 239.3156,18.4375 Q239.6906,18.4375 239.925,18.7031 Q240.1594,18.9531 240.1594,19.5625 L240.1594,21.0156 Q240.1594,21.625 239.925,21.8906 Q239.6906,22.1563 239.3156,22.1563 Q238.9719,22.1563 238.7688,21.9531 Q238.5656,21.7656 238.4563,21.25 Q238.4094,20.8906 238.2219,20.7031 Q237.8938,20.3281 237.2844,20.1094 Q236.675,19.8906 236.05,19.8906 Q235.2844,19.8906 234.6438,20.2188 Q234.0188,20.5469 233.5188,21.2969 Q233.0344,22.0469 233.0344,23.0781 L233.0344,24.1719 Q233.0344,25.4063 233.925,26.2344 Q234.8156,27.0469 236.4094,27.0469 Q237.3469,27.0469 238.0031,26.7969 Q238.3938,26.6406 238.8156,26.2031 Q239.0813,25.9375 239.2219,25.8594 Q239.3781,25.7813 239.5813,25.7813 Q239.9094,25.7813 240.1594,26.0469 Q240.425,26.2969 240.425,26.6406 Q240.425,26.9844 240.0813,27.3906 Q239.5813,27.9688 238.7844,28.2969 Q237.7063,28.75 236.4094,28.75 Q234.8938,28.75 233.6906,28.125 Q232.7063,27.625 232.0188,26.5625 Q231.3313,25.4844 231.3313,24.2031 L231.3313,23.0469 Q231.3313,21.7188 231.9406,20.5781 Q232.5656,19.4219 233.6594,18.8125 Q234.7531,18.1875 235.9875,18.1875 Q236.7219,18.1875 237.3625,18.3594 Q238.0188,18.5156 238.5656,18.875 Z " fill="#000000"/><text fill="#000000" font-family="sans-serif" font-size="14" lengthAdjust="spacing" textLength="54" x="256.2" y="28.7285">MovieV2</text><line style="stroke:#181818;stroke-width:0.5;" x1="193" x2="341" y1="39" y2="39"/><text fill="#000000" font-family="sans-serif" font-size="14" lengthAdjust="spacing" textLength="46" x="198" y="57.5332">title: str</text><line style="stroke:#181818;stroke-width:0.5;" x1="193" x2="341" y1="64.6094" y2="64.6094"/><text fill="#000000" font-family="sans-serif" font-size="14" font-style="italic" lengthAdjust="spacing" textLength="138" x="198" y="83.1426">compute_price(): float</text><text fill="#000000" font-family="sans-serif" font-size="14" lengthAdjust="spacing" textLength="110" x="198" y="100.752">print_info(): None</text></g><!--class RegularMovie--><g id="elem_RegularMovie"><rect codeLine="8" fill="#F1F1F1" height="65.6094" id="RegularMovie" rx="2.5" ry="2.5" style="stroke:#181818;stroke-width:0.5;" width="150" x="7" y="168"/><ellipse cx="35.95" cy="184" fill="#ADD1B2" rx="11" ry="11" style="stroke:#181818;stroke-width:1.0;"/><path d="M38.7156,179.875 Q38.8719,179.6563 39.0594,179.5469 Q39.2469,179.4375 39.4656,179.4375 Q39.8406,179.4375 40.075,179.7031 Q40.3094,179.9531 40.3094,180.5625 L40.3094,182.0156 Q40.3094,182.625 40.075,182.8906 Q39.8406,183.1563 39.4656,183.1563 Q39.1219,183.1563 38.9188,182.9531 Q38.7156,182.7656 38.6063,182.25 Q38.5594,181.8906 38.3719,181.7031 Q38.0438,181.3281 37.4344,181.1094 Q36.825,180.8906 36.2,180.8906 Q35.4344,180.8906 34.7938,181.2188 Q34.1688,181.5469 33.6688,182.2969 Q33.1844,183.0469 33.1844,184.0781 L33.1844,185.1719 Q33.1844,186.4063 34.075,187.2344 Q34.9656,188.0469 36.5594,188.0469 Q37.4969,188.0469 38.1531,187.7969 Q38.5438,187.6406 38.9656,187.2031 Q39.2313,186.9375 39.3719,186.8594 Q39.5281,186.7813 39.7313,186.7813 Q40.0594,186.7813 40.3094,187.0469 Q40.575,187.2969 40.575,187.6406 Q40.575,187.9844 40.2313,188.3906 Q39.7313,188.9688 38.9344,189.2969 Q37.8563,189.75 36.5594,189.75 Q35.0438,189.75 33.8406,189.125 Q32.8563,188.625 32.1688,187.5625 Q31.4813,186.4844 31.4813,185.2031 L31.4813,184.0469 Q31.4813,182.7188 32.0906,181.5781 Q32.7156,180.4219 33.8094,179.8125 Q34.9031,179.1875 36.1375,179.1875 Q36.8719,179.1875 37.5125,179.3594 Q38.1688,179.5156 38.7156,179.875 Z " fill="#000000"/><text fill="#000000" font-family="sans-serif" font-size="14" lengthAdjust="spacing" textLength="87" x="53.05" y="189.7285">RegularMovie</text><line style="stroke:#181818;stroke-width:0.5;" x1="8" x2="156" y1="200" y2="200"/><line style="stroke:#181818;stroke-width:0.5;" x1="8" x2="156" y1="208" y2="208"/><text fill="#000000" font-family="sans-serif" font-size="14" lengthAdjust="spacing" textLength="138" x="13" y="226.5332">compute_price(): float</text></g><!--class ChildrenMovie--><g id="elem_ChildrenMovie"><rect codeLine="12" fill="#F1F1F1" height="65.6094" id="ChildrenMovie" rx="2.5" ry="2.5" style="stroke:#181818;stroke-width:0.5;" width="150" x="192" y="168"/><ellipse cx="219.6" cy="184" fill="#ADD1B2" rx="11" ry="11" style="stroke:#181818;stroke-width:1.0;"/><path d="M222.3656,179.875 Q222.5219,179.6563 222.7094,179.5469 Q222.8969,179.4375 223.1156,179.4375 Q223.4906,179.4375 223.725,179.7031 Q223.9594,179.9531 223.9594,180.5625 L223.9594,182.0156 Q223.9594,182.625 223.725,182.8906 Q223.4906,183.1563 223.1156,183.1563 Q222.7719,183.1563 222.5688,182.9531 Q222.3656,182.7656 222.2563,182.25 Q222.2094,181.8906 222.0219,181.7031 Q221.6938,181.3281 221.0844,181.1094 Q220.475,180.8906 219.85,180.8906 Q219.0844,180.8906 218.4438,181.2188 Q217.8188,181.5469 217.3188,182.2969 Q216.8344,183.0469 216.8344,184.0781 L216.8344,185.1719 Q216.8344,186.4063 217.725,187.2344 Q218.6156,188.0469 220.2094,188.0469 Q221.1469,188.0469 221.8031,187.7969 Q222.1938,187.6406 222.6156,187.2031 Q222.8813,186.9375 223.0219,186.8594 Q223.1781,186.7813 223.3813,186.7813 Q223.7094,186.7813 223.9594,187.0469 Q224.225,187.2969 224.225,187.6406 Q224.225,187.9844 223.8813,188.3906 Q223.3813,188.9688 222.5844,189.2969 Q221.5063,189.75 220.2094,189.75 Q218.6938,189.75 217.4906,189.125 Q216.5063,188.625 215.8188,187.5625 Q215.1313,186.4844 215.1313,185.2031 L215.1313,184.0469 Q215.1313,182.7188 215.7406,181.5781 Q216.3656,180.4219 217.4594,179.8125 Q218.5531,179.1875 219.7875,179.1875 Q220.5219,179.1875 221.1625,179.3594 Q221.8188,179.5156 222.3656,179.875 Z " fill="#000000"/><text fill="#000000" font-family="sans-serif" font-size="14" lengthAdjust="spacing" textLength="90" x="236.4" y="189.7285">ChildrenMovie</text><line style="stroke:#181818;stroke-width:0.5;" x1="193" x2="341" y1="200" y2="200"/><line style="stroke:#181818;stroke-width:0.5;" x1="193" x2="341" y1="208" y2="208"/><text fill="#000000" font-family="sans-serif" font-size="14" lengthAdjust="spacing" textLength="138" x="198" y="226.5332">compute_price(): float</text></g><!--class NewReleaseMovie--><g id="elem_NewReleaseMovie"><rect codeLine="16" fill="#F1F1F1" height="65.6094" id="NewReleaseMovie" rx="2.5" ry="2.5" style="stroke:#181818;stroke-width:0.5;" width="150" x="377" y="168"/><ellipse cx="393.35" cy="184" fill="#ADD1B2" rx="11" ry="11" style="stroke:#181818;stroke-width:1.0;"/><path d="M396.1156,179.875 Q396.2719,179.6563 396.4594,179.5469 Q396.6469,179.4375 396.8656,179.4375 Q397.2406,179.4375 397.475,179.7031 Q397.7094,179.9531 397.7094,180.5625 L397.7094,182.0156 Q397.7094,182.625 397.475,182.8906 Q397.2406,183.1563 396.8656,183.1563 Q396.5219,183.1563 396.3188,182.9531 Q396.1156,182.7656 396.0063,182.25 Q395.9594,181.8906 395.7719,181.7031 Q395.4438,181.3281 394.8344,181.1094 Q394.225,180.8906 393.6,180.8906 Q392.8344,180.8906 392.1938,181.2188 Q391.5688,181.5469 391.0688,182.2969 Q390.5844,183.0469 390.5844,184.0781 L390.5844,185.1719 Q390.5844,186.4063 391.475,187.2344 Q392.3656,188.0469 393.9594,188.0469 Q394.8969,188.0469 395.5531,187.7969 Q395.9438,187.6406 396.3656,187.2031 Q396.6313,186.9375 396.7719,186.8594 Q396.9281,186.7813 397.1313,186.7813 Q397.4594,186.7813 397.7094,187.0469 Q397.975,187.2969 397.975,187.6406 Q397.975,187.9844 397.6313,188.3906 Q397.1313,188.9688 396.3344,189.2969 Q395.2563,189.75 393.9594,189.75 Q392.4438,189.75 391.2406,189.125 Q390.2563,188.625 389.5688,187.5625 Q388.8813,186.4844 388.8813,185.2031 L388.8813,184.0469 Q388.8813,182.7188 389.4906,181.5781 Q390.1156,180.4219 391.2094,179.8125 Q392.3031,179.1875 393.5375,179.1875 Q394.2719,179.1875 394.9125,179.3594 Q395.5688,179.5156 396.1156,179.875 Z " fill="#000000"/><text fill="#000000" font-family="sans-serif" font-size="14" lengthAdjust="spacing" textLength="115" x="407.65" y="189.7285">NewReleaseMovie</text><line style="stroke:#181818;stroke-width:0.5;" x1="378" x2="526" y1="200" y2="200"/><line style="stroke:#181818;stroke-width:0.5;" x1="378" x2="526" y1="208" y2="208"/><text fill="#000000" font-family="sans-serif" font-size="14" lengthAdjust="spacing" textLength="138" x="383" y="226.5332">compute_price(): float</text></g><!--reverse link MovieV2 to RegularMovie--><g id="link_MovieV2_RegularMovie"><path codeLine="20" d="M187.7419,119.1245 C161.8119,138.9545 147.01,150.27 123.96,167.91 " fill="none" id="MovieV2-backto-RegularMovie" style="stroke:#181818;stroke-width:1.0;"/><polygon fill="none" points="202.04,108.19,184.097,114.3585,191.3867,123.8906,202.04,108.19" style="stroke:#181818;stroke-width:1.0;"/></g><!--reverse link MovieV2 to ChildrenMovie--><g id="link_MovieV2_ChildrenMovie"><path codeLine="21" d="M267,126.39 C267,146.12 267,150.23 267,167.79 " fill="none" id="MovieV2-backto-ChildrenMovie" style="stroke:#181818;stroke-width:1.0;"/><polygon fill="none" points="267,108.39,261,126.39,273,126.39,267,108.39" style="stroke:#181818;stroke-width:1.0;"/></g><!--reverse link MovieV2 to NewReleaseMovie--><g id="link_MovieV2_NewReleaseMovie"><path codeLine="22" d="M346.2581,119.1245 C372.1881,138.9545 386.99,150.27 410.04,167.91 " fill="none" id="MovieV2-backto-NewReleaseMovie" style="stroke:#181818;stroke-width:1.0;"/><polygon fill="none" points="331.96,108.19,342.6133,123.8906,349.903,114.3585,331.96,108.19" style="stroke:#181818;stroke-width:1.0;"/></g><!--SRC=[bKyx3i8m3Drp2eymT66is9Zfq86rCi45IoQf4XU6qhiJ8a0A4X9uif_zFhQ2CSBMNvXsAvWCf59MeHgYXZnEk4yjMft1-lCmAdL3O4kBPGszUDHybI2d7RlUF_36EpApCJRBjtGS1KDsUNfyKNfJDYUMGo3t3wUXQqj26EatrklhzQsgYepbfeXIhZuSpHq0]--></g></svg>