<?xml version="1.0" encoding="us-ascii" standalone="no"?><svg xmlns="http://www.w3.org/2000/svg" xmlns:xlink="http://www.w3.org/1999/xlink" contentStyleType="text/css" height="162px" preserveAspectRatio="none" style="width:263px;height:162px;background:#FFFFFF;" version="1.1" viewBox="0 0 263 162" width="263px" zoomAndPan="magnify"><defs/><g><!--class Singleton--><g id="elem_Singleton"><rect codeLine="1" fill="#F1F1F1" height="141.1055" id="Singleton" rx="2.5" ry="2.5" style="stroke:#181818;stroke-width:0.5;" width="242" x="7" y="7"/><ellipse cx="94.25" cy="23" fill="#C2C2C2" rx="11" ry="11" style="stroke:#181818;stroke-width:1.0;"/><path d="M97.0156,18.875 Q97.1719,18.6563 97.3594,18.5469 Q97.5469,18.4375 97.7656,18.4375 Q98.1406,18.4375 98.375,18.7031 Q98.6094,18.9531 98.6094,19.5625 L98.6094,21.0156 Q98.6094,21.625 98.375,21.8906 Q98.1406,22.1563 97.7656,22.1563 Q97.4219,22.1563 97.2188,21.9531 Q97.0156,21.7656 96.9063,21.25 Q96.8594,20.8906 96.6719,20.7031 Q96.3438,20.3281 95.7344,20.1094 Q95.125,19.8906 94.5,19.8906 Q93.7344,19.8906 93.0938,20.2188 Q92.4688,20.5469 91.9688,21.2969 Q91.4844,22.0469 91.4844,23.0781 L91.4844,24.1719 Q91.4844,25.4063 92.375,26.2344 Q93.2656,27.0469 94.8594,27.0469 Q95.7969,27.0469 96.4531,26.7969 Q96.8438,26.6406 97.2656,26.2031 Q97.5313,25.9375 97.6719,25.8594 Q97.8281,25.7813 98.0313,25.7813 Q98.3594,25.7813 98.6094,26.0469 Q98.875,26.2969 98.875,26.6406 Q98.875,26.9844 98.5313,27.3906 Q98.0313,27.9688 97.2344,28.2969 Q96.1563,28.75 94.8594,28.75 Q93.3438,28.75 92.1406,28.125 Q91.1563,27.625 90.4688,26.5625 Q89.7813,25.4844 89.7813,24.2031 L89.7813,23.0469 Q89.7813,21.7188 90.3906,20.5781 Q91.0156,19.4219 92.1094,18.8125 Q93.2031,18.1875 94.4375,18.1875 Q95.1719,18.1875 95.8125,18.3594 Q96.4688,18.5156 97.0156,18.875 Z " fill="#000000"/><text fill="#000000" font-family="sans-serif" font-size="14" lengthAdjust="spacing" textLength="59" x="114.75" y="28.7969">Singleton</text><line style="stroke:#181818;stroke-width:0.5;" x1="8" x2="248" y1="39" y2="39"/><rect fill="none" height="6" style="stroke:#595959;stroke-width:1.0;" width="6" x="15" y="50.8105"/><text fill="#000000" font-family="sans-serif" font-size="14" lengthAdjust="spacing" text-decoration="underline" textLength="120" x="27" y="58.1074">instance: Singleton</text><rect fill="none" height="6" style="stroke:#595959;stroke-width:1.0;" width="6" x="15" y="69.4316"/><text fill="#000000" font-family="sans-serif" font-size="14" lengthAdjust="spacing" textLength="87" x="27" y="76.7285">singletonData</text><line style="stroke:#181818;stroke-width:0.5;" x1="8" x2="248" y1="84.2422" y2="84.2422"/><ellipse cx="18" cy="99.0527" fill="#A6A6A6" rx="3" ry="3" style="stroke:#545454;stroke-width:1.0;"/><text fill="#000000" font-family="sans-serif" font-size="14" lengthAdjust="spacing" text-decoration="underline" textLength="150" x="27" y="103.3496">getInstance(): Singleton</text><ellipse cx="18" cy="117.6738" fill="#A6A6A6" rx="3" ry="3" style="stroke:#545454;stroke-width:1.0;"/><text fill="#000000" font-family="sans-serif" font-size="14" lengthAdjust="spacing" textLength="130" x="27" y="121.9707">singletonOperation()</text><ellipse cx="18" cy="136.2949" fill="#A6A6A6" rx="3" ry="3" style="stroke:#545454;stroke-width:1.0;"/><text fill="#000000" font-family="sans-serif" font-size="14" lengthAdjust="spacing" textLength="216" x="27" y="140.5918">getSingletonData(): SingletonData</text></g><!--SRC=[LSqx3eCm30RWFQVm249Se3DBfmwSm8eiY4fi5BiJojqR4C_DZ_-pzHjuneGH5WSGXSMFIIA1fH-vxFo4gj077YOouIsrgA45dw4DN4hszBeIPT_gqNHeU0VDGFRUJLK_LNEgpqofv8MhUfqNqzyFFk3s8Vy1]--></g></svg>