<?xml version="1.0" encoding="us-ascii" standalone="no"?><svg xmlns="http://www.w3.org/2000/svg" xmlns:xlink="http://www.w3.org/1999/xlink" contentStyleType="text/css" height="583px" preserveAspectRatio="none" style="width:909px;height:583px;background:#FFFFFF;" version="1.1" viewBox="0 0 909 583" width="909px" zoomAndPan="magnify"><defs/><g><rect fill="#FFFFFF" height="30.3516" style="stroke:#181818;stroke-width:1.0;" width="10" x="476" y="299.4219"/><rect fill="#FFFFFF" height="30.3516" style="stroke:#181818;stroke-width:1.0;" width="10" x="619.5" y="178.0156"/><rect fill="#FFFFFF" height="30.3516" style="stroke:#181818;stroke-width:1.0;" width="10" x="619.5" y="238.7188"/><rect fill="#FFFFFF" height="30.3516" style="stroke:#181818;stroke-width:1.0;" width="10" x="850" y="420.8281"/><rect fill="#FFFFFF" height="30.3516" style="stroke:#181818;stroke-width:1.0;" width="10" x="850" y="481.5313"/><line style="stroke:#181818;stroke-width:0.5;stroke-dasharray:5.0,5.0;" x1="80" x2="80" y1="54.6094" y2="529.8828"/><line style="stroke:#181818;stroke-width:0.5;stroke-dasharray:5.0,5.0;" x1="336" x2="336" y1="54.6094" y2="529.8828"/><line style="stroke:#181818;stroke-width:0.5;stroke-dasharray:5.0,5.0;" x1="481" x2="481" y1="54.6094" y2="529.8828"/><line style="stroke:#181818;stroke-width:0.5;stroke-dasharray:5.0,5.0;" x1="624" x2="624" y1="54.6094" y2="529.8828"/><line style="stroke:#181818;stroke-width:0.5;stroke-dasharray:5.0,5.0;" x1="747" x2="747" y1="54.6094" y2="529.8828"/><line style="stroke:#181818;stroke-width:0.5;stroke-dasharray:5.0,5.0;" x1="855" x2="855" y1="54.6094" y2="529.8828"/><rect fill="#E2E2F0" height="31.6094" rx="2.5" ry="2.5" style="stroke:#181818;stroke-width:0.5;" width="151" x="5" y="22"/><text fill="#000000" font-family="sans-serif" font-size="14" lengthAdjust="spacing" textLength="137" x="12" y="43.5332">RunWeatherAppSrp()</text><rect fill="#E2E2F0" height="31.6094" rx="2.5" ry="2.5" style="stroke:#181818;stroke-width:0.5;" width="151" x="5" y="528.8828"/><text fill="#000000" font-family="sans-serif" font-size="14" lengthAdjust="spacing" textLength="137" x="12" y="550.416">RunWeatherAppSrp()</text><text fill="#000000" font-family="sans-serif" font-size="14" lengthAdjust="spacing" textLength="131" x="268" y="51.5332">WeatherErrorLogger</text><ellipse cx="336.5" cy="21" fill="#E2E2F0" rx="12" ry="12" style="stroke:#181818;stroke-width:0.5;"/><line style="stroke:#181818;stroke-width:0.5;" x1="324.5" x2="348.5" y1="35" y2="35"/><text fill="#000000" font-family="sans-serif" font-size="14" lengthAdjust="spacing" textLength="131" x="268" y="543.416">WeatherErrorLogger</text><ellipse cx="336.5" cy="562.4922" fill="#E2E2F0" rx="12" ry="12" style="stroke:#181818;stroke-width:0.5;"/><line style="stroke:#181818;stroke-width:0.5;" x1="324.5" x2="348.5" y1="576.4922" y2="576.4922"/><text fill="#000000" font-family="sans-serif" font-size="14" lengthAdjust="spacing" textLength="126" x="415" y="51.5332">WeatherDataParser</text><ellipse cx="481" cy="21" fill="#E2E2F0" rx="12" ry="12" style="stroke:#181818;stroke-width:0.5;"/><line style="stroke:#181818;stroke-width:0.5;" x1="469" x2="493" y1="35" y2="35"/><text fill="#000000" font-family="sans-serif" font-size="14" lengthAdjust="spacing" textLength="126" x="415" y="543.416">WeatherDataParser</text><ellipse cx="481" cy="562.4922" fill="#E2E2F0" rx="12" ry="12" style="stroke:#181818;stroke-width:0.5;"/><line style="stroke:#181818;stroke-width:0.5;" x1="469" x2="493" y1="576.4922" y2="576.4922"/><text fill="#000000" font-family="sans-serif" font-size="14" lengthAdjust="spacing" textLength="129" x="557" y="51.5332">WeatherDataSource</text><ellipse cx="624.5" cy="21" fill="#E2E2F0" rx="12" ry="12" style="stroke:#181818;stroke-width:0.5;"/><line style="stroke:#181818;stroke-width:0.5;" x1="612.5" x2="636.5" y1="35" y2="35"/><text fill="#000000" font-family="sans-serif" font-size="14" lengthAdjust="spacing" textLength="129" x="557" y="543.416">WeatherDataSource</text><ellipse cx="624.5" cy="562.4922" fill="#E2E2F0" rx="12" ry="12" style="stroke:#181818;stroke-width:0.5;"/><line style="stroke:#181818;stroke-width:0.5;" x1="612.5" x2="636.5" y1="576.4922" y2="576.4922"/><text fill="#000000" font-family="sans-serif" font-size="14" lengthAdjust="spacing" textLength="84" x="702" y="51.5332">WeatherData</text><ellipse cx="747" cy="21" fill="#E2E2F0" rx="12" ry="12" style="stroke:#181818;stroke-width:0.5;"/><line style="stroke:#181818;stroke-width:0.5;" x1="735" x2="759" y1="35" y2="35"/><text fill="#000000" font-family="sans-serif" font-size="14" lengthAdjust="spacing" textLength="84" x="702" y="543.416">WeatherData</text><ellipse cx="747" cy="562.4922" fill="#E2E2F0" rx="12" ry="12" style="stroke:#181818;stroke-width:0.5;"/><line style="stroke:#181818;stroke-width:0.5;" x1="735" x2="759" y1="576.4922" y2="576.4922"/><text fill="#000000" font-family="sans-serif" font-size="14" lengthAdjust="spacing" textLength="100" x="802" y="51.5332">WeatherDisplay</text><ellipse cx="855" cy="21" fill="#E2E2F0" rx="12" ry="12" style="stroke:#181818;stroke-width:0.5;"/><line style="stroke:#181818;stroke-width:0.5;" x1="843" x2="867" y1="35" y2="35"/><text fill="#000000" font-family="sans-serif" font-size="14" lengthAdjust="spacing" textLength="100" x="802" y="543.416">WeatherDisplay</text><ellipse cx="855" cy="562.4922" fill="#E2E2F0" rx="12" ry="12" style="stroke:#181818;stroke-width:0.5;"/><line style="stroke:#181818;stroke-width:0.5;" x1="843" x2="867" y1="576.4922" y2="576.4922"/><rect fill="#FFFFFF" height="30.3516" style="stroke:#181818;stroke-width:1.0;" width="10" x="476" y="299.4219"/><rect fill="#FFFFFF" height="30.3516" style="stroke:#181818;stroke-width:1.0;" width="10" x="619.5" y="178.0156"/><rect fill="#FFFFFF" height="30.3516" style="stroke:#181818;stroke-width:1.0;" width="10" x="619.5" y="238.7188"/><rect fill="#FFFFFF" height="30.3516" style="stroke:#181818;stroke-width:1.0;" width="10" x="850" y="420.8281"/><rect fill="#FFFFFF" height="30.3516" style="stroke:#181818;stroke-width:1.0;" width="10" x="850" y="481.5313"/><polygon fill="#181818" points="324.5,82.9609,334.5,86.9609,324.5,90.9609,328.5,86.9609" style="stroke:#181818;stroke-width:1.0;"/><line style="stroke:#181818;stroke-width:1.0;" x1="80.5" x2="330.5" y1="86.9609" y2="86.9609"/><text fill="#000000" font-family="sans-serif" font-size="13" lengthAdjust="spacing" textLength="232" x="87.5" y="82.1045">errorLogger = new WeatherErrorLogger()</text><polygon fill="#181818" points="469,113.3125,479,117.3125,469,121.3125,473,117.3125" style="stroke:#181818;stroke-width:1.0;"/><line style="stroke:#181818;stroke-width:1.0;" x1="80.5" x2="475" y1="117.3125" y2="117.3125"/><text fill="#000000" font-family="sans-serif" font-size="13" lengthAdjust="spacing" textLength="266" x="87.5" y="112.4561">parser = new WeatherDataParser(errorLogger)</text><polygon fill="#181818" points="612.5,143.6641,622.5,147.6641,612.5,151.6641,616.5,147.6641" style="stroke:#181818;stroke-width:1.0;"/><line style="stroke:#181818;stroke-width:1.0;" x1="80.5" x2="618.5" y1="147.6641" y2="147.6641"/><text fill="#000000" font-family="sans-serif" font-size="13" lengthAdjust="spacing" textLength="299" x="87.5" y="142.8076">dataSource = new WeatherDataSource(errorLogger)</text><polygon fill="#181818" points="607.5,174.0156,617.5,178.0156,607.5,182.0156,611.5,178.0156" style="stroke:#181818;stroke-width:1.0;"/><line style="stroke:#181818;stroke-width:1.0;" x1="80.5" x2="613.5" y1="178.0156" y2="178.0156"/><text fill="#000000" font-family="sans-serif" font-size="13" lengthAdjust="spacing" textLength="68" x="87.5" y="173.1592">fetch_data()</text><polygon fill="#181818" points="91.5,204.3672,81.5,208.3672,91.5,212.3672,87.5,208.3672" style="stroke:#181818;stroke-width:1.0;"/><line style="stroke:#181818;stroke-width:1.0;stroke-dasharray:2.0,2.0;" x1="85.5" x2="623.5" y1="208.3672" y2="208.3672"/><text fill="#000000" font-family="sans-serif" font-size="13" lengthAdjust="spacing" textLength="145" x="97.5" y="203.5107">Data fetched from source</text><polygon fill="#181818" points="607.5,234.7188,617.5,238.7188,607.5,242.7188,611.5,238.7188" style="stroke:#181818;stroke-width:1.0;"/><line style="stroke:#181818;stroke-width:1.0;" x1="80.5" x2="613.5" y1="238.7188" y2="238.7188"/><text fill="#000000" font-family="sans-serif" font-size="13" lengthAdjust="spacing" textLength="52" x="87.5" y="233.8623">raw_data</text><polygon fill="#181818" points="91.5,265.0703,81.5,269.0703,91.5,273.0703,87.5,269.0703" style="stroke:#181818;stroke-width:1.0;"/><line style="stroke:#181818;stroke-width:1.0;stroke-dasharray:2.0,2.0;" x1="85.5" x2="623.5" y1="269.0703" y2="269.0703"/><text fill="#000000" font-family="sans-serif" font-size="13" lengthAdjust="spacing" textLength="96" x="97.5" y="264.2139">returns raw_data</text><polygon fill="#181818" points="464,295.4219,474,299.4219,464,303.4219,468,299.4219" style="stroke:#181818;stroke-width:1.0;"/><line style="stroke:#181818;stroke-width:1.0;" x1="80.5" x2="470" y1="299.4219" y2="299.4219"/><text fill="#000000" font-family="sans-serif" font-size="13" lengthAdjust="spacing" textLength="92" x="87.5" y="294.5654">parse(raw_data)</text><polygon fill="#181818" points="91.5,325.7734,81.5,329.7734,91.5,333.7734,87.5,329.7734" style="stroke:#181818;stroke-width:1.0;"/><line style="stroke:#181818;stroke-width:1.0;stroke-dasharray:2.0,2.0;" x1="85.5" x2="480" y1="329.7734" y2="329.7734"/><text fill="#000000" font-family="sans-serif" font-size="13" lengthAdjust="spacing" textLength="115" x="97.5" y="324.917">returns parsed_data</text><polygon fill="#181818" points="735,356.125,745,360.125,735,364.125,739,360.125" style="stroke:#181818;stroke-width:1.0;"/><line style="stroke:#181818;stroke-width:1.0;" x1="80.5" x2="741" y1="360.125" y2="360.125"/><text fill="#000000" font-family="sans-serif" font-size="13" lengthAdjust="spacing" textLength="270" x="87.5" y="355.2686">weather_data = new WeatherData(parsedData)</text><polygon fill="#181818" points="843,386.4766,853,390.4766,843,394.4766,847,390.4766" style="stroke:#181818;stroke-width:1.0;"/><line style="stroke:#181818;stroke-width:1.0;" x1="80.5" x2="849" y1="390.4766" y2="390.4766"/><text fill="#000000" font-family="sans-serif" font-size="13" lengthAdjust="spacing" textLength="249" x="87.5" y="385.6201">display = new WeatherDisplay(errorLogger)</text><polygon fill="#181818" points="838,416.8281,848,420.8281,838,424.8281,842,420.8281" style="stroke:#181818;stroke-width:1.0;"/><line style="stroke:#181818;stroke-width:1.0;" x1="80.5" x2="844" y1="420.8281" y2="420.8281"/><text fill="#000000" font-family="sans-serif" font-size="13" lengthAdjust="spacing" textLength="200" x="87.5" y="415.9717">display_in_format_a(weather_data)</text><polygon fill="#181818" points="91.5,447.1797,81.5,451.1797,91.5,455.1797,87.5,451.1797" style="stroke:#181818;stroke-width:1.0;"/><line style="stroke:#181818;stroke-width:1.0;stroke-dasharray:2.0,2.0;" x1="85.5" x2="854" y1="451.1797" y2="451.1797"/><text fill="#000000" font-family="sans-serif" font-size="13" lengthAdjust="spacing" textLength="113" x="97.5" y="446.3232">Format A displayed</text><polygon fill="#181818" points="838,477.5313,848,481.5313,838,485.5313,842,481.5313" style="stroke:#181818;stroke-width:1.0;"/><line style="stroke:#181818;stroke-width:1.0;" x1="80.5" x2="844" y1="481.5313" y2="481.5313"/><text fill="#000000" font-family="sans-serif" font-size="13" lengthAdjust="spacing" textLength="200" x="87.5" y="476.6748">display_in_format_b(weather_data)</text><polygon fill="#181818" points="91.5,507.8828,81.5,511.8828,91.5,515.8828,87.5,511.8828" style="stroke:#181818;stroke-width:1.0;"/><line style="stroke:#181818;stroke-width:1.0;stroke-dasharray:2.0,2.0;" x1="85.5" x2="854" y1="511.8828" y2="511.8828"/><text fill="#000000" font-family="sans-serif" font-size="13" lengthAdjust="spacing" textLength="113" x="97.5" y="507.0264">Format B displayed</text><!--SRC=[dLBDReCm3Bxp51QdzD0NGDgaJjrEEqpqi2FomBIHLeXC6EhR3-8m2B1EsYbM_FtPYK6sEjS6AmjnsbRlXFP2V33cn4RjOi06qeWgg-qDOjzzPgxvjJwVYHr0oYNgY1RVa1iFad8BTAfRpic1fDm2kVPGh9gwCPzuaxxKKPJ2_j77Ie2ckF005NMmdaFjX2Cf4p3k3E7JG6ecwOcIF87YPw0rMUv3SiWkoUQNRD3e0s5kzHTQ6hVYPVSzFatSBWHF1PHSNw4HM45BOkZ1s3c7F_IPRCjLCy5_qmrMfaRuBBv_UJcMyevLh1myHno6KHFeP94Ekjwj4g6Zi_Oq-GtzcqYn8CdbrciiYPckihBcAzeCrJp6RCZnw_bp7FF5qU0mIb4ndpByhtTiF_vd-tJVzXi0]--></g></svg>