<?xml version="1.0" encoding="us-ascii" standalone="no"?><svg xmlns="http://www.w3.org/2000/svg" xmlns:xlink="http://www.w3.org/1999/xlink" contentStyleType="text/css" height="280px" preserveAspectRatio="none" style="width:351px;height:280px;background:#FFFFFF;" version="1.1" viewBox="0 0 351 280" width="351px" zoomAndPan="magnify"><defs/><g><!--class AbstractClass--><g id="elem_AbstractClass"><rect codeLine="1" fill="#F1F1F1" height="100.8281" id="AbstractClass" rx="2.5" ry="2.5" style="stroke:#181818;stroke-width:0.5;" width="145" x="7.5" y="17.5"/><ellipse cx="34.2" cy="33.5" fill="#A9DCDF" rx="11" ry="11" style="stroke:#181818;stroke-width:1.0;"/><path d="M36.3875,35.2656 L32.2469,35.2656 L31.825,36.2969 L32.2469,36.2969 Q32.8563,36.2969 33.1219,36.5313 Q33.3875,36.7656 33.3875,37.1563 Q33.3875,37.5313 33.1219,37.7656 Q32.8563,38 32.2469,38 L29.95,38 Q29.3406,38 29.0906,37.7656 Q28.825,37.5313 28.825,37.1406 Q28.825,36.7656 29.1063,36.5313 Q29.3719,36.2813 29.9969,36.2969 L32.6688,29.6406 L31.5594,29.6406 Q30.95,29.6406 30.6844,29.4063 Q30.4188,29.1719 30.4188,28.7813 Q30.4188,28.4063 30.6844,28.1719 Q30.95,27.9375 31.5594,27.9375 L35.2313,27.9375 L38.6219,36.2969 Q39.2156,36.2969 39.4031,36.4375 Q39.7938,36.7031 39.7938,37.1563 Q39.7938,37.5313 39.5281,37.7656 Q39.2781,38 38.6688,38 L36.3719,38 Q35.7625,38 35.4969,37.7656 Q35.2313,37.5313 35.2313,37.1406 Q35.2313,36.7656 35.4969,36.5313 Q35.7625,36.2969 36.3719,36.2969 L36.7938,36.2969 L36.3875,35.2656 Z M35.6688,33.5625 L34.3094,30.1875 L32.9344,33.5625 L35.6688,33.5625 Z " fill="#000000"/><text fill="#000000" font-family="sans-serif" font-size="14" font-style="italic" lengthAdjust="spacing" textLength="87" x="50.8" y="39.2285">AbstractClass</text><line style="stroke:#181818;stroke-width:0.5;" x1="8.5" x2="151.5" y1="49.5" y2="49.5"/><line style="stroke:#181818;stroke-width:0.5;" x1="8.5" x2="151.5" y1="57.5" y2="57.5"/><text fill="#000000" font-family="sans-serif" font-size="14" lengthAdjust="spacing" textLength="116" x="13.5" y="76.0332">TemplateMethod()</text><text fill="#000000" font-family="sans-serif" font-size="14" font-style="italic" lengthAdjust="spacing" textLength="133" x="13.5" y="93.6426">PrimitiveOperation1()</text><text fill="#000000" font-family="sans-serif" font-size="14" font-style="italic" lengthAdjust="spacing" textLength="133" x="13.5" y="111.252">PrimitiveOperation2()</text></g><g id="elem_GMN3"><path d="M187.5,6 L187.5,64 L152.66,68 L187.5,72 L187.5,130.4609 A0,0 0 0 0 187.5,130.4609 L344.5,130.4609 A0,0 0 0 0 344.5,130.4609 L344.5,16 L334.5,6 L187.5,6 A0,0 0 0 0 187.5,6 " fill="#FEFFDD" style="stroke:#181818;stroke-width:0.5;"/><path d="M334.5,6 L334.5,16 L344.5,16 L334.5,6 " fill="#FEFFDD" style="stroke:#181818;stroke-width:0.5;"/><text fill="#000000" font-family="sans-serif" font-size="13" lengthAdjust="spacing" textLength="112" x="193.5" y="24.4951">TemplateMethod() {</text><text fill="#000000" font-family="sans-serif" font-size="13" lengthAdjust="spacing" textLength="12" x="209.5" y="40.8467">...</text><text fill="#000000" font-family="sans-serif" font-size="13" lengthAdjust="spacing" textLength="120" x="209.5" y="57.1982">PrimitiveOperation1()</text><text fill="#000000" font-family="sans-serif" font-size="13" lengthAdjust="spacing" textLength="12" x="209.5" y="73.5498">...</text><text fill="#000000" font-family="sans-serif" font-size="13" lengthAdjust="spacing" textLength="120" x="209.5" y="89.9014">PrimitiveOperation2()</text><text fill="#000000" font-family="sans-serif" font-size="13" lengthAdjust="spacing" textLength="12" x="209.5" y="106.2529">...</text><text fill="#000000" font-family="sans-serif" font-size="13" lengthAdjust="spacing" textLength="4" x="193.5" y="122.6045">}</text></g><!--class ConcreteClass--><g id="elem_ConcreteClass"><rect codeLine="15" fill="#F1F1F1" height="83.2188" id="ConcreteClass" rx="2.5" ry="2.5" style="stroke:#181818;stroke-width:0.5;" width="146" x="7" y="190"/><ellipse cx="31.45" cy="206" fill="#ADD1B2" rx="11" ry="11" style="stroke:#181818;stroke-width:1.0;"/><path d="M34.2156,201.875 Q34.3719,201.6563 34.5594,201.5469 Q34.7469,201.4375 34.9656,201.4375 Q35.3406,201.4375 35.575,201.7031 Q35.8094,201.9531 35.8094,202.5625 L35.8094,204.0156 Q35.8094,204.625 35.575,204.8906 Q35.3406,205.1563 34.9656,205.1563 Q34.6219,205.1563 34.4188,204.9531 Q34.2156,204.7656 34.1063,204.25 Q34.0594,203.8906 33.8719,203.7031 Q33.5438,203.3281 32.9344,203.1094 Q32.325,202.8906 31.7,202.8906 Q30.9344,202.8906 30.2938,203.2188 Q29.6688,203.5469 29.1688,204.2969 Q28.6844,205.0469 28.6844,206.0781 L28.6844,207.1719 Q28.6844,208.4063 29.575,209.2344 Q30.4656,210.0469 32.0594,210.0469 Q32.9969,210.0469 33.6531,209.7969 Q34.0438,209.6406 34.4656,209.2031 Q34.7313,208.9375 34.8719,208.8594 Q35.0281,208.7813 35.2313,208.7813 Q35.5594,208.7813 35.8094,209.0469 Q36.075,209.2969 36.075,209.6406 Q36.075,209.9844 35.7313,210.3906 Q35.2313,210.9688 34.4344,211.2969 Q33.3563,211.75 32.0594,211.75 Q30.5438,211.75 29.3406,211.125 Q28.3563,210.625 27.6688,209.5625 Q26.9813,208.4844 26.9813,207.2031 L26.9813,206.0469 Q26.9813,204.7188 27.5906,203.5781 Q28.2156,202.4219 29.3094,201.8125 Q30.4031,201.1875 31.6375,201.1875 Q32.3719,201.1875 33.0125,201.3594 Q33.6688,201.5156 34.2156,201.875 Z " fill="#000000"/><text fill="#000000" font-family="sans-serif" font-size="14" lengthAdjust="spacing" textLength="93" x="47.55" y="211.7285">ConcreteClass</text><line style="stroke:#181818;stroke-width:0.5;" x1="8" x2="152" y1="222" y2="222"/><line style="stroke:#181818;stroke-width:0.5;" x1="8" x2="152" y1="230" y2="230"/><text fill="#000000" font-family="sans-serif" font-size="14" lengthAdjust="spacing" textLength="134" x="13" y="248.5332">PrimitiveOperation1()</text><text fill="#000000" font-family="sans-serif" font-size="14" lengthAdjust="spacing" textLength="134" x="13" y="266.1426">PrimitiveOperation2()</text></g><!--reverse link AbstractClass to ConcreteClass--><g id="link_AbstractClass_ConcreteClass"><path codeLine="19" d="M80,136.77 C80,159.57 80,168.26 80,189.83 " fill="none" id="AbstractClass-backto-ConcreteClass" style="stroke:#181818;stroke-width:1.0;"/><polygon fill="none" points="80,118.77,74,136.77,86,136.77,80,118.77" style="stroke:#181818;stroke-width:1.0;"/></g><!--SRC=[IqmgBYbAJ2vHICv9B2vMS8HodS6yQYu5XP3Kt8ASn99KtzIIZFmK3KsWK7KYL5MjGa1HPcvcIMPPgdz1Qb5YIMP-dY5X9KP09RLSUVabgGf5cUaP9GhvQQWMOx4Mx1OGqDFJWx9msKr8bH6QgbgkrBmK1P1pk221u9oVbroKMfAA20HSLk7o6semsjJewg8Q2W00]--></g></svg>