<?xml version="1.0" encoding="us-ascii" standalone="no"?><svg xmlns="http://www.w3.org/2000/svg" xmlns:xlink="http://www.w3.org/1999/xlink" contentStyleType="text/css" height="205px" preserveAspectRatio="none" style="width:541px;height:205px;background:#FFFFFF;" version="1.1" viewBox="0 0 541 205" width="541px" zoomAndPan="magnify"><defs/><g><!--class Context--><g id="elem_Context"><rect codeLine="1" fill="#F1F1F1" height="65.6094" id="Context" rx="2.5" ry="2.5" style="stroke:#181818;stroke-width:0.5;" width="130" x="33" y="7"/><ellipse cx="70.5" cy="23" fill="#ADD1B2" rx="11" ry="11" style="stroke:#181818;stroke-width:1.0;"/><path d="M73.2656,18.875 Q73.4219,18.6563 73.6094,18.5469 Q73.7969,18.4375 74.0156,18.4375 Q74.3906,18.4375 74.625,18.7031 Q74.8594,18.9531 74.8594,19.5625 L74.8594,21.0156 Q74.8594,21.625 74.625,21.8906 Q74.3906,22.1563 74.0156,22.1563 Q73.6719,22.1563 73.4688,21.9531 Q73.2656,21.7656 73.1563,21.25 Q73.1094,20.8906 72.9219,20.7031 Q72.5938,20.3281 71.9844,20.1094 Q71.375,19.8906 70.75,19.8906 Q69.9844,19.8906 69.3438,20.2188 Q68.7188,20.5469 68.2188,21.2969 Q67.7344,22.0469 67.7344,23.0781 L67.7344,24.1719 Q67.7344,25.4063 68.625,26.2344 Q69.5156,27.0469 71.1094,27.0469 Q72.0469,27.0469 72.7031,26.7969 Q73.0938,26.6406 73.5156,26.2031 Q73.7813,25.9375 73.9219,25.8594 Q74.0781,25.7813 74.2813,25.7813 Q74.6094,25.7813 74.8594,26.0469 Q75.125,26.2969 75.125,26.6406 Q75.125,26.9844 74.7813,27.3906 Q74.2813,27.9688 73.4844,28.2969 Q72.4063,28.75 71.1094,28.75 Q69.5938,28.75 68.3906,28.125 Q67.4063,27.625 66.7188,26.5625 Q66.0313,25.4844 66.0313,24.2031 L66.0313,23.0469 Q66.0313,21.7188 66.6406,20.5781 Q67.2656,19.4219 68.3594,18.8125 Q69.4531,18.1875 70.6875,18.1875 Q71.4219,18.1875 72.0625,18.3594 Q72.7188,18.5156 73.2656,18.875 Z " fill="#000000"/><text fill="#000000" font-family="sans-serif" font-size="14" lengthAdjust="spacing" textLength="48" x="89.5" y="28.7285">Context</text><line style="stroke:#181818;stroke-width:0.5;" x1="34" x2="162" y1="39" y2="39"/><line style="stroke:#181818;stroke-width:0.5;" x1="34" x2="162" y1="47" y2="47"/><text fill="#000000" font-family="sans-serif" font-size="14" lengthAdjust="spacing" textLength="118" x="39" y="65.5332">context_interface()</text></g><!--class Strategy--><g id="elem_Strategy"><rect codeLine="5" fill="#F1F1F1" height="65.6094" id="Strategy" rx="2.5" ry="2.5" style="stroke:#181818;stroke-width:0.5;" width="143" x="198.5" y="7"/><ellipse cx="239.6" cy="23" fill="#A9DCDF" rx="11" ry="11" style="stroke:#181818;stroke-width:1.0;"/><path d="M241.7875,24.7656 L237.6469,24.7656 L237.225,25.7969 L237.6469,25.7969 Q238.2563,25.7969 238.5219,26.0313 Q238.7875,26.2656 238.7875,26.6563 Q238.7875,27.0313 238.5219,27.2656 Q238.2563,27.5 237.6469,27.5 L235.35,27.5 Q234.7406,27.5 234.4906,27.2656 Q234.225,27.0313 234.225,26.6406 Q234.225,26.2656 234.5063,26.0313 Q234.7719,25.7813 235.3969,25.7969 L238.0688,19.1406 L236.9594,19.1406 Q236.35,19.1406 236.0844,18.9063 Q235.8188,18.6719 235.8188,18.2813 Q235.8188,17.9063 236.0844,17.6719 Q236.35,17.4375 236.9594,17.4375 L240.6313,17.4375 L244.0219,25.7969 Q244.6156,25.7969 244.8031,25.9375 Q245.1938,26.2031 245.1938,26.6563 Q245.1938,27.0313 244.9281,27.2656 Q244.6781,27.5 244.0688,27.5 L241.7719,27.5 Q241.1625,27.5 240.8969,27.2656 Q240.6313,27.0313 240.6313,26.6406 Q240.6313,26.2656 240.8969,26.0313 Q241.1625,25.7969 241.7719,25.7969 L242.1938,25.7969 L241.7875,24.7656 Z M241.0688,23.0625 L239.7094,19.6875 L238.3344,23.0625 L241.0688,23.0625 Z " fill="#000000"/><text fill="#000000" font-family="sans-serif" font-size="14" font-style="italic" lengthAdjust="spacing" textLength="53" x="259.4" y="28.7285">Strategy</text><line style="stroke:#181818;stroke-width:0.5;" x1="199.5" x2="340.5" y1="39" y2="39"/><line style="stroke:#181818;stroke-width:0.5;" x1="199.5" x2="340.5" y1="47" y2="47"/><text fill="#000000" font-family="sans-serif" font-size="14" font-style="italic" lengthAdjust="spacing" textLength="131" x="204.5" y="65.5332">algorithm_interface()</text></g><!--class ConcreteStrategyA--><g id="elem_ConcreteStrategyA"><rect codeLine="9" fill="#F1F1F1" height="65.6094" id="ConcreteStrategyA" rx="2.5" ry="2.5" style="stroke:#181818;stroke-width:0.5;" width="152" x="7" y="133"/><ellipse cx="22" cy="149" fill="#ADD1B2" rx="11" ry="11" style="stroke:#181818;stroke-width:1.0;"/><path d="M24.7656,144.875 Q24.9219,144.6563 25.1094,144.5469 Q25.2969,144.4375 25.5156,144.4375 Q25.8906,144.4375 26.125,144.7031 Q26.3594,144.9531 26.3594,145.5625 L26.3594,147.0156 Q26.3594,147.625 26.125,147.8906 Q25.8906,148.1563 25.5156,148.1563 Q25.1719,148.1563 24.9688,147.9531 Q24.7656,147.7656 24.6563,147.25 Q24.6094,146.8906 24.4219,146.7031 Q24.0938,146.3281 23.4844,146.1094 Q22.875,145.8906 22.25,145.8906 Q21.4844,145.8906 20.8438,146.2188 Q20.2188,146.5469 19.7188,147.2969 Q19.2344,148.0469 19.2344,149.0781 L19.2344,150.1719 Q19.2344,151.4063 20.125,152.2344 Q21.0156,153.0469 22.6094,153.0469 Q23.5469,153.0469 24.2031,152.7969 Q24.5938,152.6406 25.0156,152.2031 Q25.2813,151.9375 25.4219,151.8594 Q25.5781,151.7813 25.7813,151.7813 Q26.1094,151.7813 26.3594,152.0469 Q26.625,152.2969 26.625,152.6406 Q26.625,152.9844 26.2813,153.3906 Q25.7813,153.9688 24.9844,154.2969 Q23.9063,154.75 22.6094,154.75 Q21.0938,154.75 19.8906,154.125 Q18.9063,153.625 18.2188,152.5625 Q17.5313,151.4844 17.5313,150.2031 L17.5313,149.0469 Q17.5313,147.7188 18.1406,146.5781 Q18.7656,145.4219 19.8594,144.8125 Q20.9531,144.1875 22.1875,144.1875 Q22.9219,144.1875 23.5625,144.3594 Q24.2188,144.5156 24.7656,144.875 Z " fill="#000000"/><text fill="#000000" font-family="sans-serif" font-size="14" lengthAdjust="spacing" textLength="120" x="36" y="154.7285">ConcreteStrategyA</text><line style="stroke:#181818;stroke-width:0.5;" x1="8" x2="158" y1="165" y2="165"/><line style="stroke:#181818;stroke-width:0.5;" x1="8" x2="158" y1="173" y2="173"/><text fill="#000000" font-family="sans-serif" font-size="14" lengthAdjust="spacing" textLength="131" x="13" y="191.5332">algorithm_interface()</text></g><!--class ConcreteStrategyB--><g id="elem_ConcreteStrategyB"><rect codeLine="13" fill="#F1F1F1" height="65.6094" id="ConcreteStrategyB" rx="2.5" ry="2.5" style="stroke:#181818;stroke-width:0.5;" width="152" x="194" y="133"/><ellipse cx="209" cy="149" fill="#ADD1B2" rx="11" ry="11" style="stroke:#181818;stroke-width:1.0;"/><path d="M211.7656,144.875 Q211.9219,144.6563 212.1094,144.5469 Q212.2969,144.4375 212.5156,144.4375 Q212.8906,144.4375 213.125,144.7031 Q213.3594,144.9531 213.3594,145.5625 L213.3594,147.0156 Q213.3594,147.625 213.125,147.8906 Q212.8906,148.1563 212.5156,148.1563 Q212.1719,148.1563 211.9688,147.9531 Q211.7656,147.7656 211.6563,147.25 Q211.6094,146.8906 211.4219,146.7031 Q211.0938,146.3281 210.4844,146.1094 Q209.875,145.8906 209.25,145.8906 Q208.4844,145.8906 207.8438,146.2188 Q207.2188,146.5469 206.7188,147.2969 Q206.2344,148.0469 206.2344,149.0781 L206.2344,150.1719 Q206.2344,151.4063 207.125,152.2344 Q208.0156,153.0469 209.6094,153.0469 Q210.5469,153.0469 211.2031,152.7969 Q211.5938,152.6406 212.0156,152.2031 Q212.2813,151.9375 212.4219,151.8594 Q212.5781,151.7813 212.7813,151.7813 Q213.1094,151.7813 213.3594,152.0469 Q213.625,152.2969 213.625,152.6406 Q213.625,152.9844 213.2813,153.3906 Q212.7813,153.9688 211.9844,154.2969 Q210.9063,154.75 209.6094,154.75 Q208.0938,154.75 206.8906,154.125 Q205.9063,153.625 205.2188,152.5625 Q204.5313,151.4844 204.5313,150.2031 L204.5313,149.0469 Q204.5313,147.7188 205.1406,146.5781 Q205.7656,145.4219 206.8594,144.8125 Q207.9531,144.1875 209.1875,144.1875 Q209.9219,144.1875 210.5625,144.3594 Q211.2188,144.5156 211.7656,144.875 Z " fill="#000000"/><text fill="#000000" font-family="sans-serif" font-size="14" lengthAdjust="spacing" textLength="120" x="223" y="154.7285">ConcreteStrategyB</text><line style="stroke:#181818;stroke-width:0.5;" x1="195" x2="345" y1="165" y2="165"/><line style="stroke:#181818;stroke-width:0.5;" x1="195" x2="345" y1="173" y2="173"/><text fill="#000000" font-family="sans-serif" font-size="14" lengthAdjust="spacing" textLength="131" x="200" y="191.5332">algorithm_interface()</text></g><!--class ConcreteStrategyC--><g id="elem_ConcreteStrategyC"><rect codeLine="17" fill="#F1F1F1" height="65.6094" id="ConcreteStrategyC" rx="2.5" ry="2.5" style="stroke:#181818;stroke-width:0.5;" width="153" x="381.5" y="133"/><ellipse cx="396.5" cy="149" fill="#ADD1B2" rx="11" ry="11" style="stroke:#181818;stroke-width:1.0;"/><path d="M399.2656,144.875 Q399.4219,144.6563 399.6094,144.5469 Q399.7969,144.4375 400.0156,144.4375 Q400.3906,144.4375 400.625,144.7031 Q400.8594,144.9531 400.8594,145.5625 L400.8594,147.0156 Q400.8594,147.625 400.625,147.8906 Q400.3906,148.1563 400.0156,148.1563 Q399.6719,148.1563 399.4688,147.9531 Q399.2656,147.7656 399.1563,147.25 Q399.1094,146.8906 398.9219,146.7031 Q398.5938,146.3281 397.9844,146.1094 Q397.375,145.8906 396.75,145.8906 Q395.9844,145.8906 395.3438,146.2188 Q394.7188,146.5469 394.2188,147.2969 Q393.7344,148.0469 393.7344,149.0781 L393.7344,150.1719 Q393.7344,151.4063 394.625,152.2344 Q395.5156,153.0469 397.1094,153.0469 Q398.0469,153.0469 398.7031,152.7969 Q399.0938,152.6406 399.5156,152.2031 Q399.7813,151.9375 399.9219,151.8594 Q400.0781,151.7813 400.2813,151.7813 Q400.6094,151.7813 400.8594,152.0469 Q401.125,152.2969 401.125,152.6406 Q401.125,152.9844 400.7813,153.3906 Q400.2813,153.9688 399.4844,154.2969 Q398.4063,154.75 397.1094,154.75 Q395.5938,154.75 394.3906,154.125 Q393.4063,153.625 392.7188,152.5625 Q392.0313,151.4844 392.0313,150.2031 L392.0313,149.0469 Q392.0313,147.7188 392.6406,146.5781 Q393.2656,145.4219 394.3594,144.8125 Q395.4531,144.1875 396.6875,144.1875 Q397.4219,144.1875 398.0625,144.3594 Q398.7188,144.5156 399.2656,144.875 Z " fill="#000000"/><text fill="#000000" font-family="sans-serif" font-size="14" lengthAdjust="spacing" textLength="121" x="410.5" y="154.7285">ConcreteStrategyC</text><line style="stroke:#181818;stroke-width:0.5;" x1="382.5" x2="533.5" y1="165" y2="165"/><line style="stroke:#181818;stroke-width:0.5;" x1="382.5" x2="533.5" y1="173" y2="173"/><text fill="#000000" font-family="sans-serif" font-size="14" lengthAdjust="spacing" textLength="131" x="387.5" y="191.5332">algorithm_interface()</text></g><!--reverse link Context to Strategy--><g id="link_Context_Strategy"><path codeLine="21" d="M175.17,40 C186.86,40 186.54,40 198.22,40 " fill="none" id="Context-backto-Strategy" style="stroke:#181818;stroke-width:1.0;"/><polygon fill="none" points="163.17,40,169.17,44,175.17,40,169.17,36,163.17,40" style="stroke:#181818;stroke-width:1.0;"/></g><!--reverse link Strategy to ConcreteStrategyA--><g id="link_Strategy_ConcreteStrategyA"><path codeLine="22" d="M206.3573,83.2058 C178.6473,101.5758 159.06,114.56 131.4,132.91 " fill="none" id="Strategy-backto-ConcreteStrategyA" style="stroke:#181818;stroke-width:1.0;"/><polygon fill="none" points="221.36,73.26,203.042,78.2049,209.6726,88.2067,221.36,73.26" style="stroke:#181818;stroke-width:1.0;"/></g><!--reverse link Strategy to ConcreteStrategyB--><g id="link_Strategy_ConcreteStrategyB"><path codeLine="23" d="M270,91.26 C270,109.63 270,114.56 270,132.91 " fill="none" id="Strategy-backto-ConcreteStrategyB" style="stroke:#181818;stroke-width:1.0;"/><polygon fill="none" points="270,73.26,264,91.26,276,91.26,270,73.26" style="stroke:#181818;stroke-width:1.0;"/></g><!--reverse link Strategy to ConcreteStrategyC--><g id="link_Strategy_ConcreteStrategyC"><path codeLine="24" d="M333.9273,83.1685 C361.7873,101.5385 381.53,114.56 409.34,132.91 " fill="none" id="Strategy-backto-ConcreteStrategyC" style="stroke:#181818;stroke-width:1.0;"/><polygon fill="none" points="318.9,73.26,330.6245,88.1777,337.2302,78.1594,318.9,73.26" style="stroke:#181818;stroke-width:1.0;"/></g><!--SRC=[Iyv9B2vMSCxFAqcjA56evb80WcG8BpuJI1Mb9IQdQcXorN9n9IOLbnGb9fSe98Fr10Cv9QdfbM1DrJ39MeN4dFJyeioIZ5nq_SamgvABKajIOTeTmVf9rEH4ZYPd_9fWOP2l2_SQ5zoFDZMwkfXE9o3lH43U6G00]--></g></svg>