<?xml version="1.0" encoding="us-ascii" standalone="no"?><svg xmlns="http://www.w3.org/2000/svg" xmlns:xlink="http://www.w3.org/1999/xlink" contentStyleType="text/css" height="490px" preserveAspectRatio="none" style="width:864px;height:490px;background:#FFFFFF;" version="1.1" viewBox="0 0 864 490" width="864px" zoomAndPan="magnify"><defs/><g><!--class Stock--><g id="elem_Stock"><rect codeLine="2" fill="#F1F1F1" height="83.2188" id="Stock" rx="2.5" ry="2.5" style="stroke:#181818;stroke-width:0.5;" width="82" x="87" y="239"/><ellipse cx="108.75" cy="255" fill="#ADD1B2" rx="11" ry="11" style="stroke:#181818;stroke-width:1.0;"/><path d="M111.5156,250.875 Q111.6719,250.6563 111.8594,250.5469 Q112.0469,250.4375 112.2656,250.4375 Q112.6406,250.4375 112.875,250.7031 Q113.1094,250.9531 113.1094,251.5625 L113.1094,253.0156 Q113.1094,253.625 112.875,253.8906 Q112.6406,254.1563 112.2656,254.1563 Q111.9219,254.1563 111.7188,253.9531 Q111.5156,253.7656 111.4063,253.25 Q111.3594,252.8906 111.1719,252.7031 Q110.8438,252.3281 110.2344,252.1094 Q109.625,251.8906 109,251.8906 Q108.2344,251.8906 107.5938,252.2188 Q106.9688,252.5469 106.4688,253.2969 Q105.9844,254.0469 105.9844,255.0781 L105.9844,256.1719 Q105.9844,257.4063 106.875,258.2344 Q107.7656,259.0469 109.3594,259.0469 Q110.2969,259.0469 110.9531,258.7969 Q111.3438,258.6406 111.7656,258.2031 Q112.0313,257.9375 112.1719,257.8594 Q112.3281,257.7813 112.5313,257.7813 Q112.8594,257.7813 113.1094,258.0469 Q113.375,258.2969 113.375,258.6406 Q113.375,258.9844 113.0313,259.3906 Q112.5313,259.9688 111.7344,260.2969 Q110.6563,260.75 109.3594,260.75 Q107.8438,260.75 106.6406,260.125 Q105.6563,259.625 104.9688,258.5625 Q104.2813,257.4844 104.2813,256.2031 L104.2813,255.0469 Q104.2813,253.7188 104.8906,252.5781 Q105.5156,251.4219 106.6094,250.8125 Q107.7031,250.1875 108.9375,250.1875 Q109.6719,250.1875 110.3125,250.3594 Q110.9688,250.5156 111.5156,250.875 Z " fill="#000000"/><text fill="#000000" font-family="sans-serif" font-size="14" lengthAdjust="spacing" textLength="35" x="124.25" y="260.7285">Stock</text><line style="stroke:#181818;stroke-width:0.5;" x1="88" x2="168" y1="271" y2="271"/><text fill="#000000" font-family="sans-serif" font-size="14" lengthAdjust="spacing" textLength="63" x="93" y="289.5332">name : str</text><text fill="#000000" font-family="sans-serif" font-size="14" lengthAdjust="spacing" textLength="70" x="93" y="307.1426">price : float</text><line style="stroke:#181818;stroke-width:0.5;" x1="88" x2="168" y1="314.2188" y2="314.2188"/></g><!--class StockObserver--><g id="elem_StockObserver"><rect codeLine="7" fill="#F1F1F1" height="65.6094" id="StockObserver" rx="2.5" ry="2.5" style="stroke:#181818;stroke-width:0.5;" width="226" x="347" y="247.5"/><ellipse cx="408.75" cy="263.5" fill="#B4A7E5" rx="11" ry="11" style="stroke:#181818;stroke-width:1.0;"/><path d="M409.7031,260.1406 L409.7031,266.7969 L411.4219,266.7969 Q412.0313,266.7969 412.2969,267.0313 Q412.5625,267.2656 412.5625,267.6563 Q412.5625,268.0313 412.2969,268.2656 Q412.0313,268.5 411.4219,268.5 L406.2813,268.5 Q405.6719,268.5 405.4063,268.2656 Q405.1406,268.0313 405.1406,267.6406 Q405.1406,267.2656 405.4063,267.0313 Q405.6719,266.7969 406.2813,266.7969 L408,266.7969 L408,260.1406 L406.2813,260.1406 Q405.6719,260.1406 405.4063,259.9063 Q405.1406,259.6719 405.1406,259.2813 Q405.1406,258.9063 405.4063,258.6719 Q405.6719,258.4375 406.2813,258.4375 L411.4219,258.4375 Q412.0313,258.4375 412.2969,258.6719 Q412.5625,258.9063 412.5625,259.2813 Q412.5625,259.6719 412.2969,259.9063 Q412.0313,260.1406 411.4219,260.1406 L409.7031,260.1406 Z " fill="#000000"/><text fill="#000000" font-family="sans-serif" font-size="14" font-style="italic" lengthAdjust="spacing" textLength="94" x="429.25" y="269.2285">StockObserver</text><line style="stroke:#181818;stroke-width:0.5;" x1="348" x2="572" y1="279.5" y2="279.5"/><line style="stroke:#181818;stroke-width:0.5;" x1="348" x2="572" y1="287.5" y2="287.5"/><text fill="#000000" font-family="sans-serif" font-size="14" font-style="italic" lengthAdjust="spacing" textLength="214" x="353" y="306.0332">update(stocks : list[Stock]) : None</text></g><!--class StockMarket--><g id="elem_StockMarket"><rect codeLine="11" fill="#F1F1F1" height="153.6563" id="StockMarket" rx="2.5" ry="2.5" style="stroke:#181818;stroke-width:0.5;" width="332" x="7" y="7"/><ellipse cx="129.75" cy="23" fill="#ADD1B2" rx="11" ry="11" style="stroke:#181818;stroke-width:1.0;"/><path d="M132.5156,18.875 Q132.6719,18.6563 132.8594,18.5469 Q133.0469,18.4375 133.2656,18.4375 Q133.6406,18.4375 133.875,18.7031 Q134.1094,18.9531 134.1094,19.5625 L134.1094,21.0156 Q134.1094,21.625 133.875,21.8906 Q133.6406,22.1563 133.2656,22.1563 Q132.9219,22.1563 132.7188,21.9531 Q132.5156,21.7656 132.4063,21.25 Q132.3594,20.8906 132.1719,20.7031 Q131.8438,20.3281 131.2344,20.1094 Q130.625,19.8906 130,19.8906 Q129.2344,19.8906 128.5938,20.2188 Q127.9688,20.5469 127.4688,21.2969 Q126.9844,22.0469 126.9844,23.0781 L126.9844,24.1719 Q126.9844,25.4063 127.875,26.2344 Q128.7656,27.0469 130.3594,27.0469 Q131.2969,27.0469 131.9531,26.7969 Q132.3438,26.6406 132.7656,26.2031 Q133.0313,25.9375 133.1719,25.8594 Q133.3281,25.7813 133.5313,25.7813 Q133.8594,25.7813 134.1094,26.0469 Q134.375,26.2969 134.375,26.6406 Q134.375,26.9844 134.0313,27.3906 Q133.5313,27.9688 132.7344,28.2969 Q131.6563,28.75 130.3594,28.75 Q128.8438,28.75 127.6406,28.125 Q126.6563,27.625 125.9688,26.5625 Q125.2813,25.4844 125.2813,24.2031 L125.2813,23.0469 Q125.2813,21.7188 125.8906,20.5781 Q126.5156,19.4219 127.6094,18.8125 Q128.7031,18.1875 129.9375,18.1875 Q130.6719,18.1875 131.3125,18.3594 Q131.9688,18.5156 132.5156,18.875 Z " fill="#000000"/><text fill="#000000" font-family="sans-serif" font-size="14" lengthAdjust="spacing" textLength="78" x="150.25" y="28.7285">StockMarket</text><line style="stroke:#181818;stroke-width:0.5;" x1="8" x2="338" y1="39" y2="39"/><text fill="#000000" font-family="sans-serif" font-size="14" lengthAdjust="spacing" textLength="112" x="13" y="57.5332">stocks : list[Stock]</text><text fill="#000000" font-family="sans-serif" font-size="14" lengthAdjust="spacing" textLength="194" x="13" y="75.1426">observers : list[StockObserver]</text><line style="stroke:#181818;stroke-width:0.5;" x1="8" x2="338" y1="82.2188" y2="82.2188"/><text fill="#000000" font-family="sans-serif" font-size="14" lengthAdjust="spacing" textLength="200" x="13" y="100.752">add_stock(stock : Stock) : None</text><text fill="#000000" font-family="sans-serif" font-size="14" lengthAdjust="spacing" textLength="145" x="13" y="118.3613">update_prices() : None</text><text fill="#000000" font-family="sans-serif" font-size="14" lengthAdjust="spacing" textLength="320" x="13" y="135.9707">attach_observer(observer : StockObserver) : None</text><text fill="#000000" font-family="sans-serif" font-size="14" lengthAdjust="spacing" textLength="160" x="13" y="153.5801">notify_observers() : None</text></g><path d="M374,31.5 L374,48.8516 L173,147.8516 L374,56.8516 L374,74.2031 A0,0 0 0 0 374,74.2031 L562,74.2031 A0,0 0 0 0 562,74.2031 L562,41.5 L552,31.5 L374,31.5 A0,0 0 0 0 374,31.5 " fill="#FEFFDD" style="stroke:#181818;stroke-width:0.5;"/><path d="M552,31.5 L552,41.5 L562,41.5 L552,31.5 " fill="#FEFFDD" style="stroke:#181818;stroke-width:0.5;"/><text fill="#000000" font-family="sans-serif" font-size="13" lengthAdjust="spacing" textLength="167" x="380" y="49.9951">for observer in self.observers:</text><text fill="#000000" font-family="sans-serif" font-size="13" lengthAdjust="spacing" textLength="138" x="396" y="66.3467">observer.update(stocks)</text><path d="M374,84.2031 L374,101.5547 L158,112.6328 L374,109.5547 L374,126.9063 A0,0 0 0 0 374,126.9063 L630,126.9063 A0,0 0 0 0 630,126.9063 L630,94.2031 L620,84.2031 L374,84.2031 A0,0 0 0 0 374,84.2031 " fill="#FEFFDD" style="stroke:#181818;stroke-width:0.5;"/><path d="M620,84.2031 L620,94.2031 L630,94.2031 L620,84.2031 " fill="#FEFFDD" style="stroke:#181818;stroke-width:0.5;"/><text fill="#000000" font-family="sans-serif" font-size="13" lengthAdjust="spacing" textLength="235" x="380" y="102.6982">stocks = list(stocks with updated prices)</text><text fill="#000000" font-family="sans-serif" font-size="13" lengthAdjust="spacing" textLength="140" x="380" y="119.0498">notify_observers(stocks)</text><!--class PrintingStockObserver--><g id="elem_PrintingStockObserver"><rect codeLine="30" fill="#F1F1F1" height="83.2188" id="PrintingStockObserver" rx="2.5" ry="2.5" style="stroke:#181818;stroke-width:0.5;" width="223" x="227.5" y="392"/><ellipse cx="264.55" cy="408" fill="#ADD1B2" rx="11" ry="11" style="stroke:#181818;stroke-width:1.0;"/><path d="M267.3156,403.875 Q267.4719,403.6563 267.6594,403.5469 Q267.8469,403.4375 268.0656,403.4375 Q268.4406,403.4375 268.675,403.7031 Q268.9094,403.9531 268.9094,404.5625 L268.9094,406.0156 Q268.9094,406.625 268.675,406.8906 Q268.4406,407.1563 268.0656,407.1563 Q267.7219,407.1563 267.5188,406.9531 Q267.3156,406.7656 267.2063,406.25 Q267.1594,405.8906 266.9719,405.7031 Q266.6438,405.3281 266.0344,405.1094 Q265.425,404.8906 264.8,404.8906 Q264.0344,404.8906 263.3938,405.2188 Q262.7688,405.5469 262.2688,406.2969 Q261.7844,407.0469 261.7844,408.0781 L261.7844,409.1719 Q261.7844,410.4063 262.675,411.2344 Q263.5656,412.0469 265.1594,412.0469 Q266.0969,412.0469 266.7531,411.7969 Q267.1438,411.6406 267.5656,411.2031 Q267.8313,410.9375 267.9719,410.8594 Q268.1281,410.7813 268.3313,410.7813 Q268.6594,410.7813 268.9094,411.0469 Q269.175,411.2969 269.175,411.6406 Q269.175,411.9844 268.8313,412.3906 Q268.3313,412.9688 267.5344,413.2969 Q266.4563,413.75 265.1594,413.75 Q263.6438,413.75 262.4406,413.125 Q261.4563,412.625 260.7688,411.5625 Q260.0813,410.4844 260.0813,409.2031 L260.0813,408.0469 Q260.0813,406.7188 260.6906,405.5781 Q261.3156,404.4219 262.4094,403.8125 Q263.5031,403.1875 264.7375,403.1875 Q265.4719,403.1875 266.1125,403.3594 Q266.7688,403.5156 267.3156,403.875 Z " fill="#000000"/><text fill="#000000" font-family="sans-serif" font-size="14" lengthAdjust="spacing" textLength="142" x="283.45" y="413.7285">PrintingStockObserver</text><line style="stroke:#181818;stroke-width:0.5;" x1="228.5" x2="449.5" y1="424" y2="424"/><text fill="#000000" font-family="sans-serif" font-size="14" lengthAdjust="spacing" textLength="63" x="233.5" y="442.5332">name : str</text><line style="stroke:#181818;stroke-width:0.5;" x1="228.5" x2="449.5" y1="449.6094" y2="449.6094"/><text fill="#000000" font-family="sans-serif" font-size="14" lengthAdjust="spacing" textLength="211" x="233.5" y="468.1426">update(stocks : list[Stock]) : None</text></g><g id="elem_GMN8"><path d="M204,267.5 L204,293.8516 A0,0 0 0 0 204,293.8516 L260.49,293.8516 L317.22,391.91 L268.49,293.8516 L312,293.8516 A0,0 0 0 0 312,293.8516 L312,277.5 L302,267.5 L204,267.5 A0,0 0 0 0 204,267.5 " fill="#FEFFDD" style="stroke:#181818;stroke-width:0.5;"/><path d="M302,267.5 L302,277.5 L312,277.5 L302,267.5 " fill="#FEFFDD" style="stroke:#181818;stroke-width:0.5;"/><text fill="#000000" font-family="sans-serif" font-size="13" lengthAdjust="spacing" textLength="87" x="210" y="285.9951">Print all stocks</text></g><!--class RisingStockObserver--><g id="elem_RisingStockObserver"><rect codeLine="39" fill="#F1F1F1" height="100.8281" id="RisingStockObserver" rx="2.5" ry="2.5" style="stroke:#181818;stroke-width:0.5;" width="223" x="553.5" y="383"/><ellipse cx="594.6" cy="399" fill="#ADD1B2" rx="11" ry="11" style="stroke:#181818;stroke-width:1.0;"/><path d="M597.3656,394.875 Q597.5219,394.6563 597.7094,394.5469 Q597.8969,394.4375 598.1156,394.4375 Q598.4906,394.4375 598.725,394.7031 Q598.9594,394.9531 598.9594,395.5625 L598.9594,397.0156 Q598.9594,397.625 598.725,397.8906 Q598.4906,398.1563 598.1156,398.1563 Q597.7719,398.1563 597.5688,397.9531 Q597.3656,397.7656 597.2563,397.25 Q597.2094,396.8906 597.0219,396.7031 Q596.6938,396.3281 596.0844,396.1094 Q595.475,395.8906 594.85,395.8906 Q594.0844,395.8906 593.4438,396.2188 Q592.8188,396.5469 592.3188,397.2969 Q591.8344,398.0469 591.8344,399.0781 L591.8344,400.1719 Q591.8344,401.4063 592.725,402.2344 Q593.6156,403.0469 595.2094,403.0469 Q596.1469,403.0469 596.8031,402.7969 Q597.1938,402.6406 597.6156,402.2031 Q597.8813,401.9375 598.0219,401.8594 Q598.1781,401.7813 598.3813,401.7813 Q598.7094,401.7813 598.9594,402.0469 Q599.225,402.2969 599.225,402.6406 Q599.225,402.9844 598.8813,403.3906 Q598.3813,403.9688 597.5844,404.2969 Q596.5063,404.75 595.2094,404.75 Q593.6938,404.75 592.4906,404.125 Q591.5063,403.625 590.8188,402.5625 Q590.1313,401.4844 590.1313,400.2031 L590.1313,399.0469 Q590.1313,397.7188 590.7406,396.5781 Q591.3656,395.4219 592.4594,394.8125 Q593.5531,394.1875 594.7875,394.1875 Q595.5219,394.1875 596.1625,394.3594 Q596.8188,394.5156 597.3656,394.875 Z " fill="#000000"/><text fill="#000000" font-family="sans-serif" font-size="14" lengthAdjust="spacing" textLength="133" x="614.4" y="404.7285">RisingStockObserver</text><line style="stroke:#181818;stroke-width:0.5;" x1="554.5" x2="775.5" y1="415" y2="415"/><text fill="#000000" font-family="sans-serif" font-size="14" lengthAdjust="spacing" textLength="63" x="559.5" y="433.5332">name : str</text><text fill="#000000" font-family="sans-serif" font-size="14" lengthAdjust="spacing" textLength="158" x="559.5" y="451.1426">old_prices : dict[str, float]</text><line style="stroke:#181818;stroke-width:0.5;" x1="554.5" x2="775.5" y1="458.2188" y2="458.2188"/><text fill="#000000" font-family="sans-serif" font-size="14" lengthAdjust="spacing" textLength="211" x="559.5" y="476.752">update(stocks : list[Stock]) : None</text></g><g id="elem_GMN12"><path d="M608.5,267.5 L608.5,293.8516 A0,0 0 0 0 608.5,293.8516 L723.55,293.8516 L687.38,382.79 L731.55,293.8516 L857.5,293.8516 A0,0 0 0 0 857.5,293.8516 L857.5,277.5 L847.5,267.5 L608.5,267.5 A0,0 0 0 0 608.5,267.5 " fill="#FEFFDD" style="stroke:#181818;stroke-width:0.5;"/><path d="M847.5,267.5 L847.5,277.5 L857.5,277.5 L847.5,267.5 " fill="#FEFFDD" style="stroke:#181818;stroke-width:0.5;"/><text fill="#000000" font-family="sans-serif" font-size="13" lengthAdjust="spacing" textLength="228" x="614.5" y="285.9951">Print only stocks whose price has risen</text></g><!--reverse link StockObserver to PrintingStockObserver--><g id="link_StockObserver_PrintingStockObserver"><path codeLine="49" d="M423.0835,327.566 C404.7635,350.426 391.25,367.3 371.55,391.89 " fill="none" id="StockObserver-backto-PrintingStockObserver" style="stroke:#181818;stroke-width:1.0;stroke-dasharray:7.0,7.0;"/><polygon fill="none" points="434.34,313.52,418.4015,323.8139,427.7655,331.3182,434.34,313.52" style="stroke:#181818;stroke-width:1.0;"/></g><!--reverse link StockObserver to RisingStockObserver--><g id="link_StockObserver_RisingStockObserver"><path codeLine="50" d="M517.9722,324.196 C545.3522,344.366 566.77,360.15 597.78,382.99 " fill="none" id="StockObserver-backto-RisingStockObserver" style="stroke:#181818;stroke-width:1.0;stroke-dasharray:7.0,7.0;"/><polygon fill="none" points="503.48,313.52,514.4135,329.0267,521.5309,319.3652,503.48,313.52" style="stroke:#181818;stroke-width:1.0;"/></g><!--link StockMarket to Stock--><g id="link_StockMarket_Stock"><path codeLine="51" d="M152.7043,172.721 C146.5643,199.251 143.9718,210.4643 138.7618,232.9943 " fill="none" id="StockMarket-Stock" style="stroke:#181818;stroke-width:1.0;"/><polygon fill="none" points="155.41,161.03,150.1601,165.9736,152.7043,172.721,157.9541,167.7774,155.41,161.03" style="stroke:#181818;stroke-width:1.0;"/><polygon fill="#181818" points="137.41,238.84,143.3349,230.9726,138.5365,233.9686,135.5406,229.1702,137.41,238.84" style="stroke:#181818;stroke-width:1.0;"/><text fill="#000000" font-family="sans-serif" font-size="13" lengthAdjust="spacing" textLength="49" x="149" y="205.4951">contains</text></g><!--link StockMarket to StockObserver--><g id="link_StockMarket_StockObserver"><path codeLine="52" d="M295.1236,167.7622 C339.4636,197.8122 373.093,220.6042 407.743,244.0842 " fill="none" id="StockMarket-StockObserver" style="stroke:#181818;stroke-width:1.0;"/><polygon fill="none" points="285.19,161.03,287.9128,167.7073,295.1236,167.7622,292.4009,161.0849,285.19,161.03" style="stroke:#181818;stroke-width:1.0;"/><polygon fill="#181818" points="412.71,247.45,407.5034,239.0899,408.5708,244.6452,403.0156,245.7126,412.71,247.45" style="stroke:#181818;stroke-width:1.0;"/><text fill="#000000" font-family="sans-serif" font-size="13" lengthAdjust="spacing" textLength="41" x="352" y="205.4951">notifies</text></g><!--SRC=[dLJ1Ri8m3BtdAt84QVG3gcr_i35jHuIGIL8QaIKezeOGuz-Nfcbfe4ned4XiFx_dF5SOGEGVvCIM7naFFmkVYfSSoSVZpclHd2lZWDY9CMr9-Gh2PQoQhr7vR-LJzH7MeH84dVZNJWAf2JPP612CHbh4ckKq75-TLGsUE3Du0RzLb936wcB0fOvvhEFHve2KgmZGjW-PCQdls-Iq_5PH84wo4121g5TTfqdtfyFfccL5rf6k3dtH03Ae3475lTxKn5qrL5kMbtMiShuNoRNbg4nLzE4o6qAHJNdAb9KD4VLdnqmvIuD-YiFidcklgKuJagq70lYLmkkkxMk- -U0IRJTZ3hdmrvqkYMh8xHeje-Witd8m9ZddYjIxnlieEIFJRCAbr88M8VBGRi3olwH7kYVApff3v_PzxL2bdQi1m_kXiWCbEVl7dwAuCOsHn346mxLpizbp-XAKN3XBe2tUo9YV5oAQGWSV_G80]--></g></svg>