<?xml version="1.0" encoding="us-ascii" standalone="no"?><svg xmlns="http://www.w3.org/2000/svg" xmlns:xlink="http://www.w3.org/1999/xlink" contentStyleType="text/css" height="496px" preserveAspectRatio="none" style="width:871px;height:496px;background:#FFFFFF;" version="1.1" viewBox="0 0 871 496" width="871px" zoomAndPan="magnify"><defs/><g><!--cluster adventure::v4a--><g id="cluster_adventure::v4a"><path d="M8.5,6 L115.5,6 A3.75,3.75 0 0 1 118,8.5 L125,29.6094 L861.5,29.6094 A2.5,2.5 0 0 1 864,32.1094 L864,486.5 A2.5,2.5 0 0 1 861.5,489 L8.5,489 A2.5,2.5 0 0 1 6,486.5 L6,8.5 A2.5,2.5 0 0 1 8.5,6 " fill="none" style="stroke:#000000;stroke-width:1.5;"/><line style="stroke:#000000;stroke-width:1.5;" x1="6" x2="125" y1="29.6094" y2="29.6094"/><text fill="#000000" font-family="sans-serif" font-size="14" font-weight="bold" lengthAdjust="spacing" textLength="106" x="10" y="22.5332">adventure::v4a</text></g><!--class Action--><g id="elem_Action"><rect codeLine="6" fill="#F1F1F1" height="83.2188" id="Action" rx="2.5" ry="2.5" style="stroke:#181818;stroke-width:0.5;" width="190" x="283" y="256"/><ellipse cx="354.25" cy="272" fill="#ADD1B2" rx="11" ry="11" style="stroke:#181818;stroke-width:1.0;"/><path d="M357.0156,267.875 Q357.1719,267.6563 357.3594,267.5469 Q357.5469,267.4375 357.7656,267.4375 Q358.1406,267.4375 358.375,267.7031 Q358.6094,267.9531 358.6094,268.5625 L358.6094,270.0156 Q358.6094,270.625 358.375,270.8906 Q358.1406,271.1563 357.7656,271.1563 Q357.4219,271.1563 357.2188,270.9531 Q357.0156,270.7656 356.9063,270.25 Q356.8594,269.8906 356.6719,269.7031 Q356.3438,269.3281 355.7344,269.1094 Q355.125,268.8906 354.5,268.8906 Q353.7344,268.8906 353.0938,269.2188 Q352.4688,269.5469 351.9688,270.2969 Q351.4844,271.0469 351.4844,272.0781 L351.4844,273.1719 Q351.4844,274.4063 352.375,275.2344 Q353.2656,276.0469 354.8594,276.0469 Q355.7969,276.0469 356.4531,275.7969 Q356.8438,275.6406 357.2656,275.2031 Q357.5313,274.9375 357.6719,274.8594 Q357.8281,274.7813 358.0313,274.7813 Q358.3594,274.7813 358.6094,275.0469 Q358.875,275.2969 358.875,275.6406 Q358.875,275.9844 358.5313,276.3906 Q358.0313,276.9688 357.2344,277.2969 Q356.1563,277.75 354.8594,277.75 Q353.3438,277.75 352.1406,277.125 Q351.1563,276.625 350.4688,275.5625 Q349.7813,274.4844 349.7813,273.2031 L349.7813,272.0469 Q349.7813,270.7188 350.3906,269.5781 Q351.0156,268.4219 352.1094,267.8125 Q353.2031,267.1875 354.4375,267.1875 Q355.1719,267.1875 355.8125,267.3594 Q356.4688,267.5156 357.0156,267.875 Z " fill="#000000"/><text fill="#000000" font-family="sans-serif" font-size="14" lengthAdjust="spacing" textLength="39" x="374.75" y="277.7285">Action</text><line style="stroke:#181818;stroke-width:0.5;" x1="284" x2="472" y1="288" y2="288"/><text fill="#000000" font-family="sans-serif" font-size="14" font-style="italic" lengthAdjust="spacing" textLength="93" x="289" y="306.5332">description: str</text><line style="stroke:#181818;stroke-width:0.5;" x1="284" x2="472" y1="313.6094" y2="313.6094"/><text fill="#000000" font-family="sans-serif" font-size="14" font-style="italic" font-weight="bold" lengthAdjust="spacing" textLength="178" x="289" y="332.1426">perform(instigator: Player)</text></g><!--class MoveAction--><g id="elem_MoveAction"><rect codeLine="11" fill="#F1F1F1" height="65.6094" id="MoveAction" rx="2.5" ry="2.5" style="stroke:#181818;stroke-width:0.5;" width="170" x="465" y="399"/><ellipse cx="509.25" cy="415" fill="#ADD1B2" rx="11" ry="11" style="stroke:#181818;stroke-width:1.0;"/><path d="M512.0156,410.875 Q512.1719,410.6563 512.3594,410.5469 Q512.5469,410.4375 512.7656,410.4375 Q513.1406,410.4375 513.375,410.7031 Q513.6094,410.9531 513.6094,411.5625 L513.6094,413.0156 Q513.6094,413.625 513.375,413.8906 Q513.1406,414.1563 512.7656,414.1563 Q512.4219,414.1563 512.2188,413.9531 Q512.0156,413.7656 511.9063,413.25 Q511.8594,412.8906 511.6719,412.7031 Q511.3438,412.3281 510.7344,412.1094 Q510.125,411.8906 509.5,411.8906 Q508.7344,411.8906 508.0938,412.2188 Q507.4688,412.5469 506.9688,413.2969 Q506.4844,414.0469 506.4844,415.0781 L506.4844,416.1719 Q506.4844,417.4063 507.375,418.2344 Q508.2656,419.0469 509.8594,419.0469 Q510.7969,419.0469 511.4531,418.7969 Q511.8438,418.6406 512.2656,418.2031 Q512.5313,417.9375 512.6719,417.8594 Q512.8281,417.7813 513.0313,417.7813 Q513.3594,417.7813 513.6094,418.0469 Q513.875,418.2969 513.875,418.6406 Q513.875,418.9844 513.5313,419.3906 Q513.0313,419.9688 512.2344,420.2969 Q511.1563,420.75 509.8594,420.75 Q508.3438,420.75 507.1406,420.125 Q506.1563,419.625 505.4688,418.5625 Q504.7813,417.4844 504.7813,416.2031 L504.7813,415.0469 Q504.7813,413.7188 505.3906,412.5781 Q506.0156,411.4219 507.1094,410.8125 Q508.2031,410.1875 509.4375,410.1875 Q510.1719,410.1875 510.8125,410.3594 Q511.4688,410.5156 512.0156,410.875 Z " fill="#000000"/><text fill="#000000" font-family="sans-serif" font-size="14" lengthAdjust="spacing" textLength="73" x="529.75" y="420.7285">MoveAction</text><line style="stroke:#181818;stroke-width:0.5;" x1="466" x2="634" y1="431" y2="431"/><line style="stroke:#181818;stroke-width:0.5;" x1="466" x2="634" y1="439" y2="439"/><text fill="#000000" font-family="sans-serif" font-size="14" lengthAdjust="spacing" textLength="71" x="471" y="457.5332">perform(...)</text></g><!--class SkipTurnAction--><g id="elem_SkipTurnAction"><rect codeLine="16" fill="#F1F1F1" height="65.6094" id="SkipTurnAction" rx="2.5" ry="2.5" style="stroke:#181818;stroke-width:0.5;" width="170" x="260" y="399"/><ellipse cx="293.9" cy="415" fill="#ADD1B2" rx="11" ry="11" style="stroke:#181818;stroke-width:1.0;"/><path d="M296.6656,410.875 Q296.8219,410.6563 297.0094,410.5469 Q297.1969,410.4375 297.4156,410.4375 Q297.7906,410.4375 298.025,410.7031 Q298.2594,410.9531 298.2594,411.5625 L298.2594,413.0156 Q298.2594,413.625 298.025,413.8906 Q297.7906,414.1563 297.4156,414.1563 Q297.0719,414.1563 296.8688,413.9531 Q296.6656,413.7656 296.5563,413.25 Q296.5094,412.8906 296.3219,412.7031 Q295.9938,412.3281 295.3844,412.1094 Q294.775,411.8906 294.15,411.8906 Q293.3844,411.8906 292.7438,412.2188 Q292.1188,412.5469 291.6188,413.2969 Q291.1344,414.0469 291.1344,415.0781 L291.1344,416.1719 Q291.1344,417.4063 292.025,418.2344 Q292.9156,419.0469 294.5094,419.0469 Q295.4469,419.0469 296.1031,418.7969 Q296.4938,418.6406 296.9156,418.2031 Q297.1813,417.9375 297.3219,417.8594 Q297.4781,417.7813 297.6813,417.7813 Q298.0094,417.7813 298.2594,418.0469 Q298.525,418.2969 298.525,418.6406 Q298.525,418.9844 298.1813,419.3906 Q297.6813,419.9688 296.8844,420.2969 Q295.8063,420.75 294.5094,420.75 Q292.9938,420.75 291.7906,420.125 Q290.8063,419.625 290.1188,418.5625 Q289.4313,417.4844 289.4313,416.2031 L289.4313,415.0469 Q289.4313,413.7188 290.0406,412.5781 Q290.6656,411.4219 291.7594,410.8125 Q292.8531,410.1875 294.0875,410.1875 Q294.8219,410.1875 295.4625,410.3594 Q296.1188,410.5156 296.6656,410.875 Z " fill="#000000"/><text fill="#000000" font-family="sans-serif" font-size="14" lengthAdjust="spacing" textLength="96" x="312.1" y="420.7285">SkipTurnAction</text><line style="stroke:#181818;stroke-width:0.5;" x1="261" x2="429" y1="431" y2="431"/><line style="stroke:#181818;stroke-width:0.5;" x1="261" x2="429" y1="439" y2="439"/><text fill="#000000" font-family="sans-serif" font-size="14" lengthAdjust="spacing" textLength="71" x="266" y="457.5332">perform(...)</text></g><!--class Player--><g id="elem_Player"><rect codeLine="22" fill="#87CEFA" height="153.6563" id="Player" rx="2.5" ry="2.5" style="stroke:#00008B;stroke-width:2.0;" width="302" x="227" y="42"/><ellipse cx="353.75" cy="58" fill="#ADD1B2" rx="11" ry="11" style="stroke:#181818;stroke-width:1.0;"/><path d="M356.5156,53.875 Q356.6719,53.6563 356.8594,53.5469 Q357.0469,53.4375 357.2656,53.4375 Q357.6406,53.4375 357.875,53.7031 Q358.1094,53.9531 358.1094,54.5625 L358.1094,56.0156 Q358.1094,56.625 357.875,56.8906 Q357.6406,57.1563 357.2656,57.1563 Q356.9219,57.1563 356.7188,56.9531 Q356.5156,56.7656 356.4063,56.25 Q356.3594,55.8906 356.1719,55.7031 Q355.8438,55.3281 355.2344,55.1094 Q354.625,54.8906 354,54.8906 Q353.2344,54.8906 352.5938,55.2188 Q351.9688,55.5469 351.4688,56.2969 Q350.9844,57.0469 350.9844,58.0781 L350.9844,59.1719 Q350.9844,60.4063 351.875,61.2344 Q352.7656,62.0469 354.3594,62.0469 Q355.2969,62.0469 355.9531,61.7969 Q356.3438,61.6406 356.7656,61.2031 Q357.0313,60.9375 357.1719,60.8594 Q357.3281,60.7813 357.5313,60.7813 Q357.8594,60.7813 358.1094,61.0469 Q358.375,61.2969 358.375,61.6406 Q358.375,61.9844 358.0313,62.3906 Q357.5313,62.9688 356.7344,63.2969 Q355.6563,63.75 354.3594,63.75 Q352.8438,63.75 351.6406,63.125 Q350.6563,62.625 349.9688,61.5625 Q349.2813,60.4844 349.2813,59.2031 L349.2813,58.0469 Q349.2813,56.7188 349.8906,55.5781 Q350.5156,54.4219 351.6094,53.8125 Q352.7031,53.1875 353.9375,53.1875 Q354.6719,53.1875 355.3125,53.3594 Q355.9688,53.5156 356.5156,53.875 Z " fill="#000000"/><text fill="#000000" font-family="sans-serif" font-size="14" lengthAdjust="spacing" textLength="40" x="374.25" y="63.7285">Player</text><line style="stroke:#00008B;stroke-width:2.0;" x1="228" x2="528" y1="74" y2="74"/><text fill="#000000" font-family="sans-serif" font-size="14" font-weight="bold" lengthAdjust="spacing" textLength="82" x="233" y="92.5332">pawn: Pawn</text><line style="stroke:#00008B;stroke-width:2.0;" x1="228" x2="528" y1="99.6094" y2="99.6094"/><text fill="#000000" font-family="sans-serif" font-size="14" font-weight="bold" lengthAdjust="spacing" textLength="77" x="233" y="118.1426">take_turn()</text><text fill="#000000" font-family="sans-serif" font-size="14" font-weight="bold" lengthAdjust="spacing" textLength="124" x="233" y="135.752">location: Location</text><text fill="#000000" font-family="sans-serif" font-size="14" font-weight="bold" lengthAdjust="spacing" textLength="134" x="233" y="153.3613">actions: list[Action]</text><text fill="#000000" font-family="sans-serif" font-size="14" font-weight="bold" lengthAdjust="spacing" textLength="290" x="233" y="170.9707">select_action(actions: list[Action]): Action</text><text fill="#000000" font-family="sans-serif" font-size="14" font-weight="bold" lengthAdjust="spacing" textLength="161" x="233" y="188.5801">perform(action: Action)</text></g><path d="M564.5,50 L564.5,67.3516 L310,112.4141 L564.5,75.3516 L564.5,92.7031 A0,0 0 0 0 564.5,92.7031 L815.5,92.7031 A0,0 0 0 0 815.5,92.7031 L815.5,60 L805.5,50 L564.5,50 A0,0 0 0 0 564.5,50 " fill="#FEFFDD" style="stroke:#181818;stroke-width:0.5;"/><path d="M805.5,50 L805.5,60 L815.5,60 L805.5,50 " fill="#FEFFDD" style="stroke:#181818;stroke-width:0.5;"/><text fill="#000000" font-family="sans-serif" font-size="13" lengthAdjust="spacing" textLength="230" x="570.5" y="68.4951">action = self.select_action(self.actions);</text><text fill="#000000" font-family="sans-serif" font-size="13" lengthAdjust="spacing" textLength="114" x="570.5" y="84.8467">self.perform(action);</text><path d="M564.5,102.7031 L564.5,136.4063 L367,147.6328 L564.5,144.4063 L564.5,178.1094 A0,0 0 0 0 564.5,178.1094 L847.5,178.1094 A0,0 0 0 0 847.5,178.1094 L847.5,112.7031 L837.5,102.7031 L564.5,102.7031 A0,0 0 0 0 564.5,102.7031 " fill="#FEFFDD" style="stroke:#181818;stroke-width:0.5;"/><path d="M837.5,102.7031 L837.5,112.7031 L847.5,112.7031 L837.5,102.7031 " fill="#FEFFDD" style="stroke:#181818;stroke-width:0.5;"/><text fill="#000000" font-family="sans-serif" font-size="13" lengthAdjust="spacing" textLength="60" x="570.5" y="121.1982">@property</text><text fill="#000000" font-family="sans-serif" font-size="13" lengthAdjust="spacing" textLength="145" x="570.5" y="137.5498">def actions(): list[Action]:</text><text fill="#000000" font-family="sans-serif" font-size="13" lengthAdjust="spacing" textLength="16" x="570.5" y="153.9014">&#160;&#160;&#160;&#160;</text><text fill="#000000" font-family="sans-serif" font-size="13" font-style="italic" lengthAdjust="spacing" textLength="246" x="586.5" y="153.9014"># Compute the actions the player can take</text><text fill="#000000" font-family="sans-serif" font-size="13" lengthAdjust="spacing" textLength="143" x="586.5" y="170.2529">return computed_actions</text><!--class Pawn--><g id="elem_Pawn"><rect codeLine="43" fill="#F1F1F1" height="118.4375" id="Pawn" rx="2.5" ry="2.5" style="stroke:#181818;stroke-width:0.5;" width="170" x="22" y="60"/><ellipse cx="85.75" cy="76" fill="#ADD1B2" rx="11" ry="11" style="stroke:#181818;stroke-width:1.0;"/><path d="M88.5156,71.875 Q88.6719,71.6563 88.8594,71.5469 Q89.0469,71.4375 89.2656,71.4375 Q89.6406,71.4375 89.875,71.7031 Q90.1094,71.9531 90.1094,72.5625 L90.1094,74.0156 Q90.1094,74.625 89.875,74.8906 Q89.6406,75.1563 89.2656,75.1563 Q88.9219,75.1563 88.7188,74.9531 Q88.5156,74.7656 88.4063,74.25 Q88.3594,73.8906 88.1719,73.7031 Q87.8438,73.3281 87.2344,73.1094 Q86.625,72.8906 86,72.8906 Q85.2344,72.8906 84.5938,73.2188 Q83.9688,73.5469 83.4688,74.2969 Q82.9844,75.0469 82.9844,76.0781 L82.9844,77.1719 Q82.9844,78.4063 83.875,79.2344 Q84.7656,80.0469 86.3594,80.0469 Q87.2969,80.0469 87.9531,79.7969 Q88.3438,79.6406 88.7656,79.2031 Q89.0313,78.9375 89.1719,78.8594 Q89.3281,78.7813 89.5313,78.7813 Q89.8594,78.7813 90.1094,79.0469 Q90.375,79.2969 90.375,79.6406 Q90.375,79.9844 90.0313,80.3906 Q89.5313,80.9688 88.7344,81.2969 Q87.6563,81.75 86.3594,81.75 Q84.8438,81.75 83.6406,81.125 Q82.6563,80.625 81.9688,79.5625 Q81.2813,78.4844 81.2813,77.2031 L81.2813,76.0469 Q81.2813,74.7188 81.8906,73.5781 Q82.5156,72.4219 83.6094,71.8125 Q84.7031,71.1875 85.9375,71.1875 Q86.6719,71.1875 87.3125,71.3594 Q87.9688,71.5156 88.5156,71.875 Z " fill="#000000"/><text fill="#000000" font-family="sans-serif" font-size="14" lengthAdjust="spacing" textLength="34" x="106.25" y="81.7285">Pawn</text><line style="stroke:#181818;stroke-width:0.5;" x1="23" x2="191" y1="92" y2="92"/><text fill="#000000" font-family="sans-serif" font-size="14" lengthAdjust="spacing" textLength="59" x="28" y="110.5332">name: str</text><text fill="#000000" font-family="sans-serif" font-size="14" lengthAdjust="spacing" textLength="111" x="28" y="128.1426">location: Location</text><line style="stroke:#181818;stroke-width:0.5;" x1="23" x2="191" y1="135.2188" y2="135.2188"/><text fill="#000000" font-family="sans-serif" font-size="14" lengthAdjust="spacing" text-decoration="line-through" textLength="144" x="28" y="153.752">perform(action: Action)</text><text fill="#000000" font-family="sans-serif" font-size="14" lengthAdjust="spacing" textLength="117" x="28" y="171.3613">actions: list[Action]</text></g><!--class Location--><g id="elem_Location"><rect codeLine="53" fill="#F1F1F1" height="65.6094" id="Location" rx="2.5" ry="2.5" style="stroke:#181818;stroke-width:0.5;" width="171" x="22.5" y="264.5"/><ellipse cx="68.75" cy="280.5" fill="#ADD1B2" rx="11" ry="11" style="stroke:#181818;stroke-width:1.0;"/><path d="M71.5156,276.375 Q71.6719,276.1563 71.8594,276.0469 Q72.0469,275.9375 72.2656,275.9375 Q72.6406,275.9375 72.875,276.2031 Q73.1094,276.4531 73.1094,277.0625 L73.1094,278.5156 Q73.1094,279.125 72.875,279.3906 Q72.6406,279.6563 72.2656,279.6563 Q71.9219,279.6563 71.7188,279.4531 Q71.5156,279.2656 71.4063,278.75 Q71.3594,278.3906 71.1719,278.2031 Q70.8438,277.8281 70.2344,277.6094 Q69.625,277.3906 69,277.3906 Q68.2344,277.3906 67.5938,277.7188 Q66.9688,278.0469 66.4688,278.7969 Q65.9844,279.5469 65.9844,280.5781 L65.9844,281.6719 Q65.9844,282.9063 66.875,283.7344 Q67.7656,284.5469 69.3594,284.5469 Q70.2969,284.5469 70.9531,284.2969 Q71.3438,284.1406 71.7656,283.7031 Q72.0313,283.4375 72.1719,283.3594 Q72.3281,283.2813 72.5313,283.2813 Q72.8594,283.2813 73.1094,283.5469 Q73.375,283.7969 73.375,284.1406 Q73.375,284.4844 73.0313,284.8906 Q72.5313,285.4688 71.7344,285.7969 Q70.6563,286.25 69.3594,286.25 Q67.8438,286.25 66.6406,285.625 Q65.6563,285.125 64.9688,284.0625 Q64.2813,282.9844 64.2813,281.7031 L64.2813,280.5469 Q64.2813,279.2188 64.8906,278.0781 Q65.5156,276.9219 66.6094,276.3125 Q67.7031,275.6875 68.9375,275.6875 Q69.6719,275.6875 70.3125,275.8594 Q70.9688,276.0156 71.5156,276.375 Z " fill="#000000"/><text fill="#000000" font-family="sans-serif" font-size="14" lengthAdjust="spacing" textLength="54" x="97.25" y="286.2285">Location</text><line style="stroke:#181818;stroke-width:0.5;" x1="23.5" x2="192.5" y1="296.5" y2="296.5"/><line style="stroke:#181818;stroke-width:0.5;" x1="23.5" x2="192.5" y1="304.5" y2="304.5"/><text fill="#000000" font-family="sans-serif" font-size="14" lengthAdjust="spacing" textLength="159" x="28.5" y="323.0332">move_actions: list[Action]</text></g><!--class World--><g id="elem_World"><rect codeLine="57" fill="#F1F1F1" height="48" id="World" rx="2.5" ry="2.5" style="stroke:#181818;stroke-width:0.5;" width="170" x="23" y="408"/><ellipse cx="75.25" cy="424" fill="#ADD1B2" rx="11" ry="11" style="stroke:#181818;stroke-width:1.0;"/><path d="M78.0156,419.875 Q78.1719,419.6563 78.3594,419.5469 Q78.5469,419.4375 78.7656,419.4375 Q79.1406,419.4375 79.375,419.7031 Q79.6094,419.9531 79.6094,420.5625 L79.6094,422.0156 Q79.6094,422.625 79.375,422.8906 Q79.1406,423.1563 78.7656,423.1563 Q78.4219,423.1563 78.2188,422.9531 Q78.0156,422.7656 77.9063,422.25 Q77.8594,421.8906 77.6719,421.7031 Q77.3438,421.3281 76.7344,421.1094 Q76.125,420.8906 75.5,420.8906 Q74.7344,420.8906 74.0938,421.2188 Q73.4688,421.5469 72.9688,422.2969 Q72.4844,423.0469 72.4844,424.0781 L72.4844,425.1719 Q72.4844,426.4063 73.375,427.2344 Q74.2656,428.0469 75.8594,428.0469 Q76.7969,428.0469 77.4531,427.7969 Q77.8438,427.6406 78.2656,427.2031 Q78.5313,426.9375 78.6719,426.8594 Q78.8281,426.7813 79.0313,426.7813 Q79.3594,426.7813 79.6094,427.0469 Q79.875,427.2969 79.875,427.6406 Q79.875,427.9844 79.5313,428.3906 Q79.0313,428.9688 78.2344,429.2969 Q77.1563,429.75 75.8594,429.75 Q74.3438,429.75 73.1406,429.125 Q72.1563,428.625 71.4688,427.5625 Q70.7813,426.4844 70.7813,425.2031 L70.7813,424.0469 Q70.7813,422.7188 71.3906,421.5781 Q72.0156,420.4219 73.1094,419.8125 Q74.2031,419.1875 75.4375,419.1875 Q76.1719,419.1875 76.8125,419.3594 Q77.4688,419.5156 78.0156,419.875 Z " fill="#000000"/><text fill="#000000" font-family="sans-serif" font-size="14" lengthAdjust="spacing" textLength="37" x="107.75" y="429.7285">World</text><line style="stroke:#181818;stroke-width:0.5;" x1="24" x2="192" y1="440" y2="440"/><line style="stroke:#181818;stroke-width:0.5;" x1="24" x2="192" y1="448" y2="448"/></g><!--reverse link Action to MoveAction--><g id="link_Action_MoveAction"><path codeLine="14" d="M445.2691,350.3253 C470.1391,369.4853 485.1,381 508.35,398.92 " fill="none" id="Action-backto-MoveAction" style="stroke:#181818;stroke-width:1.0;"/><polygon fill="none" points="431.01,339.34,441.6074,355.0784,448.9309,345.5723,431.01,339.34" style="stroke:#181818;stroke-width:1.0;"/></g><!--reverse link Action to SkipTurnAction--><g id="link_Action_SkipTurnAction"><path codeLine="19" d="M363.4815,356.8068 C358.7115,375.9668 357.45,381 352.99,398.92 " fill="none" id="Action-backto-SkipTurnAction" style="stroke:#181818;stroke-width:1.0;"/><polygon fill="none" points="367.83,339.34,357.6592,355.3574,369.3038,358.2563,367.83,339.34" style="stroke:#181818;stroke-width:1.0;"/></g><!--link Pawn to Player--><g id="link_Pawn_Player"><path codeLine="50" d="M198.22,119 C209.71,119 203.2,119 214.69,119 " fill="none" id="Pawn-Player" style="stroke:#181818;stroke-width:1.0;"/><polygon fill="#181818" points="192.22,119,201.22,123,197.22,119,201.22,115,192.22,119" style="stroke:#181818;stroke-width:1.0;"/><polygon fill="#181818" points="226.69,119,220.69,115,214.69,119,220.69,123,226.69,119" style="stroke:#181818;stroke-width:1.0;"/></g><!--link Player to Action--><g id="link_Player_Action"><path codeLine="51" d="M378,196.13 C378,216.66 378,232.08 378,249.83 " fill="none" id="Player-to-Action" style="stroke:#181818;stroke-width:1.0;stroke-dasharray:7.0,7.0;"/><polygon fill="#181818" points="378,255.83,382,246.83,378,250.83,374,246.83,378,255.83" style="stroke:#181818;stroke-width:1.0;"/></g><!--link Location to World--><g id="link_Location_World"><path codeLine="60" d="M108,336.57 C108,360.47 108,374.53 108,395.94 " fill="none" id="Location-World" style="stroke:#181818;stroke-width:1.0;"/><polygon fill="#181818" points="108,330.57,104,339.57,108,335.57,112,339.57,108,330.57" style="stroke:#181818;stroke-width:1.0;"/><polygon fill="#181818" points="108,407.94,112,401.94,108,395.94,104,401.94,108,407.94" style="stroke:#181818;stroke-width:1.0;"/></g><!--link Pawn to Location--><g id="link_Pawn_Location"><path codeLine="61" d="M107.33,178.28 C107.49,206.9 107.645,234.2901 107.785,258.2701 " fill="none" id="Pawn-to-Location" style="stroke:#181818;stroke-width:1.0;"/><polygon fill="#181818" points="107.82,264.27,111.7674,255.2468,107.7908,259.2701,103.7675,255.2935,107.82,264.27" style="stroke:#181818;stroke-width:1.0;"/></g><!--SRC=[dLJVQzim47xFNt6aBqaXxWQ3WPgPRTrZ2uKE-Z1AaArp8YnBHb9IGfR_VPAbE5P-R30_1EdklhlllZl5r5osLDC6dhXy4DIOLyxi2Zv-_Z0QjRIiwH9XJDa6fLrh96JpYOvXDng1-wnQebsXTdU8N-bJmBVISYK7Pl_jQ66ifgNT0qDJQjxw80BEU2rkNkGjwahfPiAbiNn9hT84dWNTefxExugyH-v79noUr0OlyZXapB9iEe0VJWFSRDtEVkUnczFyBpLlVwwr_9yQ9zYqpg2RK2cq2pU2IymA9HZvGNNzNQpnld0J8ezykR8lzTPR1ZoyUFJT2VpiVXEjdCVI6XTkedAIohXht4GLwwGNggHXH8_nT3MKTjGD0S6D_HKQUJkjQL1WQHSXTd8HCYLHXLFiGT20EaGTkKV1fB88ski1geh24T8tssSCQU0BE4vLbXBhJ97TzBw7TEQKHlIYP5tXlr68-VfiNrkjN3AxxIqCgqZBJAQfAYJPhJdFR-11DUtQ5NBFxu3gpctObP9Ay5tFxtYUW3Lw7Q0CSBOOyahxYBldTcUmKv8scBxOyoKvZesXk3uuxppVfOjRCPnmV0otCu6LdUKTmQ4ZO-fTPkcZ3QsCeQS8xaBDyRex9zAulu75FzdqcU5LQS5Ytd3U3GE3wTQ_z3nLgbDuvbaxpz6r_mC0]--></g></svg>