<?xml version="1.0" encoding="us-ascii" standalone="no"?><svg xmlns="http://www.w3.org/2000/svg" xmlns:xlink="http://www.w3.org/1999/xlink" contentStyleType="text/css" height="338px" preserveAspectRatio="none" style="width:268px;height:338px;background:#FFFFFF;" version="1.1" viewBox="0 0 268 338" width="268px" zoomAndPan="magnify"><defs/><g><rect fill="none" height="79.0547" style="stroke:#000000;stroke-width:1.5;" width="252" x="10" y="160.3125"/><line style="stroke:#181818;stroke-width:0.5;stroke-dasharray:5.0,5.0;" x1="43" x2="43" y1="82.6094" y2="256.3672"/><line style="stroke:#181818;stroke-width:0.5;stroke-dasharray:5.0,5.0;" x1="222" x2="222" y1="82.6094" y2="256.3672"/><text fill="#000000" font-family="sans-serif" font-size="14" lengthAdjust="spacing" textLength="40" x="20" y="79.5332">Player</text><ellipse cx="43" cy="13.5" fill="#E2E2F0" rx="8" ry="8" style="stroke:#181818;stroke-width:0.5;"/><path d="M43,21.5 L43,48.5 M30,29.5 L56,29.5 M43,48.5 L30,63.5 M43,48.5 L56,63.5 " fill="none" style="stroke:#181818;stroke-width:0.5;"/><text fill="#000000" font-family="sans-serif" font-size="14" lengthAdjust="spacing" textLength="40" x="20" y="269.9004">Player</text><ellipse cx="43" cy="281.4766" fill="#E2E2F0" rx="8" ry="8" style="stroke:#181818;stroke-width:0.5;"/><path d="M43,289.4766 L43,316.4766 M30,297.4766 L56,297.4766 M43,316.4766 L30,331.4766 M43,316.4766 L56,331.4766 " fill="none" style="stroke:#181818;stroke-width:0.5;"/><rect fill="#E2E2F0" height="31.6094" rx="2.5" ry="2.5" style="stroke:#181818;stroke-width:0.5;" width="60" x="192" y="50"/><text fill="#000000" font-family="sans-serif" font-size="14" lengthAdjust="spacing" textLength="46" x="199" y="71.5332">System</text><rect fill="#E2E2F0" height="31.6094" rx="2.5" ry="2.5" style="stroke:#181818;stroke-width:0.5;" width="60" x="192" y="255.3672"/><text fill="#000000" font-family="sans-serif" font-size="14" lengthAdjust="spacing" textLength="46" x="199" y="276.9004">System</text><polygon fill="#181818" points="210,110.9609,220,114.9609,210,118.9609,214,114.9609" style="stroke:#181818;stroke-width:1.0;"/><line style="stroke:#181818;stroke-width:1.0;" x1="43" x2="216" y1="114.9609" y2="114.9609"/><text fill="#000000" font-family="sans-serif" font-size="13" lengthAdjust="spacing" textLength="155" x="50" y="110.1045">initialize(numberOfPlayers)</text><polygon fill="#181818" points="210,141.3125,220,145.3125,210,149.3125,214,145.3125" style="stroke:#181818;stroke-width:1.0;"/><line style="stroke:#181818;stroke-width:1.0;" x1="43" x2="216" y1="145.3125" y2="145.3125"/><text fill="#000000" font-family="sans-serif" font-size="13" lengthAdjust="spacing" textLength="67" x="50" y="140.4561">playGame()</text><path d="M10,160.3125 L83,160.3125 L83,168.6641 L73,178.6641 L10,178.6641 L10,160.3125 " fill="#EEEEEE" style="stroke:#000000;stroke-width:1.5;"/><rect fill="none" height="79.0547" style="stroke:#000000;stroke-width:1.5;" width="252" x="10" y="160.3125"/><text fill="#000000" font-family="sans-serif" font-size="13" font-weight="bold" lengthAdjust="spacing" textLength="28" x="25" y="174.8076">loop</text><text fill="#000000" font-family="sans-serif" font-size="11" font-weight="bold" lengthAdjust="spacing" textLength="84" x="98" y="173.7314">[alive, not won]</text><polygon fill="#181818" points="210,197.0156,220,201.0156,210,205.0156,214,201.0156" style="stroke:#181818;stroke-width:1.0;"/><line style="stroke:#181818;stroke-width:1.0;" x1="43" x2="216" y1="201.0156" y2="201.0156"/><text fill="#000000" font-family="sans-serif" font-size="13" lengthAdjust="spacing" textLength="128" x="50" y="196.1592">perform_action(action)</text><polygon fill="#181818" points="54,227.3672,44,231.3672,54,235.3672,50,231.3672" style="stroke:#181818;stroke-width:1.0;"/><line style="stroke:#181818;stroke-width:1.0;stroke-dasharray:2.0,2.0;" x1="48" x2="221" y1="231.3672" y2="231.3672"/><text fill="#000000" font-family="sans-serif" font-size="13" lengthAdjust="spacing" textLength="95" x="60" y="226.5107">location, objects</text><!--SRC=[RSj12i8m40NGVKunomIQ2qXnwrB10yWqJY6Ip9HaLDhJ6yb25_sR3v_tCQWKk2HSgPXUu8zmNQjIXWD4ZXennOqiF_D4vJntLTqUNzfqmapMcIIoG7k-Q00MXRUmWPQz5vLPIhvXq2XiUxb_FNh_uqa2ViK0CZqeQ3N4zmy0]--></g></svg>