<?xml version="1.0" encoding="us-ascii" standalone="no"?><svg xmlns="http://www.w3.org/2000/svg" xmlns:xlink="http://www.w3.org/1999/xlink" contentStyleType="text/css" height="280px" preserveAspectRatio="none" style="width:443px;height:280px;background:#FFFFFF;" version="1.1" viewBox="0 0 443 280" width="443px" zoomAndPan="magnify"><defs/><g><!--class Game--><g id="elem_Game"><rect codeLine="3" fill="#F1F1F1" height="48" id="Game" rx="2.5" ry="2.5" style="stroke:#181818;stroke-width:0.5;" width="120" x="7" y="7"/><ellipse cx="44.5" cy="23" fill="#ADD1B2" rx="11" ry="11" style="stroke:#181818;stroke-width:1.0;"/><path d="M47.2656,18.875 Q47.4219,18.6563 47.6094,18.5469 Q47.7969,18.4375 48.0156,18.4375 Q48.3906,18.4375 48.625,18.7031 Q48.8594,18.9531 48.8594,19.5625 L48.8594,21.0156 Q48.8594,21.625 48.625,21.8906 Q48.3906,22.1563 48.0156,22.1563 Q47.6719,22.1563 47.4688,21.9531 Q47.2656,21.7656 47.1563,21.25 Q47.1094,20.8906 46.9219,20.7031 Q46.5938,20.3281 45.9844,20.1094 Q45.375,19.8906 44.75,19.8906 Q43.9844,19.8906 43.3438,20.2188 Q42.7188,20.5469 42.2188,21.2969 Q41.7344,22.0469 41.7344,23.0781 L41.7344,24.1719 Q41.7344,25.4063 42.625,26.2344 Q43.5156,27.0469 45.1094,27.0469 Q46.0469,27.0469 46.7031,26.7969 Q47.0938,26.6406 47.5156,26.2031 Q47.7813,25.9375 47.9219,25.8594 Q48.0781,25.7813 48.2813,25.7813 Q48.6094,25.7813 48.8594,26.0469 Q49.125,26.2969 49.125,26.6406 Q49.125,26.9844 48.7813,27.3906 Q48.2813,27.9688 47.4844,28.2969 Q46.4063,28.75 45.1094,28.75 Q43.5938,28.75 42.3906,28.125 Q41.4063,27.625 40.7188,26.5625 Q40.0313,25.4844 40.0313,24.2031 L40.0313,23.0469 Q40.0313,21.7188 40.6406,20.5781 Q41.2656,19.4219 42.3594,18.8125 Q43.4531,18.1875 44.6875,18.1875 Q45.4219,18.1875 46.0625,18.3594 Q46.7188,18.5156 47.2656,18.875 Z " fill="#000000"/><text fill="#000000" font-family="sans-serif" font-size="14" lengthAdjust="spacing" textLength="38" x="63.5" y="28.7285">Game</text><line style="stroke:#181818;stroke-width:0.5;" x1="8" x2="126" y1="39" y2="39"/><line style="stroke:#181818;stroke-width:0.5;" x1="8" x2="126" y1="47" y2="47"/></g><!--class Player--><g id="elem_Player"><rect codeLine="4" fill="#F1F1F1" height="48" id="Player" rx="2.5" ry="2.5" style="stroke:#181818;stroke-width:0.5;" width="120" x="162" y="7"/><ellipse cx="198.6" cy="23" fill="#ADD1B2" rx="11" ry="11" style="stroke:#181818;stroke-width:1.0;"/><path d="M201.3656,18.875 Q201.5219,18.6563 201.7094,18.5469 Q201.8969,18.4375 202.1156,18.4375 Q202.4906,18.4375 202.725,18.7031 Q202.9594,18.9531 202.9594,19.5625 L202.9594,21.0156 Q202.9594,21.625 202.725,21.8906 Q202.4906,22.1563 202.1156,22.1563 Q201.7719,22.1563 201.5688,21.9531 Q201.3656,21.7656 201.2563,21.25 Q201.2094,20.8906 201.0219,20.7031 Q200.6938,20.3281 200.0844,20.1094 Q199.475,19.8906 198.85,19.8906 Q198.0844,19.8906 197.4438,20.2188 Q196.8188,20.5469 196.3188,21.2969 Q195.8344,22.0469 195.8344,23.0781 L195.8344,24.1719 Q195.8344,25.4063 196.725,26.2344 Q197.6156,27.0469 199.2094,27.0469 Q200.1469,27.0469 200.8031,26.7969 Q201.1938,26.6406 201.6156,26.2031 Q201.8813,25.9375 202.0219,25.8594 Q202.1781,25.7813 202.3813,25.7813 Q202.7094,25.7813 202.9594,26.0469 Q203.225,26.2969 203.225,26.6406 Q203.225,26.9844 202.8813,27.3906 Q202.3813,27.9688 201.5844,28.2969 Q200.5063,28.75 199.2094,28.75 Q197.6938,28.75 196.4906,28.125 Q195.5063,27.625 194.8188,26.5625 Q194.1313,25.4844 194.1313,24.2031 L194.1313,23.0469 Q194.1313,21.7188 194.7406,20.5781 Q195.3656,19.4219 196.4594,18.8125 Q197.5531,18.1875 198.7875,18.1875 Q199.5219,18.1875 200.1625,18.3594 Q200.8188,18.5156 201.3656,18.875 Z " fill="#000000"/><text fill="#000000" font-family="sans-serif" font-size="14" lengthAdjust="spacing" textLength="40" x="217.4" y="28.7285">Player</text><line style="stroke:#181818;stroke-width:0.5;" x1="163" x2="281" y1="39" y2="39"/><line style="stroke:#181818;stroke-width:0.5;" x1="163" x2="281" y1="47" y2="47"/></g><!--class World--><g id="elem_World"><rect codeLine="5" fill="#F1F1F1" height="48" id="World" rx="2.5" ry="2.5" style="stroke:#181818;stroke-width:0.5;" width="120" x="46" y="116"/><ellipse cx="83.95" cy="132" fill="#ADD1B2" rx="11" ry="11" style="stroke:#181818;stroke-width:1.0;"/><path d="M86.7156,127.875 Q86.8719,127.6563 87.0594,127.5469 Q87.2469,127.4375 87.4656,127.4375 Q87.8406,127.4375 88.075,127.7031 Q88.3094,127.9531 88.3094,128.5625 L88.3094,130.0156 Q88.3094,130.625 88.075,130.8906 Q87.8406,131.1563 87.4656,131.1563 Q87.1219,131.1563 86.9188,130.9531 Q86.7156,130.7656 86.6063,130.25 Q86.5594,129.8906 86.3719,129.7031 Q86.0438,129.3281 85.4344,129.1094 Q84.825,128.8906 84.2,128.8906 Q83.4344,128.8906 82.7938,129.2188 Q82.1688,129.5469 81.6688,130.2969 Q81.1844,131.0469 81.1844,132.0781 L81.1844,133.1719 Q81.1844,134.4063 82.075,135.2344 Q82.9656,136.0469 84.5594,136.0469 Q85.4969,136.0469 86.1531,135.7969 Q86.5438,135.6406 86.9656,135.2031 Q87.2313,134.9375 87.3719,134.8594 Q87.5281,134.7813 87.7313,134.7813 Q88.0594,134.7813 88.3094,135.0469 Q88.575,135.2969 88.575,135.6406 Q88.575,135.9844 88.2313,136.3906 Q87.7313,136.9688 86.9344,137.2969 Q85.8563,137.75 84.5594,137.75 Q83.0438,137.75 81.8406,137.125 Q80.8563,136.625 80.1688,135.5625 Q79.4813,134.4844 79.4813,133.2031 L79.4813,132.0469 Q79.4813,130.7188 80.0906,129.5781 Q80.7156,128.4219 81.8094,127.8125 Q82.9031,127.1875 84.1375,127.1875 Q84.8719,127.1875 85.5125,127.3594 Q86.1688,127.5156 86.7156,127.875 Z " fill="#000000"/><text fill="#000000" font-family="sans-serif" font-size="14" lengthAdjust="spacing" textLength="37" x="103.05" y="137.7285">World</text><line style="stroke:#181818;stroke-width:0.5;" x1="47" x2="165" y1="148" y2="148"/><line style="stroke:#181818;stroke-width:0.5;" x1="47" x2="165" y1="156" y2="156"/></g><!--class Pawn--><g id="elem_Pawn"><rect codeLine="6" fill="#F1F1F1" height="48" id="Pawn" rx="2.5" ry="2.5" style="stroke:#181818;stroke-width:0.5;" width="120" x="317" y="7"/><ellipse cx="356.3" cy="23" fill="#ADD1B2" rx="11" ry="11" style="stroke:#181818;stroke-width:1.0;"/><path d="M359.0656,18.875 Q359.2219,18.6563 359.4094,18.5469 Q359.5969,18.4375 359.8156,18.4375 Q360.1906,18.4375 360.425,18.7031 Q360.6594,18.9531 360.6594,19.5625 L360.6594,21.0156 Q360.6594,21.625 360.425,21.8906 Q360.1906,22.1563 359.8156,22.1563 Q359.4719,22.1563 359.2688,21.9531 Q359.0656,21.7656 358.9563,21.25 Q358.9094,20.8906 358.7219,20.7031 Q358.3938,20.3281 357.7844,20.1094 Q357.175,19.8906 356.55,19.8906 Q355.7844,19.8906 355.1438,20.2188 Q354.5188,20.5469 354.0188,21.2969 Q353.5344,22.0469 353.5344,23.0781 L353.5344,24.1719 Q353.5344,25.4063 354.425,26.2344 Q355.3156,27.0469 356.9094,27.0469 Q357.8469,27.0469 358.5031,26.7969 Q358.8938,26.6406 359.3156,26.2031 Q359.5813,25.9375 359.7219,25.8594 Q359.8781,25.7813 360.0813,25.7813 Q360.4094,25.7813 360.6594,26.0469 Q360.925,26.2969 360.925,26.6406 Q360.925,26.9844 360.5813,27.3906 Q360.0813,27.9688 359.2844,28.2969 Q358.2063,28.75 356.9094,28.75 Q355.3938,28.75 354.1906,28.125 Q353.2063,27.625 352.5188,26.5625 Q351.8313,25.4844 351.8313,24.2031 L351.8313,23.0469 Q351.8313,21.7188 352.4406,20.5781 Q353.0656,19.4219 354.1594,18.8125 Q355.2531,18.1875 356.4875,18.1875 Q357.2219,18.1875 357.8625,18.3594 Q358.5188,18.5156 359.0656,18.875 Z " fill="#000000"/><text fill="#000000" font-family="sans-serif" font-size="14" lengthAdjust="spacing" textLength="34" x="375.7" y="28.7285">Pawn</text><line style="stroke:#181818;stroke-width:0.5;" x1="318" x2="436" y1="39" y2="39"/><line style="stroke:#181818;stroke-width:0.5;" x1="318" x2="436" y1="47" y2="47"/></g><!--class Location--><g id="elem_Location"><rect codeLine="7" fill="#F1F1F1" height="48" id="Location" rx="2.5" ry="2.5" style="stroke:#181818;stroke-width:0.5;" width="120" x="310" y="116"/><ellipse cx="340.3" cy="132" fill="#ADD1B2" rx="11" ry="11" style="stroke:#181818;stroke-width:1.0;"/><path d="M343.0656,127.875 Q343.2219,127.6563 343.4094,127.5469 Q343.5969,127.4375 343.8156,127.4375 Q344.1906,127.4375 344.425,127.7031 Q344.6594,127.9531 344.6594,128.5625 L344.6594,130.0156 Q344.6594,130.625 344.425,130.8906 Q344.1906,131.1563 343.8156,131.1563 Q343.4719,131.1563 343.2688,130.9531 Q343.0656,130.7656 342.9563,130.25 Q342.9094,129.8906 342.7219,129.7031 Q342.3938,129.3281 341.7844,129.1094 Q341.175,128.8906 340.55,128.8906 Q339.7844,128.8906 339.1438,129.2188 Q338.5188,129.5469 338.0188,130.2969 Q337.5344,131.0469 337.5344,132.0781 L337.5344,133.1719 Q337.5344,134.4063 338.425,135.2344 Q339.3156,136.0469 340.9094,136.0469 Q341.8469,136.0469 342.5031,135.7969 Q342.8938,135.6406 343.3156,135.2031 Q343.5813,134.9375 343.7219,134.8594 Q343.8781,134.7813 344.0813,134.7813 Q344.4094,134.7813 344.6594,135.0469 Q344.925,135.2969 344.925,135.6406 Q344.925,135.9844 344.5813,136.3906 Q344.0813,136.9688 343.2844,137.2969 Q342.2063,137.75 340.9094,137.75 Q339.3938,137.75 338.1906,137.125 Q337.2063,136.625 336.5188,135.5625 Q335.8313,134.4844 335.8313,133.2031 L335.8313,132.0469 Q335.8313,130.7188 336.4406,129.5781 Q337.0656,128.4219 338.1594,127.8125 Q339.2531,127.1875 340.4875,127.1875 Q341.2219,127.1875 341.8625,127.3594 Q342.5188,127.5156 343.0656,127.875 Z " fill="#000000"/><text fill="#000000" font-family="sans-serif" font-size="14" lengthAdjust="spacing" textLength="54" x="357.7" y="137.7285">Location</text><line style="stroke:#181818;stroke-width:0.5;" x1="311" x2="429" y1="148" y2="148"/><line style="stroke:#181818;stroke-width:0.5;" x1="311" x2="429" y1="156" y2="156"/></g><!--class Object--><g id="elem_Object"><rect codeLine="8" fill="#F1F1F1" height="48" id="Object" rx="2.5" ry="2.5" style="stroke:#181818;stroke-width:0.5;" width="120" x="310" y="225"/><ellipse cx="346.15" cy="241" fill="#ADD1B2" rx="11" ry="11" style="stroke:#181818;stroke-width:1.0;"/><path d="M348.9156,236.875 Q349.0719,236.6563 349.2594,236.5469 Q349.4469,236.4375 349.6656,236.4375 Q350.0406,236.4375 350.275,236.7031 Q350.5094,236.9531 350.5094,237.5625 L350.5094,239.0156 Q350.5094,239.625 350.275,239.8906 Q350.0406,240.1563 349.6656,240.1563 Q349.3219,240.1563 349.1188,239.9531 Q348.9156,239.7656 348.8063,239.25 Q348.7594,238.8906 348.5719,238.7031 Q348.2438,238.3281 347.6344,238.1094 Q347.025,237.8906 346.4,237.8906 Q345.6344,237.8906 344.9938,238.2188 Q344.3688,238.5469 343.8688,239.2969 Q343.3844,240.0469 343.3844,241.0781 L343.3844,242.1719 Q343.3844,243.4063 344.275,244.2344 Q345.1656,245.0469 346.7594,245.0469 Q347.6969,245.0469 348.3531,244.7969 Q348.7438,244.6406 349.1656,244.2031 Q349.4313,243.9375 349.5719,243.8594 Q349.7281,243.7813 349.9313,243.7813 Q350.2594,243.7813 350.5094,244.0469 Q350.775,244.2969 350.775,244.6406 Q350.775,244.9844 350.4313,245.3906 Q349.9313,245.9688 349.1344,246.2969 Q348.0563,246.75 346.7594,246.75 Q345.2438,246.75 344.0406,246.125 Q343.0563,245.625 342.3688,244.5625 Q341.6813,243.4844 341.6813,242.2031 L341.6813,241.0469 Q341.6813,239.7188 342.2906,238.5781 Q342.9156,237.4219 344.0094,236.8125 Q345.1031,236.1875 346.3375,236.1875 Q347.0719,236.1875 347.7125,236.3594 Q348.3688,236.5156 348.9156,236.875 Z " fill="#000000"/><text fill="#000000" font-family="sans-serif" font-size="14" lengthAdjust="spacing" textLength="41" x="364.85" y="246.7285">Object</text><line style="stroke:#181818;stroke-width:0.5;" x1="311" x2="429" y1="257" y2="257"/><line style="stroke:#181818;stroke-width:0.5;" x1="311" x2="429" y1="265" y2="265"/></g><!--link Game to Player--><g id="link_Game_Player"><path codeLine="10" d="M127.24,31 C138.72,31 150.19,31 161.67,31 " fill="none" id="Game-Player" style="stroke:#181818;stroke-width:1.0;"/></g><!--link Player to Pawn--><g id="link_Player_Pawn"><path codeLine="11" d="M282.24,31 C293.72,31 305.19,31 316.67,31 " fill="none" id="Player-Pawn" style="stroke:#181818;stroke-width:1.0;"/></g><!--link Game to World--><g id="link_Game_World"><path codeLine="12" d="M75.46,55.22 C82,73.16 91.02,97.89 97.55,115.83 " fill="none" id="Game-World" style="stroke:#181818;stroke-width:1.0;"/></g><!--link World to Location--><g id="link_World_Location"><path codeLine="13" d="M166.24,140 C209.15,140 266.61,140 309.57,140 " fill="none" id="World-Location" style="stroke:#181818;stroke-width:1.0;"/><text fill="#000000" font-family="sans-serif" font-size="13" lengthAdjust="spacing" textLength="100" x="188" y="133.4951">&#160;&#160;&#160;&#160;&#160;&#160;&#160;&#160;&#160;&#160;&#160;&#160;&#160;&#160;&#160;&#160;&#160;&#160;&#160;&#160;&#160;&#160;&#160;&#160;&#160;</text></g><!--link Pawn to Location--><g id="link_Pawn_Location"><path codeLine="14" d="M375.48,55.22 C374.31,73.16 372.69,97.89 371.52,115.83 " fill="none" id="Pawn-Location" style="stroke:#181818;stroke-width:1.0;"/></g><!--link Location to Object--><g id="link_Location_Object"><path codeLine="15" d="M370,164.22 C370,182.16 370,206.89 370,224.83 " fill="none" id="Location-Object" style="stroke:#181818;stroke-width:1.0;"/></g><!--SRC=[AyxEp2j8B4hCLV3Dp7FEIImk3izCASbGC3GouE9A1l4Lt1DpKw7CW9p4ojGYA2SyloWd1IQHM9u7PVha9oUMPER3kFv9MQd99LnS85CK57GLO6P0A8W8I3DKFYM_F0ye134RJ8ALm0nLi59GKi05bBX09i7CWBi3hXSg0N4H0000]--></g></svg>