<?xml version="1.0" encoding="us-ascii" standalone="no"?><svg xmlns="http://www.w3.org/2000/svg" xmlns:xlink="http://www.w3.org/1999/xlink" contentStyleType="text/css" height="240px" preserveAspectRatio="none" style="width:403px;height:240px;background:#FFFFFF;" version="1.1" viewBox="0 0 403 240" width="403px" zoomAndPan="magnify"><defs/><g><!--class Book--><g id="elem_Book"><rect codeLine="2" fill="#F1F1F1" height="100.8281" id="Book" rx="2.5" ry="2.5" style="stroke:#181818;stroke-width:0.5;" width="91" x="156.5" y="7"/><ellipse cx="183.65" cy="23" fill="#ADD1B2" rx="11" ry="11" style="stroke:#181818;stroke-width:1.0;"/><path d="M186.4156,18.875 Q186.5719,18.6563 186.7594,18.5469 Q186.9469,18.4375 187.1656,18.4375 Q187.5406,18.4375 187.775,18.7031 Q188.0094,18.9531 188.0094,19.5625 L188.0094,21.0156 Q188.0094,21.625 187.775,21.8906 Q187.5406,22.1563 187.1656,22.1563 Q186.8219,22.1563 186.6188,21.9531 Q186.4156,21.7656 186.3063,21.25 Q186.2594,20.8906 186.0719,20.7031 Q185.7438,20.3281 185.1344,20.1094 Q184.525,19.8906 183.9,19.8906 Q183.1344,19.8906 182.4938,20.2188 Q181.8688,20.5469 181.3688,21.2969 Q180.8844,22.0469 180.8844,23.0781 L180.8844,24.1719 Q180.8844,25.4063 181.775,26.2344 Q182.6656,27.0469 184.2594,27.0469 Q185.1969,27.0469 185.8531,26.7969 Q186.2438,26.6406 186.6656,26.2031 Q186.9313,25.9375 187.0719,25.8594 Q187.2281,25.7813 187.4313,25.7813 Q187.7594,25.7813 188.0094,26.0469 Q188.275,26.2969 188.275,26.6406 Q188.275,26.9844 187.9313,27.3906 Q187.4313,27.9688 186.6344,28.2969 Q185.5563,28.75 184.2594,28.75 Q182.7438,28.75 181.5406,28.125 Q180.5563,27.625 179.8688,26.5625 Q179.1813,25.4844 179.1813,24.2031 L179.1813,23.0469 Q179.1813,21.7188 179.7906,20.5781 Q180.4156,19.4219 181.5094,18.8125 Q182.6031,18.1875 183.8375,18.1875 Q184.5719,18.1875 185.2125,18.3594 Q185.8688,18.5156 186.4156,18.875 Z " fill="#000000"/><text fill="#000000" font-family="sans-serif" font-size="14" lengthAdjust="spacing" textLength="32" x="200.35" y="28.7285">Book</text><line style="stroke:#181818;stroke-width:0.5;" x1="157.5" x2="246.5" y1="39" y2="39"/><ellipse cx="167.5" cy="53.3047" fill="none" rx="3" ry="3" style="stroke:#038048;stroke-width:1.0;"/><text fill="#000000" font-family="sans-serif" font-size="14" lengthAdjust="spacing" textLength="46" x="176.5" y="57.5332">title: str</text><ellipse cx="167.5" cy="70.9141" fill="none" rx="3" ry="3" style="stroke:#038048;stroke-width:1.0;"/><text fill="#000000" font-family="sans-serif" font-size="14" lengthAdjust="spacing" textLength="65" x="176.5" y="75.1426">author: str</text><ellipse cx="167.5" cy="88.5234" fill="none" rx="3" ry="3" style="stroke:#038048;stroke-width:1.0;"/><text fill="#000000" font-family="sans-serif" font-size="14" lengthAdjust="spacing" textLength="62" x="176.5" y="92.752">pages: int</text><line style="stroke:#181818;stroke-width:0.5;" x1="157.5" x2="246.5" y1="99.8281" y2="99.8281"/></g><!--class BookDatabase--><g id="elem_BookDatabase"><rect codeLine="8" fill="#F1F1F1" height="65.6094" id="BookDatabase" rx="2.5" ry="2.5" style="stroke:#181818;stroke-width:0.5;" width="178" x="7" y="168"/><ellipse cx="45.85" cy="184" fill="#ADD1B2" rx="11" ry="11" style="stroke:#181818;stroke-width:1.0;"/><path d="M48.6156,179.875 Q48.7719,179.6563 48.9594,179.5469 Q49.1469,179.4375 49.3656,179.4375 Q49.7406,179.4375 49.975,179.7031 Q50.2094,179.9531 50.2094,180.5625 L50.2094,182.0156 Q50.2094,182.625 49.975,182.8906 Q49.7406,183.1563 49.3656,183.1563 Q49.0219,183.1563 48.8188,182.9531 Q48.6156,182.7656 48.5063,182.25 Q48.4594,181.8906 48.2719,181.7031 Q47.9438,181.3281 47.3344,181.1094 Q46.725,180.8906 46.1,180.8906 Q45.3344,180.8906 44.6938,181.2188 Q44.0688,181.5469 43.5688,182.2969 Q43.0844,183.0469 43.0844,184.0781 L43.0844,185.1719 Q43.0844,186.4063 43.975,187.2344 Q44.8656,188.0469 46.4594,188.0469 Q47.3969,188.0469 48.0531,187.7969 Q48.4438,187.6406 48.8656,187.2031 Q49.1313,186.9375 49.2719,186.8594 Q49.4281,186.7813 49.6313,186.7813 Q49.9594,186.7813 50.2094,187.0469 Q50.475,187.2969 50.475,187.6406 Q50.475,187.9844 50.1313,188.3906 Q49.6313,188.9688 48.8344,189.2969 Q47.7563,189.75 46.4594,189.75 Q44.9438,189.75 43.7406,189.125 Q42.7563,188.625 42.0688,187.5625 Q41.3813,186.4844 41.3813,185.2031 L41.3813,184.0469 Q41.3813,182.7188 41.9906,181.5781 Q42.6156,180.4219 43.7094,179.8125 Q44.8031,179.1875 46.0375,179.1875 Q46.7719,179.1875 47.4125,179.3594 Q48.0688,179.5156 48.6156,179.875 Z " fill="#000000"/><text fill="#000000" font-family="sans-serif" font-size="14" lengthAdjust="spacing" textLength="93" x="65.15" y="189.7285">BookDatabase</text><line style="stroke:#181818;stroke-width:0.5;" x1="8" x2="184" y1="200" y2="200"/><line style="stroke:#181818;stroke-width:0.5;" x1="8" x2="184" y1="208" y2="208"/><ellipse cx="18" cy="222.3047" fill="#84BE84" rx="3" ry="3" style="stroke:#038048;stroke-width:1.0;"/><text fill="#000000" font-family="sans-serif" font-size="14" lengthAdjust="spacing" textLength="152" x="27" y="226.5332">save(book: Book): None</text></g><!--class BookPrinter--><g id="elem_BookPrinter"><rect codeLine="12" fill="#F1F1F1" height="65.6094" id="BookPrinter" rx="2.5" ry="2.5" style="stroke:#181818;stroke-width:0.5;" width="176" x="220" y="168"/><ellipse cx="266.75" cy="184" fill="#ADD1B2" rx="11" ry="11" style="stroke:#181818;stroke-width:1.0;"/><path d="M269.5156,179.875 Q269.6719,179.6563 269.8594,179.5469 Q270.0469,179.4375 270.2656,179.4375 Q270.6406,179.4375 270.875,179.7031 Q271.1094,179.9531 271.1094,180.5625 L271.1094,182.0156 Q271.1094,182.625 270.875,182.8906 Q270.6406,183.1563 270.2656,183.1563 Q269.9219,183.1563 269.7188,182.9531 Q269.5156,182.7656 269.4063,182.25 Q269.3594,181.8906 269.1719,181.7031 Q268.8438,181.3281 268.2344,181.1094 Q267.625,180.8906 267,180.8906 Q266.2344,180.8906 265.5938,181.2188 Q264.9688,181.5469 264.4688,182.2969 Q263.9844,183.0469 263.9844,184.0781 L263.9844,185.1719 Q263.9844,186.4063 264.875,187.2344 Q265.7656,188.0469 267.3594,188.0469 Q268.2969,188.0469 268.9531,187.7969 Q269.3438,187.6406 269.7656,187.2031 Q270.0313,186.9375 270.1719,186.8594 Q270.3281,186.7813 270.5313,186.7813 Q270.8594,186.7813 271.1094,187.0469 Q271.375,187.2969 271.375,187.6406 Q271.375,187.9844 271.0313,188.3906 Q270.5313,188.9688 269.7344,189.2969 Q268.6563,189.75 267.3594,189.75 Q265.8438,189.75 264.6406,189.125 Q263.6563,188.625 262.9688,187.5625 Q262.2813,186.4844 262.2813,185.2031 L262.2813,184.0469 Q262.2813,182.7188 262.8906,181.5781 Q263.5156,180.4219 264.6094,179.8125 Q265.7031,179.1875 266.9375,179.1875 Q267.6719,179.1875 268.3125,179.3594 Q268.9688,179.5156 269.5156,179.875 Z " fill="#000000"/><text fill="#000000" font-family="sans-serif" font-size="14" lengthAdjust="spacing" textLength="74" x="287.25" y="189.7285">BookPrinter</text><line style="stroke:#181818;stroke-width:0.5;" x1="221" x2="395" y1="200" y2="200"/><line style="stroke:#181818;stroke-width:0.5;" x1="221" x2="395" y1="208" y2="208"/><ellipse cx="231" cy="222.3047" fill="#84BE84" rx="3" ry="3" style="stroke:#038048;stroke-width:1.0;"/><text fill="#000000" font-family="sans-serif" font-size="14" lengthAdjust="spacing" textLength="150" x="240" y="226.5332">print(book: Book): None</text></g><!--reverse link Book to BookDatabase--><g id="link_Book_BookDatabase"><path codeLine="16" d="M161.0327,113.192 C146.2527,132.922 133.28,150.23 120.13,167.79 " fill="none" id="Book-backto-BookDatabase" style="stroke:#181818;stroke-width:1.0;stroke-dasharray:7.0,7.0;"/><polygon fill="#181818" points="164.63,108.39,156.0327,113.1949,161.6323,112.3917,162.4355,117.9912,164.63,108.39" style="stroke:#181818;stroke-width:1.0;"/></g><!--reverse link Book to BookPrinter--><g id="link_Book_BookPrinter"><path codeLine="17" d="M242.9673,113.192 C257.7473,132.922 270.72,150.23 283.87,167.79 " fill="none" id="Book-backto-BookPrinter" style="stroke:#181818;stroke-width:1.0;stroke-dasharray:7.0,7.0;"/><polygon fill="#181818" points="239.37,108.39,241.5645,117.9912,242.3677,112.3917,247.9673,113.1949,239.37,108.39" style="stroke:#181818;stroke-width:1.0;"/></g><!--SRC=[Iyv9B2vMSChFprQevb800ksIp9ASL2k5uf8Y23-nj2GZlmX9e20nFRNOIY4phuIhbeih6Mw0Is99Ob9YSIhCeEB4ibID9A245LXQqqh1Bpyl5LLFG17GcDGYc9O241Ux7h0JRVJqKAn25OKQnWK0]--></g></svg>