<?xml version="1.0" encoding="us-ascii" standalone="no"?><svg xmlns="http://www.w3.org/2000/svg" xmlns:xlink="http://www.w3.org/1999/xlink" contentStyleType="text/css" height="366px" preserveAspectRatio="none" style="width:403px;height:366px;background:#FFFFFF;" version="1.1" viewBox="0 0 403 366" width="403px" zoomAndPan="magnify"><defs/><g><!--class Book--><g id="elem_Book"><rect codeLine="2" fill="#F1F1F1" height="100.8281" id="Book" rx="2.5" ry="2.5" style="stroke:#181818;stroke-width:0.5;" width="91" x="156.5" y="7"/><ellipse cx="183.65" cy="23" fill="#ADD1B2" rx="11" ry="11" style="stroke:#181818;stroke-width:1.0;"/><path d="M186.4156,18.875 Q186.5719,18.6563 186.7594,18.5469 Q186.9469,18.4375 187.1656,18.4375 Q187.5406,18.4375 187.775,18.7031 Q188.0094,18.9531 188.0094,19.5625 L188.0094,21.0156 Q188.0094,21.625 187.775,21.8906 Q187.5406,22.1563 187.1656,22.1563 Q186.8219,22.1563 186.6188,21.9531 Q186.4156,21.7656 186.3063,21.25 Q186.2594,20.8906 186.0719,20.7031 Q185.7438,20.3281 185.1344,20.1094 Q184.525,19.8906 183.9,19.8906 Q183.1344,19.8906 182.4938,20.2188 Q181.8688,20.5469 181.3688,21.2969 Q180.8844,22.0469 180.8844,23.0781 L180.8844,24.1719 Q180.8844,25.4063 181.775,26.2344 Q182.6656,27.0469 184.2594,27.0469 Q185.1969,27.0469 185.8531,26.7969 Q186.2438,26.6406 186.6656,26.2031 Q186.9313,25.9375 187.0719,25.8594 Q187.2281,25.7813 187.4313,25.7813 Q187.7594,25.7813 188.0094,26.0469 Q188.275,26.2969 188.275,26.6406 Q188.275,26.9844 187.9313,27.3906 Q187.4313,27.9688 186.6344,28.2969 Q185.5563,28.75 184.2594,28.75 Q182.7438,28.75 181.5406,28.125 Q180.5563,27.625 179.8688,26.5625 Q179.1813,25.4844 179.1813,24.2031 L179.1813,23.0469 Q179.1813,21.7188 179.7906,20.5781 Q180.4156,19.4219 181.5094,18.8125 Q182.6031,18.1875 183.8375,18.1875 Q184.5719,18.1875 185.2125,18.3594 Q185.8688,18.5156 186.4156,18.875 Z " fill="#000000"/><text fill="#000000" font-family="sans-serif" font-size="14" lengthAdjust="spacing" textLength="32" x="200.35" y="28.7285">Book</text><line style="stroke:#181818;stroke-width:0.5;" x1="157.5" x2="246.5" y1="39" y2="39"/><ellipse cx="167.5" cy="53.3047" fill="none" rx="3" ry="3" style="stroke:#038048;stroke-width:1.0;"/><text fill="#000000" font-family="sans-serif" font-size="14" lengthAdjust="spacing" textLength="46" x="176.5" y="57.5332">title: str</text><ellipse cx="167.5" cy="70.9141" fill="none" rx="3" ry="3" style="stroke:#038048;stroke-width:1.0;"/><text fill="#000000" font-family="sans-serif" font-size="14" lengthAdjust="spacing" textLength="65" x="176.5" y="75.1426">author: str</text><ellipse cx="167.5" cy="88.5234" fill="none" rx="3" ry="3" style="stroke:#038048;stroke-width:1.0;"/><text fill="#000000" font-family="sans-serif" font-size="14" lengthAdjust="spacing" textLength="62" x="176.5" y="92.752">pages: int</text><line style="stroke:#181818;stroke-width:0.5;" x1="157.5" x2="246.5" y1="99.8281" y2="99.8281"/></g><!--class BookDatabase--><g id="elem_BookDatabase"><rect codeLine="8" fill="#F1F1F1" height="65.6094" id="BookDatabase" rx="2.5" ry="2.5" style="stroke:#181818;stroke-width:0.5;" width="178" x="7" y="168"/><ellipse cx="45.4" cy="184" fill="#B4A7E5" rx="11" ry="11" style="stroke:#181818;stroke-width:1.0;"/><path d="M46.3531,180.6406 L46.3531,187.2969 L48.0719,187.2969 Q48.6813,187.2969 48.9469,187.5313 Q49.2125,187.7656 49.2125,188.1563 Q49.2125,188.5313 48.9469,188.7656 Q48.6813,189 48.0719,189 L42.9313,189 Q42.3219,189 42.0563,188.7656 Q41.7906,188.5313 41.7906,188.1406 Q41.7906,187.7656 42.0563,187.5313 Q42.3219,187.2969 42.9313,187.2969 L44.65,187.2969 L44.65,180.6406 L42.9313,180.6406 Q42.3219,180.6406 42.0563,180.4063 Q41.7906,180.1719 41.7906,179.7813 Q41.7906,179.4063 42.0563,179.1719 Q42.3219,178.9375 42.9313,178.9375 L48.0719,178.9375 Q48.6813,178.9375 48.9469,179.1719 Q49.2125,179.4063 49.2125,179.7813 Q49.2125,180.1719 48.9469,180.4063 Q48.6813,180.6406 48.0719,180.6406 L46.3531,180.6406 Z " fill="#000000"/><text fill="#000000" font-family="sans-serif" font-size="14" font-style="italic" lengthAdjust="spacing" textLength="94" x="64.6" y="189.7285">BookDatabase</text><line style="stroke:#181818;stroke-width:0.5;" x1="8" x2="184" y1="200" y2="200"/><line style="stroke:#181818;stroke-width:0.5;" x1="8" x2="184" y1="208" y2="208"/><ellipse cx="18" cy="222.3047" fill="#84BE84" rx="3" ry="3" style="stroke:#038048;stroke-width:1.0;"/><text fill="#000000" font-family="sans-serif" font-size="14" lengthAdjust="spacing" textLength="152" x="27" y="226.5332">save(book: Book): None</text></g><!--class SqlBookDatabase--><g id="elem_SqlBookDatabase"><rect codeLine="12" fill="#F1F1F1" height="65.6094" id="SqlBookDatabase" rx="2.5" ry="2.5" style="stroke:#181818;stroke-width:0.5;" width="178" x="7" y="294"/><ellipse cx="36.85" cy="310" fill="#ADD1B2" rx="11" ry="11" style="stroke:#181818;stroke-width:1.0;"/><path d="M39.6156,305.875 Q39.7719,305.6563 39.9594,305.5469 Q40.1469,305.4375 40.3656,305.4375 Q40.7406,305.4375 40.975,305.7031 Q41.2094,305.9531 41.2094,306.5625 L41.2094,308.0156 Q41.2094,308.625 40.975,308.8906 Q40.7406,309.1563 40.3656,309.1563 Q40.0219,309.1563 39.8188,308.9531 Q39.6156,308.7656 39.5063,308.25 Q39.4594,307.8906 39.2719,307.7031 Q38.9438,307.3281 38.3344,307.1094 Q37.725,306.8906 37.1,306.8906 Q36.3344,306.8906 35.6938,307.2188 Q35.0688,307.5469 34.5688,308.2969 Q34.0844,309.0469 34.0844,310.0781 L34.0844,311.1719 Q34.0844,312.4063 34.975,313.2344 Q35.8656,314.0469 37.4594,314.0469 Q38.3969,314.0469 39.0531,313.7969 Q39.4438,313.6406 39.8656,313.2031 Q40.1313,312.9375 40.2719,312.8594 Q40.4281,312.7813 40.6313,312.7813 Q40.9594,312.7813 41.2094,313.0469 Q41.475,313.2969 41.475,313.6406 Q41.475,313.9844 41.1313,314.3906 Q40.6313,314.9688 39.8344,315.2969 Q38.7563,315.75 37.4594,315.75 Q35.9438,315.75 34.7406,315.125 Q33.7563,314.625 33.0688,313.5625 Q32.3813,312.4844 32.3813,311.2031 L32.3813,310.0469 Q32.3813,308.7188 32.9906,307.5781 Q33.6156,306.4219 34.7094,305.8125 Q35.8031,305.1875 37.0375,305.1875 Q37.7719,305.1875 38.4125,305.3594 Q39.0688,305.5156 39.6156,305.875 Z " fill="#000000"/><text fill="#000000" font-family="sans-serif" font-size="14" lengthAdjust="spacing" textLength="113" x="54.15" y="315.7285">SqlBookDatabase</text><line style="stroke:#181818;stroke-width:0.5;" x1="8" x2="184" y1="326" y2="326"/><line style="stroke:#181818;stroke-width:0.5;" x1="8" x2="184" y1="334" y2="334"/><ellipse cx="18" cy="348.3047" fill="#84BE84" rx="3" ry="3" style="stroke:#038048;stroke-width:1.0;"/><text fill="#000000" font-family="sans-serif" font-size="14" lengthAdjust="spacing" textLength="152" x="27" y="352.5332">save(book: Book): None</text></g><!--class BookPrinter--><g id="elem_BookPrinter"><rect codeLine="18" fill="#F1F1F1" height="65.6094" id="BookPrinter" rx="2.5" ry="2.5" style="stroke:#181818;stroke-width:0.5;" width="176" x="220" y="168"/><ellipse cx="266.25" cy="184" fill="#B4A7E5" rx="11" ry="11" style="stroke:#181818;stroke-width:1.0;"/><path d="M267.2031,180.6406 L267.2031,187.2969 L268.9219,187.2969 Q269.5313,187.2969 269.7969,187.5313 Q270.0625,187.7656 270.0625,188.1563 Q270.0625,188.5313 269.7969,188.7656 Q269.5313,189 268.9219,189 L263.7813,189 Q263.1719,189 262.9063,188.7656 Q262.6406,188.5313 262.6406,188.1406 Q262.6406,187.7656 262.9063,187.5313 Q263.1719,187.2969 263.7813,187.2969 L265.5,187.2969 L265.5,180.6406 L263.7813,180.6406 Q263.1719,180.6406 262.9063,180.4063 Q262.6406,180.1719 262.6406,179.7813 Q262.6406,179.4063 262.9063,179.1719 Q263.1719,178.9375 263.7813,178.9375 L268.9219,178.9375 Q269.5313,178.9375 269.7969,179.1719 Q270.0625,179.4063 270.0625,179.7813 Q270.0625,180.1719 269.7969,180.4063 Q269.5313,180.6406 268.9219,180.6406 L267.2031,180.6406 Z " fill="#000000"/><text fill="#000000" font-family="sans-serif" font-size="14" font-style="italic" lengthAdjust="spacing" textLength="75" x="286.75" y="189.7285">BookPrinter</text><line style="stroke:#181818;stroke-width:0.5;" x1="221" x2="395" y1="200" y2="200"/><line style="stroke:#181818;stroke-width:0.5;" x1="221" x2="395" y1="208" y2="208"/><ellipse cx="231" cy="222.3047" fill="#84BE84" rx="3" ry="3" style="stroke:#038048;stroke-width:1.0;"/><text fill="#000000" font-family="sans-serif" font-size="14" lengthAdjust="spacing" textLength="150" x="240" y="226.5332">print(book: Book): None</text></g><!--class ColorBookPrinter--><g id="elem_ColorBookPrinter"><rect codeLine="22" fill="#F1F1F1" height="65.6094" id="ColorBookPrinter" rx="2.5" ry="2.5" style="stroke:#181818;stroke-width:0.5;" width="176" x="220" y="294"/><ellipse cx="251.2" cy="310" fill="#ADD1B2" rx="11" ry="11" style="stroke:#181818;stroke-width:1.0;"/><path d="M253.9656,305.875 Q254.1219,305.6563 254.3094,305.5469 Q254.4969,305.4375 254.7156,305.4375 Q255.0906,305.4375 255.325,305.7031 Q255.5594,305.9531 255.5594,306.5625 L255.5594,308.0156 Q255.5594,308.625 255.325,308.8906 Q255.0906,309.1563 254.7156,309.1563 Q254.3719,309.1563 254.1688,308.9531 Q253.9656,308.7656 253.8563,308.25 Q253.8094,307.8906 253.6219,307.7031 Q253.2938,307.3281 252.6844,307.1094 Q252.075,306.8906 251.45,306.8906 Q250.6844,306.8906 250.0438,307.2188 Q249.4188,307.5469 248.9188,308.2969 Q248.4344,309.0469 248.4344,310.0781 L248.4344,311.1719 Q248.4344,312.4063 249.325,313.2344 Q250.2156,314.0469 251.8094,314.0469 Q252.7469,314.0469 253.4031,313.7969 Q253.7938,313.6406 254.2156,313.2031 Q254.4813,312.9375 254.6219,312.8594 Q254.7781,312.7813 254.9813,312.7813 Q255.3094,312.7813 255.5594,313.0469 Q255.825,313.2969 255.825,313.6406 Q255.825,313.9844 255.4813,314.3906 Q254.9813,314.9688 254.1844,315.2969 Q253.1063,315.75 251.8094,315.75 Q250.2938,315.75 249.0906,315.125 Q248.1063,314.625 247.4188,313.5625 Q246.7313,312.4844 246.7313,311.2031 L246.7313,310.0469 Q246.7313,308.7188 247.3406,307.5781 Q247.9656,306.4219 249.0594,305.8125 Q250.1531,305.1875 251.3875,305.1875 Q252.1219,305.1875 252.7625,305.3594 Q253.4188,305.5156 253.9656,305.875 Z " fill="#000000"/><text fill="#000000" font-family="sans-serif" font-size="14" lengthAdjust="spacing" textLength="108" x="268.8" y="315.7285">ColorBookPrinter</text><line style="stroke:#181818;stroke-width:0.5;" x1="221" x2="395" y1="326" y2="326"/><line style="stroke:#181818;stroke-width:0.5;" x1="221" x2="395" y1="334" y2="334"/><ellipse cx="231" cy="348.3047" fill="#84BE84" rx="3" ry="3" style="stroke:#038048;stroke-width:1.0;"/><text fill="#000000" font-family="sans-serif" font-size="14" lengthAdjust="spacing" textLength="150" x="240" y="352.5332">print(book: Book): None</text></g><!--reverse link BookDatabase to SqlBookDatabase--><g id="link_BookDatabase_SqlBookDatabase"><path codeLine="16" d="M96,252.26 C96,270.63 96,275.56 96,293.91 " fill="none" id="BookDatabase-backto-SqlBookDatabase" style="stroke:#181818;stroke-width:1.0;"/><polygon fill="none" points="96,234.26,90,252.26,102,252.26,96,234.26" style="stroke:#181818;stroke-width:1.0;"/></g><!--reverse link BookPrinter to ColorBookPrinter--><g id="link_BookPrinter_ColorBookPrinter"><path codeLine="26" d="M308,252.26 C308,270.63 308,275.56 308,293.91 " fill="none" id="BookPrinter-backto-ColorBookPrinter" style="stroke:#181818;stroke-width:1.0;"/><polygon fill="none" points="308,234.26,302,252.26,314,252.26,308,234.26" style="stroke:#181818;stroke-width:1.0;"/></g><!--reverse link Book to BookDatabase--><g id="link_Book_BookDatabase"><path codeLine="28" d="M161.0327,113.192 C146.2527,132.922 133.28,150.23 120.13,167.79 " fill="none" id="Book-backto-BookDatabase" style="stroke:#181818;stroke-width:1.0;"/><polygon fill="#181818" points="164.63,108.39,156.0327,113.1949,161.6323,112.3917,162.4355,117.9912,164.63,108.39" style="stroke:#181818;stroke-width:1.0;"/></g><!--reverse link Book to BookPrinter--><g id="link_Book_BookPrinter"><path codeLine="29" d="M242.9673,113.192 C257.7473,132.922 270.72,150.23 283.87,167.79 " fill="none" id="Book-backto-BookPrinter" style="stroke:#181818;stroke-width:1.0;"/><polygon fill="#181818" points="239.37,108.39,241.5645,117.9912,242.3677,112.3917,247.9673,113.1949,239.37,108.39" style="stroke:#181818;stroke-width:1.0;"/></g><!--SRC=[bKux3i8m3Drp2eyWr0j4dO0P8N42Dp9G4TKbTbc0kvEcYjHqGAeNw_bz_9n74TWpF-1j8CvEM_LaGJHC60UzSvWTUhoHM6WxDLzZug9mHKSfv8YA3GhbCC4NRPf8s4HlBPouez7dqkFBqw-p5UhwKrNBY6MZSqWu9_SZ_DVem9x3EkDSdIejCoO9r94ggXRNhFq1]--></g></svg>