<?xml version="1.0" encoding="us-ascii" standalone="no"?><svg xmlns="http://www.w3.org/2000/svg" xmlns:xlink="http://www.w3.org/1999/xlink" contentStyleType="text/css" height="293px" preserveAspectRatio="none" style="width:677px;height:293px;background:#FFFFFF;" version="1.1" viewBox="0 0 677 293" width="677px" zoomAndPan="magnify"><defs/><g><!--class BookFacade--><g id="elem_BookFacade"><rect codeLine="2" fill="#F1F1F1" height="83.2188" id="BookFacade" rx="2.5" ry="2.5" style="stroke:#181818;stroke-width:0.5;" width="112" x="7" y="68.94"/><ellipse cx="22" cy="84.94" fill="#ADD1B2" rx="11" ry="11" style="stroke:#181818;stroke-width:1.0;"/><path d="M24.7656,80.815 Q24.9219,80.5963 25.1094,80.4869 Q25.2969,80.3775 25.5156,80.3775 Q25.8906,80.3775 26.125,80.6431 Q26.3594,80.8931 26.3594,81.5025 L26.3594,82.9556 Q26.3594,83.565 26.125,83.8306 Q25.8906,84.0963 25.5156,84.0963 Q25.1719,84.0963 24.9688,83.8931 Q24.7656,83.7056 24.6563,83.19 Q24.6094,82.8306 24.4219,82.6431 Q24.0938,82.2681 23.4844,82.0494 Q22.875,81.8306 22.25,81.8306 Q21.4844,81.8306 20.8438,82.1588 Q20.2188,82.4869 19.7188,83.2369 Q19.2344,83.9869 19.2344,85.0181 L19.2344,86.1119 Q19.2344,87.3463 20.125,88.1744 Q21.0156,88.9869 22.6094,88.9869 Q23.5469,88.9869 24.2031,88.7369 Q24.5938,88.5806 25.0156,88.1431 Q25.2813,87.8775 25.4219,87.7994 Q25.5781,87.7213 25.7813,87.7213 Q26.1094,87.7213 26.3594,87.9869 Q26.625,88.2369 26.625,88.5806 Q26.625,88.9244 26.2813,89.3306 Q25.7813,89.9088 24.9844,90.2369 Q23.9063,90.69 22.6094,90.69 Q21.0938,90.69 19.8906,90.065 Q18.9063,89.565 18.2188,88.5025 Q17.5313,87.4244 17.5313,86.1431 L17.5313,84.9869 Q17.5313,83.6588 18.1406,82.5181 Q18.7656,81.3619 19.8594,80.7525 Q20.9531,80.1275 22.1875,80.1275 Q22.9219,80.1275 23.5625,80.2994 Q24.2188,80.4556 24.7656,80.815 Z " fill="#000000"/><text fill="#000000" font-family="sans-serif" font-size="14" lengthAdjust="spacing" textLength="80" x="36" y="90.6685">BookFacade</text><line style="stroke:#181818;stroke-width:0.5;" x1="8" x2="118" y1="100.94" y2="100.94"/><line style="stroke:#181818;stroke-width:0.5;" x1="8" x2="118" y1="108.94" y2="108.94"/><ellipse cx="18" cy="123.2447" fill="#84BE84" rx="3" ry="3" style="stroke:#038048;stroke-width:1.0;"/><text fill="#000000" font-family="sans-serif" font-size="14" lengthAdjust="spacing" textLength="81" x="27" y="127.4732">save(): None</text><ellipse cx="18" cy="140.8541" fill="#84BE84" rx="3" ry="3" style="stroke:#038048;stroke-width:1.0;"/><text fill="#000000" font-family="sans-serif" font-size="14" lengthAdjust="spacing" textLength="79" x="27" y="145.0826">print(): None</text></g><!--class Book--><g id="elem_Book"><rect codeLine="7" fill="#F1F1F1" height="100.8281" id="Book" rx="2.5" ry="2.5" style="stroke:#181818;stroke-width:0.5;" width="91" x="365.5" y="59.94"/><ellipse cx="392.65" cy="75.94" fill="#ADD1B2" rx="11" ry="11" style="stroke:#181818;stroke-width:1.0;"/><path d="M395.4156,71.815 Q395.5719,71.5963 395.7594,71.4869 Q395.9469,71.3775 396.1656,71.3775 Q396.5406,71.3775 396.775,71.6431 Q397.0094,71.8931 397.0094,72.5025 L397.0094,73.9556 Q397.0094,74.565 396.775,74.8306 Q396.5406,75.0963 396.1656,75.0963 Q395.8219,75.0963 395.6188,74.8931 Q395.4156,74.7056 395.3063,74.19 Q395.2594,73.8306 395.0719,73.6431 Q394.7438,73.2681 394.1344,73.0494 Q393.525,72.8306 392.9,72.8306 Q392.1344,72.8306 391.4938,73.1588 Q390.8688,73.4869 390.3688,74.2369 Q389.8844,74.9869 389.8844,76.0181 L389.8844,77.1119 Q389.8844,78.3463 390.775,79.1744 Q391.6656,79.9869 393.2594,79.9869 Q394.1969,79.9869 394.8531,79.7369 Q395.2438,79.5806 395.6656,79.1431 Q395.9313,78.8775 396.0719,78.7994 Q396.2281,78.7213 396.4313,78.7213 Q396.7594,78.7213 397.0094,78.9869 Q397.275,79.2369 397.275,79.5806 Q397.275,79.9244 396.9313,80.3306 Q396.4313,80.9088 395.6344,81.2369 Q394.5563,81.69 393.2594,81.69 Q391.7438,81.69 390.5406,81.065 Q389.5563,80.565 388.8688,79.5025 Q388.1813,78.4244 388.1813,77.1431 L388.1813,75.9869 Q388.1813,74.6588 388.7906,73.5181 Q389.4156,72.3619 390.5094,71.7525 Q391.6031,71.1275 392.8375,71.1275 Q393.5719,71.1275 394.2125,71.2994 Q394.8688,71.4556 395.4156,71.815 Z " fill="#000000"/><text fill="#000000" font-family="sans-serif" font-size="14" lengthAdjust="spacing" textLength="32" x="409.35" y="81.6685">Book</text><line style="stroke:#181818;stroke-width:0.5;" x1="366.5" x2="455.5" y1="91.94" y2="91.94"/><ellipse cx="376.5" cy="106.2447" fill="none" rx="3" ry="3" style="stroke:#038048;stroke-width:1.0;"/><text fill="#000000" font-family="sans-serif" font-size="14" lengthAdjust="spacing" textLength="46" x="385.5" y="110.4732">title: str</text><ellipse cx="376.5" cy="123.8541" fill="none" rx="3" ry="3" style="stroke:#038048;stroke-width:1.0;"/><text fill="#000000" font-family="sans-serif" font-size="14" lengthAdjust="spacing" textLength="65" x="385.5" y="128.0826">author: str</text><ellipse cx="376.5" cy="141.4634" fill="none" rx="3" ry="3" style="stroke:#038048;stroke-width:1.0;"/><text fill="#000000" font-family="sans-serif" font-size="14" lengthAdjust="spacing" textLength="62" x="385.5" y="145.692">pages: int</text><line style="stroke:#181818;stroke-width:0.5;" x1="366.5" x2="455.5" y1="152.7681" y2="152.7681"/></g><!--class BookDatabase--><g id="elem_BookDatabase"><rect codeLine="13" fill="#F1F1F1" height="65.6094" id="BookDatabase" rx="2.5" ry="2.5" style="stroke:#181818;stroke-width:0.5;" width="178" x="492" y="77.44"/><ellipse cx="530.4" cy="93.44" fill="#B4A7E5" rx="11" ry="11" style="stroke:#181818;stroke-width:1.0;"/><path d="M531.3531,90.0806 L531.3531,96.7369 L533.0719,96.7369 Q533.6813,96.7369 533.9469,96.9713 Q534.2125,97.2056 534.2125,97.5963 Q534.2125,97.9713 533.9469,98.2056 Q533.6813,98.44 533.0719,98.44 L527.9313,98.44 Q527.3219,98.44 527.0563,98.2056 Q526.7906,97.9713 526.7906,97.5806 Q526.7906,97.2056 527.0563,96.9713 Q527.3219,96.7369 527.9313,96.7369 L529.65,96.7369 L529.65,90.0806 L527.9313,90.0806 Q527.3219,90.0806 527.0563,89.8463 Q526.7906,89.6119 526.7906,89.2213 Q526.7906,88.8463 527.0563,88.6119 Q527.3219,88.3775 527.9313,88.3775 L533.0719,88.3775 Q533.6813,88.3775 533.9469,88.6119 Q534.2125,88.8463 534.2125,89.2213 Q534.2125,89.6119 533.9469,89.8463 Q533.6813,90.0806 533.0719,90.0806 L531.3531,90.0806 Z " fill="#000000"/><text fill="#000000" font-family="sans-serif" font-size="14" font-style="italic" lengthAdjust="spacing" textLength="94" x="549.6" y="99.1685">BookDatabase</text><line style="stroke:#181818;stroke-width:0.5;" x1="493" x2="669" y1="109.44" y2="109.44"/><line style="stroke:#181818;stroke-width:0.5;" x1="493" x2="669" y1="117.44" y2="117.44"/><ellipse cx="503" cy="131.7447" fill="#84BE84" rx="3" ry="3" style="stroke:#038048;stroke-width:1.0;"/><text fill="#000000" font-family="sans-serif" font-size="14" lengthAdjust="spacing" textLength="152" x="512" y="135.9732">save(book: Book): None</text></g><!--class SqlBookDatabase--><g id="elem_SqlBookDatabase"><rect codeLine="17" fill="#F1F1F1" height="65.6094" id="SqlBookDatabase" rx="2.5" ry="2.5" style="stroke:#181818;stroke-width:0.5;" width="178" x="460" y="220.94"/><ellipse cx="489.85" cy="236.94" fill="#ADD1B2" rx="11" ry="11" style="stroke:#181818;stroke-width:1.0;"/><path d="M492.6156,232.815 Q492.7719,232.5963 492.9594,232.4869 Q493.1469,232.3775 493.3656,232.3775 Q493.7406,232.3775 493.975,232.6431 Q494.2094,232.8931 494.2094,233.5025 L494.2094,234.9556 Q494.2094,235.565 493.975,235.8306 Q493.7406,236.0963 493.3656,236.0963 Q493.0219,236.0963 492.8188,235.8931 Q492.6156,235.7056 492.5063,235.19 Q492.4594,234.8306 492.2719,234.6431 Q491.9438,234.2681 491.3344,234.0494 Q490.725,233.8306 490.1,233.8306 Q489.3344,233.8306 488.6938,234.1588 Q488.0688,234.4869 487.5688,235.2369 Q487.0844,235.9869 487.0844,237.0181 L487.0844,238.1119 Q487.0844,239.3463 487.975,240.1744 Q488.8656,240.9869 490.4594,240.9869 Q491.3969,240.9869 492.0531,240.7369 Q492.4438,240.5806 492.8656,240.1431 Q493.1313,239.8775 493.2719,239.7994 Q493.4281,239.7213 493.6313,239.7213 Q493.9594,239.7213 494.2094,239.9869 Q494.475,240.2369 494.475,240.5806 Q494.475,240.9244 494.1313,241.3306 Q493.6313,241.9088 492.8344,242.2369 Q491.7563,242.69 490.4594,242.69 Q488.9438,242.69 487.7406,242.065 Q486.7563,241.565 486.0688,240.5025 Q485.3813,239.4244 485.3813,238.1431 L485.3813,236.9869 Q485.3813,235.6588 485.9906,234.5181 Q486.6156,233.3619 487.7094,232.7525 Q488.8031,232.1275 490.0375,232.1275 Q490.7719,232.1275 491.4125,232.2994 Q492.0688,232.4556 492.6156,232.815 Z " fill="#000000"/><text fill="#000000" font-family="sans-serif" font-size="14" lengthAdjust="spacing" textLength="113" x="507.15" y="242.6685">SqlBookDatabase</text><line style="stroke:#181818;stroke-width:0.5;" x1="461" x2="637" y1="252.94" y2="252.94"/><line style="stroke:#181818;stroke-width:0.5;" x1="461" x2="637" y1="260.94" y2="260.94"/><ellipse cx="471" cy="275.2447" fill="#84BE84" rx="3" ry="3" style="stroke:#038048;stroke-width:1.0;"/><text fill="#000000" font-family="sans-serif" font-size="14" lengthAdjust="spacing" textLength="152" x="480" y="279.4732">save(book: Book): None</text></g><!--class BookPrinter--><g id="elem_BookPrinter"><rect codeLine="23" fill="#F1F1F1" height="65.6094" id="BookPrinter" rx="2.5" ry="2.5" style="stroke:#181818;stroke-width:0.5;" width="176" x="154" y="77.44"/><ellipse cx="200.25" cy="93.44" fill="#B4A7E5" rx="11" ry="11" style="stroke:#181818;stroke-width:1.0;"/><path d="M201.2031,90.0806 L201.2031,96.7369 L202.9219,96.7369 Q203.5313,96.7369 203.7969,96.9713 Q204.0625,97.2056 204.0625,97.5963 Q204.0625,97.9713 203.7969,98.2056 Q203.5313,98.44 202.9219,98.44 L197.7813,98.44 Q197.1719,98.44 196.9063,98.2056 Q196.6406,97.9713 196.6406,97.5806 Q196.6406,97.2056 196.9063,96.9713 Q197.1719,96.7369 197.7813,96.7369 L199.5,96.7369 L199.5,90.0806 L197.7813,90.0806 Q197.1719,90.0806 196.9063,89.8463 Q196.6406,89.6119 196.6406,89.2213 Q196.6406,88.8463 196.9063,88.6119 Q197.1719,88.3775 197.7813,88.3775 L202.9219,88.3775 Q203.5313,88.3775 203.7969,88.6119 Q204.0625,88.8463 204.0625,89.2213 Q204.0625,89.6119 203.7969,89.8463 Q203.5313,90.0806 202.9219,90.0806 L201.2031,90.0806 Z " fill="#000000"/><text fill="#000000" font-family="sans-serif" font-size="14" font-style="italic" lengthAdjust="spacing" textLength="75" x="220.75" y="99.1685">BookPrinter</text><line style="stroke:#181818;stroke-width:0.5;" x1="155" x2="329" y1="109.44" y2="109.44"/><line style="stroke:#181818;stroke-width:0.5;" x1="155" x2="329" y1="117.44" y2="117.44"/><ellipse cx="165" cy="131.7447" fill="#84BE84" rx="3" ry="3" style="stroke:#038048;stroke-width:1.0;"/><text fill="#000000" font-family="sans-serif" font-size="14" lengthAdjust="spacing" textLength="150" x="174" y="135.9732">print(book: Book): None</text></g><!--class ColorBookPrinter--><g id="elem_ColorBookPrinter"><rect codeLine="27" fill="#F1F1F1" height="65.6094" id="ColorBookPrinter" rx="2.5" ry="2.5" style="stroke:#181818;stroke-width:0.5;" width="176" x="217" y="220.94"/><ellipse cx="248.2" cy="236.94" fill="#ADD1B2" rx="11" ry="11" style="stroke:#181818;stroke-width:1.0;"/><path d="M250.9656,232.815 Q251.1219,232.5963 251.3094,232.4869 Q251.4969,232.3775 251.7156,232.3775 Q252.0906,232.3775 252.325,232.6431 Q252.5594,232.8931 252.5594,233.5025 L252.5594,234.9556 Q252.5594,235.565 252.325,235.8306 Q252.0906,236.0963 251.7156,236.0963 Q251.3719,236.0963 251.1688,235.8931 Q250.9656,235.7056 250.8563,235.19 Q250.8094,234.8306 250.6219,234.6431 Q250.2938,234.2681 249.6844,234.0494 Q249.075,233.8306 248.45,233.8306 Q247.6844,233.8306 247.0438,234.1588 Q246.4188,234.4869 245.9188,235.2369 Q245.4344,235.9869 245.4344,237.0181 L245.4344,238.1119 Q245.4344,239.3463 246.325,240.1744 Q247.2156,240.9869 248.8094,240.9869 Q249.7469,240.9869 250.4031,240.7369 Q250.7938,240.5806 251.2156,240.1431 Q251.4813,239.8775 251.6219,239.7994 Q251.7781,239.7213 251.9813,239.7213 Q252.3094,239.7213 252.5594,239.9869 Q252.825,240.2369 252.825,240.5806 Q252.825,240.9244 252.4813,241.3306 Q251.9813,241.9088 251.1844,242.2369 Q250.1063,242.69 248.8094,242.69 Q247.2938,242.69 246.0906,242.065 Q245.1063,241.565 244.4188,240.5025 Q243.7313,239.4244 243.7313,238.1431 L243.7313,236.9869 Q243.7313,235.6588 244.3406,234.5181 Q244.9656,233.3619 246.0594,232.7525 Q247.1531,232.1275 248.3875,232.1275 Q249.1219,232.1275 249.7625,232.2994 Q250.4188,232.4556 250.9656,232.815 Z " fill="#000000"/><text fill="#000000" font-family="sans-serif" font-size="14" lengthAdjust="spacing" textLength="108" x="265.8" y="242.6685">ColorBookPrinter</text><line style="stroke:#181818;stroke-width:0.5;" x1="218" x2="392" y1="252.94" y2="252.94"/><line style="stroke:#181818;stroke-width:0.5;" x1="218" x2="392" y1="260.94" y2="260.94"/><ellipse cx="228" cy="275.2447" fill="#84BE84" rx="3" ry="3" style="stroke:#038048;stroke-width:1.0;"/><text fill="#000000" font-family="sans-serif" font-size="14" lengthAdjust="spacing" textLength="150" x="237" y="279.4732">print(book: Book): None</text></g><!--reverse link BookDatabase to SqlBookDatabase--><g id="link_BookDatabase_SqlBookDatabase"><path codeLine="21" d="M569.769,161.1065 C564.569,184.0965 561.56,197.39 556.34,220.47 " fill="none" id="BookDatabase-backto-SqlBookDatabase" style="stroke:#181818;stroke-width:1.0;"/><polygon fill="none" points="573.74,143.55,563.9168,159.7828,575.6211,162.4302,573.74,143.55" style="stroke:#181818;stroke-width:1.0;"/></g><!--reverse link BookPrinter to ColorBookPrinter--><g id="link_BookPrinter_ColorBookPrinter"><path codeLine="31" d="M263.6178,159.9954 C273.8478,182.9854 280.27,197.39 290.54,220.47 " fill="none" id="BookPrinter-backto-ColorBookPrinter" style="stroke:#181818;stroke-width:1.0;"/><polygon fill="none" points="256.3,143.55,258.136,162.4346,269.0996,157.5561,256.3,143.55" style="stroke:#181818;stroke-width:1.0;"/></g><!--link BookFacade to BookDatabase--><g id="link_BookFacade_BookDatabase"><path codeLine="33" d="M97.49,68.93 C112.85,53.6 132.27,38.01 153.5,29.94 C216.43,6 391.92,10.88 456.5,29.94 C488.22,39.3 514.7098,55.8975 537.9598,73.7375 " fill="none" id="BookFacade-to-BookDatabase" style="stroke:#181818;stroke-width:1.0;"/><polygon fill="#181818" points="542.72,77.39,538.0148,68.7378,538.7532,74.3462,533.1448,75.0847,542.72,77.39" style="stroke:#181818;stroke-width:1.0;"/></g><!--link BookFacade to BookPrinter--><g id="link_BookFacade_BookPrinter"><path codeLine="34" d="M119.29,110.44 C130.79,110.44 136.3,110.44 147.8,110.44 " fill="none" id="BookFacade-to-BookPrinter" style="stroke:#181818;stroke-width:1.0;"/><polygon fill="#181818" points="153.8,110.44,144.8,106.44,148.8,110.44,144.8,114.44,153.8,110.44" style="stroke:#181818;stroke-width:1.0;"/></g><!--reverse link Book to SqlBookDatabase--><g id="link_Book_SqlBookDatabase"><path codeLine="35" d="M460.7587,162.4559 C480.6987,182.9059 499.41,202.1 517.43,220.57 " fill="none" id="Book-backto-SqlBookDatabase" style="stroke:#181818;stroke-width:1.0;"/><polygon fill="#181818" points="456.57,158.16,459.9892,167.3963,460.0606,161.7399,465.717,161.8113,456.57,158.16" style="stroke:#181818;stroke-width:1.0;"/></g><!--reverse link Book to ColorBookPrinter--><g id="link_Book_ColorBookPrinter"><path codeLine="36" d="M370.0327,166.132 C355.2527,185.862 342.28,203.17 329.13,220.73 " fill="none" id="Book-backto-ColorBookPrinter" style="stroke:#181818;stroke-width:1.0;"/><polygon fill="#181818" points="373.63,161.33,365.0327,166.1349,370.6323,165.3317,371.4355,170.9312,373.63,161.33" style="stroke:#181818;stroke-width:1.0;"/></g><!--SRC=[bL713i8W3Btp5HmrXXyWYmSr7es9Nz1XrKKo9g0NzTz543BOOZ8kf7rzhw-ja60CNIbrtOA08z8deUuj33nmDkTqfreCcKuthKsfDo4YKIF9DbOYfyRg4CFTNfJk9Jeue-7K2Nq5t8Vw10Azo0Oir61o1xK3k8S7ZGytEOsMLLSlnag9qj5U-pWgXmNySRHMKkbfn7wrjrHgX9BVRTWoszG855d-AjN8Y0aODFe0]--></g></svg>