<?xml version="1.0" encoding="us-ascii" standalone="no"?><svg xmlns="http://www.w3.org/2000/svg" xmlns:xlink="http://www.w3.org/1999/xlink" contentStyleType="text/css" height="240px" preserveAspectRatio="none" style="width:280px;height:240px;background:#FFFFFF;" version="1.1" viewBox="0 0 280 240" width="280px" zoomAndPan="magnify"><defs/><g><!--class Book--><g id="elem_Book"><rect codeLine="2" fill="#F1F1F1" height="100.8281" id="Book" rx="2.5" ry="2.5" style="stroke:#181818;stroke-width:0.5;" width="91" x="99" y="7"/><ellipse cx="126.15" cy="23" fill="#ADD1B2" rx="11" ry="11" style="stroke:#181818;stroke-width:1.0;"/><path d="M128.9156,18.875 Q129.0719,18.6563 129.2594,18.5469 Q129.4469,18.4375 129.6656,18.4375 Q130.0406,18.4375 130.275,18.7031 Q130.5094,18.9531 130.5094,19.5625 L130.5094,21.0156 Q130.5094,21.625 130.275,21.8906 Q130.0406,22.1563 129.6656,22.1563 Q129.3219,22.1563 129.1188,21.9531 Q128.9156,21.7656 128.8063,21.25 Q128.7594,20.8906 128.5719,20.7031 Q128.2438,20.3281 127.6344,20.1094 Q127.025,19.8906 126.4,19.8906 Q125.6344,19.8906 124.9938,20.2188 Q124.3688,20.5469 123.8688,21.2969 Q123.3844,22.0469 123.3844,23.0781 L123.3844,24.1719 Q123.3844,25.4063 124.275,26.2344 Q125.1656,27.0469 126.7594,27.0469 Q127.6969,27.0469 128.3531,26.7969 Q128.7438,26.6406 129.1656,26.2031 Q129.4313,25.9375 129.5719,25.8594 Q129.7281,25.7813 129.9313,25.7813 Q130.2594,25.7813 130.5094,26.0469 Q130.775,26.2969 130.775,26.6406 Q130.775,26.9844 130.4313,27.3906 Q129.9313,27.9688 129.1344,28.2969 Q128.0563,28.75 126.7594,28.75 Q125.2438,28.75 124.0406,28.125 Q123.0563,27.625 122.3688,26.5625 Q121.6813,25.4844 121.6813,24.2031 L121.6813,23.0469 Q121.6813,21.7188 122.2906,20.5781 Q122.9156,19.4219 124.0094,18.8125 Q125.1031,18.1875 126.3375,18.1875 Q127.0719,18.1875 127.7125,18.3594 Q128.3688,18.5156 128.9156,18.875 Z " fill="#000000"/><text fill="#000000" font-family="sans-serif" font-size="14" lengthAdjust="spacing" textLength="32" x="142.85" y="28.7285">Book</text><line style="stroke:#181818;stroke-width:0.5;" x1="100" x2="189" y1="39" y2="39"/><ellipse cx="110" cy="53.3047" fill="none" rx="3" ry="3" style="stroke:#038048;stroke-width:1.0;"/><text fill="#000000" font-family="sans-serif" font-size="14" lengthAdjust="spacing" textLength="46" x="119" y="57.5332">title: str</text><ellipse cx="110" cy="70.9141" fill="none" rx="3" ry="3" style="stroke:#038048;stroke-width:1.0;"/><text fill="#000000" font-family="sans-serif" font-size="14" lengthAdjust="spacing" textLength="65" x="119" y="75.1426">author: str</text><ellipse cx="110" cy="88.5234" fill="none" rx="3" ry="3" style="stroke:#038048;stroke-width:1.0;"/><text fill="#000000" font-family="sans-serif" font-size="14" lengthAdjust="spacing" textLength="62" x="119" y="92.752">pages: int</text><line style="stroke:#181818;stroke-width:0.5;" x1="100" x2="189" y1="99.8281" y2="99.8281"/></g><!--class BookDatabase--><g id="elem_BookDatabase"><rect codeLine="8" fill="#F1F1F1" height="65.6094" id="BookDatabase" rx="2.5" ry="2.5" style="stroke:#181818;stroke-width:0.5;" width="125" x="7" y="168"/><ellipse cx="22" cy="184" fill="#ADD1B2" rx="11" ry="11" style="stroke:#181818;stroke-width:1.0;"/><path d="M24.7656,179.875 Q24.9219,179.6563 25.1094,179.5469 Q25.2969,179.4375 25.5156,179.4375 Q25.8906,179.4375 26.125,179.7031 Q26.3594,179.9531 26.3594,180.5625 L26.3594,182.0156 Q26.3594,182.625 26.125,182.8906 Q25.8906,183.1563 25.5156,183.1563 Q25.1719,183.1563 24.9688,182.9531 Q24.7656,182.7656 24.6563,182.25 Q24.6094,181.8906 24.4219,181.7031 Q24.0938,181.3281 23.4844,181.1094 Q22.875,180.8906 22.25,180.8906 Q21.4844,180.8906 20.8438,181.2188 Q20.2188,181.5469 19.7188,182.2969 Q19.2344,183.0469 19.2344,184.0781 L19.2344,185.1719 Q19.2344,186.4063 20.125,187.2344 Q21.0156,188.0469 22.6094,188.0469 Q23.5469,188.0469 24.2031,187.7969 Q24.5938,187.6406 25.0156,187.2031 Q25.2813,186.9375 25.4219,186.8594 Q25.5781,186.7813 25.7813,186.7813 Q26.1094,186.7813 26.3594,187.0469 Q26.625,187.2969 26.625,187.6406 Q26.625,187.9844 26.2813,188.3906 Q25.7813,188.9688 24.9844,189.2969 Q23.9063,189.75 22.6094,189.75 Q21.0938,189.75 19.8906,189.125 Q18.9063,188.625 18.2188,187.5625 Q17.5313,186.4844 17.5313,185.2031 L17.5313,184.0469 Q17.5313,182.7188 18.1406,181.5781 Q18.7656,180.4219 19.8594,179.8125 Q20.9531,179.1875 22.1875,179.1875 Q22.9219,179.1875 23.5625,179.3594 Q24.2188,179.5156 24.7656,179.875 Z " fill="#000000"/><text fill="#000000" font-family="sans-serif" font-size="14" lengthAdjust="spacing" textLength="93" x="36" y="189.7285">BookDatabase</text><line style="stroke:#181818;stroke-width:0.5;" x1="8" x2="131" y1="200" y2="200"/><line style="stroke:#181818;stroke-width:0.5;" x1="8" x2="131" y1="208" y2="208"/><ellipse cx="18" cy="222.3047" fill="#84BE84" rx="3" ry="3" style="stroke:#038048;stroke-width:1.0;"/><text fill="#000000" font-family="sans-serif" font-size="14" lengthAdjust="spacing" textLength="81" x="27" y="226.5332">save(): None</text></g><!--class BookPrinter--><g id="elem_BookPrinter"><rect codeLine="12" fill="#F1F1F1" height="65.6094" id="BookPrinter" rx="2.5" ry="2.5" style="stroke:#181818;stroke-width:0.5;" width="106" x="167.5" y="168"/><ellipse cx="182.5" cy="184" fill="#ADD1B2" rx="11" ry="11" style="stroke:#181818;stroke-width:1.0;"/><path d="M185.2656,179.875 Q185.4219,179.6563 185.6094,179.5469 Q185.7969,179.4375 186.0156,179.4375 Q186.3906,179.4375 186.625,179.7031 Q186.8594,179.9531 186.8594,180.5625 L186.8594,182.0156 Q186.8594,182.625 186.625,182.8906 Q186.3906,183.1563 186.0156,183.1563 Q185.6719,183.1563 185.4688,182.9531 Q185.2656,182.7656 185.1563,182.25 Q185.1094,181.8906 184.9219,181.7031 Q184.5938,181.3281 183.9844,181.1094 Q183.375,180.8906 182.75,180.8906 Q181.9844,180.8906 181.3438,181.2188 Q180.7188,181.5469 180.2188,182.2969 Q179.7344,183.0469 179.7344,184.0781 L179.7344,185.1719 Q179.7344,186.4063 180.625,187.2344 Q181.5156,188.0469 183.1094,188.0469 Q184.0469,188.0469 184.7031,187.7969 Q185.0938,187.6406 185.5156,187.2031 Q185.7813,186.9375 185.9219,186.8594 Q186.0781,186.7813 186.2813,186.7813 Q186.6094,186.7813 186.8594,187.0469 Q187.125,187.2969 187.125,187.6406 Q187.125,187.9844 186.7813,188.3906 Q186.2813,188.9688 185.4844,189.2969 Q184.4063,189.75 183.1094,189.75 Q181.5938,189.75 180.3906,189.125 Q179.4063,188.625 178.7188,187.5625 Q178.0313,186.4844 178.0313,185.2031 L178.0313,184.0469 Q178.0313,182.7188 178.6406,181.5781 Q179.2656,180.4219 180.3594,179.8125 Q181.4531,179.1875 182.6875,179.1875 Q183.4219,179.1875 184.0625,179.3594 Q184.7188,179.5156 185.2656,179.875 Z " fill="#000000"/><text fill="#000000" font-family="sans-serif" font-size="14" lengthAdjust="spacing" textLength="74" x="196.5" y="189.7285">BookPrinter</text><line style="stroke:#181818;stroke-width:0.5;" x1="168.5" x2="272.5" y1="200" y2="200"/><line style="stroke:#181818;stroke-width:0.5;" x1="168.5" x2="272.5" y1="208" y2="208"/><ellipse cx="178.5" cy="222.3047" fill="#84BE84" rx="3" ry="3" style="stroke:#038048;stroke-width:1.0;"/><text fill="#000000" font-family="sans-serif" font-size="14" lengthAdjust="spacing" textLength="79" x="187.5" y="226.5332">print(): None</text></g><!--reverse link Book to BookDatabase--><g id="link_Book_BookDatabase"><path codeLine="16" d="M115.2496,113.6911 C104.7896,133.4211 95.88,150.23 86.57,167.79 " fill="none" id="Book-backto-BookDatabase" style="stroke:#181818;stroke-width:1.0;"/><polygon fill="#181818" points="118.06,108.39,110.3103,114.468,115.718,112.8076,117.3784,118.2152,118.06,108.39" style="stroke:#181818;stroke-width:1.0;"/></g><!--reverse link Book to BookPrinter--><g id="link_Book_BookPrinter"><path codeLine="17" d="M174.1296,113.6755 C184.7296,133.4055 193.77,150.23 203.2,167.79 " fill="none" id="Book-backto-BookPrinter" style="stroke:#181818;stroke-width:1.0;"/><polygon fill="#181818" points="171.29,108.39,172.0258,118.2113,173.6564,112.7946,179.0731,114.4251,171.29,108.39" style="stroke:#181818;stroke-width:1.0;"/></g><!--SRC=[Iyv9B2vMSChFprQevb800ksIp9ASL2k5uf8Y23-nj2GZlmX9e20nFRNOIY4phuIhbeih6Mw0Is99Ob9YSIhCeEB4ibGDJIi5l_oyL5IL0KL0pQb5C8K582woIh1pR7HrKOn55OKQmGK0]--></g></svg>