<?xml version="1.0" encoding="us-ascii" standalone="no"?><svg xmlns="http://www.w3.org/2000/svg" xmlns:xlink="http://www.w3.org/1999/xlink" contentStyleType="text/css" height="157px" preserveAspectRatio="none" style="width:128px;height:157px;background:#FFFFFF;" version="1.1" viewBox="0 0 128 157" width="128px" zoomAndPan="magnify"><defs/><g><!--class Book--><g id="elem_Book"><rect codeLine="2" fill="#F1F1F1" height="136.0469" id="Book" rx="2.5" ry="2.5" style="stroke:#181818;stroke-width:0.5;" width="107" x="7" y="7"/><ellipse cx="41.35" cy="23" fill="#ADD1B2" rx="11" ry="11" style="stroke:#181818;stroke-width:1.0;"/><path d="M44.1156,18.875 Q44.2719,18.6563 44.4594,18.5469 Q44.6469,18.4375 44.8656,18.4375 Q45.2406,18.4375 45.475,18.7031 Q45.7094,18.9531 45.7094,19.5625 L45.7094,21.0156 Q45.7094,21.625 45.475,21.8906 Q45.2406,22.1563 44.8656,22.1563 Q44.5219,22.1563 44.3188,21.9531 Q44.1156,21.7656 44.0063,21.25 Q43.9594,20.8906 43.7719,20.7031 Q43.4438,20.3281 42.8344,20.1094 Q42.225,19.8906 41.6,19.8906 Q40.8344,19.8906 40.1938,20.2188 Q39.5688,20.5469 39.0688,21.2969 Q38.5844,22.0469 38.5844,23.0781 L38.5844,24.1719 Q38.5844,25.4063 39.475,26.2344 Q40.3656,27.0469 41.9594,27.0469 Q42.8969,27.0469 43.5531,26.7969 Q43.9438,26.6406 44.3656,26.2031 Q44.6313,25.9375 44.7719,25.8594 Q44.9281,25.7813 45.1313,25.7813 Q45.4594,25.7813 45.7094,26.0469 Q45.975,26.2969 45.975,26.6406 Q45.975,26.9844 45.6313,27.3906 Q45.1313,27.9688 44.3344,28.2969 Q43.2563,28.75 41.9594,28.75 Q40.4438,28.75 39.2406,28.125 Q38.2563,27.625 37.5688,26.5625 Q36.8813,25.4844 36.8813,24.2031 L36.8813,23.0469 Q36.8813,21.7188 37.4906,20.5781 Q38.1156,19.4219 39.2094,18.8125 Q40.3031,18.1875 41.5375,18.1875 Q42.2719,18.1875 42.9125,18.3594 Q43.5688,18.5156 44.1156,18.875 Z " fill="#000000"/><text fill="#000000" font-family="sans-serif" font-size="14" lengthAdjust="spacing" textLength="32" x="59.65" y="28.7285">Book</text><line style="stroke:#181818;stroke-width:0.5;" x1="8" x2="113" y1="39" y2="39"/><rect fill="none" height="6" style="stroke:#C82930;stroke-width:1.0;" width="6" x="15" y="50.3047"/><text fill="#000000" font-family="sans-serif" font-size="14" lengthAdjust="spacing" textLength="46" x="27" y="57.5332">title: str</text><rect fill="none" height="6" style="stroke:#C82930;stroke-width:1.0;" width="6" x="15" y="67.9141"/><text fill="#000000" font-family="sans-serif" font-size="14" lengthAdjust="spacing" textLength="65" x="27" y="75.1426">author: str</text><rect fill="none" height="6" style="stroke:#C82930;stroke-width:1.0;" width="6" x="15" y="85.5234"/><text fill="#000000" font-family="sans-serif" font-size="14" lengthAdjust="spacing" textLength="62" x="27" y="92.752">pages: int</text><line style="stroke:#181818;stroke-width:0.5;" x1="8" x2="113" y1="99.8281" y2="99.8281"/><ellipse cx="18" cy="114.1328" fill="#84BE84" rx="3" ry="3" style="stroke:#038048;stroke-width:1.0;"/><text fill="#000000" font-family="sans-serif" font-size="14" lengthAdjust="spacing" textLength="79" x="27" y="118.3613">print(): None</text><ellipse cx="18" cy="131.7422" fill="#84BE84" rx="3" ry="3" style="stroke:#038048;stroke-width:1.0;"/><text fill="#000000" font-family="sans-serif" font-size="14" lengthAdjust="spacing" textLength="81" x="27" y="135.9707">save(): None</text></g><!--SRC=[Iyv9B2vMSChFprQevb800jsIp9ASL2k5uf8Y23-nj2GZlmX9e20nFRNOIY4phmJCroue0Z8rDAqK_FBpKY52nObbgN2HMYu0]--></g></svg>