<?xml version="1.0" encoding="us-ascii" standalone="no"?><svg xmlns="http://www.w3.org/2000/svg" xmlns:xlink="http://www.w3.org/1999/xlink" contentStyleType="text/css" height="380px" preserveAspectRatio="none" style="width:437px;height:380px;background:#FFFFFF;" version="1.1" viewBox="0 0 437 380" width="437px" zoomAndPan="magnify"><defs/><g><!--cluster adventure::v2a--><g id="cluster_adventure::v2a"><path d="M8.5,6 L115.5,6 A3.75,3.75 0 0 1 118,8.5 L125,29.6094 L427.5,29.6094 A2.5,2.5 0 0 1 430,32.1094 L430,370.5 A2.5,2.5 0 0 1 427.5,373 L8.5,373 A2.5,2.5 0 0 1 6,370.5 L6,8.5 A2.5,2.5 0 0 1 8.5,6 " fill="none" style="stroke:#000000;stroke-width:1.5;"/><line style="stroke:#000000;stroke-width:1.5;" x1="6" x2="125" y1="29.6094" y2="29.6094"/><text fill="#000000" font-family="sans-serif" font-size="14" font-weight="bold" lengthAdjust="spacing" textLength="106" x="10" y="22.5332">adventure::v2a</text></g><!--class Location--><g id="elem_Location"><rect codeLine="2" fill="#F1F1F1" height="100.8281" id="Location" rx="2.5" ry="2.5" style="stroke:#181818;stroke-width:0.5;" width="200" x="118" y="256"/><ellipse cx="186.75" cy="272" fill="#ADD1B2" rx="11" ry="11" style="stroke:#181818;stroke-width:1.0;"/><path d="M189.5156,267.875 Q189.6719,267.6563 189.8594,267.5469 Q190.0469,267.4375 190.2656,267.4375 Q190.6406,267.4375 190.875,267.7031 Q191.1094,267.9531 191.1094,268.5625 L191.1094,270.0156 Q191.1094,270.625 190.875,270.8906 Q190.6406,271.1563 190.2656,271.1563 Q189.9219,271.1563 189.7188,270.9531 Q189.5156,270.7656 189.4063,270.25 Q189.3594,269.8906 189.1719,269.7031 Q188.8438,269.3281 188.2344,269.1094 Q187.625,268.8906 187,268.8906 Q186.2344,268.8906 185.5938,269.2188 Q184.9688,269.5469 184.4688,270.2969 Q183.9844,271.0469 183.9844,272.0781 L183.9844,273.1719 Q183.9844,274.4063 184.875,275.2344 Q185.7656,276.0469 187.3594,276.0469 Q188.2969,276.0469 188.9531,275.7969 Q189.3438,275.6406 189.7656,275.2031 Q190.0313,274.9375 190.1719,274.8594 Q190.3281,274.7813 190.5313,274.7813 Q190.8594,274.7813 191.1094,275.0469 Q191.375,275.2969 191.375,275.6406 Q191.375,275.9844 191.0313,276.3906 Q190.5313,276.9688 189.7344,277.2969 Q188.6563,277.75 187.3594,277.75 Q185.8438,277.75 184.6406,277.125 Q183.6563,276.625 182.9688,275.5625 Q182.2813,274.4844 182.2813,273.2031 L182.2813,272.0469 Q182.2813,270.7188 182.8906,269.5781 Q183.5156,268.4219 184.6094,267.8125 Q185.7031,267.1875 186.9375,267.1875 Q187.6719,267.1875 188.3125,267.3594 Q188.9688,267.5156 189.5156,267.875 Z " fill="#000000"/><text fill="#000000" font-family="sans-serif" font-size="14" lengthAdjust="spacing" textLength="54" x="207.25" y="277.7285">Location</text><line style="stroke:#181818;stroke-width:0.5;" x1="119" x2="317" y1="288" y2="288"/><text fill="#000000" font-family="sans-serif" font-size="14" lengthAdjust="spacing" textLength="59" x="124" y="306.5332">name: str</text><text fill="#000000" font-family="sans-serif" font-size="14" lengthAdjust="spacing" textLength="93" x="124" y="324.1426">description: str</text><line style="stroke:#181818;stroke-width:0.5;" x1="119" x2="317" y1="331.2188" y2="331.2188"/><text fill="#000000" font-family="sans-serif" font-size="14" lengthAdjust="spacing" textLength="188" x="124" y="349.752">from_description(ld): Location</text></g><!--class World--><g id="elem_World"><rect codeLine="8" fill="#F1F1F1" height="153.6563" id="World" rx="2.5" ry="2.5" style="stroke:#181818;stroke-width:0.5;" width="391" x="22.5" y="42"/><ellipse cx="195.25" cy="58" fill="#ADD1B2" rx="11" ry="11" style="stroke:#181818;stroke-width:1.0;"/><path d="M198.0156,53.875 Q198.1719,53.6563 198.3594,53.5469 Q198.5469,53.4375 198.7656,53.4375 Q199.1406,53.4375 199.375,53.7031 Q199.6094,53.9531 199.6094,54.5625 L199.6094,56.0156 Q199.6094,56.625 199.375,56.8906 Q199.1406,57.1563 198.7656,57.1563 Q198.4219,57.1563 198.2188,56.9531 Q198.0156,56.7656 197.9063,56.25 Q197.8594,55.8906 197.6719,55.7031 Q197.3438,55.3281 196.7344,55.1094 Q196.125,54.8906 195.5,54.8906 Q194.7344,54.8906 194.0938,55.2188 Q193.4688,55.5469 192.9688,56.2969 Q192.4844,57.0469 192.4844,58.0781 L192.4844,59.1719 Q192.4844,60.4063 193.375,61.2344 Q194.2656,62.0469 195.8594,62.0469 Q196.7969,62.0469 197.4531,61.7969 Q197.8438,61.6406 198.2656,61.2031 Q198.5313,60.9375 198.6719,60.8594 Q198.8281,60.7813 199.0313,60.7813 Q199.3594,60.7813 199.6094,61.0469 Q199.875,61.2969 199.875,61.6406 Q199.875,61.9844 199.5313,62.3906 Q199.0313,62.9688 198.2344,63.2969 Q197.1563,63.75 195.8594,63.75 Q194.3438,63.75 193.1406,63.125 Q192.1563,62.625 191.4688,61.5625 Q190.7813,60.4844 190.7813,59.2031 L190.7813,58.0469 Q190.7813,56.7188 191.3906,55.5781 Q192.0156,54.4219 193.1094,53.8125 Q194.2031,53.1875 195.4375,53.1875 Q196.1719,53.1875 196.8125,53.3594 Q197.4688,53.5156 198.0156,53.875 Z " fill="#000000"/><text fill="#000000" font-family="sans-serif" font-size="14" lengthAdjust="spacing" textLength="37" x="215.75" y="63.7285">World</text><line style="stroke:#181818;stroke-width:0.5;" x1="23.5" x2="412.5" y1="74" y2="74"/><text fill="#000000" font-family="sans-serif" font-size="14" lengthAdjust="spacing" textLength="172" x="28.5" y="92.5332">locations: dict[str, Location]</text><text fill="#000000" font-family="sans-serif" font-size="14" lengthAdjust="spacing" textLength="156" x="28.5" y="110.1426">initial_location_name: str</text><text fill="#000000" font-family="sans-serif" font-size="14" font-weight="bold" lengthAdjust="spacing" textLength="281" x="28.5" y="127.752">connections: dict[str, dict[str, Location]]</text><line style="stroke:#181818;stroke-width:0.5;" x1="23.5" x2="412.5" y1="134.8281" y2="134.8281"/><text fill="#000000" font-family="sans-serif" font-size="14" lengthAdjust="spacing" textLength="242" x="28.5" y="153.3613">from_location_descriptions(lds): World</text><text fill="#000000" font-family="sans-serif" font-size="14" lengthAdjust="spacing" textLength="209" x="28.5" y="170.9707">__getitem__(name: str): Location</text><text fill="#000000" font-family="sans-serif" font-size="14" font-weight="bold" lengthAdjust="spacing" textLength="379" x="28.5" y="188.5801">connection(location: Location, direction: str): Location</text></g><!--link World to Location--><g id="link_World_Location"><path codeLine="17" d="M218,208.25 C218,228.34 218,231.49 218,249.78 " fill="none" id="World-Location" style="stroke:#181818;stroke-width:1.0;"/><polygon fill="#181818" points="218,196.25,214,202.25,218,208.25,222,202.25,218,196.25" style="stroke:#181818;stroke-width:1.0;"/><polygon fill="#181818" points="218,255.78,222,246.78,218,250.78,214,246.78,218,255.78" style="stroke:#181818;stroke-width:1.0;"/></g><!--SRC=[RL1B2i8m4Dtt55bMiGWkG-a9tBkG4j8aIY1DIYPs8xsxwM_wSvRpthpFM5uhQBXGXCjMsV3nYjBsniat8N64uG3axWGFsjbfsO-DTvH0yBYH2eJNJS_R0Y_lQhP2KoDF53K7MfUit1xE6xcoCXCJA95QX6VKlk1vYJHjTT3Si9dEZX7pgX3EMYKESd-4o_nQ5TiIABrg0x4En3v3QgGpzbP11rKpbcAEVUj3f7GsM8XzD3-YUmtCDtrl_Divouh5fli1]--></g></svg>