<?xml version="1.0" encoding="us-ascii" standalone="no"?><svg xmlns="http://www.w3.org/2000/svg" xmlns:xlink="http://www.w3.org/1999/xlink" contentStyleType="text/css" height="524px" preserveAspectRatio="none" style="width:624px;height:524px;background:#FFFFFF;" version="1.1" viewBox="0 0 624 524" width="624px" zoomAndPan="magnify"><defs/><g><!--cluster adventure::v3a--><g id="cluster_adventure::v3a"><path d="M8.5,6 L115.5,6 A3.75,3.75 0 0 1 118,8.5 L125,29.6094 L614.5,29.6094 A2.5,2.5 0 0 1 617,32.1094 L617,514.5 A2.5,2.5 0 0 1 614.5,517 L8.5,517 A2.5,2.5 0 0 1 6,514.5 L6,8.5 A2.5,2.5 0 0 1 8.5,6 " fill="none" style="stroke:#000000;stroke-width:1.5;"/><line style="stroke:#000000;stroke-width:1.5;" x1="6" x2="125" y1="29.6094" y2="29.6094"/><text fill="#000000" font-family="sans-serif" font-size="14" font-weight="bold" lengthAdjust="spacing" textLength="106" x="10" y="22.5332">adventure::v3a</text></g><!--class Location--><g id="elem_Location"><rect codeLine="3" fill="#F1F1F1" height="136.0469" id="Location" rx="2.5" ry="2.5" style="stroke:#181818;stroke-width:0.5;" width="333" x="129.5" y="365"/><ellipse cx="264.75" cy="381" fill="#ADD1B2" rx="11" ry="11" style="stroke:#181818;stroke-width:1.0;"/><path d="M267.5156,376.875 Q267.6719,376.6563 267.8594,376.5469 Q268.0469,376.4375 268.2656,376.4375 Q268.6406,376.4375 268.875,376.7031 Q269.1094,376.9531 269.1094,377.5625 L269.1094,379.0156 Q269.1094,379.625 268.875,379.8906 Q268.6406,380.1563 268.2656,380.1563 Q267.9219,380.1563 267.7188,379.9531 Q267.5156,379.7656 267.4063,379.25 Q267.3594,378.8906 267.1719,378.7031 Q266.8438,378.3281 266.2344,378.1094 Q265.625,377.8906 265,377.8906 Q264.2344,377.8906 263.5938,378.2188 Q262.9688,378.5469 262.4688,379.2969 Q261.9844,380.0469 261.9844,381.0781 L261.9844,382.1719 Q261.9844,383.4063 262.875,384.2344 Q263.7656,385.0469 265.3594,385.0469 Q266.2969,385.0469 266.9531,384.7969 Q267.3438,384.6406 267.7656,384.2031 Q268.0313,383.9375 268.1719,383.8594 Q268.3281,383.7813 268.5313,383.7813 Q268.8594,383.7813 269.1094,384.0469 Q269.375,384.2969 269.375,384.6406 Q269.375,384.9844 269.0313,385.3906 Q268.5313,385.9688 267.7344,386.2969 Q266.6563,386.75 265.3594,386.75 Q263.8438,386.75 262.6406,386.125 Q261.6563,385.625 260.9688,384.5625 Q260.2813,383.4844 260.2813,382.2031 L260.2813,381.0469 Q260.2813,379.7188 260.8906,378.5781 Q261.5156,377.4219 262.6094,376.8125 Q263.7031,376.1875 264.9375,376.1875 Q265.6719,376.1875 266.3125,376.3594 Q266.9688,376.5156 267.5156,376.875 Z " fill="#000000"/><text fill="#000000" font-family="sans-serif" font-size="14" lengthAdjust="spacing" textLength="54" x="285.25" y="386.7285">Location</text><line style="stroke:#181818;stroke-width:0.5;" x1="130.5" x2="461.5" y1="397" y2="397"/><text fill="#000000" font-family="sans-serif" font-size="14" lengthAdjust="spacing" textLength="59" x="135.5" y="415.5332">name: str</text><text fill="#000000" font-family="sans-serif" font-size="14" lengthAdjust="spacing" textLength="93" x="135.5" y="433.1426">description: str</text><text fill="#000000" font-family="sans-serif" font-size="14" lengthAdjust="spacing" textLength="192" x="135.5" y="450.752">connections: dict[str, Location]</text><line style="stroke:#181818;stroke-width:0.5;" x1="130.5" x2="461.5" y1="457.8281" y2="457.8281"/><text fill="#000000" font-family="sans-serif" font-size="14" lengthAdjust="spacing" textLength="321" x="135.5" y="476.3613">from_description(ld: LocationDescription): Location</text><text fill="#000000" font-family="sans-serif" font-size="14" lengthAdjust="spacing" textLength="228" x="135.5" y="493.9707">__getitem__(direction: str): Location</text></g><!--class World--><g id="elem_World"><rect codeLine="11" fill="#F1F1F1" height="118.4375" id="World" rx="2.5" ry="2.5" style="stroke:#181818;stroke-width:0.5;" width="395" x="205.5" y="186"/><ellipse cx="380.25" cy="202" fill="#ADD1B2" rx="11" ry="11" style="stroke:#181818;stroke-width:1.0;"/><path d="M383.0156,197.875 Q383.1719,197.6563 383.3594,197.5469 Q383.5469,197.4375 383.7656,197.4375 Q384.1406,197.4375 384.375,197.7031 Q384.6094,197.9531 384.6094,198.5625 L384.6094,200.0156 Q384.6094,200.625 384.375,200.8906 Q384.1406,201.1563 383.7656,201.1563 Q383.4219,201.1563 383.2188,200.9531 Q383.0156,200.7656 382.9063,200.25 Q382.8594,199.8906 382.6719,199.7031 Q382.3438,199.3281 381.7344,199.1094 Q381.125,198.8906 380.5,198.8906 Q379.7344,198.8906 379.0938,199.2188 Q378.4688,199.5469 377.9688,200.2969 Q377.4844,201.0469 377.4844,202.0781 L377.4844,203.1719 Q377.4844,204.4063 378.375,205.2344 Q379.2656,206.0469 380.8594,206.0469 Q381.7969,206.0469 382.4531,205.7969 Q382.8438,205.6406 383.2656,205.2031 Q383.5313,204.9375 383.6719,204.8594 Q383.8281,204.7813 384.0313,204.7813 Q384.3594,204.7813 384.6094,205.0469 Q384.875,205.2969 384.875,205.6406 Q384.875,205.9844 384.5313,206.3906 Q384.0313,206.9688 383.2344,207.2969 Q382.1563,207.75 380.8594,207.75 Q379.3438,207.75 378.1406,207.125 Q377.1563,206.625 376.4688,205.5625 Q375.7813,204.4844 375.7813,203.2031 L375.7813,202.0469 Q375.7813,200.7188 376.3906,199.5781 Q377.0156,198.4219 378.1094,197.8125 Q379.2031,197.1875 380.4375,197.1875 Q381.1719,197.1875 381.8125,197.3594 Q382.4688,197.5156 383.0156,197.875 Z " fill="#000000"/><text fill="#000000" font-family="sans-serif" font-size="14" lengthAdjust="spacing" textLength="37" x="400.75" y="207.7285">World</text><line style="stroke:#181818;stroke-width:0.5;" x1="206.5" x2="599.5" y1="218" y2="218"/><text fill="#000000" font-family="sans-serif" font-size="14" lengthAdjust="spacing" textLength="172" x="211.5" y="236.5332">locations: dict[str, Location]</text><text fill="#000000" font-family="sans-serif" font-size="14" lengthAdjust="spacing" textLength="156" x="211.5" y="254.1426">initial_location_name: str</text><line style="stroke:#181818;stroke-width:0.5;" x1="206.5" x2="599.5" y1="261.2188" y2="261.2188"/><text fill="#000000" font-family="sans-serif" font-size="14" lengthAdjust="spacing" textLength="383" x="211.5" y="279.752">from_location_descriptions(lds: LocationDescription[]): World</text><text fill="#000000" font-family="sans-serif" font-size="14" lengthAdjust="spacing" textLength="209" x="211.5" y="297.3613">__getitem__(name: str): Location</text></g><!--class WorldFactory--><g id="elem_WorldFactory"><rect codeLine="18" fill="#F1F1F1" height="65.6094" id="WorldFactory" rx="2.5" ry="2.5" style="stroke:#181818;stroke-width:0.5;" width="304" x="251" y="42"/><ellipse cx="356.25" cy="58" fill="#ADD1B2" rx="11" ry="11" style="stroke:#181818;stroke-width:1.0;"/><path d="M359.0156,53.875 Q359.1719,53.6563 359.3594,53.5469 Q359.5469,53.4375 359.7656,53.4375 Q360.1406,53.4375 360.375,53.7031 Q360.6094,53.9531 360.6094,54.5625 L360.6094,56.0156 Q360.6094,56.625 360.375,56.8906 Q360.1406,57.1563 359.7656,57.1563 Q359.4219,57.1563 359.2188,56.9531 Q359.0156,56.7656 358.9063,56.25 Q358.8594,55.8906 358.6719,55.7031 Q358.3438,55.3281 357.7344,55.1094 Q357.125,54.8906 356.5,54.8906 Q355.7344,54.8906 355.0938,55.2188 Q354.4688,55.5469 353.9688,56.2969 Q353.4844,57.0469 353.4844,58.0781 L353.4844,59.1719 Q353.4844,60.4063 354.375,61.2344 Q355.2656,62.0469 356.8594,62.0469 Q357.7969,62.0469 358.4531,61.7969 Q358.8438,61.6406 359.2656,61.2031 Q359.5313,60.9375 359.6719,60.8594 Q359.8281,60.7813 360.0313,60.7813 Q360.3594,60.7813 360.6094,61.0469 Q360.875,61.2969 360.875,61.6406 Q360.875,61.9844 360.5313,62.3906 Q360.0313,62.9688 359.2344,63.2969 Q358.1563,63.75 356.8594,63.75 Q355.3438,63.75 354.1406,63.125 Q353.1563,62.625 352.4688,61.5625 Q351.7813,60.4844 351.7813,59.2031 L351.7813,58.0469 Q351.7813,56.7188 352.3906,55.5781 Q353.0156,54.4219 354.1094,53.8125 Q355.2031,53.1875 356.4375,53.1875 Q357.1719,53.1875 357.8125,53.3594 Q358.4688,53.5156 359.0156,53.875 Z " fill="#000000"/><text fill="#000000" font-family="sans-serif" font-size="14" lengthAdjust="spacing" textLength="85" x="376.75" y="63.7285">WorldFactory</text><line style="stroke:#181818;stroke-width:0.5;" x1="252" x2="554" y1="74" y2="74"/><line style="stroke:#181818;stroke-width:0.5;" x1="252" x2="554" y1="82" y2="82"/><text fill="#000000" font-family="sans-serif" font-size="14" lengthAdjust="spacing" textLength="292" x="257" y="100.5332">create(lds: const LocationDescription[]): World</text></g><!--class Pawn--><g id="elem_Pawn"><rect codeLine="22" fill="#ADD8E6" height="100.8281" id="Pawn" rx="2.5" ry="2.5" style="stroke:#00008B;stroke-width:2.0;" width="148" x="22" y="194.5"/><ellipse cx="74.75" cy="210.5" fill="#ADD1B2" rx="11" ry="11" style="stroke:#181818;stroke-width:1.0;"/><path d="M77.5156,206.375 Q77.6719,206.1563 77.8594,206.0469 Q78.0469,205.9375 78.2656,205.9375 Q78.6406,205.9375 78.875,206.2031 Q79.1094,206.4531 79.1094,207.0625 L79.1094,208.5156 Q79.1094,209.125 78.875,209.3906 Q78.6406,209.6563 78.2656,209.6563 Q77.9219,209.6563 77.7188,209.4531 Q77.5156,209.2656 77.4063,208.75 Q77.3594,208.3906 77.1719,208.2031 Q76.8438,207.8281 76.2344,207.6094 Q75.625,207.3906 75,207.3906 Q74.2344,207.3906 73.5938,207.7188 Q72.9688,208.0469 72.4688,208.7969 Q71.9844,209.5469 71.9844,210.5781 L71.9844,211.6719 Q71.9844,212.9063 72.875,213.7344 Q73.7656,214.5469 75.3594,214.5469 Q76.2969,214.5469 76.9531,214.2969 Q77.3438,214.1406 77.7656,213.7031 Q78.0313,213.4375 78.1719,213.3594 Q78.3281,213.2813 78.5313,213.2813 Q78.8594,213.2813 79.1094,213.5469 Q79.375,213.7969 79.375,214.1406 Q79.375,214.4844 79.0313,214.8906 Q78.5313,215.4688 77.7344,215.7969 Q76.6563,216.25 75.3594,216.25 Q73.8438,216.25 72.6406,215.625 Q71.6563,215.125 70.9688,214.0625 Q70.2813,212.9844 70.2813,211.7031 L70.2813,210.5469 Q70.2813,209.2188 70.8906,208.0781 Q71.5156,206.9219 72.6094,206.3125 Q73.7031,205.6875 74.9375,205.6875 Q75.6719,205.6875 76.3125,205.8594 Q76.9688,206.0156 77.5156,206.375 Z " fill="#000000"/><text fill="#000000" font-family="sans-serif" font-size="14" lengthAdjust="spacing" textLength="34" x="95.25" y="216.2285">Pawn</text><line style="stroke:#00008B;stroke-width:2.0;" x1="23" x2="169" y1="226.5" y2="226.5"/><text fill="#000000" font-family="sans-serif" font-size="14" lengthAdjust="spacing" textLength="59" x="28" y="245.0332">name: str</text><text fill="#000000" font-family="sans-serif" font-size="14" lengthAdjust="spacing" textLength="116" x="28" y="262.6426">location: Location*</text><line style="stroke:#00008B;stroke-width:2.0;" x1="23" x2="169" y1="269.7188" y2="269.7188"/><ellipse cx="33" cy="284.0234" fill="#84BE84" rx="3" ry="3" style="stroke:#038048;stroke-width:1.0;"/><text fill="#000000" font-family="sans-serif" font-size="14" lengthAdjust="spacing" textLength="122" x="42" y="288.252">move(direction: str)</text></g><!--link World to Location--><g id="link_World_Location"><path codeLine="28" d="M363.5991,314.4933 C352.5091,333.7833 349.0331,339.8199 337.5731,359.7299 " fill="none" id="World-Location" style="stroke:#181818;stroke-width:1.0;"/><polygon fill="#181818" points="369.58,304.09,363.1218,307.298,363.5991,314.4933,370.0573,311.2853,369.58,304.09" style="stroke:#181818;stroke-width:1.0;"/><polygon fill="#181818" points="334.58,364.93,342.5364,359.1253,337.0743,360.5966,335.603,355.1344,334.58,364.93" style="stroke:#181818;stroke-width:1.0;"/></g><!--link WorldFactory to World--><g id="link_WorldFactory_World"><path codeLine="29" d="M403,108.39 C403,130.32 403,153.92 403,179.86 " fill="none" id="WorldFactory-to-World" style="stroke:#181818;stroke-width:1.0;stroke-dasharray:7.0,7.0;"/><polygon fill="#181818" points="403,185.86,407,176.86,403,180.86,399,176.86,403,185.86" style="stroke:#181818;stroke-width:1.0;"/><text fill="#000000" font-family="sans-serif" font-size="13" lengthAdjust="spacing" textLength="45" x="408" y="152.4951">Creates</text></g><!--link Pawn to Location--><g id="link_Pawn_Location"><path codeLine="30" d="M149.33,295.6 C172.13,316.8 194.7062,337.7941 219.2562,360.6241 " fill="none" id="Pawn-to-Location" style="stroke:#181818;stroke-width:1.0;"/><polygon fill="#181818" points="223.65,364.71,219.7833,355.6519,219.9885,361.3051,214.3354,361.5103,223.65,364.71" style="stroke:#181818;stroke-width:1.0;"/></g><!--SRC=[ZP8nJyCm48Nt_WghBANGB6n6wW0L4mCRGrLP5_ieLXsxigz12F7VSPpMTKf5yPPtxtplyyL2Ws4B4Xce5YtjF7BUtW7x6h5uf84GsBEJGDhPlTWT6_iu2-IpeZ18hxUTRrYGpbgKdHuuKrhICbPlywMhR7pphX75DHEZUBOjZlhrKSszGgoHD64Zn4HftyzBEKxTtwE2xDLvemeiitTUIAgj9Wr67EpYztCac5mlg4B42cUvbgkODIKwYvLdN2Pw0adEVnPWqYCGzgFZGWBz8y3WtXVui8nT6MsngbtSp0Byvi7iyBu6kU56hz-fZfz__YE7zpW2J7Fjfd4jdkwkpD7lQZgRpOVu0-AgclS2PsFscA33EDaIGDdy0m00]--></g></svg>