<?xml version="1.0" encoding="us-ascii" standalone="no"?><svg xmlns="http://www.w3.org/2000/svg" xmlns:xlink="http://www.w3.org/1999/xlink" contentStyleType="text/css" height="408px" preserveAspectRatio="none" style="width:358px;height:408px;background:#FFFFFF;" version="1.1" viewBox="0 0 358 408" width="358px" zoomAndPan="magnify"><defs/><g><!--class APickup--><g id="elem_APickup"><rect codeLine="1" fill="#F1F1F1" height="103.8633" id="APickup" rx="2.5" ry="2.5" style="stroke:#181818;stroke-width:0.5;" width="291" x="47" y="7"/><ellipse cx="162.25" cy="23" fill="#CDCDCD" rx="11" ry="11" style="stroke:#181818;stroke-width:1.0;"/><path d="M164.4375,24.7656 L160.2969,24.7656 L159.875,25.7969 L160.2969,25.7969 Q160.9063,25.7969 161.1719,26.0313 Q161.4375,26.2656 161.4375,26.6563 Q161.4375,27.0313 161.1719,27.2656 Q160.9063,27.5 160.2969,27.5 L158,27.5 Q157.3906,27.5 157.1406,27.2656 Q156.875,27.0313 156.875,26.6406 Q156.875,26.2656 157.1563,26.0313 Q157.4219,25.7813 158.0469,25.7969 L160.7188,19.1406 L159.6094,19.1406 Q159,19.1406 158.7344,18.9063 Q158.4688,18.6719 158.4688,18.2813 Q158.4688,17.9063 158.7344,17.6719 Q159,17.4375 159.6094,17.4375 L163.2813,17.4375 L166.6719,25.7969 Q167.2656,25.7969 167.4531,25.9375 Q167.8438,26.2031 167.8438,26.6563 Q167.8438,27.0313 167.5781,27.2656 Q167.3281,27.5 166.7188,27.5 L164.4219,27.5 Q163.8125,27.5 163.5469,27.2656 Q163.2813,27.0313 163.2813,26.6406 Q163.2813,26.2656 163.5469,26.0313 Q163.8125,25.7969 164.4219,25.7969 L164.8438,25.7969 L164.4375,24.7656 Z M163.7188,23.0625 L162.3594,19.6875 L160.9844,23.0625 L163.7188,23.0625 Z " fill="#000000"/><text fill="#000000" font-family="sans-serif" font-size="14" font-style="italic" lengthAdjust="spacing" textLength="52" x="182.75" y="28.7969">APickup</text><line style="stroke:#181818;stroke-width:0.5;" x1="48" x2="337" y1="39" y2="39"/><text fill="#000000" font-family="sans-serif" font-size="14" lengthAdjust="spacing" textLength="85" x="53" y="58.1074">Mesh: UMesh</text><line style="stroke:#181818;stroke-width:0.5;" x1="48" x2="337" y1="65.6211" y2="65.6211"/><text fill="#000000" font-family="sans-serif" font-size="14" lengthAdjust="spacing" textLength="234" x="53" y="84.7285">WasCollected(ACharacter* Collector)</text><text fill="#000000" font-family="sans-serif" font-size="14" font-style="italic" lengthAdjust="spacing" textLength="279" x="53" y="103.3496">PerformPickupAction(ACharacter* Collector)</text></g><!--class APowerChangingPickup--><g id="elem_APowerChangingPickup"><rect codeLine="6" fill="#F1F1F1" height="85.2422" id="APowerChangingPickup" rx="2.5" ry="2.5" style="stroke:#181818;stroke-width:0.5;" width="290" x="47.5" y="171"/><ellipse cx="112.75" cy="187" fill="#C2C2C2" rx="11" ry="11" style="stroke:#181818;stroke-width:1.0;"/><path d="M115.5156,182.875 Q115.6719,182.6563 115.8594,182.5469 Q116.0469,182.4375 116.2656,182.4375 Q116.6406,182.4375 116.875,182.7031 Q117.1094,182.9531 117.1094,183.5625 L117.1094,185.0156 Q117.1094,185.625 116.875,185.8906 Q116.6406,186.1563 116.2656,186.1563 Q115.9219,186.1563 115.7188,185.9531 Q115.5156,185.7656 115.4063,185.25 Q115.3594,184.8906 115.1719,184.7031 Q114.8438,184.3281 114.2344,184.1094 Q113.625,183.8906 113,183.8906 Q112.2344,183.8906 111.5938,184.2188 Q110.9688,184.5469 110.4688,185.2969 Q109.9844,186.0469 109.9844,187.0781 L109.9844,188.1719 Q109.9844,189.4063 110.875,190.2344 Q111.7656,191.0469 113.3594,191.0469 Q114.2969,191.0469 114.9531,190.7969 Q115.3438,190.6406 115.7656,190.2031 Q116.0313,189.9375 116.1719,189.8594 Q116.3281,189.7813 116.5313,189.7813 Q116.8594,189.7813 117.1094,190.0469 Q117.375,190.2969 117.375,190.6406 Q117.375,190.9844 117.0313,191.3906 Q116.5313,191.9688 115.7344,192.2969 Q114.6563,192.75 113.3594,192.75 Q111.8438,192.75 110.6406,192.125 Q109.6563,191.625 108.9688,190.5625 Q108.2813,189.4844 108.2813,188.2031 L108.2813,187.0469 Q108.2813,185.7188 108.8906,184.5781 Q109.5156,183.4219 110.6094,182.8125 Q111.7031,182.1875 112.9375,182.1875 Q113.6719,182.1875 114.3125,182.3594 Q114.9688,182.5156 115.5156,182.875 Z " fill="#000000"/><text fill="#000000" font-family="sans-serif" font-size="14" lengthAdjust="spacing" textLength="151" x="133.25" y="192.7969">APowerChangingPickup</text><line style="stroke:#181818;stroke-width:0.5;" x1="48.5" x2="336.5" y1="203" y2="203"/><text fill="#000000" font-family="sans-serif" font-size="14" lengthAdjust="spacing" textLength="74" x="53.5" y="222.1074">Power: float</text><line style="stroke:#181818;stroke-width:0.5;" x1="48.5" x2="336.5" y1="229.6211" y2="229.6211"/><text fill="#000000" font-family="sans-serif" font-size="14" lengthAdjust="spacing" textLength="278" x="53.5" y="248.7285">PerformPickupAction(ACharacter* Collector)</text></g><!--class AEnergyDrainingPickup--><g id="elem_AEnergyDrainingPickup"><rect codeLine="10" fill="#F1F1F1" height="85.2422" id="AEnergyDrainingPickup" rx="2.5" ry="2.5" style="stroke:#181818;stroke-width:0.5;" width="181" x="7" y="316"/><ellipse cx="22" cy="332" fill="#C2C2C2" rx="11" ry="11" style="stroke:#181818;stroke-width:1.0;"/><path d="M24.7656,327.875 Q24.9219,327.6563 25.1094,327.5469 Q25.2969,327.4375 25.5156,327.4375 Q25.8906,327.4375 26.125,327.7031 Q26.3594,327.9531 26.3594,328.5625 L26.3594,330.0156 Q26.3594,330.625 26.125,330.8906 Q25.8906,331.1563 25.5156,331.1563 Q25.1719,331.1563 24.9688,330.9531 Q24.7656,330.7656 24.6563,330.25 Q24.6094,329.8906 24.4219,329.7031 Q24.0938,329.3281 23.4844,329.1094 Q22.875,328.8906 22.25,328.8906 Q21.4844,328.8906 20.8438,329.2188 Q20.2188,329.5469 19.7188,330.2969 Q19.2344,331.0469 19.2344,332.0781 L19.2344,333.1719 Q19.2344,334.4063 20.125,335.2344 Q21.0156,336.0469 22.6094,336.0469 Q23.5469,336.0469 24.2031,335.7969 Q24.5938,335.6406 25.0156,335.2031 Q25.2813,334.9375 25.4219,334.8594 Q25.5781,334.7813 25.7813,334.7813 Q26.1094,334.7813 26.3594,335.0469 Q26.625,335.2969 26.625,335.6406 Q26.625,335.9844 26.2813,336.3906 Q25.7813,336.9688 24.9844,337.2969 Q23.9063,337.75 22.6094,337.75 Q21.0938,337.75 19.8906,337.125 Q18.9063,336.625 18.2188,335.5625 Q17.5313,334.4844 17.5313,333.2031 L17.5313,332.0469 Q17.5313,330.7188 18.1406,329.5781 Q18.7656,328.4219 19.8594,327.8125 Q20.9531,327.1875 22.1875,327.1875 Q22.9219,327.1875 23.5625,327.3594 Q24.2188,327.5156 24.7656,327.875 Z " fill="#000000"/><text fill="#000000" font-family="sans-serif" font-size="14" lengthAdjust="spacing" textLength="149" x="36" y="337.7969">AEnergyDrainingPickup</text><line style="stroke:#181818;stroke-width:0.5;" x1="8" x2="187" y1="348" y2="348"/><text fill="#000000" font-family="sans-serif" font-size="14" lengthAdjust="spacing" textLength="96" x="13" y="367.1074">Power = -250.0</text><text fill="#000000" font-family="sans-serif" font-size="14" lengthAdjust="spacing" textLength="62" x="13" y="385.7285">Mesh = ...</text><line style="stroke:#181818;stroke-width:0.5;" x1="8" x2="187" y1="393.2422" y2="393.2422"/></g><!--class ABatteryPickup--><g id="elem_ABatteryPickup"><rect codeLine="14" fill="#F1F1F1" height="85.2422" id="ABatteryPickup" rx="2.5" ry="2.5" style="stroke:#181818;stroke-width:0.5;" width="128" x="223.5" y="316"/><ellipse cx="238.5" cy="332" fill="#C2C2C2" rx="11" ry="11" style="stroke:#181818;stroke-width:1.0;"/><path d="M241.2656,327.875 Q241.4219,327.6563 241.6094,327.5469 Q241.7969,327.4375 242.0156,327.4375 Q242.3906,327.4375 242.625,327.7031 Q242.8594,327.9531 242.8594,328.5625 L242.8594,330.0156 Q242.8594,330.625 242.625,330.8906 Q242.3906,331.1563 242.0156,331.1563 Q241.6719,331.1563 241.4688,330.9531 Q241.2656,330.7656 241.1563,330.25 Q241.1094,329.8906 240.9219,329.7031 Q240.5938,329.3281 239.9844,329.1094 Q239.375,328.8906 238.75,328.8906 Q237.9844,328.8906 237.3438,329.2188 Q236.7188,329.5469 236.2188,330.2969 Q235.7344,331.0469 235.7344,332.0781 L235.7344,333.1719 Q235.7344,334.4063 236.625,335.2344 Q237.5156,336.0469 239.1094,336.0469 Q240.0469,336.0469 240.7031,335.7969 Q241.0938,335.6406 241.5156,335.2031 Q241.7813,334.9375 241.9219,334.8594 Q242.0781,334.7813 242.2813,334.7813 Q242.6094,334.7813 242.8594,335.0469 Q243.125,335.2969 243.125,335.6406 Q243.125,335.9844 242.7813,336.3906 Q242.2813,336.9688 241.4844,337.2969 Q240.4063,337.75 239.1094,337.75 Q237.5938,337.75 236.3906,337.125 Q235.4063,336.625 234.7188,335.5625 Q234.0313,334.4844 234.0313,333.2031 L234.0313,332.0469 Q234.0313,330.7188 234.6406,329.5781 Q235.2656,328.4219 236.3594,327.8125 Q237.4531,327.1875 238.6875,327.1875 Q239.4219,327.1875 240.0625,327.3594 Q240.7188,327.5156 241.2656,327.875 Z " fill="#000000"/><text fill="#000000" font-family="sans-serif" font-size="14" lengthAdjust="spacing" textLength="96" x="252.5" y="337.7969">ABatteryPickup</text><line style="stroke:#181818;stroke-width:0.5;" x1="224.5" x2="350.5" y1="348" y2="348"/><text fill="#000000" font-family="sans-serif" font-size="14" lengthAdjust="spacing" textLength="91" x="229.5" y="367.1074">Power = 750.0</text><text fill="#000000" font-family="sans-serif" font-size="14" lengthAdjust="spacing" textLength="62" x="229.5" y="385.7285">Mesh = ...</text><line style="stroke:#181818;stroke-width:0.5;" x1="224.5" x2="350.5" y1="393.2422" y2="393.2422"/></g><!--reverse link APickup to APowerChangingPickup--><g id="link_APickup_APowerChangingPickup"><path codeLine="18" d="M192.5,131.34 C192.5,144.86 192.5,158.58 192.5,170.8 " fill="none" id="APickup-backto-APowerChangingPickup" style="stroke:#181818;stroke-width:1.0;"/><polygon fill="none" points="185.5,131.2,192.5,111.2,199.5,131.2,185.5,131.2" style="stroke:#181818;stroke-width:1.0;"/></g><!--reverse link APowerChangingPickup to AEnergyDrainingPickup--><g id="link_APowerChangingPickup_AEnergyDrainingPickup"><path codeLine="19" d="M153.49,273.22 C143.97,287.56 133.97,302.6 125.1,315.95 " fill="none" id="APowerChangingPickup-backto-AEnergyDrainingPickup" style="stroke:#181818;stroke-width:1.0;"/><polygon fill="none" points="147.87,269.03,164.77,256.25,159.53,276.78,147.87,269.03" style="stroke:#181818;stroke-width:1.0;"/></g><!--reverse link APowerChangingPickup to ABatteryPickup--><g id="link_APowerChangingPickup_ABatteryPickup"><path codeLine="20" d="M231.51,273.22 C241.03,287.56 251.03,302.6 259.9,315.95 " fill="none" id="APowerChangingPickup-backto-ABatteryPickup" style="stroke:#181818;stroke-width:1.0;"/><polygon fill="none" points="225.47,276.78,220.23,256.25,237.13,269.03,225.47,276.78" style="stroke:#181818;stroke-width:1.0;"/></g><!--SRC=[dL31Qi904BtlLyon2WaYY23j8TeU1I_YUToEoMAo8xCh4cB-tOr9Q0lR7deQtl3Uc_V6dOsze605ZGAesB8kX2i2BrTIhSAZyuBQWoxHESXsHf-lboTvIwvOmRuR0HtGRRWiINlwVCas1NOgaYaCMvP9O3MZNmixaXDBrHjcsXksl-bQDLxd6qdWsDpO_5kKvtu5fvBHT_0VrX-M9A_V1OsDUCCR9FF5B9qDlGDEq_HBlKOVdEk8R1bJZMzylIT9j9MALktfiQH_yNzaUm00]--></g></svg>