<?xml version="1.0" encoding="us-ascii" standalone="no"?><svg xmlns="http://www.w3.org/2000/svg" xmlns:xlink="http://www.w3.org/1999/xlink" contentStyleType="text/css" height="241px" preserveAspectRatio="none" style="width:640px;height:241px;background:#FFFFFF;" version="1.1" viewBox="0 0 640 241" width="640px" zoomAndPan="magnify"><defs/><g><!--class Game--><g id="elem_Game"><rect codeLine="3" fill="#F1F1F1" height="48" id="Game" rx="2.5" ry="2.5" style="stroke:#181818;stroke-width:0.5;" width="120" x="7" y="16"/><ellipse cx="44.5" cy="32" fill="#ADD1B2" rx="11" ry="11" style="stroke:#181818;stroke-width:1.0;"/><path d="M47.2656,27.875 Q47.4219,27.6563 47.6094,27.5469 Q47.7969,27.4375 48.0156,27.4375 Q48.3906,27.4375 48.625,27.7031 Q48.8594,27.9531 48.8594,28.5625 L48.8594,30.0156 Q48.8594,30.625 48.625,30.8906 Q48.3906,31.1563 48.0156,31.1563 Q47.6719,31.1563 47.4688,30.9531 Q47.2656,30.7656 47.1563,30.25 Q47.1094,29.8906 46.9219,29.7031 Q46.5938,29.3281 45.9844,29.1094 Q45.375,28.8906 44.75,28.8906 Q43.9844,28.8906 43.3438,29.2188 Q42.7188,29.5469 42.2188,30.2969 Q41.7344,31.0469 41.7344,32.0781 L41.7344,33.1719 Q41.7344,34.4063 42.625,35.2344 Q43.5156,36.0469 45.1094,36.0469 Q46.0469,36.0469 46.7031,35.7969 Q47.0938,35.6406 47.5156,35.2031 Q47.7813,34.9375 47.9219,34.8594 Q48.0781,34.7813 48.2813,34.7813 Q48.6094,34.7813 48.8594,35.0469 Q49.125,35.2969 49.125,35.6406 Q49.125,35.9844 48.7813,36.3906 Q48.2813,36.9688 47.4844,37.2969 Q46.4063,37.75 45.1094,37.75 Q43.5938,37.75 42.3906,37.125 Q41.4063,36.625 40.7188,35.5625 Q40.0313,34.4844 40.0313,33.2031 L40.0313,32.0469 Q40.0313,30.7188 40.6406,29.5781 Q41.2656,28.4219 42.3594,27.8125 Q43.4531,27.1875 44.6875,27.1875 Q45.4219,27.1875 46.0625,27.3594 Q46.7188,27.5156 47.2656,27.875 Z " fill="#000000"/><text fill="#000000" font-family="sans-serif" font-size="14" lengthAdjust="spacing" textLength="38" x="63.5" y="37.7285">Game</text><line style="stroke:#181818;stroke-width:0.5;" x1="8" x2="126" y1="48" y2="48"/><line style="stroke:#181818;stroke-width:0.5;" x1="8" x2="126" y1="56" y2="56"/></g><!--class Player--><g id="elem_Player"><rect codeLine="4" fill="#F1F1F1" height="65.6094" id="Player" rx="2.5" ry="2.5" style="stroke:#181818;stroke-width:0.5;" width="120" x="210" y="7"/><ellipse cx="246.6" cy="23" fill="#ADD1B2" rx="11" ry="11" style="stroke:#181818;stroke-width:1.0;"/><path d="M249.3656,18.875 Q249.5219,18.6563 249.7094,18.5469 Q249.8969,18.4375 250.1156,18.4375 Q250.4906,18.4375 250.725,18.7031 Q250.9594,18.9531 250.9594,19.5625 L250.9594,21.0156 Q250.9594,21.625 250.725,21.8906 Q250.4906,22.1563 250.1156,22.1563 Q249.7719,22.1563 249.5688,21.9531 Q249.3656,21.7656 249.2563,21.25 Q249.2094,20.8906 249.0219,20.7031 Q248.6938,20.3281 248.0844,20.1094 Q247.475,19.8906 246.85,19.8906 Q246.0844,19.8906 245.4438,20.2188 Q244.8188,20.5469 244.3188,21.2969 Q243.8344,22.0469 243.8344,23.0781 L243.8344,24.1719 Q243.8344,25.4063 244.725,26.2344 Q245.6156,27.0469 247.2094,27.0469 Q248.1469,27.0469 248.8031,26.7969 Q249.1938,26.6406 249.6156,26.2031 Q249.8813,25.9375 250.0219,25.8594 Q250.1781,25.7813 250.3813,25.7813 Q250.7094,25.7813 250.9594,26.0469 Q251.225,26.2969 251.225,26.6406 Q251.225,26.9844 250.8813,27.3906 Q250.3813,27.9688 249.5844,28.2969 Q248.5063,28.75 247.2094,28.75 Q245.6938,28.75 244.4906,28.125 Q243.5063,27.625 242.8188,26.5625 Q242.1313,25.4844 242.1313,24.2031 L242.1313,23.0469 Q242.1313,21.7188 242.7406,20.5781 Q243.3656,19.4219 244.4594,18.8125 Q245.5531,18.1875 246.7875,18.1875 Q247.5219,18.1875 248.1625,18.3594 Q248.8188,18.5156 249.3656,18.875 Z " fill="#000000"/><text fill="#000000" font-family="sans-serif" font-size="14" lengthAdjust="spacing" textLength="40" x="265.4" y="28.7285">Player</text><line style="stroke:#181818;stroke-width:0.5;" x1="211" x2="329" y1="39" y2="39"/><text fill="#000000" font-family="sans-serif" font-size="14" lengthAdjust="spacing" textLength="35" x="216" y="57.5332">name</text><line style="stroke:#181818;stroke-width:0.5;" x1="211" x2="329" y1="64.6094" y2="64.6094"/></g><!--class Pawn--><g id="elem_Pawn"><rect codeLine="7" fill="#F1F1F1" height="48" id="Pawn" rx="2.5" ry="2.5" style="stroke:#181818;stroke-width:0.5;" width="120" x="413" y="16"/><ellipse cx="452.3" cy="32" fill="#ADD1B2" rx="11" ry="11" style="stroke:#181818;stroke-width:1.0;"/><path d="M455.0656,27.875 Q455.2219,27.6563 455.4094,27.5469 Q455.5969,27.4375 455.8156,27.4375 Q456.1906,27.4375 456.425,27.7031 Q456.6594,27.9531 456.6594,28.5625 L456.6594,30.0156 Q456.6594,30.625 456.425,30.8906 Q456.1906,31.1563 455.8156,31.1563 Q455.4719,31.1563 455.2688,30.9531 Q455.0656,30.7656 454.9563,30.25 Q454.9094,29.8906 454.7219,29.7031 Q454.3938,29.3281 453.7844,29.1094 Q453.175,28.8906 452.55,28.8906 Q451.7844,28.8906 451.1438,29.2188 Q450.5188,29.5469 450.0188,30.2969 Q449.5344,31.0469 449.5344,32.0781 L449.5344,33.1719 Q449.5344,34.4063 450.425,35.2344 Q451.3156,36.0469 452.9094,36.0469 Q453.8469,36.0469 454.5031,35.7969 Q454.8938,35.6406 455.3156,35.2031 Q455.5813,34.9375 455.7219,34.8594 Q455.8781,34.7813 456.0813,34.7813 Q456.4094,34.7813 456.6594,35.0469 Q456.925,35.2969 456.925,35.6406 Q456.925,35.9844 456.5813,36.3906 Q456.0813,36.9688 455.2844,37.2969 Q454.2063,37.75 452.9094,37.75 Q451.3938,37.75 450.1906,37.125 Q449.2063,36.625 448.5188,35.5625 Q447.8313,34.4844 447.8313,33.2031 L447.8313,32.0469 Q447.8313,30.7188 448.4406,29.5781 Q449.0656,28.4219 450.1594,27.8125 Q451.2531,27.1875 452.4875,27.1875 Q453.2219,27.1875 453.8625,27.3594 Q454.5188,27.5156 455.0656,27.875 Z " fill="#000000"/><text fill="#000000" font-family="sans-serif" font-size="14" lengthAdjust="spacing" textLength="34" x="471.7" y="37.7285">Pawn</text><line style="stroke:#181818;stroke-width:0.5;" x1="414" x2="532" y1="48" y2="48"/><line style="stroke:#181818;stroke-width:0.5;" x1="414" x2="532" y1="56" y2="56"/></g><!--class World--><g id="elem_World"><rect codeLine="8" fill="#F1F1F1" height="65.6094" id="World" rx="2.5" ry="2.5" style="stroke:#181818;stroke-width:0.5;" width="144" x="126" y="159.5"/><ellipse cx="175.25" cy="175.5" fill="#ADD1B2" rx="11" ry="11" style="stroke:#181818;stroke-width:1.0;"/><path d="M178.0156,171.375 Q178.1719,171.1563 178.3594,171.0469 Q178.5469,170.9375 178.7656,170.9375 Q179.1406,170.9375 179.375,171.2031 Q179.6094,171.4531 179.6094,172.0625 L179.6094,173.5156 Q179.6094,174.125 179.375,174.3906 Q179.1406,174.6563 178.7656,174.6563 Q178.4219,174.6563 178.2188,174.4531 Q178.0156,174.2656 177.9063,173.75 Q177.8594,173.3906 177.6719,173.2031 Q177.3438,172.8281 176.7344,172.6094 Q176.125,172.3906 175.5,172.3906 Q174.7344,172.3906 174.0938,172.7188 Q173.4688,173.0469 172.9688,173.7969 Q172.4844,174.5469 172.4844,175.5781 L172.4844,176.6719 Q172.4844,177.9063 173.375,178.7344 Q174.2656,179.5469 175.8594,179.5469 Q176.7969,179.5469 177.4531,179.2969 Q177.8438,179.1406 178.2656,178.7031 Q178.5313,178.4375 178.6719,178.3594 Q178.8281,178.2813 179.0313,178.2813 Q179.3594,178.2813 179.6094,178.5469 Q179.875,178.7969 179.875,179.1406 Q179.875,179.4844 179.5313,179.8906 Q179.0313,180.4688 178.2344,180.7969 Q177.1563,181.25 175.8594,181.25 Q174.3438,181.25 173.1406,180.625 Q172.1563,180.125 171.4688,179.0625 Q170.7813,177.9844 170.7813,176.7031 L170.7813,175.5469 Q170.7813,174.2188 171.3906,173.0781 Q172.0156,171.9219 173.1094,171.3125 Q174.2031,170.6875 175.4375,170.6875 Q176.1719,170.6875 176.8125,170.8594 Q177.4688,171.0156 178.0156,171.375 Z " fill="#000000"/><text fill="#000000" font-family="sans-serif" font-size="14" lengthAdjust="spacing" textLength="37" x="195.75" y="181.2285">World</text><line style="stroke:#181818;stroke-width:0.5;" x1="127" x2="269" y1="191.5" y2="191.5"/><text fill="#000000" font-family="sans-serif" font-size="14" lengthAdjust="spacing" textLength="132" x="132" y="210.0332">initial_location_name</text><line style="stroke:#181818;stroke-width:0.5;" x1="127" x2="269" y1="217.1094" y2="217.1094"/></g><!--class Location--><g id="elem_Location"><rect codeLine="11" fill="#F1F1F1" height="83.2188" id="Location" rx="2.5" ry="2.5" style="stroke:#181818;stroke-width:0.5;" width="120" x="391" y="151"/><ellipse cx="421.3" cy="167" fill="#ADD1B2" rx="11" ry="11" style="stroke:#181818;stroke-width:1.0;"/><path d="M424.0656,162.875 Q424.2219,162.6563 424.4094,162.5469 Q424.5969,162.4375 424.8156,162.4375 Q425.1906,162.4375 425.425,162.7031 Q425.6594,162.9531 425.6594,163.5625 L425.6594,165.0156 Q425.6594,165.625 425.425,165.8906 Q425.1906,166.1563 424.8156,166.1563 Q424.4719,166.1563 424.2688,165.9531 Q424.0656,165.7656 423.9563,165.25 Q423.9094,164.8906 423.7219,164.7031 Q423.3938,164.3281 422.7844,164.1094 Q422.175,163.8906 421.55,163.8906 Q420.7844,163.8906 420.1438,164.2188 Q419.5188,164.5469 419.0188,165.2969 Q418.5344,166.0469 418.5344,167.0781 L418.5344,168.1719 Q418.5344,169.4063 419.425,170.2344 Q420.3156,171.0469 421.9094,171.0469 Q422.8469,171.0469 423.5031,170.7969 Q423.8938,170.6406 424.3156,170.2031 Q424.5813,169.9375 424.7219,169.8594 Q424.8781,169.7813 425.0813,169.7813 Q425.4094,169.7813 425.6594,170.0469 Q425.925,170.2969 425.925,170.6406 Q425.925,170.9844 425.5813,171.3906 Q425.0813,171.9688 424.2844,172.2969 Q423.2063,172.75 421.9094,172.75 Q420.3938,172.75 419.1906,172.125 Q418.2063,171.625 417.5188,170.5625 Q416.8313,169.4844 416.8313,168.2031 L416.8313,167.0469 Q416.8313,165.7188 417.4406,164.5781 Q418.0656,163.4219 419.1594,162.8125 Q420.2531,162.1875 421.4875,162.1875 Q422.2219,162.1875 422.8625,162.3594 Q423.5188,162.5156 424.0656,162.875 Z " fill="#000000"/><text fill="#000000" font-family="sans-serif" font-size="14" lengthAdjust="spacing" textLength="54" x="438.7" y="172.7285">Location</text><line style="stroke:#181818;stroke-width:0.5;" x1="392" x2="510" y1="183" y2="183"/><text fill="#000000" font-family="sans-serif" font-size="14" lengthAdjust="spacing" textLength="35" x="397" y="201.5332">name</text><text fill="#000000" font-family="sans-serif" font-size="14" lengthAdjust="spacing" textLength="69" x="397" y="219.1426">description</text><line style="stroke:#181818;stroke-width:0.5;" x1="392" x2="510" y1="226.2188" y2="226.2188"/></g><!--link Game to Player--><g id="link_Game_Player"><path codeLine="16" d="M127.08,40 C153.15,40 183.63,40 209.72,40 " fill="none" id="Game-Player" style="stroke:#181818;stroke-width:1.0;"/><polygon fill="#000000" points="144.5,28.1758,153.5451,31.1147,153.5451,25.2369,144.5,28.1758" style="stroke:#000000;stroke-width:1.0;"/><text fill="#000000" font-family="sans-serif" font-size="13" lengthAdjust="spacing" textLength="33" x="158.5" y="33.4951">Plays</text><text fill="#000000" font-family="sans-serif" font-size="13" lengthAdjust="spacing" textLength="7" x="135.1252" y="54.4404">1</text><text fill="#000000" font-family="sans-serif" font-size="13" lengthAdjust="spacing" textLength="20" x="182.0599" y="54.3584">1..*</text></g><!--link Player to Pawn--><g id="link_Player_Pawn"><path codeLine="17" d="M330.08,40 C356.15,40 386.63,40 412.72,40 " fill="none" id="Player-Pawn" style="stroke:#181818;stroke-width:1.0;"/><polygon fill="#000000" points="357.5,28.1758,348.4549,25.2369,348.4549,31.1147,357.5,28.1758" style="stroke:#000000;stroke-width:1.0;"/><text fill="#000000" font-family="sans-serif" font-size="13" lengthAdjust="spacing" textLength="33" x="361.5" y="33.4951">Owns</text><text fill="#000000" font-family="sans-serif" font-size="13" lengthAdjust="spacing" textLength="7" x="338.1252" y="54.463">1</text><text fill="#000000" font-family="sans-serif" font-size="13" lengthAdjust="spacing" textLength="7" x="398.0878" y="54.3893">1</text></g><!--link Game to World--><g id="link_Game_World"><path codeLine="18" d="M87.18,64.19 C109.36,89.66 145.13,130.76 170.01,159.34 " fill="none" id="Game-World" style="stroke:#181818;stroke-width:1.0;"/><polygon fill="#000000" points="145.2829,115.947,141.5607,107.1951,137.1274,111.0544,145.2829,115.947" style="stroke:#000000;stroke-width:1.0;"/><text fill="#000000" font-family="sans-serif" font-size="13" lengthAdjust="spacing" textLength="70" x="151" y="117.4951">Is played on</text><text fill="#000000" font-family="sans-serif" font-size="13" lengthAdjust="spacing" textLength="7" x="84.2458" y="85.5743">1</text><text fill="#000000" font-family="sans-serif" font-size="13" lengthAdjust="spacing" textLength="7" x="138.8652" y="148.4224">1</text></g><!--link World to Location--><g id="link_World_Location"><path codeLine="19" d="M270.16,192.5 C308.28,192.5 354.53,192.5 390.71,192.5 " fill="none" id="World-Location" style="stroke:#181818;stroke-width:1.0;"/><polygon fill="#000000" points="308.5,180.6758,299.4549,177.7369,299.4549,183.6147,308.5,180.6758" style="stroke:#000000;stroke-width:1.0;"/><text fill="#000000" font-family="sans-serif" font-size="13" lengthAdjust="spacing" textLength="49" x="312.5" y="185.9951">contains</text><text fill="#000000" font-family="sans-serif" font-size="13" lengthAdjust="spacing" textLength="7" x="277.9672" y="206.7407">1</text><text fill="#000000" font-family="sans-serif" font-size="13" lengthAdjust="spacing" textLength="5" x="377.9973" y="206.827">*</text></g><!--link Pawn to Location--><g id="link_Pawn_Location"><path codeLine="20" d="M469.61,64.19 C466.24,87.27 460.99,123.18 456.92,150.99 " fill="none" id="Pawn-Location" style="stroke:#181818;stroke-width:1.0;"/><polygon fill="#000000" points="467.2767,117.1232,471.4932,108.5984,465.6772,107.7481,467.2767,117.1232" style="stroke:#000000;stroke-width:1.0;"/><text fill="#000000" font-family="sans-serif" font-size="13" lengthAdjust="spacing" textLength="24" x="477" y="117.4951">is in</text></g><!--link Location to Location--><g id="link_Location_Location"><path codeLine="21" d="M511.3,177.5 C530.66,177.66 546,182.66 546,192.5 C546,202.34 530.66,207.34 511.3,207.5 " fill="none" id="Location-Location" style="stroke:#181818;stroke-width:1.0;"/><text fill="#000000" font-family="sans-serif" font-size="13" lengthAdjust="spacing" textLength="75" x="552" y="197.9951">connected to</text></g><!--SRC=[LL112i8m4Bpd5KkFWiLwBDAB1n4KlNcK9Isuc6vA4oWY_jrDcceR24ncPcU7k2TnXpssS2RU6tJkHhL_GB7TAAN36mxODWbU3RwQ7juAv73WFvE20oTuixsfauUOFA6v6wlHa-NxOkYKs7bW07NZT4zTaCIhGW782X4oMCk58izNsLIcZC31JYLYxeGYYzL0R9U17LHJcXZMerLyO-KIZWww45A3bAhKI8-cVwGSsVxhNeAsx95YUDmbmJELdFo2I3zgASimDzhBIc-_]--></g></svg>