<?xml version="1.0" encoding="us-ascii" standalone="no"?><svg xmlns="http://www.w3.org/2000/svg" xmlns:xlink="http://www.w3.org/1999/xlink" contentStyleType="text/css" height="275px" preserveAspectRatio="none" style="width:742px;height:275px;background:#FFFFFF;" version="1.1" viewBox="0 0 742 275" width="742px" zoomAndPan="magnify"><defs/><g><!--class Subject--><g id="elem_Subject"><rect codeLine="2" fill="#F1F1F1" height="100.8281" id="Subject" rx="2.5" ry="2.5" style="stroke:#181818;stroke-width:0.5;" width="192" x="192.5" y="7"/><ellipse cx="260.75" cy="23" fill="#ADD1B2" rx="11" ry="11" style="stroke:#181818;stroke-width:1.0;"/><path d="M263.5156,18.875 Q263.6719,18.6563 263.8594,18.5469 Q264.0469,18.4375 264.2656,18.4375 Q264.6406,18.4375 264.875,18.7031 Q265.1094,18.9531 265.1094,19.5625 L265.1094,21.0156 Q265.1094,21.625 264.875,21.8906 Q264.6406,22.1563 264.2656,22.1563 Q263.9219,22.1563 263.7188,21.9531 Q263.5156,21.7656 263.4063,21.25 Q263.3594,20.8906 263.1719,20.7031 Q262.8438,20.3281 262.2344,20.1094 Q261.625,19.8906 261,19.8906 Q260.2344,19.8906 259.5938,20.2188 Q258.9688,20.5469 258.4688,21.2969 Q257.9844,22.0469 257.9844,23.0781 L257.9844,24.1719 Q257.9844,25.4063 258.875,26.2344 Q259.7656,27.0469 261.3594,27.0469 Q262.2969,27.0469 262.9531,26.7969 Q263.3438,26.6406 263.7656,26.2031 Q264.0313,25.9375 264.1719,25.8594 Q264.3281,25.7813 264.5313,25.7813 Q264.8594,25.7813 265.1094,26.0469 Q265.375,26.2969 265.375,26.6406 Q265.375,26.9844 265.0313,27.3906 Q264.5313,27.9688 263.7344,28.2969 Q262.6563,28.75 261.3594,28.75 Q259.8438,28.75 258.6406,28.125 Q257.6563,27.625 256.9688,26.5625 Q256.2813,25.4844 256.2813,24.2031 L256.2813,23.0469 Q256.2813,21.7188 256.8906,20.5781 Q257.5156,19.4219 258.6094,18.8125 Q259.7031,18.1875 260.9375,18.1875 Q261.6719,18.1875 262.3125,18.3594 Q262.9688,18.5156 263.5156,18.875 Z " fill="#000000"/><text fill="#000000" font-family="sans-serif" font-size="14" lengthAdjust="spacing" textLength="47" x="281.25" y="28.7285">Subject</text><line style="stroke:#181818;stroke-width:0.5;" x1="193.5" x2="383.5" y1="39" y2="39"/><line style="stroke:#181818;stroke-width:0.5;" x1="193.5" x2="383.5" y1="47" y2="47"/><text fill="#000000" font-family="sans-serif" font-size="14" lengthAdjust="spacing" textLength="176" x="198.5" y="65.5332">attach(observer : Observer)</text><text fill="#000000" font-family="sans-serif" font-size="14" lengthAdjust="spacing" textLength="180" x="198.5" y="83.1426">detach(observer : Observer)</text><text fill="#000000" font-family="sans-serif" font-size="14" lengthAdjust="spacing" textLength="44" x="198.5" y="100.752">notify()</text></g><path d="M6,23 L6,82.0547 A0,0 0 0 0 6,82.0547 L157,82.0547 A0,0 0 0 0 157,82.0547 L157,56.5273 L196.5,95.0234 L157,48.5273 L157,33 L147,23 L6,23 A0,0 0 0 0 6,23 " fill="#FEFFDD" style="stroke:#181818;stroke-width:0.5;"/><path d="M147,23 L147,33 L157,33 L147,23 " fill="#FEFFDD" style="stroke:#181818;stroke-width:0.5;"/><text fill="#000000" font-family="sans-serif" font-size="13" lengthAdjust="spacing" textLength="130" x="12" y="41.4951">for each o in observers</text><text fill="#000000" font-family="sans-serif" font-size="13" lengthAdjust="spacing" textLength="58" x="28" y="57.8467">o.update()</text><text fill="#000000" font-family="sans-serif" font-size="13" lengthAdjust="spacing" textLength="39" x="12" y="74.1982">end for</text><!--class Observer--><g id="elem_Observer"><rect codeLine="14" fill="#F1F1F1" height="65.6094" id="Observer" rx="2.5" ry="2.5" style="stroke:#181818;stroke-width:0.5;" width="90" x="426.5" y="24.5"/><ellipse cx="441.5" cy="40.5" fill="#B4A7E5" rx="11" ry="11" style="stroke:#181818;stroke-width:1.0;"/><path d="M442.4531,37.1406 L442.4531,43.7969 L444.1719,43.7969 Q444.7813,43.7969 445.0469,44.0313 Q445.3125,44.2656 445.3125,44.6563 Q445.3125,45.0313 445.0469,45.2656 Q444.7813,45.5 444.1719,45.5 L439.0313,45.5 Q438.4219,45.5 438.1563,45.2656 Q437.8906,45.0313 437.8906,44.6406 Q437.8906,44.2656 438.1563,44.0313 Q438.4219,43.7969 439.0313,43.7969 L440.75,43.7969 L440.75,37.1406 L439.0313,37.1406 Q438.4219,37.1406 438.1563,36.9063 Q437.8906,36.6719 437.8906,36.2813 Q437.8906,35.9063 438.1563,35.6719 Q438.4219,35.4375 439.0313,35.4375 L444.1719,35.4375 Q444.7813,35.4375 445.0469,35.6719 Q445.3125,35.9063 445.3125,36.2813 Q445.3125,36.6719 445.0469,36.9063 Q444.7813,37.1406 444.1719,37.1406 L442.4531,37.1406 Z " fill="#000000"/><text fill="#000000" font-family="sans-serif" font-size="14" font-style="italic" lengthAdjust="spacing" textLength="58" x="455.5" y="46.2285">Observer</text><line style="stroke:#181818;stroke-width:0.5;" x1="427.5" x2="515.5" y1="56.5" y2="56.5"/><line style="stroke:#181818;stroke-width:0.5;" x1="427.5" x2="515.5" y1="64.5" y2="64.5"/><text fill="#000000" font-family="sans-serif" font-size="14" lengthAdjust="spacing" textLength="54" x="432.5" y="83.0332">update()</text></g><!--class ConcreteSubject--><g id="elem_ConcreteSubject"><rect codeLine="18" fill="#F1F1F1" height="100.8281" id="ConcreteSubject" rx="2.5" ry="2.5" style="stroke:#181818;stroke-width:0.5;" width="137" x="216" y="168"/><ellipse cx="231" cy="184" fill="#ADD1B2" rx="11" ry="11" style="stroke:#181818;stroke-width:1.0;"/><path d="M233.7656,179.875 Q233.9219,179.6563 234.1094,179.5469 Q234.2969,179.4375 234.5156,179.4375 Q234.8906,179.4375 235.125,179.7031 Q235.3594,179.9531 235.3594,180.5625 L235.3594,182.0156 Q235.3594,182.625 235.125,182.8906 Q234.8906,183.1563 234.5156,183.1563 Q234.1719,183.1563 233.9688,182.9531 Q233.7656,182.7656 233.6563,182.25 Q233.6094,181.8906 233.4219,181.7031 Q233.0938,181.3281 232.4844,181.1094 Q231.875,180.8906 231.25,180.8906 Q230.4844,180.8906 229.8438,181.2188 Q229.2188,181.5469 228.7188,182.2969 Q228.2344,183.0469 228.2344,184.0781 L228.2344,185.1719 Q228.2344,186.4063 229.125,187.2344 Q230.0156,188.0469 231.6094,188.0469 Q232.5469,188.0469 233.2031,187.7969 Q233.5938,187.6406 234.0156,187.2031 Q234.2813,186.9375 234.4219,186.8594 Q234.5781,186.7813 234.7813,186.7813 Q235.1094,186.7813 235.3594,187.0469 Q235.625,187.2969 235.625,187.6406 Q235.625,187.9844 235.2813,188.3906 Q234.7813,188.9688 233.9844,189.2969 Q232.9063,189.75 231.6094,189.75 Q230.0938,189.75 228.8906,189.125 Q227.9063,188.625 227.2188,187.5625 Q226.5313,186.4844 226.5313,185.2031 L226.5313,184.0469 Q226.5313,182.7188 227.1406,181.5781 Q227.7656,180.4219 228.8594,179.8125 Q229.9531,179.1875 231.1875,179.1875 Q231.9219,179.1875 232.5625,179.3594 Q233.2188,179.5156 233.7656,179.875 Z " fill="#000000"/><text fill="#000000" font-family="sans-serif" font-size="14" lengthAdjust="spacing" textLength="105" x="245" y="189.7285">ConcreteSubject</text><line style="stroke:#181818;stroke-width:0.5;" x1="217" x2="352" y1="200" y2="200"/><text fill="#000000" font-family="sans-serif" font-size="14" lengthAdjust="spacing" textLength="105" x="222" y="218.5332">subject_state : T</text><line style="stroke:#181818;stroke-width:0.5;" x1="217" x2="352" y1="225.6094" y2="225.6094"/><text fill="#000000" font-family="sans-serif" font-size="14" lengthAdjust="spacing" textLength="90" x="222" y="244.1426">get_state() : T</text><text fill="#000000" font-family="sans-serif" font-size="14" lengthAdjust="spacing" textLength="120" x="222" y="261.752">set_state(state : T)</text></g><path d="M36.5,174 L36.5,200.3516 A0,0 0 0 0 36.5,200.3516 L172.5,200.3516 A0,0 0 0 0 172.5,200.3516 L172.5,192 L220,238.4141 L172.5,184 L172.5,184 L162.5,174 L36.5,174 A0,0 0 0 0 36.5,174 " fill="#FEFFDD" style="stroke:#181818;stroke-width:0.5;"/><path d="M162.5,174 L162.5,184 L172.5,184 L162.5,174 " fill="#FEFFDD" style="stroke:#181818;stroke-width:0.5;"/><text fill="#000000" font-family="sans-serif" font-size="13" lengthAdjust="spacing" textLength="115" x="42.5" y="192.4951">return subject_state</text><path d="M36.5,210.3516 L36.5,253.0547 A0,0 0 0 0 36.5,253.0547 L180.5,253.0547 A0,0 0 0 0 180.5,253.0547 L180.5,235.7031 L220,256.0234 L180.5,227.7031 L180.5,220.3516 L170.5,210.3516 L36.5,210.3516 A0,0 0 0 0 36.5,210.3516 " fill="#FEFFDD" style="stroke:#181818;stroke-width:0.5;"/><path d="M170.5,210.3516 L170.5,220.3516 L180.5,220.3516 L170.5,210.3516 " fill="#FEFFDD" style="stroke:#181818;stroke-width:0.5;"/><text fill="#000000" font-family="sans-serif" font-size="13" lengthAdjust="spacing" textLength="123" x="42.5" y="228.8467">subject_state = state</text><text fill="#000000" font-family="sans-serif" font-size="13" lengthAdjust="spacing" textLength="39" x="42.5" y="245.1982">notify()</text><!--class ConcreteObserver--><g id="elem_ConcreteObserver"><rect codeLine="33" fill="#F1F1F1" height="100.8281" id="ConcreteObserver" rx="2.5" ry="2.5" style="stroke:#181818;stroke-width:0.5;" width="174" x="388.5" y="168"/><ellipse cx="414.75" cy="184" fill="#ADD1B2" rx="11" ry="11" style="stroke:#181818;stroke-width:1.0;"/><path d="M417.5156,179.875 Q417.6719,179.6563 417.8594,179.5469 Q418.0469,179.4375 418.2656,179.4375 Q418.6406,179.4375 418.875,179.7031 Q419.1094,179.9531 419.1094,180.5625 L419.1094,182.0156 Q419.1094,182.625 418.875,182.8906 Q418.6406,183.1563 418.2656,183.1563 Q417.9219,183.1563 417.7188,182.9531 Q417.5156,182.7656 417.4063,182.25 Q417.3594,181.8906 417.1719,181.7031 Q416.8438,181.3281 416.2344,181.1094 Q415.625,180.8906 415,180.8906 Q414.2344,180.8906 413.5938,181.2188 Q412.9688,181.5469 412.4688,182.2969 Q411.9844,183.0469 411.9844,184.0781 L411.9844,185.1719 Q411.9844,186.4063 412.875,187.2344 Q413.7656,188.0469 415.3594,188.0469 Q416.2969,188.0469 416.9531,187.7969 Q417.3438,187.6406 417.7656,187.2031 Q418.0313,186.9375 418.1719,186.8594 Q418.3281,186.7813 418.5313,186.7813 Q418.8594,186.7813 419.1094,187.0469 Q419.375,187.2969 419.375,187.6406 Q419.375,187.9844 419.0313,188.3906 Q418.5313,188.9688 417.7344,189.2969 Q416.6563,189.75 415.3594,189.75 Q413.8438,189.75 412.6406,189.125 Q411.6563,188.625 410.9688,187.5625 Q410.2813,186.4844 410.2813,185.2031 L410.2813,184.0469 Q410.2813,182.7188 410.8906,181.5781 Q411.5156,180.4219 412.6094,179.8125 Q413.7031,179.1875 414.9375,179.1875 Q415.6719,179.1875 416.3125,179.3594 Q416.9688,179.5156 417.5156,179.875 Z " fill="#000000"/><text fill="#000000" font-family="sans-serif" font-size="14" lengthAdjust="spacing" textLength="117" x="431.25" y="189.7285">ConcreteObserver</text><line style="stroke:#181818;stroke-width:0.5;" x1="389.5" x2="561.5" y1="200" y2="200"/><text fill="#000000" font-family="sans-serif" font-size="14" lengthAdjust="spacing" textLength="116" x="394.5" y="218.5332">observer_state : T</text><text fill="#000000" font-family="sans-serif" font-size="14" lengthAdjust="spacing" textLength="162" x="394.5" y="236.1426">subject : ConcreteSubject</text><line style="stroke:#181818;stroke-width:0.5;" x1="389.5" x2="561.5" y1="243.2188" y2="243.2188"/><text fill="#000000" font-family="sans-serif" font-size="14" lengthAdjust="spacing" textLength="54" x="394.5" y="261.752">update()</text></g><path d="M598,192 L598,209.3516 L448.5,256.0234 L598,217.3516 L598,234.7031 A0,0 0 0 0 598,234.7031 L735,234.7031 A0,0 0 0 0 735,234.7031 L735,202 L725,192 L598,192 A0,0 0 0 0 598,192 " fill="#FEFFDD" style="stroke:#181818;stroke-width:0.5;"/><path d="M725,192 L725,202 L735,202 L725,192 " fill="#FEFFDD" style="stroke:#181818;stroke-width:0.5;"/><text fill="#000000" font-family="sans-serif" font-size="13" lengthAdjust="spacing" textLength="96" x="604" y="210.4951">observer_state =</text><text fill="#000000" font-family="sans-serif" font-size="13" lengthAdjust="spacing" textLength="108" x="612" y="226.8467">subject.get_state()</text><!--link Subject to Observer--><g id="link_Subject_Observer"><path codeLine="44" d="M384.65,57.5 C398.56,57.5 406.47,57.5 420.38,57.5 " fill="none" id="Subject-to-Observer" style="stroke:#181818;stroke-width:1.0;"/><polygon fill="#181818" points="426.38,57.5,417.38,53.5,421.38,57.5,417.38,61.5,426.38,57.5" style="stroke:#181818;stroke-width:1.0;"/><text fill="#000000" font-family="sans-serif" font-size="13" lengthAdjust="spacing" textLength="5" x="413.4929" y="53.7316">*</text></g><!--reverse link Subject to ConcreteSubject--><g id="link_Subject_ConcreteSubject"><path codeLine="45" d="M286.7942,126.3642 C286.3142,145.3142 286.23,148.88 285.75,167.8 " fill="none" id="Subject-backto-ConcreteSubject" style="stroke:#181818;stroke-width:1.0;"/><polygon fill="none" points="287.25,108.37,280.7961,126.2123,292.7923,126.5162,287.25,108.37" style="stroke:#181818;stroke-width:1.0;"/></g><!--reverse link Observer to ConcreteObserver--><g id="link_Observer_ConcreteObserver"><path codeLine="46" d="M472.7651,108.6742 C473.3251,130.8142 473.62,142.66 474.25,167.83 " fill="none" id="Observer-backto-ConcreteObserver" style="stroke:#181818;stroke-width:1.0;stroke-dasharray:7.0,7.0;"/><polygon fill="none" points="472.31,90.68,466.7671,108.826,478.7632,108.5225,472.31,90.68" style="stroke:#181818;stroke-width:1.0;"/></g><!--reverse link ConcreteSubject to ConcreteObserver--><g id="link_ConcreteSubject_ConcreteObserver"><path codeLine="47" d="M359.14,218.5 C370.77,218.5 376.4,218.5 388.03,218.5 " fill="none" id="ConcreteSubject-backto-ConcreteObserver" style="stroke:#181818;stroke-width:1.0;"/><polygon fill="#181818" points="353.14,218.5,362.14,222.5,358.14,218.5,362.14,214.5,353.14,218.5" style="stroke:#181818;stroke-width:1.0;"/></g><!--SRC=[VL9BRiCW4DrpYb5MTYNx0CZffWVeejbN10-9gmWgm8sYfdSlnlR4W1GsXfd7-moM5-4SV8p7BvGUVXc49RmNyboPeqFxWnOul2_RElPxVDxNnW_gLjNiZx6mHxYWyc3KAiFvZ8XWPInWe0C3WuQLqyNUj4mxVlV2OpLpe-wdAspwJjoC3TgZLK8YkLXYqBrWGyQORqPBYnxJk6u-VJeVu27C8LPFk5IgccgEQeGjGsOYd1DJv0YjqUfKT9FcEPLBg5BZUtXqw0KUnEa4ib6jOyzci0Y4S-Qac6-qROVJEV6zgd0-OrccisUaqMxclN6zlbJp2hkN7RqmrRjxqnJcA5ntRtjprMrXYEL_GjUKc7y0]--></g></svg>