<?xml version="1.0" encoding="us-ascii" standalone="no"?><svg xmlns="http://www.w3.org/2000/svg" xmlns:xlink="http://www.w3.org/1999/xlink" contentStyleType="text/css" height="536px" preserveAspectRatio="none" style="width:553px;height:536px;background:#FFFFFF;" version="1.1" viewBox="0 0 553 536" width="553px" zoomAndPan="magnify"><defs/><g><!--cluster adventure::v3c--><g id="cluster_adventure::v3c"><path d="M8.5,6 L115.5,6 A3.75,3.75 0 0 1 118,8.5 L125,29.6094 L543.5,29.6094 A2.5,2.5 0 0 1 546,32.1094 L546,526.5 A2.5,2.5 0 0 1 543.5,529 L8.5,529 A2.5,2.5 0 0 1 6,526.5 L6,8.5 A2.5,2.5 0 0 1 8.5,6 " fill="none" style="stroke:#000000;stroke-width:1.5;"/><line style="stroke:#000000;stroke-width:1.5;" x1="6" x2="125" y1="29.6094" y2="29.6094"/><text fill="#000000" font-family="sans-serif" font-size="14" font-weight="bold" lengthAdjust="spacing" textLength="106" x="10" y="22.5332">adventure::v3c</text></g><!--class Action--><g id="elem_Action"><rect codeLine="5" fill="#ADD8E6" height="83.2188" id="Action" rx="2.5" ry="2.5" style="stroke:#00008B;stroke-width:2.0;" width="171" x="329.5" y="313"/><ellipse cx="391.25" cy="329" fill="#A9DCDF" rx="11" ry="11" style="stroke:#181818;stroke-width:1.0;"/><path d="M393.4375,330.7656 L389.2969,330.7656 L388.875,331.7969 L389.2969,331.7969 Q389.9063,331.7969 390.1719,332.0313 Q390.4375,332.2656 390.4375,332.6563 Q390.4375,333.0313 390.1719,333.2656 Q389.9063,333.5 389.2969,333.5 L387,333.5 Q386.3906,333.5 386.1406,333.2656 Q385.875,333.0313 385.875,332.6406 Q385.875,332.2656 386.1563,332.0313 Q386.4219,331.7813 387.0469,331.7969 L389.7188,325.1406 L388.6094,325.1406 Q388,325.1406 387.7344,324.9063 Q387.4688,324.6719 387.4688,324.2813 Q387.4688,323.9063 387.7344,323.6719 Q388,323.4375 388.6094,323.4375 L392.2813,323.4375 L395.6719,331.7969 Q396.2656,331.7969 396.4531,331.9375 Q396.8438,332.2031 396.8438,332.6563 Q396.8438,333.0313 396.5781,333.2656 Q396.3281,333.5 395.7188,333.5 L393.4219,333.5 Q392.8125,333.5 392.5469,333.2656 Q392.2813,333.0313 392.2813,332.6406 Q392.2813,332.2656 392.5469,332.0313 Q392.8125,331.7969 393.4219,331.7969 L393.8438,331.7969 L393.4375,330.7656 Z M392.7188,329.0625 L391.3594,325.6875 L389.9844,329.0625 L392.7188,329.0625 Z " fill="#000000"/><text fill="#000000" font-family="sans-serif" font-size="14" font-style="italic" lengthAdjust="spacing" textLength="39" x="411.75" y="334.7285">Action</text><line style="stroke:#00008B;stroke-width:2.0;" x1="330.5" x2="499.5" y1="345" y2="345"/><ellipse cx="340.5" cy="359.3047" fill="none" rx="3" ry="3" style="stroke:#038048;stroke-width:1.0;"/><text fill="#000000" font-family="sans-serif" font-size="14" font-style="italic" lengthAdjust="spacing" textLength="112" x="349.5" y="363.5332">description: string</text><line style="stroke:#00008B;stroke-width:2.0;" x1="330.5" x2="499.5" y1="370.6094" y2="370.6094"/><text fill="#000000" font-family="sans-serif" font-size="14" font-style="italic" lengthAdjust="spacing" textLength="159" x="335.5" y="389.1426">perform(instigator: Pawn)</text></g><!--class   MoveAction  --><g id="elem_  MoveAction  "><rect codeLine="10" fill="#ADD8E6" height="48" id="  MoveAction  " rx="2.5" ry="2.5" style="stroke:#00008B;stroke-width:2.0;" width="121" x="219.5" y="457"/><ellipse cx="234.5" cy="473" fill="#ADD1B2" rx="11" ry="11" style="stroke:#181818;stroke-width:1.0;"/><path d="M237.2656,468.875 Q237.4219,468.6563 237.6094,468.5469 Q237.7969,468.4375 238.0156,468.4375 Q238.3906,468.4375 238.625,468.7031 Q238.8594,468.9531 238.8594,469.5625 L238.8594,471.0156 Q238.8594,471.625 238.625,471.8906 Q238.3906,472.1563 238.0156,472.1563 Q237.6719,472.1563 237.4688,471.9531 Q237.2656,471.7656 237.1563,471.25 Q237.1094,470.8906 236.9219,470.7031 Q236.5938,470.3281 235.9844,470.1094 Q235.375,469.8906 234.75,469.8906 Q233.9844,469.8906 233.3438,470.2188 Q232.7188,470.5469 232.2188,471.2969 Q231.7344,472.0469 231.7344,473.0781 L231.7344,474.1719 Q231.7344,475.4063 232.625,476.2344 Q233.5156,477.0469 235.1094,477.0469 Q236.0469,477.0469 236.7031,476.7969 Q237.0938,476.6406 237.5156,476.2031 Q237.7813,475.9375 237.9219,475.8594 Q238.0781,475.7813 238.2813,475.7813 Q238.6094,475.7813 238.8594,476.0469 Q239.125,476.2969 239.125,476.6406 Q239.125,476.9844 238.7813,477.3906 Q238.2813,477.9688 237.4844,478.2969 Q236.4063,478.75 235.1094,478.75 Q233.5938,478.75 232.3906,478.125 Q231.4063,477.625 230.7188,476.5625 Q230.0313,475.4844 230.0313,474.2031 L230.0313,473.0469 Q230.0313,471.7188 230.6406,470.5781 Q231.2656,469.4219 232.3594,468.8125 Q233.4531,468.1875 234.6875,468.1875 Q235.4219,468.1875 236.0625,468.3594 Q236.7188,468.5156 237.2656,468.875 Z " fill="#000000"/><text fill="#000000" font-family="sans-serif" font-size="14" lengthAdjust="spacing" textLength="73" x="256.5" y="478.7285">MoveAction</text><line style="stroke:#00008B;stroke-width:2.0;" x1="220.5" x2="339.5" y1="489" y2="489"/><line style="stroke:#00008B;stroke-width:2.0;" x1="220.5" x2="339.5" y1="497" y2="497"/></g><!--class  SkipTurnAction --><g id="elem_ SkipTurnAction "><rect codeLine="14" fill="#ADD8E6" height="48" id=" SkipTurnAction " rx="2.5" ry="2.5" style="stroke:#00008B;stroke-width:2.0;" width="136" x="376" y="457"/><ellipse cx="391" cy="473" fill="#ADD1B2" rx="11" ry="11" style="stroke:#181818;stroke-width:1.0;"/><path d="M393.7656,468.875 Q393.9219,468.6563 394.1094,468.5469 Q394.2969,468.4375 394.5156,468.4375 Q394.8906,468.4375 395.125,468.7031 Q395.3594,468.9531 395.3594,469.5625 L395.3594,471.0156 Q395.3594,471.625 395.125,471.8906 Q394.8906,472.1563 394.5156,472.1563 Q394.1719,472.1563 393.9688,471.9531 Q393.7656,471.7656 393.6563,471.25 Q393.6094,470.8906 393.4219,470.7031 Q393.0938,470.3281 392.4844,470.1094 Q391.875,469.8906 391.25,469.8906 Q390.4844,469.8906 389.8438,470.2188 Q389.2188,470.5469 388.7188,471.2969 Q388.2344,472.0469 388.2344,473.0781 L388.2344,474.1719 Q388.2344,475.4063 389.125,476.2344 Q390.0156,477.0469 391.6094,477.0469 Q392.5469,477.0469 393.2031,476.7969 Q393.5938,476.6406 394.0156,476.2031 Q394.2813,475.9375 394.4219,475.8594 Q394.5781,475.7813 394.7813,475.7813 Q395.1094,475.7813 395.3594,476.0469 Q395.625,476.2969 395.625,476.6406 Q395.625,476.9844 395.2813,477.3906 Q394.7813,477.9688 393.9844,478.2969 Q392.9063,478.75 391.6094,478.75 Q390.0938,478.75 388.8906,478.125 Q387.9063,477.625 387.2188,476.5625 Q386.5313,475.4844 386.5313,474.2031 L386.5313,473.0469 Q386.5313,471.7188 387.1406,470.5781 Q387.7656,469.4219 388.8594,468.8125 Q389.9531,468.1875 391.1875,468.1875 Q391.9219,468.1875 392.5625,468.3594 Q393.2188,468.5156 393.7656,468.875 Z " fill="#000000"/><text fill="#000000" font-family="sans-serif" font-size="14" lengthAdjust="spacing" textLength="96" x="409" y="478.7285">SkipTurnAction</text><line style="stroke:#00008B;stroke-width:2.0;" x1="377" x2="511" y1="489" y2="489"/><line style="stroke:#00008B;stroke-width:2.0;" x1="377" x2="511" y1="497" y2="497"/></g><!--class Pawn--><g id="elem_Pawn"><rect codeLine="19" fill="#F1F1F1" height="100.8281" id="Pawn" rx="2.5" ry="2.5" style="stroke:#181818;stroke-width:0.5;" width="173" x="190.5" y="151"/><ellipse cx="255.75" cy="167" fill="#ADD1B2" rx="11" ry="11" style="stroke:#181818;stroke-width:1.0;"/><path d="M258.5156,162.875 Q258.6719,162.6563 258.8594,162.5469 Q259.0469,162.4375 259.2656,162.4375 Q259.6406,162.4375 259.875,162.7031 Q260.1094,162.9531 260.1094,163.5625 L260.1094,165.0156 Q260.1094,165.625 259.875,165.8906 Q259.6406,166.1563 259.2656,166.1563 Q258.9219,166.1563 258.7188,165.9531 Q258.5156,165.7656 258.4063,165.25 Q258.3594,164.8906 258.1719,164.7031 Q257.8438,164.3281 257.2344,164.1094 Q256.625,163.8906 256,163.8906 Q255.2344,163.8906 254.5938,164.2188 Q253.9688,164.5469 253.4688,165.2969 Q252.9844,166.0469 252.9844,167.0781 L252.9844,168.1719 Q252.9844,169.4063 253.875,170.2344 Q254.7656,171.0469 256.3594,171.0469 Q257.2969,171.0469 257.9531,170.7969 Q258.3438,170.6406 258.7656,170.2031 Q259.0313,169.9375 259.1719,169.8594 Q259.3281,169.7813 259.5313,169.7813 Q259.8594,169.7813 260.1094,170.0469 Q260.375,170.2969 260.375,170.6406 Q260.375,170.9844 260.0313,171.3906 Q259.5313,171.9688 258.7344,172.2969 Q257.6563,172.75 256.3594,172.75 Q254.8438,172.75 253.6406,172.125 Q252.6563,171.625 251.9688,170.5625 Q251.2813,169.4844 251.2813,168.2031 L251.2813,167.0469 Q251.2813,165.7188 251.8906,164.5781 Q252.5156,163.4219 253.6094,162.8125 Q254.7031,162.1875 255.9375,162.1875 Q256.6719,162.1875 257.3125,162.3594 Q257.9688,162.5156 258.5156,162.875 Z " fill="#000000"/><text fill="#000000" font-family="sans-serif" font-size="14" lengthAdjust="spacing" textLength="34" x="276.25" y="172.7285">Pawn</text><line style="stroke:#181818;stroke-width:0.5;" x1="191.5" x2="362.5" y1="183" y2="183"/><text fill="#000000" font-family="sans-serif" font-size="14" lengthAdjust="spacing" textLength="59" x="196.5" y="201.5332">name: str</text><text fill="#000000" font-family="sans-serif" font-size="14" lengthAdjust="spacing" textLength="111" x="196.5" y="219.1426">location: Location</text><line style="stroke:#181818;stroke-width:0.5;" x1="191.5" x2="362.5" y1="226.2188" y2="226.2188"/><text fill="#000000" font-family="sans-serif" font-size="14" font-weight="bold" lengthAdjust="spacing" textLength="161" x="196.5" y="244.752">perform(action: Action)</text></g><path d="M398.5,183.5 L398.5,192.6758 L357.5,239.0234 L398.5,200.6758 L398.5,209.8516 A0,0 0 0 0 398.5,209.8516 L529.5,209.8516 A0,0 0 0 0 529.5,209.8516 L529.5,193.5 L519.5,183.5 L398.5,183.5 A0,0 0 0 0 398.5,183.5 " fill="#FEFFDD" style="stroke:#181818;stroke-width:0.5;"/><path d="M519.5,183.5 L519.5,193.5 L529.5,193.5 L519.5,183.5 " fill="#FEFFDD" style="stroke:#181818;stroke-width:0.5;"/><text fill="#000000" font-family="sans-serif" font-size="13" lengthAdjust="spacing" textLength="110" x="404.5" y="201.9951">action.perform(self)</text><!--class     Location    --><g id="elem_    Location    "><rect codeLine="31" fill="#F1F1F1" height="48" id="    Location    " rx="2.5" ry="2.5" style="stroke:#181818;stroke-width:0.5;" width="118" x="30" y="330.5"/><ellipse cx="45" cy="346.5" fill="#ADD1B2" rx="11" ry="11" style="stroke:#181818;stroke-width:1.0;"/><path d="M47.7656,342.375 Q47.9219,342.1563 48.1094,342.0469 Q48.2969,341.9375 48.5156,341.9375 Q48.8906,341.9375 49.125,342.2031 Q49.3594,342.4531 49.3594,343.0625 L49.3594,344.5156 Q49.3594,345.125 49.125,345.3906 Q48.8906,345.6563 48.5156,345.6563 Q48.1719,345.6563 47.9688,345.4531 Q47.7656,345.2656 47.6563,344.75 Q47.6094,344.3906 47.4219,344.2031 Q47.0938,343.8281 46.4844,343.6094 Q45.875,343.3906 45.25,343.3906 Q44.4844,343.3906 43.8438,343.7188 Q43.2188,344.0469 42.7188,344.7969 Q42.2344,345.5469 42.2344,346.5781 L42.2344,347.6719 Q42.2344,348.9063 43.125,349.7344 Q44.0156,350.5469 45.6094,350.5469 Q46.5469,350.5469 47.2031,350.2969 Q47.5938,350.1406 48.0156,349.7031 Q48.2813,349.4375 48.4219,349.3594 Q48.5781,349.2813 48.7813,349.2813 Q49.1094,349.2813 49.3594,349.5469 Q49.625,349.7969 49.625,350.1406 Q49.625,350.4844 49.2813,350.8906 Q48.7813,351.4688 47.9844,351.7969 Q46.9063,352.25 45.6094,352.25 Q44.0938,352.25 42.8906,351.625 Q41.9063,351.125 41.2188,350.0625 Q40.5313,348.9844 40.5313,347.7031 L40.5313,346.5469 Q40.5313,345.2188 41.1406,344.0781 Q41.7656,342.9219 42.8594,342.3125 Q43.9531,341.6875 45.1875,341.6875 Q45.9219,341.6875 46.5625,341.8594 Q47.2188,342.0156 47.7656,342.375 Z " fill="#000000"/><text fill="#000000" font-family="sans-serif" font-size="14" lengthAdjust="spacing" textLength="54" x="75" y="352.2285">Location</text><line style="stroke:#181818;stroke-width:0.5;" x1="31" x2="147" y1="362.5" y2="362.5"/><line style="stroke:#181818;stroke-width:0.5;" x1="31" x2="147" y1="370.5" y2="370.5"/></g><!--class         World        --><g id="elem_        World        "><rect codeLine="35" fill="#F1F1F1" height="48" id="        World        " rx="2.5" ry="2.5" style="stroke:#181818;stroke-width:0.5;" width="133" x="22.5" y="177.5"/><ellipse cx="37.5" cy="193.5" fill="#ADD1B2" rx="11" ry="11" style="stroke:#181818;stroke-width:1.0;"/><path d="M40.2656,189.375 Q40.4219,189.1563 40.6094,189.0469 Q40.7969,188.9375 41.0156,188.9375 Q41.3906,188.9375 41.625,189.2031 Q41.8594,189.4531 41.8594,190.0625 L41.8594,191.5156 Q41.8594,192.125 41.625,192.3906 Q41.3906,192.6563 41.0156,192.6563 Q40.6719,192.6563 40.4688,192.4531 Q40.2656,192.2656 40.1563,191.75 Q40.1094,191.3906 39.9219,191.2031 Q39.5938,190.8281 38.9844,190.6094 Q38.375,190.3906 37.75,190.3906 Q36.9844,190.3906 36.3438,190.7188 Q35.7188,191.0469 35.2188,191.7969 Q34.7344,192.5469 34.7344,193.5781 L34.7344,194.6719 Q34.7344,195.9063 35.625,196.7344 Q36.5156,197.5469 38.1094,197.5469 Q39.0469,197.5469 39.7031,197.2969 Q40.0938,197.1406 40.5156,196.7031 Q40.7813,196.4375 40.9219,196.3594 Q41.0781,196.2813 41.2813,196.2813 Q41.6094,196.2813 41.8594,196.5469 Q42.125,196.7969 42.125,197.1406 Q42.125,197.4844 41.7813,197.8906 Q41.2813,198.4688 40.4844,198.7969 Q39.4063,199.25 38.1094,199.25 Q36.5938,199.25 35.3906,198.625 Q34.4063,198.125 33.7188,197.0625 Q33.0313,195.9844 33.0313,194.7031 L33.0313,193.5469 Q33.0313,192.2188 33.6406,191.0781 Q34.2656,189.9219 35.3594,189.3125 Q36.4531,188.6875 37.6875,188.6875 Q38.4219,188.6875 39.0625,188.8594 Q39.7188,189.0156 40.2656,189.375 Z " fill="#000000"/><text fill="#000000" font-family="sans-serif" font-size="14" lengthAdjust="spacing" textLength="37" x="83.5" y="199.2285">World</text><line style="stroke:#181818;stroke-width:0.5;" x1="23.5" x2="154.5" y1="209.5" y2="209.5"/><line style="stroke:#181818;stroke-width:0.5;" x1="23.5" x2="154.5" y1="217.5" y2="217.5"/></g><!--class WorldFactory--><g id="elem_WorldFactory"><rect codeLine="41" fill="#F1F1F1" height="48" id="WorldFactory" rx="2.5" ry="2.5" style="stroke:#181818;stroke-width:0.5;" width="117" x="30.5" y="42"/><ellipse cx="45.5" cy="58" fill="#ADD1B2" rx="11" ry="11" style="stroke:#181818;stroke-width:1.0;"/><path d="M48.2656,53.875 Q48.4219,53.6563 48.6094,53.5469 Q48.7969,53.4375 49.0156,53.4375 Q49.3906,53.4375 49.625,53.7031 Q49.8594,53.9531 49.8594,54.5625 L49.8594,56.0156 Q49.8594,56.625 49.625,56.8906 Q49.3906,57.1563 49.0156,57.1563 Q48.6719,57.1563 48.4688,56.9531 Q48.2656,56.7656 48.1563,56.25 Q48.1094,55.8906 47.9219,55.7031 Q47.5938,55.3281 46.9844,55.1094 Q46.375,54.8906 45.75,54.8906 Q44.9844,54.8906 44.3438,55.2188 Q43.7188,55.5469 43.2188,56.2969 Q42.7344,57.0469 42.7344,58.0781 L42.7344,59.1719 Q42.7344,60.4063 43.625,61.2344 Q44.5156,62.0469 46.1094,62.0469 Q47.0469,62.0469 47.7031,61.7969 Q48.0938,61.6406 48.5156,61.2031 Q48.7813,60.9375 48.9219,60.8594 Q49.0781,60.7813 49.2813,60.7813 Q49.6094,60.7813 49.8594,61.0469 Q50.125,61.2969 50.125,61.6406 Q50.125,61.9844 49.7813,62.3906 Q49.2813,62.9688 48.4844,63.2969 Q47.4063,63.75 46.1094,63.75 Q44.5938,63.75 43.3906,63.125 Q42.4063,62.625 41.7188,61.5625 Q41.0313,60.4844 41.0313,59.2031 L41.0313,58.0469 Q41.0313,56.7188 41.6406,55.5781 Q42.2656,54.4219 43.3594,53.8125 Q44.4531,53.1875 45.6875,53.1875 Q46.4219,53.1875 47.0625,53.3594 Q47.7188,53.5156 48.2656,53.875 Z " fill="#000000"/><text fill="#000000" font-family="sans-serif" font-size="14" lengthAdjust="spacing" textLength="85" x="59.5" y="63.7285">WorldFactory</text><line style="stroke:#181818;stroke-width:0.5;" x1="31.5" x2="146.5" y1="74" y2="74"/><line style="stroke:#181818;stroke-width:0.5;" x1="31.5" x2="146.5" y1="82" y2="82"/></g><!--reverse link Action to   MoveAction  --><g id="link_Action_  MoveAction  "><path codeLine="12" d="M357.5675,408.4725 C335.7275,428.6125 323.41,439.97 304.99,456.96 " fill="none" id="Action-backto-  MoveAction  " style="stroke:#181818;stroke-width:1.0;"/><polygon fill="none" points="370.8,396.27,353.5,404.0617,361.635,412.8833,370.8,396.27" style="stroke:#181818;stroke-width:1.0;"/></g><!--reverse link Action to  SkipTurnAction --><g id="link_Action_ SkipTurnAction "><path codeLine="16" d="M428.5824,413.8009 C433.2724,433.9409 434.67,439.97 438.63,456.96 " fill="none" id="Action-backto- SkipTurnAction " style="stroke:#181818;stroke-width:1.0;"/><polygon fill="none" points="424.5,396.27,422.7388,415.1617,434.4261,412.4401,424.5,396.27" style="stroke:#181818;stroke-width:1.0;"/></g><!--link Pawn to Action--><g id="link_Pawn_Action"><path codeLine="29" d="M322.57,252.36 C340.47,271.95 356.7134,289.72 373.7034,308.32 " fill="none" id="Pawn-to-Action" style="stroke:#181818;stroke-width:1.0;stroke-dasharray:7.0,7.0;"/><polygon fill="#181818" points="377.75,312.75,374.6335,303.4072,374.3779,309.0583,368.7268,308.8027,377.75,312.75" style="stroke:#181818;stroke-width:1.0;"/></g><!--reverse link     Location     to     Location    --><g id="link_    Location    _    Location    "><path codeLine="33" d="M160.2099,341.0434 C179.5799,341.1134 183,345.57 183,354.5 C183,363.43 167.58,367.93 148.21,368 " fill="none" id="    Location    -backto-    Location    " style="stroke:#181818;stroke-width:1.0;"/><polygon fill="none" points="148.21,341,154.1955,345.0217,160.2099,341.0434,154.2244,337.0217,148.21,341" style="stroke:#181818;stroke-width:1.0;"/><text fill="#000000" font-family="sans-serif" font-size="13" lengthAdjust="spacing" textLength="116" x="189" y="359.9951">connectedLocations</text></g><!--link         World         to     Location    --><g id="link_        World        _    Location    "><path codeLine="38" d="M89,237.76 C89,266.22 89,296.1 89,324.46 " fill="none" id="        World        -    Location    " style="stroke:#181818;stroke-width:1.0;"/><polygon fill="#181818" points="89,225.76,85,231.76,89,237.76,93,231.76,89,225.76" style="stroke:#181818;stroke-width:1.0;"/><polygon fill="#181818" points="89,330.46,93,321.46,89,325.46,85,321.46,89,330.46" style="stroke:#181818;stroke-width:1.0;"/></g><!--link Pawn to     Location    --><g id="link_Pawn_    Location    "><path codeLine="39" d="M215.18,252.15 C182.33,278.54 148.1878,305.9626 122.3678,326.7026 " fill="none" id="Pawn-to-    Location    " style="stroke:#181818;stroke-width:1.0;"/><polygon fill="#181818" points="117.69,330.46,127.2116,327.9424,121.5882,327.3288,122.2017,321.7053,117.69,330.46" style="stroke:#181818;stroke-width:1.0;"/></g><!--link WorldFactory to         World        --><g id="link_WorldFactory_        World        "><path codeLine="44" d="M89,90.25 C89,114.61 89,146.64 89,171.06 " fill="none" id="WorldFactory-to-        World        " style="stroke:#181818;stroke-width:1.0;stroke-dasharray:7.0,7.0;"/><polygon fill="#181818" points="89,177.06,93,168.06,89,172.06,85,168.06,89,177.06" style="stroke:#181818;stroke-width:1.0;"/></g><!--SRC=[fL4zJyCm4DtpAqvXeQ24WSrKaK282IGaa9WTvvfQTUt8TefGo7_7YPFKKTgXugRpVRptxhcYR4TBX9WM1vIsraZ8uPx5q4GHkB2gHBj5xTum1isDrPHPO88Q0u_CSYNXId29QQv4GPwftZs96XzoXqu4BxSsTyyGmyKjD2DI2mKQfddL8H5mHIxBsN0mMg7UABs_vj9ONbAhD85t-YrNqq8RJQcN60EygGCEIjtp8h7jb2rmahfAVhF1WYNhnuvNdxMMmy8_U1T8S-RWQi_T6H90IRh7tjUf8XIZtktN8PjQwpmRFQRCptYQrVekpq8kgIo2xgI3slISX0oh4vg7I4T4WsBZVmfbqGDugE6mTLfNQOyKNXDtwQZJ6z94HujEj5MId2WJO4fAP1QBiMuMF5ryAIsAe_jDUFIvePiaoKvmzZlzTvpf1_mzuejpJEcVEUciawRPEHLH-mS0]--></g></svg>