<?xml version="1.0" encoding="us-ascii" standalone="no"?><svg xmlns="http://www.w3.org/2000/svg" xmlns:xlink="http://www.w3.org/1999/xlink" contentStyleType="text/css" height="705px" preserveAspectRatio="none" style="width:837px;height:705px;background:#FFFFFF;" version="1.1" viewBox="0 0 837 705" width="837px" zoomAndPan="magnify"><defs/><g><!--cluster adventure::v4c--><g id="cluster_adventure::v4c"><path d="M8.5,6 L115.5,6 A3.75,3.75 0 0 1 118,8.5 L125,29.6094 L827.5,29.6094 A2.5,2.5 0 0 1 830,32.1094 L830,695.5 A2.5,2.5 0 0 1 827.5,698 L8.5,698 A2.5,2.5 0 0 1 6,695.5 L6,8.5 A2.5,2.5 0 0 1 8.5,6 " fill="none" style="stroke:#000000;stroke-width:1.5;"/><line style="stroke:#000000;stroke-width:1.5;" x1="6" x2="125" y1="29.6094" y2="29.6094"/><text fill="#000000" font-family="sans-serif" font-size="14" font-weight="bold" lengthAdjust="spacing" textLength="106" x="10" y="22.5332">adventure::v4c</text></g><!--class Action--><g id="elem_Action"><rect codeLine="5" fill="#F1F1F1" height="83.2188" id="Action" rx="2.5" ry="2.5" style="stroke:#181818;stroke-width:0.5;" width="171" x="642.5" y="318.5"/><ellipse cx="704.25" cy="334.5" fill="#ADD1B2" rx="11" ry="11" style="stroke:#181818;stroke-width:1.0;"/><path d="M707.0156,330.375 Q707.1719,330.1563 707.3594,330.0469 Q707.5469,329.9375 707.7656,329.9375 Q708.1406,329.9375 708.375,330.2031 Q708.6094,330.4531 708.6094,331.0625 L708.6094,332.5156 Q708.6094,333.125 708.375,333.3906 Q708.1406,333.6563 707.7656,333.6563 Q707.4219,333.6563 707.2188,333.4531 Q707.0156,333.2656 706.9063,332.75 Q706.8594,332.3906 706.6719,332.2031 Q706.3438,331.8281 705.7344,331.6094 Q705.125,331.3906 704.5,331.3906 Q703.7344,331.3906 703.0938,331.7188 Q702.4688,332.0469 701.9688,332.7969 Q701.4844,333.5469 701.4844,334.5781 L701.4844,335.6719 Q701.4844,336.9063 702.375,337.7344 Q703.2656,338.5469 704.8594,338.5469 Q705.7969,338.5469 706.4531,338.2969 Q706.8438,338.1406 707.2656,337.7031 Q707.5313,337.4375 707.6719,337.3594 Q707.8281,337.2813 708.0313,337.2813 Q708.3594,337.2813 708.6094,337.5469 Q708.875,337.7969 708.875,338.1406 Q708.875,338.4844 708.5313,338.8906 Q708.0313,339.4688 707.2344,339.7969 Q706.1563,340.25 704.8594,340.25 Q703.3438,340.25 702.1406,339.625 Q701.1563,339.125 700.4688,338.0625 Q699.7813,336.9844 699.7813,335.7031 L699.7813,334.5469 Q699.7813,333.2188 700.3906,332.0781 Q701.0156,330.9219 702.1094,330.3125 Q703.2031,329.6875 704.4375,329.6875 Q705.1719,329.6875 705.8125,329.8594 Q706.4688,330.0156 707.0156,330.375 Z " fill="#000000"/><text fill="#000000" font-family="sans-serif" font-size="14" lengthAdjust="spacing" textLength="39" x="724.75" y="340.2285">Action</text><line style="stroke:#181818;stroke-width:0.5;" x1="643.5" x2="812.5" y1="350.5" y2="350.5"/><text fill="#000000" font-family="sans-serif" font-size="14" font-style="italic" lengthAdjust="spacing" textLength="93" x="648.5" y="369.0332">description: str</text><line style="stroke:#181818;stroke-width:0.5;" x1="643.5" x2="812.5" y1="376.1094" y2="376.1094"/><text fill="#000000" font-family="sans-serif" font-size="14" font-style="italic" lengthAdjust="spacing" textLength="159" x="648.5" y="394.6426">perform(instigator: Pawn)</text></g><!--class MoveAction--><g id="elem_MoveAction"><rect codeLine="10" fill="#F1F1F1" height="48" id="MoveAction" rx="2.5" ry="2.5" style="stroke:#181818;stroke-width:0.5;" width="121" x="684.5" y="498"/><ellipse cx="699.5" cy="514" fill="#ADD1B2" rx="11" ry="11" style="stroke:#181818;stroke-width:1.0;"/><path d="M702.2656,509.875 Q702.4219,509.6563 702.6094,509.5469 Q702.7969,509.4375 703.0156,509.4375 Q703.3906,509.4375 703.625,509.7031 Q703.8594,509.9531 703.8594,510.5625 L703.8594,512.0156 Q703.8594,512.625 703.625,512.8906 Q703.3906,513.1563 703.0156,513.1563 Q702.6719,513.1563 702.4688,512.9531 Q702.2656,512.7656 702.1563,512.25 Q702.1094,511.8906 701.9219,511.7031 Q701.5938,511.3281 700.9844,511.1094 Q700.375,510.8906 699.75,510.8906 Q698.9844,510.8906 698.3438,511.2188 Q697.7188,511.5469 697.2188,512.2969 Q696.7344,513.0469 696.7344,514.0781 L696.7344,515.1719 Q696.7344,516.4063 697.625,517.2344 Q698.5156,518.0469 700.1094,518.0469 Q701.0469,518.0469 701.7031,517.7969 Q702.0938,517.6406 702.5156,517.2031 Q702.7813,516.9375 702.9219,516.8594 Q703.0781,516.7813 703.2813,516.7813 Q703.6094,516.7813 703.8594,517.0469 Q704.125,517.2969 704.125,517.6406 Q704.125,517.9844 703.7813,518.3906 Q703.2813,518.9688 702.4844,519.2969 Q701.4063,519.75 700.1094,519.75 Q698.5938,519.75 697.3906,519.125 Q696.4063,518.625 695.7188,517.5625 Q695.0313,516.4844 695.0313,515.2031 L695.0313,514.0469 Q695.0313,512.7188 695.6406,511.5781 Q696.2656,510.4219 697.3594,509.8125 Q698.4531,509.1875 699.6875,509.1875 Q700.4219,509.1875 701.0625,509.3594 Q701.7188,509.5156 702.2656,509.875 Z " fill="#000000"/><text fill="#000000" font-family="sans-serif" font-size="14" lengthAdjust="spacing" textLength="73" x="721.5" y="519.7285">MoveAction</text><line style="stroke:#181818;stroke-width:0.5;" x1="685.5" x2="804.5" y1="530" y2="530"/><line style="stroke:#181818;stroke-width:0.5;" x1="685.5" x2="804.5" y1="538" y2="538"/></g><!--class SkipTurnAction--><g id="elem_SkipTurnAction"><rect codeLine="14" fill="#F1F1F1" height="48" id="SkipTurnAction" rx="2.5" ry="2.5" style="stroke:#181818;stroke-width:0.5;" width="136" x="513" y="498"/><ellipse cx="528" cy="514" fill="#ADD1B2" rx="11" ry="11" style="stroke:#181818;stroke-width:1.0;"/><path d="M530.7656,509.875 Q530.9219,509.6563 531.1094,509.5469 Q531.2969,509.4375 531.5156,509.4375 Q531.8906,509.4375 532.125,509.7031 Q532.3594,509.9531 532.3594,510.5625 L532.3594,512.0156 Q532.3594,512.625 532.125,512.8906 Q531.8906,513.1563 531.5156,513.1563 Q531.1719,513.1563 530.9688,512.9531 Q530.7656,512.7656 530.6563,512.25 Q530.6094,511.8906 530.4219,511.7031 Q530.0938,511.3281 529.4844,511.1094 Q528.875,510.8906 528.25,510.8906 Q527.4844,510.8906 526.8438,511.2188 Q526.2188,511.5469 525.7188,512.2969 Q525.2344,513.0469 525.2344,514.0781 L525.2344,515.1719 Q525.2344,516.4063 526.125,517.2344 Q527.0156,518.0469 528.6094,518.0469 Q529.5469,518.0469 530.2031,517.7969 Q530.5938,517.6406 531.0156,517.2031 Q531.2813,516.9375 531.4219,516.8594 Q531.5781,516.7813 531.7813,516.7813 Q532.1094,516.7813 532.3594,517.0469 Q532.625,517.2969 532.625,517.6406 Q532.625,517.9844 532.2813,518.3906 Q531.7813,518.9688 530.9844,519.2969 Q529.9063,519.75 528.6094,519.75 Q527.0938,519.75 525.8906,519.125 Q524.9063,518.625 524.2188,517.5625 Q523.5313,516.4844 523.5313,515.2031 L523.5313,514.0469 Q523.5313,512.7188 524.1406,511.5781 Q524.7656,510.4219 525.8594,509.8125 Q526.9531,509.1875 528.1875,509.1875 Q528.9219,509.1875 529.5625,509.3594 Q530.2188,509.5156 530.7656,509.875 Z " fill="#000000"/><text fill="#000000" font-family="sans-serif" font-size="14" lengthAdjust="spacing" textLength="96" x="546" y="519.7285">SkipTurnAction</text><line style="stroke:#181818;stroke-width:0.5;" x1="514" x2="648" y1="530" y2="530"/><line style="stroke:#181818;stroke-width:0.5;" x1="514" x2="648" y1="538" y2="538"/></g><!--class SelectActionStrategy--><g id="elem_SelectActionStrategy"><rect codeLine="19" fill="#F1F1F1" height="65.6094" id="SelectActionStrategy" rx="2.5" ry="2.5" style="stroke:#181818;stroke-width:0.5;" width="346" x="132" y="489"/><ellipse cx="235.25" cy="505" fill="#A9DCDF" rx="11" ry="11" style="stroke:#181818;stroke-width:1.0;"/><path d="M237.4375,506.7656 L233.2969,506.7656 L232.875,507.7969 L233.2969,507.7969 Q233.9063,507.7969 234.1719,508.0313 Q234.4375,508.2656 234.4375,508.6563 Q234.4375,509.0313 234.1719,509.2656 Q233.9063,509.5 233.2969,509.5 L231,509.5 Q230.3906,509.5 230.1406,509.2656 Q229.875,509.0313 229.875,508.6406 Q229.875,508.2656 230.1563,508.0313 Q230.4219,507.7813 231.0469,507.7969 L233.7188,501.1406 L232.6094,501.1406 Q232,501.1406 231.7344,500.9063 Q231.4688,500.6719 231.4688,500.2813 Q231.4688,499.9063 231.7344,499.6719 Q232,499.4375 232.6094,499.4375 L236.2813,499.4375 L239.6719,507.7969 Q240.2656,507.7969 240.4531,507.9375 Q240.8438,508.2031 240.8438,508.6563 Q240.8438,509.0313 240.5781,509.2656 Q240.3281,509.5 239.7188,509.5 L237.4219,509.5 Q236.8125,509.5 236.5469,509.2656 Q236.2813,509.0313 236.2813,508.6406 Q236.2813,508.2656 236.5469,508.0313 Q236.8125,507.7969 237.4219,507.7969 L237.8438,507.7969 L237.4375,506.7656 Z M236.7188,505.0625 L235.3594,501.6875 L233.9844,505.0625 L236.7188,505.0625 Z " fill="#000000"/><text fill="#000000" font-family="sans-serif" font-size="14" font-style="italic" lengthAdjust="spacing" textLength="131" x="255.75" y="510.7285">SelectActionStrategy</text><line style="stroke:#181818;stroke-width:0.5;" x1="133" x2="477" y1="521" y2="521"/><line style="stroke:#181818;stroke-width:0.5;" x1="133" x2="477" y1="529" y2="529"/><text fill="#000000" font-family="sans-serif" font-size="14" font-style="italic" lengthAdjust="spacing" textLength="334" x="138" y="547.5332">select_action(player: Player, actions: Actions): Action</text></g><!--class SelectAggressiveAction--><g id="elem_SelectAggressiveAction"><rect codeLine="23" fill="#F1F1F1" height="65.6094" id="SelectAggressiveAction" rx="2.5" ry="2.5" style="stroke:#181818;stroke-width:0.5;" width="346" x="54" y="616"/><ellipse cx="148.75" cy="632" fill="#ADD1B2" rx="11" ry="11" style="stroke:#181818;stroke-width:1.0;"/><path d="M151.5156,627.875 Q151.6719,627.6563 151.8594,627.5469 Q152.0469,627.4375 152.2656,627.4375 Q152.6406,627.4375 152.875,627.7031 Q153.1094,627.9531 153.1094,628.5625 L153.1094,630.0156 Q153.1094,630.625 152.875,630.8906 Q152.6406,631.1563 152.2656,631.1563 Q151.9219,631.1563 151.7188,630.9531 Q151.5156,630.7656 151.4063,630.25 Q151.3594,629.8906 151.1719,629.7031 Q150.8438,629.3281 150.2344,629.1094 Q149.625,628.8906 149,628.8906 Q148.2344,628.8906 147.5938,629.2188 Q146.9688,629.5469 146.4688,630.2969 Q145.9844,631.0469 145.9844,632.0781 L145.9844,633.1719 Q145.9844,634.4063 146.875,635.2344 Q147.7656,636.0469 149.3594,636.0469 Q150.2969,636.0469 150.9531,635.7969 Q151.3438,635.6406 151.7656,635.2031 Q152.0313,634.9375 152.1719,634.8594 Q152.3281,634.7813 152.5313,634.7813 Q152.8594,634.7813 153.1094,635.0469 Q153.375,635.2969 153.375,635.6406 Q153.375,635.9844 153.0313,636.3906 Q152.5313,636.9688 151.7344,637.2969 Q150.6563,637.75 149.3594,637.75 Q147.8438,637.75 146.6406,637.125 Q145.6563,636.625 144.9688,635.5625 Q144.2813,634.4844 144.2813,633.2031 L144.2813,632.0469 Q144.2813,630.7188 144.8906,629.5781 Q145.5156,628.4219 146.6094,627.8125 Q147.7031,627.1875 148.9375,627.1875 Q149.6719,627.1875 150.3125,627.3594 Q150.9688,627.5156 151.5156,627.875 Z " fill="#000000"/><text fill="#000000" font-family="sans-serif" font-size="14" lengthAdjust="spacing" textLength="148" x="169.25" y="637.7285">SelectAggressiveAction</text><line style="stroke:#181818;stroke-width:0.5;" x1="55" x2="399" y1="648" y2="648"/><line style="stroke:#181818;stroke-width:0.5;" x1="55" x2="399" y1="656" y2="656"/><text fill="#000000" font-family="sans-serif" font-size="14" lengthAdjust="spacing" textLength="334" x="60" y="674.5332">select_action(player: Player, actions: Actions): Action</text></g><!--class SelectActionInteractively--><g id="elem_SelectActionInteractively"><rect codeLine="27" fill="#F1F1F1" height="65.6094" id="SelectActionInteractively" rx="2.5" ry="2.5" style="stroke:#181818;stroke-width:0.5;" width="346" x="435" y="616"/><ellipse cx="527.25" cy="632" fill="#ADD1B2" rx="11" ry="11" style="stroke:#181818;stroke-width:1.0;"/><path d="M530.0156,627.875 Q530.1719,627.6563 530.3594,627.5469 Q530.5469,627.4375 530.7656,627.4375 Q531.1406,627.4375 531.375,627.7031 Q531.6094,627.9531 531.6094,628.5625 L531.6094,630.0156 Q531.6094,630.625 531.375,630.8906 Q531.1406,631.1563 530.7656,631.1563 Q530.4219,631.1563 530.2188,630.9531 Q530.0156,630.7656 529.9063,630.25 Q529.8594,629.8906 529.6719,629.7031 Q529.3438,629.3281 528.7344,629.1094 Q528.125,628.8906 527.5,628.8906 Q526.7344,628.8906 526.0938,629.2188 Q525.4688,629.5469 524.9688,630.2969 Q524.4844,631.0469 524.4844,632.0781 L524.4844,633.1719 Q524.4844,634.4063 525.375,635.2344 Q526.2656,636.0469 527.8594,636.0469 Q528.7969,636.0469 529.4531,635.7969 Q529.8438,635.6406 530.2656,635.2031 Q530.5313,634.9375 530.6719,634.8594 Q530.8281,634.7813 531.0313,634.7813 Q531.3594,634.7813 531.6094,635.0469 Q531.875,635.2969 531.875,635.6406 Q531.875,635.9844 531.5313,636.3906 Q531.0313,636.9688 530.2344,637.2969 Q529.1563,637.75 527.8594,637.75 Q526.3438,637.75 525.1406,637.125 Q524.1563,636.625 523.4688,635.5625 Q522.7813,634.4844 522.7813,633.2031 L522.7813,632.0469 Q522.7813,630.7188 523.3906,629.5781 Q524.0156,628.4219 525.1094,627.8125 Q526.2031,627.1875 527.4375,627.1875 Q528.1719,627.1875 528.8125,627.3594 Q529.4688,627.5156 530.0156,627.875 Z " fill="#000000"/><text fill="#000000" font-family="sans-serif" font-size="14" lengthAdjust="spacing" textLength="153" x="547.75" y="637.7285">SelectActionInteractively</text><line style="stroke:#181818;stroke-width:0.5;" x1="436" x2="780" y1="648" y2="648"/><line style="stroke:#181818;stroke-width:0.5;" x1="436" x2="780" y1="656" y2="656"/><text fill="#000000" font-family="sans-serif" font-size="14" lengthAdjust="spacing" textLength="334" x="441" y="674.5332">select_action(player: Player, actions: Actions): Action</text></g><!--class Player--><g id="elem_Player"><rect codeLine="35" fill="#ADD8E6" height="136.0469" id="Player" rx="2.5" ry="2.5" style="stroke:#00008B;stroke-width:2.0;" width="302" x="305" y="292"/><ellipse cx="431.75" cy="308" fill="#ADD1B2" rx="11" ry="11" style="stroke:#181818;stroke-width:1.0;"/><path d="M434.5156,303.875 Q434.6719,303.6563 434.8594,303.5469 Q435.0469,303.4375 435.2656,303.4375 Q435.6406,303.4375 435.875,303.7031 Q436.1094,303.9531 436.1094,304.5625 L436.1094,306.0156 Q436.1094,306.625 435.875,306.8906 Q435.6406,307.1563 435.2656,307.1563 Q434.9219,307.1563 434.7188,306.9531 Q434.5156,306.7656 434.4063,306.25 Q434.3594,305.8906 434.1719,305.7031 Q433.8438,305.3281 433.2344,305.1094 Q432.625,304.8906 432,304.8906 Q431.2344,304.8906 430.5938,305.2188 Q429.9688,305.5469 429.4688,306.2969 Q428.9844,307.0469 428.9844,308.0781 L428.9844,309.1719 Q428.9844,310.4063 429.875,311.2344 Q430.7656,312.0469 432.3594,312.0469 Q433.2969,312.0469 433.9531,311.7969 Q434.3438,311.6406 434.7656,311.2031 Q435.0313,310.9375 435.1719,310.8594 Q435.3281,310.7813 435.5313,310.7813 Q435.8594,310.7813 436.1094,311.0469 Q436.375,311.2969 436.375,311.6406 Q436.375,311.9844 436.0313,312.3906 Q435.5313,312.9688 434.7344,313.2969 Q433.6563,313.75 432.3594,313.75 Q430.8438,313.75 429.6406,313.125 Q428.6563,312.625 427.9688,311.5625 Q427.2813,310.4844 427.2813,309.2031 L427.2813,308.0469 Q427.2813,306.7188 427.8906,305.5781 Q428.5156,304.4219 429.6094,303.8125 Q430.7031,303.1875 431.9375,303.1875 Q432.6719,303.1875 433.3125,303.3594 Q433.9688,303.5156 434.5156,303.875 Z " fill="#000000"/><text fill="#000000" font-family="sans-serif" font-size="14" lengthAdjust="spacing" textLength="40" x="452.25" y="313.7285">Player</text><line style="stroke:#00008B;stroke-width:2.0;" x1="306" x2="606" y1="324" y2="324"/><text fill="#000000" font-family="sans-serif" font-size="14" lengthAdjust="spacing" textLength="75" x="311" y="342.5332">pawn: Pawn</text><text fill="#000000" font-family="sans-serif" font-size="14" lengthAdjust="spacing" textLength="60" x="311" y="360.1426">take_turn</text><text fill="#000000" font-family="sans-serif" font-size="14" lengthAdjust="spacing" textLength="117" x="311" y="377.752">actions: list[Action]</text><line style="stroke:#00008B;stroke-width:2.0;" x1="306" x2="606" y1="384.8281" y2="384.8281"/><text fill="#000000" font-family="sans-serif" font-size="14" font-weight="bold" lengthAdjust="spacing" textLength="290" x="311" y="403.3613">select_action(actions: list[Action]): Action</text><text fill="#000000" font-family="sans-serif" font-size="14" lengthAdjust="spacing" textLength="144" x="311" y="420.9707">perform(action: Action)</text></g><!--class Pawn--><g id="elem_Pawn"><rect codeLine="45" fill="#F1F1F1" height="83.2188" id="Pawn" rx="2.5" ry="2.5" style="stroke:#181818;stroke-width:0.5;" width="123" x="273.5" y="95"/><ellipse cx="314.15" cy="111" fill="#ADD1B2" rx="11" ry="11" style="stroke:#181818;stroke-width:1.0;"/><path d="M316.9156,106.875 Q317.0719,106.6563 317.2594,106.5469 Q317.4469,106.4375 317.6656,106.4375 Q318.0406,106.4375 318.275,106.7031 Q318.5094,106.9531 318.5094,107.5625 L318.5094,109.0156 Q318.5094,109.625 318.275,109.8906 Q318.0406,110.1563 317.6656,110.1563 Q317.3219,110.1563 317.1188,109.9531 Q316.9156,109.7656 316.8063,109.25 Q316.7594,108.8906 316.5719,108.7031 Q316.2438,108.3281 315.6344,108.1094 Q315.025,107.8906 314.4,107.8906 Q313.6344,107.8906 312.9938,108.2188 Q312.3688,108.5469 311.8688,109.2969 Q311.3844,110.0469 311.3844,111.0781 L311.3844,112.1719 Q311.3844,113.4063 312.275,114.2344 Q313.1656,115.0469 314.7594,115.0469 Q315.6969,115.0469 316.3531,114.7969 Q316.7438,114.6406 317.1656,114.2031 Q317.4313,113.9375 317.5719,113.8594 Q317.7281,113.7813 317.9313,113.7813 Q318.2594,113.7813 318.5094,114.0469 Q318.775,114.2969 318.775,114.6406 Q318.775,114.9844 318.4313,115.3906 Q317.9313,115.9688 317.1344,116.2969 Q316.0563,116.75 314.7594,116.75 Q313.2438,116.75 312.0406,116.125 Q311.0563,115.625 310.3688,114.5625 Q309.6813,113.4844 309.6813,112.2031 L309.6813,111.0469 Q309.6813,109.7188 310.2906,108.5781 Q310.9156,107.4219 312.0094,106.8125 Q313.1031,106.1875 314.3375,106.1875 Q315.0719,106.1875 315.7125,106.3594 Q316.3688,106.5156 316.9156,106.875 Z " fill="#000000"/><text fill="#000000" font-family="sans-serif" font-size="14" lengthAdjust="spacing" textLength="34" x="333.85" y="116.7285">Pawn</text><line style="stroke:#181818;stroke-width:0.5;" x1="274.5" x2="395.5" y1="127" y2="127"/><text fill="#000000" font-family="sans-serif" font-size="14" lengthAdjust="spacing" textLength="59" x="279.5" y="145.5332">name: str</text><text fill="#000000" font-family="sans-serif" font-size="14" lengthAdjust="spacing" textLength="111" x="279.5" y="163.1426">location: Location</text><line style="stroke:#181818;stroke-width:0.5;" x1="274.5" x2="395.5" y1="170.2188" y2="170.2188"/></g><!--class ActionKind--><g id="elem_ActionKind"><rect codeLine="53" fill="#F1F1F1" height="188.875" id="ActionKind" rx="2.5" ry="2.5" style="stroke:#181818;stroke-width:0.5;" width="99" x="431.5" y="42"/><ellipse cx="446.5" cy="58" fill="#EB937F" rx="11" ry="11" style="stroke:#181818;stroke-width:1.0;"/><path d="M445.3594,58.7969 L445.3594,61.2969 L449.6875,61.2969 L449.6875,60.375 Q449.6875,59.7656 449.9219,59.5 Q450.1719,59.2344 450.5469,59.2344 Q450.9219,59.2344 451.1563,59.5 Q451.3906,59.7656 451.3906,60.375 L451.3906,63 L443.3906,63 Q442.7656,63 442.5,62.7656 Q442.25,62.5313 442.25,62.1406 Q442.25,61.7656 442.5156,61.5313 Q442.7813,61.2969 443.3906,61.2969 L443.6563,61.2969 L443.6563,54.6406 L443.3906,54.6406 Q442.7656,54.6406 442.5,54.4063 Q442.25,54.1719 442.25,53.7813 Q442.25,53.4063 442.5,53.1719 Q442.7656,52.9375 443.3906,52.9375 L451.0156,52.9375 L451.0156,55.5313 Q451.0156,56.1406 450.7813,56.4063 Q450.5625,56.6563 450.1719,56.6563 Q449.7969,56.6563 449.5625,56.4063 Q449.3281,56.1406 449.3281,55.5313 L449.3281,54.6406 L445.3594,54.6406 L445.3594,57.0938 L446.8438,57.0938 Q446.8438,56.4375 446.9688,56.25 Q447.2344,55.8438 447.7031,55.8438 Q448.0781,55.8438 448.3125,56.1094 Q448.5469,56.3594 448.5469,56.9688 L448.5469,58.9375 Q448.5469,59.4844 448.4219,59.6719 Q448.1563,60.0625 447.7031,60.0625 Q447.2344,60.0625 446.9688,59.6563 Q446.8438,59.4688 446.8438,58.7969 L445.3594,58.7969 Z " fill="#000000"/><text fill="#000000" font-family="sans-serif" font-size="14" lengthAdjust="spacing" textLength="67" x="460.5" y="63.7285">ActionKind</text><line style="stroke:#181818;stroke-width:0.5;" x1="432.5" x2="529.5" y1="74" y2="74"/><text fill="#000000" font-family="sans-serif" font-size="14" lengthAdjust="spacing" textLength="70" x="437.5" y="92.5332">Aggressive</text><text fill="#000000" font-family="sans-serif" font-size="14" lengthAdjust="spacing" textLength="85" x="437.5" y="110.1426">HandleObject</text><text fill="#000000" font-family="sans-serif" font-size="14" lengthAdjust="spacing" textLength="43" x="437.5" y="127.752">Helpful</text><text fill="#000000" font-family="sans-serif" font-size="14" lengthAdjust="spacing" textLength="68" x="437.5" y="145.3613">Investigate</text><text fill="#000000" font-family="sans-serif" font-size="14" lengthAdjust="spacing" textLength="34" x="437.5" y="162.9707">Move</text><text fill="#000000" font-family="sans-serif" font-size="14" lengthAdjust="spacing" textLength="26" x="437.5" y="180.5801">Quit</text><text fill="#000000" font-family="sans-serif" font-size="14" lengthAdjust="spacing" textLength="29" x="437.5" y="198.1895">Rest</text><text fill="#000000" font-family="sans-serif" font-size="14" lengthAdjust="spacing" textLength="57" x="437.5" y="215.7988">SkipTurn</text><line style="stroke:#181818;stroke-width:0.5;" x1="432.5" x2="529.5" y1="222.875" y2="222.875"/></g><!--class Location--><g id="elem_Location"><rect codeLine="66" fill="#F1F1F1" height="48" id="Location" rx="2.5" ry="2.5" style="stroke:#181818;stroke-width:0.5;" width="102" x="22" y="336"/><ellipse cx="37" cy="352" fill="#ADD1B2" rx="11" ry="11" style="stroke:#181818;stroke-width:1.0;"/><path d="M39.7656,347.875 Q39.9219,347.6563 40.1094,347.5469 Q40.2969,347.4375 40.5156,347.4375 Q40.8906,347.4375 41.125,347.7031 Q41.3594,347.9531 41.3594,348.5625 L41.3594,350.0156 Q41.3594,350.625 41.125,350.8906 Q40.8906,351.1563 40.5156,351.1563 Q40.1719,351.1563 39.9688,350.9531 Q39.7656,350.7656 39.6563,350.25 Q39.6094,349.8906 39.4219,349.7031 Q39.0938,349.3281 38.4844,349.1094 Q37.875,348.8906 37.25,348.8906 Q36.4844,348.8906 35.8438,349.2188 Q35.2188,349.5469 34.7188,350.2969 Q34.2344,351.0469 34.2344,352.0781 L34.2344,353.1719 Q34.2344,354.4063 35.125,355.2344 Q36.0156,356.0469 37.6094,356.0469 Q38.5469,356.0469 39.2031,355.7969 Q39.5938,355.6406 40.0156,355.2031 Q40.2813,354.9375 40.4219,354.8594 Q40.5781,354.7813 40.7813,354.7813 Q41.1094,354.7813 41.3594,355.0469 Q41.625,355.2969 41.625,355.6406 Q41.625,355.9844 41.2813,356.3906 Q40.7813,356.9688 39.9844,357.2969 Q38.9063,357.75 37.6094,357.75 Q36.0938,357.75 34.8906,357.125 Q33.9063,356.625 33.2188,355.5625 Q32.5313,354.4844 32.5313,353.2031 L32.5313,352.0469 Q32.5313,350.7188 33.1406,349.5781 Q33.7656,348.4219 34.8594,347.8125 Q35.9531,347.1875 37.1875,347.1875 Q37.9219,347.1875 38.5625,347.3594 Q39.2188,347.5156 39.7656,347.875 Z " fill="#000000"/><text fill="#000000" font-family="sans-serif" font-size="14" lengthAdjust="spacing" textLength="54" x="59" y="357.7285">Location</text><line style="stroke:#181818;stroke-width:0.5;" x1="23" x2="123" y1="368" y2="368"/><line style="stroke:#181818;stroke-width:0.5;" x1="23" x2="123" y1="376" y2="376"/></g><!--class World--><g id="elem_World"><rect codeLine="70" fill="#F1F1F1" height="48" id="World" rx="2.5" ry="2.5" style="stroke:#181818;stroke-width:0.5;" width="89" x="28.5" y="112.5"/><ellipse cx="43.5" cy="128.5" fill="#ADD1B2" rx="11" ry="11" style="stroke:#181818;stroke-width:1.0;"/><path d="M46.2656,124.375 Q46.4219,124.1563 46.6094,124.0469 Q46.7969,123.9375 47.0156,123.9375 Q47.3906,123.9375 47.625,124.2031 Q47.8594,124.4531 47.8594,125.0625 L47.8594,126.5156 Q47.8594,127.125 47.625,127.3906 Q47.3906,127.6563 47.0156,127.6563 Q46.6719,127.6563 46.4688,127.4531 Q46.2656,127.2656 46.1563,126.75 Q46.1094,126.3906 45.9219,126.2031 Q45.5938,125.8281 44.9844,125.6094 Q44.375,125.3906 43.75,125.3906 Q42.9844,125.3906 42.3438,125.7188 Q41.7188,126.0469 41.2188,126.7969 Q40.7344,127.5469 40.7344,128.5781 L40.7344,129.6719 Q40.7344,130.9063 41.625,131.7344 Q42.5156,132.5469 44.1094,132.5469 Q45.0469,132.5469 45.7031,132.2969 Q46.0938,132.1406 46.5156,131.7031 Q46.7813,131.4375 46.9219,131.3594 Q47.0781,131.2813 47.2813,131.2813 Q47.6094,131.2813 47.8594,131.5469 Q48.125,131.7969 48.125,132.1406 Q48.125,132.4844 47.7813,132.8906 Q47.2813,133.4688 46.4844,133.7969 Q45.4063,134.25 44.1094,134.25 Q42.5938,134.25 41.3906,133.625 Q40.4063,133.125 39.7188,132.0625 Q39.0313,130.9844 39.0313,129.7031 L39.0313,128.5469 Q39.0313,127.2188 39.6406,126.0781 Q40.2656,124.9219 41.3594,124.3125 Q42.4531,123.6875 43.6875,123.6875 Q44.4219,123.6875 45.0625,123.8594 Q45.7188,124.0156 46.2656,124.375 Z " fill="#000000"/><text fill="#000000" font-family="sans-serif" font-size="14" lengthAdjust="spacing" textLength="37" x="69.5" y="134.2285">World</text><line style="stroke:#181818;stroke-width:0.5;" x1="29.5" x2="116.5" y1="144.5" y2="144.5"/><line style="stroke:#181818;stroke-width:0.5;" x1="29.5" x2="116.5" y1="152.5" y2="152.5"/></g><!--reverse link Action to MoveAction--><g id="link_Action_MoveAction"><path codeLine="12" d="M734.2337,419.6891 C737.4637,450.0591 739.85,472.54 742.52,497.64 " fill="none" id="Action-backto-MoveAction" style="stroke:#181818;stroke-width:1.0;"/><polygon fill="none" points="732.33,401.79,728.2673,420.3236,740.2,419.0545,732.33,401.79" style="stroke:#181818;stroke-width:1.0;"/></g><!--reverse link Action to SkipTurnAction--><g id="link_Action_SkipTurnAction"><path codeLine="16" d="M678.3502,415.0434 C650.4402,445.4134 625.52,472.54 602.46,497.64 " fill="none" id="Action-backto-SkipTurnAction" style="stroke:#181818;stroke-width:1.0;"/><polygon fill="none" points="690.53,401.79,673.9324,410.9834,682.768,419.1033,690.53,401.79" style="stroke:#181818;stroke-width:1.0;"/></g><!--reverse link SelectActionStrategy to SelectAggressiveAction--><g id="link_SelectActionStrategy_SelectAggressiveAction"><path codeLine="31" d="M275.3833,570.4622 C263.7433,589.1222 258.65,597.27 247.02,615.92 " fill="none" id="SelectActionStrategy-backto-SelectAggressiveAction" style="stroke:#181818;stroke-width:1.0;"/><polygon fill="none" points="284.91,555.19,270.2925,567.2867,280.474,573.6378,284.91,555.19" style="stroke:#181818;stroke-width:1.0;"/></g><!--reverse link SelectActionStrategy to SelectActionInteractively--><g id="link_SelectActionStrategy_SelectActionInteractively"><path codeLine="32" d="M399.2792,561.8957 C444.5992,580.5957 484.97,597.24 530.3,615.95 " fill="none" id="SelectActionStrategy-backto-SelectActionInteractively" style="stroke:#181818;stroke-width:1.0;"/><polygon fill="none" points="382.64,555.03,396.9906,567.4421,401.5677,556.3493,382.64,555.03" style="stroke:#181818;stroke-width:1.0;"/></g><!--link Player to SelectActionStrategy--><g id="link_Player_SelectActionStrategy"><path codeLine="43" d="M392.4,428.39 C372.57,449.4 355.738,467.2363 339.318,484.6363 " fill="none" id="Player-to-SelectActionStrategy" style="stroke:#181818;stroke-width:1.0;"/><polygon fill="#181818" points="335.2,489,344.2861,485.1997,338.6316,485.3635,338.4678,479.7091,335.2,489" style="stroke:#181818;stroke-width:1.0;"/><text fill="#000000" font-family="sans-serif" font-size="13" lengthAdjust="spacing" textLength="7" x="328.8819" y="478.1154">1</text></g><!--link Pawn to Player--><g id="link_Pawn_Player"><path codeLine="50" d="M360.0667,183.3954 C377.3967,215.1154 393.2282,244.0783 413.4682,281.1383 " fill="none" id="Pawn-Player" style="stroke:#181818;stroke-width:1.0;"/><polygon fill="#181818" points="357.19,178.13,357.9948,187.9459,359.5873,182.5178,365.0153,184.1103,357.19,178.13" style="stroke:#181818;stroke-width:1.0;"/><polygon fill="#181818" points="419.22,291.67,419.8547,284.4869,413.4682,281.1383,412.8335,288.3214,419.22,291.67" style="stroke:#181818;stroke-width:1.0;"/></g><!--link Player to Action--><g id="link_Player_Action"><path codeLine="51" d="M607.14,360 C618.79,360 624.43,360 636.08,360 " fill="none" id="Player-to-Action" style="stroke:#181818;stroke-width:1.0;stroke-dasharray:7.0,7.0;"/><polygon fill="#181818" points="642.08,360,633.08,356,637.08,360,633.08,364,642.08,360" style="stroke:#181818;stroke-width:1.0;"/></g><!--link Pawn to ActionKind--><g id="link_Pawn_ActionKind"><path codeLine="64" d="M396.59,136.5 C408.13,136.5 413.67,136.5 425.21,136.5 " fill="none" id="Pawn-to-ActionKind" style="stroke:#181818;stroke-width:1.0;"/><polygon fill="#181818" points="431.21,136.5,422.21,132.5,426.21,136.5,422.21,140.5,431.21,136.5" style="stroke:#181818;stroke-width:1.0;"/><text fill="#000000" font-family="sans-serif" font-size="13" lengthAdjust="spacing" textLength="5" x="414.646" y="132.9521">*</text></g><!--reverse link Location to Location--><g id="link_Location_Location"><path codeLine="68" d="M136.2039,341.2865 C155.2839,340.6765 159,347.18 159,360 C159,372.82 143.29,378.94 124.21,378.33 " fill="none" id="Location-backto-Location" style="stroke:#181818;stroke-width:1.0;"/><polygon fill="none" points="124.21,341.67,130.3348,345.4762,136.2039,341.2865,130.0791,337.4803,124.21,341.67" style="stroke:#181818;stroke-width:1.0;"/><text fill="#000000" font-family="sans-serif" font-size="13" lengthAdjust="spacing" textLength="116" x="165" y="365.4951">connectedLocations</text></g><!--link World to Location--><g id="link_World_Location"><path codeLine="73" d="M73,172.79 C73,215.33 73,287.14 73,329.69 " fill="none" id="World-Location" style="stroke:#181818;stroke-width:1.0;"/><polygon fill="#181818" points="73,160.79,69,166.79,73,172.79,77,166.79,73,160.79" style="stroke:#181818;stroke-width:1.0;"/><polygon fill="#181818" points="73,335.69,77,326.69,73,330.69,69,326.69,73,335.69" style="stroke:#181818;stroke-width:1.0;"/><text fill="#000000" font-family="sans-serif" font-size="13" lengthAdjust="spacing" textLength="5" x="62.3344" y="324.9507">*</text></g><!--link Pawn to Location--><g id="link_Pawn_Location"><path codeLine="74" d="M286.95,178.13 C232.14,224.46 149.0017,294.746 104.8517,332.076 " fill="none" id="Pawn-to-Location" style="stroke:#181818;stroke-width:1.0;"/><polygon fill="#181818" points="100.27,335.95,109.7253,333.1935,104.0881,332.7217,104.5599,327.0845,100.27,335.95" style="stroke:#181818;stroke-width:1.0;"/><text fill="#000000" font-family="sans-serif" font-size="13" lengthAdjust="spacing" textLength="7" x="99.3611" y="325.2773">1</text></g><!--SRC=[hLHTQzim57tthn3PInFcbCAUj61OsKDBD_QHGH_6AB9yuwfH92F9AS7DVvzioRASkD272a9qFwHppx7khGZTaXBGZ1Hx4APMWF7-4vsX9acGNKQMO1v1MHlvHJdH6dsXXaaHkTlLa5mRHQWveW8qLQngap2opjVoAb0RgNONJ6Z3IcAamkWdUHRpSE2Od43F4Fekz-0hi2RHiQE9JlQxA9pMLVgI-VhFhrvlMVMdLi9dTvUV-AO0JbB6816BdhZ7MmC7QbpQsWOCb8Ve_aWdtMK-a2xrekBa0ArItVz7vDmQUqGznnFO8yYoLA0rcr3jlP6wwAqmq1AnWFpmlc2J6gvUqa8-Y_GLkcy_U5vz4dDqbQ8Fd0bOvf8N-2jHssjUm-VSjXRch7mqkJKZpfLztkwH1vSXMtYmtJTu0dNEjFdholWNegiy6oitcHxaMbtcsG3lEyuTwLFciQIUbLCYiqrmrNR6X5mZAIoXYAKWEnXtFfUKECXlVZU1kMXR9nlKySzpjUImCKkVvKw0g7S-ViT44M4FdpkuReWeEFp8doo7mGcysjGysBTY3suCmMXq1EDNpORJlstksG0OKMeLILNx13eL5_Otr1jhPqTQhuaVQC5iac7I1ATCqs1WHAKGbXOKlKkVt8tkfUA5lzdjcxXGvrgaeShH1t8qR0pDhgBGyJy0]--></g></svg>