<?xml version="1.0" encoding="us-ascii" standalone="no"?><svg xmlns="http://www.w3.org/2000/svg" xmlns:xlink="http://www.w3.org/1999/xlink" contentStyleType="text/css" height="453px" preserveAspectRatio="none" style="width:766px;height:453px;background:#FFFFFF;" version="1.1" viewBox="0 0 766 453" width="766px" zoomAndPan="magnify"><defs/><g><!--class Document--><g id="elem_Document"><rect codeLine="2" fill="#F1F1F1" height="100.8281" id="Document" rx="2.5" ry="2.5" style="stroke:#181818;stroke-width:0.5;" width="111" x="327" y="346"/><ellipse cx="348.75" cy="362" fill="#ADD1B2" rx="11" ry="11" style="stroke:#181818;stroke-width:1.0;"/><path d="M351.5156,357.875 Q351.6719,357.6563 351.8594,357.5469 Q352.0469,357.4375 352.2656,357.4375 Q352.6406,357.4375 352.875,357.7031 Q353.1094,357.9531 353.1094,358.5625 L353.1094,360.0156 Q353.1094,360.625 352.875,360.8906 Q352.6406,361.1563 352.2656,361.1563 Q351.9219,361.1563 351.7188,360.9531 Q351.5156,360.7656 351.4063,360.25 Q351.3594,359.8906 351.1719,359.7031 Q350.8438,359.3281 350.2344,359.1094 Q349.625,358.8906 349,358.8906 Q348.2344,358.8906 347.5938,359.2188 Q346.9688,359.5469 346.4688,360.2969 Q345.9844,361.0469 345.9844,362.0781 L345.9844,363.1719 Q345.9844,364.4063 346.875,365.2344 Q347.7656,366.0469 349.3594,366.0469 Q350.2969,366.0469 350.9531,365.7969 Q351.3438,365.6406 351.7656,365.2031 Q352.0313,364.9375 352.1719,364.8594 Q352.3281,364.7813 352.5313,364.7813 Q352.8594,364.7813 353.1094,365.0469 Q353.375,365.2969 353.375,365.6406 Q353.375,365.9844 353.0313,366.3906 Q352.5313,366.9688 351.7344,367.2969 Q350.6563,367.75 349.3594,367.75 Q347.8438,367.75 346.6406,367.125 Q345.6563,366.625 344.9688,365.5625 Q344.2813,364.4844 344.2813,363.2031 L344.2813,362.0469 Q344.2813,360.7188 344.8906,359.5781 Q345.5156,358.4219 346.6094,357.8125 Q347.7031,357.1875 348.9375,357.1875 Q349.6719,357.1875 350.3125,357.3594 Q350.9688,357.5156 351.5156,357.875 Z " fill="#000000"/><text fill="#000000" font-family="sans-serif" font-size="14" lengthAdjust="spacing" textLength="64" x="364.25" y="367.7285">Document</text><line style="stroke:#181818;stroke-width:0.5;" x1="328" x2="437" y1="378" y2="378"/><text fill="#000000" font-family="sans-serif" font-size="14" lengthAdjust="spacing" textLength="55" x="333" y="396.5332">state: str</text><line style="stroke:#181818;stroke-width:0.5;" x1="328" x2="437" y1="403.6094" y2="403.6094"/><text fill="#000000" font-family="sans-serif" font-size="14" lengthAdjust="spacing" textLength="92" x="333" y="422.1426">modify(): None</text><text fill="#000000" font-family="sans-serif" font-size="14" lengthAdjust="spacing" textLength="99" x="333" y="439.752">append(): None</text></g><!--class Command--><g id="elem_Command"><rect codeLine="8" fill="#F1F1F1" height="83.2188" id="Command" rx="2.5" ry="2.5" style="stroke:#181818;stroke-width:0.5;" width="164" x="300.5" y="7"/><ellipse cx="346.25" cy="23" fill="#A9DCDF" rx="11" ry="11" style="stroke:#181818;stroke-width:1.0;"/><path d="M348.4375,24.7656 L344.2969,24.7656 L343.875,25.7969 L344.2969,25.7969 Q344.9063,25.7969 345.1719,26.0313 Q345.4375,26.2656 345.4375,26.6563 Q345.4375,27.0313 345.1719,27.2656 Q344.9063,27.5 344.2969,27.5 L342,27.5 Q341.3906,27.5 341.1406,27.2656 Q340.875,27.0313 340.875,26.6406 Q340.875,26.2656 341.1563,26.0313 Q341.4219,25.7813 342.0469,25.7969 L344.7188,19.1406 L343.6094,19.1406 Q343,19.1406 342.7344,18.9063 Q342.4688,18.6719 342.4688,18.2813 Q342.4688,17.9063 342.7344,17.6719 Q343,17.4375 343.6094,17.4375 L347.2813,17.4375 L350.6719,25.7969 Q351.2656,25.7969 351.4531,25.9375 Q351.8438,26.2031 351.8438,26.6563 Q351.8438,27.0313 351.5781,27.2656 Q351.3281,27.5 350.7188,27.5 L348.4219,27.5 Q347.8125,27.5 347.5469,27.2656 Q347.2813,27.0313 347.2813,26.6406 Q347.2813,26.2656 347.5469,26.0313 Q347.8125,25.7969 348.4219,25.7969 L348.8438,25.7969 L348.4375,24.7656 Z M347.7188,23.0625 L346.3594,19.6875 L344.9844,23.0625 L347.7188,23.0625 Z " fill="#000000"/><text fill="#000000" font-family="sans-serif" font-size="14" font-style="italic" lengthAdjust="spacing" textLength="64" x="366.75" y="28.7285">Command</text><line style="stroke:#181818;stroke-width:0.5;" x1="301.5" x2="463.5" y1="39" y2="39"/><line style="stroke:#181818;stroke-width:0.5;" x1="301.5" x2="463.5" y1="47" y2="47"/><text fill="#000000" font-family="sans-serif" font-size="14" font-style="italic" lengthAdjust="spacing" textLength="101" x="306.5" y="65.5332">execute(): None</text><text fill="#000000" font-family="sans-serif" font-size="14" font-style="italic" lengthAdjust="spacing" textLength="152" x="306.5" y="83.1426">undo_execution(): None</text></g><!--class ModifyCommand--><g id="elem_ModifyCommand"><rect codeLine="13" fill="#F1F1F1" height="136.0469" id="ModifyCommand" rx="2.5" ry="2.5" style="stroke:#181818;stroke-width:0.5;" width="163" x="596" y="150"/><ellipse cx="622.7" cy="166" fill="#ADD1B2" rx="11" ry="11" style="stroke:#181818;stroke-width:1.0;"/><path d="M625.4656,161.875 Q625.6219,161.6563 625.8094,161.5469 Q625.9969,161.4375 626.2156,161.4375 Q626.5906,161.4375 626.825,161.7031 Q627.0594,161.9531 627.0594,162.5625 L627.0594,164.0156 Q627.0594,164.625 626.825,164.8906 Q626.5906,165.1563 626.2156,165.1563 Q625.8719,165.1563 625.6688,164.9531 Q625.4656,164.7656 625.3563,164.25 Q625.3094,163.8906 625.1219,163.7031 Q624.7938,163.3281 624.1844,163.1094 Q623.575,162.8906 622.95,162.8906 Q622.1844,162.8906 621.5438,163.2188 Q620.9188,163.5469 620.4188,164.2969 Q619.9344,165.0469 619.9344,166.0781 L619.9344,167.1719 Q619.9344,168.4063 620.825,169.2344 Q621.7156,170.0469 623.3094,170.0469 Q624.2469,170.0469 624.9031,169.7969 Q625.2938,169.6406 625.7156,169.2031 Q625.9813,168.9375 626.1219,168.8594 Q626.2781,168.7813 626.4813,168.7813 Q626.8094,168.7813 627.0594,169.0469 Q627.325,169.2969 627.325,169.6406 Q627.325,169.9844 626.9813,170.3906 Q626.4813,170.9688 625.6844,171.2969 Q624.6063,171.75 623.3094,171.75 Q621.7938,171.75 620.5906,171.125 Q619.6063,170.625 618.9188,169.5625 Q618.2313,168.4844 618.2313,167.2031 L618.2313,166.0469 Q618.2313,164.7188 618.8406,163.5781 Q619.4656,162.4219 620.5594,161.8125 Q621.6531,161.1875 622.8875,161.1875 Q623.6219,161.1875 624.2625,161.3594 Q624.9188,161.5156 625.4656,161.875 Z " fill="#000000"/><text fill="#000000" font-family="sans-serif" font-size="14" lengthAdjust="spacing" textLength="105" x="639.3" y="171.7285">ModifyCommand</text><line style="stroke:#181818;stroke-width:0.5;" x1="597" x2="758" y1="182" y2="182"/><text fill="#000000" font-family="sans-serif" font-size="14" lengthAdjust="spacing" textLength="95" x="602" y="200.5332">doc: Document</text><text fill="#000000" font-family="sans-serif" font-size="14" lengthAdjust="spacing" textLength="71" x="602" y="218.1426">change: str</text><text fill="#000000" font-family="sans-serif" font-size="14" lengthAdjust="spacing" textLength="101" x="602" y="235.752">saved_state: str</text><line style="stroke:#181818;stroke-width:0.5;" x1="597" x2="758" y1="242.8281" y2="242.8281"/><text fill="#000000" font-family="sans-serif" font-size="14" lengthAdjust="spacing" textLength="100" x="602" y="261.3613">execute(): None</text><text fill="#000000" font-family="sans-serif" font-size="14" lengthAdjust="spacing" textLength="151" x="602" y="278.9707">undo_execution(): None</text></g><path d="M400.5,173.5 L400.5,216.2031 A0,0 0 0 0 400.5,216.2031 L560.5,216.2031 A0,0 0 0 0 560.5,216.2031 L560.5,198.8516 L600,255.6328 L560.5,190.8516 L560.5,183.5 L550.5,173.5 L400.5,173.5 A0,0 0 0 0 400.5,173.5 " fill="#FEFFDD" style="stroke:#181818;stroke-width:0.5;"/><path d="M550.5,173.5 L550.5,183.5 L560.5,183.5 L550.5,173.5 " fill="#FEFFDD" style="stroke:#181818;stroke-width:0.5;"/><text fill="#000000" font-family="sans-serif" font-size="13" lengthAdjust="spacing" textLength="139" x="406.5" y="191.9951">saved_state = doc.state</text><text fill="#000000" font-family="sans-serif" font-size="13" lengthAdjust="spacing" textLength="71" x="406.5" y="208.3467">doc.modify()</text><path d="M400.5,226.2031 L400.5,252.5547 A0,0 0 0 0 400.5,252.5547 L560.5,252.5547 A0,0 0 0 0 560.5,252.5547 L560.5,244.2031 L600,273.2422 L560.5,236.2031 L560.5,236.2031 L550.5,226.2031 L400.5,226.2031 A0,0 0 0 0 400.5,226.2031 " fill="#FEFFDD" style="stroke:#181818;stroke-width:0.5;"/><path d="M550.5,226.2031 L550.5,236.2031 L560.5,236.2031 L550.5,226.2031 " fill="#FEFFDD" style="stroke:#181818;stroke-width:0.5;"/><text fill="#000000" font-family="sans-serif" font-size="13" lengthAdjust="spacing" textLength="139" x="406.5" y="244.6982">doc.state = saved_state</text><!--class AppendCommand--><g id="elem_AppendCommand"><rect codeLine="30" fill="#F1F1F1" height="118.4375" id="AppendCommand" rx="2.5" ry="2.5" style="stroke:#181818;stroke-width:0.5;" width="163" x="7" y="159"/><ellipse cx="30.1" cy="175" fill="#ADD1B2" rx="11" ry="11" style="stroke:#181818;stroke-width:1.0;"/><path d="M32.8656,170.875 Q33.0219,170.6563 33.2094,170.5469 Q33.3969,170.4375 33.6156,170.4375 Q33.9906,170.4375 34.225,170.7031 Q34.4594,170.9531 34.4594,171.5625 L34.4594,173.0156 Q34.4594,173.625 34.225,173.8906 Q33.9906,174.1563 33.6156,174.1563 Q33.2719,174.1563 33.0688,173.9531 Q32.8656,173.7656 32.7563,173.25 Q32.7094,172.8906 32.5219,172.7031 Q32.1938,172.3281 31.5844,172.1094 Q30.975,171.8906 30.35,171.8906 Q29.5844,171.8906 28.9438,172.2188 Q28.3188,172.5469 27.8188,173.2969 Q27.3344,174.0469 27.3344,175.0781 L27.3344,176.1719 Q27.3344,177.4063 28.225,178.2344 Q29.1156,179.0469 30.7094,179.0469 Q31.6469,179.0469 32.3031,178.7969 Q32.6938,178.6406 33.1156,178.2031 Q33.3813,177.9375 33.5219,177.8594 Q33.6781,177.7813 33.8813,177.7813 Q34.2094,177.7813 34.4594,178.0469 Q34.725,178.2969 34.725,178.6406 Q34.725,178.9844 34.3813,179.3906 Q33.8813,179.9688 33.0844,180.2969 Q32.0063,180.75 30.7094,180.75 Q29.1938,180.75 27.9906,180.125 Q27.0063,179.625 26.3188,178.5625 Q25.6313,177.4844 25.6313,176.2031 L25.6313,175.0469 Q25.6313,173.7188 26.2406,172.5781 Q26.8656,171.4219 27.9594,170.8125 Q29.0531,170.1875 30.2875,170.1875 Q31.0219,170.1875 31.6625,170.3594 Q32.3188,170.5156 32.8656,170.875 Z " fill="#000000"/><text fill="#000000" font-family="sans-serif" font-size="14" lengthAdjust="spacing" textLength="113" x="45.9" y="180.7285">AppendCommand</text><line style="stroke:#181818;stroke-width:0.5;" x1="8" x2="169" y1="191" y2="191"/><text fill="#000000" font-family="sans-serif" font-size="14" lengthAdjust="spacing" textLength="95" x="13" y="209.5332">doc: Document</text><text fill="#000000" font-family="sans-serif" font-size="14" lengthAdjust="spacing" textLength="101" x="13" y="227.1426">saved_state: str</text><line style="stroke:#181818;stroke-width:0.5;" x1="8" x2="169" y1="234.2188" y2="234.2188"/><text fill="#000000" font-family="sans-serif" font-size="14" lengthAdjust="spacing" textLength="100" x="13" y="252.752">execute(): None</text><text fill="#000000" font-family="sans-serif" font-size="14" lengthAdjust="spacing" textLength="151" x="13" y="270.3613">undo_execution(): None</text></g><path d="M205.5,173.5 L205.5,190.8516 L113,247.0234 L205.5,198.8516 L205.5,216.2031 A0,0 0 0 0 205.5,216.2031 L365.5,216.2031 A0,0 0 0 0 365.5,216.2031 L365.5,183.5 L355.5,173.5 L205.5,173.5 A0,0 0 0 0 205.5,173.5 " fill="#FEFFDD" style="stroke:#181818;stroke-width:0.5;"/><path d="M355.5,173.5 L355.5,183.5 L365.5,183.5 L355.5,173.5 " fill="#FEFFDD" style="stroke:#181818;stroke-width:0.5;"/><text fill="#000000" font-family="sans-serif" font-size="13" lengthAdjust="spacing" textLength="139" x="211.5" y="191.9951">saved_state = doc.state</text><text fill="#000000" font-family="sans-serif" font-size="13" lengthAdjust="spacing" textLength="75" x="211.5" y="208.3467">doc.append()</text><path d="M205.5,226.2031 L205.5,235.3789 L164,264.6328 L205.5,243.3789 L205.5,252.5547 A0,0 0 0 0 205.5,252.5547 L365.5,252.5547 A0,0 0 0 0 365.5,252.5547 L365.5,236.2031 L355.5,226.2031 L205.5,226.2031 A0,0 0 0 0 205.5,226.2031 " fill="#FEFFDD" style="stroke:#181818;stroke-width:0.5;"/><path d="M355.5,226.2031 L355.5,236.2031 L365.5,236.2031 L355.5,226.2031 " fill="#FEFFDD" style="stroke:#181818;stroke-width:0.5;"/><text fill="#000000" font-family="sans-serif" font-size="13" lengthAdjust="spacing" textLength="139" x="211.5" y="244.6982">doc.state = saved_state</text><!--reverse link Command to ModifyCommand--><g id="link_Command_ModifyCommand"><path codeLine="46" d="M480.8569,96.9353 C516.3769,114.6553 541.97,128.38 578.5,150 C584.22,153.38 590.05,156.97 595.88,160.65 " fill="none" id="Command-backto-ModifyCommand" style="stroke:#181818;stroke-width:1.0;"/><polygon fill="none" points="464.75,88.9,478.1785,102.3043,483.5354,91.5664,464.75,88.9" style="stroke:#181818;stroke-width:1.0;"/></g><!--reverse link Command to AppendCommand--><g id="link_Command_AppendCommand"><path codeLine="47" d="M284.1573,97.6733 C249.2173,115.3433 224.41,128.76 188.5,150 C182.47,153.56 176.31,157.34 170.16,161.22 " fill="none" id="Command-backto-AppendCommand" style="stroke:#181818;stroke-width:1.0;"/><polygon fill="none" points="300.22,89.55,281.4495,92.3191,286.865,103.0276,300.22,89.55" style="stroke:#181818;stroke-width:1.0;"/></g><!--link ModifyCommand to Document--><g id="link_ModifyCommand_Document"><path codeLine="49" d="M595.74,275.12 C589.94,278.86 584.15,282.52 578.5,286 C532.04,314.63 483.0614,341.8428 443.4214,363.2128 " fill="none" id="ModifyCommand-to-Document" style="stroke:#181818;stroke-width:1.0;"/><polygon fill="#181818" points="438.14,366.06,447.9603,365.3101,442.5412,363.6873,444.164,358.2682,438.14,366.06" style="stroke:#181818;stroke-width:1.0;"/></g><!--link AppendCommand to Document--><g id="link_AppendCommand_Document"><path codeLine="50" d="M170.03,274.36 C176.24,278.36 182.45,282.27 188.5,286 C234.27,314.19 282.2664,341.17 321.3964,362.58 " fill="none" id="AppendCommand-to-Document" style="stroke:#181818;stroke-width:1.0;"/><polygon fill="#181818" points="326.66,365.46,320.6846,357.6309,322.2737,363.06,316.8446,364.6491,326.66,365.46" style="stroke:#181818;stroke-width:1.0;"/></g><!--SRC=[hPB1Ri8m38RlUGeVuL0U8DAGq7OThu2on8LArAveke60TwUu3KkYiKs8NjBOoUVVVsotfctXZMrN8tauAkY_rXkFkbzsigtPLULXCjMmP489cQP1ShVGMIdpqHytreCLuYlNjI4t0eyXUmRSe-qy9hGetP7ZrN2cOeeB3DntqPBI7LjzQq4YTcDe7NNGcazqgwojdvJSBq_i4RPOUk0oLQ7rI5998NYv2fl9lnAHis2awhs3A_1tR2fcP0HsL2d23IOjv7N-CkbPfkogzKRa9sN_xqgOfToLUzm7R4cdfkYQuZGF8wfIjx9aVjNn5nNpRoEpotdw0W00]--></g></svg>