<?xml version="1.0" encoding="us-ascii" standalone="no"?><svg xmlns="http://www.w3.org/2000/svg" xmlns:xlink="http://www.w3.org/1999/xlink" contentStyleType="text/css" height="384px" preserveAspectRatio="none" style="width:407px;height:384px;background:#FFFFFF;" version="1.1" viewBox="0 0 407 384" width="407px" zoomAndPan="magnify"><defs/><g><!--class Client--><g id="elem_Client"><rect codeLine="2" fill="#F1F1F1" height="48" id="Client" rx="2.5" ry="2.5" style="stroke:#181818;stroke-width:0.5;" width="68" x="84" y="185.5"/><ellipse cx="99" cy="201.5" fill="#ADD1B2" rx="11" ry="11" style="stroke:#181818;stroke-width:1.0;"/><path d="M101.7656,197.375 Q101.9219,197.1563 102.1094,197.0469 Q102.2969,196.9375 102.5156,196.9375 Q102.8906,196.9375 103.125,197.2031 Q103.3594,197.4531 103.3594,198.0625 L103.3594,199.5156 Q103.3594,200.125 103.125,200.3906 Q102.8906,200.6563 102.5156,200.6563 Q102.1719,200.6563 101.9688,200.4531 Q101.7656,200.2656 101.6563,199.75 Q101.6094,199.3906 101.4219,199.2031 Q101.0938,198.8281 100.4844,198.6094 Q99.875,198.3906 99.25,198.3906 Q98.4844,198.3906 97.8438,198.7188 Q97.2188,199.0469 96.7188,199.7969 Q96.2344,200.5469 96.2344,201.5781 L96.2344,202.6719 Q96.2344,203.9063 97.125,204.7344 Q98.0156,205.5469 99.6094,205.5469 Q100.5469,205.5469 101.2031,205.2969 Q101.5938,205.1406 102.0156,204.7031 Q102.2813,204.4375 102.4219,204.3594 Q102.5781,204.2813 102.7813,204.2813 Q103.1094,204.2813 103.3594,204.5469 Q103.625,204.7969 103.625,205.1406 Q103.625,205.4844 103.2813,205.8906 Q102.7813,206.4688 101.9844,206.7969 Q100.9063,207.25 99.6094,207.25 Q98.0938,207.25 96.8906,206.625 Q95.9063,206.125 95.2188,205.0625 Q94.5313,203.9844 94.5313,202.7031 L94.5313,201.5469 Q94.5313,200.2188 95.1406,199.0781 Q95.7656,197.9219 96.8594,197.3125 Q97.9531,196.6875 99.1875,196.6875 Q99.9219,196.6875 100.5625,196.8594 Q101.2188,197.0156 101.7656,197.375 Z " fill="#000000"/><text fill="#000000" font-family="sans-serif" font-size="14" lengthAdjust="spacing" textLength="36" x="113" y="207.2285">Client</text><line style="stroke:#181818;stroke-width:0.5;" x1="85" x2="151" y1="217.5" y2="217.5"/><line style="stroke:#181818;stroke-width:0.5;" x1="85" x2="151" y1="225.5" y2="225.5"/></g><!--class Invoker--><g id="elem_Invoker"><rect codeLine="5" fill="#F1F1F1" height="83.2188" id="Invoker" rx="2.5" ry="2.5" style="stroke:#181818;stroke-width:0.5;" width="222" x="7" y="7"/><ellipse cx="90.75" cy="23" fill="#ADD1B2" rx="11" ry="11" style="stroke:#181818;stroke-width:1.0;"/><path d="M93.5156,18.875 Q93.6719,18.6563 93.8594,18.5469 Q94.0469,18.4375 94.2656,18.4375 Q94.6406,18.4375 94.875,18.7031 Q95.1094,18.9531 95.1094,19.5625 L95.1094,21.0156 Q95.1094,21.625 94.875,21.8906 Q94.6406,22.1563 94.2656,22.1563 Q93.9219,22.1563 93.7188,21.9531 Q93.5156,21.7656 93.4063,21.25 Q93.3594,20.8906 93.1719,20.7031 Q92.8438,20.3281 92.2344,20.1094 Q91.625,19.8906 91,19.8906 Q90.2344,19.8906 89.5938,20.2188 Q88.9688,20.5469 88.4688,21.2969 Q87.9844,22.0469 87.9844,23.0781 L87.9844,24.1719 Q87.9844,25.4063 88.875,26.2344 Q89.7656,27.0469 91.3594,27.0469 Q92.2969,27.0469 92.9531,26.7969 Q93.3438,26.6406 93.7656,26.2031 Q94.0313,25.9375 94.1719,25.8594 Q94.3281,25.7813 94.5313,25.7813 Q94.8594,25.7813 95.1094,26.0469 Q95.375,26.2969 95.375,26.6406 Q95.375,26.9844 95.0313,27.3906 Q94.5313,27.9688 93.7344,28.2969 Q92.6563,28.75 91.3594,28.75 Q89.8438,28.75 88.6406,28.125 Q87.6563,27.625 86.9688,26.5625 Q86.2813,25.4844 86.2813,24.2031 L86.2813,23.0469 Q86.2813,21.7188 86.8906,20.5781 Q87.5156,19.4219 88.6094,18.8125 Q89.7031,18.1875 90.9375,18.1875 Q91.6719,18.1875 92.3125,18.3594 Q92.9688,18.5156 93.5156,18.875 Z " fill="#000000"/><text fill="#000000" font-family="sans-serif" font-size="14" lengthAdjust="spacing" textLength="46" x="111.25" y="28.7285">Invoker</text><line style="stroke:#181818;stroke-width:0.5;" x1="8" x2="228" y1="39" y2="39"/><line style="stroke:#181818;stroke-width:0.5;" x1="8" x2="228" y1="47" y2="47"/><ellipse cx="18" cy="61.3047" fill="#84BE84" rx="3" ry="3" style="stroke:#038048;stroke-width:1.0;"/><text fill="#000000" font-family="sans-serif" font-size="14" lengthAdjust="spacing" textLength="196" x="27" y="65.5332">set_command(cmd: Command)</text><ellipse cx="18" cy="78.9141" fill="#84BE84" rx="3" ry="3" style="stroke:#038048;stroke-width:1.0;"/><text fill="#000000" font-family="sans-serif" font-size="14" lengthAdjust="spacing" textLength="128" x="27" y="83.1426">execute_command()</text></g><!--class Command--><g id="elem_Command"><rect codeLine="10" fill="#F1F1F1" height="65.6094" id="Command" rx="2.5" ry="2.5" style="stroke:#181818;stroke-width:0.5;" width="119" x="264.5" y="15.5"/><ellipse cx="289.85" cy="31.5" fill="#B4A7E5" rx="11" ry="11" style="stroke:#181818;stroke-width:1.0;"/><path d="M290.8031,28.1406 L290.8031,34.7969 L292.5219,34.7969 Q293.1313,34.7969 293.3969,35.0313 Q293.6625,35.2656 293.6625,35.6563 Q293.6625,36.0313 293.3969,36.2656 Q293.1313,36.5 292.5219,36.5 L287.3813,36.5 Q286.7719,36.5 286.5063,36.2656 Q286.2406,36.0313 286.2406,35.6406 Q286.2406,35.2656 286.5063,35.0313 Q286.7719,34.7969 287.3813,34.7969 L289.1,34.7969 L289.1,28.1406 L287.3813,28.1406 Q286.7719,28.1406 286.5063,27.9063 Q286.2406,27.6719 286.2406,27.2813 Q286.2406,26.9063 286.5063,26.6719 Q286.7719,26.4375 287.3813,26.4375 L292.5219,26.4375 Q293.1313,26.4375 293.3969,26.6719 Q293.6625,26.9063 293.6625,27.2813 Q293.6625,27.6719 293.3969,27.9063 Q293.1313,28.1406 292.5219,28.1406 L290.8031,28.1406 Z " fill="#000000"/><text fill="#000000" font-family="sans-serif" font-size="14" font-style="italic" lengthAdjust="spacing" textLength="64" x="306.15" y="37.2285">Command</text><line style="stroke:#181818;stroke-width:0.5;" x1="265.5" x2="382.5" y1="47.5" y2="47.5"/><line style="stroke:#181818;stroke-width:0.5;" x1="265.5" x2="382.5" y1="55.5" y2="55.5"/><ellipse cx="275.5" cy="69.8047" fill="#84BE84" rx="3" ry="3" style="stroke:#038048;stroke-width:1.0;"/><text fill="#000000" font-family="sans-serif" font-size="14" lengthAdjust="spacing" textLength="93" x="284.5" y="74.0332">execute(): void</text></g><!--class ConcreteCommand--><g id="elem_ConcreteCommand"><rect codeLine="14" fill="#F1F1F1" height="83.2188" id="ConcreteCommand" rx="2.5" ry="2.5" style="stroke:#181818;stroke-width:0.5;" width="154" x="246" y="168"/><ellipse cx="261" cy="184" fill="#ADD1B2" rx="11" ry="11" style="stroke:#181818;stroke-width:1.0;"/><path d="M263.7656,179.875 Q263.9219,179.6563 264.1094,179.5469 Q264.2969,179.4375 264.5156,179.4375 Q264.8906,179.4375 265.125,179.7031 Q265.3594,179.9531 265.3594,180.5625 L265.3594,182.0156 Q265.3594,182.625 265.125,182.8906 Q264.8906,183.1563 264.5156,183.1563 Q264.1719,183.1563 263.9688,182.9531 Q263.7656,182.7656 263.6563,182.25 Q263.6094,181.8906 263.4219,181.7031 Q263.0938,181.3281 262.4844,181.1094 Q261.875,180.8906 261.25,180.8906 Q260.4844,180.8906 259.8438,181.2188 Q259.2188,181.5469 258.7188,182.2969 Q258.2344,183.0469 258.2344,184.0781 L258.2344,185.1719 Q258.2344,186.4063 259.125,187.2344 Q260.0156,188.0469 261.6094,188.0469 Q262.5469,188.0469 263.2031,187.7969 Q263.5938,187.6406 264.0156,187.2031 Q264.2813,186.9375 264.4219,186.8594 Q264.5781,186.7813 264.7813,186.7813 Q265.1094,186.7813 265.3594,187.0469 Q265.625,187.2969 265.625,187.6406 Q265.625,187.9844 265.2813,188.3906 Q264.7813,188.9688 263.9844,189.2969 Q262.9063,189.75 261.6094,189.75 Q260.0938,189.75 258.8906,189.125 Q257.9063,188.625 257.2188,187.5625 Q256.5313,186.4844 256.5313,185.2031 L256.5313,184.0469 Q256.5313,182.7188 257.1406,181.5781 Q257.7656,180.4219 258.8594,179.8125 Q259.9531,179.1875 261.1875,179.1875 Q261.9219,179.1875 262.5625,179.3594 Q263.2188,179.5156 263.7656,179.875 Z " fill="#000000"/><text fill="#000000" font-family="sans-serif" font-size="14" lengthAdjust="spacing" textLength="122" x="275" y="189.7285">ConcreteCommand</text><line style="stroke:#181818;stroke-width:0.5;" x1="247" x2="399" y1="200" y2="200"/><rect fill="none" height="6" style="stroke:#C82930;stroke-width:1.0;" width="6" x="254" y="211.3047"/><text fill="#000000" font-family="sans-serif" font-size="14" lengthAdjust="spacing" textLength="115" x="266" y="218.5332">receiver: Receiver</text><line style="stroke:#181818;stroke-width:0.5;" x1="247" x2="399" y1="225.6094" y2="225.6094"/><ellipse cx="257" cy="239.9141" fill="#84BE84" rx="3" ry="3" style="stroke:#038048;stroke-width:1.0;"/><text fill="#000000" font-family="sans-serif" font-size="14" lengthAdjust="spacing" textLength="93" x="266" y="244.1426">execute(): void</text></g><!--class Receiver--><g id="elem_Receiver"><rect codeLine="19" fill="#F1F1F1" height="65.6094" id="Receiver" rx="2.5" ry="2.5" style="stroke:#181818;stroke-width:0.5;" width="108" x="166" y="312"/><ellipse cx="190" cy="328" fill="#ADD1B2" rx="11" ry="11" style="stroke:#181818;stroke-width:1.0;"/><path d="M192.7656,323.875 Q192.9219,323.6563 193.1094,323.5469 Q193.2969,323.4375 193.5156,323.4375 Q193.8906,323.4375 194.125,323.7031 Q194.3594,323.9531 194.3594,324.5625 L194.3594,326.0156 Q194.3594,326.625 194.125,326.8906 Q193.8906,327.1563 193.5156,327.1563 Q193.1719,327.1563 192.9688,326.9531 Q192.7656,326.7656 192.6563,326.25 Q192.6094,325.8906 192.4219,325.7031 Q192.0938,325.3281 191.4844,325.1094 Q190.875,324.8906 190.25,324.8906 Q189.4844,324.8906 188.8438,325.2188 Q188.2188,325.5469 187.7188,326.2969 Q187.2344,327.0469 187.2344,328.0781 L187.2344,329.1719 Q187.2344,330.4063 188.125,331.2344 Q189.0156,332.0469 190.6094,332.0469 Q191.5469,332.0469 192.2031,331.7969 Q192.5938,331.6406 193.0156,331.2031 Q193.2813,330.9375 193.4219,330.8594 Q193.5781,330.7813 193.7813,330.7813 Q194.1094,330.7813 194.3594,331.0469 Q194.625,331.2969 194.625,331.6406 Q194.625,331.9844 194.2813,332.3906 Q193.7813,332.9688 192.9844,333.2969 Q191.9063,333.75 190.6094,333.75 Q189.0938,333.75 187.8906,333.125 Q186.9063,332.625 186.2188,331.5625 Q185.5313,330.4844 185.5313,329.2031 L185.5313,328.0469 Q185.5313,326.7188 186.1406,325.5781 Q186.7656,324.4219 187.8594,323.8125 Q188.9531,323.1875 190.1875,323.1875 Q190.9219,323.1875 191.5625,323.3594 Q192.2188,323.5156 192.7656,323.875 Z " fill="#000000"/><text fill="#000000" font-family="sans-serif" font-size="14" lengthAdjust="spacing" textLength="56" x="206" y="333.7285">Receiver</text><line style="stroke:#181818;stroke-width:0.5;" x1="167" x2="273" y1="344" y2="344"/><line style="stroke:#181818;stroke-width:0.5;" x1="167" x2="273" y1="352" y2="352"/><ellipse cx="177" cy="366.3047" fill="#84BE84" rx="3" ry="3" style="stroke:#038048;stroke-width:1.0;"/><text fill="#000000" font-family="sans-serif" font-size="14" lengthAdjust="spacing" textLength="82" x="186" y="370.5332">action(): void</text></g><!--reverse link Invoker to Client--><g id="link_Invoker_Client"><path codeLine="23" d="M118,96.03 C118,126.21 118,160.34 118,185.29 " fill="none" id="Invoker-backto-Client" style="stroke:#181818;stroke-width:1.0;stroke-dasharray:7.0,7.0;"/><polygon fill="#181818" points="118,90.03,114,99.03,118,95.03,122,99.03,118,90.03" style="stroke:#181818;stroke-width:1.0;"/><text fill="#000000" font-family="sans-serif" font-size="13" lengthAdjust="spacing" textLength="90" x="123" y="134.4951">set_command()</text></g><!--link Client to ConcreteCommand--><g id="link_Client_ConcreteCommand"><path codeLine="24" d="M152.31,209.5 C177.84,209.5 207.71,209.5 239.97,209.5 " fill="none" id="Client-to-ConcreteCommand" style="stroke:#181818;stroke-width:1.0;"/><polygon fill="#181818" points="245.97,209.5,236.97,205.5,240.97,209.5,236.97,213.5,245.97,209.5" style="stroke:#181818;stroke-width:1.0;"/><text fill="#000000" font-family="sans-serif" font-size="13" lengthAdjust="spacing" textLength="57" x="170.5" y="202.9951">&#171;creates&#187;</text></g><!--link Client to Receiver--><g id="link_Client_Receiver"><path codeLine="25" d="M135.77,233.75 C152.21,255.27 173.1567,282.6928 191.5367,306.7428 " fill="none" id="Client-to-Receiver" style="stroke:#181818;stroke-width:1.0;"/><polygon fill="#181818" points="195.18,311.51,192.8932,301.9303,192.1439,307.5373,186.5369,306.788,195.18,311.51" style="stroke:#181818;stroke-width:1.0;"/></g><!--link Invoker to Command--><g id="link_Invoker_Command"><path codeLine="27" d="M229.05,48.5 C240.79,48.5 246.54,48.5 258.28,48.5 " fill="none" id="Invoker-to-Command" style="stroke:#181818;stroke-width:1.0;"/><polygon fill="#181818" points="264.28,48.5,255.28,44.5,259.28,48.5,255.28,52.5,264.28,48.5" style="stroke:#181818;stroke-width:1.0;"/></g><!--reverse link Command to ConcreteCommand--><g id="link_Command_ConcreteCommand"><path codeLine="29" d="M323.6842,99.6796 C323.5242,124.5396 323.42,141.11 323.26,167.88 " fill="none" id="Command-backto-ConcreteCommand" style="stroke:#181818;stroke-width:1.0;stroke-dasharray:7.0,7.0;"/><polygon fill="none" points="323.8,81.68,317.6843,99.641,329.684,99.7182,323.8,81.68" style="stroke:#181818;stroke-width:1.0;"/></g><!--link ConcreteCommand to Receiver--><g id="link_ConcreteCommand_Receiver"><path codeLine="30" d="M291.54,251.28 C276.51,270.76 262.4565,288.9806 248.4065,307.1806 " fill="none" id="ConcreteCommand-to-Receiver" style="stroke:#181818;stroke-width:1.0;"/><polygon fill="#181818" points="244.74,311.93,253.406,307.2502,247.7954,307.9721,247.0734,302.3615,244.74,311.93" style="stroke:#181818;stroke-width:1.0;"/></g><!--SRC=[XP0z3i8m38NtdC9YeaBj0IBKfM9WvG8eSbs8e0bAtGe9k3lfJm8j0vaI- -NpyyEhQXeehfeCmqEyXC2XiZUTlP3p9V1d0mtn4MrTArEkiIub5ECZcVfq9soPeYRfKTemkKeX1NN4JV9r8g6pklpCBQn1Hqpp3oauGj8TEGc7wVQF57HnfaBMrdmBfxMpzfRbSMC9gzcsoIheKgTFPqxp7vCIjbjVK4nDdl-ees4HHdo11e1tiY3sbfwV_hATph36Ci6015ijpKcv6nCQKWWnPY4CGHxN0yGR]--></g></svg>