<?xml version="1.0" encoding="us-ascii" standalone="no"?><svg xmlns="http://www.w3.org/2000/svg" xmlns:xlink="http://www.w3.org/1999/xlink" contentStyleType="text/css" height="366px" preserveAspectRatio="none" style="width:828px;height:366px;background:#FFFFFF;" version="1.1" viewBox="0 0 828 366" width="828px" zoomAndPan="magnify"><defs/><g><!--class Book--><g id="elem_Book"><rect codeLine="2" fill="#F1F1F1" height="100.8281" id="Book" rx="2.5" ry="2.5" style="stroke:#181818;stroke-width:0.5;" width="91" x="369.5" y="7"/><ellipse cx="396.65" cy="23" fill="#ADD1B2" rx="11" ry="11" style="stroke:#181818;stroke-width:1.0;"/><path d="M399.4156,18.875 Q399.5719,18.6563 399.7594,18.5469 Q399.9469,18.4375 400.1656,18.4375 Q400.5406,18.4375 400.775,18.7031 Q401.0094,18.9531 401.0094,19.5625 L401.0094,21.0156 Q401.0094,21.625 400.775,21.8906 Q400.5406,22.1563 400.1656,22.1563 Q399.8219,22.1563 399.6188,21.9531 Q399.4156,21.7656 399.3063,21.25 Q399.2594,20.8906 399.0719,20.7031 Q398.7438,20.3281 398.1344,20.1094 Q397.525,19.8906 396.9,19.8906 Q396.1344,19.8906 395.4938,20.2188 Q394.8688,20.5469 394.3688,21.2969 Q393.8844,22.0469 393.8844,23.0781 L393.8844,24.1719 Q393.8844,25.4063 394.775,26.2344 Q395.6656,27.0469 397.2594,27.0469 Q398.1969,27.0469 398.8531,26.7969 Q399.2438,26.6406 399.6656,26.2031 Q399.9313,25.9375 400.0719,25.8594 Q400.2281,25.7813 400.4313,25.7813 Q400.7594,25.7813 401.0094,26.0469 Q401.275,26.2969 401.275,26.6406 Q401.275,26.9844 400.9313,27.3906 Q400.4313,27.9688 399.6344,28.2969 Q398.5563,28.75 397.2594,28.75 Q395.7438,28.75 394.5406,28.125 Q393.5563,27.625 392.8688,26.5625 Q392.1813,25.4844 392.1813,24.2031 L392.1813,23.0469 Q392.1813,21.7188 392.7906,20.5781 Q393.4156,19.4219 394.5094,18.8125 Q395.6031,18.1875 396.8375,18.1875 Q397.5719,18.1875 398.2125,18.3594 Q398.8688,18.5156 399.4156,18.875 Z " fill="#000000"/><text fill="#000000" font-family="sans-serif" font-size="14" lengthAdjust="spacing" textLength="32" x="413.35" y="28.7285">Book</text><line style="stroke:#181818;stroke-width:0.5;" x1="370.5" x2="459.5" y1="39" y2="39"/><ellipse cx="380.5" cy="53.3047" fill="none" rx="3" ry="3" style="stroke:#038048;stroke-width:1.0;"/><text fill="#000000" font-family="sans-serif" font-size="14" lengthAdjust="spacing" textLength="46" x="389.5" y="57.5332">title: str</text><ellipse cx="380.5" cy="70.9141" fill="none" rx="3" ry="3" style="stroke:#038048;stroke-width:1.0;"/><text fill="#000000" font-family="sans-serif" font-size="14" lengthAdjust="spacing" textLength="65" x="389.5" y="75.1426">author: str</text><ellipse cx="380.5" cy="88.5234" fill="none" rx="3" ry="3" style="stroke:#038048;stroke-width:1.0;"/><text fill="#000000" font-family="sans-serif" font-size="14" lengthAdjust="spacing" textLength="62" x="389.5" y="92.752">pages: int</text><line style="stroke:#181818;stroke-width:0.5;" x1="370.5" x2="459.5" y1="99.8281" y2="99.8281"/></g><!--class BookDatabase--><g id="elem_BookDatabase"><rect codeLine="8" fill="#F1F1F1" height="65.6094" id="BookDatabase" rx="2.5" ry="2.5" style="stroke:#181818;stroke-width:0.5;" width="180" x="218" y="168"/><ellipse cx="257.3" cy="184" fill="#B4A7E5" rx="11" ry="11" style="stroke:#181818;stroke-width:1.0;"/><path d="M258.2531,180.6406 L258.2531,187.2969 L259.9719,187.2969 Q260.5813,187.2969 260.8469,187.5313 Q261.1125,187.7656 261.1125,188.1563 Q261.1125,188.5313 260.8469,188.7656 Q260.5813,189 259.9719,189 L254.8313,189 Q254.2219,189 253.9563,188.7656 Q253.6906,188.5313 253.6906,188.1406 Q253.6906,187.7656 253.9563,187.5313 Q254.2219,187.2969 254.8313,187.2969 L256.55,187.2969 L256.55,180.6406 L254.8313,180.6406 Q254.2219,180.6406 253.9563,180.4063 Q253.6906,180.1719 253.6906,179.7813 Q253.6906,179.4063 253.9563,179.1719 Q254.2219,178.9375 254.8313,178.9375 L259.9719,178.9375 Q260.5813,178.9375 260.8469,179.1719 Q261.1125,179.4063 261.1125,179.7813 Q261.1125,180.1719 260.8469,180.4063 Q260.5813,180.6406 259.9719,180.6406 L258.2531,180.6406 Z " fill="#000000"/><text fill="#000000" font-family="sans-serif" font-size="14" font-style="italic" lengthAdjust="spacing" textLength="94" x="276.7" y="189.7285">BookDatabase</text><line style="stroke:#181818;stroke-width:0.5;" x1="219" x2="397" y1="200" y2="200"/><line style="stroke:#181818;stroke-width:0.5;" x1="219" x2="397" y1="208" y2="208"/><ellipse cx="229" cy="222.3047" fill="#84BE84" rx="3" ry="3" style="stroke:#038048;stroke-width:1.0;"/><text fill="#000000" font-family="sans-serif" font-size="14" font-style="italic" lengthAdjust="spacing" textLength="154" x="238" y="226.5332">save(book: Book): None</text></g><!--class SqlBookDatabase--><g id="elem_SqlBookDatabase"><rect codeLine="12" fill="#F1F1F1" height="65.6094" id="SqlBookDatabase" rx="2.5" ry="2.5" style="stroke:#181818;stroke-width:0.5;" width="178" x="7" y="294"/><ellipse cx="36.85" cy="310" fill="#ADD1B2" rx="11" ry="11" style="stroke:#181818;stroke-width:1.0;"/><path d="M39.6156,305.875 Q39.7719,305.6563 39.9594,305.5469 Q40.1469,305.4375 40.3656,305.4375 Q40.7406,305.4375 40.975,305.7031 Q41.2094,305.9531 41.2094,306.5625 L41.2094,308.0156 Q41.2094,308.625 40.975,308.8906 Q40.7406,309.1563 40.3656,309.1563 Q40.0219,309.1563 39.8188,308.9531 Q39.6156,308.7656 39.5063,308.25 Q39.4594,307.8906 39.2719,307.7031 Q38.9438,307.3281 38.3344,307.1094 Q37.725,306.8906 37.1,306.8906 Q36.3344,306.8906 35.6938,307.2188 Q35.0688,307.5469 34.5688,308.2969 Q34.0844,309.0469 34.0844,310.0781 L34.0844,311.1719 Q34.0844,312.4063 34.975,313.2344 Q35.8656,314.0469 37.4594,314.0469 Q38.3969,314.0469 39.0531,313.7969 Q39.4438,313.6406 39.8656,313.2031 Q40.1313,312.9375 40.2719,312.8594 Q40.4281,312.7813 40.6313,312.7813 Q40.9594,312.7813 41.2094,313.0469 Q41.475,313.2969 41.475,313.6406 Q41.475,313.9844 41.1313,314.3906 Q40.6313,314.9688 39.8344,315.2969 Q38.7563,315.75 37.4594,315.75 Q35.9438,315.75 34.7406,315.125 Q33.7563,314.625 33.0688,313.5625 Q32.3813,312.4844 32.3813,311.2031 L32.3813,310.0469 Q32.3813,308.7188 32.9906,307.5781 Q33.6156,306.4219 34.7094,305.8125 Q35.8031,305.1875 37.0375,305.1875 Q37.7719,305.1875 38.4125,305.3594 Q39.0688,305.5156 39.6156,305.875 Z " fill="#000000"/><text fill="#000000" font-family="sans-serif" font-size="14" lengthAdjust="spacing" textLength="113" x="54.15" y="315.7285">SqlBookDatabase</text><line style="stroke:#181818;stroke-width:0.5;" x1="8" x2="184" y1="326" y2="326"/><line style="stroke:#181818;stroke-width:0.5;" x1="8" x2="184" y1="334" y2="334"/><ellipse cx="18" cy="348.3047" fill="#84BE84" rx="3" ry="3" style="stroke:#038048;stroke-width:1.0;"/><text fill="#000000" font-family="sans-serif" font-size="14" lengthAdjust="spacing" textLength="152" x="27" y="352.5332">save(book: Book): None</text></g><!--class MongoBookDatabase--><g id="elem_MongoBookDatabase"><rect codeLine="16" fill="#F1F1F1" height="65.6094" id="MongoBookDatabase" rx="2.5" ry="2.5" style="stroke:#181818;stroke-width:0.5;" width="178" x="220" y="294"/><ellipse cx="239.5" cy="310" fill="#ADD1B2" rx="11" ry="11" style="stroke:#181818;stroke-width:1.0;"/><path d="M242.2656,305.875 Q242.4219,305.6563 242.6094,305.5469 Q242.7969,305.4375 243.0156,305.4375 Q243.3906,305.4375 243.625,305.7031 Q243.8594,305.9531 243.8594,306.5625 L243.8594,308.0156 Q243.8594,308.625 243.625,308.8906 Q243.3906,309.1563 243.0156,309.1563 Q242.6719,309.1563 242.4688,308.9531 Q242.2656,308.7656 242.1563,308.25 Q242.1094,307.8906 241.9219,307.7031 Q241.5938,307.3281 240.9844,307.1094 Q240.375,306.8906 239.75,306.8906 Q238.9844,306.8906 238.3438,307.2188 Q237.7188,307.5469 237.2188,308.2969 Q236.7344,309.0469 236.7344,310.0781 L236.7344,311.1719 Q236.7344,312.4063 237.625,313.2344 Q238.5156,314.0469 240.1094,314.0469 Q241.0469,314.0469 241.7031,313.7969 Q242.0938,313.6406 242.5156,313.2031 Q242.7813,312.9375 242.9219,312.8594 Q243.0781,312.7813 243.2813,312.7813 Q243.6094,312.7813 243.8594,313.0469 Q244.125,313.2969 244.125,313.6406 Q244.125,313.9844 243.7813,314.3906 Q243.2813,314.9688 242.4844,315.2969 Q241.4063,315.75 240.1094,315.75 Q238.5938,315.75 237.3906,315.125 Q236.4063,314.625 235.7188,313.5625 Q235.0313,312.4844 235.0313,311.2031 L235.0313,310.0469 Q235.0313,308.7188 235.6406,307.5781 Q236.2656,306.4219 237.3594,305.8125 Q238.4531,305.1875 239.6875,305.1875 Q240.4219,305.1875 241.0625,305.3594 Q241.7188,305.5156 242.2656,305.875 Z " fill="#000000"/><text fill="#000000" font-family="sans-serif" font-size="14" lengthAdjust="spacing" textLength="136" x="254.5" y="315.7285">MongoBookDatabase</text><line style="stroke:#181818;stroke-width:0.5;" x1="221" x2="397" y1="326" y2="326"/><line style="stroke:#181818;stroke-width:0.5;" x1="221" x2="397" y1="334" y2="334"/><ellipse cx="231" cy="348.3047" fill="#84BE84" rx="3" ry="3" style="stroke:#038048;stroke-width:1.0;"/><text fill="#000000" font-family="sans-serif" font-size="14" lengthAdjust="spacing" textLength="152" x="240" y="352.5332">save(book: Book): None</text></g><!--class BookPrinter--><g id="elem_BookPrinter"><rect codeLine="23" fill="#F1F1F1" height="65.6094" id="BookPrinter" rx="2.5" ry="2.5" style="stroke:#181818;stroke-width:0.5;" width="179" x="433.5" y="168"/><ellipse cx="481.25" cy="184" fill="#B4A7E5" rx="11" ry="11" style="stroke:#181818;stroke-width:1.0;"/><path d="M482.2031,180.6406 L482.2031,187.2969 L483.9219,187.2969 Q484.5313,187.2969 484.7969,187.5313 Q485.0625,187.7656 485.0625,188.1563 Q485.0625,188.5313 484.7969,188.7656 Q484.5313,189 483.9219,189 L478.7813,189 Q478.1719,189 477.9063,188.7656 Q477.6406,188.5313 477.6406,188.1406 Q477.6406,187.7656 477.9063,187.5313 Q478.1719,187.2969 478.7813,187.2969 L480.5,187.2969 L480.5,180.6406 L478.7813,180.6406 Q478.1719,180.6406 477.9063,180.4063 Q477.6406,180.1719 477.6406,179.7813 Q477.6406,179.4063 477.9063,179.1719 Q478.1719,178.9375 478.7813,178.9375 L483.9219,178.9375 Q484.5313,178.9375 484.7969,179.1719 Q485.0625,179.4063 485.0625,179.7813 Q485.0625,180.1719 484.7969,180.4063 Q484.5313,180.6406 483.9219,180.6406 L482.2031,180.6406 Z " fill="#000000"/><text fill="#000000" font-family="sans-serif" font-size="14" font-style="italic" lengthAdjust="spacing" textLength="75" x="501.75" y="189.7285">BookPrinter</text><line style="stroke:#181818;stroke-width:0.5;" x1="434.5" x2="611.5" y1="200" y2="200"/><line style="stroke:#181818;stroke-width:0.5;" x1="434.5" x2="611.5" y1="208" y2="208"/><ellipse cx="444.5" cy="222.3047" fill="#84BE84" rx="3" ry="3" style="stroke:#038048;stroke-width:1.0;"/><text fill="#000000" font-family="sans-serif" font-size="14" font-style="italic" lengthAdjust="spacing" textLength="153" x="453.5" y="226.5332">print(book: Book): None</text></g><!--class BwBookPrinter--><g id="elem_BwBookPrinter"><rect codeLine="27" fill="#F1F1F1" height="65.6094" id="BwBookPrinter" rx="2.5" ry="2.5" style="stroke:#181818;stroke-width:0.5;" width="176" x="434" y="294"/><ellipse cx="472.4" cy="310" fill="#ADD1B2" rx="11" ry="11" style="stroke:#181818;stroke-width:1.0;"/><path d="M475.1656,305.875 Q475.3219,305.6563 475.5094,305.5469 Q475.6969,305.4375 475.9156,305.4375 Q476.2906,305.4375 476.525,305.7031 Q476.7594,305.9531 476.7594,306.5625 L476.7594,308.0156 Q476.7594,308.625 476.525,308.8906 Q476.2906,309.1563 475.9156,309.1563 Q475.5719,309.1563 475.3688,308.9531 Q475.1656,308.7656 475.0563,308.25 Q475.0094,307.8906 474.8219,307.7031 Q474.4938,307.3281 473.8844,307.1094 Q473.275,306.8906 472.65,306.8906 Q471.8844,306.8906 471.2438,307.2188 Q470.6188,307.5469 470.1188,308.2969 Q469.6344,309.0469 469.6344,310.0781 L469.6344,311.1719 Q469.6344,312.4063 470.525,313.2344 Q471.4156,314.0469 473.0094,314.0469 Q473.9469,314.0469 474.6031,313.7969 Q474.9938,313.6406 475.4156,313.2031 Q475.6813,312.9375 475.8219,312.8594 Q475.9781,312.7813 476.1813,312.7813 Q476.5094,312.7813 476.7594,313.0469 Q477.025,313.2969 477.025,313.6406 Q477.025,313.9844 476.6813,314.3906 Q476.1813,314.9688 475.3844,315.2969 Q474.3063,315.75 473.0094,315.75 Q471.4938,315.75 470.2906,315.125 Q469.3063,314.625 468.6188,313.5625 Q467.9313,312.4844 467.9313,311.2031 L467.9313,310.0469 Q467.9313,308.7188 468.5406,307.5781 Q469.1656,306.4219 470.2594,305.8125 Q471.3531,305.1875 472.5875,305.1875 Q473.3219,305.1875 473.9625,305.3594 Q474.6188,305.5156 475.1656,305.875 Z " fill="#000000"/><text fill="#000000" font-family="sans-serif" font-size="14" lengthAdjust="spacing" textLength="92" x="491.6" y="315.7285">BwBookPrinter</text><line style="stroke:#181818;stroke-width:0.5;" x1="435" x2="609" y1="326" y2="326"/><line style="stroke:#181818;stroke-width:0.5;" x1="435" x2="609" y1="334" y2="334"/><ellipse cx="445" cy="348.3047" fill="#84BE84" rx="3" ry="3" style="stroke:#038048;stroke-width:1.0;"/><text fill="#000000" font-family="sans-serif" font-size="14" lengthAdjust="spacing" textLength="150" x="454" y="352.5332">print(book: Book): None</text></g><!--class ColorBookPrinter--><g id="elem_ColorBookPrinter"><rect codeLine="31" fill="#F1F1F1" height="65.6094" id="ColorBookPrinter" rx="2.5" ry="2.5" style="stroke:#181818;stroke-width:0.5;" width="176" x="645" y="294"/><ellipse cx="676.2" cy="310" fill="#ADD1B2" rx="11" ry="11" style="stroke:#181818;stroke-width:1.0;"/><path d="M678.9656,305.875 Q679.1219,305.6563 679.3094,305.5469 Q679.4969,305.4375 679.7156,305.4375 Q680.0906,305.4375 680.325,305.7031 Q680.5594,305.9531 680.5594,306.5625 L680.5594,308.0156 Q680.5594,308.625 680.325,308.8906 Q680.0906,309.1563 679.7156,309.1563 Q679.3719,309.1563 679.1688,308.9531 Q678.9656,308.7656 678.8563,308.25 Q678.8094,307.8906 678.6219,307.7031 Q678.2938,307.3281 677.6844,307.1094 Q677.075,306.8906 676.45,306.8906 Q675.6844,306.8906 675.0438,307.2188 Q674.4188,307.5469 673.9188,308.2969 Q673.4344,309.0469 673.4344,310.0781 L673.4344,311.1719 Q673.4344,312.4063 674.325,313.2344 Q675.2156,314.0469 676.8094,314.0469 Q677.7469,314.0469 678.4031,313.7969 Q678.7938,313.6406 679.2156,313.2031 Q679.4813,312.9375 679.6219,312.8594 Q679.7781,312.7813 679.9813,312.7813 Q680.3094,312.7813 680.5594,313.0469 Q680.825,313.2969 680.825,313.6406 Q680.825,313.9844 680.4813,314.3906 Q679.9813,314.9688 679.1844,315.2969 Q678.1063,315.75 676.8094,315.75 Q675.2938,315.75 674.0906,315.125 Q673.1063,314.625 672.4188,313.5625 Q671.7313,312.4844 671.7313,311.2031 L671.7313,310.0469 Q671.7313,308.7188 672.3406,307.5781 Q672.9656,306.4219 674.0594,305.8125 Q675.1531,305.1875 676.3875,305.1875 Q677.1219,305.1875 677.7625,305.3594 Q678.4188,305.5156 678.9656,305.875 Z " fill="#000000"/><text fill="#000000" font-family="sans-serif" font-size="14" lengthAdjust="spacing" textLength="108" x="693.8" y="315.7285">ColorBookPrinter</text><line style="stroke:#181818;stroke-width:0.5;" x1="646" x2="820" y1="326" y2="326"/><line style="stroke:#181818;stroke-width:0.5;" x1="646" x2="820" y1="334" y2="334"/><ellipse cx="656" cy="348.3047" fill="#84BE84" rx="3" ry="3" style="stroke:#038048;stroke-width:1.0;"/><text fill="#000000" font-family="sans-serif" font-size="14" lengthAdjust="spacing" textLength="150" x="665" y="352.5332">print(book: Book): None</text></g><!--reverse link BookDatabase to SqlBookDatabase--><g id="link_BookDatabase_SqlBookDatabase"><path codeLine="20" d="M237.5922,243.1772 C206.1822,261.5472 182.44,275.44 151.01,293.82 " fill="none" id="BookDatabase-backto-SqlBookDatabase" style="stroke:#181818;stroke-width:1.0;"/><polygon fill="none" points="253.13,234.09,234.5631,237.9979,240.6213,248.3565,253.13,234.09" style="stroke:#181818;stroke-width:1.0;"/></g><!--reverse link BookDatabase to MongoBookDatabase--><g id="link_BookDatabase_MongoBookDatabase"><path codeLine="21" d="M308.407,252.2594 C308.557,270.6294 308.59,275.56 308.74,293.91 " fill="none" id="BookDatabase-backto-MongoBookDatabase" style="stroke:#181818;stroke-width:1.0;"/><polygon fill="none" points="308.26,234.26,302.4072,252.3084,314.4068,252.2104,308.26,234.26" style="stroke:#181818;stroke-width:1.0;"/></g><!--reverse link BookPrinter to BwBookPrinter--><g id="link_BookPrinter_BwBookPrinter"><path codeLine="35" d="M522.593,252.2594 C522.443,270.6294 522.41,275.56 522.26,293.91 " fill="none" id="BookPrinter-backto-BwBookPrinter" style="stroke:#181818;stroke-width:1.0;"/><polygon fill="none" points="522.74,234.26,516.5932,252.2104,528.5928,252.3084,522.74,234.26" style="stroke:#181818;stroke-width:1.0;"/></g><!--reverse link BookPrinter to ColorBookPrinter--><g id="link_BookPrinter_ColorBookPrinter"><path codeLine="36" d="M592.8496,243.2423 C623.9596,261.6123 647.38,275.44 678.51,293.82 " fill="none" id="BookPrinter-backto-ColorBookPrinter" style="stroke:#181818;stroke-width:1.0;"/><polygon fill="none" points="577.35,234.09,589.7988,248.4088,595.9003,238.0757,577.35,234.09" style="stroke:#181818;stroke-width:1.0;"/></g><!--reverse link Book to BookDatabase--><g id="link_Book_BookDatabase"><path codeLine="38" d="M373.6595,113.1745 C358.7295,132.9045 345.63,150.23 332.36,167.79 " fill="none" id="Book-backto-BookDatabase" style="stroke:#181818;stroke-width:1.0;stroke-dasharray:7.0,7.0;"/><polygon fill="#181818" points="377.28,108.39,368.6595,113.1531,374.2629,112.3771,375.0389,117.9805,377.28,108.39" style="stroke:#181818;stroke-width:1.0;"/></g><!--reverse link Book to BookPrinter--><g id="link_Book_BookPrinter"><path codeLine="39" d="M456.7205,113.1594 C471.7805,132.8894 485.01,150.23 498.41,167.79 " fill="none" id="Book-backto-BookPrinter" style="stroke:#181818;stroke-width:1.0;stroke-dasharray:7.0,7.0;"/><polygon fill="#181818" points="453.08,108.39,455.3611,117.971,456.1137,112.3645,461.7203,113.1171,453.08,108.39" style="stroke:#181818;stroke-width:1.0;"/></g><!--SRC=[bL1B3e8m4Dtt5BFK63X0mmhTQamymT1K93OCjbKNoDqj9HW-ZOJPD3FpFdqZ51e3AT4TQWQkThQmId8mLdSzFksDz61GOIuDXwAqh67CFL9VKKWlSa2B6HhPYq6DcIEYi0qOVCbDva3SGxSSJbJALaFuJrmUAYInH3jIcTCwuWYTVA9ewXr0p6ocqS_Qzw7aLRlwbo5z1nGMMNjIfDSHXsWVQ-GyNqyjEWL8uXXcz_fDU-mN]--></g></svg>