<?xml version="1.0" encoding="us-ascii" standalone="no"?><svg xmlns="http://www.w3.org/2000/svg" xmlns:xlink="http://www.w3.org/1999/xlink" contentStyleType="text/css" height="292px" preserveAspectRatio="none" style="width:418px;height:292px;background:#FFFFFF;" version="1.1" viewBox="0 0 418 292" width="418px" zoomAndPan="magnify"><defs/><g><!--class MovieKind--><g id="elem_MovieKind"><rect codeLine="2" fill="#F1F1F1" height="100.8281" id="MovieKind" rx="2.5" ry="2.5" style="stroke:#181818;stroke-width:0.5;" width="114" x="25" y="185"/><ellipse cx="47.65" cy="201" fill="#EB937F" rx="11" ry="11" style="stroke:#181818;stroke-width:1.0;"/><path d="M46.5094,201.7969 L46.5094,204.2969 L50.8375,204.2969 L50.8375,203.375 Q50.8375,202.7656 51.0719,202.5 Q51.3219,202.2344 51.6969,202.2344 Q52.0719,202.2344 52.3063,202.5 Q52.5406,202.7656 52.5406,203.375 L52.5406,206 L44.5406,206 Q43.9156,206 43.65,205.7656 Q43.4,205.5313 43.4,205.1406 Q43.4,204.7656 43.6656,204.5313 Q43.9313,204.2969 44.5406,204.2969 L44.8063,204.2969 L44.8063,197.6406 L44.5406,197.6406 Q43.9156,197.6406 43.65,197.4063 Q43.4,197.1719 43.4,196.7813 Q43.4,196.4063 43.65,196.1719 Q43.9156,195.9375 44.5406,195.9375 L52.1656,195.9375 L52.1656,198.5313 Q52.1656,199.1406 51.9313,199.4063 Q51.7125,199.6563 51.3219,199.6563 Q50.9469,199.6563 50.7125,199.4063 Q50.4781,199.1406 50.4781,198.5313 L50.4781,197.6406 L46.5094,197.6406 L46.5094,200.0938 L47.9938,200.0938 Q47.9938,199.4375 48.1188,199.25 Q48.3844,198.8438 48.8531,198.8438 Q49.2281,198.8438 49.4625,199.1094 Q49.6969,199.3594 49.6969,199.9688 L49.6969,201.9375 Q49.6969,202.4844 49.5719,202.6719 Q49.3063,203.0625 48.8531,203.0625 Q48.3844,203.0625 48.1188,202.6563 Q47.9938,202.4688 47.9938,201.7969 L46.5094,201.7969 Z " fill="#000000"/><text fill="#000000" font-family="sans-serif" font-size="14" lengthAdjust="spacing" textLength="65" x="63.35" y="206.7285">MovieKind</text><line style="stroke:#181818;stroke-width:0.5;" x1="26" x2="138" y1="217" y2="217"/><text fill="#000000" font-family="sans-serif" font-size="14" lengthAdjust="spacing" textLength="66" x="31" y="235.5332">REGULAR</text><text fill="#000000" font-family="sans-serif" font-size="14" lengthAdjust="spacing" textLength="68" x="31" y="253.1426">CHILDREN</text><text fill="#000000" font-family="sans-serif" font-size="14" lengthAdjust="spacing" textLength="102" x="31" y="270.752">NEW_RELEASE</text><line style="stroke:#181818;stroke-width:0.5;" x1="26" x2="138" y1="277.8281" y2="277.8281"/></g><!--class MovieV1--><g id="elem_MovieV1"><rect codeLine="8" fill="#F1F1F1" height="118.4375" id="MovieV1" rx="2.5" ry="2.5" style="stroke:#181818;stroke-width:0.5;" width="150" x="7" y="7"/><ellipse cx="50.8" cy="23" fill="#ADD1B2" rx="11" ry="11" style="stroke:#181818;stroke-width:1.0;"/><path d="M53.5656,18.875 Q53.7219,18.6563 53.9094,18.5469 Q54.0969,18.4375 54.3156,18.4375 Q54.6906,18.4375 54.925,18.7031 Q55.1594,18.9531 55.1594,19.5625 L55.1594,21.0156 Q55.1594,21.625 54.925,21.8906 Q54.6906,22.1563 54.3156,22.1563 Q53.9719,22.1563 53.7688,21.9531 Q53.5656,21.7656 53.4563,21.25 Q53.4094,20.8906 53.2219,20.7031 Q52.8938,20.3281 52.2844,20.1094 Q51.675,19.8906 51.05,19.8906 Q50.2844,19.8906 49.6438,20.2188 Q49.0188,20.5469 48.5188,21.2969 Q48.0344,22.0469 48.0344,23.0781 L48.0344,24.1719 Q48.0344,25.4063 48.925,26.2344 Q49.8156,27.0469 51.4094,27.0469 Q52.3469,27.0469 53.0031,26.7969 Q53.3938,26.6406 53.8156,26.2031 Q54.0813,25.9375 54.2219,25.8594 Q54.3781,25.7813 54.5813,25.7813 Q54.9094,25.7813 55.1594,26.0469 Q55.425,26.2969 55.425,26.6406 Q55.425,26.9844 55.0813,27.3906 Q54.5813,27.9688 53.7844,28.2969 Q52.7063,28.75 51.4094,28.75 Q49.8938,28.75 48.6906,28.125 Q47.7063,27.625 47.0188,26.5625 Q46.3313,25.4844 46.3313,24.2031 L46.3313,23.0469 Q46.3313,21.7188 46.9406,20.5781 Q47.5656,19.4219 48.6594,18.8125 Q49.7531,18.1875 50.9875,18.1875 Q51.7219,18.1875 52.3625,18.3594 Q53.0188,18.5156 53.5656,18.875 Z " fill="#000000"/><text fill="#000000" font-family="sans-serif" font-size="14" lengthAdjust="spacing" textLength="54" x="71.2" y="28.7285">MovieV1</text><line style="stroke:#181818;stroke-width:0.5;" x1="8" x2="156" y1="39" y2="39"/><text fill="#000000" font-family="sans-serif" font-size="14" lengthAdjust="spacing" textLength="46" x="13" y="57.5332">title: str</text><text fill="#000000" font-family="sans-serif" font-size="14" lengthAdjust="spacing" textLength="116" x="13" y="75.1426">kind: MovieKindV0</text><line style="stroke:#181818;stroke-width:0.5;" x1="8" x2="156" y1="82.2188" y2="82.2188"/><text fill="#000000" font-family="sans-serif" font-size="14" lengthAdjust="spacing" textLength="138" x="13" y="100.752">compute_price(): float</text><text fill="#000000" font-family="sans-serif" font-size="14" lengthAdjust="spacing" textLength="110" x="13" y="118.3613">print_info(): None</text></g><path d="M192.5,7 L192.5,57.0547 L151,95.0234 L192.5,65.0547 L192.5,115.1094 A0,0 0 0 0 192.5,115.1094 L411.5,115.1094 A0,0 0 0 0 411.5,115.1094 L411.5,17 L401.5,7 L192.5,7 A0,0 0 0 0 192.5,7 " fill="#FEFFDD" style="stroke:#181818;stroke-width:0.5;"/><path d="M401.5,7 L401.5,17 L411.5,17 L401.5,7 " fill="#FEFFDD" style="stroke:#181818;stroke-width:0.5;"/><text fill="#000000" font-family="sans-serif" font-size="13" lengthAdjust="spacing" textLength="177" x="198.5" y="25.4951">case MovieKindV0.REGULAR:</text><text fill="#000000" font-family="sans-serif" font-size="13" lengthAdjust="spacing" textLength="62" x="214.5" y="41.8467">return 4.99</text><text fill="#000000" font-family="sans-serif" font-size="13" lengthAdjust="spacing" textLength="179" x="198.5" y="58.1982">case MovieKindV0.CHILDREN:</text><text fill="#000000" font-family="sans-serif" font-size="13" lengthAdjust="spacing" textLength="62" x="214.5" y="74.5498">return 5.99</text><text fill="#000000" font-family="sans-serif" font-size="13" lengthAdjust="spacing" textLength="198" x="198.5" y="90.9014">case MovieKind.NEW_RELEASE:</text><text fill="#000000" font-family="sans-serif" font-size="13" lengthAdjust="spacing" textLength="62" x="214.5" y="107.2529">return 6.99</text><!--link MovieV1 to MovieKind--><g id="link_MovieV1_MovieKind"><path codeLine="24" d="M82,125.11 C82,144.58 82,160.09 82,178.84 " fill="none" id="MovieV1-to-MovieKind" style="stroke:#181818;stroke-width:1.0;"/><polygon fill="#181818" points="82,184.84,86,175.84,82,179.84,78,175.84,82,184.84" style="stroke:#181818;stroke-width:1.0;"/></g><!--SRC=[RP112u9048Nl-olsM0Ube0Bt44Gj5Pa7epgAs5XBjXlhs2Nwxxbheg5pcdd3znup88i7tQkNW9sG5_ecjAoGhu_-8hJzShFrLo4Fx13mSnHodoyEd7m8IR8upolwDFwnA303HdFKThoNhgm9E8sicgZ7iq28dbeaC1WoccOgHhig9OcHaAaoUg0ac2If4AWMrnjIbTQ9ZFtvLCvn3kquztSBirjJ6h3GaavSp-idweixoBGVSLjVwJ0pmq3vMNC18VMl76VU67m1]--></g></svg>