<?xml version="1.0" encoding="us-ascii" standalone="no"?><svg xmlns="http://www.w3.org/2000/svg" xmlns:xlink="http://www.w3.org/1999/xlink" contentStyleType="text/css" height="237px" preserveAspectRatio="none" style="width:568px;height:237px;background:#FFFFFF;" version="1.1" viewBox="0 0 568 237" width="568px" zoomAndPan="magnify"><defs/><g><!--class Client--><g id="elem_Client"><rect codeLine="1" fill="#F1F1F1" height="66.6211" id="Client" rx="2.5" ry="2.5" style="stroke:#181818;stroke-width:0.5;" width="85" x="75" y="7"/><ellipse cx="97.65" cy="23" fill="#CDCDCD" rx="11" ry="11" style="stroke:#181818;stroke-width:1.0;"/><path d="M99.8375,24.7656 L95.6969,24.7656 L95.275,25.7969 L95.6969,25.7969 Q96.3063,25.7969 96.5719,26.0313 Q96.8375,26.2656 96.8375,26.6563 Q96.8375,27.0313 96.5719,27.2656 Q96.3063,27.5 95.6969,27.5 L93.4,27.5 Q92.7906,27.5 92.5406,27.2656 Q92.275,27.0313 92.275,26.6406 Q92.275,26.2656 92.5563,26.0313 Q92.8219,25.7813 93.4469,25.7969 L96.1188,19.1406 L95.0094,19.1406 Q94.4,19.1406 94.1344,18.9063 Q93.8688,18.6719 93.8688,18.2813 Q93.8688,17.9063 94.1344,17.6719 Q94.4,17.4375 95.0094,17.4375 L98.6813,17.4375 L102.0719,25.7969 Q102.6656,25.7969 102.8531,25.9375 Q103.2438,26.2031 103.2438,26.6563 Q103.2438,27.0313 102.9781,27.2656 Q102.7281,27.5 102.1188,27.5 L99.8219,27.5 Q99.2125,27.5 98.9469,27.2656 Q98.6813,27.0313 98.6813,26.6406 Q98.6813,26.2656 98.9469,26.0313 Q99.2125,25.7969 99.8219,25.7969 L100.2438,25.7969 L99.8375,24.7656 Z M99.1188,23.0625 L97.7594,19.6875 L96.3844,23.0625 L99.1188,23.0625 Z " fill="#000000"/><text fill="#000000" font-family="sans-serif" font-size="14" font-style="italic" lengthAdjust="spacing" textLength="36" x="113.35" y="28.7969">Client</text><line style="stroke:#181818;stroke-width:0.5;" x1="76" x2="159" y1="39" y2="39"/><line style="stroke:#181818;stroke-width:0.5;" x1="76" x2="159" y1="47" y2="47"/><text fill="#000000" font-family="sans-serif" font-size="14" lengthAdjust="spacing" textLength="73" x="81" y="66.1074">Operation()</text></g><g id="elem_GMN3"><path d="M6,134 L6,230.4551 A0,0 0 0 0 6,230.4551 L173,230.4551 A0,0 0 0 0 173,230.4551 L173,144 L163,134 L102.94,134 L110.94,74.21 L94.94,134 L6,134 A0,0 0 0 0 6,134 " fill="#FAFAFA" style="stroke:#181818;stroke-width:0.5;"/><path d="M163,134 L163,144 L173,144 L163,134 " fill="#FAFAFA" style="stroke:#181818;stroke-width:0.5;"/><text fill="#000000" font-family="sans-serif" font-size="13" lengthAdjust="spacing" textLength="72" x="12" y="153.0283">Operation() {</text><text fill="#000000" font-family="sans-serif" font-size="13" lengthAdjust="spacing" textLength="12" x="20" y="170.3193">...</text><text fill="#000000" font-family="sans-serif" font-size="13" lengthAdjust="spacing" textLength="138" x="20" y="187.6104">P = Prototype-&gt;Clone();</text><text fill="#000000" font-family="sans-serif" font-size="13" lengthAdjust="spacing" textLength="12" x="20" y="204.9014">...</text><text fill="#000000" font-family="sans-serif" font-size="13" lengthAdjust="spacing" textLength="4" x="12" y="222.1924">}</text></g><!--class Prototype--><g id="elem_Prototype"><rect codeLine="13" fill="#F1F1F1" height="66.6211" id="Prototype" rx="2.5" ry="2.5" style="stroke:#181818;stroke-width:0.5;" width="128" x="223.5" y="7"/><ellipse cx="254.25" cy="23" fill="#CDCDCD" rx="11" ry="11" style="stroke:#181818;stroke-width:1.0;"/><path d="M256.4375,24.7656 L252.2969,24.7656 L251.875,25.7969 L252.2969,25.7969 Q252.9063,25.7969 253.1719,26.0313 Q253.4375,26.2656 253.4375,26.6563 Q253.4375,27.0313 253.1719,27.2656 Q252.9063,27.5 252.2969,27.5 L250,27.5 Q249.3906,27.5 249.1406,27.2656 Q248.875,27.0313 248.875,26.6406 Q248.875,26.2656 249.1563,26.0313 Q249.4219,25.7813 250.0469,25.7969 L252.7188,19.1406 L251.6094,19.1406 Q251,19.1406 250.7344,18.9063 Q250.4688,18.6719 250.4688,18.2813 Q250.4688,17.9063 250.7344,17.6719 Q251,17.4375 251.6094,17.4375 L255.2813,17.4375 L258.6719,25.7969 Q259.2656,25.7969 259.4531,25.9375 Q259.8438,26.2031 259.8438,26.6563 Q259.8438,27.0313 259.5781,27.2656 Q259.3281,27.5 258.7188,27.5 L256.4219,27.5 Q255.8125,27.5 255.5469,27.2656 Q255.2813,27.0313 255.2813,26.6406 Q255.2813,26.2656 255.5469,26.0313 Q255.8125,25.7969 256.4219,25.7969 L256.8438,25.7969 L256.4375,24.7656 Z M255.7188,23.0625 L254.3594,19.6875 L252.9844,23.0625 L255.7188,23.0625 Z " fill="#000000"/><text fill="#000000" font-family="sans-serif" font-size="14" font-style="italic" lengthAdjust="spacing" textLength="61" x="271.75" y="28.7969">Prototype</text><line style="stroke:#181818;stroke-width:0.5;" x1="224.5" x2="350.5" y1="39" y2="39"/><line style="stroke:#181818;stroke-width:0.5;" x1="224.5" x2="350.5" y1="47" y2="47"/><text fill="#000000" font-family="sans-serif" font-size="14" font-style="italic" lengthAdjust="spacing" textLength="116" x="229.5" y="66.1074">Clone(): Prototype</text></g><!--class ConcretePrototype1--><g id="elem_ConcretePrototype1"><rect codeLine="17" fill="#F1F1F1" height="66.6211" id="ConcretePrototype1" rx="2.5" ry="2.5" style="stroke:#181818;stroke-width:0.5;" width="159" x="208" y="148.5"/><ellipse cx="223" cy="164.5" fill="#C2C2C2" rx="11" ry="11" style="stroke:#181818;stroke-width:1.0;"/><path d="M225.7656,160.375 Q225.9219,160.1563 226.1094,160.0469 Q226.2969,159.9375 226.5156,159.9375 Q226.8906,159.9375 227.125,160.2031 Q227.3594,160.4531 227.3594,161.0625 L227.3594,162.5156 Q227.3594,163.125 227.125,163.3906 Q226.8906,163.6563 226.5156,163.6563 Q226.1719,163.6563 225.9688,163.4531 Q225.7656,163.2656 225.6563,162.75 Q225.6094,162.3906 225.4219,162.2031 Q225.0938,161.8281 224.4844,161.6094 Q223.875,161.3906 223.25,161.3906 Q222.4844,161.3906 221.8438,161.7188 Q221.2188,162.0469 220.7188,162.7969 Q220.2344,163.5469 220.2344,164.5781 L220.2344,165.6719 Q220.2344,166.9063 221.125,167.7344 Q222.0156,168.5469 223.6094,168.5469 Q224.5469,168.5469 225.2031,168.2969 Q225.5938,168.1406 226.0156,167.7031 Q226.2813,167.4375 226.4219,167.3594 Q226.5781,167.2813 226.7813,167.2813 Q227.1094,167.2813 227.3594,167.5469 Q227.625,167.7969 227.625,168.1406 Q227.625,168.4844 227.2813,168.8906 Q226.7813,169.4688 225.9844,169.7969 Q224.9063,170.25 223.6094,170.25 Q222.0938,170.25 220.8906,169.625 Q219.9063,169.125 219.2188,168.0625 Q218.5313,166.9844 218.5313,165.7031 L218.5313,164.5469 Q218.5313,163.2188 219.1406,162.0781 Q219.7656,160.9219 220.8594,160.3125 Q221.9531,159.6875 223.1875,159.6875 Q223.9219,159.6875 224.5625,159.8594 Q225.2188,160.0156 225.7656,160.375 Z " fill="#000000"/><text fill="#000000" font-family="sans-serif" font-size="14" lengthAdjust="spacing" textLength="127" x="237" y="170.2969">ConcretePrototype1</text><line style="stroke:#181818;stroke-width:0.5;" x1="209" x2="366" y1="180.5" y2="180.5"/><line style="stroke:#181818;stroke-width:0.5;" x1="209" x2="366" y1="188.5" y2="188.5"/><text fill="#000000" font-family="sans-serif" font-size="14" lengthAdjust="spacing" textLength="116" x="214" y="207.6074">Clone(): Prototype</text></g><!--class ConcretePrototype2--><g id="elem_ConcretePrototype2"><rect codeLine="21" fill="#F1F1F1" height="66.6211" id="ConcretePrototype2" rx="2.5" ry="2.5" style="stroke:#181818;stroke-width:0.5;" width="159" x="402" y="148.5"/><ellipse cx="417" cy="164.5" fill="#C2C2C2" rx="11" ry="11" style="stroke:#181818;stroke-width:1.0;"/><path d="M419.7656,160.375 Q419.9219,160.1563 420.1094,160.0469 Q420.2969,159.9375 420.5156,159.9375 Q420.8906,159.9375 421.125,160.2031 Q421.3594,160.4531 421.3594,161.0625 L421.3594,162.5156 Q421.3594,163.125 421.125,163.3906 Q420.8906,163.6563 420.5156,163.6563 Q420.1719,163.6563 419.9688,163.4531 Q419.7656,163.2656 419.6563,162.75 Q419.6094,162.3906 419.4219,162.2031 Q419.0938,161.8281 418.4844,161.6094 Q417.875,161.3906 417.25,161.3906 Q416.4844,161.3906 415.8438,161.7188 Q415.2188,162.0469 414.7188,162.7969 Q414.2344,163.5469 414.2344,164.5781 L414.2344,165.6719 Q414.2344,166.9063 415.125,167.7344 Q416.0156,168.5469 417.6094,168.5469 Q418.5469,168.5469 419.2031,168.2969 Q419.5938,168.1406 420.0156,167.7031 Q420.2813,167.4375 420.4219,167.3594 Q420.5781,167.2813 420.7813,167.2813 Q421.1094,167.2813 421.3594,167.5469 Q421.625,167.7969 421.625,168.1406 Q421.625,168.4844 421.2813,168.8906 Q420.7813,169.4688 419.9844,169.7969 Q418.9063,170.25 417.6094,170.25 Q416.0938,170.25 414.8906,169.625 Q413.9063,169.125 413.2188,168.0625 Q412.5313,166.9844 412.5313,165.7031 L412.5313,164.5469 Q412.5313,163.2188 413.1406,162.0781 Q413.7656,160.9219 414.8594,160.3125 Q415.9531,159.6875 417.1875,159.6875 Q417.9219,159.6875 418.5625,159.8594 Q419.2188,160.0156 419.7656,160.375 Z " fill="#000000"/><text fill="#000000" font-family="sans-serif" font-size="14" lengthAdjust="spacing" textLength="127" x="431" y="170.2969">ConcretePrototype2</text><line style="stroke:#181818;stroke-width:0.5;" x1="403" x2="560" y1="180.5" y2="180.5"/><line style="stroke:#181818;stroke-width:0.5;" x1="403" x2="560" y1="188.5" y2="188.5"/><text fill="#000000" font-family="sans-serif" font-size="14" lengthAdjust="spacing" textLength="116" x="408" y="207.6074">Clone(): Prototype</text></g><!--reverse link Prototype to ConcretePrototype1--><g id="link_Prototype_ConcretePrototype1"><path codeLine="25" d="M287.5,94.48 C287.5,112.65 287.5,132.44 287.5,148.5 " fill="none" id="Prototype-backto-ConcretePrototype1" style="stroke:#181818;stroke-width:1.0;"/><polygon fill="none" points="280.5,94.21,287.5,74.21,294.5,94.21,280.5,94.21" style="stroke:#181818;stroke-width:1.0;"/></g><!--reverse link Prototype to ConcretePrototype2--><g id="link_Prototype_ConcretePrototype2"><path codeLine="26" d="M349.42,86.03 C377.65,106.32 410.45,129.91 436.3,148.5 " fill="none" id="Prototype-backto-ConcretePrototype2" style="stroke:#181818;stroke-width:1.0;"/><polygon fill="none" points="345.14,91.57,332.98,74.21,353.31,80.2,345.14,91.57" style="stroke:#181818;stroke-width:1.0;"/></g><!--link Client to Prototype--><g id="link_Client_Prototype"><path codeLine="28" d="M160.33,40.5 C179.55,40.5 198.78,40.5 218,40.5 " fill="none" id="Client-to-Prototype" style="stroke:#181818;stroke-width:1.0;"/><polygon fill="#181818" points="223.42,40.5,214.42,36.5,218.42,40.5,214.42,44.5,223.42,40.5" style="stroke:#181818;stroke-width:1.0;"/></g><!--SRC=[bP1D3e8m48NtSufPog8ailI73GUGAvGwHY9qI3ik379teQbWZD6uwUPztvkN-ajjE-rqYpqWjcpPd1stXEAk10FeoelJHj0qsdiicfgi1FRGaTDIirqb8mUMXR1Y4MwHJn645oX8QPgERubxB1qBowqZbHSDMrebsvWFGFQ8Kn-ydv-bKDO_qm5ZnMOXfarnCrlZI6YEri7-Iyc-ACketLsf3-T-4Xb0_5YLBzqF]--></g></svg>