<?xml version="1.0" encoding="us-ascii" standalone="no"?><svg xmlns="http://www.w3.org/2000/svg" xmlns:xlink="http://www.w3.org/1999/xlink" contentStyleType="text/css" height="263px" preserveAspectRatio="none" style="width:305px;height:263px;background:#FFFFFF;" version="1.1" viewBox="0 0 305 263" width="305px" zoomAndPan="magnify"><defs/><g><!--class APickup--><g id="elem_APickup"><rect codeLine="1" fill="#F1F1F1" height="103.8633" id="APickup" rx="2.5" ry="2.5" style="stroke:#181818;stroke-width:0.5;" width="291" x="7" y="7"/><ellipse cx="122.25" cy="23" fill="#CDCDCD" rx="11" ry="11" style="stroke:#181818;stroke-width:1.0;"/><path d="M124.4375,24.7656 L120.2969,24.7656 L119.875,25.7969 L120.2969,25.7969 Q120.9063,25.7969 121.1719,26.0313 Q121.4375,26.2656 121.4375,26.6563 Q121.4375,27.0313 121.1719,27.2656 Q120.9063,27.5 120.2969,27.5 L118,27.5 Q117.3906,27.5 117.1406,27.2656 Q116.875,27.0313 116.875,26.6406 Q116.875,26.2656 117.1563,26.0313 Q117.4219,25.7813 118.0469,25.7969 L120.7188,19.1406 L119.6094,19.1406 Q119,19.1406 118.7344,18.9063 Q118.4688,18.6719 118.4688,18.2813 Q118.4688,17.9063 118.7344,17.6719 Q119,17.4375 119.6094,17.4375 L123.2813,17.4375 L126.6719,25.7969 Q127.2656,25.7969 127.4531,25.9375 Q127.8438,26.2031 127.8438,26.6563 Q127.8438,27.0313 127.5781,27.2656 Q127.3281,27.5 126.7188,27.5 L124.4219,27.5 Q123.8125,27.5 123.5469,27.2656 Q123.2813,27.0313 123.2813,26.6406 Q123.2813,26.2656 123.5469,26.0313 Q123.8125,25.7969 124.4219,25.7969 L124.8438,25.7969 L124.4375,24.7656 Z M123.7188,23.0625 L122.3594,19.6875 L120.9844,23.0625 L123.7188,23.0625 Z " fill="#000000"/><text fill="#000000" font-family="sans-serif" font-size="14" font-style="italic" lengthAdjust="spacing" textLength="52" x="142.75" y="28.7969">APickup</text><line style="stroke:#181818;stroke-width:0.5;" x1="8" x2="297" y1="39" y2="39"/><text fill="#000000" font-family="sans-serif" font-size="14" lengthAdjust="spacing" textLength="85" x="13" y="58.1074">Mesh: UMesh</text><line style="stroke:#181818;stroke-width:0.5;" x1="8" x2="297" y1="65.6211" y2="65.6211"/><text fill="#000000" font-family="sans-serif" font-size="14" lengthAdjust="spacing" textLength="234" x="13" y="84.7285">WasCollected(ACharacter* Collector)</text><text fill="#000000" font-family="sans-serif" font-size="14" font-style="italic" lengthAdjust="spacing" textLength="279" x="13" y="103.3496">PerformPickupAction(ACharacter* Collector)</text></g><!--class APowerChangingPickup--><g id="elem_APowerChangingPickup"><rect codeLine="6" fill="#F1F1F1" height="85.2422" id="APowerChangingPickup" rx="2.5" ry="2.5" style="stroke:#181818;stroke-width:0.5;" width="290" x="7.5" y="171"/><ellipse cx="72.75" cy="187" fill="#C2C2C2" rx="11" ry="11" style="stroke:#181818;stroke-width:1.0;"/><path d="M75.5156,182.875 Q75.6719,182.6563 75.8594,182.5469 Q76.0469,182.4375 76.2656,182.4375 Q76.6406,182.4375 76.875,182.7031 Q77.1094,182.9531 77.1094,183.5625 L77.1094,185.0156 Q77.1094,185.625 76.875,185.8906 Q76.6406,186.1563 76.2656,186.1563 Q75.9219,186.1563 75.7188,185.9531 Q75.5156,185.7656 75.4063,185.25 Q75.3594,184.8906 75.1719,184.7031 Q74.8438,184.3281 74.2344,184.1094 Q73.625,183.8906 73,183.8906 Q72.2344,183.8906 71.5938,184.2188 Q70.9688,184.5469 70.4688,185.2969 Q69.9844,186.0469 69.9844,187.0781 L69.9844,188.1719 Q69.9844,189.4063 70.875,190.2344 Q71.7656,191.0469 73.3594,191.0469 Q74.2969,191.0469 74.9531,190.7969 Q75.3438,190.6406 75.7656,190.2031 Q76.0313,189.9375 76.1719,189.8594 Q76.3281,189.7813 76.5313,189.7813 Q76.8594,189.7813 77.1094,190.0469 Q77.375,190.2969 77.375,190.6406 Q77.375,190.9844 77.0313,191.3906 Q76.5313,191.9688 75.7344,192.2969 Q74.6563,192.75 73.3594,192.75 Q71.8438,192.75 70.6406,192.125 Q69.6563,191.625 68.9688,190.5625 Q68.2813,189.4844 68.2813,188.2031 L68.2813,187.0469 Q68.2813,185.7188 68.8906,184.5781 Q69.5156,183.4219 70.6094,182.8125 Q71.7031,182.1875 72.9375,182.1875 Q73.6719,182.1875 74.3125,182.3594 Q74.9688,182.5156 75.5156,182.875 Z " fill="#000000"/><text fill="#000000" font-family="sans-serif" font-size="14" lengthAdjust="spacing" textLength="151" x="93.25" y="192.7969">APowerChangingPickup</text><line style="stroke:#181818;stroke-width:0.5;" x1="8.5" x2="296.5" y1="203" y2="203"/><text fill="#000000" font-family="sans-serif" font-size="14" lengthAdjust="spacing" textLength="74" x="13.5" y="222.1074">Power: float</text><line style="stroke:#181818;stroke-width:0.5;" x1="8.5" x2="296.5" y1="229.6211" y2="229.6211"/><text fill="#000000" font-family="sans-serif" font-size="14" lengthAdjust="spacing" textLength="278" x="13.5" y="248.7285">PerformPickupAction(ACharacter* Collector)</text></g><!--reverse link APickup to APowerChangingPickup--><g id="link_APickup_APowerChangingPickup"><path codeLine="10" d="M152.5,131.34 C152.5,144.86 152.5,158.58 152.5,170.8 " fill="none" id="APickup-backto-APowerChangingPickup" style="stroke:#181818;stroke-width:1.0;"/><polygon fill="none" points="145.5,131.2,152.5,111.2,159.5,131.2,145.5,131.2" style="stroke:#181818;stroke-width:1.0;"/></g><!--SRC=[bK-z3e8m4Dxx53Ug2Iz0N0Yp2OjnFki13MsFN4iSiEykHKaST72wV5- -lmk3yICAEfWLW6FFkXTs154cKadXDKH17K5R306gnkXX6bVnYK9VmZcV1Lqmr6mjwKYtNLNtc5qa1tYpBFj5DMzv2HgIbiMz0YiT3VjVlgIsThwJB1hV6TzzJ5dv4bhB63Fy9tfxwVWeYgyDJm00]--></g></svg>