<?xml version="1.0" encoding="us-ascii" standalone="no"?><svg xmlns="http://www.w3.org/2000/svg" xmlns:xlink="http://www.w3.org/1999/xlink" contentStyleType="text/css" height="311px" preserveAspectRatio="none" style="width:946px;height:311px;background:#FFFFFF;" version="1.1" viewBox="0 0 946 311" width="946px" zoomAndPan="magnify"><defs/><g><!--class WeatherErrorLogger--><g id="elem_WeatherErrorLogger"><rect codeLine="2" fill="#F1F1F1" height="65.6094" id="WeatherErrorLogger" rx="2.5" ry="2.5" style="stroke:#181818;stroke-width:0.5;" width="247" x="311.5" y="15.5"/><ellipse cx="365.25" cy="31.5" fill="#ADD1B2" rx="11" ry="11" style="stroke:#181818;stroke-width:1.0;"/><path d="M368.0156,27.375 Q368.1719,27.1563 368.3594,27.0469 Q368.5469,26.9375 368.7656,26.9375 Q369.1406,26.9375 369.375,27.2031 Q369.6094,27.4531 369.6094,28.0625 L369.6094,29.5156 Q369.6094,30.125 369.375,30.3906 Q369.1406,30.6563 368.7656,30.6563 Q368.4219,30.6563 368.2188,30.4531 Q368.0156,30.2656 367.9063,29.75 Q367.8594,29.3906 367.6719,29.2031 Q367.3438,28.8281 366.7344,28.6094 Q366.125,28.3906 365.5,28.3906 Q364.7344,28.3906 364.0938,28.7188 Q363.4688,29.0469 362.9688,29.7969 Q362.4844,30.5469 362.4844,31.5781 L362.4844,32.6719 Q362.4844,33.9063 363.375,34.7344 Q364.2656,35.5469 365.8594,35.5469 Q366.7969,35.5469 367.4531,35.2969 Q367.8438,35.1406 368.2656,34.7031 Q368.5313,34.4375 368.6719,34.3594 Q368.8281,34.2813 369.0313,34.2813 Q369.3594,34.2813 369.6094,34.5469 Q369.875,34.7969 369.875,35.1406 Q369.875,35.4844 369.5313,35.8906 Q369.0313,36.4688 368.2344,36.7969 Q367.1563,37.25 365.8594,37.25 Q364.3438,37.25 363.1406,36.625 Q362.1563,36.125 361.4688,35.0625 Q360.7813,33.9844 360.7813,32.7031 L360.7813,31.5469 Q360.7813,30.2188 361.3906,29.0781 Q362.0156,27.9219 363.1094,27.3125 Q364.2031,26.6875 365.4375,26.6875 Q366.1719,26.6875 366.8125,26.8594 Q367.4688,27.0156 368.0156,27.375 Z " fill="#000000"/><text fill="#000000" font-family="sans-serif" font-size="14" lengthAdjust="spacing" textLength="131" x="385.75" y="37.2285">WeatherErrorLogger</text><line style="stroke:#181818;stroke-width:0.5;" x1="312.5" x2="557.5" y1="47.5" y2="47.5"/><line style="stroke:#181818;stroke-width:0.5;" x1="312.5" x2="557.5" y1="55.5" y2="55.5"/><ellipse cx="322.5" cy="69.8047" fill="#84BE84" rx="3" ry="3" style="stroke:#038048;stroke-width:1.0;"/><text fill="#000000" font-family="sans-serif" font-size="14" lengthAdjust="spacing" textLength="221" x="331.5" y="74.0332">log_error(error_msg: string) : None</text></g><!--class WeatherData--><g id="elem_WeatherData"><rect codeLine="6" fill="#F1F1F1" height="83.2188" id="WeatherData" rx="2.5" ry="2.5" style="stroke:#181818;stroke-width:0.5;" width="159" x="593.5" y="7"/><ellipse cx="627.85" cy="23" fill="#ADD1B2" rx="11" ry="11" style="stroke:#181818;stroke-width:1.0;"/><path d="M630.6156,18.875 Q630.7719,18.6563 630.9594,18.5469 Q631.1469,18.4375 631.3656,18.4375 Q631.7406,18.4375 631.975,18.7031 Q632.2094,18.9531 632.2094,19.5625 L632.2094,21.0156 Q632.2094,21.625 631.975,21.8906 Q631.7406,22.1563 631.3656,22.1563 Q631.0219,22.1563 630.8188,21.9531 Q630.6156,21.7656 630.5063,21.25 Q630.4594,20.8906 630.2719,20.7031 Q629.9438,20.3281 629.3344,20.1094 Q628.725,19.8906 628.1,19.8906 Q627.3344,19.8906 626.6938,20.2188 Q626.0688,20.5469 625.5688,21.2969 Q625.0844,22.0469 625.0844,23.0781 L625.0844,24.1719 Q625.0844,25.4063 625.975,26.2344 Q626.8656,27.0469 628.4594,27.0469 Q629.3969,27.0469 630.0531,26.7969 Q630.4438,26.6406 630.8656,26.2031 Q631.1313,25.9375 631.2719,25.8594 Q631.4281,25.7813 631.6313,25.7813 Q631.9594,25.7813 632.2094,26.0469 Q632.475,26.2969 632.475,26.6406 Q632.475,26.9844 632.1313,27.3906 Q631.6313,27.9688 630.8344,28.2969 Q629.7563,28.75 628.4594,28.75 Q626.9438,28.75 625.7406,28.125 Q624.7563,27.625 624.0688,26.5625 Q623.3813,25.4844 623.3813,24.2031 L623.3813,23.0469 Q623.3813,21.7188 623.9906,20.5781 Q624.6156,19.4219 625.7094,18.8125 Q626.8031,18.1875 628.0375,18.1875 Q628.7719,18.1875 629.4125,18.3594 Q630.0688,18.5156 630.6156,18.875 Z " fill="#000000"/><text fill="#000000" font-family="sans-serif" font-size="14" lengthAdjust="spacing" textLength="84" x="646.15" y="28.7285">WeatherData</text><line style="stroke:#181818;stroke-width:0.5;" x1="594.5" x2="751.5" y1="39" y2="39"/><rect fill="none" height="6" style="stroke:#C82930;stroke-width:1.0;" width="6" x="601.5" y="50.3047"/><text fill="#000000" font-family="sans-serif" font-size="14" lengthAdjust="spacing" textLength="116" x="613.5" y="57.5332">_data : list[double]</text><line style="stroke:#181818;stroke-width:0.5;" x1="594.5" x2="751.5" y1="64.6094" y2="64.6094"/><ellipse cx="604.5" cy="78.9141" fill="#84BE84" rx="3" ry="3" style="stroke:#038048;stroke-width:1.0;"/><text fill="#000000" font-family="sans-serif" font-size="14" lengthAdjust="spacing" textLength="133" x="613.5" y="83.1426">format_data() : string</text></g><!--class WeatherDataSource--><g id="elem_WeatherDataSource"><rect codeLine="11" fill="#F1F1F1" height="136.0469" id="WeatherDataSource" rx="2.5" ry="2.5" style="stroke:#181818;stroke-width:0.5;" width="256" x="7" y="168"/><ellipse cx="66.25" cy="184" fill="#ADD1B2" rx="11" ry="11" style="stroke:#181818;stroke-width:1.0;"/><path d="M69.0156,179.875 Q69.1719,179.6563 69.3594,179.5469 Q69.5469,179.4375 69.7656,179.4375 Q70.1406,179.4375 70.375,179.7031 Q70.6094,179.9531 70.6094,180.5625 L70.6094,182.0156 Q70.6094,182.625 70.375,182.8906 Q70.1406,183.1563 69.7656,183.1563 Q69.4219,183.1563 69.2188,182.9531 Q69.0156,182.7656 68.9063,182.25 Q68.8594,181.8906 68.6719,181.7031 Q68.3438,181.3281 67.7344,181.1094 Q67.125,180.8906 66.5,180.8906 Q65.7344,180.8906 65.0938,181.2188 Q64.4688,181.5469 63.9688,182.2969 Q63.4844,183.0469 63.4844,184.0781 L63.4844,185.1719 Q63.4844,186.4063 64.375,187.2344 Q65.2656,188.0469 66.8594,188.0469 Q67.7969,188.0469 68.4531,187.7969 Q68.8438,187.6406 69.2656,187.2031 Q69.5313,186.9375 69.6719,186.8594 Q69.8281,186.7813 70.0313,186.7813 Q70.3594,186.7813 70.6094,187.0469 Q70.875,187.2969 70.875,187.6406 Q70.875,187.9844 70.5313,188.3906 Q70.0313,188.9688 69.2344,189.2969 Q68.1563,189.75 66.8594,189.75 Q65.3438,189.75 64.1406,189.125 Q63.1563,188.625 62.4688,187.5625 Q61.7813,186.4844 61.7813,185.2031 L61.7813,184.0469 Q61.7813,182.7188 62.3906,181.5781 Q63.0156,180.4219 64.1094,179.8125 Q65.2031,179.1875 66.4375,179.1875 Q67.1719,179.1875 67.8125,179.3594 Q68.4688,179.5156 69.0156,179.875 Z " fill="#000000"/><text fill="#000000" font-family="sans-serif" font-size="14" lengthAdjust="spacing" textLength="129" x="86.75" y="189.7285">WeatherDataSource</text><line style="stroke:#181818;stroke-width:0.5;" x1="8" x2="262" y1="200" y2="200"/><rect fill="none" height="6" style="stroke:#C82930;stroke-width:1.0;" width="6" x="15" y="211.3047"/><text fill="#000000" font-family="sans-serif" font-size="14" lengthAdjust="spacing" textLength="113" x="27" y="218.5332">_raw_data : string</text><rect fill="none" height="6" style="stroke:#C82930;stroke-width:1.0;" width="6" x="15" y="228.9141"/><text fill="#000000" font-family="sans-serif" font-size="14" lengthAdjust="spacing" textLength="106" x="27" y="236.1426">_has_data : bool</text><rect fill="none" height="6" style="stroke:#C82930;stroke-width:1.0;" width="6" x="15" y="246.5234"/><text fill="#000000" font-family="sans-serif" font-size="14" lengthAdjust="spacing" textLength="230" x="27" y="253.752">_error_logger : WeatherErrorLogger</text><ellipse cx="18" cy="267.1328" fill="none" rx="3" ry="3" style="stroke:#038048;stroke-width:1.0;"/><text fill="#000000" font-family="sans-serif" font-size="14" lengthAdjust="spacing" textLength="172" x="27" y="271.3613">raw_data : string {property}</text><line style="stroke:#181818;stroke-width:0.5;" x1="8" x2="262" y1="278.4375" y2="278.4375"/><ellipse cx="18" cy="292.7422" fill="#84BE84" rx="3" ry="3" style="stroke:#038048;stroke-width:1.0;"/><text fill="#000000" font-family="sans-serif" font-size="14" lengthAdjust="spacing" textLength="122" x="27" y="296.9707">fetch_data() : None</text></g><!--class WeatherDataParser--><g id="elem_WeatherDataParser"><rect codeLine="19" fill="#F1F1F1" height="83.2188" id="WeatherDataParser" rx="2.5" ry="2.5" style="stroke:#181818;stroke-width:0.5;" width="273" x="298.5" y="194.5"/><ellipse cx="367.75" cy="210.5" fill="#ADD1B2" rx="11" ry="11" style="stroke:#181818;stroke-width:1.0;"/><path d="M370.5156,206.375 Q370.6719,206.1563 370.8594,206.0469 Q371.0469,205.9375 371.2656,205.9375 Q371.6406,205.9375 371.875,206.2031 Q372.1094,206.4531 372.1094,207.0625 L372.1094,208.5156 Q372.1094,209.125 371.875,209.3906 Q371.6406,209.6563 371.2656,209.6563 Q370.9219,209.6563 370.7188,209.4531 Q370.5156,209.2656 370.4063,208.75 Q370.3594,208.3906 370.1719,208.2031 Q369.8438,207.8281 369.2344,207.6094 Q368.625,207.3906 368,207.3906 Q367.2344,207.3906 366.5938,207.7188 Q365.9688,208.0469 365.4688,208.7969 Q364.9844,209.5469 364.9844,210.5781 L364.9844,211.6719 Q364.9844,212.9063 365.875,213.7344 Q366.7656,214.5469 368.3594,214.5469 Q369.2969,214.5469 369.9531,214.2969 Q370.3438,214.1406 370.7656,213.7031 Q371.0313,213.4375 371.1719,213.3594 Q371.3281,213.2813 371.5313,213.2813 Q371.8594,213.2813 372.1094,213.5469 Q372.375,213.7969 372.375,214.1406 Q372.375,214.4844 372.0313,214.8906 Q371.5313,215.4688 370.7344,215.7969 Q369.6563,216.25 368.3594,216.25 Q366.8438,216.25 365.6406,215.625 Q364.6563,215.125 363.9688,214.0625 Q363.2813,212.9844 363.2813,211.7031 L363.2813,210.5469 Q363.2813,209.2188 363.8906,208.0781 Q364.5156,206.9219 365.6094,206.3125 Q366.7031,205.6875 367.9375,205.6875 Q368.6719,205.6875 369.3125,205.8594 Q369.9688,206.0156 370.5156,206.375 Z " fill="#000000"/><text fill="#000000" font-family="sans-serif" font-size="14" lengthAdjust="spacing" textLength="126" x="388.25" y="216.2285">WeatherDataParser</text><line style="stroke:#181818;stroke-width:0.5;" x1="299.5" x2="570.5" y1="226.5" y2="226.5"/><rect fill="none" height="6" style="stroke:#C82930;stroke-width:1.0;" width="6" x="306.5" y="237.8047"/><text fill="#000000" font-family="sans-serif" font-size="14" lengthAdjust="spacing" textLength="230" x="318.5" y="245.0332">_error_logger : WeatherErrorLogger</text><line style="stroke:#181818;stroke-width:0.5;" x1="299.5" x2="570.5" y1="252.1094" y2="252.1094"/><ellipse cx="309.5" cy="266.4141" fill="#84BE84" rx="3" ry="3" style="stroke:#038048;stroke-width:1.0;"/><text fill="#000000" font-family="sans-serif" font-size="14" lengthAdjust="spacing" textLength="247" x="318.5" y="270.6426">parse(raw_data : string) : WeatherData</text></g><!--class WeatherDisplay--><g id="elem_WeatherDisplay"><rect codeLine="24" fill="#F1F1F1" height="100.8281" id="WeatherDisplay" rx="2.5" ry="2.5" style="stroke:#181818;stroke-width:0.5;" width="332" x="607" y="185.5"/><ellipse cx="718.75" cy="201.5" fill="#ADD1B2" rx="11" ry="11" style="stroke:#181818;stroke-width:1.0;"/><path d="M721.5156,197.375 Q721.6719,197.1563 721.8594,197.0469 Q722.0469,196.9375 722.2656,196.9375 Q722.6406,196.9375 722.875,197.2031 Q723.1094,197.4531 723.1094,198.0625 L723.1094,199.5156 Q723.1094,200.125 722.875,200.3906 Q722.6406,200.6563 722.2656,200.6563 Q721.9219,200.6563 721.7188,200.4531 Q721.5156,200.2656 721.4063,199.75 Q721.3594,199.3906 721.1719,199.2031 Q720.8438,198.8281 720.2344,198.6094 Q719.625,198.3906 719,198.3906 Q718.2344,198.3906 717.5938,198.7188 Q716.9688,199.0469 716.4688,199.7969 Q715.9844,200.5469 715.9844,201.5781 L715.9844,202.6719 Q715.9844,203.9063 716.875,204.7344 Q717.7656,205.5469 719.3594,205.5469 Q720.2969,205.5469 720.9531,205.2969 Q721.3438,205.1406 721.7656,204.7031 Q722.0313,204.4375 722.1719,204.3594 Q722.3281,204.2813 722.5313,204.2813 Q722.8594,204.2813 723.1094,204.5469 Q723.375,204.7969 723.375,205.1406 Q723.375,205.4844 723.0313,205.8906 Q722.5313,206.4688 721.7344,206.7969 Q720.6563,207.25 719.3594,207.25 Q717.8438,207.25 716.6406,206.625 Q715.6563,206.125 714.9688,205.0625 Q714.2813,203.9844 714.2813,202.7031 L714.2813,201.5469 Q714.2813,200.2188 714.8906,199.0781 Q715.5156,197.9219 716.6094,197.3125 Q717.7031,196.6875 718.9375,196.6875 Q719.6719,196.6875 720.3125,196.8594 Q720.9688,197.0156 721.5156,197.375 Z " fill="#000000"/><text fill="#000000" font-family="sans-serif" font-size="14" lengthAdjust="spacing" textLength="100" x="739.25" y="207.2285">WeatherDisplay</text><line style="stroke:#181818;stroke-width:0.5;" x1="608" x2="938" y1="217.5" y2="217.5"/><rect fill="none" height="6" style="stroke:#C82930;stroke-width:1.0;" width="6" x="615" y="228.8047"/><text fill="#000000" font-family="sans-serif" font-size="14" lengthAdjust="spacing" textLength="230" x="627" y="236.0332">_error_logger : WeatherErrorLogger</text><line style="stroke:#181818;stroke-width:0.5;" x1="608" x2="938" y1="243.1094" y2="243.1094"/><ellipse cx="618" cy="257.4141" fill="#84BE84" rx="3" ry="3" style="stroke:#038048;stroke-width:1.0;"/><text fill="#000000" font-family="sans-serif" font-size="14" lengthAdjust="spacing" textLength="306" x="627" y="261.6426">display_in_format_a(data : WeatherData) : None</text><ellipse cx="618" cy="275.0234" fill="#84BE84" rx="3" ry="3" style="stroke:#038048;stroke-width:1.0;"/><text fill="#000000" font-family="sans-serif" font-size="14" lengthAdjust="spacing" textLength="306" x="627" y="279.252">display_in_format_b(data : WeatherData) : None</text></g><!--reverse link WeatherErrorLogger to WeatherDataSource--><g id="link_WeatherErrorLogger_WeatherDataSource"><path codeLine="30" d="M377.9868,84.7555 C339.5768,108.5055 291,138.54 243.4,167.98 " fill="none" id="WeatherErrorLogger-backto-WeatherDataSource" style="stroke:#181818;stroke-width:1.0;stroke-dasharray:7.0,7.0;"/><polygon fill="#181818" points="383.09,81.6,373.3315,82.9311,378.8373,84.2296,377.5388,89.7354,383.09,81.6" style="stroke:#181818;stroke-width:1.0;"/><text fill="#000000" font-family="sans-serif" font-size="13" lengthAdjust="spacing" textLength="21" x="322" y="134.4951">has</text></g><!--reverse link WeatherErrorLogger to WeatherDataParser--><g id="link_WeatherErrorLogger_WeatherDataParser"><path codeLine="31" d="M435,87.81 C435,119.06 435,160.51 435,194.31 " fill="none" id="WeatherErrorLogger-backto-WeatherDataParser" style="stroke:#181818;stroke-width:1.0;stroke-dasharray:7.0,7.0;"/><polygon fill="#181818" points="435,81.81,431,90.81,435,86.81,439,90.81,435,81.81" style="stroke:#181818;stroke-width:1.0;"/><text fill="#000000" font-family="sans-serif" font-size="13" lengthAdjust="spacing" textLength="21" x="436" y="134.4951">has</text></g><!--reverse link WeatherErrorLogger to WeatherDisplay--><g id="link_WeatherErrorLogger_WeatherDisplay"><path codeLine="32" d="M498.7497,84.4871 C550.7997,113.0571 622.51,152.41 682.5,185.33 " fill="none" id="WeatherErrorLogger-backto-WeatherDisplay" style="stroke:#181818;stroke-width:1.0;stroke-dasharray:7.0,7.0;"/><polygon fill="#181818" points="493.49,81.6,499.4549,89.4371,497.8731,84.0059,503.3043,82.4241,493.49,81.6" style="stroke:#181818;stroke-width:1.0;"/><text fill="#000000" font-family="sans-serif" font-size="13" lengthAdjust="spacing" textLength="21" x="595" y="134.4951">has</text></g><!--SRC=[bLBDQiCm3BxdANHC6Uq3c1stMnc37NeenIY9wWJSACWkevI- - -BQJGj9Hvg38P_r_KXoQT4vs13wckHJX6NDnf30EOF-UxDiD0Kulvxwu8m2vwLfpG8KV75BsINBoaUP3_IO-4jTXHy5jd5-M_6niBIBodkM0_hhVHwaekYas0yVfQH1Kl3t9fj84Q_HtV22sIOqvhQnApNHQemp4eLp9zoH-DCb1IPVrlUyJrl_Hd7306VxTu6LZr8ixfIWFJPiN6VnzAfR5McwQNNQ0-R9zy5jQFC9f_YFqoUTU5RlgzN4PXNqkvjHdaOxgpmD9jR-0G00]--></g></svg>