<?xml version="1.0" encoding="us-ascii" standalone="no"?><svg xmlns="http://www.w3.org/2000/svg" xmlns:xlink="http://www.w3.org/1999/xlink" contentStyleType="text/css" height="275px" preserveAspectRatio="none" style="width:764px;height:275px;background:#FFFFFF;" version="1.1" viewBox="0 0 764 275" width="764px" zoomAndPan="magnify"><defs/><g><!--class Subject--><g id="elem_Subject"><rect codeLine="2" fill="#F1F1F1" height="100.8281" id="Subject" rx="2.5" ry="2.5" style="stroke:#181818;stroke-width:0.5;" width="208" x="192.5" y="7"/><ellipse cx="268.75" cy="23" fill="#ADD1B2" rx="11" ry="11" style="stroke:#181818;stroke-width:1.0;"/><path d="M271.5156,18.875 Q271.6719,18.6563 271.8594,18.5469 Q272.0469,18.4375 272.2656,18.4375 Q272.6406,18.4375 272.875,18.7031 Q273.1094,18.9531 273.1094,19.5625 L273.1094,21.0156 Q273.1094,21.625 272.875,21.8906 Q272.6406,22.1563 272.2656,22.1563 Q271.9219,22.1563 271.7188,21.9531 Q271.5156,21.7656 271.4063,21.25 Q271.3594,20.8906 271.1719,20.7031 Q270.8438,20.3281 270.2344,20.1094 Q269.625,19.8906 269,19.8906 Q268.2344,19.8906 267.5938,20.2188 Q266.9688,20.5469 266.4688,21.2969 Q265.9844,22.0469 265.9844,23.0781 L265.9844,24.1719 Q265.9844,25.4063 266.875,26.2344 Q267.7656,27.0469 269.3594,27.0469 Q270.2969,27.0469 270.9531,26.7969 Q271.3438,26.6406 271.7656,26.2031 Q272.0313,25.9375 272.1719,25.8594 Q272.3281,25.7813 272.5313,25.7813 Q272.8594,25.7813 273.1094,26.0469 Q273.375,26.2969 273.375,26.6406 Q273.375,26.9844 273.0313,27.3906 Q272.5313,27.9688 271.7344,28.2969 Q270.6563,28.75 269.3594,28.75 Q267.8438,28.75 266.6406,28.125 Q265.6563,27.625 264.9688,26.5625 Q264.2813,25.4844 264.2813,24.2031 L264.2813,23.0469 Q264.2813,21.7188 264.8906,20.5781 Q265.5156,19.4219 266.6094,18.8125 Q267.7031,18.1875 268.9375,18.1875 Q269.6719,18.1875 270.3125,18.3594 Q270.9688,18.5156 271.5156,18.875 Z " fill="#000000"/><text fill="#000000" font-family="sans-serif" font-size="14" lengthAdjust="spacing" textLength="47" x="289.25" y="28.7285">Subject</text><line style="stroke:#181818;stroke-width:0.5;" x1="193.5" x2="399.5" y1="39" y2="39"/><line style="stroke:#181818;stroke-width:0.5;" x1="193.5" x2="399.5" y1="47" y2="47"/><ellipse cx="203.5" cy="61.3047" fill="#84BE84" rx="3" ry="3" style="stroke:#038048;stroke-width:1.0;"/><text fill="#000000" font-family="sans-serif" font-size="14" lengthAdjust="spacing" textLength="177" x="212.5" y="65.5332">Attach(observer : Observer)</text><ellipse cx="203.5" cy="78.9141" fill="#84BE84" rx="3" ry="3" style="stroke:#038048;stroke-width:1.0;"/><text fill="#000000" font-family="sans-serif" font-size="14" lengthAdjust="spacing" textLength="182" x="212.5" y="83.1426">Detach(observer : Observer)</text><ellipse cx="203.5" cy="96.5234" fill="#84BE84" rx="3" ry="3" style="stroke:#038048;stroke-width:1.0;"/><text fill="#000000" font-family="sans-serif" font-size="14" lengthAdjust="spacing" textLength="45" x="212.5" y="100.752">Notify()</text></g><path d="M6,23 L6,82.0547 A0,0 0 0 0 6,82.0547 L157,82.0547 A0,0 0 0 0 157,82.0547 L157,56.5273 L196.5,95.0234 L157,48.5273 L157,33 L147,23 L6,23 A0,0 0 0 0 6,23 " fill="#FEFFDD" style="stroke:#181818;stroke-width:0.5;"/><path d="M147,23 L147,33 L157,33 L147,23 " fill="#FEFFDD" style="stroke:#181818;stroke-width:0.5;"/><text fill="#000000" font-family="sans-serif" font-size="13" lengthAdjust="spacing" textLength="130" x="12" y="41.4951">for each o in observers</text><text fill="#000000" font-family="sans-serif" font-size="13" lengthAdjust="spacing" textLength="60" x="28" y="57.8467">o.Update()</text><text fill="#000000" font-family="sans-serif" font-size="13" lengthAdjust="spacing" textLength="39" x="12" y="74.1982">end for</text><!--class Observer--><g id="elem_Observer"><rect codeLine="14" fill="#F1F1F1" height="65.6094" id="Observer" rx="2.5" ry="2.5" style="stroke:#181818;stroke-width:0.5;" width="90" x="443.5" y="24.5"/><ellipse cx="458.5" cy="40.5" fill="#B4A7E5" rx="11" ry="11" style="stroke:#181818;stroke-width:1.0;"/><path d="M459.4531,37.1406 L459.4531,43.7969 L461.1719,43.7969 Q461.7813,43.7969 462.0469,44.0313 Q462.3125,44.2656 462.3125,44.6563 Q462.3125,45.0313 462.0469,45.2656 Q461.7813,45.5 461.1719,45.5 L456.0313,45.5 Q455.4219,45.5 455.1563,45.2656 Q454.8906,45.0313 454.8906,44.6406 Q454.8906,44.2656 455.1563,44.0313 Q455.4219,43.7969 456.0313,43.7969 L457.75,43.7969 L457.75,37.1406 L456.0313,37.1406 Q455.4219,37.1406 455.1563,36.9063 Q454.8906,36.6719 454.8906,36.2813 Q454.8906,35.9063 455.1563,35.6719 Q455.4219,35.4375 456.0313,35.4375 L461.1719,35.4375 Q461.7813,35.4375 462.0469,35.6719 Q462.3125,35.9063 462.3125,36.2813 Q462.3125,36.6719 462.0469,36.9063 Q461.7813,37.1406 461.1719,37.1406 L459.4531,37.1406 Z " fill="#000000"/><text fill="#000000" font-family="sans-serif" font-size="14" font-style="italic" lengthAdjust="spacing" textLength="58" x="472.5" y="46.2285">Observer</text><line style="stroke:#181818;stroke-width:0.5;" x1="444.5" x2="532.5" y1="56.5" y2="56.5"/><line style="stroke:#181818;stroke-width:0.5;" x1="444.5" x2="532.5" y1="64.5" y2="64.5"/><ellipse cx="454.5" cy="78.8047" fill="#84BE84" rx="3" ry="3" style="stroke:#038048;stroke-width:1.0;"/><text fill="#000000" font-family="sans-serif" font-size="14" lengthAdjust="spacing" textLength="55" x="463.5" y="83.0332">Update()</text></g><!--class ConcreteSubject--><g id="elem_ConcreteSubject"><rect codeLine="18" fill="#F1F1F1" height="100.8281" id="ConcreteSubject" rx="2.5" ry="2.5" style="stroke:#181818;stroke-width:0.5;" width="142" x="221.5" y="168"/><ellipse cx="238.75" cy="184" fill="#ADD1B2" rx="11" ry="11" style="stroke:#181818;stroke-width:1.0;"/><path d="M241.5156,179.875 Q241.6719,179.6563 241.8594,179.5469 Q242.0469,179.4375 242.2656,179.4375 Q242.6406,179.4375 242.875,179.7031 Q243.1094,179.9531 243.1094,180.5625 L243.1094,182.0156 Q243.1094,182.625 242.875,182.8906 Q242.6406,183.1563 242.2656,183.1563 Q241.9219,183.1563 241.7188,182.9531 Q241.5156,182.7656 241.4063,182.25 Q241.3594,181.8906 241.1719,181.7031 Q240.8438,181.3281 240.2344,181.1094 Q239.625,180.8906 239,180.8906 Q238.2344,180.8906 237.5938,181.2188 Q236.9688,181.5469 236.4688,182.2969 Q235.9844,183.0469 235.9844,184.0781 L235.9844,185.1719 Q235.9844,186.4063 236.875,187.2344 Q237.7656,188.0469 239.3594,188.0469 Q240.2969,188.0469 240.9531,187.7969 Q241.3438,187.6406 241.7656,187.2031 Q242.0313,186.9375 242.1719,186.8594 Q242.3281,186.7813 242.5313,186.7813 Q242.8594,186.7813 243.1094,187.0469 Q243.375,187.2969 243.375,187.6406 Q243.375,187.9844 243.0313,188.3906 Q242.5313,188.9688 241.7344,189.2969 Q240.6563,189.75 239.3594,189.75 Q237.8438,189.75 236.6406,189.125 Q235.6563,188.625 234.9688,187.5625 Q234.2813,186.4844 234.2813,185.2031 L234.2813,184.0469 Q234.2813,182.7188 234.8906,181.5781 Q235.5156,180.4219 236.6094,179.8125 Q237.7031,179.1875 238.9375,179.1875 Q239.6719,179.1875 240.3125,179.3594 Q240.9688,179.5156 241.5156,179.875 Z " fill="#000000"/><text fill="#000000" font-family="sans-serif" font-size="14" lengthAdjust="spacing" textLength="105" x="253.25" y="189.7285">ConcreteSubject</text><line style="stroke:#181818;stroke-width:0.5;" x1="222.5" x2="362.5" y1="200" y2="200"/><rect fill="none" height="6" style="stroke:#C82930;stroke-width:1.0;" width="6" x="229.5" y="211.3047"/><text fill="#000000" font-family="sans-serif" font-size="14" lengthAdjust="spacing" textLength="99" x="241.5" y="218.5332">subjectState : T</text><line style="stroke:#181818;stroke-width:0.5;" x1="222.5" x2="362.5" y1="225.6094" y2="225.6094"/><ellipse cx="232.5" cy="239.9141" fill="#84BE84" rx="3" ry="3" style="stroke:#038048;stroke-width:1.0;"/><text fill="#000000" font-family="sans-serif" font-size="14" lengthAdjust="spacing" textLength="87" x="241.5" y="244.1426">GetState() : T</text><ellipse cx="232.5" cy="257.5234" fill="#84BE84" rx="3" ry="3" style="stroke:#038048;stroke-width:1.0;"/><text fill="#000000" font-family="sans-serif" font-size="14" lengthAdjust="spacing" textLength="116" x="241.5" y="261.752">SetState(state : T)</text></g><path d="M47,174 L47,200.3516 A0,0 0 0 0 47,200.3516 L178,200.3516 A0,0 0 0 0 178,200.3516 L178,192 L225.5,238.4141 L178,184 L178,184 L168,174 L47,174 A0,0 0 0 0 47,174 " fill="#FEFFDD" style="stroke:#181818;stroke-width:0.5;"/><path d="M168,174 L168,184 L178,184 L168,174 " fill="#FEFFDD" style="stroke:#181818;stroke-width:0.5;"/><text fill="#000000" font-family="sans-serif" font-size="13" lengthAdjust="spacing" textLength="110" x="53" y="192.4951">return subjectState</text><path d="M47,210.3516 L47,253.0547 A0,0 0 0 0 47,253.0547 L186,253.0547 A0,0 0 0 0 186,253.0547 L186,235.7031 L225.5,256.0234 L186,227.7031 L186,220.3516 L176,210.3516 L47,210.3516 A0,0 0 0 0 47,210.3516 " fill="#FEFFDD" style="stroke:#181818;stroke-width:0.5;"/><path d="M176,210.3516 L176,220.3516 L186,220.3516 L176,210.3516 " fill="#FEFFDD" style="stroke:#181818;stroke-width:0.5;"/><text fill="#000000" font-family="sans-serif" font-size="13" lengthAdjust="spacing" textLength="118" x="53" y="228.8467">subjectState = state</text><text fill="#000000" font-family="sans-serif" font-size="13" lengthAdjust="spacing" textLength="41" x="53" y="245.1982">Notify()</text><!--class ConcreteObserver--><g id="elem_ConcreteObserver"><rect codeLine="33" fill="#F1F1F1" height="100.8281" id="ConcreteObserver" rx="2.5" ry="2.5" style="stroke:#181818;stroke-width:0.5;" width="188" x="398.5" y="168"/><ellipse cx="431.05" cy="184" fill="#ADD1B2" rx="11" ry="11" style="stroke:#181818;stroke-width:1.0;"/><path d="M433.8156,179.875 Q433.9719,179.6563 434.1594,179.5469 Q434.3469,179.4375 434.5656,179.4375 Q434.9406,179.4375 435.175,179.7031 Q435.4094,179.9531 435.4094,180.5625 L435.4094,182.0156 Q435.4094,182.625 435.175,182.8906 Q434.9406,183.1563 434.5656,183.1563 Q434.2219,183.1563 434.0188,182.9531 Q433.8156,182.7656 433.7063,182.25 Q433.6594,181.8906 433.4719,181.7031 Q433.1438,181.3281 432.5344,181.1094 Q431.925,180.8906 431.3,180.8906 Q430.5344,180.8906 429.8938,181.2188 Q429.2688,181.5469 428.7688,182.2969 Q428.2844,183.0469 428.2844,184.0781 L428.2844,185.1719 Q428.2844,186.4063 429.175,187.2344 Q430.0656,188.0469 431.6594,188.0469 Q432.5969,188.0469 433.2531,187.7969 Q433.6438,187.6406 434.0656,187.2031 Q434.3313,186.9375 434.4719,186.8594 Q434.6281,186.7813 434.8313,186.7813 Q435.1594,186.7813 435.4094,187.0469 Q435.675,187.2969 435.675,187.6406 Q435.675,187.9844 435.3313,188.3906 Q434.8313,188.9688 434.0344,189.2969 Q432.9563,189.75 431.6594,189.75 Q430.1438,189.75 428.9406,189.125 Q427.9563,188.625 427.2688,187.5625 Q426.5813,186.4844 426.5813,185.2031 L426.5813,184.0469 Q426.5813,182.7188 427.1906,181.5781 Q427.8156,180.4219 428.9094,179.8125 Q430.0031,179.1875 431.2375,179.1875 Q431.9719,179.1875 432.6125,179.3594 Q433.2688,179.5156 433.8156,179.875 Z " fill="#000000"/><text fill="#000000" font-family="sans-serif" font-size="14" lengthAdjust="spacing" textLength="117" x="448.95" y="189.7285">ConcreteObserver</text><line style="stroke:#181818;stroke-width:0.5;" x1="399.5" x2="585.5" y1="200" y2="200"/><rect fill="none" height="6" style="stroke:#C82930;stroke-width:1.0;" width="6" x="406.5" y="211.3047"/><text fill="#000000" font-family="sans-serif" font-size="14" lengthAdjust="spacing" textLength="110" x="418.5" y="218.5332">observerState : T</text><rect fill="none" height="6" style="stroke:#C82930;stroke-width:1.0;" width="6" x="406.5" y="228.9141"/><text fill="#000000" font-family="sans-serif" font-size="14" lengthAdjust="spacing" textLength="162" x="418.5" y="236.1426">subject : ConcreteSubject</text><line style="stroke:#181818;stroke-width:0.5;" x1="399.5" x2="585.5" y1="243.2188" y2="243.2188"/><ellipse cx="409.5" cy="257.5234" fill="#84BE84" rx="3" ry="3" style="stroke:#038048;stroke-width:1.0;"/><text fill="#000000" font-family="sans-serif" font-size="14" lengthAdjust="spacing" textLength="55" x="418.5" y="261.752">Update()</text></g><path d="M622,192 L622,209.3516 L473.5,256.0234 L622,217.3516 L622,234.7031 A0,0 0 0 0 622,234.7031 L757,234.7031 A0,0 0 0 0 757,234.7031 L757,202 L747,192 L622,192 A0,0 0 0 0 622,192 " fill="#FEFFDD" style="stroke:#181818;stroke-width:0.5;"/><path d="M747,192 L747,202 L757,202 L747,192 " fill="#FEFFDD" style="stroke:#181818;stroke-width:0.5;"/><text fill="#000000" font-family="sans-serif" font-size="13" lengthAdjust="spacing" textLength="91" x="628" y="210.4951">observerState =</text><text fill="#000000" font-family="sans-serif" font-size="13" lengthAdjust="spacing" textLength="106" x="636" y="226.8467">subject.GetState()</text><!--link Subject to Observer--><g id="link_Subject_Observer"><path codeLine="44" d="M400.75,57.5 C414.92,57.5 423.09,57.5 437.25,57.5 " fill="none" id="Subject-to-Observer" style="stroke:#181818;stroke-width:1.0;"/><polygon fill="#181818" points="443.25,57.5,434.25,53.5,438.25,57.5,434.25,61.5,443.25,57.5" style="stroke:#181818;stroke-width:1.0;"/><text fill="#000000" font-family="sans-serif" font-size="13" lengthAdjust="spacing" textLength="5" x="430.6398" y="53.7793">*</text></g><!--reverse link Subject to ConcreteSubject--><g id="link_Subject_ConcreteSubject"><path codeLine="45" d="M294.7942,126.3642 C294.3142,145.3142 294.23,148.88 293.75,167.8 " fill="none" id="Subject-backto-ConcreteSubject" style="stroke:#181818;stroke-width:1.0;"/><polygon fill="none" points="295.25,108.37,288.7961,126.2123,300.7923,126.5162,295.25,108.37" style="stroke:#181818;stroke-width:1.0;"/></g><!--reverse link Observer to ConcreteObserver--><g id="link_Observer_ConcreteObserver"><path codeLine="46" d="M489.7651,108.6742 C490.3251,130.8142 490.62,142.66 491.25,167.83 " fill="none" id="Observer-backto-ConcreteObserver" style="stroke:#181818;stroke-width:1.0;stroke-dasharray:7.0,7.0;"/><polygon fill="none" points="489.31,90.68,483.7671,108.826,495.7632,108.5225,489.31,90.68" style="stroke:#181818;stroke-width:1.0;"/></g><!--reverse link ConcreteSubject to ConcreteObserver--><g id="link_ConcreteSubject_ConcreteObserver"><path codeLine="47" d="M369.59,218.5 C381.18,218.5 386.76,218.5 398.34,218.5 " fill="none" id="ConcreteSubject-backto-ConcreteObserver" style="stroke:#181818;stroke-width:1.0;"/><polygon fill="#181818" points="363.59,218.5,372.59,222.5,368.59,218.5,372.59,214.5,363.59,218.5" style="stroke:#181818;stroke-width:1.0;"/></g><!--SRC=[XL91JiCm4Bpx5QkU4f3p02j5GY1nWqFW0Qcpfgag6zak257-ZXF7spX1u4kItV7ip6paiNKEcjFkWDB35uDmhk7M-rRk2xDpQD_HWe2dwRMS4FVu7-BH-5vz5YNxPamRZt14vS6eD4o8Y1ZXobZ0G0W6UWs9rOszuPZgvQrhFHQH7NKtN673S-1chDSUhMebaWuoGpU343dQlJDQMlIOs-RWudVZ0puuUfu87Z2MYd9MR5BH9VJQwMAE48bfv0YTazNPq9cXlucQEL4cUmkE6hI22sqUm28hJidd4L0oeRAGyal6etBRl-upwMcK417Byb5RHZwgIzupuMbN_0OsLnlQCjNhC-ShSUIlFbUT-T3LIWvR_WirNsD-0000]--></g></svg>