<?xml version="1.0" encoding="us-ascii" standalone="no"?><svg xmlns="http://www.w3.org/2000/svg" xmlns:xlink="http://www.w3.org/1999/xlink" contentStyleType="text/css" height="561px" preserveAspectRatio="none" style="width:1068px;height:561px;background:#FFFFFF;" version="1.1" viewBox="0 0 1068 561" width="1068px" zoomAndPan="magnify"><defs/><g><!--class Stock--><g id="elem_Stock"><rect codeLine="2" fill="#F1F1F1" height="153.6563" id="Stock" rx="2.5" ry="2.5" style="stroke:#181818;stroke-width:0.5;" width="247" x="7" y="239"/><ellipse cx="108.75" cy="255" fill="#ADD1B2" rx="11" ry="11" style="stroke:#181818;stroke-width:1.0;"/><path d="M111.5156,250.875 Q111.6719,250.6563 111.8594,250.5469 Q112.0469,250.4375 112.2656,250.4375 Q112.6406,250.4375 112.875,250.7031 Q113.1094,250.9531 113.1094,251.5625 L113.1094,253.0156 Q113.1094,253.625 112.875,253.8906 Q112.6406,254.1563 112.2656,254.1563 Q111.9219,254.1563 111.7188,253.9531 Q111.5156,253.7656 111.4063,253.25 Q111.3594,252.8906 111.1719,252.7031 Q110.8438,252.3281 110.2344,252.1094 Q109.625,251.8906 109,251.8906 Q108.2344,251.8906 107.5938,252.2188 Q106.9688,252.5469 106.4688,253.2969 Q105.9844,254.0469 105.9844,255.0781 L105.9844,256.1719 Q105.9844,257.4063 106.875,258.2344 Q107.7656,259.0469 109.3594,259.0469 Q110.2969,259.0469 110.9531,258.7969 Q111.3438,258.6406 111.7656,258.2031 Q112.0313,257.9375 112.1719,257.8594 Q112.3281,257.7813 112.5313,257.7813 Q112.8594,257.7813 113.1094,258.0469 Q113.375,258.2969 113.375,258.6406 Q113.375,258.9844 113.0313,259.3906 Q112.5313,259.9688 111.7344,260.2969 Q110.6563,260.75 109.3594,260.75 Q107.8438,260.75 106.6406,260.125 Q105.6563,259.625 104.9688,258.5625 Q104.2813,257.4844 104.2813,256.2031 L104.2813,255.0469 Q104.2813,253.7188 104.8906,252.5781 Q105.5156,251.4219 106.6094,250.8125 Q107.7031,250.1875 108.9375,250.1875 Q109.6719,250.1875 110.3125,250.3594 Q110.9688,250.5156 111.5156,250.875 Z " fill="#000000"/><text fill="#000000" font-family="sans-serif" font-size="14" lengthAdjust="spacing" textLength="35" x="129.25" y="260.7285">Stock</text><line style="stroke:#181818;stroke-width:0.5;" x1="8" x2="253" y1="271" y2="271"/><rect fill="none" height="6" style="stroke:#C82930;stroke-width:1.0;" width="6" x="15" y="282.3047"/><text fill="#000000" font-family="sans-serif" font-size="14" lengthAdjust="spacing" textLength="82" x="27" y="289.5332">name : string</text><rect fill="none" height="6" style="stroke:#C82930;stroke-width:1.0;" width="6" x="15" y="299.9141"/><text fill="#000000" font-family="sans-serif" font-size="14" lengthAdjust="spacing" textLength="86" x="27" y="307.1426">price : double</text><line style="stroke:#181818;stroke-width:0.5;" x1="8" x2="253" y1="314.2188" y2="314.2188"/><ellipse cx="18" cy="328.5234" fill="#84BE84" rx="3" ry="3" style="stroke:#038048;stroke-width:1.0;"/><text fill="#000000" font-family="sans-serif" font-size="14" lengthAdjust="spacing" textLength="221" x="27" y="332.752">Stock(name : string, price : double)</text><ellipse cx="18" cy="346.1328" fill="#84BE84" rx="3" ry="3" style="stroke:#038048;stroke-width:1.0;"/><text fill="#000000" font-family="sans-serif" font-size="14" lengthAdjust="spacing" textLength="116" x="27" y="350.3613">GetName() : string</text><ellipse cx="18" cy="363.7422" fill="#84BE84" rx="3" ry="3" style="stroke:#038048;stroke-width:1.0;"/><text fill="#000000" font-family="sans-serif" font-size="14" lengthAdjust="spacing" textLength="120" x="27" y="367.9707">GetPrice() : double</text><ellipse cx="18" cy="381.3516" fill="#84BE84" rx="3" ry="3" style="stroke:#038048;stroke-width:1.0;"/><text fill="#000000" font-family="sans-serif" font-size="14" lengthAdjust="spacing" textLength="220" x="27" y="385.5801">SetPrice(new_price : double) : void</text></g><!--class StockObserver--><g id="elem_StockObserver"><rect codeLine="11" fill="#F1F1F1" height="65.6094" id="StockObserver" rx="2.5" ry="2.5" style="stroke:#181818;stroke-width:0.5;" width="344" x="432.5" y="283"/><ellipse cx="553.25" cy="299" fill="#B4A7E5" rx="11" ry="11" style="stroke:#181818;stroke-width:1.0;"/><path d="M554.2031,295.6406 L554.2031,302.2969 L555.9219,302.2969 Q556.5313,302.2969 556.7969,302.5313 Q557.0625,302.7656 557.0625,303.1563 Q557.0625,303.5313 556.7969,303.7656 Q556.5313,304 555.9219,304 L550.7813,304 Q550.1719,304 549.9063,303.7656 Q549.6406,303.5313 549.6406,303.1406 Q549.6406,302.7656 549.9063,302.5313 Q550.1719,302.2969 550.7813,302.2969 L552.5,302.2969 L552.5,295.6406 L550.7813,295.6406 Q550.1719,295.6406 549.9063,295.4063 Q549.6406,295.1719 549.6406,294.7813 Q549.6406,294.4063 549.9063,294.1719 Q550.1719,293.9375 550.7813,293.9375 L555.9219,293.9375 Q556.5313,293.9375 556.7969,294.1719 Q557.0625,294.4063 557.0625,294.7813 Q557.0625,295.1719 556.7969,295.4063 Q556.5313,295.6406 555.9219,295.6406 L554.2031,295.6406 Z " fill="#000000"/><text fill="#000000" font-family="sans-serif" font-size="14" font-style="italic" lengthAdjust="spacing" textLength="94" x="573.75" y="304.7285">StockObserver</text><line style="stroke:#181818;stroke-width:0.5;" x1="433.5" x2="775.5" y1="315" y2="315"/><line style="stroke:#181818;stroke-width:0.5;" x1="433.5" x2="775.5" y1="323" y2="323"/><ellipse cx="443.5" cy="337.3047" fill="#84BE84" rx="3" ry="3" style="stroke:#038048;stroke-width:1.0;"/><text fill="#000000" font-family="sans-serif" font-size="14" font-style="italic" lengthAdjust="spacing" textLength="318" x="452.5" y="341.5332">NoteUpdatedPrices(stocks : vector&lt;Stock*&gt;) : void</text></g><!--class StockMarket--><g id="elem_StockMarket"><rect codeLine="15" fill="#F1F1F1" height="153.6563" id="StockMarket" rx="2.5" ry="2.5" style="stroke:#181818;stroke-width:0.5;" width="335" x="8" y="7"/><ellipse cx="132.25" cy="23" fill="#ADD1B2" rx="11" ry="11" style="stroke:#181818;stroke-width:1.0;"/><path d="M135.0156,18.875 Q135.1719,18.6563 135.3594,18.5469 Q135.5469,18.4375 135.7656,18.4375 Q136.1406,18.4375 136.375,18.7031 Q136.6094,18.9531 136.6094,19.5625 L136.6094,21.0156 Q136.6094,21.625 136.375,21.8906 Q136.1406,22.1563 135.7656,22.1563 Q135.4219,22.1563 135.2188,21.9531 Q135.0156,21.7656 134.9063,21.25 Q134.8594,20.8906 134.6719,20.7031 Q134.3438,20.3281 133.7344,20.1094 Q133.125,19.8906 132.5,19.8906 Q131.7344,19.8906 131.0938,20.2188 Q130.4688,20.5469 129.9688,21.2969 Q129.4844,22.0469 129.4844,23.0781 L129.4844,24.1719 Q129.4844,25.4063 130.375,26.2344 Q131.2656,27.0469 132.8594,27.0469 Q133.7969,27.0469 134.4531,26.7969 Q134.8438,26.6406 135.2656,26.2031 Q135.5313,25.9375 135.6719,25.8594 Q135.8281,25.7813 136.0313,25.7813 Q136.3594,25.7813 136.6094,26.0469 Q136.875,26.2969 136.875,26.6406 Q136.875,26.9844 136.5313,27.3906 Q136.0313,27.9688 135.2344,28.2969 Q134.1563,28.75 132.8594,28.75 Q131.3438,28.75 130.1406,28.125 Q129.1563,27.625 128.4688,26.5625 Q127.7813,25.4844 127.7813,24.2031 L127.7813,23.0469 Q127.7813,21.7188 128.3906,20.5781 Q129.0156,19.4219 130.1094,18.8125 Q131.2031,18.1875 132.4375,18.1875 Q133.1719,18.1875 133.8125,18.3594 Q134.4688,18.5156 135.0156,18.875 Z " fill="#000000"/><text fill="#000000" font-family="sans-serif" font-size="14" lengthAdjust="spacing" textLength="78" x="152.75" y="28.7285">StockMarket</text><line style="stroke:#181818;stroke-width:0.5;" x1="9" x2="342" y1="39" y2="39"/><rect fill="none" height="6" style="stroke:#C82930;stroke-width:1.0;" width="6" x="16" y="50.3047"/><text fill="#000000" font-family="sans-serif" font-size="14" lengthAdjust="spacing" textLength="178" x="28" y="57.5332">stocks : map&lt;string, Stock*&gt;</text><rect fill="none" height="6" style="stroke:#C82930;stroke-width:1.0;" width="6" x="16" y="67.9141"/><text fill="#000000" font-family="sans-serif" font-size="14" lengthAdjust="spacing" textLength="229" x="28" y="75.1426">observers : vector&lt;StockObserver*&gt;</text><line style="stroke:#181818;stroke-width:0.5;" x1="9" x2="342" y1="82.2188" y2="82.2188"/><rect fill="#F24D5C" height="6" style="stroke:#C82930;stroke-width:1.0;" width="6" x="16" y="93.5234"/><text fill="#000000" font-family="sans-serif" font-size="14" lengthAdjust="spacing" textLength="149" x="28" y="100.752">NotifyObservers() : void</text><ellipse cx="19" cy="114.1328" fill="#84BE84" rx="3" ry="3" style="stroke:#038048;stroke-width:1.0;"/><text fill="#000000" font-family="sans-serif" font-size="14" lengthAdjust="spacing" textLength="188" x="28" y="118.3613">AddStock(stock : Stock) : void</text><ellipse cx="19" cy="131.7422" fill="#84BE84" rx="3" ry="3" style="stroke:#038048;stroke-width:1.0;"/><text fill="#000000" font-family="sans-serif" font-size="14" lengthAdjust="spacing" textLength="309" x="28" y="135.9707">AttachObserver(observer : StockObserver) : void</text><ellipse cx="19" cy="149.3516" fill="#84BE84" rx="3" ry="3" style="stroke:#038048;stroke-width:1.0;"/><text fill="#000000" font-family="sans-serif" font-size="14" lengthAdjust="spacing" textLength="132" x="28" y="153.5801">UpdatePrices() : void</text></g><path d="M378,31.5 L378,48.8516 L177,95.0234 L378,56.8516 L378,74.2031 A0,0 0 0 0 378,74.2031 L626,74.2031 A0,0 0 0 0 626,74.2031 L626,41.5 L616,31.5 L378,31.5 A0,0 0 0 0 378,31.5 " fill="#FEFFDD" style="stroke:#181818;stroke-width:0.5;"/><path d="M616,31.5 L616,41.5 L626,41.5 L616,31.5 " fill="#FEFFDD" style="stroke:#181818;stroke-width:0.5;"/><text fill="#000000" font-family="sans-serif" font-size="13" lengthAdjust="spacing" textLength="171" x="384" y="49.9951">for each observer in observers</text><text fill="#000000" font-family="sans-serif" font-size="13" lengthAdjust="spacing" textLength="211" x="400" y="66.3467">observer.NoteUpdatedPrices(stocks)</text><path d="M378,84.2031 L378,101.5547 L160,147.8516 L378,109.5547 L378,126.9063 A0,0 0 0 0 378,126.9063 L651,126.9063 A0,0 0 0 0 651,126.9063 L651,94.2031 L641,84.2031 L378,84.2031 A0,0 0 0 0 378,84.2031 " fill="#FEFFDD" style="stroke:#181818;stroke-width:0.5;"/><path d="M641,84.2031 L641,94.2031 L651,94.2031 L641,84.2031 " fill="#FEFFDD" style="stroke:#181818;stroke-width:0.5;"/><text fill="#000000" font-family="sans-serif" font-size="13" lengthAdjust="spacing" textLength="252" x="384" y="102.6982">stocks = vector{stocks with updated prices}</text><text fill="#000000" font-family="sans-serif" font-size="13" lengthAdjust="spacing" textLength="138" x="384" y="119.0498">NotifyObservers(stocks)</text><!--class PrintingStockObserver--><g id="elem_PrintingStockObserver"><rect codeLine="34" fill="#F1F1F1" height="83.2188" id="PrintingStockObserver" rx="2.5" ry="2.5" style="stroke:#181818;stroke-width:0.5;" width="342" x="226.5" y="463"/><ellipse cx="322.25" cy="479" fill="#ADD1B2" rx="11" ry="11" style="stroke:#181818;stroke-width:1.0;"/><path d="M325.0156,474.875 Q325.1719,474.6563 325.3594,474.5469 Q325.5469,474.4375 325.7656,474.4375 Q326.1406,474.4375 326.375,474.7031 Q326.6094,474.9531 326.6094,475.5625 L326.6094,477.0156 Q326.6094,477.625 326.375,477.8906 Q326.1406,478.1563 325.7656,478.1563 Q325.4219,478.1563 325.2188,477.9531 Q325.0156,477.7656 324.9063,477.25 Q324.8594,476.8906 324.6719,476.7031 Q324.3438,476.3281 323.7344,476.1094 Q323.125,475.8906 322.5,475.8906 Q321.7344,475.8906 321.0938,476.2188 Q320.4688,476.5469 319.9688,477.2969 Q319.4844,478.0469 319.4844,479.0781 L319.4844,480.1719 Q319.4844,481.4063 320.375,482.2344 Q321.2656,483.0469 322.8594,483.0469 Q323.7969,483.0469 324.4531,482.7969 Q324.8438,482.6406 325.2656,482.2031 Q325.5313,481.9375 325.6719,481.8594 Q325.8281,481.7813 326.0313,481.7813 Q326.3594,481.7813 326.6094,482.0469 Q326.875,482.2969 326.875,482.6406 Q326.875,482.9844 326.5313,483.3906 Q326.0313,483.9688 325.2344,484.2969 Q324.1563,484.75 322.8594,484.75 Q321.3438,484.75 320.1406,484.125 Q319.1563,483.625 318.4688,482.5625 Q317.7813,481.4844 317.7813,480.2031 L317.7813,479.0469 Q317.7813,477.7188 318.3906,476.5781 Q319.0156,475.4219 320.1094,474.8125 Q321.2031,474.1875 322.4375,474.1875 Q323.1719,474.1875 323.8125,474.3594 Q324.4688,474.5156 325.0156,474.875 Z " fill="#000000"/><text fill="#000000" font-family="sans-serif" font-size="14" lengthAdjust="spacing" textLength="142" x="342.75" y="484.7285">PrintingStockObserver</text><line style="stroke:#181818;stroke-width:0.5;" x1="227.5" x2="567.5" y1="495" y2="495"/><rect fill="none" height="6" style="stroke:#C82930;stroke-width:1.0;" width="6" x="234.5" y="506.3047"/><text fill="#000000" font-family="sans-serif" font-size="14" lengthAdjust="spacing" textLength="82" x="246.5" y="513.5332">name : string</text><line style="stroke:#181818;stroke-width:0.5;" x1="227.5" x2="567.5" y1="520.6094" y2="520.6094"/><ellipse cx="237.5" cy="534.9141" fill="#84BE84" rx="3" ry="3" style="stroke:#038048;stroke-width:1.0;"/><text fill="#000000" font-family="sans-serif" font-size="14" lengthAdjust="spacing" textLength="316" x="246.5" y="539.1426">NoteUpdatedPrices(stocks : vector&lt;Stock*&gt;) : void</text></g><g id="elem_GMN8"><path d="M289.5,303 L289.5,329.3516 A0,0 0 0 0 289.5,329.3516 L343.04,329.3516 L385.73,462.85 L351.04,329.3516 L397.5,329.3516 A0,0 0 0 0 397.5,329.3516 L397.5,313 L387.5,303 L289.5,303 A0,0 0 0 0 289.5,303 " fill="#FEFFDD" style="stroke:#181818;stroke-width:0.5;"/><path d="M387.5,303 L387.5,313 L397.5,313 L387.5,303 " fill="#FEFFDD" style="stroke:#181818;stroke-width:0.5;"/><text fill="#000000" font-family="sans-serif" font-size="13" lengthAdjust="spacing" textLength="87" x="295.5" y="321.4951">Print all stocks</text></g><!--class RisingStockObserver--><g id="elem_RisingStockObserver"><rect codeLine="43" fill="#F1F1F1" height="100.8281" id="RisingStockObserver" rx="2.5" ry="2.5" style="stroke:#181818;stroke-width:0.5;" width="342" x="711.5" y="454"/><ellipse cx="811.75" cy="470" fill="#ADD1B2" rx="11" ry="11" style="stroke:#181818;stroke-width:1.0;"/><path d="M814.5156,465.875 Q814.6719,465.6563 814.8594,465.5469 Q815.0469,465.4375 815.2656,465.4375 Q815.6406,465.4375 815.875,465.7031 Q816.1094,465.9531 816.1094,466.5625 L816.1094,468.0156 Q816.1094,468.625 815.875,468.8906 Q815.6406,469.1563 815.2656,469.1563 Q814.9219,469.1563 814.7188,468.9531 Q814.5156,468.7656 814.4063,468.25 Q814.3594,467.8906 814.1719,467.7031 Q813.8438,467.3281 813.2344,467.1094 Q812.625,466.8906 812,466.8906 Q811.2344,466.8906 810.5938,467.2188 Q809.9688,467.5469 809.4688,468.2969 Q808.9844,469.0469 808.9844,470.0781 L808.9844,471.1719 Q808.9844,472.4063 809.875,473.2344 Q810.7656,474.0469 812.3594,474.0469 Q813.2969,474.0469 813.9531,473.7969 Q814.3438,473.6406 814.7656,473.2031 Q815.0313,472.9375 815.1719,472.8594 Q815.3281,472.7813 815.5313,472.7813 Q815.8594,472.7813 816.1094,473.0469 Q816.375,473.2969 816.375,473.6406 Q816.375,473.9844 816.0313,474.3906 Q815.5313,474.9688 814.7344,475.2969 Q813.6563,475.75 812.3594,475.75 Q810.8438,475.75 809.6406,475.125 Q808.6563,474.625 807.9688,473.5625 Q807.2813,472.4844 807.2813,471.2031 L807.2813,470.0469 Q807.2813,468.7188 807.8906,467.5781 Q808.5156,466.4219 809.6094,465.8125 Q810.7031,465.1875 811.9375,465.1875 Q812.6719,465.1875 813.3125,465.3594 Q813.9688,465.5156 814.5156,465.875 Z " fill="#000000"/><text fill="#000000" font-family="sans-serif" font-size="14" lengthAdjust="spacing" textLength="133" x="832.25" y="475.7285">RisingStockObserver</text><line style="stroke:#181818;stroke-width:0.5;" x1="712.5" x2="1052.5" y1="486" y2="486"/><rect fill="none" height="6" style="stroke:#C82930;stroke-width:1.0;" width="6" x="719.5" y="497.3047"/><text fill="#000000" font-family="sans-serif" font-size="14" lengthAdjust="spacing" textLength="82" x="731.5" y="504.5332">name : string</text><rect fill="none" height="6" style="stroke:#C82930;stroke-width:1.0;" width="6" x="719.5" y="514.9141"/><text fill="#000000" font-family="sans-serif" font-size="14" lengthAdjust="spacing" textLength="199" x="731.5" y="522.1426">oldPrices : map&lt;string, double&gt;</text><line style="stroke:#181818;stroke-width:0.5;" x1="712.5" x2="1052.5" y1="529.2188" y2="529.2188"/><ellipse cx="722.5" cy="543.5234" fill="#84BE84" rx="3" ry="3" style="stroke:#038048;stroke-width:1.0;"/><text fill="#000000" font-family="sans-serif" font-size="14" lengthAdjust="spacing" textLength="316" x="731.5" y="547.752">NoteUpdatedPrices(stocks : vector&lt;Stock*&gt;) : void</text></g><g id="elem_GMN12"><path d="M812,303 L812,329.3516 A0,0 0 0 0 812,329.3516 L928.96,329.3516 L896.94,453.61 L936.96,329.3516 L1061,329.3516 A0,0 0 0 0 1061,329.3516 L1061,313 L1051,303 L812,303 A0,0 0 0 0 812,303 " fill="#FEFFDD" style="stroke:#181818;stroke-width:0.5;"/><path d="M1051,303 L1051,313 L1061,313 L1051,303 " fill="#FEFFDD" style="stroke:#181818;stroke-width:0.5;"/><text fill="#000000" font-family="sans-serif" font-size="13" lengthAdjust="spacing" textLength="228" x="818" y="321.4951">Print only stocks whose price has risen</text></g><!--reverse link StockObserver to PrintingStockObserver--><g id="link_StockObserver_PrintingStockObserver"><path codeLine="53" d="M555.5466,361.1079 C520.6366,392.5579 480.64,428.59 442.74,462.74 " fill="none" id="StockObserver-backto-PrintingStockObserver" style="stroke:#181818;stroke-width:1.0;stroke-dasharray:7.0,7.0;"/><polygon fill="none" points="568.92,349.06,551.5306,356.6501,559.5626,365.5657,568.92,349.06" style="stroke:#181818;stroke-width:1.0;"/></g><!--reverse link StockObserver to RisingStockObserver--><g id="link_StockObserver_RisingStockObserver"><path codeLine="54" d="M667.2374,359.0887 C710.2374,387.9387 759.15,420.75 808.7,453.99 " fill="none" id="StockObserver-backto-RisingStockObserver" style="stroke:#181818;stroke-width:1.0;stroke-dasharray:7.0,7.0;"/><polygon fill="none" points="652.29,349.06,663.8945,364.0712,670.5803,354.1062,652.29,349.06" style="stroke:#181818;stroke-width:1.0;"/></g><!--link StockMarket to Stock--><g id="link_StockMarket_Stock"><path codeLine="55" d="M158.2738,173.0463 C153.3838,198.0163 151.4236,208.0919 146.5336,233.0519 " fill="none" id="StockMarket-Stock" style="stroke:#181818;stroke-width:1.0;"/><polygon fill="none" points="160.58,161.27,155.5015,166.3894,158.2738,173.0463,163.3523,167.9269,160.58,161.27" style="stroke:#181818;stroke-width:1.0;"/><polygon fill="#181818" points="145.38,238.94,151.0357,230.8769,146.3413,234.0333,143.1849,229.3389,145.38,238.94" style="stroke:#181818;stroke-width:1.0;"/><text fill="#000000" font-family="sans-serif" font-size="13" lengthAdjust="spacing" textLength="49" x="155.5" y="205.4951">contains</text></g><!--link StockMarket to StockObserver--><g id="link_StockMarket_StockObserver"><path codeLine="56" d="M328.0359,166.7801 C405.2559,208.1801 480.822,248.695 539.392,280.095 " fill="none" id="StockMarket-StockObserver" style="stroke:#181818;stroke-width:1.0;"/><polygon fill="none" points="317.46,161.11,320.8579,167.4703,328.0359,166.7801,324.638,160.4197,317.46,161.11" style="stroke:#181818;stroke-width:1.0;"/><polygon fill="#181818" points="544.68,282.93,538.638,275.1522,540.2733,280.5675,534.858,282.2029,544.68,282.93" style="stroke:#181818;stroke-width:1.0;"/><text fill="#000000" font-family="sans-serif" font-size="13" lengthAdjust="spacing" textLength="41" x="404.5" y="205.4951">notifies</text></g><!--SRC=[hLJ9Ri8m4BtxA-OOIk438ehKKq-5gbNFbN4SOZNOaJs04ENVwtW9mOHAhSe9p_RUcoMifiR06ohs2KS2zZS1IJSSSZ2eXLm7MwC5Qus5sgvgxenZdvPTXDydaQCG-iHnOUEoqMLXvtXfCvpdidhqIBx_IAhQVpib2d8YH4ZakgJMw-WiLuRh7TT1pHYET6K1ASCJB1JozwQWo0jNsMIcJJ5jDSvGwPahSJVlrsVd3ZrJ_ScnwrENlA7DBCeF5KA82cnIYCYo2xJKH7c8PfDr3Bo8nwBmpNQOrkTUQH0YPLMiaKNi61qTIPPlIEX7NxYqtG8jrXM2AliDoFE4BIcL1cwnExqWv5cx0uglwQqXZ0YN1RIWFqBtwP8mWOVGssDuxmLMiFKOVX_DYQGTlaRraxQb9TfH3ctJq6sC_xPMJYAgfXKu24cS5MXTXqMxOlegp2zuscMi0xzaPVrDpVzBpG2je4N9-X2lPbyfmyF7egB6JjjmsPDuAMlsDPtUQDD0u123_W6hoMGUldavC2MH2cbkH2pFLoJR3H9sxRu1]--></g></svg>