<?xml version="1.0" encoding="us-ascii" standalone="no"?><svg xmlns="http://www.w3.org/2000/svg" xmlns:xlink="http://www.w3.org/1999/xlink" contentStyleType="text/css" height="436px" preserveAspectRatio="none" style="width:522px;height:436px;background:#FFFFFF;" version="1.1" viewBox="0 0 522 436" width="522px" zoomAndPan="magnify"><defs/><g><!--cluster adventure::v3b--><g id="cluster_adventure::v3b"><path d="M8.5,6 L116.5,6 A3.75,3.75 0 0 1 119,8.5 L126,29.6094 L512.5,29.6094 A2.5,2.5 0 0 1 515,32.1094 L515,426.5 A2.5,2.5 0 0 1 512.5,429 L8.5,429 A2.5,2.5 0 0 1 6,426.5 L6,8.5 A2.5,2.5 0 0 1 8.5,6 " fill="none" style="stroke:#000000;stroke-width:1.5;"/><line style="stroke:#000000;stroke-width:1.5;" x1="6" x2="126" y1="29.6094" y2="29.6094"/><text fill="#000000" font-family="sans-serif" font-size="14" font-weight="bold" lengthAdjust="spacing" textLength="107" x="10" y="22.5332">adventure::v3b</text></g><!--class Pawn--><g id="elem_Pawn"><rect codeLine="4" fill="#F1F1F1" height="100.8281" id="Pawn" rx="2.5" ry="2.5" style="stroke:#181818;stroke-width:0.5;" width="292" x="207" y="168"/><ellipse cx="331.75" cy="184" fill="#ADD1B2" rx="11" ry="11" style="stroke:#181818;stroke-width:1.0;"/><path d="M334.5156,179.875 Q334.6719,179.6563 334.8594,179.5469 Q335.0469,179.4375 335.2656,179.4375 Q335.6406,179.4375 335.875,179.7031 Q336.1094,179.9531 336.1094,180.5625 L336.1094,182.0156 Q336.1094,182.625 335.875,182.8906 Q335.6406,183.1563 335.2656,183.1563 Q334.9219,183.1563 334.7188,182.9531 Q334.5156,182.7656 334.4063,182.25 Q334.3594,181.8906 334.1719,181.7031 Q333.8438,181.3281 333.2344,181.1094 Q332.625,180.8906 332,180.8906 Q331.2344,180.8906 330.5938,181.2188 Q329.9688,181.5469 329.4688,182.2969 Q328.9844,183.0469 328.9844,184.0781 L328.9844,185.1719 Q328.9844,186.4063 329.875,187.2344 Q330.7656,188.0469 332.3594,188.0469 Q333.2969,188.0469 333.9531,187.7969 Q334.3438,187.6406 334.7656,187.2031 Q335.0313,186.9375 335.1719,186.8594 Q335.3281,186.7813 335.5313,186.7813 Q335.8594,186.7813 336.1094,187.0469 Q336.375,187.2969 336.375,187.6406 Q336.375,187.9844 336.0313,188.3906 Q335.5313,188.9688 334.7344,189.2969 Q333.6563,189.75 332.3594,189.75 Q330.8438,189.75 329.6406,189.125 Q328.6563,188.625 327.9688,187.5625 Q327.2813,186.4844 327.2813,185.2031 L327.2813,184.0469 Q327.2813,182.7188 327.8906,181.5781 Q328.5156,180.4219 329.6094,179.8125 Q330.7031,179.1875 331.9375,179.1875 Q332.6719,179.1875 333.3125,179.3594 Q333.9688,179.5156 334.5156,179.875 Z " fill="#000000"/><text fill="#000000" font-family="sans-serif" font-size="14" lengthAdjust="spacing" textLength="34" x="352.25" y="189.7285">Pawn</text><line style="stroke:#181818;stroke-width:0.5;" x1="208" x2="498" y1="200" y2="200"/><text fill="#000000" font-family="sans-serif" font-size="14" lengthAdjust="spacing" textLength="59" x="213" y="218.5332">name: str</text><text fill="#000000" font-family="sans-serif" font-size="14" lengthAdjust="spacing" textLength="111" x="213" y="236.1426">location: Location</text><line style="stroke:#181818;stroke-width:0.5;" x1="208" x2="498" y1="243.2188" y2="243.2188"/><text fill="#000000" font-family="sans-serif" font-size="14" font-weight="bold" lengthAdjust="spacing" textLength="280" x="213" y="261.752">perform_action(action: Action, **kwargs)</text></g><!--class Action--><g id="elem_Action"><rect codeLine="10" fill="#F1F1F1" height="83.2188" id="Action" rx="2.5" ry="2.5" style="stroke:#181818;stroke-width:0.5;" width="150" x="278" y="330"/><ellipse cx="329.25" cy="346" fill="#EB937F" rx="11" ry="11" style="stroke:#181818;stroke-width:1.0;"/><path d="M328.1094,346.7969 L328.1094,349.2969 L332.4375,349.2969 L332.4375,348.375 Q332.4375,347.7656 332.6719,347.5 Q332.9219,347.2344 333.2969,347.2344 Q333.6719,347.2344 333.9063,347.5 Q334.1406,347.7656 334.1406,348.375 L334.1406,351 L326.1406,351 Q325.5156,351 325.25,350.7656 Q325,350.5313 325,350.1406 Q325,349.7656 325.2656,349.5313 Q325.5313,349.2969 326.1406,349.2969 L326.4063,349.2969 L326.4063,342.6406 L326.1406,342.6406 Q325.5156,342.6406 325.25,342.4063 Q325,342.1719 325,341.7813 Q325,341.4063 325.25,341.1719 Q325.5156,340.9375 326.1406,340.9375 L333.7656,340.9375 L333.7656,343.5313 Q333.7656,344.1406 333.5313,344.4063 Q333.3125,344.6563 332.9219,344.6563 Q332.5469,344.6563 332.3125,344.4063 Q332.0781,344.1406 332.0781,343.5313 L332.0781,342.6406 L328.1094,342.6406 L328.1094,345.0938 L329.5938,345.0938 Q329.5938,344.4375 329.7188,344.25 Q329.9844,343.8438 330.4531,343.8438 Q330.8281,343.8438 331.0625,344.1094 Q331.2969,344.3594 331.2969,344.9688 L331.2969,346.9375 Q331.2969,347.4844 331.1719,347.6719 Q330.9063,348.0625 330.4531,348.0625 Q329.9844,348.0625 329.7188,347.6563 Q329.5938,347.4688 329.5938,346.7969 L328.1094,346.7969 Z " fill="#000000"/><text fill="#000000" font-family="sans-serif" font-size="14" lengthAdjust="spacing" textLength="39" x="349.75" y="351.7285">Action</text><line style="stroke:#181818;stroke-width:0.5;" x1="279" x2="427" y1="362" y2="362"/><text fill="#000000" font-family="sans-serif" font-size="14" lengthAdjust="spacing" textLength="34" x="284" y="380.5332">Move</text><text fill="#000000" font-family="sans-serif" font-size="14" lengthAdjust="spacing" textLength="57" x="284" y="398.1426">SkipTurn</text><line style="stroke:#181818;stroke-width:0.5;" x1="279" x2="427" y1="405.2188" y2="405.2188"/></g><!--class WorldFactory--><g id="elem_WorldFactory"><rect codeLine="15" fill="#F1F1F1" height="48" id="WorldFactory" rx="2.5" ry="2.5" style="stroke:#181818;stroke-width:0.5;" width="150" x="22" y="42"/><ellipse cx="51.85" cy="58" fill="#ADD1B2" rx="11" ry="11" style="stroke:#181818;stroke-width:1.0;"/><path d="M54.6156,53.875 Q54.7719,53.6563 54.9594,53.5469 Q55.1469,53.4375 55.3656,53.4375 Q55.7406,53.4375 55.975,53.7031 Q56.2094,53.9531 56.2094,54.5625 L56.2094,56.0156 Q56.2094,56.625 55.975,56.8906 Q55.7406,57.1563 55.3656,57.1563 Q55.0219,57.1563 54.8188,56.9531 Q54.6156,56.7656 54.5063,56.25 Q54.4594,55.8906 54.2719,55.7031 Q53.9438,55.3281 53.3344,55.1094 Q52.725,54.8906 52.1,54.8906 Q51.3344,54.8906 50.6938,55.2188 Q50.0688,55.5469 49.5688,56.2969 Q49.0844,57.0469 49.0844,58.0781 L49.0844,59.1719 Q49.0844,60.4063 49.975,61.2344 Q50.8656,62.0469 52.4594,62.0469 Q53.3969,62.0469 54.0531,61.7969 Q54.4438,61.6406 54.8656,61.2031 Q55.1313,60.9375 55.2719,60.8594 Q55.4281,60.7813 55.6313,60.7813 Q55.9594,60.7813 56.2094,61.0469 Q56.475,61.2969 56.475,61.6406 Q56.475,61.9844 56.1313,62.3906 Q55.6313,62.9688 54.8344,63.2969 Q53.7563,63.75 52.4594,63.75 Q50.9438,63.75 49.7406,63.125 Q48.7563,62.625 48.0688,61.5625 Q47.3813,60.4844 47.3813,59.2031 L47.3813,58.0469 Q47.3813,56.7188 47.9906,55.5781 Q48.6156,54.4219 49.7094,53.8125 Q50.8031,53.1875 52.0375,53.1875 Q52.7719,53.1875 53.4125,53.3594 Q54.0688,53.5156 54.6156,53.875 Z " fill="#000000"/><text fill="#000000" font-family="sans-serif" font-size="14" lengthAdjust="spacing" textLength="85" x="69.15" y="63.7285">WorldFactory</text><line style="stroke:#181818;stroke-width:0.5;" x1="23" x2="171" y1="74" y2="74"/><line style="stroke:#181818;stroke-width:0.5;" x1="23" x2="171" y1="82" y2="82"/></g><!--class World--><g id="elem_World"><rect codeLine="18" fill="#F1F1F1" height="48" id="World" rx="2.5" ry="2.5" style="stroke:#181818;stroke-width:0.5;" width="150" x="22" y="194.5"/><ellipse cx="74.25" cy="210.5" fill="#ADD1B2" rx="11" ry="11" style="stroke:#181818;stroke-width:1.0;"/><path d="M77.0156,206.375 Q77.1719,206.1563 77.3594,206.0469 Q77.5469,205.9375 77.7656,205.9375 Q78.1406,205.9375 78.375,206.2031 Q78.6094,206.4531 78.6094,207.0625 L78.6094,208.5156 Q78.6094,209.125 78.375,209.3906 Q78.1406,209.6563 77.7656,209.6563 Q77.4219,209.6563 77.2188,209.4531 Q77.0156,209.2656 76.9063,208.75 Q76.8594,208.3906 76.6719,208.2031 Q76.3438,207.8281 75.7344,207.6094 Q75.125,207.3906 74.5,207.3906 Q73.7344,207.3906 73.0938,207.7188 Q72.4688,208.0469 71.9688,208.7969 Q71.4844,209.5469 71.4844,210.5781 L71.4844,211.6719 Q71.4844,212.9063 72.375,213.7344 Q73.2656,214.5469 74.8594,214.5469 Q75.7969,214.5469 76.4531,214.2969 Q76.8438,214.1406 77.2656,213.7031 Q77.5313,213.4375 77.6719,213.3594 Q77.8281,213.2813 78.0313,213.2813 Q78.3594,213.2813 78.6094,213.5469 Q78.875,213.7969 78.875,214.1406 Q78.875,214.4844 78.5313,214.8906 Q78.0313,215.4688 77.2344,215.7969 Q76.1563,216.25 74.8594,216.25 Q73.3438,216.25 72.1406,215.625 Q71.1563,215.125 70.4688,214.0625 Q69.7813,212.9844 69.7813,211.7031 L69.7813,210.5469 Q69.7813,209.2188 70.3906,208.0781 Q71.0156,206.9219 72.1094,206.3125 Q73.2031,205.6875 74.4375,205.6875 Q75.1719,205.6875 75.8125,205.8594 Q76.4688,206.0156 77.0156,206.375 Z " fill="#000000"/><text fill="#000000" font-family="sans-serif" font-size="14" lengthAdjust="spacing" textLength="37" x="94.75" y="216.2285">World</text><line style="stroke:#181818;stroke-width:0.5;" x1="23" x2="171" y1="226.5" y2="226.5"/><line style="stroke:#181818;stroke-width:0.5;" x1="23" x2="171" y1="234.5" y2="234.5"/></g><!--class Location--><g id="elem_Location"><rect codeLine="21" fill="#F1F1F1" height="48" id="Location" rx="2.5" ry="2.5" style="stroke:#181818;stroke-width:0.5;" width="150" x="58" y="347.5"/><ellipse cx="101.8" cy="363.5" fill="#ADD1B2" rx="11" ry="11" style="stroke:#181818;stroke-width:1.0;"/><path d="M104.5656,359.375 Q104.7219,359.1563 104.9094,359.0469 Q105.0969,358.9375 105.3156,358.9375 Q105.6906,358.9375 105.925,359.2031 Q106.1594,359.4531 106.1594,360.0625 L106.1594,361.5156 Q106.1594,362.125 105.925,362.3906 Q105.6906,362.6563 105.3156,362.6563 Q104.9719,362.6563 104.7688,362.4531 Q104.5656,362.2656 104.4563,361.75 Q104.4094,361.3906 104.2219,361.2031 Q103.8938,360.8281 103.2844,360.6094 Q102.675,360.3906 102.05,360.3906 Q101.2844,360.3906 100.6438,360.7188 Q100.0188,361.0469 99.5188,361.7969 Q99.0344,362.5469 99.0344,363.5781 L99.0344,364.6719 Q99.0344,365.9063 99.925,366.7344 Q100.8156,367.5469 102.4094,367.5469 Q103.3469,367.5469 104.0031,367.2969 Q104.3938,367.1406 104.8156,366.7031 Q105.0813,366.4375 105.2219,366.3594 Q105.3781,366.2813 105.5813,366.2813 Q105.9094,366.2813 106.1594,366.5469 Q106.425,366.7969 106.425,367.1406 Q106.425,367.4844 106.0813,367.8906 Q105.5813,368.4688 104.7844,368.7969 Q103.7063,369.25 102.4094,369.25 Q100.8938,369.25 99.6906,368.625 Q98.7063,368.125 98.0188,367.0625 Q97.3313,365.9844 97.3313,364.7031 L97.3313,363.5469 Q97.3313,362.2188 97.9406,361.0781 Q98.5656,359.9219 99.6594,359.3125 Q100.7531,358.6875 101.9875,358.6875 Q102.7219,358.6875 103.3625,358.8594 Q104.0188,359.0156 104.5656,359.375 Z " fill="#000000"/><text fill="#000000" font-family="sans-serif" font-size="14" lengthAdjust="spacing" textLength="54" x="122.2" y="369.2285">Location</text><line style="stroke:#181818;stroke-width:0.5;" x1="59" x2="207" y1="379.5" y2="379.5"/><line style="stroke:#181818;stroke-width:0.5;" x1="59" x2="207" y1="387.5" y2="387.5"/></g><!--link World to Location--><g id="link_World_Location"><path codeLine="24" d="M102.55,242.76 C109.33,271.22 119.3588,313.2635 126.1188,341.6235 " fill="none" id="World-to-Location" style="stroke:#181818;stroke-width:1.0;"/><polygon fill="#181818" points="127.51,347.46,129.3142,337.7778,126.3507,342.5963,121.5322,339.6327,127.51,347.46" style="stroke:#181818;stroke-width:1.0;"/></g><!--link WorldFactory to World--><g id="link_WorldFactory_World"><path codeLine="25" d="M97,90.19 C97,118.39 97,159.72 97,188.04 " fill="none" id="WorldFactory-to-World" style="stroke:#181818;stroke-width:1.0;stroke-dasharray:7.0,7.0;"/><polygon fill="#181818" points="97,194.04,101,185.04,97,189.04,93,185.04,97,194.04" style="stroke:#181818;stroke-width:1.0;"/><text fill="#000000" font-family="sans-serif" font-size="13" lengthAdjust="spacing" textLength="50" x="102" y="134.4951">&#171;create&#187;</text></g><!--link Pawn to Location--><g id="link_Pawn_Location"><path codeLine="26" d="M280.66,269.15 C242.21,295.54 201.7265,323.3241 171.5165,344.0641 " fill="none" id="Pawn-to-Location" style="stroke:#181818;stroke-width:1.0;"/><polygon fill="#181818" points="166.57,347.46,176.2537,345.6638,170.6921,344.6301,171.7258,339.0685,166.57,347.46" style="stroke:#181818;stroke-width:1.0;"/></g><!--link Pawn to Action--><g id="link_Pawn_Action"><path codeLine="27" d="M353,269.36 C353,288.95 353,305.15 353,323.75 " fill="none" id="Pawn-to-Action" style="stroke:#181818;stroke-width:1.0;stroke-dasharray:7.0,7.0;"/><polygon fill="#181818" points="353,329.75,357,320.75,353,324.75,349,320.75,353,329.75" style="stroke:#181818;stroke-width:1.0;"/></g><!--SRC=[RL3VIyCm47xFNt7iQGut5V4bb80CV78WAEnHhkcfeMrIBcc7oFvtbwIMbNalN_BzkCl5ryPsoDZ2pjXjWzxlJHM-uExXLWYBBVaEDG5M0zdGCqavt9Vm8-1KEjhX1Gzs96B5Z0GVU68Qfp4OPoKyZwT9AahL4NyuRjzHHsMPGS9ZmcjOhUe3ygU_AcvAbN97aO1ituwki-axDz1qUQrDzzQpFO_bD-yTDzNJQPRZxp5zgVyd_6qmrx9zlLRp3MTJDXkL2GaBA0hDX86KWaMofa-yQ93O6CnxYkCl]--></g></svg>