<?xml version="1.0" encoding="us-ascii" standalone="no"?><svg xmlns="http://www.w3.org/2000/svg" xmlns:xlink="http://www.w3.org/1999/xlink" contentStyleType="text/css" height="240px" preserveAspectRatio="none" style="width:686px;height:240px;background:#FFFFFF;" version="1.1" viewBox="0 0 686 240" width="686px" zoomAndPan="magnify"><defs/><g><!--class Subject--><g id="elem_Subject"><rect codeLine="2" fill="#F1F1F1" height="100.8281" id="Subject" rx="2.5" ry="2.5" style="stroke:#181818;stroke-width:0.5;" width="192" x="192.5" y="7"/><ellipse cx="260.75" cy="23" fill="#ADD1B2" rx="11" ry="11" style="stroke:#181818;stroke-width:1.0;"/><path d="M263.5156,18.875 Q263.6719,18.6563 263.8594,18.5469 Q264.0469,18.4375 264.2656,18.4375 Q264.6406,18.4375 264.875,18.7031 Q265.1094,18.9531 265.1094,19.5625 L265.1094,21.0156 Q265.1094,21.625 264.875,21.8906 Q264.6406,22.1563 264.2656,22.1563 Q263.9219,22.1563 263.7188,21.9531 Q263.5156,21.7656 263.4063,21.25 Q263.3594,20.8906 263.1719,20.7031 Q262.8438,20.3281 262.2344,20.1094 Q261.625,19.8906 261,19.8906 Q260.2344,19.8906 259.5938,20.2188 Q258.9688,20.5469 258.4688,21.2969 Q257.9844,22.0469 257.9844,23.0781 L257.9844,24.1719 Q257.9844,25.4063 258.875,26.2344 Q259.7656,27.0469 261.3594,27.0469 Q262.2969,27.0469 262.9531,26.7969 Q263.3438,26.6406 263.7656,26.2031 Q264.0313,25.9375 264.1719,25.8594 Q264.3281,25.7813 264.5313,25.7813 Q264.8594,25.7813 265.1094,26.0469 Q265.375,26.2969 265.375,26.6406 Q265.375,26.9844 265.0313,27.3906 Q264.5313,27.9688 263.7344,28.2969 Q262.6563,28.75 261.3594,28.75 Q259.8438,28.75 258.6406,28.125 Q257.6563,27.625 256.9688,26.5625 Q256.2813,25.4844 256.2813,24.2031 L256.2813,23.0469 Q256.2813,21.7188 256.8906,20.5781 Q257.5156,19.4219 258.6094,18.8125 Q259.7031,18.1875 260.9375,18.1875 Q261.6719,18.1875 262.3125,18.3594 Q262.9688,18.5156 263.5156,18.875 Z " fill="#000000"/><text fill="#000000" font-family="sans-serif" font-size="14" lengthAdjust="spacing" textLength="47" x="281.25" y="28.7285">Subject</text><line style="stroke:#181818;stroke-width:0.5;" x1="193.5" x2="383.5" y1="39" y2="39"/><line style="stroke:#181818;stroke-width:0.5;" x1="193.5" x2="383.5" y1="47" y2="47"/><text fill="#000000" font-family="sans-serif" font-size="14" lengthAdjust="spacing" textLength="176" x="198.5" y="65.5332">attach(observer : Observer)</text><text fill="#000000" font-family="sans-serif" font-size="14" lengthAdjust="spacing" textLength="180" x="198.5" y="83.1426">detach(observer : Observer)</text><text fill="#000000" font-family="sans-serif" font-size="14" lengthAdjust="spacing" textLength="44" x="198.5" y="100.752">notify()</text></g><path d="M6,23 L6,82.0547 A0,0 0 0 0 6,82.0547 L157,82.0547 A0,0 0 0 0 157,82.0547 L157,56.5273 L196.5,95.0234 L157,48.5273 L157,33 L147,23 L6,23 A0,0 0 0 0 6,23 " fill="#FEFFDD" style="stroke:#181818;stroke-width:0.5;"/><path d="M147,23 L147,33 L157,33 L147,23 " fill="#FEFFDD" style="stroke:#181818;stroke-width:0.5;"/><text fill="#000000" font-family="sans-serif" font-size="13" lengthAdjust="spacing" textLength="130" x="12" y="41.4951">for each o in observers</text><text fill="#000000" font-family="sans-serif" font-size="13" lengthAdjust="spacing" textLength="65" x="28" y="57.8467">o.update(T)</text><text fill="#000000" font-family="sans-serif" font-size="13" lengthAdjust="spacing" textLength="39" x="12" y="74.1982">end for</text><!--class Observer--><g id="elem_Observer"><rect codeLine="14" fill="#F1F1F1" height="65.6094" id="Observer" rx="2.5" ry="2.5" style="stroke:#181818;stroke-width:0.5;" width="90" x="420.5" y="24.5"/><ellipse cx="435.5" cy="40.5" fill="#B4A7E5" rx="11" ry="11" style="stroke:#181818;stroke-width:1.0;"/><path d="M436.4531,37.1406 L436.4531,43.7969 L438.1719,43.7969 Q438.7813,43.7969 439.0469,44.0313 Q439.3125,44.2656 439.3125,44.6563 Q439.3125,45.0313 439.0469,45.2656 Q438.7813,45.5 438.1719,45.5 L433.0313,45.5 Q432.4219,45.5 432.1563,45.2656 Q431.8906,45.0313 431.8906,44.6406 Q431.8906,44.2656 432.1563,44.0313 Q432.4219,43.7969 433.0313,43.7969 L434.75,43.7969 L434.75,37.1406 L433.0313,37.1406 Q432.4219,37.1406 432.1563,36.9063 Q431.8906,36.6719 431.8906,36.2813 Q431.8906,35.9063 432.1563,35.6719 Q432.4219,35.4375 433.0313,35.4375 L438.1719,35.4375 Q438.7813,35.4375 439.0469,35.6719 Q439.3125,35.9063 439.3125,36.2813 Q439.3125,36.6719 439.0469,36.9063 Q438.7813,37.1406 438.1719,37.1406 L436.4531,37.1406 Z " fill="#000000"/><text fill="#000000" font-family="sans-serif" font-size="14" font-style="italic" lengthAdjust="spacing" textLength="58" x="449.5" y="46.2285">Observer</text><line style="stroke:#181818;stroke-width:0.5;" x1="421.5" x2="509.5" y1="56.5" y2="56.5"/><line style="stroke:#181818;stroke-width:0.5;" x1="421.5" x2="509.5" y1="64.5" y2="64.5"/><text fill="#000000" font-family="sans-serif" font-size="14" lengthAdjust="spacing" textLength="63" x="426.5" y="83.0332">update(T)</text></g><path d="M545.5,23 L545.5,48.5273 L489.5,77.3047 L545.5,56.5273 L545.5,82.0547 A0,0 0 0 0 545.5,82.0547 L679.5,82.0547 A0,0 0 0 0 679.5,82.0547 L679.5,33 L669.5,23 L545.5,23 A0,0 0 0 0 545.5,23 " fill="#FEFFDD" style="stroke:#181818;stroke-width:0.5;"/><path d="M669.5,23 L669.5,33 L679.5,33 L669.5,23 " fill="#FEFFDD" style="stroke:#181818;stroke-width:0.5;"/><text fill="#000000" font-family="sans-serif" font-size="13" lengthAdjust="spacing" textLength="113" x="551.5" y="41.4951">T is data describing</text><text fill="#000000" font-family="sans-serif" font-size="13" lengthAdjust="spacing" textLength="106" x="551.5" y="57.8467">the modification to</text><text fill="#000000" font-family="sans-serif" font-size="13" lengthAdjust="spacing" textLength="66" x="551.5" y="74.1982">the Subject</text><!--class ConcreteSubject--><g id="elem_ConcreteSubject"><rect codeLine="24" fill="#F1F1F1" height="65.6094" id="ConcreteSubject" rx="2.5" ry="2.5" style="stroke:#181818;stroke-width:0.5;" width="137" x="219" y="168"/><ellipse cx="234" cy="184" fill="#ADD1B2" rx="11" ry="11" style="stroke:#181818;stroke-width:1.0;"/><path d="M236.7656,179.875 Q236.9219,179.6563 237.1094,179.5469 Q237.2969,179.4375 237.5156,179.4375 Q237.8906,179.4375 238.125,179.7031 Q238.3594,179.9531 238.3594,180.5625 L238.3594,182.0156 Q238.3594,182.625 238.125,182.8906 Q237.8906,183.1563 237.5156,183.1563 Q237.1719,183.1563 236.9688,182.9531 Q236.7656,182.7656 236.6563,182.25 Q236.6094,181.8906 236.4219,181.7031 Q236.0938,181.3281 235.4844,181.1094 Q234.875,180.8906 234.25,180.8906 Q233.4844,180.8906 232.8438,181.2188 Q232.2188,181.5469 231.7188,182.2969 Q231.2344,183.0469 231.2344,184.0781 L231.2344,185.1719 Q231.2344,186.4063 232.125,187.2344 Q233.0156,188.0469 234.6094,188.0469 Q235.5469,188.0469 236.2031,187.7969 Q236.5938,187.6406 237.0156,187.2031 Q237.2813,186.9375 237.4219,186.8594 Q237.5781,186.7813 237.7813,186.7813 Q238.1094,186.7813 238.3594,187.0469 Q238.625,187.2969 238.625,187.6406 Q238.625,187.9844 238.2813,188.3906 Q237.7813,188.9688 236.9844,189.2969 Q235.9063,189.75 234.6094,189.75 Q233.0938,189.75 231.8906,189.125 Q230.9063,188.625 230.2188,187.5625 Q229.5313,186.4844 229.5313,185.2031 L229.5313,184.0469 Q229.5313,182.7188 230.1406,181.5781 Q230.7656,180.4219 231.8594,179.8125 Q232.9531,179.1875 234.1875,179.1875 Q234.9219,179.1875 235.5625,179.3594 Q236.2188,179.5156 236.7656,179.875 Z " fill="#000000"/><text fill="#000000" font-family="sans-serif" font-size="14" lengthAdjust="spacing" textLength="105" x="248" y="189.7285">ConcreteSubject</text><line style="stroke:#181818;stroke-width:0.5;" x1="220" x2="355" y1="200" y2="200"/><line style="stroke:#181818;stroke-width:0.5;" x1="220" x2="355" y1="208" y2="208"/><text fill="#000000" font-family="sans-serif" font-size="14" lengthAdjust="spacing" textLength="51" x="225" y="226.5332">modify()</text></g><path d="M7,174.5 L7,217.2031 A0,0 0 0 0 7,217.2031 L184,217.2031 A0,0 0 0 0 184,217.2031 L184,199.8516 L223,220.8047 L184,191.8516 L184,184.5 L174,174.5 L7,174.5 A0,0 0 0 0 7,174.5 " fill="#FEFFDD" style="stroke:#181818;stroke-width:0.5;"/><path d="M174,174.5 L174,184.5 L184,184.5 L174,174.5 " fill="#FEFFDD" style="stroke:#181818;stroke-width:0.5;"/><text fill="#000000" font-family="sans-serif" font-size="13" lengthAdjust="spacing" textLength="156" x="13" y="192.9951">// Do something interesting</text><text fill="#000000" font-family="sans-serif" font-size="13" lengthAdjust="spacing" textLength="46" x="13" y="209.3467">notify(T)</text><!--class ConcreteObserver--><g id="elem_ConcreteObserver"><rect codeLine="33" fill="#F1F1F1" height="65.6094" id="ConcreteObserver" rx="2.5" ry="2.5" style="stroke:#181818;stroke-width:0.5;" width="149" x="391" y="168"/><ellipse cx="406" cy="184" fill="#ADD1B2" rx="11" ry="11" style="stroke:#181818;stroke-width:1.0;"/><path d="M408.7656,179.875 Q408.9219,179.6563 409.1094,179.5469 Q409.2969,179.4375 409.5156,179.4375 Q409.8906,179.4375 410.125,179.7031 Q410.3594,179.9531 410.3594,180.5625 L410.3594,182.0156 Q410.3594,182.625 410.125,182.8906 Q409.8906,183.1563 409.5156,183.1563 Q409.1719,183.1563 408.9688,182.9531 Q408.7656,182.7656 408.6563,182.25 Q408.6094,181.8906 408.4219,181.7031 Q408.0938,181.3281 407.4844,181.1094 Q406.875,180.8906 406.25,180.8906 Q405.4844,180.8906 404.8438,181.2188 Q404.2188,181.5469 403.7188,182.2969 Q403.2344,183.0469 403.2344,184.0781 L403.2344,185.1719 Q403.2344,186.4063 404.125,187.2344 Q405.0156,188.0469 406.6094,188.0469 Q407.5469,188.0469 408.2031,187.7969 Q408.5938,187.6406 409.0156,187.2031 Q409.2813,186.9375 409.4219,186.8594 Q409.5781,186.7813 409.7813,186.7813 Q410.1094,186.7813 410.3594,187.0469 Q410.625,187.2969 410.625,187.6406 Q410.625,187.9844 410.2813,188.3906 Q409.7813,188.9688 408.9844,189.2969 Q407.9063,189.75 406.6094,189.75 Q405.0938,189.75 403.8906,189.125 Q402.9063,188.625 402.2188,187.5625 Q401.5313,186.4844 401.5313,185.2031 L401.5313,184.0469 Q401.5313,182.7188 402.1406,181.5781 Q402.7656,180.4219 403.8594,179.8125 Q404.9531,179.1875 406.1875,179.1875 Q406.9219,179.1875 407.5625,179.3594 Q408.2188,179.5156 408.7656,179.875 Z " fill="#000000"/><text fill="#000000" font-family="sans-serif" font-size="14" lengthAdjust="spacing" textLength="117" x="420" y="189.7285">ConcreteObserver</text><line style="stroke:#181818;stroke-width:0.5;" x1="392" x2="539" y1="200" y2="200"/><line style="stroke:#181818;stroke-width:0.5;" x1="392" x2="539" y1="208" y2="208"/><ellipse cx="402" cy="222.3047" fill="#84BE84" rx="3" ry="3" style="stroke:#038048;stroke-width:1.0;"/><text fill="#000000" font-family="sans-serif" font-size="14" lengthAdjust="spacing" textLength="63" x="411" y="226.5332">update(T)</text></g><!--link Subject to Observer--><g id="link_Subject_Observer"><path codeLine="37" d="M384.61,57.5 C396.51,57.5 402.41,57.5 414.31,57.5 " fill="none" id="Subject-to-Observer" style="stroke:#181818;stroke-width:1.0;"/><polygon fill="#181818" points="420.31,57.5,411.31,53.5,415.31,57.5,411.31,61.5,420.31,57.5" style="stroke:#181818;stroke-width:1.0;"/><text fill="#000000" font-family="sans-serif" font-size="13" lengthAdjust="spacing" textLength="5" x="407.4113" y="53.7316">*</text></g><!--reverse link Subject to ConcreteSubject--><g id="link_Subject_ConcreteSubject"><path codeLine="38" d="M288.0223,126.3895 C287.8823,146.1195 287.85,150.23 287.73,167.79 " fill="none" id="Subject-backto-ConcreteSubject" style="stroke:#181818;stroke-width:1.0;"/><polygon fill="none" points="288.15,108.39,282.0224,126.347,294.0221,126.4321,288.15,108.39" style="stroke:#181818;stroke-width:1.0;"/></g><!--reverse link Observer to ConcreteObserver--><g id="link_Observer_ConcreteObserver"><path codeLine="39" d="M465.5,108.61 C465.5,131.6 465.5,144.45 465.5,167.53 " fill="none" id="Observer-backto-ConcreteObserver" style="stroke:#181818;stroke-width:1.0;stroke-dasharray:7.0,7.0;"/><polygon fill="none" points="465.5,90.61,459.5,108.61,471.5,108.61,465.5,90.61" style="stroke:#181818;stroke-width:1.0;"/></g><!--SRC=[VL3BKiCm3BphApGzfJ19xvuE5xXpe3_WE79ZfhKwjWh3KFuTnua33GzTh97Mgzqr1nqZFftRPpA2xu2fj8WsVSLjfF120HK-JkqwxplwV-zPd7shrl01a7h20rb1jkMCKYCYWoq7f4I7ZCvZuOnvDnGtvrEdXQhTI4w-6_x0y0xa0CuB1QiDpJ8c7ryVYv3WzdrMKf1AZI3OeOkOEftSHHDSw_mUf2SySkUiCreSUnJEiyd7DmqcntZFtWGIkeupC_mMnmAkr8Y4pGOV62CVIVea0xD1YZ98ch9DdluwlWZXzZg68gs-mzNDQivXdcylTRqK1ZFbzj9q_EgR7yS0FW40]--></g></svg>