<?xml version="1.0" encoding="us-ascii" standalone="no"?><svg xmlns="http://www.w3.org/2000/svg" xmlns:xlink="http://www.w3.org/1999/xlink" contentStyleType="text/css" height="206px" preserveAspectRatio="none" style="width:539px;height:206px;background:#FFFFFF;" version="1.1" viewBox="0 0 539 206" width="539px" zoomAndPan="magnify"><defs/><g><!--class Client--><g id="elem_Client"><rect codeLine="5" fill="#F1F1F1" height="48" id="Client" rx="2.5" ry="2.5" style="stroke:#181818;stroke-width:0.5;" width="68" x="139.5" y="16"/><ellipse cx="154.5" cy="32" fill="#C2C2C2" rx="11" ry="11" style="stroke:#181818;stroke-width:1.0;"/><path d="M157.2656,27.875 Q157.4219,27.6563 157.6094,27.5469 Q157.7969,27.4375 158.0156,27.4375 Q158.3906,27.4375 158.625,27.7031 Q158.8594,27.9531 158.8594,28.5625 L158.8594,30.0156 Q158.8594,30.625 158.625,30.8906 Q158.3906,31.1563 158.0156,31.1563 Q157.6719,31.1563 157.4688,30.9531 Q157.2656,30.7656 157.1563,30.25 Q157.1094,29.8906 156.9219,29.7031 Q156.5938,29.3281 155.9844,29.1094 Q155.375,28.8906 154.75,28.8906 Q153.9844,28.8906 153.3438,29.2188 Q152.7188,29.5469 152.2188,30.2969 Q151.7344,31.0469 151.7344,32.0781 L151.7344,33.1719 Q151.7344,34.4063 152.625,35.2344 Q153.5156,36.0469 155.1094,36.0469 Q156.0469,36.0469 156.7031,35.7969 Q157.0938,35.6406 157.5156,35.2031 Q157.7813,34.9375 157.9219,34.8594 Q158.0781,34.7813 158.2813,34.7813 Q158.6094,34.7813 158.8594,35.0469 Q159.125,35.2969 159.125,35.6406 Q159.125,35.9844 158.7813,36.3906 Q158.2813,36.9688 157.4844,37.2969 Q156.4063,37.75 155.1094,37.75 Q153.5938,37.75 152.3906,37.125 Q151.4063,36.625 150.7188,35.5625 Q150.0313,34.4844 150.0313,33.2031 L150.0313,32.0469 Q150.0313,30.7188 150.6406,29.5781 Q151.2656,28.4219 152.3594,27.8125 Q153.4531,27.1875 154.6875,27.1875 Q155.4219,27.1875 156.0625,27.3594 Q156.7188,27.5156 157.2656,27.875 Z " fill="#000000"/><text fill="#000000" font-family="sans-serif" font-size="14" lengthAdjust="spacing" textLength="36" x="168.5" y="37.7285">Client</text><line style="stroke:#181818;stroke-width:0.5;" x1="140.5" x2="206.5" y1="48" y2="48"/><line style="stroke:#181818;stroke-width:0.5;" x1="140.5" x2="206.5" y1="56" y2="56"/></g><!--class Target--><g id="elem_Target"><rect codeLine="7" fill="#F1F1F1" height="65.6094" id="Target" rx="2.5" ry="2.5" style="stroke:#181818;stroke-width:0.5;" width="74" x="242.5" y="7"/><ellipse cx="257.5" cy="23" fill="#CDCDCD" rx="11" ry="11" style="stroke:#181818;stroke-width:1.0;"/><path d="M259.6875,24.7656 L255.5469,24.7656 L255.125,25.7969 L255.5469,25.7969 Q256.1563,25.7969 256.4219,26.0313 Q256.6875,26.2656 256.6875,26.6563 Q256.6875,27.0313 256.4219,27.2656 Q256.1563,27.5 255.5469,27.5 L253.25,27.5 Q252.6406,27.5 252.3906,27.2656 Q252.125,27.0313 252.125,26.6406 Q252.125,26.2656 252.4063,26.0313 Q252.6719,25.7813 253.2969,25.7969 L255.9688,19.1406 L254.8594,19.1406 Q254.25,19.1406 253.9844,18.9063 Q253.7188,18.6719 253.7188,18.2813 Q253.7188,17.9063 253.9844,17.6719 Q254.25,17.4375 254.8594,17.4375 L258.5313,17.4375 L261.9219,25.7969 Q262.5156,25.7969 262.7031,25.9375 Q263.0938,26.2031 263.0938,26.6563 Q263.0938,27.0313 262.8281,27.2656 Q262.5781,27.5 261.9688,27.5 L259.6719,27.5 Q259.0625,27.5 258.7969,27.2656 Q258.5313,27.0313 258.5313,26.6406 Q258.5313,26.2656 258.7969,26.0313 Q259.0625,25.7969 259.6719,25.7969 L260.0938,25.7969 L259.6875,24.7656 Z M258.9688,23.0625 L257.6094,19.6875 L256.2344,23.0625 L258.9688,23.0625 Z " fill="#000000"/><text fill="#000000" font-family="sans-serif" font-size="14" font-style="italic" lengthAdjust="spacing" textLength="42" x="271.5" y="28.7285">Target</text><line style="stroke:#181818;stroke-width:0.5;" x1="243.5" x2="315.5" y1="39" y2="39"/><line style="stroke:#181818;stroke-width:0.5;" x1="243.5" x2="315.5" y1="47" y2="47"/><text fill="#000000" font-family="sans-serif" font-size="14" font-style="italic" lengthAdjust="spacing" textLength="58" x="248.5" y="65.5332">request()</text></g><!--class Adapter--><g id="elem_Adapter"><rect codeLine="11" fill="#F1F1F1" height="65.6094" id="Adapter" rx="2.5" ry="2.5" style="stroke:#181818;stroke-width:0.5;" width="82" x="238.5" y="134"/><ellipse cx="253.5" cy="150" fill="#C2C2C2" rx="11" ry="11" style="stroke:#181818;stroke-width:1.0;"/><path d="M256.2656,145.875 Q256.4219,145.6563 256.6094,145.5469 Q256.7969,145.4375 257.0156,145.4375 Q257.3906,145.4375 257.625,145.7031 Q257.8594,145.9531 257.8594,146.5625 L257.8594,148.0156 Q257.8594,148.625 257.625,148.8906 Q257.3906,149.1563 257.0156,149.1563 Q256.6719,149.1563 256.4688,148.9531 Q256.2656,148.7656 256.1563,148.25 Q256.1094,147.8906 255.9219,147.7031 Q255.5938,147.3281 254.9844,147.1094 Q254.375,146.8906 253.75,146.8906 Q252.9844,146.8906 252.3438,147.2188 Q251.7188,147.5469 251.2188,148.2969 Q250.7344,149.0469 250.7344,150.0781 L250.7344,151.1719 Q250.7344,152.4063 251.625,153.2344 Q252.5156,154.0469 254.1094,154.0469 Q255.0469,154.0469 255.7031,153.7969 Q256.0938,153.6406 256.5156,153.2031 Q256.7813,152.9375 256.9219,152.8594 Q257.0781,152.7813 257.2813,152.7813 Q257.6094,152.7813 257.8594,153.0469 Q258.125,153.2969 258.125,153.6406 Q258.125,153.9844 257.7813,154.3906 Q257.2813,154.9688 256.4844,155.2969 Q255.4063,155.75 254.1094,155.75 Q252.5938,155.75 251.3906,155.125 Q250.4063,154.625 249.7188,153.5625 Q249.0313,152.4844 249.0313,151.2031 L249.0313,150.0469 Q249.0313,148.7188 249.6406,147.5781 Q250.2656,146.4219 251.3594,145.8125 Q252.4531,145.1875 253.6875,145.1875 Q254.4219,145.1875 255.0625,145.3594 Q255.7188,145.5156 256.2656,145.875 Z " fill="#000000"/><text fill="#000000" font-family="sans-serif" font-size="14" lengthAdjust="spacing" textLength="50" x="267.5" y="155.7285">Adapter</text><line style="stroke:#181818;stroke-width:0.5;" x1="239.5" x2="319.5" y1="166" y2="166"/><line style="stroke:#181818;stroke-width:0.5;" x1="239.5" x2="319.5" y1="174" y2="174"/><text fill="#000000" font-family="sans-serif" font-size="14" lengthAdjust="spacing" textLength="58" x="244.5" y="192.5332">request()</text></g><path d="M6,149 L6,175.3516 A0,0 0 0 0 6,175.3516 L203,175.3516 A0,0 0 0 0 203,175.3516 L203,167 L242.5,186.8047 L203,159 L203,159 L193,149 L6,149 A0,0 0 0 0 6,149 " fill="#FAFAFA" style="stroke:#181818;stroke-width:0.5;"/><path d="M193,149 L193,159 L203,159 L193,149 " fill="#FAFAFA" style="stroke:#181818;stroke-width:0.5;"/><text fill="#000000" font-family="sans-serif" font-size="13" lengthAdjust="spacing" textLength="176" x="12" y="167.4951">self.adaptee.specific_request()</text><!--class Adaptee--><g id="elem_Adaptee"><rect codeLine="19" fill="#F1F1F1" height="65.6094" id="Adaptee" rx="2.5" ry="2.5" style="stroke:#181818;stroke-width:0.5;" width="125" x="407" y="134"/><ellipse cx="440" cy="150" fill="#C2C2C2" rx="11" ry="11" style="stroke:#181818;stroke-width:1.0;"/><path d="M442.7656,145.875 Q442.9219,145.6563 443.1094,145.5469 Q443.2969,145.4375 443.5156,145.4375 Q443.8906,145.4375 444.125,145.7031 Q444.3594,145.9531 444.3594,146.5625 L444.3594,148.0156 Q444.3594,148.625 444.125,148.8906 Q443.8906,149.1563 443.5156,149.1563 Q443.1719,149.1563 442.9688,148.9531 Q442.7656,148.7656 442.6563,148.25 Q442.6094,147.8906 442.4219,147.7031 Q442.0938,147.3281 441.4844,147.1094 Q440.875,146.8906 440.25,146.8906 Q439.4844,146.8906 438.8438,147.2188 Q438.2188,147.5469 437.7188,148.2969 Q437.2344,149.0469 437.2344,150.0781 L437.2344,151.1719 Q437.2344,152.4063 438.125,153.2344 Q439.0156,154.0469 440.6094,154.0469 Q441.5469,154.0469 442.2031,153.7969 Q442.5938,153.6406 443.0156,153.2031 Q443.2813,152.9375 443.4219,152.8594 Q443.5781,152.7813 443.7813,152.7813 Q444.1094,152.7813 444.3594,153.0469 Q444.625,153.2969 444.625,153.6406 Q444.625,153.9844 444.2813,154.3906 Q443.7813,154.9688 442.9844,155.2969 Q441.9063,155.75 440.6094,155.75 Q439.0938,155.75 437.8906,155.125 Q436.9063,154.625 436.2188,153.5625 Q435.5313,152.4844 435.5313,151.2031 L435.5313,150.0469 Q435.5313,148.7188 436.1406,147.5781 Q436.7656,146.4219 437.8594,145.8125 Q438.9531,145.1875 440.1875,145.1875 Q440.9219,145.1875 441.5625,145.3594 Q442.2188,145.5156 442.7656,145.875 Z " fill="#000000"/><text fill="#000000" font-family="sans-serif" font-size="14" lengthAdjust="spacing" textLength="53" x="458" y="155.7285">Adaptee</text><line style="stroke:#181818;stroke-width:0.5;" x1="408" x2="531" y1="166" y2="166"/><line style="stroke:#181818;stroke-width:0.5;" x1="408" x2="531" y1="174" y2="174"/><text fill="#000000" font-family="sans-serif" font-size="14" lengthAdjust="spacing" textLength="113" x="413" y="192.5332">specific_request()</text></g><!--link Client to Target--><g id="link_Client_Target"><path codeLine="23" d="M207.87,40 C219.34,40 224.81,40 236.28,40 " fill="none" id="Client-to-Target" style="stroke:#181818;stroke-width:1.0;"/><polygon fill="#181818" points="242.28,40,233.28,36,237.28,40,233.28,44,242.28,40" style="stroke:#181818;stroke-width:1.0;"/></g><!--reverse link Target to Adapter--><g id="link_Target_Adapter"><path codeLine="24" d="M279.5,91.19 C279.5,109.85 279.5,115.27 279.5,133.92 " fill="none" id="Target-backto-Adapter" style="stroke:#181818;stroke-width:1.0;"/><polygon fill="none" points="279.5,73.19,273.5,91.19,285.5,91.19,279.5,73.19" style="stroke:#181818;stroke-width:1.0;"/></g><!--link Adapter to Adaptee--><g id="link_Adapter_Adaptee"><path codeLine="25" d="M320.73,167 C345.83,167 372.4,167 400.67,167 " fill="none" id="Adapter-to-Adaptee" style="stroke:#181818;stroke-width:1.0;"/><polygon fill="#181818" points="406.67,167,397.67,163,401.67,167,397.67,171,406.67,167" style="stroke:#181818;stroke-width:1.0;"/><text fill="#000000" font-family="sans-serif" font-size="13" lengthAdjust="spacing" textLength="46" x="342.75" y="160.4951">adaptee</text></g><!--SRC=[ROzD3e8m48NtSue9ArtK0n1ZOho2UrFB51fBY-smGkukbJQ4nEsyRzvFV1ato21xd00HU- -yweBl2JcC13E0iZ96l5b3ZW7aCtAGYd4ztsLeYTFlL9GP0xr7YdmuRk_NHWvC8O4xrNacjAGPlIvGNMSa5OfazKd-13h5WPJHHZqs3t8D9fDz4AMWF_IIk0v1SSdT8KyuVuGe3Q3K5S6q7IziiQsnmjocWYy0]--></g></svg>