<?xml version="1.0" encoding="us-ascii" standalone="no"?><svg xmlns="http://www.w3.org/2000/svg" xmlns:xlink="http://www.w3.org/1999/xlink" contentStyleType="text/css" height="380px" preserveAspectRatio="none" style="width:540px;height:380px;background:#FFFFFF;" version="1.1" viewBox="0 0 540 380" width="540px" zoomAndPan="magnify"><defs/><g><rect fill="#FFFFFF" height="52.3516" style="stroke:#181818;stroke-width:1.0;" width="10" x="31" y="47.6094"/><rect fill="#FFFFFF" height="264.4609" style="stroke:#181818;stroke-width:1.0;" width="10" x="151" y="69.9609"/><rect fill="#FFFFFF" height="30.3516" style="stroke:#181818;stroke-width:1.0;" width="10" x="156" y="204.0156"/><rect fill="#FFFFFF" height="30.3516" style="stroke:#181818;stroke-width:1.0;" width="10" x="156" y="295.0703"/><rect fill="#FFFFFF" height="60.7031" style="stroke:#181818;stroke-width:1.0;" width="10" x="305" y="173.6641"/><rect fill="#FFFFFF" height="60.7031" style="stroke:#181818;stroke-width:1.0;" width="10" x="458" y="264.7188"/><line style="stroke:#181818;stroke-width:0.5;stroke-dasharray:5.0,5.0;" x1="36" x2="36" y1="37.6094" y2="343.4219"/><line style="stroke:#181818;stroke-width:0.5;stroke-dasharray:5.0,5.0;" x1="155.5" x2="155.5" y1="37.6094" y2="343.4219"/><line style="stroke:#181818;stroke-width:0.5;stroke-dasharray:5.0,5.0;" x1="309.5" x2="309.5" y1="37.6094" y2="343.4219"/><line style="stroke:#181818;stroke-width:0.5;stroke-dasharray:5.0,5.0;" x1="462.5" x2="462.5" y1="37.6094" y2="343.4219"/><rect fill="#E2E2F0" height="31.6094" rx="2.5" ry="2.5" style="stroke:#181818;stroke-width:0.5;" width="62" x="5" y="5"/><text fill="#000000" font-family="sans-serif" font-size="14" lengthAdjust="spacing" textLength="48" x="12" y="26.5332">Context</text><rect fill="#E2E2F0" height="31.6094" rx="2.5" ry="2.5" style="stroke:#181818;stroke-width:0.5;" width="62" x="5" y="342.4219"/><text fill="#000000" font-family="sans-serif" font-size="14" lengthAdjust="spacing" textLength="48" x="12" y="363.9551">Context</text><rect fill="#E2E2F0" height="31.6094" rx="2.5" ry="2.5" style="stroke:#181818;stroke-width:0.5;" width="119" x="96.5" y="5"/><text fill="#000000" font-family="sans-serif" font-size="14" lengthAdjust="spacing" textLength="105" x="103.5" y="26.5332">ConcreteSubject</text><rect fill="#E2E2F0" height="31.6094" rx="2.5" ry="2.5" style="stroke:#181818;stroke-width:0.5;" width="119" x="96.5" y="342.4219"/><text fill="#000000" font-family="sans-serif" font-size="14" lengthAdjust="spacing" textLength="105" x="103.5" y="363.9551">ConcreteSubject</text><rect fill="#E2E2F0" height="31.6094" rx="2.5" ry="2.5" style="stroke:#181818;stroke-width:0.5;" width="143" x="238.5" y="5"/><text fill="#000000" font-family="sans-serif" font-size="14" lengthAdjust="spacing" textLength="129" x="245.5" y="26.5332">ConcreteObserver 1</text><rect fill="#E2E2F0" height="31.6094" rx="2.5" ry="2.5" style="stroke:#181818;stroke-width:0.5;" width="143" x="238.5" y="342.4219"/><text fill="#000000" font-family="sans-serif" font-size="14" lengthAdjust="spacing" textLength="129" x="245.5" y="363.9551">ConcreteObserver 1</text><rect fill="#E2E2F0" height="31.6094" rx="2.5" ry="2.5" style="stroke:#181818;stroke-width:0.5;" width="143" x="391.5" y="5"/><text fill="#000000" font-family="sans-serif" font-size="14" lengthAdjust="spacing" textLength="129" x="398.5" y="26.5332">ConcreteObserver 2</text><rect fill="#E2E2F0" height="31.6094" rx="2.5" ry="2.5" style="stroke:#181818;stroke-width:0.5;" width="143" x="391.5" y="342.4219"/><text fill="#000000" font-family="sans-serif" font-size="14" lengthAdjust="spacing" textLength="129" x="398.5" y="363.9551">ConcreteObserver 2</text><rect fill="#FFFFFF" height="52.3516" style="stroke:#181818;stroke-width:1.0;" width="10" x="31" y="47.6094"/><rect fill="#FFFFFF" height="264.4609" style="stroke:#181818;stroke-width:1.0;" width="10" x="151" y="69.9609"/><rect fill="#FFFFFF" height="30.3516" style="stroke:#181818;stroke-width:1.0;" width="10" x="156" y="204.0156"/><rect fill="#FFFFFF" height="30.3516" style="stroke:#181818;stroke-width:1.0;" width="10" x="156" y="295.0703"/><rect fill="#FFFFFF" height="60.7031" style="stroke:#181818;stroke-width:1.0;" width="10" x="305" y="173.6641"/><rect fill="#FFFFFF" height="60.7031" style="stroke:#181818;stroke-width:1.0;" width="10" x="458" y="264.7188"/><polygon fill="#181818" points="139,65.9609,149,69.9609,139,73.9609,143,69.9609" style="stroke:#181818;stroke-width:1.0;"/><line style="stroke:#181818;stroke-width:1.0;" x1="41" x2="145" y1="69.9609" y2="69.9609"/><text fill="#000000" font-family="sans-serif" font-size="13" lengthAdjust="spacing" textLength="91" x="48" y="65.1045">set_state(state)</text><line style="stroke:#181818;stroke-width:1.0;" x1="161" x2="203" y1="130.3125" y2="130.3125"/><line style="stroke:#181818;stroke-width:1.0;" x1="203" x2="203" y1="130.3125" y2="143.3125"/><line style="stroke:#181818;stroke-width:1.0;" x1="162" x2="203" y1="143.3125" y2="143.3125"/><polygon fill="#181818" points="172,139.3125,162,143.3125,172,147.3125,168,143.3125" style="stroke:#181818;stroke-width:1.0;"/><text fill="#000000" font-family="sans-serif" font-size="13" lengthAdjust="spacing" textLength="39" x="168" y="125.4561">notify()</text><polygon fill="#181818" points="293,169.6641,303,173.6641,293,177.6641,297,173.6641" style="stroke:#181818;stroke-width:1.0;"/><line style="stroke:#181818;stroke-width:1.0;" x1="161" x2="299" y1="173.6641" y2="173.6641"/><text fill="#000000" font-family="sans-serif" font-size="13" lengthAdjust="spacing" textLength="47" x="168" y="168.8076">update()</text><polygon fill="#181818" points="177,200.0156,167,204.0156,177,208.0156,173,204.0156" style="stroke:#181818;stroke-width:1.0;"/><line style="stroke:#181818;stroke-width:1.0;" x1="171" x2="304" y1="204.0156" y2="204.0156"/><text fill="#000000" font-family="sans-serif" font-size="13" lengthAdjust="spacing" textLength="62" x="183" y="199.1592">get_state()</text><polygon fill="#181818" points="298,230.3672,308,234.3672,298,238.3672,302,234.3672" style="stroke:#181818;stroke-width:1.0;"/><line style="stroke:#181818;stroke-width:1.0;stroke-dasharray:2.0,2.0;" x1="161" x2="304" y1="234.3672" y2="234.3672"/><text fill="#000000" font-family="sans-serif" font-size="13" lengthAdjust="spacing" textLength="115" x="168" y="229.5107">return subject_state</text><polygon fill="#181818" points="446,260.7188,456,264.7188,446,268.7188,450,264.7188" style="stroke:#181818;stroke-width:1.0;"/><line style="stroke:#181818;stroke-width:1.0;" x1="161" x2="452" y1="264.7188" y2="264.7188"/><text fill="#000000" font-family="sans-serif" font-size="13" lengthAdjust="spacing" textLength="47" x="168" y="259.8623">update()</text><polygon fill="#181818" points="177,291.0703,167,295.0703,177,299.0703,173,295.0703" style="stroke:#181818;stroke-width:1.0;"/><line style="stroke:#181818;stroke-width:1.0;" x1="171" x2="457" y1="295.0703" y2="295.0703"/><text fill="#000000" font-family="sans-serif" font-size="13" lengthAdjust="spacing" textLength="62" x="183" y="290.2139">get_state()</text><polygon fill="#181818" points="451,321.4219,461,325.4219,451,329.4219,455,325.4219" style="stroke:#181818;stroke-width:1.0;"/><line style="stroke:#181818;stroke-width:1.0;stroke-dasharray:2.0,2.0;" x1="161" x2="457" y1="325.4219" y2="325.4219"/><text fill="#000000" font-family="sans-serif" font-size="13" lengthAdjust="spacing" textLength="115" x="168" y="320.5654">return subject_state</text><!--SRC=[dP0n3i8m34NtdCBgr0uCpSZ0qWDqw05GcXeKXZHAt0fkZqDBr20GY2N3z_V_BtRAaz76AKjGDACbl581Aa0ZtCj8UoJiflw2UhLqxprj7z3FwA5UR6tznITNdnH2QJAp8kH-qS3km2MmXu1q3CHo-NYhZQqJ0sPBNTgo8vdJhQoIsDQiJcw8GTiC1eopvzuvjUL5CIN5y0ScRo4izrZy6KeEnXM9GdwWa2BEVgQGVr3mXRDptG40]--></g></svg>