<?xml version="1.0" encoding="us-ascii" standalone="no"?><svg xmlns="http://www.w3.org/2000/svg" xmlns:xlink="http://www.w3.org/1999/xlink" contentStyleType="text/css" height="490px" preserveAspectRatio="none" style="width:641px;height:490px;background:#FFFFFF;" version="1.1" viewBox="0 0 641 490" width="641px" zoomAndPan="magnify"><defs/><g><!--class Game--><g id="elem_Game"><rect codeLine="3" fill="#F1F1F1" height="83.2188" id="Game" rx="2.5" ry="2.5" style="stroke:#181818;stroke-width:0.5;" width="120" x="7" y="51"/><ellipse cx="44.5" cy="67" fill="#ADD1B2" rx="11" ry="11" style="stroke:#181818;stroke-width:1.0;"/><path d="M47.2656,62.875 Q47.4219,62.6563 47.6094,62.5469 Q47.7969,62.4375 48.0156,62.4375 Q48.3906,62.4375 48.625,62.7031 Q48.8594,62.9531 48.8594,63.5625 L48.8594,65.0156 Q48.8594,65.625 48.625,65.8906 Q48.3906,66.1563 48.0156,66.1563 Q47.6719,66.1563 47.4688,65.9531 Q47.2656,65.7656 47.1563,65.25 Q47.1094,64.8906 46.9219,64.7031 Q46.5938,64.3281 45.9844,64.1094 Q45.375,63.8906 44.75,63.8906 Q43.9844,63.8906 43.3438,64.2188 Q42.7188,64.5469 42.2188,65.2969 Q41.7344,66.0469 41.7344,67.0781 L41.7344,68.1719 Q41.7344,69.4063 42.625,70.2344 Q43.5156,71.0469 45.1094,71.0469 Q46.0469,71.0469 46.7031,70.7969 Q47.0938,70.6406 47.5156,70.2031 Q47.7813,69.9375 47.9219,69.8594 Q48.0781,69.7813 48.2813,69.7813 Q48.6094,69.7813 48.8594,70.0469 Q49.125,70.2969 49.125,70.6406 Q49.125,70.9844 48.7813,71.3906 Q48.2813,71.9688 47.4844,72.2969 Q46.4063,72.75 45.1094,72.75 Q43.5938,72.75 42.3906,72.125 Q41.4063,71.625 40.7188,70.5625 Q40.0313,69.4844 40.0313,68.2031 L40.0313,67.0469 Q40.0313,65.7188 40.6406,64.5781 Q41.2656,63.4219 42.3594,62.8125 Q43.4531,62.1875 44.6875,62.1875 Q45.4219,62.1875 46.0625,62.3594 Q46.7188,62.5156 47.2656,62.875 Z " fill="#000000"/><text fill="#000000" font-family="sans-serif" font-size="14" lengthAdjust="spacing" textLength="38" x="63.5" y="72.7285">Game</text><line style="stroke:#181818;stroke-width:0.5;" x1="8" x2="126" y1="83" y2="83"/><text fill="#000000" font-family="sans-serif" font-size="14" lengthAdjust="spacing" textLength="77" x="13" y="101.5332">/ description</text><line style="stroke:#181818;stroke-width:0.5;" x1="8" x2="126" y1="108.6094" y2="108.6094"/><text fill="#000000" font-family="sans-serif" font-size="14" lengthAdjust="spacing" textLength="79" x="13" y="127.1426">PlayRound()</text></g><!--class Player--><g id="elem_Player"><rect codeLine="7" fill="#F1F1F1" height="171.2656" id="Player" rx="2.5" ry="2.5" style="stroke:#181818;stroke-width:0.5;" width="120" x="210" y="7"/><ellipse cx="246.6" cy="23" fill="#ADD1B2" rx="11" ry="11" style="stroke:#181818;stroke-width:1.0;"/><path d="M249.3656,18.875 Q249.5219,18.6563 249.7094,18.5469 Q249.8969,18.4375 250.1156,18.4375 Q250.4906,18.4375 250.725,18.7031 Q250.9594,18.9531 250.9594,19.5625 L250.9594,21.0156 Q250.9594,21.625 250.725,21.8906 Q250.4906,22.1563 250.1156,22.1563 Q249.7719,22.1563 249.5688,21.9531 Q249.3656,21.7656 249.2563,21.25 Q249.2094,20.8906 249.0219,20.7031 Q248.6938,20.3281 248.0844,20.1094 Q247.475,19.8906 246.85,19.8906 Q246.0844,19.8906 245.4438,20.2188 Q244.8188,20.5469 244.3188,21.2969 Q243.8344,22.0469 243.8344,23.0781 L243.8344,24.1719 Q243.8344,25.4063 244.725,26.2344 Q245.6156,27.0469 247.2094,27.0469 Q248.1469,27.0469 248.8031,26.7969 Q249.1938,26.6406 249.6156,26.2031 Q249.8813,25.9375 250.0219,25.8594 Q250.1781,25.7813 250.3813,25.7813 Q250.7094,25.7813 250.9594,26.0469 Q251.225,26.2969 251.225,26.6406 Q251.225,26.9844 250.8813,27.3906 Q250.3813,27.9688 249.5844,28.2969 Q248.5063,28.75 247.2094,28.75 Q245.6938,28.75 244.4906,28.125 Q243.5063,27.625 242.8188,26.5625 Q242.1313,25.4844 242.1313,24.2031 L242.1313,23.0469 Q242.1313,21.7188 242.7406,20.5781 Q243.3656,19.4219 244.4594,18.8125 Q245.5531,18.1875 246.7875,18.1875 Q247.5219,18.1875 248.1625,18.3594 Q248.8188,18.5156 249.3656,18.875 Z " fill="#000000"/><text fill="#000000" font-family="sans-serif" font-size="14" lengthAdjust="spacing" textLength="40" x="265.4" y="28.7285">Player</text><line style="stroke:#181818;stroke-width:0.5;" x1="211" x2="329" y1="39" y2="39"/><text fill="#000000" font-family="sans-serif" font-size="14" lengthAdjust="spacing" textLength="35" x="216" y="57.5332">name</text><text fill="#000000" font-family="sans-serif" font-size="14" lengthAdjust="spacing" textLength="57" x="216" y="75.1426">/ location</text><text fill="#000000" font-family="sans-serif" font-size="14" lengthAdjust="spacing" textLength="77" x="216" y="92.752">/ description</text><text fill="#000000" font-family="sans-serif" font-size="14" lengthAdjust="spacing" textLength="53" x="216" y="110.3613">/ actions</text><text fill="#000000" font-family="sans-serif" font-size="14" lengthAdjust="spacing" textLength="60" x="216" y="127.9707">take_turn</text><line style="stroke:#181818;stroke-width:0.5;" x1="211" x2="329" y1="135.0469" y2="135.0469"/><text fill="#000000" font-family="sans-serif" font-size="14" lengthAdjust="spacing" textLength="88" x="216" y="153.5801">SelectAction()</text><text fill="#000000" font-family="sans-serif" font-size="14" lengthAdjust="spacing" textLength="99" x="216" y="171.1895">PerformAction()</text></g><!--class Pawn--><g id="elem_Pawn"><rect codeLine="16" fill="#F1F1F1" height="48" id="Pawn" rx="2.5" ry="2.5" style="stroke:#181818;stroke-width:0.5;" width="120" x="413" y="68.5"/><ellipse cx="452.3" cy="84.5" fill="#ADD1B2" rx="11" ry="11" style="stroke:#181818;stroke-width:1.0;"/><path d="M455.0656,80.375 Q455.2219,80.1563 455.4094,80.0469 Q455.5969,79.9375 455.8156,79.9375 Q456.1906,79.9375 456.425,80.2031 Q456.6594,80.4531 456.6594,81.0625 L456.6594,82.5156 Q456.6594,83.125 456.425,83.3906 Q456.1906,83.6563 455.8156,83.6563 Q455.4719,83.6563 455.2688,83.4531 Q455.0656,83.2656 454.9563,82.75 Q454.9094,82.3906 454.7219,82.2031 Q454.3938,81.8281 453.7844,81.6094 Q453.175,81.3906 452.55,81.3906 Q451.7844,81.3906 451.1438,81.7188 Q450.5188,82.0469 450.0188,82.7969 Q449.5344,83.5469 449.5344,84.5781 L449.5344,85.6719 Q449.5344,86.9063 450.425,87.7344 Q451.3156,88.5469 452.9094,88.5469 Q453.8469,88.5469 454.5031,88.2969 Q454.8938,88.1406 455.3156,87.7031 Q455.5813,87.4375 455.7219,87.3594 Q455.8781,87.2813 456.0813,87.2813 Q456.4094,87.2813 456.6594,87.5469 Q456.925,87.7969 456.925,88.1406 Q456.925,88.4844 456.5813,88.8906 Q456.0813,89.4688 455.2844,89.7969 Q454.2063,90.25 452.9094,90.25 Q451.3938,90.25 450.1906,89.625 Q449.2063,89.125 448.5188,88.0625 Q447.8313,86.9844 447.8313,85.7031 L447.8313,84.5469 Q447.8313,83.2188 448.4406,82.0781 Q449.0656,80.9219 450.1594,80.3125 Q451.2531,79.6875 452.4875,79.6875 Q453.2219,79.6875 453.8625,79.8594 Q454.5188,80.0156 455.0656,80.375 Z " fill="#000000"/><text fill="#000000" font-family="sans-serif" font-size="14" lengthAdjust="spacing" textLength="34" x="471.7" y="90.2285">Pawn</text><line style="stroke:#181818;stroke-width:0.5;" x1="414" x2="532" y1="100.5" y2="100.5"/><line style="stroke:#181818;stroke-width:0.5;" x1="414" x2="532" y1="108.5" y2="108.5"/></g><!--class World--><g id="elem_World"><rect codeLine="17" fill="#F1F1F1" height="65.6094" id="World" rx="2.5" ry="2.5" style="stroke:#181818;stroke-width:0.5;" width="131" x="127.5" y="256"/><ellipse cx="170.4" cy="272" fill="#ADD1B2" rx="11" ry="11" style="stroke:#181818;stroke-width:1.0;"/><path d="M173.1656,267.875 Q173.3219,267.6563 173.5094,267.5469 Q173.6969,267.4375 173.9156,267.4375 Q174.2906,267.4375 174.525,267.7031 Q174.7594,267.9531 174.7594,268.5625 L174.7594,270.0156 Q174.7594,270.625 174.525,270.8906 Q174.2906,271.1563 173.9156,271.1563 Q173.5719,271.1563 173.3688,270.9531 Q173.1656,270.7656 173.0563,270.25 Q173.0094,269.8906 172.8219,269.7031 Q172.4938,269.3281 171.8844,269.1094 Q171.275,268.8906 170.65,268.8906 Q169.8844,268.8906 169.2438,269.2188 Q168.6188,269.5469 168.1188,270.2969 Q167.6344,271.0469 167.6344,272.0781 L167.6344,273.1719 Q167.6344,274.4063 168.525,275.2344 Q169.4156,276.0469 171.0094,276.0469 Q171.9469,276.0469 172.6031,275.7969 Q172.9938,275.6406 173.4156,275.2031 Q173.6813,274.9375 173.8219,274.8594 Q173.9781,274.7813 174.1813,274.7813 Q174.5094,274.7813 174.7594,275.0469 Q175.025,275.2969 175.025,275.6406 Q175.025,275.9844 174.6813,276.3906 Q174.1813,276.9688 173.3844,277.2969 Q172.3063,277.75 171.0094,277.75 Q169.4938,277.75 168.2906,277.125 Q167.3063,276.625 166.6188,275.5625 Q165.9313,274.4844 165.9313,273.2031 L165.9313,272.0469 Q165.9313,270.7188 166.5406,269.5781 Q167.1656,268.4219 168.2594,267.8125 Q169.3531,267.1875 170.5875,267.1875 Q171.3219,267.1875 171.9625,267.3594 Q172.6188,267.5156 173.1656,267.875 Z " fill="#000000"/><text fill="#000000" font-family="sans-serif" font-size="14" lengthAdjust="spacing" textLength="37" x="190.6" y="277.7285">World</text><line style="stroke:#181818;stroke-width:0.5;" x1="128.5" x2="257.5" y1="288" y2="288"/><line style="stroke:#181818;stroke-width:0.5;" x1="128.5" x2="257.5" y1="296" y2="296"/><text fill="#000000" font-family="sans-serif" font-size="14" lengthAdjust="spacing" textLength="119" x="133.5" y="314.5332">getLocation(name)</text></g><!--class Location--><g id="elem_Location"><rect codeLine="20" fill="#F1F1F1" height="65.6094" id="Location" rx="2.5" ry="2.5" style="stroke:#181818;stroke-width:0.5;" width="120" x="392" y="256"/><ellipse cx="422.3" cy="272" fill="#ADD1B2" rx="11" ry="11" style="stroke:#181818;stroke-width:1.0;"/><path d="M425.0656,267.875 Q425.2219,267.6563 425.4094,267.5469 Q425.5969,267.4375 425.8156,267.4375 Q426.1906,267.4375 426.425,267.7031 Q426.6594,267.9531 426.6594,268.5625 L426.6594,270.0156 Q426.6594,270.625 426.425,270.8906 Q426.1906,271.1563 425.8156,271.1563 Q425.4719,271.1563 425.2688,270.9531 Q425.0656,270.7656 424.9563,270.25 Q424.9094,269.8906 424.7219,269.7031 Q424.3938,269.3281 423.7844,269.1094 Q423.175,268.8906 422.55,268.8906 Q421.7844,268.8906 421.1438,269.2188 Q420.5188,269.5469 420.0188,270.2969 Q419.5344,271.0469 419.5344,272.0781 L419.5344,273.1719 Q419.5344,274.4063 420.425,275.2344 Q421.3156,276.0469 422.9094,276.0469 Q423.8469,276.0469 424.5031,275.7969 Q424.8938,275.6406 425.3156,275.2031 Q425.5813,274.9375 425.7219,274.8594 Q425.8781,274.7813 426.0813,274.7813 Q426.4094,274.7813 426.6594,275.0469 Q426.925,275.2969 426.925,275.6406 Q426.925,275.9844 426.5813,276.3906 Q426.0813,276.9688 425.2844,277.2969 Q424.2063,277.75 422.9094,277.75 Q421.3938,277.75 420.1906,277.125 Q419.2063,276.625 418.5188,275.5625 Q417.8313,274.4844 417.8313,273.2031 L417.8313,272.0469 Q417.8313,270.7188 418.4406,269.5781 Q419.0656,268.4219 420.1594,267.8125 Q421.2531,267.1875 422.4875,267.1875 Q423.2219,267.1875 423.8625,267.3594 Q424.5188,267.5156 425.0656,267.875 Z " fill="#000000"/><text fill="#000000" font-family="sans-serif" font-size="14" lengthAdjust="spacing" textLength="54" x="439.7" y="277.7285">Location</text><line style="stroke:#181818;stroke-width:0.5;" x1="393" x2="511" y1="288" y2="288"/><text fill="#000000" font-family="sans-serif" font-size="14" lengthAdjust="spacing" textLength="35" x="398" y="306.5332">name</text><line style="stroke:#181818;stroke-width:0.5;" x1="393" x2="511" y1="313.6094" y2="313.6094"/></g><!--class Object--><g id="elem_Object"><rect codeLine="23" fill="#F1F1F1" height="83.2188" id="Object" rx="2.5" ry="2.5" style="stroke:#181818;stroke-width:0.5;" width="120" x="392" y="400"/><ellipse cx="428.15" cy="416" fill="#ADD1B2" rx="11" ry="11" style="stroke:#181818;stroke-width:1.0;"/><path d="M430.9156,411.875 Q431.0719,411.6563 431.2594,411.5469 Q431.4469,411.4375 431.6656,411.4375 Q432.0406,411.4375 432.275,411.7031 Q432.5094,411.9531 432.5094,412.5625 L432.5094,414.0156 Q432.5094,414.625 432.275,414.8906 Q432.0406,415.1563 431.6656,415.1563 Q431.3219,415.1563 431.1188,414.9531 Q430.9156,414.7656 430.8063,414.25 Q430.7594,413.8906 430.5719,413.7031 Q430.2438,413.3281 429.6344,413.1094 Q429.025,412.8906 428.4,412.8906 Q427.6344,412.8906 426.9938,413.2188 Q426.3688,413.5469 425.8688,414.2969 Q425.3844,415.0469 425.3844,416.0781 L425.3844,417.1719 Q425.3844,418.4063 426.275,419.2344 Q427.1656,420.0469 428.7594,420.0469 Q429.6969,420.0469 430.3531,419.7969 Q430.7438,419.6406 431.1656,419.2031 Q431.4313,418.9375 431.5719,418.8594 Q431.7281,418.7813 431.9313,418.7813 Q432.2594,418.7813 432.5094,419.0469 Q432.775,419.2969 432.775,419.6406 Q432.775,419.9844 432.4313,420.3906 Q431.9313,420.9688 431.1344,421.2969 Q430.0563,421.75 428.7594,421.75 Q427.2438,421.75 426.0406,421.125 Q425.0563,420.625 424.3688,419.5625 Q423.6813,418.4844 423.6813,417.2031 L423.6813,416.0469 Q423.6813,414.7188 424.2906,413.5781 Q424.9156,412.4219 426.0094,411.8125 Q427.1031,411.1875 428.3375,411.1875 Q429.0719,411.1875 429.7125,411.3594 Q430.3688,411.5156 430.9156,411.875 Z " fill="#000000"/><text fill="#000000" font-family="sans-serif" font-size="14" lengthAdjust="spacing" textLength="41" x="446.85" y="421.7285">Object</text><line style="stroke:#181818;stroke-width:0.5;" x1="393" x2="511" y1="432" y2="432"/><text fill="#000000" font-family="sans-serif" font-size="14" lengthAdjust="spacing" textLength="35" x="398" y="450.5332">name</text><text fill="#000000" font-family="sans-serif" font-size="14" lengthAdjust="spacing" textLength="77" x="398" y="468.1426">/ description</text><line style="stroke:#181818;stroke-width:0.5;" x1="393" x2="511" y1="475.2188" y2="475.2188"/></g><!--link Game to Player--><g id="link_Game_Player"><path codeLine="28" d="M127.08,92.5 C153.15,92.5 177.63,92.5 203.72,92.5 " fill="none" id="Game-to-Player" style="stroke:#181818;stroke-width:1.0;"/><polygon fill="#181818" points="209.72,92.5,200.72,88.5,204.72,92.5,200.72,96.5,209.72,92.5" style="stroke:#181818;stroke-width:1.0;"/><polygon fill="#000000" points="144.5,80.6758,153.5451,83.6147,153.5451,77.7369,144.5,80.6758" style="stroke:#000000;stroke-width:1.0;"/><text fill="#000000" font-family="sans-serif" font-size="13" lengthAdjust="spacing" textLength="33" x="158.5" y="85.9951">Plays</text><text fill="#000000" font-family="sans-serif" font-size="13" lengthAdjust="spacing" textLength="7" x="135.1252" y="106.9278">1</text><text fill="#000000" font-family="sans-serif" font-size="13" lengthAdjust="spacing" textLength="20" x="182.0599" y="106.8245">1..*</text></g><!--link Player to Pawn--><g id="link_Player_Pawn"><path codeLine="29" d="M342.08,92.5 C368.15,92.5 380.63,92.5 406.72,92.5 " fill="none" id="Player-Pawn" style="stroke:#181818;stroke-width:1.0;"/><polygon fill="#181818" points="330.08,92.5,336.08,96.5,342.08,92.5,336.08,88.5,330.08,92.5" style="stroke:#181818;stroke-width:1.0;"/><polygon fill="#181818" points="412.72,92.5,403.72,88.5,407.72,92.5,403.72,96.5,412.72,92.5" style="stroke:#181818;stroke-width:1.0;"/><polygon fill="#000000" points="357.5,80.6758,348.4549,77.7369,348.4549,83.6147,357.5,80.6758" style="stroke:#000000;stroke-width:1.0;"/><text fill="#000000" font-family="sans-serif" font-size="13" lengthAdjust="spacing" textLength="33" x="361.5" y="85.9951">Owns</text><text fill="#000000" font-family="sans-serif" font-size="13" lengthAdjust="spacing" textLength="7" x="338.1252" y="106.9251">1</text><text fill="#000000" font-family="sans-serif" font-size="13" lengthAdjust="spacing" textLength="7" x="398.0878" y="106.8893">1</text></g><!--link Game to World--><g id="link_Game_World"><path codeLine="30" d="M99.9349,144.341 C123.3949,180.551 147.4074,217.6246 168.9774,250.9146 " fill="none" id="Game-World" style="stroke:#181818;stroke-width:1.0;"/><polygon fill="none" points="93.41,134.27,93.3154,141.4805,99.9349,144.341,100.0295,137.1306,93.41,134.27" style="stroke:#181818;stroke-width:1.0;"/><polygon fill="#181818" points="172.24,255.95,170.703,246.2218,169.5211,251.7538,163.9891,250.572,172.24,255.95" style="stroke:#181818;stroke-width:1.0;"/><polygon fill="#000000" points="160.7186,221.3721,158.2672,212.1829,153.3341,215.3788,160.7186,221.3721" style="stroke:#000000;stroke-width:1.0;"/><text fill="#000000" font-family="sans-serif" font-size="13" lengthAdjust="spacing" textLength="70" x="167" y="222.4951">Is played on</text><text fill="#000000" font-family="sans-serif" font-size="13" lengthAdjust="spacing" textLength="7" x="90.0613" y="155.7078">1</text><text fill="#000000" font-family="sans-serif" font-size="13" lengthAdjust="spacing" textLength="7" x="142.5864" y="245.0551">1</text></g><!--link World to Location--><g id="link_World_Location"><path codeLine="31" d="M258.69,289 C299.6,289 345.85,289 385.7,289 " fill="none" id="World-to-Location" style="stroke:#181818;stroke-width:1.0;"/><polygon fill="#181818" points="391.7,289,382.7,285,386.7,289,382.7,293,391.7,289" style="stroke:#181818;stroke-width:1.0;"/><polygon fill="#000000" points="296.25,277.1758,287.2049,274.2369,287.2049,280.1147,296.25,277.1758" style="stroke:#000000;stroke-width:1.0;"/><text fill="#000000" font-family="sans-serif" font-size="13" lengthAdjust="spacing" textLength="63" x="300.25" y="282.4951">consists of</text><text fill="#000000" font-family="sans-serif" font-size="13" lengthAdjust="spacing" textLength="7" x="266.4284" y="303.293">1</text><text fill="#000000" font-family="sans-serif" font-size="13" lengthAdjust="spacing" textLength="5" x="378.9863" y="303.3584">*</text></g><!--link Pawn to Location--><g id="link_Pawn_Location"><path codeLine="32" d="M470.51,116.58 C466.77,151.19 460.3446,210.7147 456.1046,249.9547 " fill="none" id="Pawn-to-Location" style="stroke:#181818;stroke-width:1.0;"/><polygon fill="#181818" points="455.46,255.92,460.4037,247.4018,455.9971,250.9489,452.45,246.5424,455.46,255.92" style="stroke:#181818;stroke-width:1.0;"/><polygon fill="#000000" points="465.4631,222.1469,469.3563,213.4697,463.5124,212.8385,465.4631,222.1469" style="stroke:#000000;stroke-width:1.0;"/><text fill="#000000" font-family="sans-serif" font-size="13" lengthAdjust="spacing" textLength="24" x="475" y="222.4951">is in</text></g><!--link Location to Location--><g id="link_Location_Location"><path codeLine="33" d="M512.3,275.5 C531.66,275.64 547,280.14 547,289 C547,297.86 537.6598,302.3166 518.2998,302.4566 " fill="none" id="Location-to-Location" style="stroke:#181818;stroke-width:1.0;"/><polygon fill="#181818" points="512.3,302.5,521.3287,306.4348,517.2999,302.4638,521.2708,298.435,512.3,302.5" style="stroke:#181818;stroke-width:1.0;"/><text fill="#000000" font-family="sans-serif" font-size="13" lengthAdjust="spacing" textLength="75" x="553" y="294.4951">connected to</text></g><!--link Location to Object--><g id="link_Location_Object"><path codeLine="34" d="M452,322.29 C452,345 452,369.57 452,393.93 " fill="none" id="Location-to-Object" style="stroke:#181818;stroke-width:1.0;"/><polygon fill="#181818" points="452,399.93,456,390.93,452,394.93,448,390.93,452,399.93" style="stroke:#181818;stroke-width:1.0;"/><polygon fill="#000000" points="457,366.1758,459.9389,357.1307,454.0611,357.1307,457,366.1758" style="stroke:#000000;stroke-width:1.0;"/><text fill="#000000" font-family="sans-serif" font-size="13" lengthAdjust="spacing" textLength="49" x="466" y="366.4951">contains</text><text fill="#000000" font-family="sans-serif" font-size="13" lengthAdjust="spacing" textLength="7" x="440.0203" y="343.206">1</text><ellipse cx="444.4313" cy="389.5605" fill="#000000" rx="2.5" ry="2.5" style="stroke:#000000;stroke-width:0.0;"/></g><!--SRC=[PL31IWCn4BtdAuQSwa9RrsEHGl5G2af53prApAOQkviicPGYqdzt9fljhZQ7a7bvxysRmODrhGggWIVh7cg5kBDL_8JoxbO8pJMiLMFWHm2TELG6TR1jjDubvBbMto_-wAh9ZJXd0MCcP8aZTTRMNgkByDfg3afpWQbwDRNHSPKGyawzJDZxqFp1eZgOjtWCRkYkJYu_TpxKLSxnOU9ZxZ_XJ4FS7XxbxR-sxryKudgISVIp46b3igGl2TCbNL3EPeNi5x583uHxaO5CBJekb3A51Y9kJmvXsHjAy5FcC9sOtJWBs22qR5I1TqJku8uq9E134VhXIAPfjHOZWj-JAdLazn738bXsl43__id1qJweSVG3YJhBn9G5FVBA4Zago-Fy0W00]--></g></svg>