<?xml version="1.0" encoding="us-ascii" standalone="no"?><svg xmlns="http://www.w3.org/2000/svg" xmlns:xlink="http://www.w3.org/1999/xlink" contentStyleType="text/css" height="170px" preserveAspectRatio="none" style="width:443px;height:170px;background:#FFFFFF;" version="1.1" viewBox="0 0 443 170" width="443px" zoomAndPan="magnify"><defs/><g><!--class Game--><g id="elem_Game"><rect codeLine="3" fill="#F1F1F1" height="48" id="Game" rx="2.5" ry="2.5" style="stroke:#181818;stroke-width:0.5;" width="120" x="7" y="7"/><ellipse cx="44.5" cy="23" fill="#ADD1B2" rx="11" ry="11" style="stroke:#181818;stroke-width:1.0;"/><path d="M47.2656,18.875 Q47.4219,18.6563 47.6094,18.5469 Q47.7969,18.4375 48.0156,18.4375 Q48.3906,18.4375 48.625,18.7031 Q48.8594,18.9531 48.8594,19.5625 L48.8594,21.0156 Q48.8594,21.625 48.625,21.8906 Q48.3906,22.1563 48.0156,22.1563 Q47.6719,22.1563 47.4688,21.9531 Q47.2656,21.7656 47.1563,21.25 Q47.1094,20.8906 46.9219,20.7031 Q46.5938,20.3281 45.9844,20.1094 Q45.375,19.8906 44.75,19.8906 Q43.9844,19.8906 43.3438,20.2188 Q42.7188,20.5469 42.2188,21.2969 Q41.7344,22.0469 41.7344,23.0781 L41.7344,24.1719 Q41.7344,25.4063 42.625,26.2344 Q43.5156,27.0469 45.1094,27.0469 Q46.0469,27.0469 46.7031,26.7969 Q47.0938,26.6406 47.5156,26.2031 Q47.7813,25.9375 47.9219,25.8594 Q48.0781,25.7813 48.2813,25.7813 Q48.6094,25.7813 48.8594,26.0469 Q49.125,26.2969 49.125,26.6406 Q49.125,26.9844 48.7813,27.3906 Q48.2813,27.9688 47.4844,28.2969 Q46.4063,28.75 45.1094,28.75 Q43.5938,28.75 42.3906,28.125 Q41.4063,27.625 40.7188,26.5625 Q40.0313,25.4844 40.0313,24.2031 L40.0313,23.0469 Q40.0313,21.7188 40.6406,20.5781 Q41.2656,19.4219 42.3594,18.8125 Q43.4531,18.1875 44.6875,18.1875 Q45.4219,18.1875 46.0625,18.3594 Q46.7188,18.5156 47.2656,18.875 Z " fill="#000000"/><text fill="#000000" font-family="sans-serif" font-size="14" lengthAdjust="spacing" textLength="38" x="63.5" y="28.7285">Game</text><line style="stroke:#181818;stroke-width:0.5;" x1="8" x2="126" y1="39" y2="39"/><line style="stroke:#181818;stroke-width:0.5;" x1="8" x2="126" y1="47" y2="47"/></g><!--class Player--><g id="elem_Player"><rect codeLine="4" fill="#F1F1F1" height="48" id="Player" rx="2.5" ry="2.5" style="stroke:#181818;stroke-width:0.5;" width="120" x="162" y="7"/><ellipse cx="198.6" cy="23" fill="#ADD1B2" rx="11" ry="11" style="stroke:#181818;stroke-width:1.0;"/><path d="M201.3656,18.875 Q201.5219,18.6563 201.7094,18.5469 Q201.8969,18.4375 202.1156,18.4375 Q202.4906,18.4375 202.725,18.7031 Q202.9594,18.9531 202.9594,19.5625 L202.9594,21.0156 Q202.9594,21.625 202.725,21.8906 Q202.4906,22.1563 202.1156,22.1563 Q201.7719,22.1563 201.5688,21.9531 Q201.3656,21.7656 201.2563,21.25 Q201.2094,20.8906 201.0219,20.7031 Q200.6938,20.3281 200.0844,20.1094 Q199.475,19.8906 198.85,19.8906 Q198.0844,19.8906 197.4438,20.2188 Q196.8188,20.5469 196.3188,21.2969 Q195.8344,22.0469 195.8344,23.0781 L195.8344,24.1719 Q195.8344,25.4063 196.725,26.2344 Q197.6156,27.0469 199.2094,27.0469 Q200.1469,27.0469 200.8031,26.7969 Q201.1938,26.6406 201.6156,26.2031 Q201.8813,25.9375 202.0219,25.8594 Q202.1781,25.7813 202.3813,25.7813 Q202.7094,25.7813 202.9594,26.0469 Q203.225,26.2969 203.225,26.6406 Q203.225,26.9844 202.8813,27.3906 Q202.3813,27.9688 201.5844,28.2969 Q200.5063,28.75 199.2094,28.75 Q197.6938,28.75 196.4906,28.125 Q195.5063,27.625 194.8188,26.5625 Q194.1313,25.4844 194.1313,24.2031 L194.1313,23.0469 Q194.1313,21.7188 194.7406,20.5781 Q195.3656,19.4219 196.4594,18.8125 Q197.5531,18.1875 198.7875,18.1875 Q199.5219,18.1875 200.1625,18.3594 Q200.8188,18.5156 201.3656,18.875 Z " fill="#000000"/><text fill="#000000" font-family="sans-serif" font-size="14" lengthAdjust="spacing" textLength="40" x="217.4" y="28.7285">Player</text><line style="stroke:#181818;stroke-width:0.5;" x1="163" x2="281" y1="39" y2="39"/><line style="stroke:#181818;stroke-width:0.5;" x1="163" x2="281" y1="47" y2="47"/></g><!--class Pawn--><!--class Location--><g id="elem_Location"><rect codeLine="6" fill="#F1F1F1" height="48" id="Location" rx="2.5" ry="2.5" style="stroke:#181818;stroke-width:0.5;" width="120" x="162" y="115"/><ellipse cx="192.3" cy="131" fill="#ADD1B2" rx="11" ry="11" style="stroke:#181818;stroke-width:1.0;"/><path d="M195.0656,126.875 Q195.2219,126.6563 195.4094,126.5469 Q195.5969,126.4375 195.8156,126.4375 Q196.1906,126.4375 196.425,126.7031 Q196.6594,126.9531 196.6594,127.5625 L196.6594,129.0156 Q196.6594,129.625 196.425,129.8906 Q196.1906,130.1563 195.8156,130.1563 Q195.4719,130.1563 195.2688,129.9531 Q195.0656,129.7656 194.9563,129.25 Q194.9094,128.8906 194.7219,128.7031 Q194.3938,128.3281 193.7844,128.1094 Q193.175,127.8906 192.55,127.8906 Q191.7844,127.8906 191.1438,128.2188 Q190.5188,128.5469 190.0188,129.2969 Q189.5344,130.0469 189.5344,131.0781 L189.5344,132.1719 Q189.5344,133.4063 190.425,134.2344 Q191.3156,135.0469 192.9094,135.0469 Q193.8469,135.0469 194.5031,134.7969 Q194.8938,134.6406 195.3156,134.2031 Q195.5813,133.9375 195.7219,133.8594 Q195.8781,133.7813 196.0813,133.7813 Q196.4094,133.7813 196.6594,134.0469 Q196.925,134.2969 196.925,134.6406 Q196.925,134.9844 196.5813,135.3906 Q196.0813,135.9688 195.2844,136.2969 Q194.2063,136.75 192.9094,136.75 Q191.3938,136.75 190.1906,136.125 Q189.2063,135.625 188.5188,134.5625 Q187.8313,133.4844 187.8313,132.2031 L187.8313,131.0469 Q187.8313,129.7188 188.4406,128.5781 Q189.0656,127.4219 190.1594,126.8125 Q191.2531,126.1875 192.4875,126.1875 Q193.2219,126.1875 193.8625,126.3594 Q194.5188,126.5156 195.0656,126.875 Z " fill="#000000"/><text fill="#000000" font-family="sans-serif" font-size="14" lengthAdjust="spacing" textLength="54" x="209.7" y="136.7285">Location</text><line style="stroke:#181818;stroke-width:0.5;" x1="163" x2="281" y1="147" y2="147"/><line style="stroke:#181818;stroke-width:0.5;" x1="163" x2="281" y1="155" y2="155"/></g><!--link Game to Player--><g id="link_Game_Player"><path codeLine="8" d="M127.24,31 C138.72,31 150.19,31 161.67,31 " fill="none" id="Game-Player" style="stroke:#181818;stroke-width:1.0;"/></g><!--link Player to Pawn--><!--link Game to Location--><g id="link_Game_Location"><path codeLine="10" d="M100.63,55 C126.54,72.72 162.21,97.11 188.17,114.86 " fill="none" id="Game-Location" style="stroke:#181818;stroke-width:1.0;"/></g><!--link Pawn to Location--><!--link Player to Location--><g id="link_Player_Location"><path codeLine="12" d="M222,55 C222,72.66 222,96.94 222,114.68 " fill="none" id="Player-Location" style="stroke:#181818;stroke-width:1.0;"/></g><!--SRC=[AyxEp2j8B4hCLV3Dp7FEIImk3izCASbGC3GouE9A1l4Lt1DpKw7CW9p4ojGY62UnF0_AzCbFJYp9pC_ZuW8fLb3GLO0fXL0G4P1wk3nS2qXOGLSNIG2Y1Kaa8pCb5QmT0000]--></g></svg>