<?xml version="1.0" encoding="us-ascii" standalone="no"?><svg xmlns="http://www.w3.org/2000/svg" xmlns:xlink="http://www.w3.org/1999/xlink" contentStyleType="text/css" height="240px" preserveAspectRatio="none" style="width:424px;height:240px;background:#FFFFFF;" version="1.1" viewBox="0 0 424 240" width="424px" zoomAndPan="magnify"><defs/><g><!--class BookFacade--><g id="elem_BookFacade"><rect codeLine="3" fill="#F1F1F1" height="83.2188" id="BookFacade" rx="2.5" ry="2.5" style="stroke:#181818;stroke-width:0.5;" width="178" x="133.5" y="16"/><ellipse cx="178.25" cy="32" fill="#ADD1B2" rx="11" ry="11" style="stroke:#181818;stroke-width:1.0;"/><path d="M181.0156,27.875 Q181.1719,27.6563 181.3594,27.5469 Q181.5469,27.4375 181.7656,27.4375 Q182.1406,27.4375 182.375,27.7031 Q182.6094,27.9531 182.6094,28.5625 L182.6094,30.0156 Q182.6094,30.625 182.375,30.8906 Q182.1406,31.1563 181.7656,31.1563 Q181.4219,31.1563 181.2188,30.9531 Q181.0156,30.7656 180.9063,30.25 Q180.8594,29.8906 180.6719,29.7031 Q180.3438,29.3281 179.7344,29.1094 Q179.125,28.8906 178.5,28.8906 Q177.7344,28.8906 177.0938,29.2188 Q176.4688,29.5469 175.9688,30.2969 Q175.4844,31.0469 175.4844,32.0781 L175.4844,33.1719 Q175.4844,34.4063 176.375,35.2344 Q177.2656,36.0469 178.8594,36.0469 Q179.7969,36.0469 180.4531,35.7969 Q180.8438,35.6406 181.2656,35.2031 Q181.5313,34.9375 181.6719,34.8594 Q181.8281,34.7813 182.0313,34.7813 Q182.3594,34.7813 182.6094,35.0469 Q182.875,35.2969 182.875,35.6406 Q182.875,35.9844 182.5313,36.3906 Q182.0313,36.9688 181.2344,37.2969 Q180.1563,37.75 178.8594,37.75 Q177.3438,37.75 176.1406,37.125 Q175.1563,36.625 174.4688,35.5625 Q173.7813,34.4844 173.7813,33.2031 L173.7813,32.0469 Q173.7813,30.7188 174.3906,29.5781 Q175.0156,28.4219 176.1094,27.8125 Q177.2031,27.1875 178.4375,27.1875 Q179.1719,27.1875 179.8125,27.3594 Q180.4688,27.5156 181.0156,27.875 Z " fill="#000000"/><text fill="#000000" font-family="sans-serif" font-size="14" lengthAdjust="spacing" textLength="80" x="198.75" y="37.7285">BookFacade</text><line style="stroke:#181818;stroke-width:0.5;" x1="134.5" x2="310.5" y1="48" y2="48"/><line style="stroke:#181818;stroke-width:0.5;" x1="134.5" x2="310.5" y1="56" y2="56"/><ellipse cx="144.5" cy="70.3047" fill="#84BE84" rx="3" ry="3" style="stroke:#038048;stroke-width:1.0;"/><text fill="#000000" font-family="sans-serif" font-size="14" lengthAdjust="spacing" textLength="152" x="153.5" y="74.5332">save(book: Book): None</text><ellipse cx="144.5" cy="87.9141" fill="#84BE84" rx="3" ry="3" style="stroke:#038048;stroke-width:1.0;"/><text fill="#000000" font-family="sans-serif" font-size="14" lengthAdjust="spacing" textLength="150" x="153.5" y="92.1426">print(book: Book): None</text></g><!--class BookDatabase--><g id="elem_BookDatabase"><rect codeLine="9" fill="#F1F1F1" height="65.6094" id="BookDatabase" rx="2.5" ry="2.5" style="stroke:#181818;stroke-width:0.5;" width="178" x="239.5" y="168"/><ellipse cx="278.35" cy="184" fill="#ADD1B2" rx="11" ry="11" style="stroke:#181818;stroke-width:1.0;"/><path d="M281.1156,179.875 Q281.2719,179.6563 281.4594,179.5469 Q281.6469,179.4375 281.8656,179.4375 Q282.2406,179.4375 282.475,179.7031 Q282.7094,179.9531 282.7094,180.5625 L282.7094,182.0156 Q282.7094,182.625 282.475,182.8906 Q282.2406,183.1563 281.8656,183.1563 Q281.5219,183.1563 281.3188,182.9531 Q281.1156,182.7656 281.0063,182.25 Q280.9594,181.8906 280.7719,181.7031 Q280.4438,181.3281 279.8344,181.1094 Q279.225,180.8906 278.6,180.8906 Q277.8344,180.8906 277.1938,181.2188 Q276.5688,181.5469 276.0688,182.2969 Q275.5844,183.0469 275.5844,184.0781 L275.5844,185.1719 Q275.5844,186.4063 276.475,187.2344 Q277.3656,188.0469 278.9594,188.0469 Q279.8969,188.0469 280.5531,187.7969 Q280.9438,187.6406 281.3656,187.2031 Q281.6313,186.9375 281.7719,186.8594 Q281.9281,186.7813 282.1313,186.7813 Q282.4594,186.7813 282.7094,187.0469 Q282.975,187.2969 282.975,187.6406 Q282.975,187.9844 282.6313,188.3906 Q282.1313,188.9688 281.3344,189.2969 Q280.2563,189.75 278.9594,189.75 Q277.4438,189.75 276.2406,189.125 Q275.2563,188.625 274.5688,187.5625 Q273.8813,186.4844 273.8813,185.2031 L273.8813,184.0469 Q273.8813,182.7188 274.4906,181.5781 Q275.1156,180.4219 276.2094,179.8125 Q277.3031,179.1875 278.5375,179.1875 Q279.2719,179.1875 279.9125,179.3594 Q280.5688,179.5156 281.1156,179.875 Z " fill="#000000"/><text fill="#000000" font-family="sans-serif" font-size="14" lengthAdjust="spacing" textLength="93" x="297.65" y="189.7285">BookDatabase</text><line style="stroke:#181818;stroke-width:0.5;" x1="240.5" x2="416.5" y1="200" y2="200"/><line style="stroke:#181818;stroke-width:0.5;" x1="240.5" x2="416.5" y1="208" y2="208"/><ellipse cx="250.5" cy="222.3047" fill="#84BE84" rx="3" ry="3" style="stroke:#038048;stroke-width:1.0;"/><text fill="#000000" font-family="sans-serif" font-size="14" lengthAdjust="spacing" textLength="152" x="259.5" y="226.5332">save(book: Book): None</text></g><!--class BookPrinter--><g id="elem_BookPrinter"><rect codeLine="13" fill="#F1F1F1" height="65.6094" id="BookPrinter" rx="2.5" ry="2.5" style="stroke:#181818;stroke-width:0.5;" width="176" x="28.5" y="168"/><ellipse cx="75.25" cy="184" fill="#ADD1B2" rx="11" ry="11" style="stroke:#181818;stroke-width:1.0;"/><path d="M78.0156,179.875 Q78.1719,179.6563 78.3594,179.5469 Q78.5469,179.4375 78.7656,179.4375 Q79.1406,179.4375 79.375,179.7031 Q79.6094,179.9531 79.6094,180.5625 L79.6094,182.0156 Q79.6094,182.625 79.375,182.8906 Q79.1406,183.1563 78.7656,183.1563 Q78.4219,183.1563 78.2188,182.9531 Q78.0156,182.7656 77.9063,182.25 Q77.8594,181.8906 77.6719,181.7031 Q77.3438,181.3281 76.7344,181.1094 Q76.125,180.8906 75.5,180.8906 Q74.7344,180.8906 74.0938,181.2188 Q73.4688,181.5469 72.9688,182.2969 Q72.4844,183.0469 72.4844,184.0781 L72.4844,185.1719 Q72.4844,186.4063 73.375,187.2344 Q74.2656,188.0469 75.8594,188.0469 Q76.7969,188.0469 77.4531,187.7969 Q77.8438,187.6406 78.2656,187.2031 Q78.5313,186.9375 78.6719,186.8594 Q78.8281,186.7813 79.0313,186.7813 Q79.3594,186.7813 79.6094,187.0469 Q79.875,187.2969 79.875,187.6406 Q79.875,187.9844 79.5313,188.3906 Q79.0313,188.9688 78.2344,189.2969 Q77.1563,189.75 75.8594,189.75 Q74.3438,189.75 73.1406,189.125 Q72.1563,188.625 71.4688,187.5625 Q70.7813,186.4844 70.7813,185.2031 L70.7813,184.0469 Q70.7813,182.7188 71.3906,181.5781 Q72.0156,180.4219 73.1094,179.8125 Q74.2031,179.1875 75.4375,179.1875 Q76.1719,179.1875 76.8125,179.3594 Q77.4688,179.5156 78.0156,179.875 Z " fill="#000000"/><text fill="#000000" font-family="sans-serif" font-size="14" lengthAdjust="spacing" textLength="74" x="95.75" y="189.7285">BookPrinter</text><line style="stroke:#181818;stroke-width:0.5;" x1="29.5" x2="203.5" y1="200" y2="200"/><line style="stroke:#181818;stroke-width:0.5;" x1="29.5" x2="203.5" y1="208" y2="208"/><ellipse cx="39.5" cy="222.3047" fill="#84BE84" rx="3" ry="3" style="stroke:#038048;stroke-width:1.0;"/><text fill="#000000" font-family="sans-serif" font-size="14" lengthAdjust="spacing" textLength="150" x="48.5" y="226.5332">print(book: Book): None</text></g><!--class Book--><g id="elem_Book"><rect codeLine="18" fill="#F1F1F1" height="100.8281" id="Book" rx="2.5" ry="2.5" style="stroke:#181818;stroke-width:0.5;" width="91" x="7" y="7"/><ellipse cx="34.15" cy="23" fill="#ADD1B2" rx="11" ry="11" style="stroke:#181818;stroke-width:1.0;"/><path d="M36.9156,18.875 Q37.0719,18.6563 37.2594,18.5469 Q37.4469,18.4375 37.6656,18.4375 Q38.0406,18.4375 38.275,18.7031 Q38.5094,18.9531 38.5094,19.5625 L38.5094,21.0156 Q38.5094,21.625 38.275,21.8906 Q38.0406,22.1563 37.6656,22.1563 Q37.3219,22.1563 37.1188,21.9531 Q36.9156,21.7656 36.8063,21.25 Q36.7594,20.8906 36.5719,20.7031 Q36.2438,20.3281 35.6344,20.1094 Q35.025,19.8906 34.4,19.8906 Q33.6344,19.8906 32.9938,20.2188 Q32.3688,20.5469 31.8688,21.2969 Q31.3844,22.0469 31.3844,23.0781 L31.3844,24.1719 Q31.3844,25.4063 32.275,26.2344 Q33.1656,27.0469 34.7594,27.0469 Q35.6969,27.0469 36.3531,26.7969 Q36.7438,26.6406 37.1656,26.2031 Q37.4313,25.9375 37.5719,25.8594 Q37.7281,25.7813 37.9313,25.7813 Q38.2594,25.7813 38.5094,26.0469 Q38.775,26.2969 38.775,26.6406 Q38.775,26.9844 38.4313,27.3906 Q37.9313,27.9688 37.1344,28.2969 Q36.0563,28.75 34.7594,28.75 Q33.2438,28.75 32.0406,28.125 Q31.0563,27.625 30.3688,26.5625 Q29.6813,25.4844 29.6813,24.2031 L29.6813,23.0469 Q29.6813,21.7188 30.2906,20.5781 Q30.9156,19.4219 32.0094,18.8125 Q33.1031,18.1875 34.3375,18.1875 Q35.0719,18.1875 35.7125,18.3594 Q36.3688,18.5156 36.9156,18.875 Z " fill="#000000"/><text fill="#000000" font-family="sans-serif" font-size="14" lengthAdjust="spacing" textLength="32" x="50.85" y="28.7285">Book</text><line style="stroke:#181818;stroke-width:0.5;" x1="8" x2="97" y1="39" y2="39"/><ellipse cx="18" cy="53.3047" fill="none" rx="3" ry="3" style="stroke:#038048;stroke-width:1.0;"/><text fill="#000000" font-family="sans-serif" font-size="14" lengthAdjust="spacing" textLength="46" x="27" y="57.5332">title: str</text><ellipse cx="18" cy="70.9141" fill="none" rx="3" ry="3" style="stroke:#038048;stroke-width:1.0;"/><text fill="#000000" font-family="sans-serif" font-size="14" lengthAdjust="spacing" textLength="65" x="27" y="75.1426">author: str</text><ellipse cx="18" cy="88.5234" fill="none" rx="3" ry="3" style="stroke:#038048;stroke-width:1.0;"/><text fill="#000000" font-family="sans-serif" font-size="14" lengthAdjust="spacing" textLength="62" x="27" y="92.752">pages: int</text><line style="stroke:#181818;stroke-width:0.5;" x1="8" x2="97" y1="99.8281" y2="99.8281"/></g><!--link BookFacade to BookDatabase--><g id="link_BookFacade_BookDatabase"><path codeLine="25" d="M252.88,99.05 C269.27,120.93 285.6211,142.7692 300.9211,163.1792 " fill="none" id="BookFacade-to-BookDatabase" style="stroke:#181818;stroke-width:1.0;"/><polygon fill="#181818" points="304.52,167.98,302.3223,158.3795,301.5209,163.9793,295.9211,163.178,304.52,167.98" style="stroke:#181818;stroke-width:1.0;"/></g><!--link BookFacade to BookPrinter--><g id="link_BookFacade_BookPrinter"><path codeLine="26" d="M192.12,99.05 C175.73,120.93 159.3789,142.7692 144.0789,163.1792 " fill="none" id="BookFacade-to-BookPrinter" style="stroke:#181818;stroke-width:1.0;"/><polygon fill="#181818" points="140.48,167.98,149.0789,163.178,143.4791,163.9793,142.6777,158.3795,140.48,167.98" style="stroke:#181818;stroke-width:1.0;"/></g><!--reverse link Book to BookFacade--><g id="link_Book_BookFacade"><path codeLine="27" d="M104.32,57.5 C115.96,57.5 121.6,57.5 133.25,57.5 " fill="none" id="Book-backto-BookFacade" style="stroke:#181818;stroke-width:1.0;stroke-dasharray:7.0,7.0;"/><polygon fill="#181818" points="98.32,57.5,107.32,61.5,103.32,57.5,107.32,53.5,98.32,57.5" style="stroke:#181818;stroke-width:1.0;"/></g><!--SRC=[Iyv9B2vMSChFptPBJ4vCILMevb800ktYnB9KZIIWi1LOKjDAmIy_BnKYLr2KcLU2HRAMYwiaFpsr92Er26XCCjnabyIInAJ4Oa9c0xKZz0I0x02RGy1A55qmvIMP9JcfLWh59KKGVc9fIKP-4P90GM9wQh6L0j1Ga05SIFxNrRL3SJGsEQZZm58ADdf8mSS50000]--></g></svg>