<?xml version="1.0" encoding="us-ascii" standalone="no"?><svg xmlns="http://www.w3.org/2000/svg" xmlns:xlink="http://www.w3.org/1999/xlink" contentStyleType="text/css" height="275px" preserveAspectRatio="none" style="width:461px;height:275px;background:#FFFFFF;" version="1.1" viewBox="0 0 461 275" width="461px" zoomAndPan="magnify"><defs/><g><!--class Book--><g id="elem_Book"><rect codeLine="2" fill="#F1F1F1" height="136.0469" id="Book" rx="2.5" ry="2.5" style="stroke:#181818;stroke-width:0.5;" width="107" x="167.5" y="7"/><ellipse cx="201.85" cy="23" fill="#ADD1B2" rx="11" ry="11" style="stroke:#181818;stroke-width:1.0;"/><path d="M204.6156,18.875 Q204.7719,18.6563 204.9594,18.5469 Q205.1469,18.4375 205.3656,18.4375 Q205.7406,18.4375 205.975,18.7031 Q206.2094,18.9531 206.2094,19.5625 L206.2094,21.0156 Q206.2094,21.625 205.975,21.8906 Q205.7406,22.1563 205.3656,22.1563 Q205.0219,22.1563 204.8188,21.9531 Q204.6156,21.7656 204.5063,21.25 Q204.4594,20.8906 204.2719,20.7031 Q203.9438,20.3281 203.3344,20.1094 Q202.725,19.8906 202.1,19.8906 Q201.3344,19.8906 200.6938,20.2188 Q200.0688,20.5469 199.5688,21.2969 Q199.0844,22.0469 199.0844,23.0781 L199.0844,24.1719 Q199.0844,25.4063 199.975,26.2344 Q200.8656,27.0469 202.4594,27.0469 Q203.3969,27.0469 204.0531,26.7969 Q204.4438,26.6406 204.8656,26.2031 Q205.1313,25.9375 205.2719,25.8594 Q205.4281,25.7813 205.6313,25.7813 Q205.9594,25.7813 206.2094,26.0469 Q206.475,26.2969 206.475,26.6406 Q206.475,26.9844 206.1313,27.3906 Q205.6313,27.9688 204.8344,28.2969 Q203.7563,28.75 202.4594,28.75 Q200.9438,28.75 199.7406,28.125 Q198.7563,27.625 198.0688,26.5625 Q197.3813,25.4844 197.3813,24.2031 L197.3813,23.0469 Q197.3813,21.7188 197.9906,20.5781 Q198.6156,19.4219 199.7094,18.8125 Q200.8031,18.1875 202.0375,18.1875 Q202.7719,18.1875 203.4125,18.3594 Q204.0688,18.5156 204.6156,18.875 Z " fill="#000000"/><text fill="#000000" font-family="sans-serif" font-size="14" lengthAdjust="spacing" textLength="32" x="220.15" y="28.7285">Book</text><line style="stroke:#181818;stroke-width:0.5;" x1="168.5" x2="273.5" y1="39" y2="39"/><text fill="#000000" font-family="sans-serif" font-size="14" lengthAdjust="spacing" textLength="46" x="173.5" y="57.5332">title: str</text><text fill="#000000" font-family="sans-serif" font-size="14" lengthAdjust="spacing" textLength="65" x="173.5" y="75.1426">author: str</text><text fill="#000000" font-family="sans-serif" font-size="14" lengthAdjust="spacing" textLength="62" x="173.5" y="92.752">pages: int</text><line style="stroke:#181818;stroke-width:0.5;" x1="168.5" x2="273.5" y1="99.8281" y2="99.8281"/><ellipse cx="178.5" cy="114.1328" fill="#84BE84" rx="3" ry="3" style="stroke:#038048;stroke-width:1.0;"/><text fill="#000000" font-family="sans-serif" font-size="14" lengthAdjust="spacing" textLength="79" x="187.5" y="118.3613">print(): None</text><ellipse cx="178.5" cy="131.7422" fill="#84BE84" rx="3" ry="3" style="stroke:#038048;stroke-width:1.0;"/><text fill="#000000" font-family="sans-serif" font-size="14" lengthAdjust="spacing" textLength="81" x="187.5" y="135.9707">save(): None</text></g><path d="M310,48.5 L310,65.8516 L266.5,112.6328 L310,73.8516 L310,91.2031 A0,0 0 0 0 310,91.2031 L454,91.2031 A0,0 0 0 0 454,91.2031 L454,58.5 L444,48.5 L310,48.5 A0,0 0 0 0 310,48.5 " fill="#FEFFDD" style="stroke:#181818;stroke-width:0.5;"/><path d="M444,48.5 L444,58.5 L454,58.5 L444,48.5 " fill="#FEFFDD" style="stroke:#181818;stroke-width:0.5;"/><text fill="#000000" font-family="sans-serif" font-size="13" lengthAdjust="spacing" textLength="66" x="316" y="66.9951">Delegate to</text><text fill="#000000" font-family="sans-serif" font-size="13" lengthAdjust="spacing" textLength="123" x="316" y="83.3467">BookDatabase.save()</text><path d="M6,48.5 L6,91.2031 A0,0 0 0 0 6,91.2031 L132,91.2031 A0,0 0 0 0 132,91.2031 L132,73.8516 L171.5,130.2422 L132,65.8516 L132,58.5 L122,48.5 L6,48.5 A0,0 0 0 0 6,48.5 " fill="#FEFFDD" style="stroke:#181818;stroke-width:0.5;"/><path d="M122,48.5 L122,58.5 L132,58.5 L122,48.5 " fill="#FEFFDD" style="stroke:#181818;stroke-width:0.5;"/><text fill="#000000" font-family="sans-serif" font-size="13" lengthAdjust="spacing" textLength="66" x="12" y="66.9951">Delegate to</text><text fill="#000000" font-family="sans-serif" font-size="13" lengthAdjust="spacing" textLength="105" x="12" y="83.3467">BookPrinter.print()</text><!--class BookDatabase--><g id="elem_BookDatabase"><rect codeLine="20" fill="#F1F1F1" height="65.6094" id="BookDatabase" rx="2.5" ry="2.5" style="stroke:#181818;stroke-width:0.5;" width="178" x="26" y="203"/><ellipse cx="64.85" cy="219" fill="#ADD1B2" rx="11" ry="11" style="stroke:#181818;stroke-width:1.0;"/><path d="M67.6156,214.875 Q67.7719,214.6563 67.9594,214.5469 Q68.1469,214.4375 68.3656,214.4375 Q68.7406,214.4375 68.975,214.7031 Q69.2094,214.9531 69.2094,215.5625 L69.2094,217.0156 Q69.2094,217.625 68.975,217.8906 Q68.7406,218.1563 68.3656,218.1563 Q68.0219,218.1563 67.8188,217.9531 Q67.6156,217.7656 67.5063,217.25 Q67.4594,216.8906 67.2719,216.7031 Q66.9438,216.3281 66.3344,216.1094 Q65.725,215.8906 65.1,215.8906 Q64.3344,215.8906 63.6937,216.2188 Q63.0687,216.5469 62.5687,217.2969 Q62.0844,218.0469 62.0844,219.0781 L62.0844,220.1719 Q62.0844,221.4063 62.975,222.2344 Q63.8656,223.0469 65.4594,223.0469 Q66.3969,223.0469 67.0531,222.7969 Q67.4438,222.6406 67.8656,222.2031 Q68.1313,221.9375 68.2719,221.8594 Q68.4281,221.7813 68.6313,221.7813 Q68.9594,221.7813 69.2094,222.0469 Q69.475,222.2969 69.475,222.6406 Q69.475,222.9844 69.1313,223.3906 Q68.6313,223.9688 67.8344,224.2969 Q66.7563,224.75 65.4594,224.75 Q63.9437,224.75 62.7406,224.125 Q61.7562,223.625 61.0687,222.5625 Q60.3812,221.4844 60.3812,220.2031 L60.3812,219.0469 Q60.3812,217.7188 60.9906,216.5781 Q61.6156,215.4219 62.7094,214.8125 Q63.8031,214.1875 65.0375,214.1875 Q65.7719,214.1875 66.4125,214.3594 Q67.0688,214.5156 67.6156,214.875 Z " fill="#000000"/><text fill="#000000" font-family="sans-serif" font-size="14" lengthAdjust="spacing" textLength="93" x="84.15" y="224.7285">BookDatabase</text><line style="stroke:#181818;stroke-width:0.5;" x1="27" x2="203" y1="235" y2="235"/><line style="stroke:#181818;stroke-width:0.5;" x1="27" x2="203" y1="243" y2="243"/><ellipse cx="37" cy="257.3047" fill="#84BE84" rx="3" ry="3" style="stroke:#038048;stroke-width:1.0;"/><text fill="#000000" font-family="sans-serif" font-size="14" lengthAdjust="spacing" textLength="152" x="46" y="261.5332">save(book: Book): None</text></g><!--class BookPrinter--><g id="elem_BookPrinter"><rect codeLine="24" fill="#F1F1F1" height="65.6094" id="BookPrinter" rx="2.5" ry="2.5" style="stroke:#181818;stroke-width:0.5;" width="176" x="239" y="203"/><ellipse cx="285.75" cy="219" fill="#ADD1B2" rx="11" ry="11" style="stroke:#181818;stroke-width:1.0;"/><path d="M288.5156,214.875 Q288.6719,214.6563 288.8594,214.5469 Q289.0469,214.4375 289.2656,214.4375 Q289.6406,214.4375 289.875,214.7031 Q290.1094,214.9531 290.1094,215.5625 L290.1094,217.0156 Q290.1094,217.625 289.875,217.8906 Q289.6406,218.1563 289.2656,218.1563 Q288.9219,218.1563 288.7188,217.9531 Q288.5156,217.7656 288.4063,217.25 Q288.3594,216.8906 288.1719,216.7031 Q287.8438,216.3281 287.2344,216.1094 Q286.625,215.8906 286,215.8906 Q285.2344,215.8906 284.5938,216.2188 Q283.9688,216.5469 283.4688,217.2969 Q282.9844,218.0469 282.9844,219.0781 L282.9844,220.1719 Q282.9844,221.4063 283.875,222.2344 Q284.7656,223.0469 286.3594,223.0469 Q287.2969,223.0469 287.9531,222.7969 Q288.3438,222.6406 288.7656,222.2031 Q289.0313,221.9375 289.1719,221.8594 Q289.3281,221.7813 289.5313,221.7813 Q289.8594,221.7813 290.1094,222.0469 Q290.375,222.2969 290.375,222.6406 Q290.375,222.9844 290.0313,223.3906 Q289.5313,223.9688 288.7344,224.2969 Q287.6563,224.75 286.3594,224.75 Q284.8438,224.75 283.6406,224.125 Q282.6563,223.625 281.9688,222.5625 Q281.2813,221.4844 281.2813,220.2031 L281.2813,219.0469 Q281.2813,217.7188 281.8906,216.5781 Q282.5156,215.4219 283.6094,214.8125 Q284.7031,214.1875 285.9375,214.1875 Q286.6719,214.1875 287.3125,214.3594 Q287.9688,214.5156 288.5156,214.875 Z " fill="#000000"/><text fill="#000000" font-family="sans-serif" font-size="14" lengthAdjust="spacing" textLength="74" x="306.25" y="224.7285">BookPrinter</text><line style="stroke:#181818;stroke-width:0.5;" x1="240" x2="414" y1="235" y2="235"/><line style="stroke:#181818;stroke-width:0.5;" x1="240" x2="414" y1="243" y2="243"/><ellipse cx="250" cy="257.3047" fill="#84BE84" rx="3" ry="3" style="stroke:#038048;stroke-width:1.0;"/><text fill="#000000" font-family="sans-serif" font-size="14" lengthAdjust="spacing" textLength="150" x="259" y="261.5332">print(book: Book): None</text></g><!--link Book to BookDatabase--><g id="link_Book_BookDatabase"><path codeLine="28" d="M176.05,143.43 C162.28,164.08 151.0995,180.8586 139.6795,197.9786 " fill="none" id="Book-to-BookDatabase" style="stroke:#181818;stroke-width:1.0;"/><polygon fill="#181818" points="136.35,202.97,144.6719,197.7026,139.1246,198.8105,138.0167,193.2632,136.35,202.97" style="stroke:#181818;stroke-width:1.0;"/></g><!--link Book to BookPrinter--><g id="link_Book_BookPrinter"><path codeLine="29" d="M265.95,143.43 C279.72,164.08 290.9005,180.8586 302.3205,197.9786 " fill="none" id="Book-to-BookPrinter" style="stroke:#181818;stroke-width:1.0;"/><polygon fill="#181818" points="305.65,202.97,303.9833,193.2632,302.8754,198.8105,297.3281,197.7026,305.65,202.97" style="stroke:#181818;stroke-width:1.0;"/></g><!--SRC=[TP0x3i8m38RtdC8Z2BK7oC20EYEku1Rt8QAaIWmBukuqJlgI85D-FxxVTcCm1BWuzu2tWkdnm8Oq1FOYySczywiUiQEWOR0iyZJwwNiuQhWwIoaKy4LBvAEKTKpWXwvdSArOQIrjKbwHeGwd2dQYOxv2nXe3bGcboDuXKZBBKBj1nPg_f5lq8L_cCJUaPbbyTii7IFFNaItfpIPhJ-REBGd_iqTEMnJddTK-cc7g2m00]--></g></svg>