<?xml version="1.0" encoding="us-ascii" standalone="no"?><svg xmlns="http://www.w3.org/2000/svg" xmlns:xlink="http://www.w3.org/1999/xlink" contentStyleType="text/css" height="478px" preserveAspectRatio="none" style="width:633px;height:478px;background:#FFFFFF;" version="1.1" viewBox="0 0 633 478" width="633px" zoomAndPan="magnify"><defs/><g><!--cluster adventure::v4d--><g id="cluster_adventure::v4d"><path d="M8.5,6 L116.5,6 A3.75,3.75 0 0 1 119,8.5 L126,29.6094 L623.5,29.6094 A2.5,2.5 0 0 1 626,32.1094 L626,468.5 A2.5,2.5 0 0 1 623.5,471 L8.5,471 A2.5,2.5 0 0 1 6,468.5 L6,8.5 A2.5,2.5 0 0 1 8.5,6 " fill="none" style="stroke:#000000;stroke-width:1.5;"/><line style="stroke:#000000;stroke-width:1.5;" x1="6" x2="126" y1="29.6094" y2="29.6094"/><text fill="#000000" font-family="sans-serif" font-size="14" font-weight="bold" lengthAdjust="spacing" textLength="107" x="10" y="22.5332">adventure::v4d</text></g><!--class Action--><g id="elem_Action"><rect codeLine="6" fill="#F1F1F1" height="83.2188" id="Action" rx="2.5" ry="2.5" style="stroke:#181818;stroke-width:0.5;" width="177" x="280.5" y="238"/><ellipse cx="345.25" cy="254" fill="#ADD1B2" rx="11" ry="11" style="stroke:#181818;stroke-width:1.0;"/><path d="M348.0156,249.875 Q348.1719,249.6563 348.3594,249.5469 Q348.5469,249.4375 348.7656,249.4375 Q349.1406,249.4375 349.375,249.7031 Q349.6094,249.9531 349.6094,250.5625 L349.6094,252.0156 Q349.6094,252.625 349.375,252.8906 Q349.1406,253.1563 348.7656,253.1563 Q348.4219,253.1563 348.2188,252.9531 Q348.0156,252.7656 347.9063,252.25 Q347.8594,251.8906 347.6719,251.7031 Q347.3438,251.3281 346.7344,251.1094 Q346.125,250.8906 345.5,250.8906 Q344.7344,250.8906 344.0938,251.2188 Q343.4688,251.5469 342.9688,252.2969 Q342.4844,253.0469 342.4844,254.0781 L342.4844,255.1719 Q342.4844,256.4063 343.375,257.2344 Q344.2656,258.0469 345.8594,258.0469 Q346.7969,258.0469 347.4531,257.7969 Q347.8438,257.6406 348.2656,257.2031 Q348.5313,256.9375 348.6719,256.8594 Q348.8281,256.7813 349.0313,256.7813 Q349.3594,256.7813 349.6094,257.0469 Q349.875,257.2969 349.875,257.6406 Q349.875,257.9844 349.5313,258.3906 Q349.0313,258.9688 348.2344,259.2969 Q347.1563,259.75 345.8594,259.75 Q344.3438,259.75 343.1406,259.125 Q342.1563,258.625 341.4688,257.5625 Q340.7813,256.4844 340.7813,255.2031 L340.7813,254.0469 Q340.7813,252.7188 341.3906,251.5781 Q342.0156,250.4219 343.1094,249.8125 Q344.2031,249.1875 345.4375,249.1875 Q346.1719,249.1875 346.8125,249.3594 Q347.4688,249.5156 348.0156,249.875 Z " fill="#000000"/><text fill="#000000" font-family="sans-serif" font-size="14" lengthAdjust="spacing" textLength="39" x="365.75" y="259.7285">Action</text><line style="stroke:#181818;stroke-width:0.5;" x1="281.5" x2="456.5" y1="270" y2="270"/><text fill="#000000" font-family="sans-serif" font-size="14" font-style="italic" lengthAdjust="spacing" textLength="93" x="286.5" y="288.5332">description: str</text><line style="stroke:#181818;stroke-width:0.5;" x1="281.5" x2="456.5" y1="295.6094" y2="295.6094"/><text fill="#000000" font-family="sans-serif" font-size="14" font-style="italic" lengthAdjust="spacing" textLength="165" x="286.5" y="314.1426">perform(instigator: Player)</text></g><!--class MoveAction--><g id="elem_MoveAction"><rect codeLine="11" fill="#F1F1F1" height="65.6094" id="MoveAction" rx="2.5" ry="2.5" style="stroke:#181818;stroke-width:0.5;" width="170" x="432" y="381"/><ellipse cx="476.25" cy="397" fill="#ADD1B2" rx="11" ry="11" style="stroke:#181818;stroke-width:1.0;"/><path d="M479.0156,392.875 Q479.1719,392.6563 479.3594,392.5469 Q479.5469,392.4375 479.7656,392.4375 Q480.1406,392.4375 480.375,392.7031 Q480.6094,392.9531 480.6094,393.5625 L480.6094,395.0156 Q480.6094,395.625 480.375,395.8906 Q480.1406,396.1563 479.7656,396.1563 Q479.4219,396.1563 479.2188,395.9531 Q479.0156,395.7656 478.9063,395.25 Q478.8594,394.8906 478.6719,394.7031 Q478.3438,394.3281 477.7344,394.1094 Q477.125,393.8906 476.5,393.8906 Q475.7344,393.8906 475.0938,394.2188 Q474.4688,394.5469 473.9688,395.2969 Q473.4844,396.0469 473.4844,397.0781 L473.4844,398.1719 Q473.4844,399.4063 474.375,400.2344 Q475.2656,401.0469 476.8594,401.0469 Q477.7969,401.0469 478.4531,400.7969 Q478.8438,400.6406 479.2656,400.2031 Q479.5313,399.9375 479.6719,399.8594 Q479.8281,399.7813 480.0313,399.7813 Q480.3594,399.7813 480.6094,400.0469 Q480.875,400.2969 480.875,400.6406 Q480.875,400.9844 480.5313,401.3906 Q480.0313,401.9688 479.2344,402.2969 Q478.1563,402.75 476.8594,402.75 Q475.3438,402.75 474.1406,402.125 Q473.1563,401.625 472.4688,400.5625 Q471.7813,399.4844 471.7813,398.2031 L471.7813,397.0469 Q471.7813,395.7188 472.3906,394.5781 Q473.0156,393.4219 474.1094,392.8125 Q475.2031,392.1875 476.4375,392.1875 Q477.1719,392.1875 477.8125,392.3594 Q478.4688,392.5156 479.0156,392.875 Z " fill="#000000"/><text fill="#000000" font-family="sans-serif" font-size="14" lengthAdjust="spacing" textLength="73" x="496.75" y="402.7285">MoveAction</text><line style="stroke:#181818;stroke-width:0.5;" x1="433" x2="601" y1="413" y2="413"/><line style="stroke:#181818;stroke-width:0.5;" x1="433" x2="601" y1="421" y2="421"/><text fill="#000000" font-family="sans-serif" font-size="14" lengthAdjust="spacing" textLength="71" x="438" y="439.5332">perform(...)</text></g><!--class SkipTurnAction--><g id="elem_SkipTurnAction"><rect codeLine="16" fill="#F1F1F1" height="65.6094" id="SkipTurnAction" rx="2.5" ry="2.5" style="stroke:#181818;stroke-width:0.5;" width="170" x="227" y="381"/><ellipse cx="260.9" cy="397" fill="#ADD1B2" rx="11" ry="11" style="stroke:#181818;stroke-width:1.0;"/><path d="M263.6656,392.875 Q263.8219,392.6563 264.0094,392.5469 Q264.1969,392.4375 264.4156,392.4375 Q264.7906,392.4375 265.025,392.7031 Q265.2594,392.9531 265.2594,393.5625 L265.2594,395.0156 Q265.2594,395.625 265.025,395.8906 Q264.7906,396.1563 264.4156,396.1563 Q264.0719,396.1563 263.8688,395.9531 Q263.6656,395.7656 263.5563,395.25 Q263.5094,394.8906 263.3219,394.7031 Q262.9938,394.3281 262.3844,394.1094 Q261.775,393.8906 261.15,393.8906 Q260.3844,393.8906 259.7438,394.2188 Q259.1188,394.5469 258.6188,395.2969 Q258.1344,396.0469 258.1344,397.0781 L258.1344,398.1719 Q258.1344,399.4063 259.025,400.2344 Q259.9156,401.0469 261.5094,401.0469 Q262.4469,401.0469 263.1031,400.7969 Q263.4938,400.6406 263.9156,400.2031 Q264.1813,399.9375 264.3219,399.8594 Q264.4781,399.7813 264.6813,399.7813 Q265.0094,399.7813 265.2594,400.0469 Q265.525,400.2969 265.525,400.6406 Q265.525,400.9844 265.1813,401.3906 Q264.6813,401.9688 263.8844,402.2969 Q262.8063,402.75 261.5094,402.75 Q259.9938,402.75 258.7906,402.125 Q257.8063,401.625 257.1188,400.5625 Q256.4313,399.4844 256.4313,398.2031 L256.4313,397.0469 Q256.4313,395.7188 257.0406,394.5781 Q257.6656,393.4219 258.7594,392.8125 Q259.8531,392.1875 261.0875,392.1875 Q261.8219,392.1875 262.4625,392.3594 Q263.1188,392.5156 263.6656,392.875 Z " fill="#000000"/><text fill="#000000" font-family="sans-serif" font-size="14" lengthAdjust="spacing" textLength="96" x="279.1" y="402.7285">SkipTurnAction</text><line style="stroke:#181818;stroke-width:0.5;" x1="228" x2="396" y1="413" y2="413"/><line style="stroke:#181818;stroke-width:0.5;" x1="228" x2="396" y1="421" y2="421"/><text fill="#000000" font-family="sans-serif" font-size="14" lengthAdjust="spacing" textLength="71" x="233" y="439.5332">perform(...)</text></g><!--class Player--><g id="elem_Player"><rect codeLine="22" fill="#F1F1F1" height="136.0469" id="Player" rx="2.5" ry="2.5" style="stroke:#181818;stroke-width:0.5;" width="282.4375" x="228" y="42"/><ellipse cx="344.9688" cy="58" fill="#ADD1B2" rx="11" ry="11" style="stroke:#181818;stroke-width:1.0;"/><path d="M347.7344,53.875 Q347.8906,53.6563 348.0781,53.5469 Q348.2656,53.4375 348.4844,53.4375 Q348.8594,53.4375 349.0938,53.7031 Q349.3281,53.9531 349.3281,54.5625 L349.3281,56.0156 Q349.3281,56.625 349.0938,56.8906 Q348.8594,57.1563 348.4844,57.1563 Q348.1406,57.1563 347.9375,56.9531 Q347.7344,56.7656 347.625,56.25 Q347.5781,55.8906 347.3906,55.7031 Q347.0625,55.3281 346.4531,55.1094 Q345.8438,54.8906 345.2188,54.8906 Q344.4531,54.8906 343.8125,55.2188 Q343.1875,55.5469 342.6875,56.2969 Q342.2031,57.0469 342.2031,58.0781 L342.2031,59.1719 Q342.2031,60.4063 343.0938,61.2344 Q343.9844,62.0469 345.5781,62.0469 Q346.5156,62.0469 347.1719,61.7969 Q347.5625,61.6406 347.9844,61.2031 Q348.25,60.9375 348.3906,60.8594 Q348.5469,60.7813 348.75,60.7813 Q349.0781,60.7813 349.3281,61.0469 Q349.5938,61.2969 349.5938,61.6406 Q349.5938,61.9844 349.25,62.3906 Q348.75,62.9688 347.9531,63.2969 Q346.875,63.75 345.5781,63.75 Q344.0625,63.75 342.8594,63.125 Q341.875,62.625 341.1875,61.5625 Q340.5,60.4844 340.5,59.2031 L340.5,58.0469 Q340.5,56.7188 341.1094,55.5781 Q341.7344,54.4219 342.8281,53.8125 Q343.9219,53.1875 345.1563,53.1875 Q345.8906,53.1875 346.5313,53.3594 Q347.1875,53.5156 347.7344,53.875 Z " fill="#000000"/><text fill="#000000" font-family="sans-serif" font-size="14" lengthAdjust="spacing" textLength="40" x="365.4688" y="63.7285">Player</text><line style="stroke:#181818;stroke-width:0.5;" x1="229" x2="509.4375" y1="74" y2="74"/><text fill="#000000" font-family="sans-serif" font-size="14" lengthAdjust="spacing" textLength="75" x="234" y="92.5332">pawn: Pawn</text><text fill="#000000" font-family="sans-serif" font-size="14" font-weight="bold" lengthAdjust="spacing" textLength="270.4375" x="234" y="110.1426">select_action: (player: Player) &#8594; Action</text><line style="stroke:#181818;stroke-width:0.5;" x1="229" x2="509.4375" y1="117.2188" y2="117.2188"/><text fill="#000000" font-family="sans-serif" font-size="14" lengthAdjust="spacing" textLength="111" x="234" y="135.752">location: Location</text><text fill="#000000" font-family="sans-serif" font-size="14" lengthAdjust="spacing" textLength="117" x="234" y="153.3613">actions: list[Action]</text><text fill="#000000" font-family="sans-serif" font-size="14" lengthAdjust="spacing" textLength="70" x="234" y="170.9707">take_turn()</text></g><!--class Pawn--><g id="elem_Pawn"><rect codeLine="30" fill="#F1F1F1" height="100.8281" id="Pawn" rx="2.5" ry="2.5" style="stroke:#181818;stroke-width:0.5;" width="170" x="23" y="59.5"/><ellipse cx="86.75" cy="75.5" fill="#ADD1B2" rx="11" ry="11" style="stroke:#181818;stroke-width:1.0;"/><path d="M89.5156,71.375 Q89.6719,71.1563 89.8594,71.0469 Q90.0469,70.9375 90.2656,70.9375 Q90.6406,70.9375 90.875,71.2031 Q91.1094,71.4531 91.1094,72.0625 L91.1094,73.5156 Q91.1094,74.125 90.875,74.3906 Q90.6406,74.6563 90.2656,74.6563 Q89.9219,74.6563 89.7188,74.4531 Q89.5156,74.2656 89.4063,73.75 Q89.3594,73.3906 89.1719,73.2031 Q88.8438,72.8281 88.2344,72.6094 Q87.625,72.3906 87,72.3906 Q86.2344,72.3906 85.5938,72.7188 Q84.9688,73.0469 84.4688,73.7969 Q83.9844,74.5469 83.9844,75.5781 L83.9844,76.6719 Q83.9844,77.9063 84.875,78.7344 Q85.7656,79.5469 87.3594,79.5469 Q88.2969,79.5469 88.9531,79.2969 Q89.3438,79.1406 89.7656,78.7031 Q90.0313,78.4375 90.1719,78.3594 Q90.3281,78.2813 90.5313,78.2813 Q90.8594,78.2813 91.1094,78.5469 Q91.375,78.7969 91.375,79.1406 Q91.375,79.4844 91.0313,79.8906 Q90.5313,80.4688 89.7344,80.7969 Q88.6563,81.25 87.3594,81.25 Q85.8438,81.25 84.6406,80.625 Q83.6563,80.125 82.9688,79.0625 Q82.2813,77.9844 82.2813,76.7031 L82.2813,75.5469 Q82.2813,74.2188 82.8906,73.0781 Q83.5156,71.9219 84.6094,71.3125 Q85.7031,70.6875 86.9375,70.6875 Q87.6719,70.6875 88.3125,70.8594 Q88.9688,71.0156 89.5156,71.375 Z " fill="#000000"/><text fill="#000000" font-family="sans-serif" font-size="14" lengthAdjust="spacing" textLength="34" x="107.25" y="81.2285">Pawn</text><line style="stroke:#181818;stroke-width:0.5;" x1="24" x2="192" y1="91.5" y2="91.5"/><text fill="#000000" font-family="sans-serif" font-size="14" lengthAdjust="spacing" textLength="59" x="29" y="110.0332">name: str</text><text fill="#000000" font-family="sans-serif" font-size="14" lengthAdjust="spacing" textLength="111" x="29" y="127.6426">location: Location</text><line style="stroke:#181818;stroke-width:0.5;" x1="24" x2="192" y1="134.7188" y2="134.7188"/><text fill="#000000" font-family="sans-serif" font-size="14" lengthAdjust="spacing" textLength="117" x="29" y="153.252">actions: list[Action]</text></g><!--class Location--><g id="elem_Location"><rect codeLine="39" fill="#F1F1F1" height="65.6094" id="Location" rx="2.5" ry="2.5" style="stroke:#181818;stroke-width:0.5;" width="171" x="22.5" y="246.5"/><ellipse cx="76.75" cy="262.5" fill="#ADD1B2" rx="11" ry="11" style="stroke:#181818;stroke-width:1.0;"/><path d="M79.5156,258.375 Q79.6719,258.1563 79.8594,258.0469 Q80.0469,257.9375 80.2656,257.9375 Q80.6406,257.9375 80.875,258.2031 Q81.1094,258.4531 81.1094,259.0625 L81.1094,260.5156 Q81.1094,261.125 80.875,261.3906 Q80.6406,261.6563 80.2656,261.6563 Q79.9219,261.6563 79.7188,261.4531 Q79.5156,261.2656 79.4063,260.75 Q79.3594,260.3906 79.1719,260.2031 Q78.8438,259.8281 78.2344,259.6094 Q77.625,259.3906 77,259.3906 Q76.2344,259.3906 75.5938,259.7188 Q74.9688,260.0469 74.4688,260.7969 Q73.9844,261.5469 73.9844,262.5781 L73.9844,263.6719 Q73.9844,264.9063 74.875,265.7344 Q75.7656,266.5469 77.3594,266.5469 Q78.2969,266.5469 78.9531,266.2969 Q79.3438,266.1406 79.7656,265.7031 Q80.0313,265.4375 80.1719,265.3594 Q80.3281,265.2813 80.5313,265.2813 Q80.8594,265.2813 81.1094,265.5469 Q81.375,265.7969 81.375,266.1406 Q81.375,266.4844 81.0313,266.8906 Q80.5313,267.4688 79.7344,267.7969 Q78.6563,268.25 77.3594,268.25 Q75.8438,268.25 74.6406,267.625 Q73.6563,267.125 72.9688,266.0625 Q72.2813,264.9844 72.2813,263.7031 L72.2813,262.5469 Q72.2813,261.2188 72.8906,260.0781 Q73.5156,258.9219 74.6094,258.3125 Q75.7031,257.6875 76.9375,257.6875 Q77.6719,257.6875 78.3125,257.8594 Q78.9688,258.0156 79.5156,258.375 Z " fill="#000000"/><text fill="#000000" font-family="sans-serif" font-size="14" lengthAdjust="spacing" textLength="54" x="97.25" y="268.2285">Location</text><line style="stroke:#181818;stroke-width:0.5;" x1="23.5" x2="192.5" y1="278.5" y2="278.5"/><line style="stroke:#181818;stroke-width:0.5;" x1="23.5" x2="192.5" y1="286.5" y2="286.5"/><text fill="#000000" font-family="sans-serif" font-size="14" lengthAdjust="spacing" textLength="159" x="28.5" y="305.0332">move_actions: list[Action]</text></g><!--class World--><g id="elem_World"><rect codeLine="43" fill="#F1F1F1" height="48" id="World" rx="2.5" ry="2.5" style="stroke:#181818;stroke-width:0.5;" width="170" x="22" y="390"/><ellipse cx="84.25" cy="406" fill="#ADD1B2" rx="11" ry="11" style="stroke:#181818;stroke-width:1.0;"/><path d="M87.0156,401.875 Q87.1719,401.6563 87.3594,401.5469 Q87.5469,401.4375 87.7656,401.4375 Q88.1406,401.4375 88.375,401.7031 Q88.6094,401.9531 88.6094,402.5625 L88.6094,404.0156 Q88.6094,404.625 88.375,404.8906 Q88.1406,405.1563 87.7656,405.1563 Q87.4219,405.1563 87.2188,404.9531 Q87.0156,404.7656 86.9063,404.25 Q86.8594,403.8906 86.6719,403.7031 Q86.3438,403.3281 85.7344,403.1094 Q85.125,402.8906 84.5,402.8906 Q83.7344,402.8906 83.0938,403.2188 Q82.4688,403.5469 81.9688,404.2969 Q81.4844,405.0469 81.4844,406.0781 L81.4844,407.1719 Q81.4844,408.4063 82.375,409.2344 Q83.2656,410.0469 84.8594,410.0469 Q85.7969,410.0469 86.4531,409.7969 Q86.8438,409.6406 87.2656,409.2031 Q87.5313,408.9375 87.6719,408.8594 Q87.8281,408.7813 88.0313,408.7813 Q88.3594,408.7813 88.6094,409.0469 Q88.875,409.2969 88.875,409.6406 Q88.875,409.9844 88.5313,410.3906 Q88.0313,410.9688 87.2344,411.2969 Q86.1563,411.75 84.8594,411.75 Q83.3438,411.75 82.1406,411.125 Q81.1563,410.625 80.4688,409.5625 Q79.7813,408.4844 79.7813,407.2031 L79.7813,406.0469 Q79.7813,404.7188 80.3906,403.5781 Q81.0156,402.4219 82.1094,401.8125 Q83.2031,401.1875 84.4375,401.1875 Q85.1719,401.1875 85.8125,401.3594 Q86.4688,401.5156 87.0156,401.875 Z " fill="#000000"/><text fill="#000000" font-family="sans-serif" font-size="14" lengthAdjust="spacing" textLength="37" x="104.75" y="411.7285">World</text><line style="stroke:#181818;stroke-width:0.5;" x1="23" x2="191" y1="422" y2="422"/><line style="stroke:#181818;stroke-width:0.5;" x1="23" x2="191" y1="430" y2="430"/></g><!--reverse link Action to MoveAction--><g id="link_Action_MoveAction"><path codeLine="14" d="M428.0232,333.3436 C449.4332,352.5036 461.15,363 481.16,380.92 " fill="none" id="Action-backto-MoveAction" style="stroke:#181818;stroke-width:1.0;"/><polygon fill="none" points="414.61,321.34,424.022,337.8147,432.0244,328.8725,414.61,321.34" style="stroke:#181818;stroke-width:1.0;"/></g><!--reverse link Action to SkipTurnAction--><g id="link_Action_SkipTurnAction"><path codeLine="19" d="M344.3186,337.8757 C336.0786,357.0357 333.51,363 325.8,380.92 " fill="none" id="Action-backto-SkipTurnAction" style="stroke:#181818;stroke-width:1.0;"/><polygon fill="none" points="351.43,321.34,338.8067,335.5052,349.8305,340.2461,351.43,321.34" style="stroke:#181818;stroke-width:1.0;"/></g><!--link Pawn to Player--><g id="link_Pawn_Player"><path codeLine="36" d="M199.13,110 C210.7,110 204.26,110 215.82,110 " fill="none" id="Pawn-Player" style="stroke:#181818;stroke-width:1.0;"/><polygon fill="#181818" points="193.13,110,202.13,114,198.13,110,202.13,106,193.13,110" style="stroke:#181818;stroke-width:1.0;"/><polygon fill="#181818" points="227.82,110,221.82,106,215.82,110,221.82,114,227.82,110" style="stroke:#181818;stroke-width:1.0;"/></g><!--link Player to Action--><g id="link_Player_Action"><path codeLine="37" d="M369,178.16 C369,198.37 369,213.92 369,231.84 " fill="none" id="Player-to-Action" style="stroke:#181818;stroke-width:1.0;stroke-dasharray:7.0,7.0;"/><polygon fill="#181818" points="369,237.84,373,228.84,369,232.84,365,228.84,369,237.84" style="stroke:#181818;stroke-width:1.0;"/></g><!--link Location to World--><g id="link_Location_World"><path codeLine="46" d="M107.7148,318.5698 C107.5348,342.4698 107.4353,356.5304 107.2653,377.9404 " fill="none" id="Location-World" style="stroke:#181818;stroke-width:1.0;"/><polygon fill="#181818" points="107.76,312.57,103.6923,321.5396,107.7223,317.5699,111.6921,321.5999,107.76,312.57" style="stroke:#181818;stroke-width:1.0;"/><polygon fill="#181818" points="107.17,389.94,111.2175,383.9719,107.2653,377.9404,103.2178,383.9084,107.17,389.94" style="stroke:#181818;stroke-width:1.0;"/></g><!--link Pawn to Location--><g id="link_Pawn_Location"><path codeLine="47" d="M108,160.8 C108,188.48 108,216.11 108,240.32 " fill="none" id="Pawn-to-Location" style="stroke:#181818;stroke-width:1.0;"/><polygon fill="#181818" points="108,246.32,112,237.32,108,241.32,104,237.32,108,246.32" style="stroke:#181818;stroke-width:1.0;"/></g><!--SRC=[fLBTQi8m5BxlKmIlL6YtmM1Gf31sEq7Om8invDWSDJHDGXALuNgx1zWZxacMcbXRTGosN9Jq_7m_vyGKJ2ZGK98n4mySZ9aoQbVavkuwYXJa1IoHz81kKDYrnZJTtD8UsKKHSSVA9TeLQlTFmibh27AVMoP5AroV7SoDrP3RYb0qkMQgBag92_vKfr0lf2xxJ1ZBbc2bJic4mnlgGTDIHIVaOxd1Ym8EQ4cIjDiFjrPVl5RnUnPidE8_5KmzhxNu2yT9RvUdvSOpUQij1WLRDx29-pQXNUbM86b5kCp13_GntCvhO4zaKiAPiI-UzlLOjc38QJMQPmOvvdRcorFILtiXpUp9ryTd43swccSDW8K2P-wPYFxWWXcdkcL5G8dTtV_FGE0A8nl671Sspewp2ec4ogr8kglr-WwaBOqDRUcUnknNReypbPhJ018IFZIijvrrpUs74jUQNEQOghu1]--></g></svg>