<?xml version="1.0" encoding="us-ascii" standalone="no"?><svg xmlns="http://www.w3.org/2000/svg" xmlns:xlink="http://www.w3.org/1999/xlink" contentStyleType="text/css" height="648px" preserveAspectRatio="none" style="width:837px;height:648px;background:#FFFFFF;" version="1.1" viewBox="0 0 837 648" width="837px" zoomAndPan="magnify"><defs/><g><!--cluster adventure::v4b--><g id="cluster_adventure::v4b"><path d="M8.5,6 L116.5,6 A3.75,3.75 0 0 1 119,8.5 L126,29.6094 L827.5,29.6094 A2.5,2.5 0 0 1 830,32.1094 L830,638.5 A2.5,2.5 0 0 1 827.5,641 L8.5,641 A2.5,2.5 0 0 1 6,638.5 L6,8.5 A2.5,2.5 0 0 1 8.5,6 " fill="none" style="stroke:#000000;stroke-width:1.5;"/><line style="stroke:#000000;stroke-width:1.5;" x1="6" x2="126" y1="29.6094" y2="29.6094"/><text fill="#000000" font-family="sans-serif" font-size="14" font-weight="bold" lengthAdjust="spacing" textLength="107" x="10" y="22.5332">adventure::v4b</text></g><!--class Action--><g id="elem_Action"><rect codeLine="5" fill="#F1F1F1" height="83.2188" id="Action" rx="2.5" ry="2.5" style="stroke:#181818;stroke-width:0.5;" width="171" x="305.5" y="318.5"/><ellipse cx="367.25" cy="334.5" fill="#ADD1B2" rx="11" ry="11" style="stroke:#181818;stroke-width:1.0;"/><path d="M370.0156,330.375 Q370.1719,330.1563 370.3594,330.0469 Q370.5469,329.9375 370.7656,329.9375 Q371.1406,329.9375 371.375,330.2031 Q371.6094,330.4531 371.6094,331.0625 L371.6094,332.5156 Q371.6094,333.125 371.375,333.3906 Q371.1406,333.6563 370.7656,333.6563 Q370.4219,333.6563 370.2188,333.4531 Q370.0156,333.2656 369.9063,332.75 Q369.8594,332.3906 369.6719,332.2031 Q369.3438,331.8281 368.7344,331.6094 Q368.125,331.3906 367.5,331.3906 Q366.7344,331.3906 366.0938,331.7188 Q365.4688,332.0469 364.9688,332.7969 Q364.4844,333.5469 364.4844,334.5781 L364.4844,335.6719 Q364.4844,336.9063 365.375,337.7344 Q366.2656,338.5469 367.8594,338.5469 Q368.7969,338.5469 369.4531,338.2969 Q369.8438,338.1406 370.2656,337.7031 Q370.5313,337.4375 370.6719,337.3594 Q370.8281,337.2813 371.0313,337.2813 Q371.3594,337.2813 371.6094,337.5469 Q371.875,337.7969 371.875,338.1406 Q371.875,338.4844 371.5313,338.8906 Q371.0313,339.4688 370.2344,339.7969 Q369.1563,340.25 367.8594,340.25 Q366.3438,340.25 365.1406,339.625 Q364.1563,339.125 363.4688,338.0625 Q362.7813,336.9844 362.7813,335.7031 L362.7813,334.5469 Q362.7813,333.2188 363.3906,332.0781 Q364.0156,330.9219 365.1094,330.3125 Q366.2031,329.6875 367.4375,329.6875 Q368.1719,329.6875 368.8125,329.8594 Q369.4688,330.0156 370.0156,330.375 Z " fill="#000000"/><text fill="#000000" font-family="sans-serif" font-size="14" lengthAdjust="spacing" textLength="39" x="387.75" y="340.2285">Action</text><line style="stroke:#181818;stroke-width:0.5;" x1="306.5" x2="475.5" y1="350.5" y2="350.5"/><text fill="#000000" font-family="sans-serif" font-size="14" font-style="italic" lengthAdjust="spacing" textLength="93" x="311.5" y="369.0332">description: str</text><line style="stroke:#181818;stroke-width:0.5;" x1="306.5" x2="475.5" y1="376.1094" y2="376.1094"/><text fill="#000000" font-family="sans-serif" font-size="14" font-style="italic" lengthAdjust="spacing" textLength="159" x="311.5" y="394.6426">perform(instigator: Pawn)</text></g><!--class MoveAction--><g id="elem_MoveAction"><rect codeLine="10" fill="#F1F1F1" height="48" id="MoveAction" rx="2.5" ry="2.5" style="stroke:#181818;stroke-width:0.5;" width="121" x="219.5" y="533"/><ellipse cx="234.5" cy="549" fill="#ADD1B2" rx="11" ry="11" style="stroke:#181818;stroke-width:1.0;"/><path d="M237.2656,544.875 Q237.4219,544.6563 237.6094,544.5469 Q237.7969,544.4375 238.0156,544.4375 Q238.3906,544.4375 238.625,544.7031 Q238.8594,544.9531 238.8594,545.5625 L238.8594,547.0156 Q238.8594,547.625 238.625,547.8906 Q238.3906,548.1563 238.0156,548.1563 Q237.6719,548.1563 237.4688,547.9531 Q237.2656,547.7656 237.1563,547.25 Q237.1094,546.8906 236.9219,546.7031 Q236.5938,546.3281 235.9844,546.1094 Q235.375,545.8906 234.75,545.8906 Q233.9844,545.8906 233.3438,546.2188 Q232.7188,546.5469 232.2188,547.2969 Q231.7344,548.0469 231.7344,549.0781 L231.7344,550.1719 Q231.7344,551.4063 232.625,552.2344 Q233.5156,553.0469 235.1094,553.0469 Q236.0469,553.0469 236.7031,552.7969 Q237.0938,552.6406 237.5156,552.2031 Q237.7813,551.9375 237.9219,551.8594 Q238.0781,551.7813 238.2813,551.7813 Q238.6094,551.7813 238.8594,552.0469 Q239.125,552.2969 239.125,552.6406 Q239.125,552.9844 238.7813,553.3906 Q238.2813,553.9688 237.4844,554.2969 Q236.4063,554.75 235.1094,554.75 Q233.5938,554.75 232.3906,554.125 Q231.4063,553.625 230.7188,552.5625 Q230.0313,551.4844 230.0313,550.2031 L230.0313,549.0469 Q230.0313,547.7188 230.6406,546.5781 Q231.2656,545.4219 232.3594,544.8125 Q233.4531,544.1875 234.6875,544.1875 Q235.4219,544.1875 236.0625,544.3594 Q236.7188,544.5156 237.2656,544.875 Z " fill="#000000"/><text fill="#000000" font-family="sans-serif" font-size="14" lengthAdjust="spacing" textLength="73" x="256.5" y="554.7285">MoveAction</text><line style="stroke:#181818;stroke-width:0.5;" x1="220.5" x2="339.5" y1="565" y2="565"/><line style="stroke:#181818;stroke-width:0.5;" x1="220.5" x2="339.5" y1="573" y2="573"/></g><!--class SkipTurnAction--><g id="elem_SkipTurnAction"><rect codeLine="14" fill="#F1F1F1" height="48" id="SkipTurnAction" rx="2.5" ry="2.5" style="stroke:#181818;stroke-width:0.5;" width="136" x="376" y="533"/><ellipse cx="391" cy="549" fill="#ADD1B2" rx="11" ry="11" style="stroke:#181818;stroke-width:1.0;"/><path d="M393.7656,544.875 Q393.9219,544.6563 394.1094,544.5469 Q394.2969,544.4375 394.5156,544.4375 Q394.8906,544.4375 395.125,544.7031 Q395.3594,544.9531 395.3594,545.5625 L395.3594,547.0156 Q395.3594,547.625 395.125,547.8906 Q394.8906,548.1563 394.5156,548.1563 Q394.1719,548.1563 393.9688,547.9531 Q393.7656,547.7656 393.6563,547.25 Q393.6094,546.8906 393.4219,546.7031 Q393.0938,546.3281 392.4844,546.1094 Q391.875,545.8906 391.25,545.8906 Q390.4844,545.8906 389.8438,546.2188 Q389.2188,546.5469 388.7188,547.2969 Q388.2344,548.0469 388.2344,549.0781 L388.2344,550.1719 Q388.2344,551.4063 389.125,552.2344 Q390.0156,553.0469 391.6094,553.0469 Q392.5469,553.0469 393.2031,552.7969 Q393.5938,552.6406 394.0156,552.2031 Q394.2813,551.9375 394.4219,551.8594 Q394.5781,551.7813 394.7813,551.7813 Q395.1094,551.7813 395.3594,552.0469 Q395.625,552.2969 395.625,552.6406 Q395.625,552.9844 395.2813,553.3906 Q394.7813,553.9688 393.9844,554.2969 Q392.9063,554.75 391.6094,554.75 Q390.0938,554.75 388.8906,554.125 Q387.9063,553.625 387.2188,552.5625 Q386.5313,551.4844 386.5313,550.2031 L386.5313,549.0469 Q386.5313,547.7188 387.1406,546.5781 Q387.7656,545.4219 388.8594,544.8125 Q389.9531,544.1875 391.1875,544.1875 Q391.9219,544.1875 392.5625,544.3594 Q393.2188,544.5156 393.7656,544.875 Z " fill="#000000"/><text fill="#000000" font-family="sans-serif" font-size="14" lengthAdjust="spacing" textLength="96" x="409" y="554.7285">SkipTurnAction</text><line style="stroke:#181818;stroke-width:0.5;" x1="377" x2="511" y1="565" y2="565"/><line style="stroke:#181818;stroke-width:0.5;" x1="377" x2="511" y1="573" y2="573"/></g><!--class PlayerStrategy--><g id="elem_PlayerStrategy"><rect codeLine="19" fill="#F1F1F1" height="136.0469" id="PlayerStrategy" rx="2.5" ry="2.5" style="stroke:#181818;stroke-width:0.5;" width="125" x="600.5" y="489"/><ellipse cx="615.5" cy="505" fill="#EB937F" rx="11" ry="11" style="stroke:#181818;stroke-width:1.0;"/><path d="M614.3594,505.7969 L614.3594,508.2969 L618.6875,508.2969 L618.6875,507.375 Q618.6875,506.7656 618.9219,506.5 Q619.1719,506.2344 619.5469,506.2344 Q619.9219,506.2344 620.1563,506.5 Q620.3906,506.7656 620.3906,507.375 L620.3906,510 L612.3906,510 Q611.7656,510 611.5,509.7656 Q611.25,509.5313 611.25,509.1406 Q611.25,508.7656 611.5156,508.5313 Q611.7813,508.2969 612.3906,508.2969 L612.6563,508.2969 L612.6563,501.6406 L612.3906,501.6406 Q611.7656,501.6406 611.5,501.4063 Q611.25,501.1719 611.25,500.7813 Q611.25,500.4063 611.5,500.1719 Q611.7656,499.9375 612.3906,499.9375 L620.0156,499.9375 L620.0156,502.5313 Q620.0156,503.1406 619.7813,503.4063 Q619.5625,503.6563 619.1719,503.6563 Q618.7969,503.6563 618.5625,503.4063 Q618.3281,503.1406 618.3281,502.5313 L618.3281,501.6406 L614.3594,501.6406 L614.3594,504.0938 L615.8438,504.0938 Q615.8438,503.4375 615.9688,503.25 Q616.2344,502.8438 616.7031,502.8438 Q617.0781,502.8438 617.3125,503.1094 Q617.5469,503.3594 617.5469,503.9688 L617.5469,505.9375 Q617.5469,506.4844 617.4219,506.6719 Q617.1563,507.0625 616.7031,507.0625 Q616.2344,507.0625 615.9688,506.6563 Q615.8438,506.4688 615.8438,505.7969 L614.3594,505.7969 Z " fill="#000000"/><text fill="#000000" font-family="sans-serif" font-size="14" lengthAdjust="spacing" textLength="93" x="629.5" y="510.7285">PlayerStrategy</text><line style="stroke:#181818;stroke-width:0.5;" x1="601.5" x2="724.5" y1="521" y2="521"/><text fill="#000000" font-family="sans-serif" font-size="14" lengthAdjust="spacing" textLength="65" x="606.5" y="539.5332">Interactive</text><text fill="#000000" font-family="sans-serif" font-size="14" lengthAdjust="spacing" textLength="66" x="606.5" y="557.1426">LastAction</text><text fill="#000000" font-family="sans-serif" font-size="14" lengthAdjust="spacing" textLength="92" x="606.5" y="574.752">RandomAction</text><text fill="#000000" font-family="sans-serif" font-size="14" lengthAdjust="spacing" textLength="70" x="606.5" y="592.3613">Aggressive</text><text fill="#000000" font-family="sans-serif" font-size="14" lengthAdjust="spacing" textLength="43" x="606.5" y="609.9707">Helpful</text><line style="stroke:#181818;stroke-width:0.5;" x1="601.5" x2="724.5" y1="617.0469" y2="617.0469"/></g><!--class Player--><g id="elem_Player"><rect codeLine="27" fill="#ADD8E6" height="136.0469" id="Player" rx="2.5" ry="2.5" style="stroke:#00008B;stroke-width:2.0;" width="302" x="512" y="292"/><ellipse cx="638.75" cy="308" fill="#ADD1B2" rx="11" ry="11" style="stroke:#181818;stroke-width:1.0;"/><path d="M641.5156,303.875 Q641.6719,303.6563 641.8594,303.5469 Q642.0469,303.4375 642.2656,303.4375 Q642.6406,303.4375 642.875,303.7031 Q643.1094,303.9531 643.1094,304.5625 L643.1094,306.0156 Q643.1094,306.625 642.875,306.8906 Q642.6406,307.1563 642.2656,307.1563 Q641.9219,307.1563 641.7188,306.9531 Q641.5156,306.7656 641.4063,306.25 Q641.3594,305.8906 641.1719,305.7031 Q640.8438,305.3281 640.2344,305.1094 Q639.625,304.8906 639,304.8906 Q638.2344,304.8906 637.5938,305.2188 Q636.9688,305.5469 636.4688,306.2969 Q635.9844,307.0469 635.9844,308.0781 L635.9844,309.1719 Q635.9844,310.4063 636.875,311.2344 Q637.7656,312.0469 639.3594,312.0469 Q640.2969,312.0469 640.9531,311.7969 Q641.3438,311.6406 641.7656,311.2031 Q642.0313,310.9375 642.1719,310.8594 Q642.3281,310.7813 642.5313,310.7813 Q642.8594,310.7813 643.1094,311.0469 Q643.375,311.2969 643.375,311.6406 Q643.375,311.9844 643.0313,312.3906 Q642.5313,312.9688 641.7344,313.2969 Q640.6563,313.75 639.3594,313.75 Q637.8438,313.75 636.6406,313.125 Q635.6563,312.625 634.9688,311.5625 Q634.2813,310.4844 634.2813,309.2031 L634.2813,308.0469 Q634.2813,306.7188 634.8906,305.5781 Q635.5156,304.4219 636.6094,303.8125 Q637.7031,303.1875 638.9375,303.1875 Q639.6719,303.1875 640.3125,303.3594 Q640.9688,303.5156 641.5156,303.875 Z " fill="#000000"/><text fill="#000000" font-family="sans-serif" font-size="14" lengthAdjust="spacing" textLength="40" x="659.25" y="313.7285">Player</text><line style="stroke:#00008B;stroke-width:2.0;" x1="513" x2="813" y1="324" y2="324"/><text fill="#000000" font-family="sans-serif" font-size="14" lengthAdjust="spacing" textLength="75" x="518" y="342.5332">pawn: Pawn</text><text fill="#000000" font-family="sans-serif" font-size="14" lengthAdjust="spacing" textLength="60" x="518" y="360.1426">take_turn</text><text fill="#000000" font-family="sans-serif" font-size="14" lengthAdjust="spacing" textLength="117" x="518" y="377.752">actions: list[Action]</text><line style="stroke:#00008B;stroke-width:2.0;" x1="513" x2="813" y1="384.8281" y2="384.8281"/><text fill="#000000" font-family="sans-serif" font-size="14" font-weight="bold" lengthAdjust="spacing" textLength="290" x="518" y="403.3613">select_action(actions: list[Action]): Action</text><text fill="#000000" font-family="sans-serif" font-size="14" lengthAdjust="spacing" textLength="144" x="518" y="420.9707">perform(action: Action)</text></g><!--class Pawn--><g id="elem_Pawn"><rect codeLine="37" fill="#F1F1F1" height="83.2188" id="Pawn" rx="2.5" ry="2.5" style="stroke:#181818;stroke-width:0.5;" width="123" x="354.5" y="95"/><ellipse cx="395.15" cy="111" fill="#ADD1B2" rx="11" ry="11" style="stroke:#181818;stroke-width:1.0;"/><path d="M397.9156,106.875 Q398.0719,106.6563 398.2594,106.5469 Q398.4469,106.4375 398.6656,106.4375 Q399.0406,106.4375 399.275,106.7031 Q399.5094,106.9531 399.5094,107.5625 L399.5094,109.0156 Q399.5094,109.625 399.275,109.8906 Q399.0406,110.1563 398.6656,110.1563 Q398.3219,110.1563 398.1188,109.9531 Q397.9156,109.7656 397.8063,109.25 Q397.7594,108.8906 397.5719,108.7031 Q397.2438,108.3281 396.6344,108.1094 Q396.025,107.8906 395.4,107.8906 Q394.6344,107.8906 393.9938,108.2188 Q393.3688,108.5469 392.8688,109.2969 Q392.3844,110.0469 392.3844,111.0781 L392.3844,112.1719 Q392.3844,113.4063 393.275,114.2344 Q394.1656,115.0469 395.7594,115.0469 Q396.6969,115.0469 397.3531,114.7969 Q397.7438,114.6406 398.1656,114.2031 Q398.4313,113.9375 398.5719,113.8594 Q398.7281,113.7813 398.9313,113.7813 Q399.2594,113.7813 399.5094,114.0469 Q399.775,114.2969 399.775,114.6406 Q399.775,114.9844 399.4313,115.3906 Q398.9313,115.9688 398.1344,116.2969 Q397.0563,116.75 395.7594,116.75 Q394.2438,116.75 393.0406,116.125 Q392.0563,115.625 391.3688,114.5625 Q390.6813,113.4844 390.6813,112.2031 L390.6813,111.0469 Q390.6813,109.7188 391.2906,108.5781 Q391.9156,107.4219 393.0094,106.8125 Q394.1031,106.1875 395.3375,106.1875 Q396.0719,106.1875 396.7125,106.3594 Q397.3688,106.5156 397.9156,106.875 Z " fill="#000000"/><text fill="#000000" font-family="sans-serif" font-size="14" lengthAdjust="spacing" textLength="34" x="414.85" y="116.7285">Pawn</text><line style="stroke:#181818;stroke-width:0.5;" x1="355.5" x2="476.5" y1="127" y2="127"/><text fill="#000000" font-family="sans-serif" font-size="14" lengthAdjust="spacing" textLength="59" x="360.5" y="145.5332">name: str</text><text fill="#000000" font-family="sans-serif" font-size="14" lengthAdjust="spacing" textLength="111" x="360.5" y="163.1426">location: Location</text><line style="stroke:#181818;stroke-width:0.5;" x1="355.5" x2="476.5" y1="170.2188" y2="170.2188"/></g><!--class ActionKind--><g id="elem_ActionKind"><rect codeLine="45" fill="#F1F1F1" height="188.875" id="ActionKind" rx="2.5" ry="2.5" style="stroke:#181818;stroke-width:0.5;" width="99" x="512.5" y="42"/><ellipse cx="527.5" cy="58" fill="#EB937F" rx="11" ry="11" style="stroke:#181818;stroke-width:1.0;"/><path d="M526.3594,58.7969 L526.3594,61.2969 L530.6875,61.2969 L530.6875,60.375 Q530.6875,59.7656 530.9219,59.5 Q531.1719,59.2344 531.5469,59.2344 Q531.9219,59.2344 532.1563,59.5 Q532.3906,59.7656 532.3906,60.375 L532.3906,63 L524.3906,63 Q523.7656,63 523.5,62.7656 Q523.25,62.5313 523.25,62.1406 Q523.25,61.7656 523.5156,61.5313 Q523.7813,61.2969 524.3906,61.2969 L524.6563,61.2969 L524.6563,54.6406 L524.3906,54.6406 Q523.7656,54.6406 523.5,54.4063 Q523.25,54.1719 523.25,53.7813 Q523.25,53.4063 523.5,53.1719 Q523.7656,52.9375 524.3906,52.9375 L532.0156,52.9375 L532.0156,55.5313 Q532.0156,56.1406 531.7813,56.4063 Q531.5625,56.6563 531.1719,56.6563 Q530.7969,56.6563 530.5625,56.4063 Q530.3281,56.1406 530.3281,55.5313 L530.3281,54.6406 L526.3594,54.6406 L526.3594,57.0938 L527.8438,57.0938 Q527.8438,56.4375 527.9688,56.25 Q528.2344,55.8438 528.7031,55.8438 Q529.0781,55.8438 529.3125,56.1094 Q529.5469,56.3594 529.5469,56.9688 L529.5469,58.9375 Q529.5469,59.4844 529.4219,59.6719 Q529.1563,60.0625 528.7031,60.0625 Q528.2344,60.0625 527.9688,59.6563 Q527.8438,59.4688 527.8438,58.7969 L526.3594,58.7969 Z " fill="#000000"/><text fill="#000000" font-family="sans-serif" font-size="14" lengthAdjust="spacing" textLength="67" x="541.5" y="63.7285">ActionKind</text><line style="stroke:#181818;stroke-width:0.5;" x1="513.5" x2="610.5" y1="74" y2="74"/><text fill="#000000" font-family="sans-serif" font-size="14" lengthAdjust="spacing" textLength="70" x="518.5" y="92.5332">Aggressive</text><text fill="#000000" font-family="sans-serif" font-size="14" lengthAdjust="spacing" textLength="85" x="518.5" y="110.1426">HandleObject</text><text fill="#000000" font-family="sans-serif" font-size="14" lengthAdjust="spacing" textLength="43" x="518.5" y="127.752">Helpful</text><text fill="#000000" font-family="sans-serif" font-size="14" lengthAdjust="spacing" textLength="68" x="518.5" y="145.3613">Investigate</text><text fill="#000000" font-family="sans-serif" font-size="14" lengthAdjust="spacing" textLength="34" x="518.5" y="162.9707">Move</text><text fill="#000000" font-family="sans-serif" font-size="14" lengthAdjust="spacing" textLength="26" x="518.5" y="180.5801">Quit</text><text fill="#000000" font-family="sans-serif" font-size="14" lengthAdjust="spacing" textLength="29" x="518.5" y="198.1895">Rest</text><text fill="#000000" font-family="sans-serif" font-size="14" lengthAdjust="spacing" textLength="57" x="518.5" y="215.7988">SkipTurn</text><line style="stroke:#181818;stroke-width:0.5;" x1="513.5" x2="610.5" y1="222.875" y2="222.875"/></g><!--class Location--><g id="elem_Location"><rect codeLine="58" fill="#F1F1F1" height="48" id="Location" rx="2.5" ry="2.5" style="stroke:#181818;stroke-width:0.5;" width="102" x="22" y="336"/><ellipse cx="37" cy="352" fill="#ADD1B2" rx="11" ry="11" style="stroke:#181818;stroke-width:1.0;"/><path d="M39.7656,347.875 Q39.9219,347.6563 40.1094,347.5469 Q40.2969,347.4375 40.5156,347.4375 Q40.8906,347.4375 41.125,347.7031 Q41.3594,347.9531 41.3594,348.5625 L41.3594,350.0156 Q41.3594,350.625 41.125,350.8906 Q40.8906,351.1563 40.5156,351.1563 Q40.1719,351.1563 39.9688,350.9531 Q39.7656,350.7656 39.6563,350.25 Q39.6094,349.8906 39.4219,349.7031 Q39.0938,349.3281 38.4844,349.1094 Q37.875,348.8906 37.25,348.8906 Q36.4844,348.8906 35.8438,349.2188 Q35.2188,349.5469 34.7188,350.2969 Q34.2344,351.0469 34.2344,352.0781 L34.2344,353.1719 Q34.2344,354.4063 35.125,355.2344 Q36.0156,356.0469 37.6094,356.0469 Q38.5469,356.0469 39.2031,355.7969 Q39.5938,355.6406 40.0156,355.2031 Q40.2813,354.9375 40.4219,354.8594 Q40.5781,354.7813 40.7813,354.7813 Q41.1094,354.7813 41.3594,355.0469 Q41.625,355.2969 41.625,355.6406 Q41.625,355.9844 41.2813,356.3906 Q40.7813,356.9688 39.9844,357.2969 Q38.9063,357.75 37.6094,357.75 Q36.0938,357.75 34.8906,357.125 Q33.9063,356.625 33.2188,355.5625 Q32.5313,354.4844 32.5313,353.2031 L32.5313,352.0469 Q32.5313,350.7188 33.1406,349.5781 Q33.7656,348.4219 34.8594,347.8125 Q35.9531,347.1875 37.1875,347.1875 Q37.9219,347.1875 38.5625,347.3594 Q39.2188,347.5156 39.7656,347.875 Z " fill="#000000"/><text fill="#000000" font-family="sans-serif" font-size="14" lengthAdjust="spacing" textLength="54" x="59" y="357.7285">Location</text><line style="stroke:#181818;stroke-width:0.5;" x1="23" x2="123" y1="368" y2="368"/><line style="stroke:#181818;stroke-width:0.5;" x1="23" x2="123" y1="376" y2="376"/></g><!--class World--><g id="elem_World"><rect codeLine="62" fill="#F1F1F1" height="48" id="World" rx="2.5" ry="2.5" style="stroke:#181818;stroke-width:0.5;" width="89" x="28.5" y="112.5"/><ellipse cx="43.5" cy="128.5" fill="#ADD1B2" rx="11" ry="11" style="stroke:#181818;stroke-width:1.0;"/><path d="M46.2656,124.375 Q46.4219,124.1563 46.6094,124.0469 Q46.7969,123.9375 47.0156,123.9375 Q47.3906,123.9375 47.625,124.2031 Q47.8594,124.4531 47.8594,125.0625 L47.8594,126.5156 Q47.8594,127.125 47.625,127.3906 Q47.3906,127.6563 47.0156,127.6563 Q46.6719,127.6563 46.4688,127.4531 Q46.2656,127.2656 46.1563,126.75 Q46.1094,126.3906 45.9219,126.2031 Q45.5938,125.8281 44.9844,125.6094 Q44.375,125.3906 43.75,125.3906 Q42.9844,125.3906 42.3438,125.7188 Q41.7188,126.0469 41.2188,126.7969 Q40.7344,127.5469 40.7344,128.5781 L40.7344,129.6719 Q40.7344,130.9063 41.625,131.7344 Q42.5156,132.5469 44.1094,132.5469 Q45.0469,132.5469 45.7031,132.2969 Q46.0938,132.1406 46.5156,131.7031 Q46.7813,131.4375 46.9219,131.3594 Q47.0781,131.2813 47.2813,131.2813 Q47.6094,131.2813 47.8594,131.5469 Q48.125,131.7969 48.125,132.1406 Q48.125,132.4844 47.7813,132.8906 Q47.2813,133.4688 46.4844,133.7969 Q45.4063,134.25 44.1094,134.25 Q42.5938,134.25 41.3906,133.625 Q40.4063,133.125 39.7188,132.0625 Q39.0313,130.9844 39.0313,129.7031 L39.0313,128.5469 Q39.0313,127.2188 39.6406,126.0781 Q40.2656,124.9219 41.3594,124.3125 Q42.4531,123.6875 43.6875,123.6875 Q44.4219,123.6875 45.0625,123.8594 Q45.7188,124.0156 46.2656,124.375 Z " fill="#000000"/><text fill="#000000" font-family="sans-serif" font-size="14" lengthAdjust="spacing" textLength="37" x="69.5" y="134.2285">World</text><line style="stroke:#181818;stroke-width:0.5;" x1="29.5" x2="116.5" y1="144.5" y2="144.5"/><line style="stroke:#181818;stroke-width:0.5;" x1="29.5" x2="116.5" y1="152.5" y2="152.5"/></g><!--reverse link Action to MoveAction--><g id="link_Action_MoveAction"><path codeLine="12" d="M358.8262,417.5236 C336.1962,457.2836 311.53,500.62 293.17,532.87 " fill="none" id="Action-backto-MoveAction" style="stroke:#181818;stroke-width:1.0;"/><polygon fill="none" points="367.73,401.88,353.6117,414.5557,364.0407,420.4915,367.73,401.88" style="stroke:#181818;stroke-width:1.0;"/></g><!--reverse link Action to SkipTurnAction--><g id="link_Action_SkipTurnAction"><path codeLine="16" d="M406.8324,419.2495 C417.6424,459.0095 428.95,500.62 437.71,532.87 " fill="none" id="Action-backto-SkipTurnAction" style="stroke:#181818;stroke-width:1.0;"/><polygon fill="none" points="402.11,401.88,401.0426,420.8236,412.6223,417.6753,402.11,401.88" style="stroke:#181818;stroke-width:1.0;"/></g><!--link Player to PlayerStrategy--><g id="link_Player_PlayerStrategy"><path codeLine="35" d="M663,428.11 C663,447.72 663,463.15 663,482.77 " fill="none" id="Player-to-PlayerStrategy" style="stroke:#181818;stroke-width:1.0;"/><polygon fill="#181818" points="663,488.77,667,479.77,663,483.77,659,479.77,663,488.77" style="stroke:#181818;stroke-width:1.0;"/><text fill="#000000" font-family="sans-serif" font-size="13" lengthAdjust="spacing" textLength="7" x="651.1797" y="477.9441">1</text></g><!--link Pawn to Player--><g id="link_Pawn_Player"><path codeLine="42" d="M451.0341,182.9863 C464.8741,200.0163 478.06,214.89 495,231 C517.19,252.1 533.2479,265.7603 557.6479,284.4203 " fill="none" id="Pawn-Player" style="stroke:#181818;stroke-width:1.0;"/><polygon fill="#181818" points="447.25,178.33,449.8219,187.8371,450.4034,182.2102,456.0303,182.7917,447.25,178.33" style="stroke:#181818;stroke-width:1.0;"/><polygon fill="#181818" points="567.18,291.71,564.8439,284.8878,557.6479,284.4203,559.9841,291.2425,567.18,291.71" style="stroke:#181818;stroke-width:1.0;"/></g><!--reverse link Action to Player--><g id="link_Action_Player"><path codeLine="43" d="M482.53,360 C494.31,360 500.08,360 511.86,360 " fill="none" id="Action-backto-Player" style="stroke:#181818;stroke-width:1.0;stroke-dasharray:7.0,7.0;"/><polygon fill="#181818" points="476.53,360,485.53,364,481.53,360,485.53,356,476.53,360" style="stroke:#181818;stroke-width:1.0;"/></g><!--link Pawn to ActionKind--><g id="link_Pawn_ActionKind"><path codeLine="56" d="M477.59,136.5 C489.13,136.5 494.67,136.5 506.21,136.5 " fill="none" id="Pawn-to-ActionKind" style="stroke:#181818;stroke-width:1.0;"/><polygon fill="#181818" points="512.21,136.5,503.21,132.5,507.21,136.5,503.21,140.5,512.21,136.5" style="stroke:#181818;stroke-width:1.0;"/><text fill="#000000" font-family="sans-serif" font-size="13" lengthAdjust="spacing" textLength="5" x="495.646" y="132.9521">*</text></g><!--reverse link Location to Location--><g id="link_Location_Location"><path codeLine="60" d="M136.2039,341.2865 C155.2839,340.6765 159,347.18 159,360 C159,372.82 143.29,378.94 124.21,378.33 " fill="none" id="Location-backto-Location" style="stroke:#181818;stroke-width:1.0;"/><polygon fill="none" points="124.21,341.67,130.3348,345.4762,136.2039,341.2865,130.0791,337.4803,124.21,341.67" style="stroke:#181818;stroke-width:1.0;"/><text fill="#000000" font-family="sans-serif" font-size="13" lengthAdjust="spacing" textLength="116" x="165" y="365.4951">connectedLocations</text></g><!--link World to Location--><g id="link_World_Location"><path codeLine="65" d="M73,172.79 C73,215.33 73,287.14 73,329.69 " fill="none" id="World-Location" style="stroke:#181818;stroke-width:1.0;"/><polygon fill="#181818" points="73,160.79,69,166.79,73,172.79,77,166.79,73,160.79" style="stroke:#181818;stroke-width:1.0;"/><polygon fill="#181818" points="73,335.69,77,326.69,73,330.69,69,326.69,73,335.69" style="stroke:#181818;stroke-width:1.0;"/><text fill="#000000" font-family="sans-serif" font-size="13" lengthAdjust="spacing" textLength="5" x="62.3344" y="324.9507">*</text></g><!--link Pawn to Location--><g id="link_Pawn_Location"><path codeLine="66" d="M354.28,177.36 C282.73,223.56 172.2204,294.9251 114.0104,332.5151 " fill="none" id="Pawn-to-Location" style="stroke:#181818;stroke-width:1.0;"/><polygon fill="#181818" points="108.97,335.77,118.7005,334.2479,113.1703,333.0576,114.3606,327.5274,108.97,335.77" style="stroke:#181818;stroke-width:1.0;"/><text fill="#000000" font-family="sans-serif" font-size="13" lengthAdjust="spacing" textLength="7" x="110.2904" y="325.0512">1</text></g><!--SRC=[TLDTI-Gm57sVNn765sUW8u9FsQ7WuiCkAheg-20ofEsrniaa9Kahqft_lhUJJ9hMRY2GUt9oFywzgLY-PIMGEIiQaBRMG6bpaSr9EviHN5QLODz1eqtyoWKpXbpcbYiPmTrgMMQiPhdTam9ChddLaIX1y7-y2lIRqhjJBetb9RDAKtBFFkKYFDZFHg7dXDog1dm6Q38J0stqydYAhfEwIlwcFl_lhX-tl7ggjVJiW_CHDXLWH1a6YQe0MU_8lM1Ve1zH0GlbL-JljxJGoS8R2DWDCpRoqwq79Wkr6u6NPQd1cFZfBn3LMotY-AvCbm0v4Lp2AbEYe5TCRt-A6dvaE11KyFBTPcX6kLNO5DUQ05csXGtEJ8-mGqw64i6DVN4PleRRTPOQ493RZUETJj8NrEksFilIFhoV4_VaI5d4jVcgaa9zoYJ5rftZ7cez405BYUgJR0V3IHKgPoxOZJzDH5jshKvxNVm0h5Uwqt3bQL7p7U6Qoo8AFjKyRBA0k-m3zPhig1kO1jo_WS6i1-DFpVlN3yZzDh63cZf9aaFc1m6NkFjyO_7m3nv5yJymcEsi_ne1L4aI34fo9IMM1SKHCYFVv5bfKNZFxjp6YJfecOGi1nroPU0TcPz7L_j_]--></g></svg>