<?xml version="1.0" encoding="us-ascii" standalone="no"?><svg xmlns="http://www.w3.org/2000/svg" xmlns:xlink="http://www.w3.org/1999/xlink" contentStyleType="text/css" height="402px" preserveAspectRatio="none" style="width:508px;height:402px;background:#FFFFFF;" version="1.1" viewBox="0 0 508 402" width="508px" zoomAndPan="magnify"><defs/><g><!--class Game--><g id="elem_Game"><rect codeLine="1" fill="#F1F1F1" height="48" id="Game" rx="2.5" ry="2.5" style="stroke:#181818;stroke-width:0.5;" width="70" x="7" y="16"/><ellipse cx="22" cy="32" fill="#ADD1B2" rx="11" ry="11" style="stroke:#181818;stroke-width:1.0;"/><path d="M24.7656,27.875 Q24.9219,27.6563 25.1094,27.5469 Q25.2969,27.4375 25.5156,27.4375 Q25.8906,27.4375 26.125,27.7031 Q26.3594,27.9531 26.3594,28.5625 L26.3594,30.0156 Q26.3594,30.625 26.125,30.8906 Q25.8906,31.1563 25.5156,31.1563 Q25.1719,31.1563 24.9688,30.9531 Q24.7656,30.7656 24.6563,30.25 Q24.6094,29.8906 24.4219,29.7031 Q24.0938,29.3281 23.4844,29.1094 Q22.875,28.8906 22.25,28.8906 Q21.4844,28.8906 20.8438,29.2188 Q20.2188,29.5469 19.7188,30.2969 Q19.2344,31.0469 19.2344,32.0781 L19.2344,33.1719 Q19.2344,34.4063 20.125,35.2344 Q21.0156,36.0469 22.6094,36.0469 Q23.5469,36.0469 24.2031,35.7969 Q24.5938,35.6406 25.0156,35.2031 Q25.2813,34.9375 25.4219,34.8594 Q25.5781,34.7813 25.7813,34.7813 Q26.1094,34.7813 26.3594,35.0469 Q26.625,35.2969 26.625,35.6406 Q26.625,35.9844 26.2813,36.3906 Q25.7813,36.9688 24.9844,37.2969 Q23.9063,37.75 22.6094,37.75 Q21.0938,37.75 19.8906,37.125 Q18.9063,36.625 18.2188,35.5625 Q17.5313,34.4844 17.5313,33.2031 L17.5313,32.0469 Q17.5313,30.7188 18.1406,29.5781 Q18.7656,28.4219 19.8594,27.8125 Q20.9531,27.1875 22.1875,27.1875 Q22.9219,27.1875 23.5625,27.3594 Q24.2188,27.5156 24.7656,27.875 Z " fill="#000000"/><text fill="#000000" font-family="sans-serif" font-size="14" lengthAdjust="spacing" textLength="38" x="36" y="37.7285">Game</text><line style="stroke:#181818;stroke-width:0.5;" x1="8" x2="76" y1="48" y2="48"/><line style="stroke:#181818;stroke-width:0.5;" x1="8" x2="76" y1="56" y2="56"/></g><!--class Player--><g id="elem_Player"><rect codeLine="2" fill="#F1F1F1" height="65.6094" id="Player" rx="2.5" ry="2.5" style="stroke:#181818;stroke-width:0.5;" width="72" x="160" y="7"/><ellipse cx="175" cy="23" fill="#ADD1B2" rx="11" ry="11" style="stroke:#181818;stroke-width:1.0;"/><path d="M177.7656,18.875 Q177.9219,18.6563 178.1094,18.5469 Q178.2969,18.4375 178.5156,18.4375 Q178.8906,18.4375 179.125,18.7031 Q179.3594,18.9531 179.3594,19.5625 L179.3594,21.0156 Q179.3594,21.625 179.125,21.8906 Q178.8906,22.1563 178.5156,22.1563 Q178.1719,22.1563 177.9688,21.9531 Q177.7656,21.7656 177.6563,21.25 Q177.6094,20.8906 177.4219,20.7031 Q177.0938,20.3281 176.4844,20.1094 Q175.875,19.8906 175.25,19.8906 Q174.4844,19.8906 173.8438,20.2188 Q173.2188,20.5469 172.7188,21.2969 Q172.2344,22.0469 172.2344,23.0781 L172.2344,24.1719 Q172.2344,25.4063 173.125,26.2344 Q174.0156,27.0469 175.6094,27.0469 Q176.5469,27.0469 177.2031,26.7969 Q177.5938,26.6406 178.0156,26.2031 Q178.2813,25.9375 178.4219,25.8594 Q178.5781,25.7813 178.7813,25.7813 Q179.1094,25.7813 179.3594,26.0469 Q179.625,26.2969 179.625,26.6406 Q179.625,26.9844 179.2813,27.3906 Q178.7813,27.9688 177.9844,28.2969 Q176.9063,28.75 175.6094,28.75 Q174.0938,28.75 172.8906,28.125 Q171.9063,27.625 171.2188,26.5625 Q170.5313,25.4844 170.5313,24.2031 L170.5313,23.0469 Q170.5313,21.7188 171.1406,20.5781 Q171.7656,19.4219 172.8594,18.8125 Q173.9531,18.1875 175.1875,18.1875 Q175.9219,18.1875 176.5625,18.3594 Q177.2188,18.5156 177.7656,18.875 Z " fill="#000000"/><text fill="#000000" font-family="sans-serif" font-size="14" lengthAdjust="spacing" textLength="40" x="189" y="28.7285">Player</text><line style="stroke:#181818;stroke-width:0.5;" x1="161" x2="231" y1="39" y2="39"/><text fill="#000000" font-family="sans-serif" font-size="14" lengthAdjust="spacing" textLength="35" x="166" y="57.5332">name</text><line style="stroke:#181818;stroke-width:0.5;" x1="161" x2="231" y1="64.6094" y2="64.6094"/></g><!--class Pawn--><g id="elem_Pawn"><rect codeLine="5" fill="#F1F1F1" height="48" id="Pawn" rx="2.5" ry="2.5" style="stroke:#181818;stroke-width:0.5;" width="66" x="315" y="16"/><ellipse cx="330" cy="32" fill="#ADD1B2" rx="11" ry="11" style="stroke:#181818;stroke-width:1.0;"/><path d="M332.7656,27.875 Q332.9219,27.6563 333.1094,27.5469 Q333.2969,27.4375 333.5156,27.4375 Q333.8906,27.4375 334.125,27.7031 Q334.3594,27.9531 334.3594,28.5625 L334.3594,30.0156 Q334.3594,30.625 334.125,30.8906 Q333.8906,31.1563 333.5156,31.1563 Q333.1719,31.1563 332.9688,30.9531 Q332.7656,30.7656 332.6563,30.25 Q332.6094,29.8906 332.4219,29.7031 Q332.0938,29.3281 331.4844,29.1094 Q330.875,28.8906 330.25,28.8906 Q329.4844,28.8906 328.8438,29.2188 Q328.2188,29.5469 327.7188,30.2969 Q327.2344,31.0469 327.2344,32.0781 L327.2344,33.1719 Q327.2344,34.4063 328.125,35.2344 Q329.0156,36.0469 330.6094,36.0469 Q331.5469,36.0469 332.2031,35.7969 Q332.5938,35.6406 333.0156,35.2031 Q333.2813,34.9375 333.4219,34.8594 Q333.5781,34.7813 333.7813,34.7813 Q334.1094,34.7813 334.3594,35.0469 Q334.625,35.2969 334.625,35.6406 Q334.625,35.9844 334.2813,36.3906 Q333.7813,36.9688 332.9844,37.2969 Q331.9063,37.75 330.6094,37.75 Q329.0938,37.75 327.8906,37.125 Q326.9063,36.625 326.2188,35.5625 Q325.5313,34.4844 325.5313,33.2031 L325.5313,32.0469 Q325.5313,30.7188 326.1406,29.5781 Q326.7656,28.4219 327.8594,27.8125 Q328.9531,27.1875 330.1875,27.1875 Q330.9219,27.1875 331.5625,27.3594 Q332.2188,27.5156 332.7656,27.875 Z " fill="#000000"/><text fill="#000000" font-family="sans-serif" font-size="14" lengthAdjust="spacing" textLength="34" x="344" y="37.7285">Pawn</text><line style="stroke:#181818;stroke-width:0.5;" x1="316" x2="380" y1="48" y2="48"/><line style="stroke:#181818;stroke-width:0.5;" x1="316" x2="380" y1="56" y2="56"/></g><!--class World--><g id="elem_World"><rect codeLine="6" fill="#F1F1F1" height="65.6094" id="World" rx="2.5" ry="2.5" style="stroke:#181818;stroke-width:0.5;" width="144" x="39" y="159.5"/><ellipse cx="88.25" cy="175.5" fill="#ADD1B2" rx="11" ry="11" style="stroke:#181818;stroke-width:1.0;"/><path d="M91.0156,171.375 Q91.1719,171.1563 91.3594,171.0469 Q91.5469,170.9375 91.7656,170.9375 Q92.1406,170.9375 92.375,171.2031 Q92.6094,171.4531 92.6094,172.0625 L92.6094,173.5156 Q92.6094,174.125 92.375,174.3906 Q92.1406,174.6563 91.7656,174.6563 Q91.4219,174.6563 91.2188,174.4531 Q91.0156,174.2656 90.9063,173.75 Q90.8594,173.3906 90.6719,173.2031 Q90.3438,172.8281 89.7344,172.6094 Q89.125,172.3906 88.5,172.3906 Q87.7344,172.3906 87.0938,172.7188 Q86.4688,173.0469 85.9688,173.7969 Q85.4844,174.5469 85.4844,175.5781 L85.4844,176.6719 Q85.4844,177.9063 86.375,178.7344 Q87.2656,179.5469 88.8594,179.5469 Q89.7969,179.5469 90.4531,179.2969 Q90.8438,179.1406 91.2656,178.7031 Q91.5313,178.4375 91.6719,178.3594 Q91.8281,178.2813 92.0313,178.2813 Q92.3594,178.2813 92.6094,178.5469 Q92.875,178.7969 92.875,179.1406 Q92.875,179.4844 92.5313,179.8906 Q92.0313,180.4688 91.2344,180.7969 Q90.1563,181.25 88.8594,181.25 Q87.3438,181.25 86.1406,180.625 Q85.1563,180.125 84.4688,179.0625 Q83.7813,177.9844 83.7813,176.7031 L83.7813,175.5469 Q83.7813,174.2188 84.3906,173.0781 Q85.0156,171.9219 86.1094,171.3125 Q87.2031,170.6875 88.4375,170.6875 Q89.1719,170.6875 89.8125,170.8594 Q90.4688,171.0156 91.0156,171.375 Z " fill="#000000"/><text fill="#000000" font-family="sans-serif" font-size="14" lengthAdjust="spacing" textLength="37" x="108.75" y="181.2285">World</text><line style="stroke:#181818;stroke-width:0.5;" x1="40" x2="182" y1="191.5" y2="191.5"/><text fill="#000000" font-family="sans-serif" font-size="14" lengthAdjust="spacing" textLength="132" x="45" y="210.0332">initial_location_name</text><line style="stroke:#181818;stroke-width:0.5;" x1="40" x2="182" y1="217.1094" y2="217.1094"/></g><!--class Location--><g id="elem_Location"><rect codeLine="9" fill="#F1F1F1" height="83.2188" id="Location" rx="2.5" ry="2.5" style="stroke:#181818;stroke-width:0.5;" width="86" x="293" y="151"/><ellipse cx="308" cy="167" fill="#ADD1B2" rx="11" ry="11" style="stroke:#181818;stroke-width:1.0;"/><path d="M310.7656,162.875 Q310.9219,162.6563 311.1094,162.5469 Q311.2969,162.4375 311.5156,162.4375 Q311.8906,162.4375 312.125,162.7031 Q312.3594,162.9531 312.3594,163.5625 L312.3594,165.0156 Q312.3594,165.625 312.125,165.8906 Q311.8906,166.1563 311.5156,166.1563 Q311.1719,166.1563 310.9688,165.9531 Q310.7656,165.7656 310.6563,165.25 Q310.6094,164.8906 310.4219,164.7031 Q310.0938,164.3281 309.4844,164.1094 Q308.875,163.8906 308.25,163.8906 Q307.4844,163.8906 306.8438,164.2188 Q306.2188,164.5469 305.7188,165.2969 Q305.2344,166.0469 305.2344,167.0781 L305.2344,168.1719 Q305.2344,169.4063 306.125,170.2344 Q307.0156,171.0469 308.6094,171.0469 Q309.5469,171.0469 310.2031,170.7969 Q310.5938,170.6406 311.0156,170.2031 Q311.2813,169.9375 311.4219,169.8594 Q311.5781,169.7813 311.7813,169.7813 Q312.1094,169.7813 312.3594,170.0469 Q312.625,170.2969 312.625,170.6406 Q312.625,170.9844 312.2813,171.3906 Q311.7813,171.9688 310.9844,172.2969 Q309.9063,172.75 308.6094,172.75 Q307.0938,172.75 305.8906,172.125 Q304.9063,171.625 304.2188,170.5625 Q303.5313,169.4844 303.5313,168.2031 L303.5313,167.0469 Q303.5313,165.7188 304.1406,164.5781 Q304.7656,163.4219 305.8594,162.8125 Q306.9531,162.1875 308.1875,162.1875 Q308.9219,162.1875 309.5625,162.3594 Q310.2188,162.5156 310.7656,162.875 Z " fill="#000000"/><text fill="#000000" font-family="sans-serif" font-size="14" lengthAdjust="spacing" textLength="54" x="322" y="172.7285">Location</text><line style="stroke:#181818;stroke-width:0.5;" x1="294" x2="378" y1="183" y2="183"/><text fill="#000000" font-family="sans-serif" font-size="14" lengthAdjust="spacing" textLength="35" x="299" y="201.5332">name</text><text fill="#000000" font-family="sans-serif" font-size="14" lengthAdjust="spacing" textLength="69" x="299" y="219.1426">description</text><line style="stroke:#181818;stroke-width:0.5;" x1="294" x2="378" y1="226.2188" y2="226.2188"/></g><!--class Object--><g id="elem_Object"><rect codeLine="13" fill="#F1F1F1" height="83.2188" id="Object" rx="2.5" ry="2.5" style="stroke:#181818;stroke-width:0.5;" width="81" x="295.5" y="312"/><ellipse cx="314.1" cy="328" fill="#ADD1B2" rx="11" ry="11" style="stroke:#181818;stroke-width:1.0;"/><path d="M316.8656,323.875 Q317.0219,323.6563 317.2094,323.5469 Q317.3969,323.4375 317.6156,323.4375 Q317.9906,323.4375 318.225,323.7031 Q318.4594,323.9531 318.4594,324.5625 L318.4594,326.0156 Q318.4594,326.625 318.225,326.8906 Q317.9906,327.1563 317.6156,327.1563 Q317.2719,327.1563 317.0688,326.9531 Q316.8656,326.7656 316.7563,326.25 Q316.7094,325.8906 316.5219,325.7031 Q316.1938,325.3281 315.5844,325.1094 Q314.975,324.8906 314.35,324.8906 Q313.5844,324.8906 312.9438,325.2188 Q312.3188,325.5469 311.8188,326.2969 Q311.3344,327.0469 311.3344,328.0781 L311.3344,329.1719 Q311.3344,330.4063 312.225,331.2344 Q313.1156,332.0469 314.7094,332.0469 Q315.6469,332.0469 316.3031,331.7969 Q316.6938,331.6406 317.1156,331.2031 Q317.3813,330.9375 317.5219,330.8594 Q317.6781,330.7813 317.8813,330.7813 Q318.2094,330.7813 318.4594,331.0469 Q318.725,331.2969 318.725,331.6406 Q318.725,331.9844 318.3813,332.3906 Q317.8813,332.9688 317.0844,333.2969 Q316.0063,333.75 314.7094,333.75 Q313.1938,333.75 311.9906,333.125 Q311.0063,332.625 310.3188,331.5625 Q309.6313,330.4844 309.6313,329.2031 L309.6313,328.0469 Q309.6313,326.7188 310.2406,325.5781 Q310.8656,324.4219 311.9594,323.8125 Q313.0531,323.1875 314.2875,323.1875 Q315.0219,323.1875 315.6625,323.3594 Q316.3188,323.5156 316.8656,323.875 Z " fill="#000000"/><text fill="#000000" font-family="sans-serif" font-size="14" lengthAdjust="spacing" textLength="41" x="328.9" y="333.7285">Object</text><line style="stroke:#181818;stroke-width:0.5;" x1="296.5" x2="375.5" y1="344" y2="344"/><text fill="#000000" font-family="sans-serif" font-size="14" lengthAdjust="spacing" textLength="35" x="301.5" y="362.5332">name</text><text fill="#000000" font-family="sans-serif" font-size="14" lengthAdjust="spacing" textLength="69" x="301.5" y="380.1426">description</text><line style="stroke:#181818;stroke-width:0.5;" x1="296.5" x2="375.5" y1="387.2188" y2="387.2188"/></g><!--link Game to Player--><g id="link_Game_Player"><path codeLine="18" d="M77.33,40 C102.02,40 134.88,40 159.76,40 " fill="none" id="Game-Player" style="stroke:#181818;stroke-width:1.0;"/><polygon fill="#000000" points="94.5,28.1758,103.5451,31.1147,103.5451,25.2369,94.5,28.1758" style="stroke:#000000;stroke-width:1.0;"/><text fill="#000000" font-family="sans-serif" font-size="13" lengthAdjust="spacing" textLength="33" x="108.5" y="33.4951">Plays</text><text fill="#000000" font-family="sans-serif" font-size="13" lengthAdjust="spacing" textLength="7" x="85.0352" y="54.9003">1</text><text fill="#000000" font-family="sans-serif" font-size="13" lengthAdjust="spacing" textLength="20" x="132.067" y="54.7769">1..*</text></g><!--link Player to Pawn--><g id="link_Player_Pawn"><path codeLine="19" d="M232.02,40 C257.13,40 290.38,40 314.83,40 " fill="none" id="Player-Pawn" style="stroke:#181818;stroke-width:1.0;"/><polygon fill="#000000" points="259.5,28.1758,250.4549,25.2369,250.4549,31.1147,259.5,28.1758" style="stroke:#000000;stroke-width:1.0;"/><text fill="#000000" font-family="sans-serif" font-size="13" lengthAdjust="spacing" textLength="33" x="263.5" y="33.4951">Owns</text><text fill="#000000" font-family="sans-serif" font-size="13" lengthAdjust="spacing" textLength="7" x="240.1283" y="54.9862">1</text><text fill="#000000" font-family="sans-serif" font-size="13" lengthAdjust="spacing" textLength="7" x="299.9627" y="55.0025">1</text></g><!--link Game to World--><g id="link_Game_World"><path codeLine="20" d="M52.63,64.19 C64.31,89.66 83.15,130.76 96.26,159.34 " fill="none" id="Game-World" style="stroke:#181818;stroke-width:1.0;"/><polygon fill="#000000" points="86.084,116.7208,84.9854,107.2739,79.6425,109.7238,86.084,116.7208" style="stroke:#000000;stroke-width:1.0;"/><text fill="#000000" font-family="sans-serif" font-size="13" lengthAdjust="spacing" textLength="70" x="93" y="117.4951">Is played on</text><text fill="#000000" font-family="sans-serif" font-size="13" lengthAdjust="spacing" textLength="7" x="47.3679" y="85.5743">1</text><text fill="#000000" font-family="sans-serif" font-size="13" lengthAdjust="spacing" textLength="7" x="67.848" y="148.4224">1</text></g><!--link World to Location--><g id="link_World_Location"><path codeLine="21" d="M183.12,192.5 C219.24,192.5 261.76,192.5 292.78,192.5 " fill="none" id="World-Location" style="stroke:#181818;stroke-width:1.0;"/><polygon fill="#000000" points="216,180.6758,206.9549,177.7369,206.9549,183.6147,216,180.6758" style="stroke:#000000;stroke-width:1.0;"/><text fill="#000000" font-family="sans-serif" font-size="13" lengthAdjust="spacing" textLength="49" x="220" y="185.9951">contains</text><text fill="#000000" font-family="sans-serif" font-size="13" lengthAdjust="spacing" textLength="7" x="190.9237" y="206.7407">1</text><text fill="#000000" font-family="sans-serif" font-size="13" lengthAdjust="spacing" textLength="5" x="280.0239" y="207.079">*</text></g><!--link Pawn to Location--><g id="link_Pawn_Location"><path codeLine="22" d="M346.15,64.19 C344.31,87.27 341.45,123.18 339.23,150.99 " fill="none" id="Pawn-Location" style="stroke:#181818;stroke-width:1.0;"/><polygon fill="#000000" points="346.6026,117.16,350.2511,108.3771,344.3918,107.9099,346.6026,117.16" style="stroke:#000000;stroke-width:1.0;"/><text fill="#000000" font-family="sans-serif" font-size="13" lengthAdjust="spacing" textLength="24" x="356" y="117.4951">is in</text></g><!--link Location to Location--><g id="link_Location_Location"><path codeLine="23" d="M379.31,177.68 C398,176.47 414,181.41 414,192.5 C414,203.59 398,208.53 379.31,207.32 " fill="none" id="Location-Location" style="stroke:#181818;stroke-width:1.0;"/><text fill="#000000" font-family="sans-serif" font-size="13" lengthAdjust="spacing" textLength="75" x="420" y="197.9951">connected to</text></g><!--link Location to Object--><g id="link_Location_Object"><path codeLine="24" d="M336,234.03 C336,257.86 336,287.9 336,311.76 " fill="none" id="Location-Object" style="stroke:#181818;stroke-width:1.0;"/><polygon fill="#000000" points="341,278.1758,343.9389,269.1307,338.0611,269.1307,341,278.1758" style="stroke:#000000;stroke-width:1.0;"/><text fill="#000000" font-family="sans-serif" font-size="13" lengthAdjust="spacing" textLength="49" x="350" y="278.4951">contains</text><text fill="#000000" font-family="sans-serif" font-size="13" lengthAdjust="spacing" textLength="7" x="324.0891" y="255.7395">1</text><ellipse cx="328.4688" cy="301.6375" fill="#000000" rx="2.5" ry="2.5" style="stroke:#000000;stroke-width:0.0;"/></g><!--SRC=[VP3B2i8m44Nt-OeXoq8BtHPnAuAWEvSbfbr4ObAQG17ntxrvzBKnK3hCFNFd8RLmZaxYrJCPmviMxtwa3oCy4_BVMH6JoU7TZhhBZ3BAAw5RRQNmoffsLtJ9sOrV2BhUoL4DGLdGw-FPIqz_IHOc9Lv3u5JYexgg2ZvFtSJ0qO7bn9QaciST2DXrCewEink0Cg7WqcuDdHqDmQGZQu2cT89MIpnqdvT4bRJ62nNDOoyORrJbS2v8IselezZW16ZfxSgWPngmm3yVQTle1m00]--></g></svg>