<?xml version="1.0" encoding="us-ascii" standalone="no"?><svg xmlns="http://www.w3.org/2000/svg" xmlns:xlink="http://www.w3.org/1999/xlink" contentStyleType="text/css" height="275px" preserveAspectRatio="none" style="width:415px;height:275px;background:#FFFFFF;" version="1.1" viewBox="0 0 415 275" width="415px" zoomAndPan="magnify"><defs/><g><!--class MovieKindV0--><g id="elem_MovieKindV0"><rect codeLine="2" fill="#F1F1F1" height="83.2188" id="MovieKindV0" rx="2.5" ry="2.5" style="stroke:#181818;stroke-width:0.5;" width="114" x="25" y="185"/><ellipse cx="40" cy="201" fill="#EB937F" rx="11" ry="11" style="stroke:#181818;stroke-width:1.0;"/><path d="M38.8594,201.7969 L38.8594,204.2969 L43.1875,204.2969 L43.1875,203.375 Q43.1875,202.7656 43.4219,202.5 Q43.6719,202.2344 44.0469,202.2344 Q44.4219,202.2344 44.6563,202.5 Q44.8906,202.7656 44.8906,203.375 L44.8906,206 L36.8906,206 Q36.2656,206 36,205.7656 Q35.75,205.5313 35.75,205.1406 Q35.75,204.7656 36.0156,204.5313 Q36.2813,204.2969 36.8906,204.2969 L37.1563,204.2969 L37.1563,197.6406 L36.8906,197.6406 Q36.2656,197.6406 36,197.4063 Q35.75,197.1719 35.75,196.7813 Q35.75,196.4063 36,196.1719 Q36.2656,195.9375 36.8906,195.9375 L44.5156,195.9375 L44.5156,198.5313 Q44.5156,199.1406 44.2813,199.4063 Q44.0625,199.6563 43.6719,199.6563 Q43.2969,199.6563 43.0625,199.4063 Q42.8281,199.1406 42.8281,198.5313 L42.8281,197.6406 L38.8594,197.6406 L38.8594,200.0938 L40.3438,200.0938 Q40.3438,199.4375 40.4688,199.25 Q40.7344,198.8438 41.2031,198.8438 Q41.5781,198.8438 41.8125,199.1094 Q42.0469,199.3594 42.0469,199.9688 L42.0469,201.9375 Q42.0469,202.4844 41.9219,202.6719 Q41.6563,203.0625 41.2031,203.0625 Q40.7344,203.0625 40.4688,202.6563 Q40.3438,202.4688 40.3438,201.7969 L38.8594,201.7969 Z " fill="#000000"/><text fill="#000000" font-family="sans-serif" font-size="14" lengthAdjust="spacing" textLength="82" x="54" y="206.7285">MovieKindV0</text><line style="stroke:#181818;stroke-width:0.5;" x1="26" x2="138" y1="217" y2="217"/><text fill="#000000" font-family="sans-serif" font-size="14" lengthAdjust="spacing" textLength="66" x="31" y="235.5332">REGULAR</text><text fill="#000000" font-family="sans-serif" font-size="14" lengthAdjust="spacing" textLength="68" x="31" y="253.1426">CHILDREN</text><line style="stroke:#181818;stroke-width:0.5;" x1="26" x2="138" y1="260.2188" y2="260.2188"/></g><!--class MovieV0--><g id="elem_MovieV0"><rect codeLine="7" fill="#F1F1F1" height="118.4375" id="MovieV0" rx="2.5" ry="2.5" style="stroke:#181818;stroke-width:0.5;" width="150" x="7" y="7"/><ellipse cx="50.8" cy="23" fill="#ADD1B2" rx="11" ry="11" style="stroke:#181818;stroke-width:1.0;"/><path d="M53.5656,18.875 Q53.7219,18.6563 53.9094,18.5469 Q54.0969,18.4375 54.3156,18.4375 Q54.6906,18.4375 54.925,18.7031 Q55.1594,18.9531 55.1594,19.5625 L55.1594,21.0156 Q55.1594,21.625 54.925,21.8906 Q54.6906,22.1563 54.3156,22.1563 Q53.9719,22.1563 53.7688,21.9531 Q53.5656,21.7656 53.4563,21.25 Q53.4094,20.8906 53.2219,20.7031 Q52.8938,20.3281 52.2844,20.1094 Q51.675,19.8906 51.05,19.8906 Q50.2844,19.8906 49.6438,20.2188 Q49.0188,20.5469 48.5188,21.2969 Q48.0344,22.0469 48.0344,23.0781 L48.0344,24.1719 Q48.0344,25.4063 48.925,26.2344 Q49.8156,27.0469 51.4094,27.0469 Q52.3469,27.0469 53.0031,26.7969 Q53.3938,26.6406 53.8156,26.2031 Q54.0813,25.9375 54.2219,25.8594 Q54.3781,25.7813 54.5813,25.7813 Q54.9094,25.7813 55.1594,26.0469 Q55.425,26.2969 55.425,26.6406 Q55.425,26.9844 55.0813,27.3906 Q54.5813,27.9688 53.7844,28.2969 Q52.7063,28.75 51.4094,28.75 Q49.8938,28.75 48.6906,28.125 Q47.7063,27.625 47.0188,26.5625 Q46.3313,25.4844 46.3313,24.2031 L46.3313,23.0469 Q46.3313,21.7188 46.9406,20.5781 Q47.5656,19.4219 48.6594,18.8125 Q49.7531,18.1875 50.9875,18.1875 Q51.7219,18.1875 52.3625,18.3594 Q53.0188,18.5156 53.5656,18.875 Z " fill="#000000"/><text fill="#000000" font-family="sans-serif" font-size="14" lengthAdjust="spacing" textLength="54" x="71.2" y="28.7285">MovieV0</text><line style="stroke:#181818;stroke-width:0.5;" x1="8" x2="156" y1="39" y2="39"/><text fill="#000000" font-family="sans-serif" font-size="14" lengthAdjust="spacing" textLength="46" x="13" y="57.5332">title: str</text><text fill="#000000" font-family="sans-serif" font-size="14" lengthAdjust="spacing" textLength="116" x="13" y="75.1426">kind: MovieKindV0</text><line style="stroke:#181818;stroke-width:0.5;" x1="8" x2="156" y1="82.2188" y2="82.2188"/><text fill="#000000" font-family="sans-serif" font-size="14" lengthAdjust="spacing" textLength="138" x="13" y="100.752">compute_price(): float</text><text fill="#000000" font-family="sans-serif" font-size="14" lengthAdjust="spacing" textLength="110" x="13" y="118.3613">print_info(): None</text></g><path d="M192,15 L192,56.8789 L151,95.0234 L192,64.8789 L192,106.7578 A0,0 0 0 0 192,106.7578 L408,106.7578 A0,0 0 0 0 408,106.7578 L408,25 L398,15 L192,15 A0,0 0 0 0 192,15 " fill="#FEFFDD" style="stroke:#181818;stroke-width:0.5;"/><path d="M398,15 L398,25 L408,25 L398,15 " fill="#FEFFDD" style="stroke:#181818;stroke-width:0.5;"/><text fill="#000000" font-family="sans-serif" font-size="13" lengthAdjust="spacing" textLength="92" x="198" y="33.4951">match self.kind:</text><text fill="#000000" font-family="sans-serif" font-size="13" lengthAdjust="spacing" textLength="177" x="214" y="49.8467">case MovieKindV0.REGULAR:</text><text fill="#000000" font-family="sans-serif" font-size="13" lengthAdjust="spacing" textLength="62" x="230" y="66.1982">return 4.99</text><text fill="#000000" font-family="sans-serif" font-size="13" lengthAdjust="spacing" textLength="179" x="214" y="82.5498">case MovieKindV0.CHILDREN:</text><text fill="#000000" font-family="sans-serif" font-size="13" lengthAdjust="spacing" textLength="62" x="230" y="98.9014">return 5.99</text><!--link MovieV0 to MovieKindV0--><g id="link_MovieV0_MovieKindV0"><path codeLine="22" d="M82,125.12 C82,144.91 82,160.6 82,178.73 " fill="none" id="MovieV0-to-MovieKindV0" style="stroke:#181818;stroke-width:1.0;"/><polygon fill="#181818" points="82,184.73,86,175.73,82,179.73,78,175.73,82,184.73" style="stroke:#181818;stroke-width:1.0;"/></g><!--SRC=[TL2z3e8m4Dxx53Vg077GWGucHeaQaO54LqBma4PeINku6DzTMaKnqPlkldu_rqFPrh1NLu4x8K_72TmOT9M4wqEqI5o_t6oZLHB6xCvONcN6FFblBWcga8CXxSPBvyE7bWxDLTsqX6cZHOwZCOUYKXcvfmwIb0fPA8l7Ig9DaeeGj3YN1Ahe4pd_yd7oEgEy18DLuRje1xh8pE1m3__rgG_3baPgjOIf7mJ_bVq9VafdLeho17PbnlhZUDvywF40]--></g></svg>