<?xml version="1.0" encoding="us-ascii" standalone="no"?><svg xmlns="http://www.w3.org/2000/svg" xmlns:xlink="http://www.w3.org/1999/xlink" contentStyleType="text/css" height="209px" preserveAspectRatio="none" style="width:268px;height:209px;background:#FFFFFF;" version="1.1" viewBox="0 0 268 209" width="268px" zoomAndPan="magnify"><defs/><g><!--class Weather--><g id="elem_Weather"><rect codeLine="2" fill="#F1F1F1" height="188.875" id="Weather" rx="2.5" ry="2.5" style="stroke:#181818;stroke-width:0.5;" width="247" x="7" y="7"/><ellipse cx="99.25" cy="23" fill="#ADD1B2" rx="11" ry="11" style="stroke:#181818;stroke-width:1.0;"/><path d="M102.0156,18.875 Q102.1719,18.6563 102.3594,18.5469 Q102.5469,18.4375 102.7656,18.4375 Q103.1406,18.4375 103.375,18.7031 Q103.6094,18.9531 103.6094,19.5625 L103.6094,21.0156 Q103.6094,21.625 103.375,21.8906 Q103.1406,22.1563 102.7656,22.1563 Q102.4219,22.1563 102.2188,21.9531 Q102.0156,21.7656 101.9063,21.25 Q101.8594,20.8906 101.6719,20.7031 Q101.3438,20.3281 100.7344,20.1094 Q100.125,19.8906 99.5,19.8906 Q98.7344,19.8906 98.0938,20.2188 Q97.4688,20.5469 96.9688,21.2969 Q96.4844,22.0469 96.4844,23.0781 L96.4844,24.1719 Q96.4844,25.4063 97.375,26.2344 Q98.2656,27.0469 99.8594,27.0469 Q100.7969,27.0469 101.4531,26.7969 Q101.8438,26.6406 102.2656,26.2031 Q102.5313,25.9375 102.6719,25.8594 Q102.8281,25.7813 103.0313,25.7813 Q103.3594,25.7813 103.6094,26.0469 Q103.875,26.2969 103.875,26.6406 Q103.875,26.9844 103.5313,27.3906 Q103.0313,27.9688 102.2344,28.2969 Q101.1563,28.75 99.8594,28.75 Q98.3438,28.75 97.1406,28.125 Q96.1563,27.625 95.4688,26.5625 Q94.7813,25.4844 94.7813,24.2031 L94.7813,23.0469 Q94.7813,21.7188 95.3906,20.5781 Q96.0156,19.4219 97.1094,18.8125 Q98.2031,18.1875 99.4375,18.1875 Q100.1719,18.1875 100.8125,18.3594 Q101.4688,18.5156 102.0156,18.875 Z " fill="#000000"/><text fill="#000000" font-family="sans-serif" font-size="14" lengthAdjust="spacing" textLength="54" x="119.75" y="28.7285">Weather</text><line style="stroke:#181818;stroke-width:0.5;" x1="8" x2="253" y1="39" y2="39"/><rect fill="none" height="6" style="stroke:#C82930;stroke-width:1.0;" width="6" x="15" y="50.3047"/><text fill="#000000" font-family="sans-serif" font-size="14" lengthAdjust="spacing" textLength="113" x="27" y="57.5332">_raw_data : string</text><rect fill="none" height="6" style="stroke:#C82930;stroke-width:1.0;" width="6" x="15" y="67.9141"/><text fill="#000000" font-family="sans-serif" font-size="14" lengthAdjust="spacing" textLength="116" x="27" y="75.1426">_data : list[double]</text><line style="stroke:#181818;stroke-width:0.5;" x1="8" x2="253" y1="82.2188" y2="82.2188"/><ellipse cx="18" cy="96.5234" fill="#84BE84" rx="3" ry="3" style="stroke:#038048;stroke-width:1.0;"/><text fill="#000000" font-family="sans-serif" font-size="14" lengthAdjust="spacing" textLength="209" x="27" y="100.752">fetch_data_from_source() : None</text><ellipse cx="18" cy="114.1328" fill="#84BE84" rx="3" ry="3" style="stroke:#038048;stroke-width:1.0;"/><text fill="#000000" font-family="sans-serif" font-size="14" lengthAdjust="spacing" textLength="127" x="27" y="118.3613">parse_data() : None</text><ellipse cx="18" cy="131.7422" fill="#84BE84" rx="3" ry="3" style="stroke:#038048;stroke-width:1.0;"/><text fill="#000000" font-family="sans-serif" font-size="14" lengthAdjust="spacing" textLength="182" x="27" y="135.9707">display_in_format_a() : None</text><ellipse cx="18" cy="149.3516" fill="#84BE84" rx="3" ry="3" style="stroke:#038048;stroke-width:1.0;"/><text fill="#000000" font-family="sans-serif" font-size="14" lengthAdjust="spacing" textLength="182" x="27" y="153.5801">display_in_format_b() : None</text><ellipse cx="18" cy="166.9609" fill="#84BE84" rx="3" ry="3" style="stroke:#038048;stroke-width:1.0;"/><text fill="#000000" font-family="sans-serif" font-size="14" lengthAdjust="spacing" textLength="221" x="27" y="171.1895">log_error(error_msg: string) : None</text><rect fill="#F24D5C" height="6" style="stroke:#C82930;stroke-width:1.0;" width="6" x="15" y="181.5703"/><text fill="#000000" font-family="sans-serif" font-size="14" lengthAdjust="spacing" textLength="141" x="27" y="188.7988">_format_data() : string</text></g><!--SRC=[XSx12i8m30RWUv-Ynudu0di8hnv4GjQbMw5jHj8XGtntPPk2lPX33l__4U8YgjeBOHb9xCFOznmz5JT2ZmN12oTGdiLHSx2jFNEc3KqeIYkgYZxe5761aC6p92pmNtILY3m0YR0qwuQaGskrICZ33pnz3dp_sD1U2jxNfixtB0OjrvxdBjBDFCqB]--></g></svg>