<?xml version="1.0" encoding="us-ascii" standalone="no"?><svg xmlns="http://www.w3.org/2000/svg" xmlns:xlink="http://www.w3.org/1999/xlink" contentStyleType="text/css" height="544px" preserveAspectRatio="none" style="width:426px;height:544px;background:#FFFFFF;" version="1.1" viewBox="0 0 426 544" width="426px" zoomAndPan="magnify"><defs/><g><rect fill="#FFFFFF" height="30.3516" style="stroke:#181818;stroke-width:1.0;" width="10" x="238.5" y="86.9609"/><rect fill="#FFFFFF" height="73.7031" style="stroke:#181818;stroke-width:1.0;" width="10" x="238.5" y="191.0156"/><rect fill="#FFFFFF" height="73.7031" style="stroke:#181818;stroke-width:1.0;" width="10" x="238.5" y="295.0703"/><rect fill="#FFFFFF" height="73.7031" style="stroke:#181818;stroke-width:1.0;" width="10" x="238.5" y="399.125"/><line style="stroke:#181818;stroke-width:0.5;stroke-dasharray:5.0,5.0;" x1="69" x2="69" y1="54.6094" y2="490.8281"/><line style="stroke:#181818;stroke-width:0.5;stroke-dasharray:5.0,5.0;" x1="243.5" x2="243.5" y1="54.6094" y2="490.8281"/><rect fill="#E2E2F0" height="31.6094" rx="2.5" ry="2.5" style="stroke:#181818;stroke-width:0.5;" width="129" x="5" y="22"/><text fill="#000000" font-family="sans-serif" font-size="14" lengthAdjust="spacing" textLength="115" x="12" y="43.5332">RunWeatherApp()</text><rect fill="#E2E2F0" height="31.6094" rx="2.5" ry="2.5" style="stroke:#181818;stroke-width:0.5;" width="129" x="5" y="489.8281"/><text fill="#000000" font-family="sans-serif" font-size="14" lengthAdjust="spacing" textLength="115" x="12" y="511.3613">RunWeatherApp()</text><text fill="#000000" font-family="sans-serif" font-size="14" lengthAdjust="spacing" textLength="54" x="213.5" y="51.5332">Weather</text><ellipse cx="243.5" cy="21" fill="#E2E2F0" rx="12" ry="12" style="stroke:#181818;stroke-width:0.5;"/><line style="stroke:#181818;stroke-width:0.5;" x1="231.5" x2="255.5" y1="35" y2="35"/><text fill="#000000" font-family="sans-serif" font-size="14" lengthAdjust="spacing" textLength="54" x="213.5" y="504.3613">Weather</text><ellipse cx="243.5" cy="523.4375" fill="#E2E2F0" rx="12" ry="12" style="stroke:#181818;stroke-width:0.5;"/><line style="stroke:#181818;stroke-width:0.5;" x1="231.5" x2="255.5" y1="537.4375" y2="537.4375"/><rect fill="#FFFFFF" height="30.3516" style="stroke:#181818;stroke-width:1.0;" width="10" x="238.5" y="86.9609"/><rect fill="#FFFFFF" height="73.7031" style="stroke:#181818;stroke-width:1.0;" width="10" x="238.5" y="191.0156"/><rect fill="#FFFFFF" height="73.7031" style="stroke:#181818;stroke-width:1.0;" width="10" x="238.5" y="295.0703"/><rect fill="#FFFFFF" height="73.7031" style="stroke:#181818;stroke-width:1.0;" width="10" x="238.5" y="399.125"/><polygon fill="#181818" points="226.5,82.9609,236.5,86.9609,226.5,90.9609,230.5,86.9609" style="stroke:#181818;stroke-width:1.0;"/><line style="stroke:#181818;stroke-width:1.0;" x1="69.5" x2="232.5" y1="86.9609" y2="86.9609"/><text fill="#000000" font-family="sans-serif" font-size="13" lengthAdjust="spacing" textLength="146" x="76.5" y="82.1045">fetch_data_from_source()</text><polygon fill="#181818" points="80.5,113.3125,70.5,117.3125,80.5,121.3125,76.5,117.3125" style="stroke:#181818;stroke-width:1.0;"/><line style="stroke:#181818;stroke-width:1.0;stroke-dasharray:2.0,2.0;" x1="74.5" x2="242.5" y1="117.3125" y2="117.3125"/><text fill="#000000" font-family="sans-serif" font-size="13" lengthAdjust="spacing" textLength="145" x="86.5" y="112.4561">Data fetched from source</text><line style="stroke:#181818;stroke-width:1.0;" x1="69.5" x2="111.5" y1="147.6641" y2="147.6641"/><line style="stroke:#181818;stroke-width:1.0;" x1="111.5" x2="111.5" y1="147.6641" y2="160.6641"/><line style="stroke:#181818;stroke-width:1.0;" x1="70.5" x2="111.5" y1="160.6641" y2="160.6641"/><polygon fill="#181818" points="80.5,156.6641,70.5,160.6641,80.5,164.6641,76.5,160.6641" style="stroke:#181818;stroke-width:1.0;"/><text fill="#000000" font-family="sans-serif" font-size="13" lengthAdjust="spacing" textLength="151" x="76.5" y="142.8076">Check introduce_error flag</text><polygon fill="#181818" points="226.5,187.0156,236.5,191.0156,226.5,195.0156,230.5,191.0156" style="stroke:#181818;stroke-width:1.0;"/><line style="stroke:#181818;stroke-width:1.0;" x1="69.5" x2="232.5" y1="191.0156" y2="191.0156"/><text fill="#000000" font-family="sans-serif" font-size="13" lengthAdjust="spacing" textLength="72" x="76.5" y="186.1592">parse_data()</text><line style="stroke:#181818;stroke-width:1.0;" x1="248.5" x2="290.5" y1="221.3672" y2="221.3672"/><line style="stroke:#181818;stroke-width:1.0;" x1="290.5" x2="290.5" y1="221.3672" y2="234.3672"/><line style="stroke:#181818;stroke-width:1.0;" x1="249.5" x2="290.5" y1="234.3672" y2="234.3672"/><polygon fill="#181818" points="259.5,230.3672,249.5,234.3672,259.5,238.3672,255.5,234.3672" style="stroke:#181818;stroke-width:1.0;"/><text fill="#000000" font-family="sans-serif" font-size="13" lengthAdjust="spacing" textLength="164" x="255.5" y="216.5107">Check if _raw_data is empty</text><polygon fill="#181818" points="80.5,260.7188,70.5,264.7188,80.5,268.7188,76.5,264.7188" style="stroke:#181818;stroke-width:1.0;"/><line style="stroke:#181818;stroke-width:1.0;stroke-dasharray:2.0,2.0;" x1="74.5" x2="242.5" y1="264.7188" y2="264.7188"/><text fill="#000000" font-family="sans-serif" font-size="13" lengthAdjust="spacing" textLength="70" x="86.5" y="259.8623">Data parsed</text><polygon fill="#181818" points="226.5,291.0703,236.5,295.0703,226.5,299.0703,230.5,295.0703" style="stroke:#181818;stroke-width:1.0;"/><line style="stroke:#181818;stroke-width:1.0;" x1="69.5" x2="232.5" y1="295.0703" y2="295.0703"/><text fill="#000000" font-family="sans-serif" font-size="13" lengthAdjust="spacing" textLength="123" x="76.5" y="290.2139">display_in_format_a()</text><line style="stroke:#181818;stroke-width:1.0;" x1="248.5" x2="290.5" y1="325.4219" y2="325.4219"/><line style="stroke:#181818;stroke-width:1.0;" x1="290.5" x2="290.5" y1="325.4219" y2="338.4219"/><line style="stroke:#181818;stroke-width:1.0;" x1="249.5" x2="290.5" y1="338.4219" y2="338.4219"/><polygon fill="#181818" points="259.5,334.4219,249.5,338.4219,259.5,342.4219,255.5,338.4219" style="stroke:#181818;stroke-width:1.0;"/><text fill="#000000" font-family="sans-serif" font-size="13" lengthAdjust="spacing" textLength="137" x="255.5" y="320.5654">Check if data_ is empty</text><polygon fill="#181818" points="80.5,364.7734,70.5,368.7734,80.5,372.7734,76.5,368.7734" style="stroke:#181818;stroke-width:1.0;"/><line style="stroke:#181818;stroke-width:1.0;stroke-dasharray:2.0,2.0;" x1="74.5" x2="242.5" y1="368.7734" y2="368.7734"/><text fill="#000000" font-family="sans-serif" font-size="13" lengthAdjust="spacing" textLength="101" x="86.5" y="363.917">Display Format A</text><polygon fill="#181818" points="226.5,395.125,236.5,399.125,226.5,403.125,230.5,399.125" style="stroke:#181818;stroke-width:1.0;"/><line style="stroke:#181818;stroke-width:1.0;" x1="69.5" x2="232.5" y1="399.125" y2="399.125"/><text fill="#000000" font-family="sans-serif" font-size="13" lengthAdjust="spacing" textLength="123" x="76.5" y="394.2686">display_in_format_b()</text><line style="stroke:#181818;stroke-width:1.0;" x1="248.5" x2="290.5" y1="429.4766" y2="429.4766"/><line style="stroke:#181818;stroke-width:1.0;" x1="290.5" x2="290.5" y1="429.4766" y2="442.4766"/><line style="stroke:#181818;stroke-width:1.0;" x1="249.5" x2="290.5" y1="442.4766" y2="442.4766"/><polygon fill="#181818" points="259.5,438.4766,249.5,442.4766,259.5,446.4766,255.5,442.4766" style="stroke:#181818;stroke-width:1.0;"/><text fill="#000000" font-family="sans-serif" font-size="13" lengthAdjust="spacing" textLength="137" x="255.5" y="424.6201">Check if data_ is empty</text><polygon fill="#181818" points="80.5,468.8281,70.5,472.8281,80.5,476.8281,76.5,472.8281" style="stroke:#181818;stroke-width:1.0;"/><line style="stroke:#181818;stroke-width:1.0;stroke-dasharray:2.0,2.0;" x1="74.5" x2="242.5" y1="472.8281" y2="472.8281"/><text fill="#000000" font-family="sans-serif" font-size="13" lengthAdjust="spacing" textLength="101" x="86.5" y="467.9717">Display Format B</text><!--SRC=[hP0zJiGm44Pxd-9JgjrYBx05qWBY06bIMeCz9XORnnfFGBaznbaXVbQ2WjRp_DveCeb65pCbHTSlQM3IaUMKysxVWGfwmqcZhkWke_Ow6DFZS8FXYC3gHkj9oGQP9rlcHHplzeQSnXTIhl20GuNx8-uhjlrWZtSS6suyVy8tTyNlHdRFY4bbzejZooAp89pfwIEVIGgt_8zacryK0LRejN681JnbNR-jrKp-sYPLusF9PrfjJ3RCCf7Qtthj8jTQcmaFJOFJduEF_nEy_Hfy0m00]--></g></svg>