<?xml version="1.0" encoding="us-ascii" standalone="no"?><svg xmlns="http://www.w3.org/2000/svg" xmlns:xlink="http://www.w3.org/1999/xlink" contentStyleType="text/css" height="524px" preserveAspectRatio="none" style="width:299px;height:524px;background:#FFFFFF;" version="1.1" viewBox="0 0 299 524" width="299px" zoomAndPan="magnify"><defs/><g><!--cluster adventure::v2c--><g id="cluster_adventure::v2c"><path d="M8.5,6 L115.5,6 A3.75,3.75 0 0 1 118,8.5 L125,29.6094 L289.5,29.6094 A2.5,2.5 0 0 1 292,32.1094 L292,514.5 A2.5,2.5 0 0 1 289.5,517 L8.5,517 A2.5,2.5 0 0 1 6,514.5 L6,8.5 A2.5,2.5 0 0 1 8.5,6 " fill="none" style="stroke:#000000;stroke-width:1.5;"/><line style="stroke:#000000;stroke-width:1.5;" x1="6" x2="125" y1="29.6094" y2="29.6094"/><text fill="#000000" font-family="sans-serif" font-size="14" font-weight="bold" lengthAdjust="spacing" textLength="106" x="10" y="22.5332">adventure::v2c</text></g><!--class Location--><g id="elem_Location"><rect codeLine="4" fill="#F1F1F1" height="136.0469" id="Location" rx="2.5" ry="2.5" style="stroke:#181818;stroke-width:0.5;" width="240" x="29" y="365"/><ellipse cx="117.75" cy="381" fill="#ADD1B2" rx="11" ry="11" style="stroke:#181818;stroke-width:1.0;"/><path d="M120.5156,376.875 Q120.6719,376.6563 120.8594,376.5469 Q121.0469,376.4375 121.2656,376.4375 Q121.6406,376.4375 121.875,376.7031 Q122.1094,376.9531 122.1094,377.5625 L122.1094,379.0156 Q122.1094,379.625 121.875,379.8906 Q121.6406,380.1563 121.2656,380.1563 Q120.9219,380.1563 120.7188,379.9531 Q120.5156,379.7656 120.4063,379.25 Q120.3594,378.8906 120.1719,378.7031 Q119.8438,378.3281 119.2344,378.1094 Q118.625,377.8906 118,377.8906 Q117.2344,377.8906 116.5938,378.2188 Q115.9688,378.5469 115.4688,379.2969 Q114.9844,380.0469 114.9844,381.0781 L114.9844,382.1719 Q114.9844,383.4063 115.875,384.2344 Q116.7656,385.0469 118.3594,385.0469 Q119.2969,385.0469 119.9531,384.7969 Q120.3438,384.6406 120.7656,384.2031 Q121.0313,383.9375 121.1719,383.8594 Q121.3281,383.7813 121.5313,383.7813 Q121.8594,383.7813 122.1094,384.0469 Q122.375,384.2969 122.375,384.6406 Q122.375,384.9844 122.0313,385.3906 Q121.5313,385.9688 120.7344,386.2969 Q119.6563,386.75 118.3594,386.75 Q116.8438,386.75 115.6406,386.125 Q114.6563,385.625 113.9688,384.5625 Q113.2813,383.4844 113.2813,382.2031 L113.2813,381.0469 Q113.2813,379.7188 113.8906,378.5781 Q114.5156,377.4219 115.6094,376.8125 Q116.7031,376.1875 117.9375,376.1875 Q118.6719,376.1875 119.3125,376.3594 Q119.9688,376.5156 120.5156,376.875 Z " fill="#000000"/><text fill="#000000" font-family="sans-serif" font-size="14" lengthAdjust="spacing" textLength="54" x="138.25" y="386.7285">Location</text><line style="stroke:#181818;stroke-width:0.5;" x1="30" x2="268" y1="397" y2="397"/><text fill="#000000" font-family="sans-serif" font-size="14" lengthAdjust="spacing" textLength="59" x="35" y="415.5332">name: str</text><text fill="#000000" font-family="sans-serif" font-size="14" lengthAdjust="spacing" textLength="93" x="35" y="433.1426">description: str</text><text fill="#000000" font-family="sans-serif" font-size="14" lengthAdjust="spacing" textLength="192" x="35" y="450.752">connections: dict[str, Location]</text><line style="stroke:#181818;stroke-width:0.5;" x1="30" x2="268" y1="457.8281" y2="457.8281"/><text fill="#000000" font-family="sans-serif" font-size="14" lengthAdjust="spacing" textLength="188" x="35" y="476.3613">from_description(ld): Location</text><text fill="#000000" font-family="sans-serif" font-size="14" lengthAdjust="spacing" textLength="228" x="35" y="493.9707">__getitem__(direction: str): Location</text></g><!--class World--><g id="elem_World"><rect codeLine="12" fill="#F1F1F1" height="118.4375" id="World" rx="2.5" ry="2.5" style="stroke:#181818;stroke-width:0.5;" width="254" x="22" y="186"/><ellipse cx="126.25" cy="202" fill="#ADD1B2" rx="11" ry="11" style="stroke:#181818;stroke-width:1.0;"/><path d="M129.0156,197.875 Q129.1719,197.6563 129.3594,197.5469 Q129.5469,197.4375 129.7656,197.4375 Q130.1406,197.4375 130.375,197.7031 Q130.6094,197.9531 130.6094,198.5625 L130.6094,200.0156 Q130.6094,200.625 130.375,200.8906 Q130.1406,201.1563 129.7656,201.1563 Q129.4219,201.1563 129.2188,200.9531 Q129.0156,200.7656 128.9063,200.25 Q128.8594,199.8906 128.6719,199.7031 Q128.3438,199.3281 127.7344,199.1094 Q127.125,198.8906 126.5,198.8906 Q125.7344,198.8906 125.0938,199.2188 Q124.4688,199.5469 123.9688,200.2969 Q123.4844,201.0469 123.4844,202.0781 L123.4844,203.1719 Q123.4844,204.4063 124.375,205.2344 Q125.2656,206.0469 126.8594,206.0469 Q127.7969,206.0469 128.4531,205.7969 Q128.8438,205.6406 129.2656,205.2031 Q129.5313,204.9375 129.6719,204.8594 Q129.8281,204.7813 130.0313,204.7813 Q130.3594,204.7813 130.6094,205.0469 Q130.875,205.2969 130.875,205.6406 Q130.875,205.9844 130.5313,206.3906 Q130.0313,206.9688 129.2344,207.2969 Q128.1563,207.75 126.8594,207.75 Q125.3438,207.75 124.1406,207.125 Q123.1563,206.625 122.4688,205.5625 Q121.7813,204.4844 121.7813,203.2031 L121.7813,202.0469 Q121.7813,200.7188 122.3906,199.5781 Q123.0156,198.4219 124.1094,197.8125 Q125.2031,197.1875 126.4375,197.1875 Q127.1719,197.1875 127.8125,197.3594 Q128.4688,197.5156 129.0156,197.875 Z " fill="#000000"/><text fill="#000000" font-family="sans-serif" font-size="14" lengthAdjust="spacing" textLength="37" x="146.75" y="207.7285">World</text><line style="stroke:#181818;stroke-width:0.5;" x1="23" x2="275" y1="218" y2="218"/><text fill="#000000" font-family="sans-serif" font-size="14" lengthAdjust="spacing" textLength="172" x="28" y="236.5332">locations: dict[str, Location]</text><text fill="#000000" font-family="sans-serif" font-size="14" lengthAdjust="spacing" textLength="156" x="28" y="254.1426">initial_location_name: str</text><line style="stroke:#181818;stroke-width:0.5;" x1="23" x2="275" y1="261.2188" y2="261.2188"/><text fill="#000000" font-family="sans-serif" font-size="14" lengthAdjust="spacing" textLength="242" x="28" y="279.752">from_location_descriptions(lds): World</text><text fill="#000000" font-family="sans-serif" font-size="14" lengthAdjust="spacing" textLength="209" x="28" y="297.3613">__getitem__(name: str): Location</text></g><!--class WorldFactory--><g id="elem_WorldFactory"><rect codeLine="19" fill="#87CEFA" height="65.6094" id="WorldFactory" rx="2.5" ry="2.5" style="stroke:#00008B;stroke-width:2.0;" width="119" x="89.5" y="42"/><ellipse cx="105.4" cy="58" fill="#ADD1B2" rx="11" ry="11" style="stroke:#181818;stroke-width:1.0;"/><path d="M108.1656,53.875 Q108.3219,53.6563 108.5094,53.5469 Q108.6969,53.4375 108.9156,53.4375 Q109.2906,53.4375 109.525,53.7031 Q109.7594,53.9531 109.7594,54.5625 L109.7594,56.0156 Q109.7594,56.625 109.525,56.8906 Q109.2906,57.1563 108.9156,57.1563 Q108.5719,57.1563 108.3688,56.9531 Q108.1656,56.7656 108.0563,56.25 Q108.0094,55.8906 107.8219,55.7031 Q107.4938,55.3281 106.8844,55.1094 Q106.275,54.8906 105.65,54.8906 Q104.8844,54.8906 104.2438,55.2188 Q103.6188,55.5469 103.1188,56.2969 Q102.6344,57.0469 102.6344,58.0781 L102.6344,59.1719 Q102.6344,60.4063 103.525,61.2344 Q104.4156,62.0469 106.0094,62.0469 Q106.9469,62.0469 107.6031,61.7969 Q107.9938,61.6406 108.4156,61.2031 Q108.6813,60.9375 108.8219,60.8594 Q108.9781,60.7813 109.1813,60.7813 Q109.5094,60.7813 109.7594,61.0469 Q110.025,61.2969 110.025,61.6406 Q110.025,61.9844 109.6813,62.3906 Q109.1813,62.9688 108.3844,63.2969 Q107.3063,63.75 106.0094,63.75 Q104.4938,63.75 103.2906,63.125 Q102.3063,62.625 101.6188,61.5625 Q100.9313,60.4844 100.9313,59.2031 L100.9313,58.0469 Q100.9313,56.7188 101.5406,55.5781 Q102.1656,54.4219 103.2594,53.8125 Q104.3531,53.1875 105.5875,53.1875 Q106.3219,53.1875 106.9625,53.3594 Q107.6188,53.5156 108.1656,53.875 Z " fill="#000000"/><text fill="#000000" font-family="sans-serif" font-size="14" lengthAdjust="spacing" textLength="85" x="119.6" y="63.7285">WorldFactory</text><line style="stroke:#00008B;stroke-width:2.0;" x1="90.5" x2="207.5" y1="74" y2="74"/><line style="stroke:#00008B;stroke-width:2.0;" x1="90.5" x2="207.5" y1="82" y2="82"/><text fill="#000000" font-family="sans-serif" font-size="14" lengthAdjust="spacing" textLength="107" x="95.5" y="100.5332">create(...): World</text></g><!--link World to Location--><g id="link_World_Location"><path codeLine="23" d="M149,316.09 C149,335.38 149,339.02 149,358.93 " fill="none" id="World-Location" style="stroke:#181818;stroke-width:1.0;"/><polygon fill="#181818" points="149,304.09,145,310.09,149,316.09,153,310.09,149,304.09" style="stroke:#181818;stroke-width:1.0;"/><polygon fill="#181818" points="149,364.93,153,355.93,149,359.93,145,355.93,149,364.93" style="stroke:#181818;stroke-width:1.0;"/></g><!--link WorldFactory to World--><g id="link_WorldFactory_World"><path codeLine="24" d="M149,108.39 C149,130.32 149,153.92 149,179.86 " fill="none" id="WorldFactory-to-World" style="stroke:#181818;stroke-width:1.0;stroke-dasharray:7.0,7.0;"/><polygon fill="#181818" points="149,185.86,153,176.86,149,180.86,145,176.86,149,185.86" style="stroke:#181818;stroke-width:1.0;"/><text fill="#000000" font-family="sans-serif" font-size="13" lengthAdjust="spacing" textLength="45" x="154" y="152.4951">Creates</text></g><!--SRC=[XL2xJWCn4EplArP9So3YWj98AG2bIaT1WP3bh9TWdS-Ex4sa2ENVyJsmxW0fMywCvs6lMqe7ZGJQdCZpCPAKftk4hwg2VEXqIh0DgDa6dr4Op-U74XB7WXXA6EsXqyq93DuJTdYIO2poMsRlYkbx4Nx4qAg9JUtCZIow8bDgJsoPMgLgO-DWtKV-Lb-c8rv3T6Qom8tAAwMijsorKpzozNTvtxlmam4fBqYvL1_zR_zYThtwHYE7U8Qbivx4BZWZdtLi7jsH7dOQ6xcr-qz-QSuTCjc9aJHJBOIODHa3Xb-vNQtMy_nPf13h0P2mWAVUBosgwl8D]--></g></svg>