<?xml version="1.0" encoding="us-ascii" standalone="no"?><svg xmlns="http://www.w3.org/2000/svg" xmlns:xlink="http://www.w3.org/1999/xlink" contentStyleType="text/css" height="383px" preserveAspectRatio="none" style="width:739px;height:383px;background:#FFFFFF;" version="1.1" viewBox="0 0 739 383" width="739px" zoomAndPan="magnify"><defs/><g><!--class PricingStrategy--><g id="elem_PricingStrategy"><rect codeLine="2" fill="#F1F1F1" height="65.6094" id="PricingStrategy" rx="2.5" ry="2.5" style="stroke:#181818;stroke-width:0.5;" width="150" x="325.5" y="185"/><ellipse cx="350.4" cy="201" fill="#ADD1B2" rx="11" ry="11" style="stroke:#181818;stroke-width:1.0;"/><path d="M353.1656,196.875 Q353.3219,196.6563 353.5094,196.5469 Q353.6969,196.4375 353.9156,196.4375 Q354.2906,196.4375 354.525,196.7031 Q354.7594,196.9531 354.7594,197.5625 L354.7594,199.0156 Q354.7594,199.625 354.525,199.8906 Q354.2906,200.1563 353.9156,200.1563 Q353.5719,200.1563 353.3688,199.9531 Q353.1656,199.7656 353.0563,199.25 Q353.0094,198.8906 352.8219,198.7031 Q352.4938,198.3281 351.8844,198.1094 Q351.275,197.8906 350.65,197.8906 Q349.8844,197.8906 349.2438,198.2188 Q348.6188,198.5469 348.1188,199.2969 Q347.6344,200.0469 347.6344,201.0781 L347.6344,202.1719 Q347.6344,203.4063 348.525,204.2344 Q349.4156,205.0469 351.0094,205.0469 Q351.9469,205.0469 352.6031,204.7969 Q352.9938,204.6406 353.4156,204.2031 Q353.6813,203.9375 353.8219,203.8594 Q353.9781,203.7813 354.1813,203.7813 Q354.5094,203.7813 354.7594,204.0469 Q355.025,204.2969 355.025,204.6406 Q355.025,204.9844 354.6813,205.3906 Q354.1813,205.9688 353.3844,206.2969 Q352.3063,206.75 351.0094,206.75 Q349.4938,206.75 348.2906,206.125 Q347.3063,205.625 346.6188,204.5625 Q345.9313,203.4844 345.9313,202.2031 L345.9313,201.0469 Q345.9313,199.7188 346.5406,198.5781 Q347.1656,197.4219 348.2594,196.8125 Q349.3531,196.1875 350.5875,196.1875 Q351.3219,196.1875 351.9625,196.3594 Q352.6188,196.5156 353.1656,196.875 Z " fill="#000000"/><text fill="#000000" font-family="sans-serif" font-size="14" lengthAdjust="spacing" textLength="96" x="366.6" y="206.7285">PricingStrategy</text><line style="stroke:#181818;stroke-width:0.5;" x1="326.5" x2="474.5" y1="217" y2="217"/><line style="stroke:#181818;stroke-width:0.5;" x1="326.5" x2="474.5" y1="225" y2="225"/><text fill="#000000" font-family="sans-serif" font-size="14" font-style="italic" lengthAdjust="spacing" textLength="138" x="331.5" y="243.5332">compute_price(): float</text></g><!--class RegularPricingStrategy--><g id="elem_RegularPricingStrategy"><rect codeLine="6" fill="#F1F1F1" height="65.6094" id="RegularPricingStrategy" rx="2.5" ry="2.5" style="stroke:#181818;stroke-width:0.5;" width="178" x="96.5" y="311"/><ellipse cx="111.5" cy="327" fill="#ADD1B2" rx="11" ry="11" style="stroke:#181818;stroke-width:1.0;"/><path d="M114.2656,322.875 Q114.4219,322.6563 114.6094,322.5469 Q114.7969,322.4375 115.0156,322.4375 Q115.3906,322.4375 115.625,322.7031 Q115.8594,322.9531 115.8594,323.5625 L115.8594,325.0156 Q115.8594,325.625 115.625,325.8906 Q115.3906,326.1563 115.0156,326.1563 Q114.6719,326.1563 114.4688,325.9531 Q114.2656,325.7656 114.1563,325.25 Q114.1094,324.8906 113.9219,324.7031 Q113.5938,324.3281 112.9844,324.1094 Q112.375,323.8906 111.75,323.8906 Q110.9844,323.8906 110.3438,324.2188 Q109.7188,324.5469 109.2188,325.2969 Q108.7344,326.0469 108.7344,327.0781 L108.7344,328.1719 Q108.7344,329.4063 109.625,330.2344 Q110.5156,331.0469 112.1094,331.0469 Q113.0469,331.0469 113.7031,330.7969 Q114.0938,330.6406 114.5156,330.2031 Q114.7813,329.9375 114.9219,329.8594 Q115.0781,329.7813 115.2813,329.7813 Q115.6094,329.7813 115.8594,330.0469 Q116.125,330.2969 116.125,330.6406 Q116.125,330.9844 115.7813,331.3906 Q115.2813,331.9688 114.4844,332.2969 Q113.4063,332.75 112.1094,332.75 Q110.5938,332.75 109.3906,332.125 Q108.4063,331.625 107.7188,330.5625 Q107.0313,329.4844 107.0313,328.2031 L107.0313,327.0469 Q107.0313,325.7188 107.6406,324.5781 Q108.2656,323.4219 109.3594,322.8125 Q110.4531,322.1875 111.6875,322.1875 Q112.4219,322.1875 113.0625,322.3594 Q113.7188,322.5156 114.2656,322.875 Z " fill="#000000"/><text fill="#000000" font-family="sans-serif" font-size="14" lengthAdjust="spacing" textLength="146" x="125.5" y="332.7285">RegularPricingStrategy</text><line style="stroke:#181818;stroke-width:0.5;" x1="97.5" x2="273.5" y1="343" y2="343"/><line style="stroke:#181818;stroke-width:0.5;" x1="97.5" x2="273.5" y1="351" y2="351"/><text fill="#000000" font-family="sans-serif" font-size="14" lengthAdjust="spacing" textLength="138" x="102.5" y="369.5332">compute_price(): float</text></g><!--class ChildrenPricingStrategy--><g id="elem_ChildrenPricingStrategy"><rect codeLine="10" fill="#F1F1F1" height="65.6094" id="ChildrenPricingStrategy" rx="2.5" ry="2.5" style="stroke:#181818;stroke-width:0.5;" width="181" x="310" y="311"/><ellipse cx="325" cy="327" fill="#ADD1B2" rx="11" ry="11" style="stroke:#181818;stroke-width:1.0;"/><path d="M327.7656,322.875 Q327.9219,322.6563 328.1094,322.5469 Q328.2969,322.4375 328.5156,322.4375 Q328.8906,322.4375 329.125,322.7031 Q329.3594,322.9531 329.3594,323.5625 L329.3594,325.0156 Q329.3594,325.625 329.125,325.8906 Q328.8906,326.1563 328.5156,326.1563 Q328.1719,326.1563 327.9688,325.9531 Q327.7656,325.7656 327.6563,325.25 Q327.6094,324.8906 327.4219,324.7031 Q327.0938,324.3281 326.4844,324.1094 Q325.875,323.8906 325.25,323.8906 Q324.4844,323.8906 323.8438,324.2188 Q323.2188,324.5469 322.7188,325.2969 Q322.2344,326.0469 322.2344,327.0781 L322.2344,328.1719 Q322.2344,329.4063 323.125,330.2344 Q324.0156,331.0469 325.6094,331.0469 Q326.5469,331.0469 327.2031,330.7969 Q327.5938,330.6406 328.0156,330.2031 Q328.2813,329.9375 328.4219,329.8594 Q328.5781,329.7813 328.7813,329.7813 Q329.1094,329.7813 329.3594,330.0469 Q329.625,330.2969 329.625,330.6406 Q329.625,330.9844 329.2813,331.3906 Q328.7813,331.9688 327.9844,332.2969 Q326.9063,332.75 325.6094,332.75 Q324.0938,332.75 322.8906,332.125 Q321.9063,331.625 321.2188,330.5625 Q320.5313,329.4844 320.5313,328.2031 L320.5313,327.0469 Q320.5313,325.7188 321.1406,324.5781 Q321.7656,323.4219 322.8594,322.8125 Q323.9531,322.1875 325.1875,322.1875 Q325.9219,322.1875 326.5625,322.3594 Q327.2188,322.5156 327.7656,322.875 Z " fill="#000000"/><text fill="#000000" font-family="sans-serif" font-size="14" lengthAdjust="spacing" textLength="149" x="339" y="332.7285">ChildrenPricingStrategy</text><line style="stroke:#181818;stroke-width:0.5;" x1="311" x2="490" y1="343" y2="343"/><line style="stroke:#181818;stroke-width:0.5;" x1="311" x2="490" y1="351" y2="351"/><text fill="#000000" font-family="sans-serif" font-size="14" lengthAdjust="spacing" textLength="138" x="316" y="369.5332">compute_price(): float</text></g><!--class NewReleasePricingStrategy--><g id="elem_NewReleasePricingStrategy"><rect codeLine="14" fill="#F1F1F1" height="65.6094" id="NewReleasePricingStrategy" rx="2.5" ry="2.5" style="stroke:#181818;stroke-width:0.5;" width="206" x="526.5" y="311"/><ellipse cx="541.5" cy="327" fill="#ADD1B2" rx="11" ry="11" style="stroke:#181818;stroke-width:1.0;"/><path d="M544.2656,322.875 Q544.4219,322.6563 544.6094,322.5469 Q544.7969,322.4375 545.0156,322.4375 Q545.3906,322.4375 545.625,322.7031 Q545.8594,322.9531 545.8594,323.5625 L545.8594,325.0156 Q545.8594,325.625 545.625,325.8906 Q545.3906,326.1563 545.0156,326.1563 Q544.6719,326.1563 544.4688,325.9531 Q544.2656,325.7656 544.1563,325.25 Q544.1094,324.8906 543.9219,324.7031 Q543.5938,324.3281 542.9844,324.1094 Q542.375,323.8906 541.75,323.8906 Q540.9844,323.8906 540.3438,324.2188 Q539.7188,324.5469 539.2188,325.2969 Q538.7344,326.0469 538.7344,327.0781 L538.7344,328.1719 Q538.7344,329.4063 539.625,330.2344 Q540.5156,331.0469 542.1094,331.0469 Q543.0469,331.0469 543.7031,330.7969 Q544.0938,330.6406 544.5156,330.2031 Q544.7813,329.9375 544.9219,329.8594 Q545.0781,329.7813 545.2813,329.7813 Q545.6094,329.7813 545.8594,330.0469 Q546.125,330.2969 546.125,330.6406 Q546.125,330.9844 545.7813,331.3906 Q545.2813,331.9688 544.4844,332.2969 Q543.4063,332.75 542.1094,332.75 Q540.5938,332.75 539.3906,332.125 Q538.4063,331.625 537.7188,330.5625 Q537.0313,329.4844 537.0313,328.2031 L537.0313,327.0469 Q537.0313,325.7188 537.6406,324.5781 Q538.2656,323.4219 539.3594,322.8125 Q540.4531,322.1875 541.6875,322.1875 Q542.4219,322.1875 543.0625,322.3594 Q543.7188,322.5156 544.2656,322.875 Z " fill="#000000"/><text fill="#000000" font-family="sans-serif" font-size="14" lengthAdjust="spacing" textLength="174" x="555.5" y="332.7285">NewReleasePricingStrategy</text><line style="stroke:#181818;stroke-width:0.5;" x1="527.5" x2="731.5" y1="343" y2="343"/><line style="stroke:#181818;stroke-width:0.5;" x1="527.5" x2="731.5" y1="351" y2="351"/><text fill="#000000" font-family="sans-serif" font-size="14" lengthAdjust="spacing" textLength="138" x="532.5" y="369.5332">compute_price(): float</text></g><!--class MovieV3--><g id="elem_MovieV3"><rect codeLine="22" fill="#F1F1F1" height="118.4375" id="MovieV3" rx="2.5" ry="2.5" style="stroke:#181818;stroke-width:0.5;" width="217" x="292" y="7"/><ellipse cx="369.25" cy="23" fill="#ADD1B2" rx="11" ry="11" style="stroke:#181818;stroke-width:1.0;"/><path d="M372.0156,18.875 Q372.1719,18.6563 372.3594,18.5469 Q372.5469,18.4375 372.7656,18.4375 Q373.1406,18.4375 373.375,18.7031 Q373.6094,18.9531 373.6094,19.5625 L373.6094,21.0156 Q373.6094,21.625 373.375,21.8906 Q373.1406,22.1563 372.7656,22.1563 Q372.4219,22.1563 372.2188,21.9531 Q372.0156,21.7656 371.9063,21.25 Q371.8594,20.8906 371.6719,20.7031 Q371.3438,20.3281 370.7344,20.1094 Q370.125,19.8906 369.5,19.8906 Q368.7344,19.8906 368.0938,20.2188 Q367.4688,20.5469 366.9688,21.2969 Q366.4844,22.0469 366.4844,23.0781 L366.4844,24.1719 Q366.4844,25.4063 367.375,26.2344 Q368.2656,27.0469 369.8594,27.0469 Q370.7969,27.0469 371.4531,26.7969 Q371.8438,26.6406 372.2656,26.2031 Q372.5313,25.9375 372.6719,25.8594 Q372.8281,25.7813 373.0313,25.7813 Q373.3594,25.7813 373.6094,26.0469 Q373.875,26.2969 373.875,26.6406 Q373.875,26.9844 373.5313,27.3906 Q373.0313,27.9688 372.2344,28.2969 Q371.1563,28.75 369.8594,28.75 Q368.3438,28.75 367.1406,28.125 Q366.1563,27.625 365.4688,26.5625 Q364.7813,25.4844 364.7813,24.2031 L364.7813,23.0469 Q364.7813,21.7188 365.3906,20.5781 Q366.0156,19.4219 367.1094,18.8125 Q368.2031,18.1875 369.4375,18.1875 Q370.1719,18.1875 370.8125,18.3594 Q371.4688,18.5156 372.0156,18.875 Z " fill="#000000"/><text fill="#000000" font-family="sans-serif" font-size="14" lengthAdjust="spacing" textLength="54" x="389.75" y="28.7285">MovieV3</text><line style="stroke:#181818;stroke-width:0.5;" x1="293" x2="508" y1="39" y2="39"/><text fill="#000000" font-family="sans-serif" font-size="14" lengthAdjust="spacing" textLength="46" x="298" y="57.5332">title: str</text><text fill="#000000" font-family="sans-serif" font-size="14" lengthAdjust="spacing" textLength="205" x="298" y="75.1426">pricing_strategy: PricingStrategy</text><line style="stroke:#181818;stroke-width:0.5;" x1="293" x2="508" y1="82.2188" y2="82.2188"/><text fill="#000000" font-family="sans-serif" font-size="14" lengthAdjust="spacing" textLength="138" x="298" y="100.752">compute_price(): float</text><text fill="#000000" font-family="sans-serif" font-size="14" lengthAdjust="spacing" textLength="110" x="298" y="118.3613">print_info(): None</text></g><path d="M6,48 L6,74.3516 A0,0 0 0 0 6,74.3516 L257,74.3516 A0,0 0 0 0 257,74.3516 L257,66 L296,95.0234 L257,58 L257,58 L247,48 L6,48 A0,0 0 0 0 6,48 " fill="#FEFFDD" style="stroke:#181818;stroke-width:0.5;"/><path d="M247,48 L247,58 L257,58 L247,48 " fill="#FEFFDD" style="stroke:#181818;stroke-width:0.5;"/><text fill="#000000" font-family="sans-serif" font-size="13" lengthAdjust="spacing" textLength="230" x="12" y="66.4951">return pricing_strategy.compute_price();</text><!--reverse link PricingStrategy to RegularPricingStrategy--><g id="link_PricingStrategy_RegularPricingStrategy"><path codeLine="18" d="M329.2576,260.0832 C297.4076,278.4532 273.16,292.44 241.29,310.82 " fill="none" id="PricingStrategy-backto-RegularPricingStrategy" style="stroke:#181818;stroke-width:1.0;"/><polygon fill="none" points="344.85,251.09,326.2599,254.8857,332.2553,265.2806,344.85,251.09" style="stroke:#181818;stroke-width:1.0;"/></g><!--reverse link PricingStrategy to ChildrenPricingStrategy--><g id="link_PricingStrategy_ChildrenPricingStrategy"><path codeLine="19" d="M400.5,269.26 C400.5,287.63 400.5,292.56 400.5,310.91 " fill="none" id="PricingStrategy-backto-ChildrenPricingStrategy" style="stroke:#181818;stroke-width:1.0;"/><polygon fill="none" points="400.5,251.26,394.5,269.26,406.5,269.26,400.5,251.26" style="stroke:#181818;stroke-width:1.0;"/></g><!--reverse link PricingStrategy to NewReleasePricingStrategy--><g id="link_PricingStrategy_NewReleasePricingStrategy"><path codeLine="20" d="M475.599,259.6599 C509.529,278.0299 536.13,292.44 570.08,310.82 " fill="none" id="PricingStrategy-backto-NewReleasePricingStrategy" style="stroke:#181818;stroke-width:1.0;"/><polygon fill="none" points="459.77,251.09,472.7423,264.9363,478.4556,254.3836,459.77,251.09" style="stroke:#181818;stroke-width:1.0;"/></g><!--link MovieV3 to PricingStrategy--><g id="link_MovieV3_PricingStrategy"><path codeLine="33" d="M400.5,125.42 C400.5,145.66 400.5,161.59 400.5,178.92 " fill="none" id="MovieV3-to-PricingStrategy" style="stroke:#181818;stroke-width:1.0;"/><polygon fill="#181818" points="400.5,184.92,404.5,175.92,400.5,179.92,396.5,175.92,400.5,184.92" style="stroke:#181818;stroke-width:1.0;"/></g><!--SRC=[dP4n3u8m48Nt_eeRTQYBMpKkpXg3YIkfzS0cjINjeJ7eVnSG1X4qsgsNzrw_rrD6XW0RhvMswPQy94olK30eJo7tePmekeDofomdZBDIYAEnWCGuIUpEcAe38anp8tr_pZVpygZDmQFzpxt6IuG6PS1V_Ltz_CRvG9D-xG1ultYGiosoScUDksc3JPeC2YWNK5-pfoSEZKbqT_QfQnDWATOsSTLyxInMNs0T8HXC25pI0WZn4bExFLBkxHl5fFFWZA4zG1NAM5k7yyKRwmC0]--></g></svg>