<?xml version="1.0" encoding="us-ascii" standalone="no"?><svg xmlns="http://www.w3.org/2000/svg" xmlns:xlink="http://www.w3.org/1999/xlink" contentStyleType="text/css" height="208px" preserveAspectRatio="none" style="width:539px;height:208px;background:#FFFFFF;" version="1.1" viewBox="0 0 539 208" width="539px" zoomAndPan="magnify"><defs/><g><!--class Client--><g id="elem_Client"><rect codeLine="5" fill="#F1F1F1" height="48" id="Client" rx="2.5" ry="2.5" style="stroke:#181818;stroke-width:0.5;" width="68" x="139.5" y="16.5"/><ellipse cx="154.5" cy="32.5" fill="#C2C2C2" rx="11" ry="11" style="stroke:#181818;stroke-width:1.0;"/><path d="M157.2656,28.375 Q157.4219,28.1563 157.6094,28.0469 Q157.7969,27.9375 158.0156,27.9375 Q158.3906,27.9375 158.625,28.2031 Q158.8594,28.4531 158.8594,29.0625 L158.8594,30.5156 Q158.8594,31.125 158.625,31.3906 Q158.3906,31.6563 158.0156,31.6563 Q157.6719,31.6563 157.4688,31.4531 Q157.2656,31.2656 157.1563,30.75 Q157.1094,30.3906 156.9219,30.2031 Q156.5938,29.8281 155.9844,29.6094 Q155.375,29.3906 154.75,29.3906 Q153.9844,29.3906 153.3438,29.7188 Q152.7188,30.0469 152.2188,30.7969 Q151.7344,31.5469 151.7344,32.5781 L151.7344,33.6719 Q151.7344,34.9063 152.625,35.7344 Q153.5156,36.5469 155.1094,36.5469 Q156.0469,36.5469 156.7031,36.2969 Q157.0938,36.1406 157.5156,35.7031 Q157.7813,35.4375 157.9219,35.3594 Q158.0781,35.2813 158.2813,35.2813 Q158.6094,35.2813 158.8594,35.5469 Q159.125,35.7969 159.125,36.1406 Q159.125,36.4844 158.7813,36.8906 Q158.2813,37.4688 157.4844,37.7969 Q156.4063,38.25 155.1094,38.25 Q153.5938,38.25 152.3906,37.625 Q151.4063,37.125 150.7188,36.0625 Q150.0313,34.9844 150.0313,33.7031 L150.0313,32.5469 Q150.0313,31.2188 150.6406,30.0781 Q151.2656,28.9219 152.3594,28.3125 Q153.4531,27.6875 154.6875,27.6875 Q155.4219,27.6875 156.0625,27.8594 Q156.7188,28.0156 157.2656,28.375 Z " fill="#000000"/><text fill="#000000" font-family="sans-serif" font-size="14" lengthAdjust="spacing" textLength="36" x="168.5" y="38.2969">Client</text><line style="stroke:#181818;stroke-width:0.5;" x1="140.5" x2="206.5" y1="48.5" y2="48.5"/><line style="stroke:#181818;stroke-width:0.5;" x1="140.5" x2="206.5" y1="56.5" y2="56.5"/></g><!--class Target--><g id="elem_Target"><rect codeLine="7" fill="#F1F1F1" height="66.6211" id="Target" rx="2.5" ry="2.5" style="stroke:#181818;stroke-width:0.5;" width="74" x="242.5" y="7"/><ellipse cx="257.5" cy="23" fill="#CDCDCD" rx="11" ry="11" style="stroke:#181818;stroke-width:1.0;"/><path d="M259.6875,24.7656 L255.5469,24.7656 L255.125,25.7969 L255.5469,25.7969 Q256.1563,25.7969 256.4219,26.0313 Q256.6875,26.2656 256.6875,26.6563 Q256.6875,27.0313 256.4219,27.2656 Q256.1563,27.5 255.5469,27.5 L253.25,27.5 Q252.6406,27.5 252.3906,27.2656 Q252.125,27.0313 252.125,26.6406 Q252.125,26.2656 252.4063,26.0313 Q252.6719,25.7813 253.2969,25.7969 L255.9688,19.1406 L254.8594,19.1406 Q254.25,19.1406 253.9844,18.9063 Q253.7188,18.6719 253.7188,18.2813 Q253.7188,17.9063 253.9844,17.6719 Q254.25,17.4375 254.8594,17.4375 L258.5313,17.4375 L261.9219,25.7969 Q262.5156,25.7969 262.7031,25.9375 Q263.0938,26.2031 263.0938,26.6563 Q263.0938,27.0313 262.8281,27.2656 Q262.5781,27.5 261.9688,27.5 L259.6719,27.5 Q259.0625,27.5 258.7969,27.2656 Q258.5313,27.0313 258.5313,26.6406 Q258.5313,26.2656 258.7969,26.0313 Q259.0625,25.7969 259.6719,25.7969 L260.0938,25.7969 L259.6875,24.7656 Z M258.9688,23.0625 L257.6094,19.6875 L256.2344,23.0625 L258.9688,23.0625 Z " fill="#000000"/><text fill="#000000" font-family="sans-serif" font-size="14" font-style="italic" lengthAdjust="spacing" textLength="42" x="271.5" y="28.7969">Target</text><line style="stroke:#181818;stroke-width:0.5;" x1="243.5" x2="315.5" y1="39" y2="39"/><line style="stroke:#181818;stroke-width:0.5;" x1="243.5" x2="315.5" y1="47" y2="47"/><text fill="#000000" font-family="sans-serif" font-size="14" font-style="italic" lengthAdjust="spacing" textLength="58" x="248.5" y="66.1074">request()</text></g><!--class Adapter--><g id="elem_Adapter"><rect codeLine="11" fill="#F1F1F1" height="66.6211" id="Adapter" rx="2.5" ry="2.5" style="stroke:#181818;stroke-width:0.5;" width="82" x="238.5" y="135"/><ellipse cx="253.5" cy="151" fill="#C2C2C2" rx="11" ry="11" style="stroke:#181818;stroke-width:1.0;"/><path d="M256.2656,146.875 Q256.4219,146.6563 256.6094,146.5469 Q256.7969,146.4375 257.0156,146.4375 Q257.3906,146.4375 257.625,146.7031 Q257.8594,146.9531 257.8594,147.5625 L257.8594,149.0156 Q257.8594,149.625 257.625,149.8906 Q257.3906,150.1563 257.0156,150.1563 Q256.6719,150.1563 256.4688,149.9531 Q256.2656,149.7656 256.1563,149.25 Q256.1094,148.8906 255.9219,148.7031 Q255.5938,148.3281 254.9844,148.1094 Q254.375,147.8906 253.75,147.8906 Q252.9844,147.8906 252.3438,148.2188 Q251.7188,148.5469 251.2188,149.2969 Q250.7344,150.0469 250.7344,151.0781 L250.7344,152.1719 Q250.7344,153.4063 251.625,154.2344 Q252.5156,155.0469 254.1094,155.0469 Q255.0469,155.0469 255.7031,154.7969 Q256.0938,154.6406 256.5156,154.2031 Q256.7813,153.9375 256.9219,153.8594 Q257.0781,153.7813 257.2813,153.7813 Q257.6094,153.7813 257.8594,154.0469 Q258.125,154.2969 258.125,154.6406 Q258.125,154.9844 257.7813,155.3906 Q257.2813,155.9688 256.4844,156.2969 Q255.4063,156.75 254.1094,156.75 Q252.5938,156.75 251.3906,156.125 Q250.4063,155.625 249.7188,154.5625 Q249.0313,153.4844 249.0313,152.2031 L249.0313,151.0469 Q249.0313,149.7188 249.6406,148.5781 Q250.2656,147.4219 251.3594,146.8125 Q252.4531,146.1875 253.6875,146.1875 Q254.4219,146.1875 255.0625,146.3594 Q255.7188,146.5156 256.2656,146.875 Z " fill="#000000"/><text fill="#000000" font-family="sans-serif" font-size="14" lengthAdjust="spacing" textLength="50" x="267.5" y="156.7969">Adapter</text><line style="stroke:#181818;stroke-width:0.5;" x1="239.5" x2="319.5" y1="167" y2="167"/><line style="stroke:#181818;stroke-width:0.5;" x1="239.5" x2="319.5" y1="175" y2="175"/><text fill="#000000" font-family="sans-serif" font-size="14" lengthAdjust="spacing" textLength="58" x="244.5" y="194.1074">request()</text></g><path d="M6,150 L6,177.291 A0,0 0 0 0 6,177.291 L203,177.291 A0,0 0 0 0 203,177.291 L203,168 L242.5,188.3105 L203,160 L203,160 L193,150 L6,150 A0,0 0 0 0 6,150 " fill="#FAFAFA" style="stroke:#181818;stroke-width:0.5;"/><path d="M193,150 L193,160 L203,160 L193,150 " fill="#FAFAFA" style="stroke:#181818;stroke-width:0.5;"/><text fill="#000000" font-family="sans-serif" font-size="13" lengthAdjust="spacing" textLength="176" x="12" y="169.0283">self.adaptee.specific_request()</text><!--class Adaptee--><g id="elem_Adaptee"><rect codeLine="19" fill="#F1F1F1" height="66.6211" id="Adaptee" rx="2.5" ry="2.5" style="stroke:#181818;stroke-width:0.5;" width="125" x="407" y="135"/><ellipse cx="440" cy="151" fill="#C2C2C2" rx="11" ry="11" style="stroke:#181818;stroke-width:1.0;"/><path d="M442.7656,146.875 Q442.9219,146.6563 443.1094,146.5469 Q443.2969,146.4375 443.5156,146.4375 Q443.8906,146.4375 444.125,146.7031 Q444.3594,146.9531 444.3594,147.5625 L444.3594,149.0156 Q444.3594,149.625 444.125,149.8906 Q443.8906,150.1563 443.5156,150.1563 Q443.1719,150.1563 442.9688,149.9531 Q442.7656,149.7656 442.6563,149.25 Q442.6094,148.8906 442.4219,148.7031 Q442.0938,148.3281 441.4844,148.1094 Q440.875,147.8906 440.25,147.8906 Q439.4844,147.8906 438.8438,148.2188 Q438.2188,148.5469 437.7188,149.2969 Q437.2344,150.0469 437.2344,151.0781 L437.2344,152.1719 Q437.2344,153.4063 438.125,154.2344 Q439.0156,155.0469 440.6094,155.0469 Q441.5469,155.0469 442.2031,154.7969 Q442.5938,154.6406 443.0156,154.2031 Q443.2813,153.9375 443.4219,153.8594 Q443.5781,153.7813 443.7813,153.7813 Q444.1094,153.7813 444.3594,154.0469 Q444.625,154.2969 444.625,154.6406 Q444.625,154.9844 444.2813,155.3906 Q443.7813,155.9688 442.9844,156.2969 Q441.9063,156.75 440.6094,156.75 Q439.0938,156.75 437.8906,156.125 Q436.9063,155.625 436.2188,154.5625 Q435.5313,153.4844 435.5313,152.2031 L435.5313,151.0469 Q435.5313,149.7188 436.1406,148.5781 Q436.7656,147.4219 437.8594,146.8125 Q438.9531,146.1875 440.1875,146.1875 Q440.9219,146.1875 441.5625,146.3594 Q442.2188,146.5156 442.7656,146.875 Z " fill="#000000"/><text fill="#000000" font-family="sans-serif" font-size="14" lengthAdjust="spacing" textLength="53" x="458" y="156.7969">Adaptee</text><line style="stroke:#181818;stroke-width:0.5;" x1="408" x2="531" y1="167" y2="167"/><line style="stroke:#181818;stroke-width:0.5;" x1="408" x2="531" y1="175" y2="175"/><text fill="#000000" font-family="sans-serif" font-size="14" lengthAdjust="spacing" textLength="113" x="413" y="194.1074">specific_request()</text></g><!--link Client to Target--><g id="link_Client_Target"><path codeLine="23" d="M207.87,40.5 C217.64,40.5 227.41,40.5 237.18,40.5 " fill="none" id="Client-to-Target" style="stroke:#181818;stroke-width:1.0;"/><polygon fill="#181818" points="242.28,40.5,233.28,36.5,237.28,40.5,233.28,44.5,242.28,40.5" style="stroke:#181818;stroke-width:1.0;"/></g><!--reverse link Target to Adapter--><g id="link_Target_Adapter"><path codeLine="24" d="M279.5,94.31 C279.5,108.07 279.5,122.51 279.5,134.89 " fill="none" id="Target-backto-Adapter" style="stroke:#181818;stroke-width:1.0;"/><polygon fill="none" points="272.5,94.28,279.5,74.28,286.5,94.28,272.5,94.28" style="stroke:#181818;stroke-width:1.0;"/></g><!--link Adapter to Adaptee--><g id="link_Adapter_Adaptee"><path codeLine="25" d="M320.73,168.5 C344.36,168.5 374.61,168.5 401.66,168.5 " fill="none" id="Adapter-to-Adaptee" style="stroke:#181818;stroke-width:1.0;"/><polygon fill="#181818" points="406.67,168.5,397.67,164.5,401.67,168.5,397.67,172.5,406.67,168.5" style="stroke:#181818;stroke-width:1.0;"/><text fill="#000000" font-family="sans-serif" font-size="13" lengthAdjust="spacing" textLength="46" x="342.75" y="161.5283">adaptee</text></g><!--SRC=[ROzD3e8m48NtSue9ArsK0n1ZOho2UrFB51fBY-smGkuk5geXkfttpVk9T-Dw6MI78o1stddL1jyHSXW89i2u0NuHd02KbJ7YsHfo321laODKZClv8aD3dBx7B4qOw35GvDqUFl-dMlPC8P4RsNacjAGPlSvKLQr8AXN9wb8cXShOapBQgElNX5oDRvTj5AMeF_YSkOn1SLpxmphZy1GYTu3SM0JJj3opsRV20jSw1Rm0]--></g></svg>