<?xml version="1.0" encoding="us-ascii" standalone="no"?><svg xmlns="http://www.w3.org/2000/svg" xmlns:xlink="http://www.w3.org/1999/xlink" contentStyleType="text/css" height="97px" preserveAspectRatio="none" style="width:254px;height:97px;background:#FFFFFF;" version="1.1" viewBox="0 0 254 97" width="254px" zoomAndPan="magnify"><defs/><g><!--class World--><g id="elem_World"><rect codeLine="1" fill="#F1F1F1" height="48" id="World" rx="2.5" ry="2.5" style="stroke:#181818;stroke-width:0.5;" width="69" x="7" y="24.5"/><ellipse cx="22" cy="40.5" fill="#ADD1B2" rx="11" ry="11" style="stroke:#181818;stroke-width:1.0;"/><path d="M24.7656,36.375 Q24.9219,36.1563 25.1094,36.0469 Q25.2969,35.9375 25.5156,35.9375 Q25.8906,35.9375 26.125,36.2031 Q26.3594,36.4531 26.3594,37.0625 L26.3594,38.5156 Q26.3594,39.125 26.125,39.3906 Q25.8906,39.6563 25.5156,39.6563 Q25.1719,39.6563 24.9688,39.4531 Q24.7656,39.2656 24.6563,38.75 Q24.6094,38.3906 24.4219,38.2031 Q24.0938,37.8281 23.4844,37.6094 Q22.875,37.3906 22.25,37.3906 Q21.4844,37.3906 20.8438,37.7188 Q20.2188,38.0469 19.7188,38.7969 Q19.2344,39.5469 19.2344,40.5781 L19.2344,41.6719 Q19.2344,42.9063 20.125,43.7344 Q21.0156,44.5469 22.6094,44.5469 Q23.5469,44.5469 24.2031,44.2969 Q24.5938,44.1406 25.0156,43.7031 Q25.2813,43.4375 25.4219,43.3594 Q25.5781,43.2813 25.7813,43.2813 Q26.1094,43.2813 26.3594,43.5469 Q26.625,43.7969 26.625,44.1406 Q26.625,44.4844 26.2813,44.8906 Q25.7813,45.4688 24.9844,45.7969 Q23.9063,46.25 22.6094,46.25 Q21.0938,46.25 19.8906,45.625 Q18.9063,45.125 18.2188,44.0625 Q17.5313,42.9844 17.5313,41.7031 L17.5313,40.5469 Q17.5313,39.2188 18.1406,38.0781 Q18.7656,36.9219 19.8594,36.3125 Q20.9531,35.6875 22.1875,35.6875 Q22.9219,35.6875 23.5625,35.8594 Q24.2188,36.0156 24.7656,36.375 Z " fill="#000000"/><text fill="#000000" font-family="sans-serif" font-size="14" lengthAdjust="spacing" textLength="37" x="36" y="46.2285">World</text><line style="stroke:#181818;stroke-width:0.5;" x1="8" x2="75" y1="56.5" y2="56.5"/><line style="stroke:#181818;stroke-width:0.5;" x1="8" x2="75" y1="64.5" y2="64.5"/></g><!--class Location--><g id="elem_Location"><rect codeLine="2" fill="#F1F1F1" height="83.2188" id="Location" rx="2.5" ry="2.5" style="stroke:#181818;stroke-width:0.5;" width="86" x="161.5" y="7"/><ellipse cx="176.5" cy="23" fill="#ADD1B2" rx="11" ry="11" style="stroke:#181818;stroke-width:1.0;"/><path d="M179.2656,18.875 Q179.4219,18.6563 179.6094,18.5469 Q179.7969,18.4375 180.0156,18.4375 Q180.3906,18.4375 180.625,18.7031 Q180.8594,18.9531 180.8594,19.5625 L180.8594,21.0156 Q180.8594,21.625 180.625,21.8906 Q180.3906,22.1563 180.0156,22.1563 Q179.6719,22.1563 179.4688,21.9531 Q179.2656,21.7656 179.1563,21.25 Q179.1094,20.8906 178.9219,20.7031 Q178.5938,20.3281 177.9844,20.1094 Q177.375,19.8906 176.75,19.8906 Q175.9844,19.8906 175.3438,20.2188 Q174.7188,20.5469 174.2188,21.2969 Q173.7344,22.0469 173.7344,23.0781 L173.7344,24.1719 Q173.7344,25.4063 174.625,26.2344 Q175.5156,27.0469 177.1094,27.0469 Q178.0469,27.0469 178.7031,26.7969 Q179.0938,26.6406 179.5156,26.2031 Q179.7813,25.9375 179.9219,25.8594 Q180.0781,25.7813 180.2813,25.7813 Q180.6094,25.7813 180.8594,26.0469 Q181.125,26.2969 181.125,26.6406 Q181.125,26.9844 180.7813,27.3906 Q180.2813,27.9688 179.4844,28.2969 Q178.4063,28.75 177.1094,28.75 Q175.5938,28.75 174.3906,28.125 Q173.4063,27.625 172.7188,26.5625 Q172.0313,25.4844 172.0313,24.2031 L172.0313,23.0469 Q172.0313,21.7188 172.6406,20.5781 Q173.2656,19.4219 174.3594,18.8125 Q175.4531,18.1875 176.6875,18.1875 Q177.4219,18.1875 178.0625,18.3594 Q178.7188,18.5156 179.2656,18.875 Z " fill="#000000"/><text fill="#000000" font-family="sans-serif" font-size="14" lengthAdjust="spacing" textLength="54" x="190.5" y="28.7285">Location</text><line style="stroke:#181818;stroke-width:0.5;" x1="162.5" x2="246.5" y1="39" y2="39"/><text fill="#000000" font-family="sans-serif" font-size="14" lengthAdjust="spacing" textLength="35" x="167.5" y="57.5332">name</text><text fill="#000000" font-family="sans-serif" font-size="14" lengthAdjust="spacing" textLength="69" x="167.5" y="75.1426">description</text><line style="stroke:#181818;stroke-width:0.5;" x1="162.5" x2="246.5" y1="82.2188" y2="82.2188"/></g><!--link World to Location--><g id="link_World_Location"><path codeLine="6" d="M88.07,48.5 C112.93,48.5 128.62,48.5 155.26,48.5 " fill="none" id="World-Location" style="stroke:#181818;stroke-width:1.0;"/><polygon fill="#181818" points="76.07,48.5,82.07,52.5,88.07,48.5,82.07,44.5,76.07,48.5" style="stroke:#181818;stroke-width:1.0;"/><polygon fill="#181818" points="161.26,48.5,152.26,44.5,156.26,48.5,152.26,52.5,161.26,48.5" style="stroke:#181818;stroke-width:1.0;"/><text fill="#000000" font-family="sans-serif" font-size="13" lengthAdjust="spacing" textLength="49" x="94.25" y="41.9951">contains</text><text fill="#000000" font-family="sans-serif" font-size="13" lengthAdjust="spacing" textLength="7" x="87.9883" y="63.4003">1</text><text fill="#000000" font-family="sans-serif" font-size="13" lengthAdjust="spacing" textLength="5" x="148.6058" y="63.0286">*</text></g><!--SRC=[Iyv9B2vM2CyloadXIWQpVVAJ4qioy_CKghaKW20lCJSLp4X9BKukoYm0IN7LSe5rA2Wf609bb1IqTEs090HeAI6Ci598piyhISpCAmO0]--></g></svg>