<?xml version="1.0" encoding="us-ascii" standalone="no"?><svg xmlns="http://www.w3.org/2000/svg" xmlns:xlink="http://www.w3.org/1999/xlink" contentStyleType="text/css" height="280px" preserveAspectRatio="none" style="width:305px;height:280px;background:#FFFFFF;" version="1.1" viewBox="0 0 305 280" width="305px" zoomAndPan="magnify"><defs/><g><!--class Game--><g id="elem_Game"><rect codeLine="1" fill="#F1F1F1" height="48" id="Game" rx="2.5" ry="2.5" style="stroke:#181818;stroke-width:0.5;" width="70" x="9.5" y="7"/><ellipse cx="24.5" cy="23" fill="#ADD1B2" rx="11" ry="11" style="stroke:#181818;stroke-width:1.0;"/><path d="M27.2656,18.875 Q27.4219,18.6563 27.6094,18.5469 Q27.7969,18.4375 28.0156,18.4375 Q28.3906,18.4375 28.625,18.7031 Q28.8594,18.9531 28.8594,19.5625 L28.8594,21.0156 Q28.8594,21.625 28.625,21.8906 Q28.3906,22.1563 28.0156,22.1563 Q27.6719,22.1563 27.4688,21.9531 Q27.2656,21.7656 27.1563,21.25 Q27.1094,20.8906 26.9219,20.7031 Q26.5938,20.3281 25.9844,20.1094 Q25.375,19.8906 24.75,19.8906 Q23.9844,19.8906 23.3438,20.2188 Q22.7188,20.5469 22.2188,21.2969 Q21.7344,22.0469 21.7344,23.0781 L21.7344,24.1719 Q21.7344,25.4063 22.625,26.2344 Q23.5156,27.0469 25.1094,27.0469 Q26.0469,27.0469 26.7031,26.7969 Q27.0938,26.6406 27.5156,26.2031 Q27.7813,25.9375 27.9219,25.8594 Q28.0781,25.7813 28.2813,25.7813 Q28.6094,25.7813 28.8594,26.0469 Q29.125,26.2969 29.125,26.6406 Q29.125,26.9844 28.7813,27.3906 Q28.2813,27.9688 27.4844,28.2969 Q26.4063,28.75 25.1094,28.75 Q23.5938,28.75 22.3906,28.125 Q21.4063,27.625 20.7188,26.5625 Q20.0313,25.4844 20.0313,24.2031 L20.0313,23.0469 Q20.0313,21.7188 20.6406,20.5781 Q21.2656,19.4219 22.3594,18.8125 Q23.4531,18.1875 24.6875,18.1875 Q25.4219,18.1875 26.0625,18.3594 Q26.7188,18.5156 27.2656,18.875 Z " fill="#000000"/><text fill="#000000" font-family="sans-serif" font-size="14" lengthAdjust="spacing" textLength="38" x="38.5" y="28.7285">Game</text><line style="stroke:#181818;stroke-width:0.5;" x1="10.5" x2="78.5" y1="39" y2="39"/><line style="stroke:#181818;stroke-width:0.5;" x1="10.5" x2="78.5" y1="47" y2="47"/></g><!--class Player--><g id="elem_Player"><rect codeLine="2" fill="#F1F1F1" height="48" id="Player" rx="2.5" ry="2.5" style="stroke:#181818;stroke-width:0.5;" width="72" x="114.5" y="7"/><ellipse cx="129.5" cy="23" fill="#ADD1B2" rx="11" ry="11" style="stroke:#181818;stroke-width:1.0;"/><path d="M132.2656,18.875 Q132.4219,18.6563 132.6094,18.5469 Q132.7969,18.4375 133.0156,18.4375 Q133.3906,18.4375 133.625,18.7031 Q133.8594,18.9531 133.8594,19.5625 L133.8594,21.0156 Q133.8594,21.625 133.625,21.8906 Q133.3906,22.1563 133.0156,22.1563 Q132.6719,22.1563 132.4688,21.9531 Q132.2656,21.7656 132.1563,21.25 Q132.1094,20.8906 131.9219,20.7031 Q131.5938,20.3281 130.9844,20.1094 Q130.375,19.8906 129.75,19.8906 Q128.9844,19.8906 128.3438,20.2188 Q127.7188,20.5469 127.2188,21.2969 Q126.7344,22.0469 126.7344,23.0781 L126.7344,24.1719 Q126.7344,25.4063 127.625,26.2344 Q128.5156,27.0469 130.1094,27.0469 Q131.0469,27.0469 131.7031,26.7969 Q132.0938,26.6406 132.5156,26.2031 Q132.7813,25.9375 132.9219,25.8594 Q133.0781,25.7813 133.2813,25.7813 Q133.6094,25.7813 133.8594,26.0469 Q134.125,26.2969 134.125,26.6406 Q134.125,26.9844 133.7813,27.3906 Q133.2813,27.9688 132.4844,28.2969 Q131.4063,28.75 130.1094,28.75 Q128.5938,28.75 127.3906,28.125 Q126.4063,27.625 125.7188,26.5625 Q125.0313,25.4844 125.0313,24.2031 L125.0313,23.0469 Q125.0313,21.7188 125.6406,20.5781 Q126.2656,19.4219 127.3594,18.8125 Q128.4531,18.1875 129.6875,18.1875 Q130.4219,18.1875 131.0625,18.3594 Q131.7188,18.5156 132.2656,18.875 Z " fill="#000000"/><text fill="#000000" font-family="sans-serif" font-size="14" lengthAdjust="spacing" textLength="40" x="143.5" y="28.7285">Player</text><line style="stroke:#181818;stroke-width:0.5;" x1="115.5" x2="185.5" y1="39" y2="39"/><line style="stroke:#181818;stroke-width:0.5;" x1="115.5" x2="185.5" y1="47" y2="47"/></g><!--class Pawn--><g id="elem_Pawn"><rect codeLine="3" fill="#F1F1F1" height="48" id="Pawn" rx="2.5" ry="2.5" style="stroke:#181818;stroke-width:0.5;" width="66" x="221.5" y="7"/><ellipse cx="236.5" cy="23" fill="#ADD1B2" rx="11" ry="11" style="stroke:#181818;stroke-width:1.0;"/><path d="M239.2656,18.875 Q239.4219,18.6563 239.6094,18.5469 Q239.7969,18.4375 240.0156,18.4375 Q240.3906,18.4375 240.625,18.7031 Q240.8594,18.9531 240.8594,19.5625 L240.8594,21.0156 Q240.8594,21.625 240.625,21.8906 Q240.3906,22.1563 240.0156,22.1563 Q239.6719,22.1563 239.4688,21.9531 Q239.2656,21.7656 239.1563,21.25 Q239.1094,20.8906 238.9219,20.7031 Q238.5938,20.3281 237.9844,20.1094 Q237.375,19.8906 236.75,19.8906 Q235.9844,19.8906 235.3438,20.2188 Q234.7188,20.5469 234.2188,21.2969 Q233.7344,22.0469 233.7344,23.0781 L233.7344,24.1719 Q233.7344,25.4063 234.625,26.2344 Q235.5156,27.0469 237.1094,27.0469 Q238.0469,27.0469 238.7031,26.7969 Q239.0938,26.6406 239.5156,26.2031 Q239.7813,25.9375 239.9219,25.8594 Q240.0781,25.7813 240.2813,25.7813 Q240.6094,25.7813 240.8594,26.0469 Q241.125,26.2969 241.125,26.6406 Q241.125,26.9844 240.7813,27.3906 Q240.2813,27.9688 239.4844,28.2969 Q238.4063,28.75 237.1094,28.75 Q235.5938,28.75 234.3906,28.125 Q233.4063,27.625 232.7188,26.5625 Q232.0313,25.4844 232.0313,24.2031 L232.0313,23.0469 Q232.0313,21.7188 232.6406,20.5781 Q233.2656,19.4219 234.3594,18.8125 Q235.4531,18.1875 236.6875,18.1875 Q237.4219,18.1875 238.0625,18.3594 Q238.7188,18.5156 239.2656,18.875 Z " fill="#000000"/><text fill="#000000" font-family="sans-serif" font-size="14" lengthAdjust="spacing" textLength="34" x="250.5" y="28.7285">Pawn</text><line style="stroke:#181818;stroke-width:0.5;" x1="222.5" x2="286.5" y1="39" y2="39"/><line style="stroke:#181818;stroke-width:0.5;" x1="222.5" x2="286.5" y1="47" y2="47"/></g><!--class World--><g id="elem_World"><rect codeLine="4" fill="#F1F1F1" height="48" id="World" rx="2.5" ry="2.5" style="stroke:#181818;stroke-width:0.5;" width="69" x="7" y="116"/><ellipse cx="22" cy="132" fill="#ADD1B2" rx="11" ry="11" style="stroke:#181818;stroke-width:1.0;"/><path d="M24.7656,127.875 Q24.9219,127.6563 25.1094,127.5469 Q25.2969,127.4375 25.5156,127.4375 Q25.8906,127.4375 26.125,127.7031 Q26.3594,127.9531 26.3594,128.5625 L26.3594,130.0156 Q26.3594,130.625 26.125,130.8906 Q25.8906,131.1563 25.5156,131.1563 Q25.1719,131.1563 24.9688,130.9531 Q24.7656,130.7656 24.6563,130.25 Q24.6094,129.8906 24.4219,129.7031 Q24.0938,129.3281 23.4844,129.1094 Q22.875,128.8906 22.25,128.8906 Q21.4844,128.8906 20.8438,129.2188 Q20.2188,129.5469 19.7188,130.2969 Q19.2344,131.0469 19.2344,132.0781 L19.2344,133.1719 Q19.2344,134.4063 20.125,135.2344 Q21.0156,136.0469 22.6094,136.0469 Q23.5469,136.0469 24.2031,135.7969 Q24.5938,135.6406 25.0156,135.2031 Q25.2813,134.9375 25.4219,134.8594 Q25.5781,134.7813 25.7813,134.7813 Q26.1094,134.7813 26.3594,135.0469 Q26.625,135.2969 26.625,135.6406 Q26.625,135.9844 26.2813,136.3906 Q25.7813,136.9688 24.9844,137.2969 Q23.9063,137.75 22.6094,137.75 Q21.0938,137.75 19.8906,137.125 Q18.9063,136.625 18.2188,135.5625 Q17.5313,134.4844 17.5313,133.2031 L17.5313,132.0469 Q17.5313,130.7188 18.1406,129.5781 Q18.7656,128.4219 19.8594,127.8125 Q20.9531,127.1875 22.1875,127.1875 Q22.9219,127.1875 23.5625,127.3594 Q24.2188,127.5156 24.7656,127.875 Z " fill="#000000"/><text fill="#000000" font-family="sans-serif" font-size="14" lengthAdjust="spacing" textLength="37" x="36" y="137.7285">World</text><line style="stroke:#181818;stroke-width:0.5;" x1="8" x2="75" y1="148" y2="148"/><line style="stroke:#181818;stroke-width:0.5;" x1="8" x2="75" y1="156" y2="156"/></g><!--class Location--><g id="elem_Location"><rect codeLine="5" fill="#F1F1F1" height="48" id="Location" rx="2.5" ry="2.5" style="stroke:#181818;stroke-width:0.5;" width="86" x="212.5" y="116"/><ellipse cx="227.5" cy="132" fill="#ADD1B2" rx="11" ry="11" style="stroke:#181818;stroke-width:1.0;"/><path d="M230.2656,127.875 Q230.4219,127.6563 230.6094,127.5469 Q230.7969,127.4375 231.0156,127.4375 Q231.3906,127.4375 231.625,127.7031 Q231.8594,127.9531 231.8594,128.5625 L231.8594,130.0156 Q231.8594,130.625 231.625,130.8906 Q231.3906,131.1563 231.0156,131.1563 Q230.6719,131.1563 230.4688,130.9531 Q230.2656,130.7656 230.1563,130.25 Q230.1094,129.8906 229.9219,129.7031 Q229.5938,129.3281 228.9844,129.1094 Q228.375,128.8906 227.75,128.8906 Q226.9844,128.8906 226.3438,129.2188 Q225.7188,129.5469 225.2188,130.2969 Q224.7344,131.0469 224.7344,132.0781 L224.7344,133.1719 Q224.7344,134.4063 225.625,135.2344 Q226.5156,136.0469 228.1094,136.0469 Q229.0469,136.0469 229.7031,135.7969 Q230.0938,135.6406 230.5156,135.2031 Q230.7813,134.9375 230.9219,134.8594 Q231.0781,134.7813 231.2813,134.7813 Q231.6094,134.7813 231.8594,135.0469 Q232.125,135.2969 232.125,135.6406 Q232.125,135.9844 231.7813,136.3906 Q231.2813,136.9688 230.4844,137.2969 Q229.4063,137.75 228.1094,137.75 Q226.5938,137.75 225.3906,137.125 Q224.4063,136.625 223.7188,135.5625 Q223.0313,134.4844 223.0313,133.2031 L223.0313,132.0469 Q223.0313,130.7188 223.6406,129.5781 Q224.2656,128.4219 225.3594,127.8125 Q226.4531,127.1875 227.6875,127.1875 Q228.4219,127.1875 229.0625,127.3594 Q229.7188,127.5156 230.2656,127.875 Z " fill="#000000"/><text fill="#000000" font-family="sans-serif" font-size="14" lengthAdjust="spacing" textLength="54" x="241.5" y="137.7285">Location</text><line style="stroke:#181818;stroke-width:0.5;" x1="213.5" x2="297.5" y1="148" y2="148"/><line style="stroke:#181818;stroke-width:0.5;" x1="213.5" x2="297.5" y1="156" y2="156"/></g><!--class Object--><g id="elem_Object"><rect codeLine="6" fill="#F1F1F1" height="48" id="Object" rx="2.5" ry="2.5" style="stroke:#181818;stroke-width:0.5;" width="73" x="219" y="225"/><ellipse cx="234" cy="241" fill="#ADD1B2" rx="11" ry="11" style="stroke:#181818;stroke-width:1.0;"/><path d="M236.7656,236.875 Q236.9219,236.6563 237.1094,236.5469 Q237.2969,236.4375 237.5156,236.4375 Q237.8906,236.4375 238.125,236.7031 Q238.3594,236.9531 238.3594,237.5625 L238.3594,239.0156 Q238.3594,239.625 238.125,239.8906 Q237.8906,240.1563 237.5156,240.1563 Q237.1719,240.1563 236.9688,239.9531 Q236.7656,239.7656 236.6563,239.25 Q236.6094,238.8906 236.4219,238.7031 Q236.0938,238.3281 235.4844,238.1094 Q234.875,237.8906 234.25,237.8906 Q233.4844,237.8906 232.8438,238.2188 Q232.2188,238.5469 231.7188,239.2969 Q231.2344,240.0469 231.2344,241.0781 L231.2344,242.1719 Q231.2344,243.4063 232.125,244.2344 Q233.0156,245.0469 234.6094,245.0469 Q235.5469,245.0469 236.2031,244.7969 Q236.5938,244.6406 237.0156,244.2031 Q237.2813,243.9375 237.4219,243.8594 Q237.5781,243.7813 237.7813,243.7813 Q238.1094,243.7813 238.3594,244.0469 Q238.625,244.2969 238.625,244.6406 Q238.625,244.9844 238.2813,245.3906 Q237.7813,245.9688 236.9844,246.2969 Q235.9063,246.75 234.6094,246.75 Q233.0938,246.75 231.8906,246.125 Q230.9063,245.625 230.2188,244.5625 Q229.5313,243.4844 229.5313,242.2031 L229.5313,241.0469 Q229.5313,239.7188 230.1406,238.5781 Q230.7656,237.4219 231.8594,236.8125 Q232.9531,236.1875 234.1875,236.1875 Q234.9219,236.1875 235.5625,236.3594 Q236.2188,236.5156 236.7656,236.875 Z " fill="#000000"/><text fill="#000000" font-family="sans-serif" font-size="14" lengthAdjust="spacing" textLength="41" x="248" y="246.7285">Object</text><line style="stroke:#181818;stroke-width:0.5;" x1="220" x2="291" y1="257" y2="257"/><line style="stroke:#181818;stroke-width:0.5;" x1="220" x2="291" y1="265" y2="265"/></g><!--link Game to Player--><g id="link_Game_Player"><path codeLine="8" d="M79.7,31 C91.22,31 102.74,31 114.27,31 " fill="none" id="Game-Player" style="stroke:#181818;stroke-width:1.0;"/></g><!--link Player to Pawn--><g id="link_Player_Pawn"><path codeLine="9" d="M186.66,31 C198.23,31 209.8,31 221.37,31 " fill="none" id="Player-Pawn" style="stroke:#181818;stroke-width:1.0;"/></g><!--link Game to World--><g id="link_Game_World"><path codeLine="10" d="M43.85,55.22 C43.35,73.16 42.65,97.89 42.15,115.83 " fill="none" id="Game-World" style="stroke:#181818;stroke-width:1.0;"/></g><!--link World to Location--><g id="link_World_Location"><path codeLine="11" d="M76.36,140 C113.43,140 172.12,140 212.15,140 " fill="none" id="World-Location" style="stroke:#181818;stroke-width:1.0;"/><text fill="#000000" font-family="sans-serif" font-size="13" lengthAdjust="spacing" textLength="100" x="94.25" y="133.4951">&#160;&#160;&#160;&#160;&#160;&#160;&#160;&#160;&#160;&#160;&#160;&#160;&#160;&#160;&#160;&#160;&#160;&#160;&#160;&#160;&#160;&#160;&#160;&#160;&#160;</text></g><!--link Pawn to Location--><g id="link_Pawn_Location"><path codeLine="12" d="M254.72,55.22 C254.88,73.16 255.12,97.89 255.28,115.83 " fill="none" id="Pawn-Location" style="stroke:#181818;stroke-width:1.0;"/></g><!--link Location to Object--><g id="link_Location_Object"><path codeLine="13" d="M255.5,164.22 C255.5,182.16 255.5,206.89 255.5,224.83 " fill="none" id="Location-Object" style="stroke:#181818;stroke-width:1.0;"/></g><!--SRC=[Iyv9B2vMS4_CJULA1ZC3SX8hKujWdCJoF2WpFBye9mNAzibFJYp9p8T9-ITbfIQNS761J55Gq5M0cG6X828WWw3oG2x4C309beOPg62beAI02oXnWKm1wOVR3zS758Iu0W00]--></g></svg>