<?xml version="1.0" encoding="us-ascii" standalone="no"?><svg xmlns="http://www.w3.org/2000/svg" xmlns:xlink="http://www.w3.org/1999/xlink" contentStyleType="text/css" height="170px" preserveAspectRatio="none" style="width:292px;height:170px;background:#FFFFFF;" version="1.1" viewBox="0 0 292 170" width="292px" zoomAndPan="magnify"><defs/><g><!--class Game--><g id="elem_Game"><rect codeLine="1" fill="#F1F1F1" height="48" id="Game" rx="2.5" ry="2.5" style="stroke:#181818;stroke-width:0.5;" width="70" x="7" y="7"/><ellipse cx="22" cy="23" fill="#ADD1B2" rx="11" ry="11" style="stroke:#181818;stroke-width:1.0;"/><path d="M24.7656,18.875 Q24.9219,18.6563 25.1094,18.5469 Q25.2969,18.4375 25.5156,18.4375 Q25.8906,18.4375 26.125,18.7031 Q26.3594,18.9531 26.3594,19.5625 L26.3594,21.0156 Q26.3594,21.625 26.125,21.8906 Q25.8906,22.1563 25.5156,22.1563 Q25.1719,22.1563 24.9688,21.9531 Q24.7656,21.7656 24.6563,21.25 Q24.6094,20.8906 24.4219,20.7031 Q24.0938,20.3281 23.4844,20.1094 Q22.875,19.8906 22.25,19.8906 Q21.4844,19.8906 20.8438,20.2188 Q20.2188,20.5469 19.7188,21.2969 Q19.2344,22.0469 19.2344,23.0781 L19.2344,24.1719 Q19.2344,25.4063 20.125,26.2344 Q21.0156,27.0469 22.6094,27.0469 Q23.5469,27.0469 24.2031,26.7969 Q24.5938,26.6406 25.0156,26.2031 Q25.2813,25.9375 25.4219,25.8594 Q25.5781,25.7813 25.7813,25.7813 Q26.1094,25.7813 26.3594,26.0469 Q26.625,26.2969 26.625,26.6406 Q26.625,26.9844 26.2813,27.3906 Q25.7813,27.9688 24.9844,28.2969 Q23.9063,28.75 22.6094,28.75 Q21.0938,28.75 19.8906,28.125 Q18.9063,27.625 18.2188,26.5625 Q17.5313,25.4844 17.5313,24.2031 L17.5313,23.0469 Q17.5313,21.7188 18.1406,20.5781 Q18.7656,19.4219 19.8594,18.8125 Q20.9531,18.1875 22.1875,18.1875 Q22.9219,18.1875 23.5625,18.3594 Q24.2188,18.5156 24.7656,18.875 Z " fill="#000000"/><text fill="#000000" font-family="sans-serif" font-size="14" lengthAdjust="spacing" textLength="38" x="36" y="28.7285">Game</text><line style="stroke:#181818;stroke-width:0.5;" x1="8" x2="76" y1="39" y2="39"/><line style="stroke:#181818;stroke-width:0.5;" x1="8" x2="76" y1="47" y2="47"/></g><!--class Player--><g id="elem_Player"><rect codeLine="2" fill="#F1F1F1" height="48" id="Player" rx="2.5" ry="2.5" style="stroke:#181818;stroke-width:0.5;" width="72" x="112" y="7"/><ellipse cx="127" cy="23" fill="#ADD1B2" rx="11" ry="11" style="stroke:#181818;stroke-width:1.0;"/><path d="M129.7656,18.875 Q129.9219,18.6563 130.1094,18.5469 Q130.2969,18.4375 130.5156,18.4375 Q130.8906,18.4375 131.125,18.7031 Q131.3594,18.9531 131.3594,19.5625 L131.3594,21.0156 Q131.3594,21.625 131.125,21.8906 Q130.8906,22.1563 130.5156,22.1563 Q130.1719,22.1563 129.9688,21.9531 Q129.7656,21.7656 129.6563,21.25 Q129.6094,20.8906 129.4219,20.7031 Q129.0938,20.3281 128.4844,20.1094 Q127.875,19.8906 127.25,19.8906 Q126.4844,19.8906 125.8438,20.2188 Q125.2188,20.5469 124.7188,21.2969 Q124.2344,22.0469 124.2344,23.0781 L124.2344,24.1719 Q124.2344,25.4063 125.125,26.2344 Q126.0156,27.0469 127.6094,27.0469 Q128.5469,27.0469 129.2031,26.7969 Q129.5938,26.6406 130.0156,26.2031 Q130.2813,25.9375 130.4219,25.8594 Q130.5781,25.7813 130.7813,25.7813 Q131.1094,25.7813 131.3594,26.0469 Q131.625,26.2969 131.625,26.6406 Q131.625,26.9844 131.2813,27.3906 Q130.7813,27.9688 129.9844,28.2969 Q128.9063,28.75 127.6094,28.75 Q126.0938,28.75 124.8906,28.125 Q123.9063,27.625 123.2188,26.5625 Q122.5313,25.4844 122.5313,24.2031 L122.5313,23.0469 Q122.5313,21.7188 123.1406,20.5781 Q123.7656,19.4219 124.8594,18.8125 Q125.9531,18.1875 127.1875,18.1875 Q127.9219,18.1875 128.5625,18.3594 Q129.2188,18.5156 129.7656,18.875 Z " fill="#000000"/><text fill="#000000" font-family="sans-serif" font-size="14" lengthAdjust="spacing" textLength="40" x="141" y="28.7285">Player</text><line style="stroke:#181818;stroke-width:0.5;" x1="113" x2="183" y1="39" y2="39"/><line style="stroke:#181818;stroke-width:0.5;" x1="113" x2="183" y1="47" y2="47"/></g><!--class Pawn--><!--class Location--><g id="elem_Location"><rect codeLine="4" fill="#F1F1F1" height="48" id="Location" rx="2.5" ry="2.5" style="stroke:#181818;stroke-width:0.5;" width="86" x="105" y="115"/><ellipse cx="120" cy="131" fill="#ADD1B2" rx="11" ry="11" style="stroke:#181818;stroke-width:1.0;"/><path d="M122.7656,126.875 Q122.9219,126.6563 123.1094,126.5469 Q123.2969,126.4375 123.5156,126.4375 Q123.8906,126.4375 124.125,126.7031 Q124.3594,126.9531 124.3594,127.5625 L124.3594,129.0156 Q124.3594,129.625 124.125,129.8906 Q123.8906,130.1563 123.5156,130.1563 Q123.1719,130.1563 122.9688,129.9531 Q122.7656,129.7656 122.6563,129.25 Q122.6094,128.8906 122.4219,128.7031 Q122.0938,128.3281 121.4844,128.1094 Q120.875,127.8906 120.25,127.8906 Q119.4844,127.8906 118.8438,128.2188 Q118.2188,128.5469 117.7188,129.2969 Q117.2344,130.0469 117.2344,131.0781 L117.2344,132.1719 Q117.2344,133.4063 118.125,134.2344 Q119.0156,135.0469 120.6094,135.0469 Q121.5469,135.0469 122.2031,134.7969 Q122.5938,134.6406 123.0156,134.2031 Q123.2813,133.9375 123.4219,133.8594 Q123.5781,133.7813 123.7813,133.7813 Q124.1094,133.7813 124.3594,134.0469 Q124.625,134.2969 124.625,134.6406 Q124.625,134.9844 124.2813,135.3906 Q123.7813,135.9688 122.9844,136.2969 Q121.9063,136.75 120.6094,136.75 Q119.0938,136.75 117.8906,136.125 Q116.9063,135.625 116.2188,134.5625 Q115.5313,133.4844 115.5313,132.2031 L115.5313,131.0469 Q115.5313,129.7188 116.1406,128.5781 Q116.7656,127.4219 117.8594,126.8125 Q118.9531,126.1875 120.1875,126.1875 Q120.9219,126.1875 121.5625,126.3594 Q122.2188,126.5156 122.7656,126.875 Z " fill="#000000"/><text fill="#000000" font-family="sans-serif" font-size="14" lengthAdjust="spacing" textLength="54" x="134" y="136.7285">Location</text><line style="stroke:#181818;stroke-width:0.5;" x1="106" x2="190" y1="147" y2="147"/><line style="stroke:#181818;stroke-width:0.5;" x1="106" x2="190" y1="155" y2="155"/></g><!--link Game to Player--><g id="link_Game_Player"><path codeLine="6" d="M77.2,31 C88.72,31 100.24,31 111.77,31 " fill="none" id="Game-Player" style="stroke:#181818;stroke-width:1.0;"/></g><!--link Player to Pawn--><!--link Game to Location--><g id="link_Game_Location"><path codeLine="8" d="M65,55 C82.66,72.66 106.94,96.94 124.68,114.68 " fill="none" id="Game-Location" style="stroke:#181818;stroke-width:1.0;"/></g><!--link Pawn to Location--><!--link Player to Location--><g id="link_Player_Location"><path codeLine="10" d="M148,55 C148,72.66 148,96.94 148,114.68 " fill="none" id="Player-Location" style="stroke:#181818;stroke-width:1.0;"/></g><!--SRC=[Iyv9B2vMS4_CJULA1ZC3SX8hKujWdCJoF2ZJ9pyviIGpFu-B2wHOGK5N0QOKGa54GEhXyd0j8645NLqa0OWM996Cp9HKi7O0]--></g></svg>