<?xml version="1.0" encoding="us-ascii" standalone="no"?><svg xmlns="http://www.w3.org/2000/svg" xmlns:xlink="http://www.w3.org/1999/xlink" contentStyleType="text/css" height="241px" preserveAspectRatio="none" style="width:507px;height:241px;background:#FFFFFF;" version="1.1" viewBox="0 0 507 241" width="507px" zoomAndPan="magnify"><defs/><g><!--class Game--><g id="elem_Game"><rect codeLine="1" fill="#F1F1F1" height="48" id="Game" rx="2.5" ry="2.5" style="stroke:#181818;stroke-width:0.5;" width="70" x="7" y="16"/><ellipse cx="22" cy="32" fill="#ADD1B2" rx="11" ry="11" style="stroke:#181818;stroke-width:1.0;"/><path d="M24.7656,27.875 Q24.9219,27.6563 25.1094,27.5469 Q25.2969,27.4375 25.5156,27.4375 Q25.8906,27.4375 26.125,27.7031 Q26.3594,27.9531 26.3594,28.5625 L26.3594,30.0156 Q26.3594,30.625 26.125,30.8906 Q25.8906,31.1563 25.5156,31.1563 Q25.1719,31.1563 24.9688,30.9531 Q24.7656,30.7656 24.6563,30.25 Q24.6094,29.8906 24.4219,29.7031 Q24.0938,29.3281 23.4844,29.1094 Q22.875,28.8906 22.25,28.8906 Q21.4844,28.8906 20.8438,29.2188 Q20.2188,29.5469 19.7188,30.2969 Q19.2344,31.0469 19.2344,32.0781 L19.2344,33.1719 Q19.2344,34.4063 20.125,35.2344 Q21.0156,36.0469 22.6094,36.0469 Q23.5469,36.0469 24.2031,35.7969 Q24.5938,35.6406 25.0156,35.2031 Q25.2813,34.9375 25.4219,34.8594 Q25.5781,34.7813 25.7813,34.7813 Q26.1094,34.7813 26.3594,35.0469 Q26.625,35.2969 26.625,35.6406 Q26.625,35.9844 26.2813,36.3906 Q25.7813,36.9688 24.9844,37.2969 Q23.9063,37.75 22.6094,37.75 Q21.0938,37.75 19.8906,37.125 Q18.9063,36.625 18.2188,35.5625 Q17.5313,34.4844 17.5313,33.2031 L17.5313,32.0469 Q17.5313,30.7188 18.1406,29.5781 Q18.7656,28.4219 19.8594,27.8125 Q20.9531,27.1875 22.1875,27.1875 Q22.9219,27.1875 23.5625,27.3594 Q24.2188,27.5156 24.7656,27.875 Z " fill="#000000"/><text fill="#000000" font-family="sans-serif" font-size="14" lengthAdjust="spacing" textLength="38" x="36" y="37.7285">Game</text><line style="stroke:#181818;stroke-width:0.5;" x1="8" x2="76" y1="48" y2="48"/><line style="stroke:#181818;stroke-width:0.5;" x1="8" x2="76" y1="56" y2="56"/></g><!--class Player--><g id="elem_Player"><rect codeLine="2" fill="#F1F1F1" height="65.6094" id="Player" rx="2.5" ry="2.5" style="stroke:#181818;stroke-width:0.5;" width="72" x="160" y="7"/><ellipse cx="175" cy="23" fill="#ADD1B2" rx="11" ry="11" style="stroke:#181818;stroke-width:1.0;"/><path d="M177.7656,18.875 Q177.9219,18.6563 178.1094,18.5469 Q178.2969,18.4375 178.5156,18.4375 Q178.8906,18.4375 179.125,18.7031 Q179.3594,18.9531 179.3594,19.5625 L179.3594,21.0156 Q179.3594,21.625 179.125,21.8906 Q178.8906,22.1563 178.5156,22.1563 Q178.1719,22.1563 177.9688,21.9531 Q177.7656,21.7656 177.6563,21.25 Q177.6094,20.8906 177.4219,20.7031 Q177.0938,20.3281 176.4844,20.1094 Q175.875,19.8906 175.25,19.8906 Q174.4844,19.8906 173.8438,20.2188 Q173.2188,20.5469 172.7188,21.2969 Q172.2344,22.0469 172.2344,23.0781 L172.2344,24.1719 Q172.2344,25.4063 173.125,26.2344 Q174.0156,27.0469 175.6094,27.0469 Q176.5469,27.0469 177.2031,26.7969 Q177.5938,26.6406 178.0156,26.2031 Q178.2813,25.9375 178.4219,25.8594 Q178.5781,25.7813 178.7813,25.7813 Q179.1094,25.7813 179.3594,26.0469 Q179.625,26.2969 179.625,26.6406 Q179.625,26.9844 179.2813,27.3906 Q178.7813,27.9688 177.9844,28.2969 Q176.9063,28.75 175.6094,28.75 Q174.0938,28.75 172.8906,28.125 Q171.9063,27.625 171.2188,26.5625 Q170.5313,25.4844 170.5313,24.2031 L170.5313,23.0469 Q170.5313,21.7188 171.1406,20.5781 Q171.7656,19.4219 172.8594,18.8125 Q173.9531,18.1875 175.1875,18.1875 Q175.9219,18.1875 176.5625,18.3594 Q177.2188,18.5156 177.7656,18.875 Z " fill="#000000"/><text fill="#000000" font-family="sans-serif" font-size="14" lengthAdjust="spacing" textLength="40" x="189" y="28.7285">Player</text><line style="stroke:#181818;stroke-width:0.5;" x1="161" x2="231" y1="39" y2="39"/><text fill="#000000" font-family="sans-serif" font-size="14" lengthAdjust="spacing" textLength="35" x="166" y="57.5332">name</text><line style="stroke:#181818;stroke-width:0.5;" x1="161" x2="231" y1="64.6094" y2="64.6094"/></g><!--class Pawn--><g id="elem_Pawn"><rect codeLine="5" fill="#F1F1F1" height="48" id="Pawn" rx="2.5" ry="2.5" style="stroke:#181818;stroke-width:0.5;" width="66" x="315" y="16"/><ellipse cx="330" cy="32" fill="#ADD1B2" rx="11" ry="11" style="stroke:#181818;stroke-width:1.0;"/><path d="M332.7656,27.875 Q332.9219,27.6563 333.1094,27.5469 Q333.2969,27.4375 333.5156,27.4375 Q333.8906,27.4375 334.125,27.7031 Q334.3594,27.9531 334.3594,28.5625 L334.3594,30.0156 Q334.3594,30.625 334.125,30.8906 Q333.8906,31.1563 333.5156,31.1563 Q333.1719,31.1563 332.9688,30.9531 Q332.7656,30.7656 332.6563,30.25 Q332.6094,29.8906 332.4219,29.7031 Q332.0938,29.3281 331.4844,29.1094 Q330.875,28.8906 330.25,28.8906 Q329.4844,28.8906 328.8438,29.2188 Q328.2188,29.5469 327.7188,30.2969 Q327.2344,31.0469 327.2344,32.0781 L327.2344,33.1719 Q327.2344,34.4063 328.125,35.2344 Q329.0156,36.0469 330.6094,36.0469 Q331.5469,36.0469 332.2031,35.7969 Q332.5938,35.6406 333.0156,35.2031 Q333.2813,34.9375 333.4219,34.8594 Q333.5781,34.7813 333.7813,34.7813 Q334.1094,34.7813 334.3594,35.0469 Q334.625,35.2969 334.625,35.6406 Q334.625,35.9844 334.2813,36.3906 Q333.7813,36.9688 332.9844,37.2969 Q331.9063,37.75 330.6094,37.75 Q329.0938,37.75 327.8906,37.125 Q326.9063,36.625 326.2188,35.5625 Q325.5313,34.4844 325.5313,33.2031 L325.5313,32.0469 Q325.5313,30.7188 326.1406,29.5781 Q326.7656,28.4219 327.8594,27.8125 Q328.9531,27.1875 330.1875,27.1875 Q330.9219,27.1875 331.5625,27.3594 Q332.2188,27.5156 332.7656,27.875 Z " fill="#000000"/><text fill="#000000" font-family="sans-serif" font-size="14" lengthAdjust="spacing" textLength="34" x="344" y="37.7285">Pawn</text><line style="stroke:#181818;stroke-width:0.5;" x1="316" x2="380" y1="48" y2="48"/><line style="stroke:#181818;stroke-width:0.5;" x1="316" x2="380" y1="56" y2="56"/></g><!--class World--><g id="elem_World"><rect codeLine="6" fill="#F1F1F1" height="65.6094" id="World" rx="2.5" ry="2.5" style="stroke:#181818;stroke-width:0.5;" width="134" x="47" y="159.5"/><ellipse cx="91.25" cy="175.5" fill="#ADD1B2" rx="11" ry="11" style="stroke:#181818;stroke-width:1.0;"/><path d="M94.0156,171.375 Q94.1719,171.1563 94.3594,171.0469 Q94.5469,170.9375 94.7656,170.9375 Q95.1406,170.9375 95.375,171.2031 Q95.6094,171.4531 95.6094,172.0625 L95.6094,173.5156 Q95.6094,174.125 95.375,174.3906 Q95.1406,174.6563 94.7656,174.6563 Q94.4219,174.6563 94.2188,174.4531 Q94.0156,174.2656 93.9063,173.75 Q93.8594,173.3906 93.6719,173.2031 Q93.3438,172.8281 92.7344,172.6094 Q92.125,172.3906 91.5,172.3906 Q90.7344,172.3906 90.0938,172.7188 Q89.4688,173.0469 88.9688,173.7969 Q88.4844,174.5469 88.4844,175.5781 L88.4844,176.6719 Q88.4844,177.9063 89.375,178.7344 Q90.2656,179.5469 91.8594,179.5469 Q92.7969,179.5469 93.4531,179.2969 Q93.8438,179.1406 94.2656,178.7031 Q94.5313,178.4375 94.6719,178.3594 Q94.8281,178.2813 95.0313,178.2813 Q95.3594,178.2813 95.6094,178.5469 Q95.875,178.7969 95.875,179.1406 Q95.875,179.4844 95.5313,179.8906 Q95.0313,180.4688 94.2344,180.7969 Q93.1563,181.25 91.8594,181.25 Q90.3438,181.25 89.1406,180.625 Q88.1563,180.125 87.4688,179.0625 Q86.7813,177.9844 86.7813,176.7031 L86.7813,175.5469 Q86.7813,174.2188 87.3906,173.0781 Q88.0156,171.9219 89.1094,171.3125 Q90.2031,170.6875 91.4375,170.6875 Q92.1719,170.6875 92.8125,170.8594 Q93.4688,171.0156 94.0156,171.375 Z " fill="#000000"/><text fill="#000000" font-family="sans-serif" font-size="14" lengthAdjust="spacing" textLength="37" x="111.75" y="181.2285">World</text><line style="stroke:#181818;stroke-width:0.5;" x1="48" x2="180" y1="191.5" y2="191.5"/><text fill="#000000" font-family="sans-serif" font-size="14" lengthAdjust="spacing" textLength="122" x="53" y="210.0332">initial_location_name</text><line style="stroke:#181818;stroke-width:0.5;" x1="48" x2="180" y1="217.1094" y2="217.1094"/></g><!--class Location--><g id="elem_Location"><rect codeLine="9" fill="#F1F1F1" height="83.2188" id="Location" rx="2.5" ry="2.5" style="stroke:#181818;stroke-width:0.5;" width="86" x="292" y="151"/><ellipse cx="307" cy="167" fill="#ADD1B2" rx="11" ry="11" style="stroke:#181818;stroke-width:1.0;"/><path d="M309.7656,162.875 Q309.9219,162.6563 310.1094,162.5469 Q310.2969,162.4375 310.5156,162.4375 Q310.8906,162.4375 311.125,162.7031 Q311.3594,162.9531 311.3594,163.5625 L311.3594,165.0156 Q311.3594,165.625 311.125,165.8906 Q310.8906,166.1563 310.5156,166.1563 Q310.1719,166.1563 309.9688,165.9531 Q309.7656,165.7656 309.6563,165.25 Q309.6094,164.8906 309.4219,164.7031 Q309.0938,164.3281 308.4844,164.1094 Q307.875,163.8906 307.25,163.8906 Q306.4844,163.8906 305.8438,164.2188 Q305.2188,164.5469 304.7188,165.2969 Q304.2344,166.0469 304.2344,167.0781 L304.2344,168.1719 Q304.2344,169.4063 305.125,170.2344 Q306.0156,171.0469 307.6094,171.0469 Q308.5469,171.0469 309.2031,170.7969 Q309.5938,170.6406 310.0156,170.2031 Q310.2813,169.9375 310.4219,169.8594 Q310.5781,169.7813 310.7813,169.7813 Q311.1094,169.7813 311.3594,170.0469 Q311.625,170.2969 311.625,170.6406 Q311.625,170.9844 311.2813,171.3906 Q310.7813,171.9688 309.9844,172.2969 Q308.9063,172.75 307.6094,172.75 Q306.0938,172.75 304.8906,172.125 Q303.9063,171.625 303.2188,170.5625 Q302.5313,169.4844 302.5313,168.2031 L302.5313,167.0469 Q302.5313,165.7188 303.1406,164.5781 Q303.7656,163.4219 304.8594,162.8125 Q305.9531,162.1875 307.1875,162.1875 Q307.9219,162.1875 308.5625,162.3594 Q309.2188,162.5156 309.7656,162.875 Z " fill="#000000"/><text fill="#000000" font-family="sans-serif" font-size="14" lengthAdjust="spacing" textLength="54" x="321" y="172.7285">Location</text><line style="stroke:#181818;stroke-width:0.5;" x1="293" x2="377" y1="183" y2="183"/><text fill="#000000" font-family="sans-serif" font-size="14" lengthAdjust="spacing" textLength="35" x="298" y="201.5332">name</text><text fill="#000000" font-family="sans-serif" font-size="14" lengthAdjust="spacing" textLength="69" x="298" y="219.1426">description</text><line style="stroke:#181818;stroke-width:0.5;" x1="293" x2="377" y1="226.2188" y2="226.2188"/></g><!--link Game to Player--><g id="link_Game_Player"><path codeLine="14" d="M77.33,40 C102.02,40 134.88,40 159.76,40 " fill="none" id="Game-Player" style="stroke:#181818;stroke-width:1.0;"/><polygon fill="#000000" points="94.5,28.1758,103.5451,31.1147,103.5451,25.2369,94.5,28.1758" style="stroke:#000000;stroke-width:1.0;"/><text fill="#000000" font-family="sans-serif" font-size="13" lengthAdjust="spacing" textLength="33" x="108.5" y="33.4951">Plays</text><text fill="#000000" font-family="sans-serif" font-size="13" lengthAdjust="spacing" textLength="7" x="85.0352" y="54.9003">1</text><text fill="#000000" font-family="sans-serif" font-size="13" lengthAdjust="spacing" textLength="20" x="132.067" y="54.7769">1..*</text></g><!--link Player to Pawn--><g id="link_Player_Pawn"><path codeLine="15" d="M232.02,40 C257.13,40 290.38,40 314.83,40 " fill="none" id="Player-Pawn" style="stroke:#181818;stroke-width:1.0;"/><polygon fill="#000000" points="259.5,28.1758,250.4549,25.2369,250.4549,31.1147,259.5,28.1758" style="stroke:#000000;stroke-width:1.0;"/><text fill="#000000" font-family="sans-serif" font-size="13" lengthAdjust="spacing" textLength="33" x="263.5" y="33.4951">Owns</text><text fill="#000000" font-family="sans-serif" font-size="13" lengthAdjust="spacing" textLength="7" x="240.1283" y="54.9862">1</text><text fill="#000000" font-family="sans-serif" font-size="13" lengthAdjust="spacing" textLength="7" x="299.9627" y="55.0025">1</text></g><!--link Game to World--><g id="link_Game_World"><path codeLine="16" d="M53.09,64.19 C65.28,89.66 84.94,130.76 98.62,159.34 " fill="none" id="Game-World" style="stroke:#181818;stroke-width:1.0;"/><polygon fill="#000000" points="88.1582,116.686,86.905,107.2584,81.6029,109.7955,88.1582,116.686" style="stroke:#000000;stroke-width:1.0;"/><text fill="#000000" font-family="sans-serif" font-size="13" lengthAdjust="spacing" textLength="70" x="95" y="117.4951">Is played on</text><text fill="#000000" font-family="sans-serif" font-size="13" lengthAdjust="spacing" textLength="7" x="47.9401" y="85.5743">1</text><text fill="#000000" font-family="sans-serif" font-size="13" lengthAdjust="spacing" textLength="7" x="70.076" y="148.4224">1</text></g><!--link World to Location--><g id="link_World_Location"><path codeLine="17" d="M181.21,192.5 C217.15,192.5 260.34,192.5 291.79,192.5 " fill="none" id="World-Location" style="stroke:#181818;stroke-width:1.0;"/><polygon fill="#000000" points="214.5,180.6758,205.4549,177.7369,205.4549,183.6147,214.5,180.6758" style="stroke:#000000;stroke-width:1.0;"/><text fill="#000000" font-family="sans-serif" font-size="13" lengthAdjust="spacing" textLength="49" x="218.5" y="185.9951">contains</text><text fill="#000000" font-family="sans-serif" font-size="13" lengthAdjust="spacing" textLength="7" x="189.0933" y="206.793">1</text><text fill="#000000" font-family="sans-serif" font-size="13" lengthAdjust="spacing" textLength="5" x="279.0352" y="207.079">*</text></g><!--link Pawn to Location--><g id="link_Pawn_Location"><path codeLine="18" d="M346,64.19 C344,87.27 340.9,123.18 338.5,150.99 " fill="none" id="Pawn-Location" style="stroke:#181818;stroke-width:1.0;"/><polygon fill="#000000" points="346.5696,117.1572,350.2762,108.3987,344.4202,107.8927,346.5696,117.1572" style="stroke:#000000;stroke-width:1.0;"/><text fill="#000000" font-family="sans-serif" font-size="13" lengthAdjust="spacing" textLength="24" x="356" y="117.4951">is in</text></g><!--link Location to Location--><g id="link_Location_Location"><path codeLine="19" d="M378.31,177.68 C397,176.47 413,181.41 413,192.5 C413,203.59 397,208.53 378.31,207.32 " fill="none" id="Location-Location" style="stroke:#181818;stroke-width:1.0;"/><text fill="#000000" font-family="sans-serif" font-size="13" lengthAdjust="spacing" textLength="75" x="419" y="197.9951">connected to</text></g><!--SRC=[LL3B2i8m4BpdAvOSXHPwBTAh2ABUF8SqXq1CIXCe8lwxarUD2u5bPdPcY3J2Upg9fs8ohNSZNcgbDoECZVYdCcApPNsurSn5ewqEMfYBao9ePw_jIGLRkxZCoijLBv62biLuuWC8JXqU3Nr_uBNAc1PFHrQ0Laa3JyK8ijjcFKtL3O8kIw7BXKSwUrgYoKmeDR4CPz7F4eFqlVj8qjaWT39FMJ1kMEtn1w1sw9_6iLKo83AuBm00]--></g></svg>