<?xml version="1.0" encoding="us-ascii" standalone="no"?><svg xmlns="http://www.w3.org/2000/svg" xmlns:xlink="http://www.w3.org/1999/xlink" contentStyleType="text/css" height="257px" preserveAspectRatio="none" style="width:393px;height:257px;background:#FFFFFF;" version="1.1" viewBox="0 0 393 257" width="393px" zoomAndPan="magnify"><defs/><g><!--class BookFacade--><g id="elem_BookFacade"><rect codeLine="3" fill="#F1F1F1" height="83.2188" id="BookFacade" rx="2.5" ry="2.5" style="stroke:#181818;stroke-width:0.5;" width="112" x="7" y="7"/><ellipse cx="22" cy="23" fill="#ADD1B2" rx="11" ry="11" style="stroke:#181818;stroke-width:1.0;"/><path d="M24.7656,18.875 Q24.9219,18.6563 25.1094,18.5469 Q25.2969,18.4375 25.5156,18.4375 Q25.8906,18.4375 26.125,18.7031 Q26.3594,18.9531 26.3594,19.5625 L26.3594,21.0156 Q26.3594,21.625 26.125,21.8906 Q25.8906,22.1563 25.5156,22.1563 Q25.1719,22.1563 24.9688,21.9531 Q24.7656,21.7656 24.6563,21.25 Q24.6094,20.8906 24.4219,20.7031 Q24.0938,20.3281 23.4844,20.1094 Q22.875,19.8906 22.25,19.8906 Q21.4844,19.8906 20.8438,20.2188 Q20.2188,20.5469 19.7188,21.2969 Q19.2344,22.0469 19.2344,23.0781 L19.2344,24.1719 Q19.2344,25.4063 20.125,26.2344 Q21.0156,27.0469 22.6094,27.0469 Q23.5469,27.0469 24.2031,26.7969 Q24.5938,26.6406 25.0156,26.2031 Q25.2813,25.9375 25.4219,25.8594 Q25.5781,25.7813 25.7813,25.7813 Q26.1094,25.7813 26.3594,26.0469 Q26.625,26.2969 26.625,26.6406 Q26.625,26.9844 26.2813,27.3906 Q25.7813,27.9688 24.9844,28.2969 Q23.9063,28.75 22.6094,28.75 Q21.0938,28.75 19.8906,28.125 Q18.9063,27.625 18.2188,26.5625 Q17.5313,25.4844 17.5313,24.2031 L17.5313,23.0469 Q17.5313,21.7188 18.1406,20.5781 Q18.7656,19.4219 19.8594,18.8125 Q20.9531,18.1875 22.1875,18.1875 Q22.9219,18.1875 23.5625,18.3594 Q24.2188,18.5156 24.7656,18.875 Z " fill="#000000"/><text fill="#000000" font-family="sans-serif" font-size="14" lengthAdjust="spacing" textLength="80" x="36" y="28.7285">BookFacade</text><line style="stroke:#181818;stroke-width:0.5;" x1="8" x2="118" y1="39" y2="39"/><line style="stroke:#181818;stroke-width:0.5;" x1="8" x2="118" y1="47" y2="47"/><ellipse cx="18" cy="61.3047" fill="#84BE84" rx="3" ry="3" style="stroke:#038048;stroke-width:1.0;"/><text fill="#000000" font-family="sans-serif" font-size="14" lengthAdjust="spacing" textLength="81" x="27" y="65.5332">save(): None</text><ellipse cx="18" cy="78.9141" fill="#84BE84" rx="3" ry="3" style="stroke:#038048;stroke-width:1.0;"/><text fill="#000000" font-family="sans-serif" font-size="14" lengthAdjust="spacing" textLength="79" x="27" y="83.1426">print(): None</text></g><!--class BookDatabase--><g id="elem_BookDatabase"><rect codeLine="9" fill="#F1F1F1" height="65.6094" id="BookDatabase" rx="2.5" ry="2.5" style="stroke:#181818;stroke-width:0.5;" width="125" x="135.5" y="167.5"/><ellipse cx="150.5" cy="183.5" fill="#ADD1B2" rx="11" ry="11" style="stroke:#181818;stroke-width:1.0;"/><path d="M153.2656,179.375 Q153.4219,179.1563 153.6094,179.0469 Q153.7969,178.9375 154.0156,178.9375 Q154.3906,178.9375 154.625,179.2031 Q154.8594,179.4531 154.8594,180.0625 L154.8594,181.5156 Q154.8594,182.125 154.625,182.3906 Q154.3906,182.6563 154.0156,182.6563 Q153.6719,182.6563 153.4688,182.4531 Q153.2656,182.2656 153.1563,181.75 Q153.1094,181.3906 152.9219,181.2031 Q152.5938,180.8281 151.9844,180.6094 Q151.375,180.3906 150.75,180.3906 Q149.9844,180.3906 149.3438,180.7188 Q148.7188,181.0469 148.2188,181.7969 Q147.7344,182.5469 147.7344,183.5781 L147.7344,184.6719 Q147.7344,185.9063 148.625,186.7344 Q149.5156,187.5469 151.1094,187.5469 Q152.0469,187.5469 152.7031,187.2969 Q153.0938,187.1406 153.5156,186.7031 Q153.7813,186.4375 153.9219,186.3594 Q154.0781,186.2813 154.2813,186.2813 Q154.6094,186.2813 154.8594,186.5469 Q155.125,186.7969 155.125,187.1406 Q155.125,187.4844 154.7813,187.8906 Q154.2813,188.4688 153.4844,188.7969 Q152.4063,189.25 151.1094,189.25 Q149.5938,189.25 148.3906,188.625 Q147.4063,188.125 146.7188,187.0625 Q146.0313,185.9844 146.0313,184.7031 L146.0313,183.5469 Q146.0313,182.2188 146.6406,181.0781 Q147.2656,179.9219 148.3594,179.3125 Q149.4531,178.6875 150.6875,178.6875 Q151.4219,178.6875 152.0625,178.8594 Q152.7188,179.0156 153.2656,179.375 Z " fill="#000000"/><text fill="#000000" font-family="sans-serif" font-size="14" lengthAdjust="spacing" textLength="93" x="164.5" y="189.2285">BookDatabase</text><line style="stroke:#181818;stroke-width:0.5;" x1="136.5" x2="259.5" y1="199.5" y2="199.5"/><line style="stroke:#181818;stroke-width:0.5;" x1="136.5" x2="259.5" y1="207.5" y2="207.5"/><ellipse cx="146.5" cy="221.8047" fill="#84BE84" rx="3" ry="3" style="stroke:#038048;stroke-width:1.0;"/><text fill="#000000" font-family="sans-serif" font-size="14" lengthAdjust="spacing" textLength="81" x="155.5" y="226.0332">save(): None</text></g><!--class BookPrinter--><g id="elem_BookPrinter"><rect codeLine="13" fill="#F1F1F1" height="65.6094" id="BookPrinter" rx="2.5" ry="2.5" style="stroke:#181818;stroke-width:0.5;" width="106" x="154" y="15.5"/><ellipse cx="169" cy="31.5" fill="#ADD1B2" rx="11" ry="11" style="stroke:#181818;stroke-width:1.0;"/><path d="M171.7656,27.375 Q171.9219,27.1563 172.1094,27.0469 Q172.2969,26.9375 172.5156,26.9375 Q172.8906,26.9375 173.125,27.2031 Q173.3594,27.4531 173.3594,28.0625 L173.3594,29.5156 Q173.3594,30.125 173.125,30.3906 Q172.8906,30.6563 172.5156,30.6563 Q172.1719,30.6563 171.9688,30.4531 Q171.7656,30.2656 171.6563,29.75 Q171.6094,29.3906 171.4219,29.2031 Q171.0938,28.8281 170.4844,28.6094 Q169.875,28.3906 169.25,28.3906 Q168.4844,28.3906 167.8438,28.7188 Q167.2188,29.0469 166.7188,29.7969 Q166.2344,30.5469 166.2344,31.5781 L166.2344,32.6719 Q166.2344,33.9063 167.125,34.7344 Q168.0156,35.5469 169.6094,35.5469 Q170.5469,35.5469 171.2031,35.2969 Q171.5938,35.1406 172.0156,34.7031 Q172.2813,34.4375 172.4219,34.3594 Q172.5781,34.2813 172.7813,34.2813 Q173.1094,34.2813 173.3594,34.5469 Q173.625,34.7969 173.625,35.1406 Q173.625,35.4844 173.2813,35.8906 Q172.7813,36.4688 171.9844,36.7969 Q170.9063,37.25 169.6094,37.25 Q168.0938,37.25 166.8906,36.625 Q165.9063,36.125 165.2188,35.0625 Q164.5313,33.9844 164.5313,32.7031 L164.5313,31.5469 Q164.5313,30.2188 165.1406,29.0781 Q165.7656,27.9219 166.8594,27.3125 Q167.9531,26.6875 169.1875,26.6875 Q169.9219,26.6875 170.5625,26.8594 Q171.2188,27.0156 171.7656,27.375 Z " fill="#000000"/><text fill="#000000" font-family="sans-serif" font-size="14" lengthAdjust="spacing" textLength="74" x="183" y="37.2285">BookPrinter</text><line style="stroke:#181818;stroke-width:0.5;" x1="155" x2="259" y1="47.5" y2="47.5"/><line style="stroke:#181818;stroke-width:0.5;" x1="155" x2="259" y1="55.5" y2="55.5"/><ellipse cx="165" cy="69.8047" fill="#84BE84" rx="3" ry="3" style="stroke:#038048;stroke-width:1.0;"/><text fill="#000000" font-family="sans-serif" font-size="14" lengthAdjust="spacing" textLength="79" x="174" y="74.0332">print(): None</text></g><!--class Book--><g id="elem_Book"><rect codeLine="18" fill="#F1F1F1" height="100.8281" id="Book" rx="2.5" ry="2.5" style="stroke:#181818;stroke-width:0.5;" width="91" x="295.5" y="150"/><ellipse cx="322.65" cy="166" fill="#ADD1B2" rx="11" ry="11" style="stroke:#181818;stroke-width:1.0;"/><path d="M325.4156,161.875 Q325.5719,161.6563 325.7594,161.5469 Q325.9469,161.4375 326.1656,161.4375 Q326.5406,161.4375 326.775,161.7031 Q327.0094,161.9531 327.0094,162.5625 L327.0094,164.0156 Q327.0094,164.625 326.775,164.8906 Q326.5406,165.1563 326.1656,165.1563 Q325.8219,165.1563 325.6188,164.9531 Q325.4156,164.7656 325.3063,164.25 Q325.2594,163.8906 325.0719,163.7031 Q324.7438,163.3281 324.1344,163.1094 Q323.525,162.8906 322.9,162.8906 Q322.1344,162.8906 321.4938,163.2188 Q320.8688,163.5469 320.3688,164.2969 Q319.8844,165.0469 319.8844,166.0781 L319.8844,167.1719 Q319.8844,168.4063 320.775,169.2344 Q321.6656,170.0469 323.2594,170.0469 Q324.1969,170.0469 324.8531,169.7969 Q325.2438,169.6406 325.6656,169.2031 Q325.9313,168.9375 326.0719,168.8594 Q326.2281,168.7813 326.4313,168.7813 Q326.7594,168.7813 327.0094,169.0469 Q327.275,169.2969 327.275,169.6406 Q327.275,169.9844 326.9313,170.3906 Q326.4313,170.9688 325.6344,171.2969 Q324.5563,171.75 323.2594,171.75 Q321.7438,171.75 320.5406,171.125 Q319.5563,170.625 318.8688,169.5625 Q318.1813,168.4844 318.1813,167.2031 L318.1813,166.0469 Q318.1813,164.7188 318.7906,163.5781 Q319.4156,162.4219 320.5094,161.8125 Q321.6031,161.1875 322.8375,161.1875 Q323.5719,161.1875 324.2125,161.3594 Q324.8688,161.5156 325.4156,161.875 Z " fill="#000000"/><text fill="#000000" font-family="sans-serif" font-size="14" lengthAdjust="spacing" textLength="32" x="339.35" y="171.7285">Book</text><line style="stroke:#181818;stroke-width:0.5;" x1="296.5" x2="385.5" y1="182" y2="182"/><ellipse cx="306.5" cy="196.3047" fill="none" rx="3" ry="3" style="stroke:#038048;stroke-width:1.0;"/><text fill="#000000" font-family="sans-serif" font-size="14" lengthAdjust="spacing" textLength="46" x="315.5" y="200.5332">title: str</text><ellipse cx="306.5" cy="213.9141" fill="none" rx="3" ry="3" style="stroke:#038048;stroke-width:1.0;"/><text fill="#000000" font-family="sans-serif" font-size="14" lengthAdjust="spacing" textLength="65" x="315.5" y="218.1426">author: str</text><ellipse cx="306.5" cy="231.5234" fill="none" rx="3" ry="3" style="stroke:#038048;stroke-width:1.0;"/><text fill="#000000" font-family="sans-serif" font-size="14" lengthAdjust="spacing" textLength="62" x="315.5" y="235.752">pages: int</text><line style="stroke:#181818;stroke-width:0.5;" x1="296.5" x2="385.5" y1="242.8281" y2="242.8281"/></g><!--link BookPrinter to BookDatabase--><!--link BookFacade to BookDatabase--><g id="link_BookFacade_BookDatabase"><path codeLine="26" d="M99.53,90.09 C121.4,114.39 144.7862,140.3702 165.1262,162.9702 " fill="none" id="BookFacade-to-BookDatabase" style="stroke:#181818;stroke-width:1.0;"/><polygon fill="#181818" points="169.14,167.43,166.0925,158.0645,165.7952,163.7135,160.1461,163.4162,169.14,167.43" style="stroke:#181818;stroke-width:1.0;"/></g><!--link BookFacade to BookPrinter--><g id="link_BookFacade_BookPrinter"><path codeLine="27" d="M119.25,48.5 C130.79,48.5 136.33,48.5 147.87,48.5 " fill="none" id="BookFacade-to-BookPrinter" style="stroke:#181818;stroke-width:1.0;"/><polygon fill="#181818" points="153.87,48.5,144.87,44.5,148.87,48.5,144.87,52.5,153.87,48.5" style="stroke:#181818;stroke-width:1.0;"/></g><!--link BookDatabase to Book--><g id="link_BookDatabase_Book"><path codeLine="28" d="M260.56,200.5 C272.19,200.5 277.81,200.5 289.44,200.5 " fill="none" id="BookDatabase-to-Book" style="stroke:#181818;stroke-width:1.0;"/><polygon fill="#181818" points="295.44,200.5,286.44,196.5,290.44,200.5,286.44,204.5,295.44,200.5" style="stroke:#181818;stroke-width:1.0;"/></g><!--link BookPrinter to Book--><g id="link_BookPrinter_Book"><path codeLine="29" d="M235.75,81.68 C253.51,101.56 272.6731,123.0151 292.7431,145.4851 " fill="none" id="BookPrinter-to-Book" style="stroke:#181818;stroke-width:1.0;"/><polygon fill="#181818" points="296.74,149.96,293.7279,140.5831,293.4092,146.2309,287.7614,145.9123,296.74,149.96" style="stroke:#181818;stroke-width:1.0;"/></g><!--SRC=[XP2_3i8W4CPtdk96ZUaBC3WOusZSZSC9bq9ie86h3iPtbrgia3IHZU- -xtT_L8Snmixxsm4LQeAdWFGs4U-qMaiuUaUJqWVhU9PUGh1lYGs5554pPO-CLupBd1JwEKyZxvDUn5VUhuajToGXSfZ-EB3neH1wR2bAIAWH8Ce-ZVOFTpPMQtANPbjDAue3_2zbegZspRMwPTRU]--></g></svg>