<?xml version="1.0" encoding="us-ascii" standalone="no"?><svg xmlns="http://www.w3.org/2000/svg" xmlns:xlink="http://www.w3.org/1999/xlink" contentStyleType="text/css" height="240px" preserveAspectRatio="none" style="width:633px;height:240px;background:#FFFFFF;" version="1.1" viewBox="0 0 633 240" width="633px" zoomAndPan="magnify"><defs/><g><!--class BookFacade--><g id="elem_BookFacade"><rect codeLine="3" fill="#F1F1F1" height="100.8281" id="BookFacade" rx="2.5" ry="2.5" style="stroke:#181818;stroke-width:0.5;" width="112" x="131" y="7"/><ellipse cx="146" cy="23" fill="#ADD1B2" rx="11" ry="11" style="stroke:#181818;stroke-width:1.0;"/><path d="M148.7656,18.875 Q148.9219,18.6563 149.1094,18.5469 Q149.2969,18.4375 149.5156,18.4375 Q149.8906,18.4375 150.125,18.7031 Q150.3594,18.9531 150.3594,19.5625 L150.3594,21.0156 Q150.3594,21.625 150.125,21.8906 Q149.8906,22.1563 149.5156,22.1563 Q149.1719,22.1563 148.9688,21.9531 Q148.7656,21.7656 148.6563,21.25 Q148.6094,20.8906 148.4219,20.7031 Q148.0938,20.3281 147.4844,20.1094 Q146.875,19.8906 146.25,19.8906 Q145.4844,19.8906 144.8438,20.2188 Q144.2188,20.5469 143.7188,21.2969 Q143.2344,22.0469 143.2344,23.0781 L143.2344,24.1719 Q143.2344,25.4063 144.125,26.2344 Q145.0156,27.0469 146.6094,27.0469 Q147.5469,27.0469 148.2031,26.7969 Q148.5938,26.6406 149.0156,26.2031 Q149.2813,25.9375 149.4219,25.8594 Q149.5781,25.7813 149.7813,25.7813 Q150.1094,25.7813 150.3594,26.0469 Q150.625,26.2969 150.625,26.6406 Q150.625,26.9844 150.2813,27.3906 Q149.7813,27.9688 148.9844,28.2969 Q147.9063,28.75 146.6094,28.75 Q145.0938,28.75 143.8906,28.125 Q142.9063,27.625 142.2188,26.5625 Q141.5313,25.4844 141.5313,24.2031 L141.5313,23.0469 Q141.5313,21.7188 142.1406,20.5781 Q142.7656,19.4219 143.8594,18.8125 Q144.9531,18.1875 146.1875,18.1875 Q146.9219,18.1875 147.5625,18.3594 Q148.2188,18.5156 148.7656,18.875 Z " fill="#000000"/><text fill="#000000" font-family="sans-serif" font-size="14" lengthAdjust="spacing" textLength="80" x="160" y="28.7285">BookFacade</text><line style="stroke:#181818;stroke-width:0.5;" x1="132" x2="242" y1="39" y2="39"/><text fill="#000000" font-family="sans-serif" font-size="14" lengthAdjust="spacing" textLength="71" x="137" y="57.5332">book: Book</text><line style="stroke:#181818;stroke-width:0.5;" x1="132" x2="242" y1="64.6094" y2="64.6094"/><text fill="#000000" font-family="sans-serif" font-size="14" lengthAdjust="spacing" textLength="81" x="137" y="83.1426">save(): None</text><text fill="#000000" font-family="sans-serif" font-size="14" lengthAdjust="spacing" textLength="79" x="137" y="100.752">print(): None</text></g><!--class BookDatabase--><g id="elem_BookDatabase"><rect codeLine="10" fill="#F1F1F1" height="65.6094" id="BookDatabase" rx="2.5" ry="2.5" style="stroke:#181818;stroke-width:0.5;" width="164" x="204" y="168"/><ellipse cx="236.55" cy="184" fill="#ADD1B2" rx="11" ry="11" style="stroke:#181818;stroke-width:1.0;"/><path d="M239.3156,179.875 Q239.4719,179.6563 239.6594,179.5469 Q239.8469,179.4375 240.0656,179.4375 Q240.4406,179.4375 240.675,179.7031 Q240.9094,179.9531 240.9094,180.5625 L240.9094,182.0156 Q240.9094,182.625 240.675,182.8906 Q240.4406,183.1563 240.0656,183.1563 Q239.7219,183.1563 239.5188,182.9531 Q239.3156,182.7656 239.2063,182.25 Q239.1594,181.8906 238.9719,181.7031 Q238.6438,181.3281 238.0344,181.1094 Q237.425,180.8906 236.8,180.8906 Q236.0344,180.8906 235.3938,181.2188 Q234.7688,181.5469 234.2688,182.2969 Q233.7844,183.0469 233.7844,184.0781 L233.7844,185.1719 Q233.7844,186.4063 234.675,187.2344 Q235.5656,188.0469 237.1594,188.0469 Q238.0969,188.0469 238.7531,187.7969 Q239.1438,187.6406 239.5656,187.2031 Q239.8313,186.9375 239.9719,186.8594 Q240.1281,186.7813 240.3313,186.7813 Q240.6594,186.7813 240.9094,187.0469 Q241.175,187.2969 241.175,187.6406 Q241.175,187.9844 240.8313,188.3906 Q240.3313,188.9688 239.5344,189.2969 Q238.4563,189.75 237.1594,189.75 Q235.6438,189.75 234.4406,189.125 Q233.4563,188.625 232.7688,187.5625 Q232.0813,186.4844 232.0813,185.2031 L232.0813,184.0469 Q232.0813,182.7188 232.6906,181.5781 Q233.3156,180.4219 234.4094,179.8125 Q235.5031,179.1875 236.7375,179.1875 Q237.4719,179.1875 238.1125,179.3594 Q238.7688,179.5156 239.3156,179.875 Z " fill="#000000"/><text fill="#000000" font-family="sans-serif" font-size="14" lengthAdjust="spacing" textLength="93" x="254.45" y="189.7285">BookDatabase</text><line style="stroke:#181818;stroke-width:0.5;" x1="205" x2="367" y1="200" y2="200"/><line style="stroke:#181818;stroke-width:0.5;" x1="205" x2="367" y1="208" y2="208"/><text fill="#000000" font-family="sans-serif" font-size="14" lengthAdjust="spacing" textLength="152" x="210" y="226.5332">save(book: Book): None</text></g><!--class BookPrinter--><g id="elem_BookPrinter"><rect codeLine="14" fill="#F1F1F1" height="65.6094" id="BookPrinter" rx="2.5" ry="2.5" style="stroke:#181818;stroke-width:0.5;" width="162" x="7" y="168"/><ellipse cx="47.2" cy="184" fill="#ADD1B2" rx="11" ry="11" style="stroke:#181818;stroke-width:1.0;"/><path d="M49.9656,179.875 Q50.1219,179.6563 50.3094,179.5469 Q50.4969,179.4375 50.7156,179.4375 Q51.0906,179.4375 51.325,179.7031 Q51.5594,179.9531 51.5594,180.5625 L51.5594,182.0156 Q51.5594,182.625 51.325,182.8906 Q51.0906,183.1563 50.7156,183.1563 Q50.3719,183.1563 50.1688,182.9531 Q49.9656,182.7656 49.8563,182.25 Q49.8094,181.8906 49.6219,181.7031 Q49.2938,181.3281 48.6844,181.1094 Q48.075,180.8906 47.45,180.8906 Q46.6844,180.8906 46.0438,181.2188 Q45.4188,181.5469 44.9188,182.2969 Q44.4344,183.0469 44.4344,184.0781 L44.4344,185.1719 Q44.4344,186.4063 45.325,187.2344 Q46.2156,188.0469 47.8094,188.0469 Q48.7469,188.0469 49.4031,187.7969 Q49.7938,187.6406 50.2156,187.2031 Q50.4813,186.9375 50.6219,186.8594 Q50.7781,186.7813 50.9813,186.7813 Q51.3094,186.7813 51.5594,187.0469 Q51.825,187.2969 51.825,187.6406 Q51.825,187.9844 51.4813,188.3906 Q50.9813,188.9688 50.1844,189.2969 Q49.1063,189.75 47.8094,189.75 Q46.2938,189.75 45.0906,189.125 Q44.1063,188.625 43.4188,187.5625 Q42.7313,186.4844 42.7313,185.2031 L42.7313,184.0469 Q42.7313,182.7188 43.3406,181.5781 Q43.9656,180.4219 45.0594,179.8125 Q46.1531,179.1875 47.3875,179.1875 Q48.1219,179.1875 48.7625,179.3594 Q49.4188,179.5156 49.9656,179.875 Z " fill="#000000"/><text fill="#000000" font-family="sans-serif" font-size="14" lengthAdjust="spacing" textLength="74" x="66.8" y="189.7285">BookPrinter</text><line style="stroke:#181818;stroke-width:0.5;" x1="8" x2="168" y1="200" y2="200"/><line style="stroke:#181818;stroke-width:0.5;" x1="8" x2="168" y1="208" y2="208"/><text fill="#000000" font-family="sans-serif" font-size="14" lengthAdjust="spacing" textLength="150" x="13" y="226.5332">print(book: Book): None</text></g><path d="M403.5,183 L403.5,192.1758 L362,220.8047 L403.5,200.1758 L403.5,209.3516 A0,0 0 0 0 403.5,209.3516 L626.5,209.3516 A0,0 0 0 0 626.5,209.3516 L626.5,193 L616.5,183 L403.5,183 A0,0 0 0 0 403.5,183 " fill="#FEFFDD" style="stroke:#181818;stroke-width:0.5;"/><path d="M616.5,183 L616.5,193 L626.5,193 L616.5,183 " fill="#FEFFDD" style="stroke:#181818;stroke-width:0.5;"/><text fill="#000000" font-family="sans-serif" font-size="13" lengthAdjust="spacing" textLength="202" x="409.5" y="201.4951">self.book_database.save(self.book)</text><!--class Book--><g id="elem_Book"><rect codeLine="23" fill="#F1F1F1" height="100.8281" id="Book" rx="2.5" ry="2.5" style="stroke:#181818;stroke-width:0.5;" width="77" x="18.5" y="7"/><ellipse cx="39.35" cy="23" fill="#ADD1B2" rx="11" ry="11" style="stroke:#181818;stroke-width:1.0;"/><path d="M42.1156,18.875 Q42.2719,18.6563 42.4594,18.5469 Q42.6469,18.4375 42.8656,18.4375 Q43.2406,18.4375 43.475,18.7031 Q43.7094,18.9531 43.7094,19.5625 L43.7094,21.0156 Q43.7094,21.625 43.475,21.8906 Q43.2406,22.1563 42.8656,22.1563 Q42.5219,22.1563 42.3188,21.9531 Q42.1156,21.7656 42.0063,21.25 Q41.9594,20.8906 41.7719,20.7031 Q41.4438,20.3281 40.8344,20.1094 Q40.225,19.8906 39.6,19.8906 Q38.8344,19.8906 38.1938,20.2188 Q37.5688,20.5469 37.0688,21.2969 Q36.5844,22.0469 36.5844,23.0781 L36.5844,24.1719 Q36.5844,25.4063 37.475,26.2344 Q38.3656,27.0469 39.9594,27.0469 Q40.8969,27.0469 41.5531,26.7969 Q41.9438,26.6406 42.3656,26.2031 Q42.6313,25.9375 42.7719,25.8594 Q42.9281,25.7813 43.1313,25.7813 Q43.4594,25.7813 43.7094,26.0469 Q43.975,26.2969 43.975,26.6406 Q43.975,26.9844 43.6313,27.3906 Q43.1313,27.9688 42.3344,28.2969 Q41.2563,28.75 39.9594,28.75 Q38.4438,28.75 37.2406,28.125 Q36.2563,27.625 35.5688,26.5625 Q34.8813,25.4844 34.8813,24.2031 L34.8813,23.0469 Q34.8813,21.7188 35.4906,20.5781 Q36.1156,19.4219 37.2094,18.8125 Q38.3031,18.1875 39.5375,18.1875 Q40.2719,18.1875 40.9125,18.3594 Q41.5688,18.5156 42.1156,18.875 Z " fill="#000000"/><text fill="#000000" font-family="sans-serif" font-size="14" lengthAdjust="spacing" textLength="32" x="54.65" y="28.7285">Book</text><line style="stroke:#181818;stroke-width:0.5;" x1="19.5" x2="94.5" y1="39" y2="39"/><text fill="#000000" font-family="sans-serif" font-size="14" lengthAdjust="spacing" textLength="46" x="24.5" y="57.5332">title: str</text><text fill="#000000" font-family="sans-serif" font-size="14" lengthAdjust="spacing" textLength="65" x="24.5" y="75.1426">author: str</text><text fill="#000000" font-family="sans-serif" font-size="14" lengthAdjust="spacing" textLength="62" x="24.5" y="92.752">pages: int</text><line style="stroke:#181818;stroke-width:0.5;" x1="19.5" x2="94.5" y1="99.8281" y2="99.8281"/></g><!--link BookFacade to BookDatabase--><g id="link_BookFacade_BookDatabase"><path codeLine="30" d="M221.9,108.39 C235.71,128.12 247.7415,145.313 260.0215,162.873 " fill="none" id="BookFacade-to-BookDatabase" style="stroke:#181818;stroke-width:1.0;"/><polygon fill="#181818" points="263.46,167.79,261.5802,158.1222,260.5946,163.6925,255.0242,162.7069,263.46,167.79" style="stroke:#181818;stroke-width:1.0;"/></g><!--link BookFacade to BookPrinter--><g id="link_BookFacade_BookPrinter"><path codeLine="31" d="M152.1,108.39 C138.29,128.12 126.2585,145.313 113.9785,162.873 " fill="none" id="BookFacade-to-BookPrinter" style="stroke:#181818;stroke-width:1.0;"/><polygon fill="#181818" points="110.54,167.79,118.9758,162.7069,113.4054,163.6925,112.4198,158.1222,110.54,167.79" style="stroke:#181818;stroke-width:1.0;"/></g><!--reverse link Book to BookFacade--><g id="link_Book_BookFacade"><path codeLine="32" d="M101.59,57.5 C113.38,57.5 119.16,57.5 130.94,57.5 " fill="none" id="Book-backto-BookFacade" style="stroke:#181818;stroke-width:1.0;"/><polygon fill="#181818" points="95.59,57.5,104.59,61.5,100.59,57.5,104.59,53.5,95.59,57.5" style="stroke:#181818;stroke-width:1.0;"/></g><!--SRC=[RP4z3i8m38NtdC8Z7Te3H8W18KR43P3RkZ-YIb1YM11t9p6bIQLcyxFUzrwIPaBluMZj_OmDjWHl1U7KGT0Yo-ZnHRj2myKQ4k7XHiEByb6ARKyya0l-Pa6UaB56_uSA9P4pTx9S8rWmAMRB4ap6Ce4R-u71TgiyhMFKBvEcheg0MpilAwcnw8KYqq9avJNcV1vv8WsUdOpuvC6wD3-m9wyXT8nzLFQAPNbODThQpLUL5UpBx1FK5m00]--></g></svg>