<?xml version="1.0" encoding="us-ascii" standalone="no"?><svg xmlns="http://www.w3.org/2000/svg" xmlns:xlink="http://www.w3.org/1999/xlink" contentStyleType="text/css" height="381px" preserveAspectRatio="none" style="width:474px;height:381px;background:#FFFFFF;" version="1.1" viewBox="0 0 474 381" width="474px" zoomAndPan="magnify"><defs/><g><!--class EmployeeType--><g id="elem_EmployeeType"><rect codeLine="2" fill="#F1F1F1" height="100.8281" id="EmployeeType" rx="2.5" ry="2.5" style="stroke:#181818;stroke-width:0.5;" width="126" x="7" y="264.5"/><ellipse cx="22" cy="280.5" fill="#EB937F" rx="11" ry="11" style="stroke:#181818;stroke-width:1.0;"/><path d="M20.8594,281.2969 L20.8594,283.7969 L25.1875,283.7969 L25.1875,282.875 Q25.1875,282.2656 25.4219,282 Q25.6719,281.7344 26.0469,281.7344 Q26.4219,281.7344 26.6563,282 Q26.8906,282.2656 26.8906,282.875 L26.8906,285.5 L18.8906,285.5 Q18.2656,285.5 18,285.2656 Q17.75,285.0313 17.75,284.6406 Q17.75,284.2656 18.0156,284.0313 Q18.2813,283.7969 18.8906,283.7969 L19.1563,283.7969 L19.1563,277.1406 L18.8906,277.1406 Q18.2656,277.1406 18,276.9063 Q17.75,276.6719 17.75,276.2813 Q17.75,275.9063 18,275.6719 Q18.2656,275.4375 18.8906,275.4375 L26.5156,275.4375 L26.5156,278.0313 Q26.5156,278.6406 26.2813,278.9063 Q26.0625,279.1563 25.6719,279.1563 Q25.2969,279.1563 25.0625,278.9063 Q24.8281,278.6406 24.8281,278.0313 L24.8281,277.1406 L20.8594,277.1406 L20.8594,279.5938 L22.3438,279.5938 Q22.3438,278.9375 22.4688,278.75 Q22.7344,278.3438 23.2031,278.3438 Q23.5781,278.3438 23.8125,278.6094 Q24.0469,278.8594 24.0469,279.4688 L24.0469,281.4375 Q24.0469,281.9844 23.9219,282.1719 Q23.6563,282.5625 23.2031,282.5625 Q22.7344,282.5625 22.4688,282.1563 Q22.3438,281.9688 22.3438,281.2969 L20.8594,281.2969 Z " fill="#000000"/><text fill="#000000" font-family="sans-serif" font-size="14" lengthAdjust="spacing" textLength="94" x="36" y="286.2285">EmployeeType</text><line style="stroke:#181818;stroke-width:0.5;" x1="8" x2="132" y1="296.5" y2="296.5"/><text fill="#000000" font-family="sans-serif" font-size="14" lengthAdjust="spacing" textLength="66" x="13" y="315.0332">REGULAR</text><text fill="#000000" font-family="sans-serif" font-size="14" lengthAdjust="spacing" textLength="58" x="13" y="332.6426">HOURED</text><text fill="#000000" font-family="sans-serif" font-size="14" lengthAdjust="spacing" textLength="97" x="13" y="350.252">COMMISIONED</text><line style="stroke:#181818;stroke-width:0.5;" x1="8" x2="132" y1="357.3281" y2="357.3281"/></g><!--class Project--><g id="elem_Project"><rect codeLine="8" fill="#F1F1F1" height="83.2188" id="Project" rx="2.5" ry="2.5" style="stroke:#181818;stroke-width:0.5;" width="88" x="310" y="60"/><ellipse cx="330.4" cy="76" fill="#ADD1B2" rx="11" ry="11" style="stroke:#181818;stroke-width:1.0;"/><path d="M333.1656,71.875 Q333.3219,71.6563 333.5094,71.5469 Q333.6969,71.4375 333.9156,71.4375 Q334.2906,71.4375 334.525,71.7031 Q334.7594,71.9531 334.7594,72.5625 L334.7594,74.0156 Q334.7594,74.625 334.525,74.8906 Q334.2906,75.1563 333.9156,75.1563 Q333.5719,75.1563 333.3688,74.9531 Q333.1656,74.7656 333.0563,74.25 Q333.0094,73.8906 332.8219,73.7031 Q332.4938,73.3281 331.8844,73.1094 Q331.275,72.8906 330.65,72.8906 Q329.8844,72.8906 329.2438,73.2188 Q328.6188,73.5469 328.1188,74.2969 Q327.6344,75.0469 327.6344,76.0781 L327.6344,77.1719 Q327.6344,78.4063 328.525,79.2344 Q329.4156,80.0469 331.0094,80.0469 Q331.9469,80.0469 332.6031,79.7969 Q332.9938,79.6406 333.4156,79.2031 Q333.6813,78.9375 333.8219,78.8594 Q333.9781,78.7813 334.1813,78.7813 Q334.5094,78.7813 334.7594,79.0469 Q335.025,79.2969 335.025,79.6406 Q335.025,79.9844 334.6813,80.3906 Q334.1813,80.9688 333.3844,81.2969 Q332.3063,81.75 331.0094,81.75 Q329.4938,81.75 328.2906,81.125 Q327.3063,80.625 326.6188,79.5625 Q325.9313,78.4844 325.9313,77.2031 L325.9313,76.0469 Q325.9313,74.7188 326.5406,73.5781 Q327.1656,72.4219 328.2594,71.8125 Q329.3531,71.1875 330.5875,71.1875 Q331.3219,71.1875 331.9625,71.3594 Q332.6188,71.5156 333.1656,71.875 Z " fill="#000000"/><text fill="#000000" font-family="sans-serif" font-size="14" lengthAdjust="spacing" textLength="44" x="345.6" y="81.7285">Project</text><line style="stroke:#181818;stroke-width:0.5;" x1="311" x2="397" y1="92" y2="92"/><text fill="#000000" font-family="sans-serif" font-size="14" lengthAdjust="spacing" textLength="59" x="316" y="110.5332">name: str</text><text fill="#000000" font-family="sans-serif" font-size="14" lengthAdjust="spacing" textLength="76" x="316" y="128.1426">assets: float</text><line style="stroke:#181818;stroke-width:0.5;" x1="311" x2="397" y1="135.2188" y2="135.2188"/></g><!--class Employee--><g id="elem_Employee"><rect codeLine="13" fill="#F1F1F1" height="188.875" id="Employee" rx="2.5" ry="2.5" style="stroke:#181818;stroke-width:0.5;" width="162" x="113" y="7"/><ellipse cx="158.75" cy="23" fill="#ADD1B2" rx="11" ry="11" style="stroke:#181818;stroke-width:1.0;"/><path d="M161.5156,18.875 Q161.6719,18.6563 161.8594,18.5469 Q162.0469,18.4375 162.2656,18.4375 Q162.6406,18.4375 162.875,18.7031 Q163.1094,18.9531 163.1094,19.5625 L163.1094,21.0156 Q163.1094,21.625 162.875,21.8906 Q162.6406,22.1563 162.2656,22.1563 Q161.9219,22.1563 161.7188,21.9531 Q161.5156,21.7656 161.4063,21.25 Q161.3594,20.8906 161.1719,20.7031 Q160.8438,20.3281 160.2344,20.1094 Q159.625,19.8906 159,19.8906 Q158.2344,19.8906 157.5938,20.2188 Q156.9688,20.5469 156.4688,21.2969 Q155.9844,22.0469 155.9844,23.0781 L155.9844,24.1719 Q155.9844,25.4063 156.875,26.2344 Q157.7656,27.0469 159.3594,27.0469 Q160.2969,27.0469 160.9531,26.7969 Q161.3438,26.6406 161.7656,26.2031 Q162.0313,25.9375 162.1719,25.8594 Q162.3281,25.7813 162.5313,25.7813 Q162.8594,25.7813 163.1094,26.0469 Q163.375,26.2969 163.375,26.6406 Q163.375,26.9844 163.0313,27.3906 Q162.5313,27.9688 161.7344,28.2969 Q160.6563,28.75 159.3594,28.75 Q157.8438,28.75 156.6406,28.125 Q155.6563,27.625 154.9688,26.5625 Q154.2813,25.4844 154.2813,24.2031 L154.2813,23.0469 Q154.2813,21.7188 154.8906,20.5781 Q155.5156,19.4219 156.6094,18.8125 Q157.7031,18.1875 158.9375,18.1875 Q159.6719,18.1875 160.3125,18.3594 Q160.9688,18.5156 161.5156,18.875 Z " fill="#000000"/><text fill="#000000" font-family="sans-serif" font-size="14" lengthAdjust="spacing" textLength="62" x="179.25" y="28.7285">Employee</text><line style="stroke:#181818;stroke-width:0.5;" x1="114" x2="274" y1="39" y2="39"/><text fill="#000000" font-family="sans-serif" font-size="14" lengthAdjust="spacing" textLength="34" x="119" y="57.5332">id: int</text><text fill="#000000" font-family="sans-serif" font-size="14" lengthAdjust="spacing" textLength="59" x="119" y="75.1426">name: str</text><text fill="#000000" font-family="sans-serif" font-size="14" lengthAdjust="spacing" textLength="73" x="119" y="92.752">salary: float</text><text fill="#000000" font-family="sans-serif" font-size="14" lengthAdjust="spacing" textLength="77" x="119" y="110.3613">overtime: int</text><line style="stroke:#181818;stroke-width:0.5;" x1="114" x2="274" y1="117.4375" y2="117.4375"/><text fill="#000000" font-family="sans-serif" font-size="14" lengthAdjust="spacing" textLength="132" x="119" y="135.9707">calculate_pay(): float</text><text fill="#000000" font-family="sans-serif" font-size="14" lengthAdjust="spacing" textLength="115" x="119" y="153.5801">report_hours(): int</text><text fill="#000000" font-family="sans-serif" font-size="14" lengthAdjust="spacing" textLength="125" x="119" y="171.1895">print_report(): None</text><text fill="#000000" font-family="sans-serif" font-size="14" lengthAdjust="spacing" textLength="150" x="119" y="188.7988">save_employee(): None</text></g><!--class AugurDatabase--><g id="elem_AugurDatabase"><rect codeLine="24" fill="#F1F1F1" height="118.4375" id="AugurDatabase" rx="2.5" ry="2.5" style="stroke:#181818;stroke-width:0.5;" width="299" x="168.5" y="256"/><ellipse cx="264.25" cy="272" fill="#ADD1B2" rx="11" ry="11" style="stroke:#181818;stroke-width:1.0;"/><path d="M267.0156,267.875 Q267.1719,267.6563 267.3594,267.5469 Q267.5469,267.4375 267.7656,267.4375 Q268.1406,267.4375 268.375,267.7031 Q268.6094,267.9531 268.6094,268.5625 L268.6094,270.0156 Q268.6094,270.625 268.375,270.8906 Q268.1406,271.1563 267.7656,271.1563 Q267.4219,271.1563 267.2188,270.9531 Q267.0156,270.7656 266.9063,270.25 Q266.8594,269.8906 266.6719,269.7031 Q266.3438,269.3281 265.7344,269.1094 Q265.125,268.8906 264.5,268.8906 Q263.7344,268.8906 263.0938,269.2188 Q262.4688,269.5469 261.9688,270.2969 Q261.4844,271.0469 261.4844,272.0781 L261.4844,273.1719 Q261.4844,274.4063 262.375,275.2344 Q263.2656,276.0469 264.8594,276.0469 Q265.7969,276.0469 266.4531,275.7969 Q266.8438,275.6406 267.2656,275.2031 Q267.5313,274.9375 267.6719,274.8594 Q267.8281,274.7813 268.0313,274.7813 Q268.3594,274.7813 268.6094,275.0469 Q268.875,275.2969 268.875,275.6406 Q268.875,275.9844 268.5313,276.3906 Q268.0313,276.9688 267.2344,277.2969 Q266.1563,277.75 264.8594,277.75 Q263.3438,277.75 262.1406,277.125 Q261.1563,276.625 260.4688,275.5625 Q259.7813,274.4844 259.7813,273.2031 L259.7813,272.0469 Q259.7813,270.7188 260.3906,269.5781 Q261.0156,268.4219 262.1094,267.8125 Q263.2031,267.1875 264.4375,267.1875 Q265.1719,267.1875 265.8125,267.3594 Q266.4688,267.5156 267.0156,267.875 Z " fill="#000000"/><text fill="#000000" font-family="sans-serif" font-size="14" lengthAdjust="spacing" textLength="99" x="284.75" y="277.7285">AugurDatabase</text><line style="stroke:#181818;stroke-width:0.5;" x1="169.5" x2="466.5" y1="288" y2="288"/><line style="stroke:#181818;stroke-width:0.5;" x1="169.5" x2="466.5" y1="296" y2="296"/><text fill="#000000" font-family="sans-serif" font-size="14" lengthAdjust="spacing" textLength="157" x="174.5" y="314.5332">start_transaction(): None</text><text fill="#000000" font-family="sans-serif" font-size="14" lengthAdjust="spacing" textLength="173" x="174.5" y="332.1426">commit_transaction(): None</text><text fill="#000000" font-family="sans-serif" font-size="14" lengthAdjust="spacing" textLength="178" x="174.5" y="349.752">rollback_transaction(): None</text><text fill="#000000" font-family="sans-serif" font-size="14" lengthAdjust="spacing" textLength="287" x="174.5" y="367.3613">store_field(obj_id: int, name: str, value): None</text></g><!--link Employee to EmployeeType--><g id="link_Employee_EmployeeType"><path codeLine="31" d="M139.07,196.19 C125.27,219.73 114.0346,238.894 102.0746,259.294 " fill="none" id="Employee-to-EmployeeType" style="stroke:#181818;stroke-width:1.0;"/><polygon fill="#181818" points="99.04,264.47,107.0426,258.729,101.5688,260.1566,100.1412,254.6829,99.04,264.47" style="stroke:#181818;stroke-width:1.0;"/></g><!--link Employee to Project--><g id="link_Employee_Project"><path codeLine="32" d="M275.25,101.5 C286.73,101.5 292.22,101.5 303.7,101.5 " fill="none" id="Employee-to-Project" style="stroke:#181818;stroke-width:1.0;"/><polygon fill="#181818" points="309.7,101.5,300.7,97.5,304.7,101.5,300.7,105.5,309.7,101.5" style="stroke:#181818;stroke-width:1.0;"/></g><!--link Employee to AugurDatabase--><g id="link_Employee_AugurDatabase"><path codeLine="33" d="M248.93,196.19 C260.85,216.52 270.0842,232.2747 280.9242,250.7547 " fill="none" id="Employee-to-AugurDatabase" style="stroke:#181818;stroke-width:1.0;"/><polygon fill="#181818" points="283.96,255.93,282.8566,246.1431,281.4302,251.6172,275.9561,250.1908,283.96,255.93" style="stroke:#181818;stroke-width:1.0;"/></g><!--SRC=[TL71QiCm3BttAtpieFs170fb3LjXRKQsdetYgfixnmgs70XZ_xuaYzC4LfyalVUaPmbjA4LQLeOQnFUcGl6z4EtBqwVJopRlu-VibAUxFdpC3eVzspuxjldFOg4CU2zU7LrHyQ2qK68YFBi-Qt5aduYB8U2R94uSDFgS26tv7xq70ww9-gv2DJhM7ISg51WL333A2fhbmvJii2B7yfE2ynqI9PLh8_c7TlKZMHpcrIXnS3SYe-zj-0Xk1mm5-6ZUCxGZs87re5YJdJLKL9RwFkp8c0BKrrs2Pt8eBnhDUKd5LGwhMjtsj18rc80Jh-Dsr-lDxBWJP1FFDcVFFlWB]--></g></svg>