<?xml version="1.0" encoding="us-ascii" standalone="no"?><svg xmlns="http://www.w3.org/2000/svg" xmlns:xlink="http://www.w3.org/1999/xlink" contentStyleType="text/css" height="478px" preserveAspectRatio="none" style="width:933px;height:478px;background:#FFFFFF;" version="1.1" viewBox="0 0 933 478" width="933px" zoomAndPan="magnify"><defs/><g><!--cluster adventure::v4c--><g id="cluster_adventure::v4c"><path d="M8.5,6 L115.5,6 A3.75,3.75 0 0 1 118,8.5 L125,29.6094 L923.5,29.6094 A2.5,2.5 0 0 1 926,32.1094 L926,468.5 A2.5,2.5 0 0 1 923.5,471 L8.5,471 A2.5,2.5 0 0 1 6,468.5 L6,8.5 A2.5,2.5 0 0 1 8.5,6 " fill="none" style="stroke:#000000;stroke-width:1.5;"/><line style="stroke:#000000;stroke-width:1.5;" x1="6" x2="125" y1="29.6094" y2="29.6094"/><text fill="#000000" font-family="sans-serif" font-size="14" font-weight="bold" lengthAdjust="spacing" textLength="106" x="10" y="22.5332">adventure::v4c</text></g><!--class Action--><g id="elem_Action"><rect codeLine="6" fill="#F1F1F1" height="83.2188" id="Action" rx="2.5" ry="2.5" style="stroke:#181818;stroke-width:0.5;" width="177" x="289.5" y="238"/><ellipse cx="354.25" cy="254" fill="#ADD1B2" rx="11" ry="11" style="stroke:#181818;stroke-width:1.0;"/><path d="M357.0156,249.875 Q357.1719,249.6563 357.3594,249.5469 Q357.5469,249.4375 357.7656,249.4375 Q358.1406,249.4375 358.375,249.7031 Q358.6094,249.9531 358.6094,250.5625 L358.6094,252.0156 Q358.6094,252.625 358.375,252.8906 Q358.1406,253.1563 357.7656,253.1563 Q357.4219,253.1563 357.2188,252.9531 Q357.0156,252.7656 356.9063,252.25 Q356.8594,251.8906 356.6719,251.7031 Q356.3438,251.3281 355.7344,251.1094 Q355.125,250.8906 354.5,250.8906 Q353.7344,250.8906 353.0938,251.2188 Q352.4688,251.5469 351.9688,252.2969 Q351.4844,253.0469 351.4844,254.0781 L351.4844,255.1719 Q351.4844,256.4063 352.375,257.2344 Q353.2656,258.0469 354.8594,258.0469 Q355.7969,258.0469 356.4531,257.7969 Q356.8438,257.6406 357.2656,257.2031 Q357.5313,256.9375 357.6719,256.8594 Q357.8281,256.7813 358.0313,256.7813 Q358.3594,256.7813 358.6094,257.0469 Q358.875,257.2969 358.875,257.6406 Q358.875,257.9844 358.5313,258.3906 Q358.0313,258.9688 357.2344,259.2969 Q356.1563,259.75 354.8594,259.75 Q353.3438,259.75 352.1406,259.125 Q351.1563,258.625 350.4688,257.5625 Q349.7813,256.4844 349.7813,255.2031 L349.7813,254.0469 Q349.7813,252.7188 350.3906,251.5781 Q351.0156,250.4219 352.1094,249.8125 Q353.2031,249.1875 354.4375,249.1875 Q355.1719,249.1875 355.8125,249.3594 Q356.4688,249.5156 357.0156,249.875 Z " fill="#000000"/><text fill="#000000" font-family="sans-serif" font-size="14" lengthAdjust="spacing" textLength="39" x="374.75" y="259.7285">Action</text><line style="stroke:#181818;stroke-width:0.5;" x1="290.5" x2="465.5" y1="270" y2="270"/><text fill="#000000" font-family="sans-serif" font-size="14" font-style="italic" lengthAdjust="spacing" textLength="93" x="295.5" y="288.5332">description: str</text><line style="stroke:#181818;stroke-width:0.5;" x1="290.5" x2="465.5" y1="295.6094" y2="295.6094"/><text fill="#000000" font-family="sans-serif" font-size="14" font-style="italic" lengthAdjust="spacing" textLength="165" x="295.5" y="314.1426">perform(instigator: Player)</text></g><!--class MoveAction--><g id="elem_MoveAction"><rect codeLine="11" fill="#F1F1F1" height="65.6094" id="MoveAction" rx="2.5" ry="2.5" style="stroke:#181818;stroke-width:0.5;" width="170" x="465" y="381"/><ellipse cx="509.25" cy="397" fill="#ADD1B2" rx="11" ry="11" style="stroke:#181818;stroke-width:1.0;"/><path d="M512.0156,392.875 Q512.1719,392.6563 512.3594,392.5469 Q512.5469,392.4375 512.7656,392.4375 Q513.1406,392.4375 513.375,392.7031 Q513.6094,392.9531 513.6094,393.5625 L513.6094,395.0156 Q513.6094,395.625 513.375,395.8906 Q513.1406,396.1563 512.7656,396.1563 Q512.4219,396.1563 512.2188,395.9531 Q512.0156,395.7656 511.9063,395.25 Q511.8594,394.8906 511.6719,394.7031 Q511.3438,394.3281 510.7344,394.1094 Q510.125,393.8906 509.5,393.8906 Q508.7344,393.8906 508.0938,394.2188 Q507.4688,394.5469 506.9688,395.2969 Q506.4844,396.0469 506.4844,397.0781 L506.4844,398.1719 Q506.4844,399.4063 507.375,400.2344 Q508.2656,401.0469 509.8594,401.0469 Q510.7969,401.0469 511.4531,400.7969 Q511.8438,400.6406 512.2656,400.2031 Q512.5313,399.9375 512.6719,399.8594 Q512.8281,399.7813 513.0313,399.7813 Q513.3594,399.7813 513.6094,400.0469 Q513.875,400.2969 513.875,400.6406 Q513.875,400.9844 513.5313,401.3906 Q513.0313,401.9688 512.2344,402.2969 Q511.1563,402.75 509.8594,402.75 Q508.3438,402.75 507.1406,402.125 Q506.1563,401.625 505.4688,400.5625 Q504.7813,399.4844 504.7813,398.2031 L504.7813,397.0469 Q504.7813,395.7188 505.3906,394.5781 Q506.0156,393.4219 507.1094,392.8125 Q508.2031,392.1875 509.4375,392.1875 Q510.1719,392.1875 510.8125,392.3594 Q511.4688,392.5156 512.0156,392.875 Z " fill="#000000"/><text fill="#000000" font-family="sans-serif" font-size="14" lengthAdjust="spacing" textLength="73" x="529.75" y="402.7285">MoveAction</text><line style="stroke:#181818;stroke-width:0.5;" x1="466" x2="634" y1="413" y2="413"/><line style="stroke:#181818;stroke-width:0.5;" x1="466" x2="634" y1="421" y2="421"/><text fill="#000000" font-family="sans-serif" font-size="14" lengthAdjust="spacing" textLength="71" x="471" y="439.5332">perform(...)</text></g><!--class SkipTurnAction--><g id="elem_SkipTurnAction"><rect codeLine="16" fill="#F1F1F1" height="65.6094" id="SkipTurnAction" rx="2.5" ry="2.5" style="stroke:#181818;stroke-width:0.5;" width="170" x="260" y="381"/><ellipse cx="293.9" cy="397" fill="#ADD1B2" rx="11" ry="11" style="stroke:#181818;stroke-width:1.0;"/><path d="M296.6656,392.875 Q296.8219,392.6563 297.0094,392.5469 Q297.1969,392.4375 297.4156,392.4375 Q297.7906,392.4375 298.025,392.7031 Q298.2594,392.9531 298.2594,393.5625 L298.2594,395.0156 Q298.2594,395.625 298.025,395.8906 Q297.7906,396.1563 297.4156,396.1563 Q297.0719,396.1563 296.8688,395.9531 Q296.6656,395.7656 296.5563,395.25 Q296.5094,394.8906 296.3219,394.7031 Q295.9938,394.3281 295.3844,394.1094 Q294.775,393.8906 294.15,393.8906 Q293.3844,393.8906 292.7438,394.2188 Q292.1188,394.5469 291.6188,395.2969 Q291.1344,396.0469 291.1344,397.0781 L291.1344,398.1719 Q291.1344,399.4063 292.025,400.2344 Q292.9156,401.0469 294.5094,401.0469 Q295.4469,401.0469 296.1031,400.7969 Q296.4938,400.6406 296.9156,400.2031 Q297.1813,399.9375 297.3219,399.8594 Q297.4781,399.7813 297.6813,399.7813 Q298.0094,399.7813 298.2594,400.0469 Q298.525,400.2969 298.525,400.6406 Q298.525,400.9844 298.1813,401.3906 Q297.6813,401.9688 296.8844,402.2969 Q295.8063,402.75 294.5094,402.75 Q292.9938,402.75 291.7906,402.125 Q290.8063,401.625 290.1188,400.5625 Q289.4313,399.4844 289.4313,398.2031 L289.4313,397.0469 Q289.4313,395.7188 290.0406,394.5781 Q290.6656,393.4219 291.7594,392.8125 Q292.8531,392.1875 294.0875,392.1875 Q294.8219,392.1875 295.4625,392.3594 Q296.1188,392.5156 296.6656,392.875 Z " fill="#000000"/><text fill="#000000" font-family="sans-serif" font-size="14" lengthAdjust="spacing" textLength="96" x="312.1" y="402.7285">SkipTurnAction</text><line style="stroke:#181818;stroke-width:0.5;" x1="261" x2="429" y1="413" y2="413"/><line style="stroke:#181818;stroke-width:0.5;" x1="261" x2="429" y1="421" y2="421"/><text fill="#000000" font-family="sans-serif" font-size="14" lengthAdjust="spacing" textLength="71" x="266" y="439.5332">perform(...)</text></g><!--class SelectActionStrategy--><g id="elem_SelectActionStrategy"><rect codeLine="22" fill="#87CEFA" height="65.6094" id="SelectActionStrategy" rx="2.5" ry="2.5" style="stroke:#00008B;stroke-width:2.0;" width="346" x="564" y="77"/><ellipse cx="667.25" cy="93" fill="#A9DCDF" rx="11" ry="11" style="stroke:#181818;stroke-width:1.0;"/><path d="M669.4375,94.7656 L665.2969,94.7656 L664.875,95.7969 L665.2969,95.7969 Q665.9063,95.7969 666.1719,96.0313 Q666.4375,96.2656 666.4375,96.6563 Q666.4375,97.0313 666.1719,97.2656 Q665.9063,97.5 665.2969,97.5 L663,97.5 Q662.3906,97.5 662.1406,97.2656 Q661.875,97.0313 661.875,96.6406 Q661.875,96.2656 662.1563,96.0313 Q662.4219,95.7813 663.0469,95.7969 L665.7188,89.1406 L664.6094,89.1406 Q664,89.1406 663.7344,88.9063 Q663.4688,88.6719 663.4688,88.2813 Q663.4688,87.9063 663.7344,87.6719 Q664,87.4375 664.6094,87.4375 L668.2813,87.4375 L671.6719,95.7969 Q672.2656,95.7969 672.4531,95.9375 Q672.8438,96.2031 672.8438,96.6563 Q672.8438,97.0313 672.5781,97.2656 Q672.3281,97.5 671.7188,97.5 L669.4219,97.5 Q668.8125,97.5 668.5469,97.2656 Q668.2813,97.0313 668.2813,96.6406 Q668.2813,96.2656 668.5469,96.0313 Q668.8125,95.7969 669.4219,95.7969 L669.8438,95.7969 L669.4375,94.7656 Z M668.7188,93.0625 L667.3594,89.6875 L665.9844,93.0625 L668.7188,93.0625 Z " fill="#000000"/><text fill="#000000" font-family="sans-serif" font-size="14" font-style="italic" lengthAdjust="spacing" textLength="131" x="687.75" y="98.7285">SelectActionStrategy</text><line style="stroke:#00008B;stroke-width:2.0;" x1="565" x2="909" y1="109" y2="109"/><line style="stroke:#00008B;stroke-width:2.0;" x1="565" x2="909" y1="117" y2="117"/><text fill="#000000" font-family="sans-serif" font-size="14" font-style="italic" lengthAdjust="spacing" textLength="334" x="570" y="135.5332">select_action(player: Player, actions: Actions): Action</text></g><!--class SelectRandomAction--><g id="elem_SelectRandomAction"><rect codeLine="26" fill="#87CEFA" height="65.6094" id="SelectRandomAction" rx="2.5" ry="2.5" style="stroke:#00008B;stroke-width:2.0;" width="170" x="510" y="246.5"/><ellipse cx="528.15" cy="262.5" fill="#ADD1B2" rx="11" ry="11" style="stroke:#181818;stroke-width:1.0;"/><path d="M530.9156,258.375 Q531.0719,258.1563 531.2594,258.0469 Q531.4469,257.9375 531.6656,257.9375 Q532.0406,257.9375 532.275,258.2031 Q532.5094,258.4531 532.5094,259.0625 L532.5094,260.5156 Q532.5094,261.125 532.275,261.3906 Q532.0406,261.6563 531.6656,261.6563 Q531.3219,261.6563 531.1188,261.4531 Q530.9156,261.2656 530.8063,260.75 Q530.7594,260.3906 530.5719,260.2031 Q530.2438,259.8281 529.6344,259.6094 Q529.025,259.3906 528.4,259.3906 Q527.6344,259.3906 526.9938,259.7188 Q526.3688,260.0469 525.8688,260.7969 Q525.3844,261.5469 525.3844,262.5781 L525.3844,263.6719 Q525.3844,264.9063 526.275,265.7344 Q527.1656,266.5469 528.7594,266.5469 Q529.6969,266.5469 530.3531,266.2969 Q530.7438,266.1406 531.1656,265.7031 Q531.4313,265.4375 531.5719,265.3594 Q531.7281,265.2813 531.9313,265.2813 Q532.2594,265.2813 532.5094,265.5469 Q532.775,265.7969 532.775,266.1406 Q532.775,266.4844 532.4313,266.8906 Q531.9313,267.4688 531.1344,267.7969 Q530.0563,268.25 528.7594,268.25 Q527.2438,268.25 526.0406,267.625 Q525.0563,267.125 524.3688,266.0625 Q523.6813,264.9844 523.6813,263.7031 L523.6813,262.5469 Q523.6813,261.2188 524.2906,260.0781 Q524.9156,258.9219 526.0094,258.3125 Q527.1031,257.6875 528.3375,257.6875 Q529.0719,257.6875 529.7125,257.8594 Q530.3688,258.0156 530.9156,258.375 Z " fill="#000000"/><text fill="#000000" font-family="sans-serif" font-size="14" lengthAdjust="spacing" textLength="131" x="542.85" y="268.2285">SelectRandomAction</text><line style="stroke:#00008B;stroke-width:2.0;" x1="511" x2="679" y1="278.5" y2="278.5"/><line style="stroke:#00008B;stroke-width:2.0;" x1="511" x2="679" y1="286.5" y2="286.5"/><text fill="#000000" font-family="sans-serif" font-size="14" lengthAdjust="spacing" textLength="152" x="516" y="305.0332">select_action(...): Action</text></g><!--class SelectActionInteractively--><g id="elem_SelectActionInteractively"><rect codeLine="30" fill="#87CEFA" height="65.6094" id="SelectActionInteractively" rx="2.5" ry="2.5" style="stroke:#00008B;stroke-width:2.0;" width="185" x="715.5" y="246.5"/><ellipse cx="730.5" cy="262.5" fill="#ADD1B2" rx="11" ry="11" style="stroke:#181818;stroke-width:1.0;"/><path d="M733.2656,258.375 Q733.4219,258.1563 733.6094,258.0469 Q733.7969,257.9375 734.0156,257.9375 Q734.3906,257.9375 734.625,258.2031 Q734.8594,258.4531 734.8594,259.0625 L734.8594,260.5156 Q734.8594,261.125 734.625,261.3906 Q734.3906,261.6563 734.0156,261.6563 Q733.6719,261.6563 733.4688,261.4531 Q733.2656,261.2656 733.1563,260.75 Q733.1094,260.3906 732.9219,260.2031 Q732.5938,259.8281 731.9844,259.6094 Q731.375,259.3906 730.75,259.3906 Q729.9844,259.3906 729.3438,259.7188 Q728.7188,260.0469 728.2188,260.7969 Q727.7344,261.5469 727.7344,262.5781 L727.7344,263.6719 Q727.7344,264.9063 728.625,265.7344 Q729.5156,266.5469 731.1094,266.5469 Q732.0469,266.5469 732.7031,266.2969 Q733.0938,266.1406 733.5156,265.7031 Q733.7813,265.4375 733.9219,265.3594 Q734.0781,265.2813 734.2813,265.2813 Q734.6094,265.2813 734.8594,265.5469 Q735.125,265.7969 735.125,266.1406 Q735.125,266.4844 734.7813,266.8906 Q734.2813,267.4688 733.4844,267.7969 Q732.4063,268.25 731.1094,268.25 Q729.5938,268.25 728.3906,267.625 Q727.4063,267.125 726.7188,266.0625 Q726.0313,264.9844 726.0313,263.7031 L726.0313,262.5469 Q726.0313,261.2188 726.6406,260.0781 Q727.2656,258.9219 728.3594,258.3125 Q729.4531,257.6875 730.6875,257.6875 Q731.4219,257.6875 732.0625,257.8594 Q732.7188,258.0156 733.2656,258.375 Z " fill="#000000"/><text fill="#000000" font-family="sans-serif" font-size="14" lengthAdjust="spacing" textLength="153" x="744.5" y="268.2285">SelectActionInteractively</text><line style="stroke:#00008B;stroke-width:2.0;" x1="716.5" x2="899.5" y1="278.5" y2="278.5"/><line style="stroke:#00008B;stroke-width:2.0;" x1="716.5" x2="899.5" y1="286.5" y2="286.5"/><text fill="#000000" font-family="sans-serif" font-size="14" lengthAdjust="spacing" textLength="152" x="721.5" y="305.0332">select_action(...): Action</text></g><!--class Player--><g id="elem_Player"><rect codeLine="38" fill="#F1F1F1" height="136.0469" id="Player" rx="2.5" ry="2.5" style="stroke:#181818;stroke-width:0.5;" width="302" x="227" y="42"/><ellipse cx="353.75" cy="58" fill="#ADD1B2" rx="11" ry="11" style="stroke:#181818;stroke-width:1.0;"/><path d="M356.5156,53.875 Q356.6719,53.6563 356.8594,53.5469 Q357.0469,53.4375 357.2656,53.4375 Q357.6406,53.4375 357.875,53.7031 Q358.1094,53.9531 358.1094,54.5625 L358.1094,56.0156 Q358.1094,56.625 357.875,56.8906 Q357.6406,57.1563 357.2656,57.1563 Q356.9219,57.1563 356.7188,56.9531 Q356.5156,56.7656 356.4063,56.25 Q356.3594,55.8906 356.1719,55.7031 Q355.8438,55.3281 355.2344,55.1094 Q354.625,54.8906 354,54.8906 Q353.2344,54.8906 352.5938,55.2188 Q351.9688,55.5469 351.4688,56.2969 Q350.9844,57.0469 350.9844,58.0781 L350.9844,59.1719 Q350.9844,60.4063 351.875,61.2344 Q352.7656,62.0469 354.3594,62.0469 Q355.2969,62.0469 355.9531,61.7969 Q356.3438,61.6406 356.7656,61.2031 Q357.0313,60.9375 357.1719,60.8594 Q357.3281,60.7813 357.5313,60.7813 Q357.8594,60.7813 358.1094,61.0469 Q358.375,61.2969 358.375,61.6406 Q358.375,61.9844 358.0313,62.3906 Q357.5313,62.9688 356.7344,63.2969 Q355.6563,63.75 354.3594,63.75 Q352.8438,63.75 351.6406,63.125 Q350.6563,62.625 349.9688,61.5625 Q349.2813,60.4844 349.2813,59.2031 L349.2813,58.0469 Q349.2813,56.7188 349.8906,55.5781 Q350.5156,54.4219 351.6094,53.8125 Q352.7031,53.1875 353.9375,53.1875 Q354.6719,53.1875 355.3125,53.3594 Q355.9688,53.5156 356.5156,53.875 Z " fill="#000000"/><text fill="#000000" font-family="sans-serif" font-size="14" lengthAdjust="spacing" textLength="40" x="374.25" y="63.7285">Player</text><line style="stroke:#181818;stroke-width:0.5;" x1="228" x2="528" y1="74" y2="74"/><text fill="#000000" font-family="sans-serif" font-size="14" lengthAdjust="spacing" textLength="75" x="233" y="92.5332">pawn: Pawn</text><line style="stroke:#181818;stroke-width:0.5;" x1="228" x2="528" y1="99.6094" y2="99.6094"/><text fill="#000000" font-family="sans-serif" font-size="14" lengthAdjust="spacing" textLength="111" x="233" y="118.1426">location: Location</text><text fill="#000000" font-family="sans-serif" font-size="14" lengthAdjust="spacing" textLength="117" x="233" y="135.752">actions: list[Action]</text><text fill="#000000" font-family="sans-serif" font-size="14" lengthAdjust="spacing" textLength="70" x="233" y="153.3613">take_turn()</text><text fill="#000000" font-family="sans-serif" font-size="14" font-weight="bold" lengthAdjust="spacing" textLength="290" x="233" y="170.9707">select_action(actions: list[Action]): Action</text></g><!--class Pawn--><g id="elem_Pawn"><rect codeLine="48" fill="#F1F1F1" height="100.8281" id="Pawn" rx="2.5" ry="2.5" style="stroke:#181818;stroke-width:0.5;" width="170" x="22" y="59.5"/><ellipse cx="85.75" cy="75.5" fill="#ADD1B2" rx="11" ry="11" style="stroke:#181818;stroke-width:1.0;"/><path d="M88.5156,71.375 Q88.6719,71.1563 88.8594,71.0469 Q89.0469,70.9375 89.2656,70.9375 Q89.6406,70.9375 89.875,71.2031 Q90.1094,71.4531 90.1094,72.0625 L90.1094,73.5156 Q90.1094,74.125 89.875,74.3906 Q89.6406,74.6563 89.2656,74.6563 Q88.9219,74.6563 88.7188,74.4531 Q88.5156,74.2656 88.4063,73.75 Q88.3594,73.3906 88.1719,73.2031 Q87.8438,72.8281 87.2344,72.6094 Q86.625,72.3906 86,72.3906 Q85.2344,72.3906 84.5938,72.7188 Q83.9688,73.0469 83.4688,73.7969 Q82.9844,74.5469 82.9844,75.5781 L82.9844,76.6719 Q82.9844,77.9063 83.875,78.7344 Q84.7656,79.5469 86.3594,79.5469 Q87.2969,79.5469 87.9531,79.2969 Q88.3438,79.1406 88.7656,78.7031 Q89.0313,78.4375 89.1719,78.3594 Q89.3281,78.2813 89.5313,78.2813 Q89.8594,78.2813 90.1094,78.5469 Q90.375,78.7969 90.375,79.1406 Q90.375,79.4844 90.0313,79.8906 Q89.5313,80.4688 88.7344,80.7969 Q87.6563,81.25 86.3594,81.25 Q84.8438,81.25 83.6406,80.625 Q82.6563,80.125 81.9688,79.0625 Q81.2813,77.9844 81.2813,76.7031 L81.2813,75.5469 Q81.2813,74.2188 81.8906,73.0781 Q82.5156,71.9219 83.6094,71.3125 Q84.7031,70.6875 85.9375,70.6875 Q86.6719,70.6875 87.3125,70.8594 Q87.9688,71.0156 88.5156,71.375 Z " fill="#000000"/><text fill="#000000" font-family="sans-serif" font-size="14" lengthAdjust="spacing" textLength="34" x="106.25" y="81.2285">Pawn</text><line style="stroke:#181818;stroke-width:0.5;" x1="23" x2="191" y1="91.5" y2="91.5"/><text fill="#000000" font-family="sans-serif" font-size="14" lengthAdjust="spacing" textLength="59" x="28" y="110.0332">name: str</text><text fill="#000000" font-family="sans-serif" font-size="14" lengthAdjust="spacing" textLength="111" x="28" y="127.6426">location: Location</text><line style="stroke:#181818;stroke-width:0.5;" x1="23" x2="191" y1="134.7188" y2="134.7188"/><text fill="#000000" font-family="sans-serif" font-size="14" lengthAdjust="spacing" textLength="117" x="28" y="153.252">actions: list[Action]</text></g><!--class Location--><g id="elem_Location"><rect codeLine="57" fill="#F1F1F1" height="65.6094" id="Location" rx="2.5" ry="2.5" style="stroke:#181818;stroke-width:0.5;" width="171" x="22.5" y="246.5"/><ellipse cx="76.75" cy="262.5" fill="#ADD1B2" rx="11" ry="11" style="stroke:#181818;stroke-width:1.0;"/><path d="M79.5156,258.375 Q79.6719,258.1563 79.8594,258.0469 Q80.0469,257.9375 80.2656,257.9375 Q80.6406,257.9375 80.875,258.2031 Q81.1094,258.4531 81.1094,259.0625 L81.1094,260.5156 Q81.1094,261.125 80.875,261.3906 Q80.6406,261.6563 80.2656,261.6563 Q79.9219,261.6563 79.7188,261.4531 Q79.5156,261.2656 79.4063,260.75 Q79.3594,260.3906 79.1719,260.2031 Q78.8438,259.8281 78.2344,259.6094 Q77.625,259.3906 77,259.3906 Q76.2344,259.3906 75.5938,259.7188 Q74.9688,260.0469 74.4688,260.7969 Q73.9844,261.5469 73.9844,262.5781 L73.9844,263.6719 Q73.9844,264.9063 74.875,265.7344 Q75.7656,266.5469 77.3594,266.5469 Q78.2969,266.5469 78.9531,266.2969 Q79.3438,266.1406 79.7656,265.7031 Q80.0313,265.4375 80.1719,265.3594 Q80.3281,265.2813 80.5313,265.2813 Q80.8594,265.2813 81.1094,265.5469 Q81.375,265.7969 81.375,266.1406 Q81.375,266.4844 81.0313,266.8906 Q80.5313,267.4688 79.7344,267.7969 Q78.6563,268.25 77.3594,268.25 Q75.8438,268.25 74.6406,267.625 Q73.6563,267.125 72.9688,266.0625 Q72.2813,264.9844 72.2813,263.7031 L72.2813,262.5469 Q72.2813,261.2188 72.8906,260.0781 Q73.5156,258.9219 74.6094,258.3125 Q75.7031,257.6875 76.9375,257.6875 Q77.6719,257.6875 78.3125,257.8594 Q78.9688,258.0156 79.5156,258.375 Z " fill="#000000"/><text fill="#000000" font-family="sans-serif" font-size="14" lengthAdjust="spacing" textLength="54" x="97.25" y="268.2285">Location</text><line style="stroke:#181818;stroke-width:0.5;" x1="23.5" x2="192.5" y1="278.5" y2="278.5"/><line style="stroke:#181818;stroke-width:0.5;" x1="23.5" x2="192.5" y1="286.5" y2="286.5"/><text fill="#000000" font-family="sans-serif" font-size="14" lengthAdjust="spacing" textLength="159" x="28.5" y="305.0332">move_actions: list[Action]</text></g><!--class World--><g id="elem_World"><rect codeLine="61" fill="#F1F1F1" height="48" id="World" rx="2.5" ry="2.5" style="stroke:#181818;stroke-width:0.5;" width="170" x="23" y="390"/><ellipse cx="85.25" cy="406" fill="#ADD1B2" rx="11" ry="11" style="stroke:#181818;stroke-width:1.0;"/><path d="M88.0156,401.875 Q88.1719,401.6563 88.3594,401.5469 Q88.5469,401.4375 88.7656,401.4375 Q89.1406,401.4375 89.375,401.7031 Q89.6094,401.9531 89.6094,402.5625 L89.6094,404.0156 Q89.6094,404.625 89.375,404.8906 Q89.1406,405.1563 88.7656,405.1563 Q88.4219,405.1563 88.2188,404.9531 Q88.0156,404.7656 87.9063,404.25 Q87.8594,403.8906 87.6719,403.7031 Q87.3438,403.3281 86.7344,403.1094 Q86.125,402.8906 85.5,402.8906 Q84.7344,402.8906 84.0938,403.2188 Q83.4688,403.5469 82.9688,404.2969 Q82.4844,405.0469 82.4844,406.0781 L82.4844,407.1719 Q82.4844,408.4063 83.375,409.2344 Q84.2656,410.0469 85.8594,410.0469 Q86.7969,410.0469 87.4531,409.7969 Q87.8438,409.6406 88.2656,409.2031 Q88.5313,408.9375 88.6719,408.8594 Q88.8281,408.7813 89.0313,408.7813 Q89.3594,408.7813 89.6094,409.0469 Q89.875,409.2969 89.875,409.6406 Q89.875,409.9844 89.5313,410.3906 Q89.0313,410.9688 88.2344,411.2969 Q87.1563,411.75 85.8594,411.75 Q84.3438,411.75 83.1406,411.125 Q82.1563,410.625 81.4688,409.5625 Q80.7813,408.4844 80.7813,407.2031 L80.7813,406.0469 Q80.7813,404.7188 81.3906,403.5781 Q82.0156,402.4219 83.1094,401.8125 Q84.2031,401.1875 85.4375,401.1875 Q86.1719,401.1875 86.8125,401.3594 Q87.4688,401.5156 88.0156,401.875 Z " fill="#000000"/><text fill="#000000" font-family="sans-serif" font-size="14" lengthAdjust="spacing" textLength="37" x="105.75" y="411.7285">World</text><line style="stroke:#181818;stroke-width:0.5;" x1="24" x2="192" y1="422" y2="422"/><line style="stroke:#181818;stroke-width:0.5;" x1="24" x2="192" y1="430" y2="430"/></g><!--reverse link Action to MoveAction--><g id="link_Action_MoveAction"><path codeLine="14" d="M445.2691,332.3253 C470.1391,351.4853 485.1,363 508.35,380.92 " fill="none" id="Action-backto-MoveAction" style="stroke:#181818;stroke-width:1.0;"/><polygon fill="none" points="431.01,321.34,441.6074,337.0784,448.9309,327.5723,431.01,321.34" style="stroke:#181818;stroke-width:1.0;"/></g><!--reverse link Action to SkipTurnAction--><g id="link_Action_SkipTurnAction"><path codeLine="19" d="M363.4815,338.8068 C358.7115,357.9668 357.45,363 352.99,380.92 " fill="none" id="Action-backto-SkipTurnAction" style="stroke:#181818;stroke-width:1.0;"/><polygon fill="none" points="367.83,321.34,357.6592,337.3574,369.3038,340.2563,367.83,321.34" style="stroke:#181818;stroke-width:1.0;"/></g><!--reverse link SelectActionStrategy to SelectRandomAction--><g id="link_SelectActionStrategy_SelectRandomAction"><path codeLine="34" d="M697.9814,157.0311 C672.8414,186.6911 647.41,216.67 622.29,246.3 " fill="none" id="SelectActionStrategy-backto-SelectRandomAction" style="stroke:#181818;stroke-width:1.0;"/><polygon fill="none" points="709.62,143.3,693.4044,153.1516,702.5585,160.9106,709.62,143.3" style="stroke:#181818;stroke-width:1.0;"/></g><!--reverse link SelectActionStrategy to SelectActionInteractively--><g id="link_SelectActionStrategy_SelectActionInteractively"><path codeLine="35" d="M757.7137,159.8731 C770.2837,189.5331 781.79,216.67 794.35,246.3 " fill="none" id="SelectActionStrategy-backto-SelectActionInteractively" style="stroke:#181818;stroke-width:1.0;"/><polygon fill="none" points="750.69,143.3,752.1894,162.2143,763.2381,157.5318,750.69,143.3" style="stroke:#181818;stroke-width:1.0;"/></g><!--link Player to SelectActionStrategy--><g id="link_Player_SelectActionStrategy"><path codeLine="46" d="M529.1,110 C540.61,110 546.11,110 557.62,110 " fill="none" id="Player-to-SelectActionStrategy" style="stroke:#181818;stroke-width:1.0;"/><polygon fill="#181818" points="563.62,110,554.62,106,558.62,110,554.62,114,563.62,110" style="stroke:#181818;stroke-width:1.0;"/></g><!--link Pawn to Player--><g id="link_Pawn_Player"><path codeLine="54" d="M198.22,110 C209.71,110 203.2,110 214.69,110 " fill="none" id="Pawn-Player" style="stroke:#181818;stroke-width:1.0;"/><polygon fill="#181818" points="192.22,110,201.22,114,197.22,110,201.22,106,192.22,110" style="stroke:#181818;stroke-width:1.0;"/><polygon fill="#181818" points="226.69,110,220.69,106,214.69,110,220.69,114,226.69,110" style="stroke:#181818;stroke-width:1.0;"/></g><!--link Player to Action--><g id="link_Player_Action"><path codeLine="55" d="M378,178.16 C378,198.37 378,213.92 378,231.84 " fill="none" id="Player-to-Action" style="stroke:#181818;stroke-width:1.0;stroke-dasharray:7.0,7.0;"/><polygon fill="#181818" points="378,237.84,382,228.84,378,232.84,374,228.84,378,237.84" style="stroke:#181818;stroke-width:1.0;"/></g><!--link Location to World--><g id="link_Location_World"><path codeLine="64" d="M108,318.57 C108,342.47 108,356.53 108,377.94 " fill="none" id="Location-World" style="stroke:#181818;stroke-width:1.0;"/><polygon fill="#181818" points="108,312.57,104,321.57,108,317.57,112,321.57,108,312.57" style="stroke:#181818;stroke-width:1.0;"/><polygon fill="#181818" points="108,389.94,112,383.94,108,377.94,104,383.94,108,389.94" style="stroke:#181818;stroke-width:1.0;"/></g><!--link Pawn to Location--><g id="link_Pawn_Location"><path codeLine="65" d="M107.3,160.8 C107.46,188.48 107.6228,216.1101 107.7728,240.3201 " fill="none" id="Pawn-to-Location" style="stroke:#181818;stroke-width:1.0;"/><polygon fill="#181818" points="107.81,246.32,111.7542,237.2954,107.779,241.3201,103.7543,237.345,107.81,246.32" style="stroke:#181818;stroke-width:1.0;"/></g><!--SRC=[jLHTI-Gm57tlhmZwCehjhY0iT8U2xhuiA8Ypu8CimsrxxOIcIKao8uFEVpUPf9rqhBWgvg6qz_ESStkZQifRaD2GAyf_CL3gbfPwGKv_V8-Y5eeQAYG7KAwGwwN4D5sT5GVaCOg8ELfKg1SepJVnfx0bo7cXgU21sPv7o9MMKEWDAL4LahOsA2N6-5fSY_9Uo6P2kTAq0YraIguPh54UzIcRQA_vbLZXA82kMf8aONht5kJ5opP-oZoD_VgpchP_bv9_fCTUxh1FmAQJe6k930ljmcR6eR5QaqD6EIQvO6Nw6sHzmPRuCpSJIozfjT2pUcqj9C0N2Aks1UUmhJXfjv9sqfuGPrQf1wQEqX688R8RuALeFAbtung2iSgzrSzv_t2DbWvT8Lj_LTjHwQTFSIaUU3n2_x-JHZX48LCtZ01l2mzcMwxDSpVHnkoVA3U4YGBSDbtwjvSn_LGPLVhEjV_NXsceSMvMd4zs_-qqpuOYZPRePPj-oxDGEiyWbdO0SJQgoe2neHRmvT3Wy7Ru7CiXgkEOuRr5rGlg7OaTKZ9SVeUlQngkLDUsCPV7_CtUhiwjaApqHRp3cOxjVP0DoMr5SJzEHdQkpJC0]--></g></svg>