<?xml version="1.0" encoding="us-ascii" standalone="no"?><svg xmlns="http://www.w3.org/2000/svg" xmlns:xlink="http://www.w3.org/1999/xlink" contentStyleType="text/css" height="712px" preserveAspectRatio="none" style="width:630px;height:712px;background:#FFFFFF;" version="1.1" viewBox="0 0 630 712" width="630px" zoomAndPan="magnify"><defs/><g><!--cluster adventure::v4a--><g id="cluster_adventure::v4a"><path d="M8.5,6 L115.5,6 A3.75,3.75 0 0 1 118,8.5 L125,29.6094 L620.5,29.6094 A2.5,2.5 0 0 1 623,32.1094 L623,702.5 A2.5,2.5 0 0 1 620.5,705 L8.5,705 A2.5,2.5 0 0 1 6,702.5 L6,8.5 A2.5,2.5 0 0 1 8.5,6 " fill="none" style="stroke:#000000;stroke-width:1.5;"/><line style="stroke:#000000;stroke-width:1.5;" x1="6" x2="125" y1="29.6094" y2="29.6094"/><text fill="#000000" font-family="sans-serif" font-size="14" font-weight="bold" lengthAdjust="spacing" textLength="106" x="10" y="22.5332">adventure::v4a</text></g><!--class Action--><g id="elem_Action"><rect codeLine="5" fill="#F1F1F1" height="83.2188" id="Action" rx="2.5" ry="2.5" style="stroke:#181818;stroke-width:0.5;" width="171" x="370.5" y="436"/><ellipse cx="432.25" cy="452" fill="#ADD1B2" rx="11" ry="11" style="stroke:#181818;stroke-width:1.0;"/><path d="M435.0156,447.875 Q435.1719,447.6563 435.3594,447.5469 Q435.5469,447.4375 435.7656,447.4375 Q436.1406,447.4375 436.375,447.7031 Q436.6094,447.9531 436.6094,448.5625 L436.6094,450.0156 Q436.6094,450.625 436.375,450.8906 Q436.1406,451.1563 435.7656,451.1563 Q435.4219,451.1563 435.2188,450.9531 Q435.0156,450.7656 434.9063,450.25 Q434.8594,449.8906 434.6719,449.7031 Q434.3438,449.3281 433.7344,449.1094 Q433.125,448.8906 432.5,448.8906 Q431.7344,448.8906 431.0938,449.2188 Q430.4688,449.5469 429.9688,450.2969 Q429.4844,451.0469 429.4844,452.0781 L429.4844,453.1719 Q429.4844,454.4063 430.375,455.2344 Q431.2656,456.0469 432.8594,456.0469 Q433.7969,456.0469 434.4531,455.7969 Q434.8438,455.6406 435.2656,455.2031 Q435.5313,454.9375 435.6719,454.8594 Q435.8281,454.7813 436.0313,454.7813 Q436.3594,454.7813 436.6094,455.0469 Q436.875,455.2969 436.875,455.6406 Q436.875,455.9844 436.5313,456.3906 Q436.0313,456.9688 435.2344,457.2969 Q434.1563,457.75 432.8594,457.75 Q431.3438,457.75 430.1406,457.125 Q429.1563,456.625 428.4688,455.5625 Q427.7813,454.4844 427.7813,453.2031 L427.7813,452.0469 Q427.7813,450.7188 428.3906,449.5781 Q429.0156,448.4219 430.1094,447.8125 Q431.2031,447.1875 432.4375,447.1875 Q433.1719,447.1875 433.8125,447.3594 Q434.4688,447.5156 435.0156,447.875 Z " fill="#000000"/><text fill="#000000" font-family="sans-serif" font-size="14" lengthAdjust="spacing" textLength="39" x="452.75" y="457.7285">Action</text><line style="stroke:#181818;stroke-width:0.5;" x1="371.5" x2="540.5" y1="468" y2="468"/><text fill="#000000" font-family="sans-serif" font-size="14" font-style="italic" lengthAdjust="spacing" textLength="93" x="376.5" y="486.5332">description: str</text><line style="stroke:#181818;stroke-width:0.5;" x1="371.5" x2="540.5" y1="493.6094" y2="493.6094"/><text fill="#000000" font-family="sans-serif" font-size="14" font-style="italic" lengthAdjust="spacing" textLength="159" x="376.5" y="512.1426">perform(instigator: Pawn)</text></g><!--class MoveAction--><g id="elem_MoveAction"><rect codeLine="10" fill="#F1F1F1" height="48" id="MoveAction" rx="2.5" ry="2.5" style="stroke:#181818;stroke-width:0.5;" width="121" x="287.5" y="633"/><ellipse cx="302.5" cy="649" fill="#ADD1B2" rx="11" ry="11" style="stroke:#181818;stroke-width:1.0;"/><path d="M305.2656,644.875 Q305.4219,644.6563 305.6094,644.5469 Q305.7969,644.4375 306.0156,644.4375 Q306.3906,644.4375 306.625,644.7031 Q306.8594,644.9531 306.8594,645.5625 L306.8594,647.0156 Q306.8594,647.625 306.625,647.8906 Q306.3906,648.1563 306.0156,648.1563 Q305.6719,648.1563 305.4688,647.9531 Q305.2656,647.7656 305.1563,647.25 Q305.1094,646.8906 304.9219,646.7031 Q304.5938,646.3281 303.9844,646.1094 Q303.375,645.8906 302.75,645.8906 Q301.9844,645.8906 301.3438,646.2188 Q300.7188,646.5469 300.2188,647.2969 Q299.7344,648.0469 299.7344,649.0781 L299.7344,650.1719 Q299.7344,651.4063 300.625,652.2344 Q301.5156,653.0469 303.1094,653.0469 Q304.0469,653.0469 304.7031,652.7969 Q305.0938,652.6406 305.5156,652.2031 Q305.7813,651.9375 305.9219,651.8594 Q306.0781,651.7813 306.2813,651.7813 Q306.6094,651.7813 306.8594,652.0469 Q307.125,652.2969 307.125,652.6406 Q307.125,652.9844 306.7813,653.3906 Q306.2813,653.9688 305.4844,654.2969 Q304.4063,654.75 303.1094,654.75 Q301.5938,654.75 300.3906,654.125 Q299.4063,653.625 298.7188,652.5625 Q298.0313,651.4844 298.0313,650.2031 L298.0313,649.0469 Q298.0313,647.7188 298.6406,646.5781 Q299.2656,645.4219 300.3594,644.8125 Q301.4531,644.1875 302.6875,644.1875 Q303.4219,644.1875 304.0625,644.3594 Q304.7188,644.5156 305.2656,644.875 Z " fill="#000000"/><text fill="#000000" font-family="sans-serif" font-size="14" lengthAdjust="spacing" textLength="73" x="324.5" y="654.7285">MoveAction</text><line style="stroke:#181818;stroke-width:0.5;" x1="288.5" x2="407.5" y1="665" y2="665"/><line style="stroke:#181818;stroke-width:0.5;" x1="288.5" x2="407.5" y1="673" y2="673"/></g><!--class SkipTurnAction--><g id="elem_SkipTurnAction"><rect codeLine="14" fill="#F1F1F1" height="48" id="SkipTurnAction" rx="2.5" ry="2.5" style="stroke:#181818;stroke-width:0.5;" width="136" x="444" y="633"/><ellipse cx="459" cy="649" fill="#ADD1B2" rx="11" ry="11" style="stroke:#181818;stroke-width:1.0;"/><path d="M461.7656,644.875 Q461.9219,644.6563 462.1094,644.5469 Q462.2969,644.4375 462.5156,644.4375 Q462.8906,644.4375 463.125,644.7031 Q463.3594,644.9531 463.3594,645.5625 L463.3594,647.0156 Q463.3594,647.625 463.125,647.8906 Q462.8906,648.1563 462.5156,648.1563 Q462.1719,648.1563 461.9688,647.9531 Q461.7656,647.7656 461.6563,647.25 Q461.6094,646.8906 461.4219,646.7031 Q461.0938,646.3281 460.4844,646.1094 Q459.875,645.8906 459.25,645.8906 Q458.4844,645.8906 457.8438,646.2188 Q457.2188,646.5469 456.7188,647.2969 Q456.2344,648.0469 456.2344,649.0781 L456.2344,650.1719 Q456.2344,651.4063 457.125,652.2344 Q458.0156,653.0469 459.6094,653.0469 Q460.5469,653.0469 461.2031,652.7969 Q461.5938,652.6406 462.0156,652.2031 Q462.2813,651.9375 462.4219,651.8594 Q462.5781,651.7813 462.7813,651.7813 Q463.1094,651.7813 463.3594,652.0469 Q463.625,652.2969 463.625,652.6406 Q463.625,652.9844 463.2813,653.3906 Q462.7813,653.9688 461.9844,654.2969 Q460.9063,654.75 459.6094,654.75 Q458.0938,654.75 456.8906,654.125 Q455.9063,653.625 455.2188,652.5625 Q454.5313,651.4844 454.5313,650.2031 L454.5313,649.0469 Q454.5313,647.7188 455.1406,646.5781 Q455.7656,645.4219 456.8594,644.8125 Q457.9531,644.1875 459.1875,644.1875 Q459.9219,644.1875 460.5625,644.3594 Q461.2188,644.5156 461.7656,644.875 Z " fill="#000000"/><text fill="#000000" font-family="sans-serif" font-size="14" lengthAdjust="spacing" textLength="96" x="477" y="654.7285">SkipTurnAction</text><line style="stroke:#181818;stroke-width:0.5;" x1="445" x2="579" y1="665" y2="665"/><line style="stroke:#181818;stroke-width:0.5;" x1="445" x2="579" y1="673" y2="673"/></g><!--class Player--><g id="elem_Player"><rect codeLine="19" fill="#ADD8E6" height="136.0469" id="Player" rx="2.5" ry="2.5" style="stroke:#00008B;stroke-width:2.0;" width="302" x="305" y="186"/><ellipse cx="431.75" cy="202" fill="#ADD1B2" rx="11" ry="11" style="stroke:#181818;stroke-width:1.0;"/><path d="M434.5156,197.875 Q434.6719,197.6563 434.8594,197.5469 Q435.0469,197.4375 435.2656,197.4375 Q435.6406,197.4375 435.875,197.7031 Q436.1094,197.9531 436.1094,198.5625 L436.1094,200.0156 Q436.1094,200.625 435.875,200.8906 Q435.6406,201.1563 435.2656,201.1563 Q434.9219,201.1563 434.7188,200.9531 Q434.5156,200.7656 434.4063,200.25 Q434.3594,199.8906 434.1719,199.7031 Q433.8438,199.3281 433.2344,199.1094 Q432.625,198.8906 432,198.8906 Q431.2344,198.8906 430.5938,199.2188 Q429.9688,199.5469 429.4688,200.2969 Q428.9844,201.0469 428.9844,202.0781 L428.9844,203.1719 Q428.9844,204.4063 429.875,205.2344 Q430.7656,206.0469 432.3594,206.0469 Q433.2969,206.0469 433.9531,205.7969 Q434.3438,205.6406 434.7656,205.2031 Q435.0313,204.9375 435.1719,204.8594 Q435.3281,204.7813 435.5313,204.7813 Q435.8594,204.7813 436.1094,205.0469 Q436.375,205.2969 436.375,205.6406 Q436.375,205.9844 436.0313,206.3906 Q435.5313,206.9688 434.7344,207.2969 Q433.6563,207.75 432.3594,207.75 Q430.8438,207.75 429.6406,207.125 Q428.6563,206.625 427.9688,205.5625 Q427.2813,204.4844 427.2813,203.2031 L427.2813,202.0469 Q427.2813,200.7188 427.8906,199.5781 Q428.5156,198.4219 429.6094,197.8125 Q430.7031,197.1875 431.9375,197.1875 Q432.6719,197.1875 433.3125,197.3594 Q433.9688,197.5156 434.5156,197.875 Z " fill="#000000"/><text fill="#000000" font-family="sans-serif" font-size="14" lengthAdjust="spacing" textLength="40" x="452.25" y="207.7285">Player</text><line style="stroke:#00008B;stroke-width:2.0;" x1="306" x2="606" y1="218" y2="218"/><text fill="#000000" font-family="sans-serif" font-size="14" lengthAdjust="spacing" textLength="75" x="311" y="236.5332">pawn: Pawn</text><text fill="#000000" font-family="sans-serif" font-size="14" font-weight="bold" lengthAdjust="spacing" textLength="67" x="311" y="254.1426">take_turn</text><text fill="#000000" font-family="sans-serif" font-size="14" font-weight="bold" lengthAdjust="spacing" textLength="134" x="311" y="271.752">actions: list[Action]</text><line style="stroke:#00008B;stroke-width:2.0;" x1="306" x2="606" y1="278.8281" y2="278.8281"/><text fill="#000000" font-family="sans-serif" font-size="14" font-weight="bold" lengthAdjust="spacing" textLength="290" x="311" y="297.3613">select_action(actions: list[Action]): Action</text><text fill="#000000" font-family="sans-serif" font-size="14" font-weight="bold" lengthAdjust="spacing" textLength="161" x="311" y="314.9707">perform(action: Action)</text></g><!--class Pawn--><g id="elem_Pawn"><rect codeLine="27" fill="#F1F1F1" height="83.2188" id="Pawn" rx="2.5" ry="2.5" style="stroke:#181818;stroke-width:0.5;" width="123" x="273.5" y="42"/><ellipse cx="314.15" cy="58" fill="#ADD1B2" rx="11" ry="11" style="stroke:#181818;stroke-width:1.0;"/><path d="M316.9156,53.875 Q317.0719,53.6563 317.2594,53.5469 Q317.4469,53.4375 317.6656,53.4375 Q318.0406,53.4375 318.275,53.7031 Q318.5094,53.9531 318.5094,54.5625 L318.5094,56.0156 Q318.5094,56.625 318.275,56.8906 Q318.0406,57.1563 317.6656,57.1563 Q317.3219,57.1563 317.1188,56.9531 Q316.9156,56.7656 316.8063,56.25 Q316.7594,55.8906 316.5719,55.7031 Q316.2438,55.3281 315.6344,55.1094 Q315.025,54.8906 314.4,54.8906 Q313.6344,54.8906 312.9938,55.2188 Q312.3688,55.5469 311.8688,56.2969 Q311.3844,57.0469 311.3844,58.0781 L311.3844,59.1719 Q311.3844,60.4063 312.275,61.2344 Q313.1656,62.0469 314.7594,62.0469 Q315.6969,62.0469 316.3531,61.7969 Q316.7438,61.6406 317.1656,61.2031 Q317.4313,60.9375 317.5719,60.8594 Q317.7281,60.7813 317.9313,60.7813 Q318.2594,60.7813 318.5094,61.0469 Q318.775,61.2969 318.775,61.6406 Q318.775,61.9844 318.4313,62.3906 Q317.9313,62.9688 317.1344,63.2969 Q316.0563,63.75 314.7594,63.75 Q313.2438,63.75 312.0406,63.125 Q311.0563,62.625 310.3688,61.5625 Q309.6813,60.4844 309.6813,59.2031 L309.6813,58.0469 Q309.6813,56.7188 310.2906,55.5781 Q310.9156,54.4219 312.0094,53.8125 Q313.1031,53.1875 314.3375,53.1875 Q315.0719,53.1875 315.7125,53.3594 Q316.3688,53.5156 316.9156,53.875 Z " fill="#000000"/><text fill="#000000" font-family="sans-serif" font-size="14" lengthAdjust="spacing" textLength="34" x="333.85" y="63.7285">Pawn</text><line style="stroke:#181818;stroke-width:0.5;" x1="274.5" x2="395.5" y1="74" y2="74"/><text fill="#000000" font-family="sans-serif" font-size="14" lengthAdjust="spacing" textLength="59" x="279.5" y="92.5332">name: str</text><text fill="#000000" font-family="sans-serif" font-size="14" lengthAdjust="spacing" textLength="111" x="279.5" y="110.1426">location: Location</text><line style="stroke:#181818;stroke-width:0.5;" x1="274.5" x2="395.5" y1="117.2188" y2="117.2188"/></g><!--class ActionKind--><g id="elem_ActionKind"><rect codeLine="35" fill="#F1F1F1" height="188.875" id="ActionKind" rx="2.5" ry="2.5" style="stroke:#181818;stroke-width:0.5;" width="99" x="236.5" y="383"/><ellipse cx="251.5" cy="399" fill="#EB937F" rx="11" ry="11" style="stroke:#181818;stroke-width:1.0;"/><path d="M250.3594,399.7969 L250.3594,402.2969 L254.6875,402.2969 L254.6875,401.375 Q254.6875,400.7656 254.9219,400.5 Q255.1719,400.2344 255.5469,400.2344 Q255.9219,400.2344 256.1563,400.5 Q256.3906,400.7656 256.3906,401.375 L256.3906,404 L248.3906,404 Q247.7656,404 247.5,403.7656 Q247.25,403.5313 247.25,403.1406 Q247.25,402.7656 247.5156,402.5313 Q247.7813,402.2969 248.3906,402.2969 L248.6563,402.2969 L248.6563,395.6406 L248.3906,395.6406 Q247.7656,395.6406 247.5,395.4063 Q247.25,395.1719 247.25,394.7813 Q247.25,394.4063 247.5,394.1719 Q247.7656,393.9375 248.3906,393.9375 L256.0156,393.9375 L256.0156,396.5313 Q256.0156,397.1406 255.7813,397.4063 Q255.5625,397.6563 255.1719,397.6563 Q254.7969,397.6563 254.5625,397.4063 Q254.3281,397.1406 254.3281,396.5313 L254.3281,395.6406 L250.3594,395.6406 L250.3594,398.0938 L251.8438,398.0938 Q251.8438,397.4375 251.9688,397.25 Q252.2344,396.8438 252.7031,396.8438 Q253.0781,396.8438 253.3125,397.1094 Q253.5469,397.3594 253.5469,397.9688 L253.5469,399.9375 Q253.5469,400.4844 253.4219,400.6719 Q253.1563,401.0625 252.7031,401.0625 Q252.2344,401.0625 251.9688,400.6563 Q251.8438,400.4688 251.8438,399.7969 L250.3594,399.7969 Z " fill="#000000"/><text fill="#000000" font-family="sans-serif" font-size="14" lengthAdjust="spacing" textLength="67" x="265.5" y="404.7285">ActionKind</text><line style="stroke:#181818;stroke-width:0.5;" x1="237.5" x2="334.5" y1="415" y2="415"/><text fill="#000000" font-family="sans-serif" font-size="14" lengthAdjust="spacing" textLength="70" x="242.5" y="433.5332">Aggressive</text><text fill="#000000" font-family="sans-serif" font-size="14" lengthAdjust="spacing" textLength="85" x="242.5" y="451.1426">HandleObject</text><text fill="#000000" font-family="sans-serif" font-size="14" lengthAdjust="spacing" textLength="43" x="242.5" y="468.752">Helpful</text><text fill="#000000" font-family="sans-serif" font-size="14" lengthAdjust="spacing" textLength="68" x="242.5" y="486.3613">Investigate</text><text fill="#000000" font-family="sans-serif" font-size="14" lengthAdjust="spacing" textLength="34" x="242.5" y="503.9707">Move</text><text fill="#000000" font-family="sans-serif" font-size="14" lengthAdjust="spacing" textLength="26" x="242.5" y="521.5801">Quit</text><text fill="#000000" font-family="sans-serif" font-size="14" lengthAdjust="spacing" textLength="29" x="242.5" y="539.1895">Rest</text><text fill="#000000" font-family="sans-serif" font-size="14" lengthAdjust="spacing" textLength="57" x="242.5" y="556.7988">SkipTurn</text><line style="stroke:#181818;stroke-width:0.5;" x1="237.5" x2="334.5" y1="563.875" y2="563.875"/></g><!--class Location--><g id="elem_Location"><rect codeLine="48" fill="#F1F1F1" height="48" id="Location" rx="2.5" ry="2.5" style="stroke:#181818;stroke-width:0.5;" width="102" x="22" y="230"/><ellipse cx="37" cy="246" fill="#ADD1B2" rx="11" ry="11" style="stroke:#181818;stroke-width:1.0;"/><path d="M39.7656,241.875 Q39.9219,241.6563 40.1094,241.5469 Q40.2969,241.4375 40.5156,241.4375 Q40.8906,241.4375 41.125,241.7031 Q41.3594,241.9531 41.3594,242.5625 L41.3594,244.0156 Q41.3594,244.625 41.125,244.8906 Q40.8906,245.1563 40.5156,245.1563 Q40.1719,245.1563 39.9688,244.9531 Q39.7656,244.7656 39.6563,244.25 Q39.6094,243.8906 39.4219,243.7031 Q39.0938,243.3281 38.4844,243.1094 Q37.875,242.8906 37.25,242.8906 Q36.4844,242.8906 35.8438,243.2188 Q35.2188,243.5469 34.7188,244.2969 Q34.2344,245.0469 34.2344,246.0781 L34.2344,247.1719 Q34.2344,248.4063 35.125,249.2344 Q36.0156,250.0469 37.6094,250.0469 Q38.5469,250.0469 39.2031,249.7969 Q39.5938,249.6406 40.0156,249.2031 Q40.2813,248.9375 40.4219,248.8594 Q40.5781,248.7813 40.7813,248.7813 Q41.1094,248.7813 41.3594,249.0469 Q41.625,249.2969 41.625,249.6406 Q41.625,249.9844 41.2813,250.3906 Q40.7813,250.9688 39.9844,251.2969 Q38.9063,251.75 37.6094,251.75 Q36.0938,251.75 34.8906,251.125 Q33.9063,250.625 33.2188,249.5625 Q32.5313,248.4844 32.5313,247.2031 L32.5313,246.0469 Q32.5313,244.7188 33.1406,243.5781 Q33.7656,242.4219 34.8594,241.8125 Q35.9531,241.1875 37.1875,241.1875 Q37.9219,241.1875 38.5625,241.3594 Q39.2188,241.5156 39.7656,241.875 Z " fill="#000000"/><text fill="#000000" font-family="sans-serif" font-size="14" lengthAdjust="spacing" textLength="54" x="59" y="251.7285">Location</text><line style="stroke:#181818;stroke-width:0.5;" x1="23" x2="123" y1="262" y2="262"/><line style="stroke:#181818;stroke-width:0.5;" x1="23" x2="123" y1="270" y2="270"/></g><!--class World--><g id="elem_World"><rect codeLine="52" fill="#F1F1F1" height="48" id="World" rx="2.5" ry="2.5" style="stroke:#181818;stroke-width:0.5;" width="89" x="28.5" y="59.5"/><ellipse cx="43.5" cy="75.5" fill="#ADD1B2" rx="11" ry="11" style="stroke:#181818;stroke-width:1.0;"/><path d="M46.2656,71.375 Q46.4219,71.1563 46.6094,71.0469 Q46.7969,70.9375 47.0156,70.9375 Q47.3906,70.9375 47.625,71.2031 Q47.8594,71.4531 47.8594,72.0625 L47.8594,73.5156 Q47.8594,74.125 47.625,74.3906 Q47.3906,74.6563 47.0156,74.6563 Q46.6719,74.6563 46.4688,74.4531 Q46.2656,74.2656 46.1563,73.75 Q46.1094,73.3906 45.9219,73.2031 Q45.5938,72.8281 44.9844,72.6094 Q44.375,72.3906 43.75,72.3906 Q42.9844,72.3906 42.3438,72.7188 Q41.7188,73.0469 41.2188,73.7969 Q40.7344,74.5469 40.7344,75.5781 L40.7344,76.6719 Q40.7344,77.9063 41.625,78.7344 Q42.5156,79.5469 44.1094,79.5469 Q45.0469,79.5469 45.7031,79.2969 Q46.0938,79.1406 46.5156,78.7031 Q46.7813,78.4375 46.9219,78.3594 Q47.0781,78.2813 47.2813,78.2813 Q47.6094,78.2813 47.8594,78.5469 Q48.125,78.7969 48.125,79.1406 Q48.125,79.4844 47.7813,79.8906 Q47.2813,80.4688 46.4844,80.7969 Q45.4063,81.25 44.1094,81.25 Q42.5938,81.25 41.3906,80.625 Q40.4063,80.125 39.7188,79.0625 Q39.0313,77.9844 39.0313,76.7031 L39.0313,75.5469 Q39.0313,74.2188 39.6406,73.0781 Q40.2656,71.9219 41.3594,71.3125 Q42.4531,70.6875 43.6875,70.6875 Q44.4219,70.6875 45.0625,70.8594 Q45.7188,71.0156 46.2656,71.375 Z " fill="#000000"/><text fill="#000000" font-family="sans-serif" font-size="14" lengthAdjust="spacing" textLength="37" x="69.5" y="81.2285">World</text><line style="stroke:#181818;stroke-width:0.5;" x1="29.5" x2="116.5" y1="91.5" y2="91.5"/><line style="stroke:#181818;stroke-width:0.5;" x1="29.5" x2="116.5" y1="99.5" y2="99.5"/></g><!--reverse link Action to MoveAction--><g id="link_Action_MoveAction"><path codeLine="12" d="M421.8648,534.5979 C400.4448,569.8079 379.6,604.07 362.08,632.86 " fill="none" id="Action-backto-MoveAction" style="stroke:#181818;stroke-width:1.0;"/><polygon fill="none" points="431.22,519.22,416.7389,531.4795,426.9908,537.7163,431.22,519.22" style="stroke:#181818;stroke-width:1.0;"/></g><!--reverse link Action to SkipTurnAction--><g id="link_Action_SkipTurnAction"><path codeLine="16" d="M474.2664,536.3857 C485.3764,571.5957 495.62,604.07 504.7,632.86 " fill="none" id="Action-backto-SkipTurnAction" style="stroke:#181818;stroke-width:1.0;"/><polygon fill="none" points="468.85,519.22,468.5445,538.1912,479.9883,534.5803,468.85,519.22" style="stroke:#181818;stroke-width:1.0;"/></g><!--link Pawn to Player--><g id="link_Pawn_Player"><path codeLine="32" d="M367.7903,130.1632 C380.8703,148.3732 386.1291,155.7038 400.8691,176.2238 " fill="none" id="Pawn-Player" style="stroke:#181818;stroke-width:1.0;"/><polygon fill="#181818" points="364.29,125.29,366.2917,134.9333,367.2069,129.351,372.7893,130.2662,364.29,125.29" style="stroke:#181818;stroke-width:1.0;"/><polygon fill="#181818" points="407.87,185.97,407.6183,178.7633,400.8691,176.2238,401.1208,183.4306,407.87,185.97" style="stroke:#181818;stroke-width:1.0;"/></g><!--link Player to Action--><g id="link_Player_Action"><path codeLine="33" d="M456,322.06 C456,359.11 456,397.94 456,429.73 " fill="none" id="Player-to-Action" style="stroke:#181818;stroke-width:1.0;stroke-dasharray:7.0,7.0;"/><polygon fill="#181818" points="456,435.73,460,426.73,456,430.73,452,426.73,456,435.73" style="stroke:#181818;stroke-width:1.0;"/></g><!--reverse link ActionKind to Action--><g id="link_ActionKind_Action"><path codeLine="46" d="M341.8,477.5 C353.23,477.5 358.65,477.5 370.08,477.5 " fill="none" id="ActionKind-backto-Action" style="stroke:#181818;stroke-width:1.0;"/><polygon fill="#181818" points="335.8,477.5,344.8,481.5,340.8,477.5,344.8,473.5,335.8,477.5" style="stroke:#181818;stroke-width:1.0;"/><text fill="#000000" font-family="sans-serif" font-size="13" lengthAdjust="spacing" textLength="5" x="347.3653" y="473.9521">*</text></g><!--reverse link Location to Location--><g id="link_Location_Location"><path codeLine="50" d="M136.2039,235.2865 C155.2839,234.6765 159,241.18 159,254 C159,266.82 143.29,272.94 124.21,272.33 " fill="none" id="Location-backto-Location" style="stroke:#181818;stroke-width:1.0;"/><polygon fill="none" points="124.21,235.67,130.3348,239.4762,136.2039,235.2865,130.0791,231.4803,124.21,235.67" style="stroke:#181818;stroke-width:1.0;"/><text fill="#000000" font-family="sans-serif" font-size="13" lengthAdjust="spacing" textLength="116" x="165" y="259.4951">connectedLocations</text></g><!--link World to Location--><g id="link_World_Location"><path codeLine="55" d="M73,119.58 C73,151.75 73,191.76 73,223.93 " fill="none" id="World-Location" style="stroke:#181818;stroke-width:1.0;"/><polygon fill="#181818" points="73,107.58,69,113.58,73,119.58,77,113.58,73,107.58" style="stroke:#181818;stroke-width:1.0;"/><polygon fill="#181818" points="73,229.93,77,220.93,73,224.93,69,220.93,73,229.93" style="stroke:#181818;stroke-width:1.0;"/><text fill="#000000" font-family="sans-serif" font-size="13" lengthAdjust="spacing" textLength="5" x="62.3344" y="219.2522">*</text></g><!--link Pawn to Location--><g id="link_Pawn_Location"><path codeLine="56" d="M273.24,124.22 C222.11,157.11 156.2665,199.4446 113.9865,226.6346 " fill="none" id="Pawn-to-Location" style="stroke:#181818;stroke-width:1.0;"/><polygon fill="#181818" points="108.94,229.88,118.6734,228.3763,113.1454,227.1755,114.3462,221.6476,108.94,229.88" style="stroke:#181818;stroke-width:1.0;"/><text fill="#000000" font-family="sans-serif" font-size="13" lengthAdjust="spacing" textLength="7" x="110.2527" y="219.1894">1</text></g><!--SRC=[TL9DQ-Cm4BtdLmZlfGauoq9FQWXasSCkkqlJ3-YXb32s9wusYcGasQMu-UzL8bcMdQp0u7dpvklDL93le4IIGD6WCBL2IfjhI4WxcH3xZ2pHlAAoDl4lvw0rMUM6IH71nzT2fes2t1n8WJfNh3gIAB7W_tWLggrK-oicj64b6AaeMSERc8Q0msHKEY7ahspGTs1Dq37GHf7TN-HEwohzMFh-prC_x5ZrM2lXsQVa8-nIWH5bM2IQmfLPStYtcdxXJE0yaxoWFq3jllCQRpAx4CfP-MeoQqQrAYkAaoP0YsnfO8SRkpQn-9ejOmUSIcjAEDFcsJNoCYPfv9YRZUDUNGoPKZ_5EBPRd8lgMDD06mvisuvc4R37uLLmcOFByyV_nKcyNhEZhCjU0o_sObvNSyznV1Jrtdj_Cr54bLTbgL1hrc20Ve8eEDvc_wmKFOYysjOysBz4W-v0SN1KmRYhMHzzRxbdfn4Fr9q9nwsn4oLaPh- -uLWwU-sT9FxMWzbE-YCCe4pJO52IIo7iN5Xqa1xb9azIyS9dTlzjtAc3PcdeSh2VqrwFFf9yYro7Jm00]--></g></svg>