<?xml version="1.0" encoding="us-ascii" standalone="no"?><svg xmlns="http://www.w3.org/2000/svg" xmlns:xlink="http://www.w3.org/1999/xlink" contentStyleType="text/css" height="453px" preserveAspectRatio="none" style="width:718px;height:453px;background:#FFFFFF;" version="1.1" viewBox="0 0 718 453" width="718px" zoomAndPan="magnify"><defs/><g><!--class Document--><g id="elem_Document"><rect codeLine="2" fill="#F1F1F1" height="118.4375" id="Document" rx="2.5" ry="2.5" style="stroke:#181818;stroke-width:0.5;" width="194" x="263.5" y="328"/><ellipse cx="324.25" cy="344" fill="#ADD1B2" rx="11" ry="11" style="stroke:#181818;stroke-width:1.0;"/><path d="M327.0156,339.875 Q327.1719,339.6563 327.3594,339.5469 Q327.5469,339.4375 327.7656,339.4375 Q328.1406,339.4375 328.375,339.7031 Q328.6094,339.9531 328.6094,340.5625 L328.6094,342.0156 Q328.6094,342.625 328.375,342.8906 Q328.1406,343.1563 327.7656,343.1563 Q327.4219,343.1563 327.2188,342.9531 Q327.0156,342.7656 326.9063,342.25 Q326.8594,341.8906 326.6719,341.7031 Q326.3438,341.3281 325.7344,341.1094 Q325.125,340.8906 324.5,340.8906 Q323.7344,340.8906 323.0938,341.2188 Q322.4688,341.5469 321.9688,342.2969 Q321.4844,343.0469 321.4844,344.0781 L321.4844,345.1719 Q321.4844,346.4063 322.375,347.2344 Q323.2656,348.0469 324.8594,348.0469 Q325.7969,348.0469 326.4531,347.7969 Q326.8438,347.6406 327.2656,347.2031 Q327.5313,346.9375 327.6719,346.8594 Q327.8281,346.7813 328.0313,346.7813 Q328.3594,346.7813 328.6094,347.0469 Q328.875,347.2969 328.875,347.6406 Q328.875,347.9844 328.5313,348.3906 Q328.0313,348.9688 327.2344,349.2969 Q326.1563,349.75 324.8594,349.75 Q323.3438,349.75 322.1406,349.125 Q321.1563,348.625 320.4688,347.5625 Q319.7813,346.4844 319.7813,345.2031 L319.7813,344.0469 Q319.7813,342.7188 320.3906,341.5781 Q321.0156,340.4219 322.1094,339.8125 Q323.2031,339.1875 324.4375,339.1875 Q325.1719,339.1875 325.8125,339.3594 Q326.4688,339.5156 327.0156,339.875 Z " fill="#000000"/><text fill="#000000" font-family="sans-serif" font-size="14" lengthAdjust="spacing" textLength="64" x="344.75" y="349.7285">Document</text><line style="stroke:#181818;stroke-width:0.5;" x1="264.5" x2="456.5" y1="360" y2="360"/><line style="stroke:#181818;stroke-width:0.5;" x1="264.5" x2="456.5" y1="368" y2="368"/><ellipse cx="274.5" cy="382.3047" fill="#84BE84" rx="3" ry="3" style="stroke:#038048;stroke-width:1.0;"/><text fill="#000000" font-family="sans-serif" font-size="14" lengthAdjust="spacing" textLength="85" x="283.5" y="386.5332">Modify(): void</text><ellipse cx="274.5" cy="399.9141" fill="#84BE84" rx="3" ry="3" style="stroke:#038048;stroke-width:1.0;"/><text fill="#000000" font-family="sans-serif" font-size="14" lengthAdjust="spacing" textLength="93" x="283.5" y="404.1426">Append(): void</text><ellipse cx="274.5" cy="417.5234" fill="#84BE84" rx="3" ry="3" style="stroke:#038048;stroke-width:1.0;"/><text fill="#000000" font-family="sans-serif" font-size="14" lengthAdjust="spacing" textLength="109" x="283.5" y="421.752">GetState(): string</text><ellipse cx="274.5" cy="435.1328" fill="#84BE84" rx="3" ry="3" style="stroke:#038048;stroke-width:1.0;"/><text fill="#000000" font-family="sans-serif" font-size="14" lengthAdjust="spacing" textLength="168" x="283.5" y="439.3613">Restore(state: string): void</text></g><!--class Command--><g id="elem_Command"><rect codeLine="9" fill="#F1F1F1" height="83.2188" id="Command" rx="2.5" ry="2.5" style="stroke:#181818;stroke-width:0.5;" width="119" x="301" y="7"/><ellipse cx="326.35" cy="23" fill="#A9DCDF" rx="11" ry="11" style="stroke:#181818;stroke-width:1.0;"/><path d="M328.5375,24.7656 L324.3969,24.7656 L323.975,25.7969 L324.3969,25.7969 Q325.0063,25.7969 325.2719,26.0313 Q325.5375,26.2656 325.5375,26.6563 Q325.5375,27.0313 325.2719,27.2656 Q325.0063,27.5 324.3969,27.5 L322.1,27.5 Q321.4906,27.5 321.2406,27.2656 Q320.975,27.0313 320.975,26.6406 Q320.975,26.2656 321.2563,26.0313 Q321.5219,25.7813 322.1469,25.7969 L324.8188,19.1406 L323.7094,19.1406 Q323.1,19.1406 322.8344,18.9063 Q322.5688,18.6719 322.5688,18.2813 Q322.5688,17.9063 322.8344,17.6719 Q323.1,17.4375 323.7094,17.4375 L327.3813,17.4375 L330.7719,25.7969 Q331.3656,25.7969 331.5531,25.9375 Q331.9438,26.2031 331.9438,26.6563 Q331.9438,27.0313 331.6781,27.2656 Q331.4281,27.5 330.8188,27.5 L328.5219,27.5 Q327.9125,27.5 327.6469,27.2656 Q327.3813,27.0313 327.3813,26.6406 Q327.3813,26.2656 327.6469,26.0313 Q327.9125,25.7969 328.5219,25.7969 L328.9438,25.7969 L328.5375,24.7656 Z M327.8188,23.0625 L326.4594,19.6875 L325.0844,23.0625 L327.8188,23.0625 Z " fill="#000000"/><text fill="#000000" font-family="sans-serif" font-size="14" font-style="italic" lengthAdjust="spacing" textLength="64" x="342.65" y="28.7285">Command</text><line style="stroke:#181818;stroke-width:0.5;" x1="302" x2="419" y1="39" y2="39"/><line style="stroke:#181818;stroke-width:0.5;" x1="302" x2="419" y1="47" y2="47"/><ellipse cx="312" cy="61.3047" fill="#84BE84" rx="3" ry="3" style="stroke:#038048;stroke-width:1.0;"/><text fill="#000000" font-family="sans-serif" font-size="14" font-style="italic" lengthAdjust="spacing" textLength="93" x="321" y="65.5332">Execute(): void</text><ellipse cx="312" cy="78.9141" fill="#84BE84" rx="3" ry="3" style="stroke:#038048;stroke-width:1.0;"/><text fill="#000000" font-family="sans-serif" font-size="14" font-style="italic" lengthAdjust="spacing" textLength="77" x="321" y="83.1426">Undo(): void</text></g><!--class ModifyCommand--><g id="elem_ModifyCommand"><rect codeLine="14" fill="#F1F1F1" height="118.4375" id="ModifyCommand" rx="2.5" ry="2.5" style="stroke:#181818;stroke-width:0.5;" width="137" x="574" y="150"/><ellipse cx="589" cy="166" fill="#ADD1B2" rx="11" ry="11" style="stroke:#181818;stroke-width:1.0;"/><path d="M591.7656,161.875 Q591.9219,161.6563 592.1094,161.5469 Q592.2969,161.4375 592.5156,161.4375 Q592.8906,161.4375 593.125,161.7031 Q593.3594,161.9531 593.3594,162.5625 L593.3594,164.0156 Q593.3594,164.625 593.125,164.8906 Q592.8906,165.1563 592.5156,165.1563 Q592.1719,165.1563 591.9688,164.9531 Q591.7656,164.7656 591.6563,164.25 Q591.6094,163.8906 591.4219,163.7031 Q591.0938,163.3281 590.4844,163.1094 Q589.875,162.8906 589.25,162.8906 Q588.4844,162.8906 587.8438,163.2188 Q587.2188,163.5469 586.7188,164.2969 Q586.2344,165.0469 586.2344,166.0781 L586.2344,167.1719 Q586.2344,168.4063 587.125,169.2344 Q588.0156,170.0469 589.6094,170.0469 Q590.5469,170.0469 591.2031,169.7969 Q591.5938,169.6406 592.0156,169.2031 Q592.2813,168.9375 592.4219,168.8594 Q592.5781,168.7813 592.7813,168.7813 Q593.1094,168.7813 593.3594,169.0469 Q593.625,169.2969 593.625,169.6406 Q593.625,169.9844 593.2813,170.3906 Q592.7813,170.9688 591.9844,171.2969 Q590.9063,171.75 589.6094,171.75 Q588.0938,171.75 586.8906,171.125 Q585.9063,170.625 585.2188,169.5625 Q584.5313,168.4844 584.5313,167.2031 L584.5313,166.0469 Q584.5313,164.7188 585.1406,163.5781 Q585.7656,162.4219 586.8594,161.8125 Q587.9531,161.1875 589.1875,161.1875 Q589.9219,161.1875 590.5625,161.3594 Q591.2188,161.5156 591.7656,161.875 Z " fill="#000000"/><text fill="#000000" font-family="sans-serif" font-size="14" lengthAdjust="spacing" textLength="105" x="603" y="171.7285">ModifyCommand</text><line style="stroke:#181818;stroke-width:0.5;" x1="575" x2="710" y1="182" y2="182"/><rect fill="none" height="6" style="stroke:#C82930;stroke-width:1.0;" width="6" x="582" y="193.3047"/><text fill="#000000" font-family="sans-serif" font-size="14" lengthAdjust="spacing" textLength="108" x="594" y="200.5332">doc_: Document*</text><rect fill="none" height="6" style="stroke:#C82930;stroke-width:1.0;" width="6" x="582" y="210.9141"/><text fill="#000000" font-family="sans-serif" font-size="14" lengthAdjust="spacing" textLength="82" x="594" y="218.1426">state_: string</text><line style="stroke:#181818;stroke-width:0.5;" x1="575" x2="710" y1="225.2188" y2="225.2188"/><ellipse cx="585" cy="239.5234" fill="#84BE84" rx="3" ry="3" style="stroke:#038048;stroke-width:1.0;"/><text fill="#000000" font-family="sans-serif" font-size="14" lengthAdjust="spacing" textLength="94" x="594" y="243.752">Execute(): void</text><ellipse cx="585" cy="257.1328" fill="#84BE84" rx="3" ry="3" style="stroke:#038048;stroke-width:1.0;"/><text fill="#000000" font-family="sans-serif" font-size="14" lengthAdjust="spacing" textLength="77" x="594" y="261.3613">Undo(): void</text></g><path d="M380.5,164.5 L380.5,207.2031 A0,0 0 0 0 380.5,207.2031 L538.5,207.2031 A0,0 0 0 0 538.5,207.2031 L538.5,189.8516 L578,238.0234 L538.5,181.8516 L538.5,174.5 L528.5,164.5 L380.5,164.5 A0,0 0 0 0 380.5,164.5 " fill="#FEFFDD" style="stroke:#181818;stroke-width:0.5;"/><path d="M528.5,164.5 L528.5,174.5 L538.5,174.5 L528.5,164.5 " fill="#FEFFDD" style="stroke:#181818;stroke-width:0.5;"/><text fill="#000000" font-family="sans-serif" font-size="13" lengthAdjust="spacing" textLength="137" x="386.5" y="182.9951">state_ = doc.GetState()</text><text fill="#000000" font-family="sans-serif" font-size="13" lengthAdjust="spacing" textLength="71" x="386.5" y="199.3467">doc.Modify()</text><path d="M380.5,217.2031 L380.5,243.5547 A0,0 0 0 0 380.5,243.5547 L515.5,243.5547 A0,0 0 0 0 515.5,243.5547 L515.5,235.2031 L578,255.6328 L515.5,227.2031 L515.5,227.2031 L505.5,217.2031 L380.5,217.2031 A0,0 0 0 0 380.5,217.2031 " fill="#FEFFDD" style="stroke:#181818;stroke-width:0.5;"/><path d="M505.5,217.2031 L505.5,227.2031 L515.5,227.2031 L505.5,217.2031 " fill="#FEFFDD" style="stroke:#181818;stroke-width:0.5;"/><text fill="#000000" font-family="sans-serif" font-size="13" lengthAdjust="spacing" textLength="114" x="386.5" y="235.6982">doc.Restore(state_)</text><!--class AppendCommand--><g id="elem_AppendCommand"><rect codeLine="30" fill="#F1F1F1" height="118.4375" id="AppendCommand" rx="2.5" ry="2.5" style="stroke:#181818;stroke-width:0.5;" width="145" x="7" y="150"/><ellipse cx="22" cy="166" fill="#ADD1B2" rx="11" ry="11" style="stroke:#181818;stroke-width:1.0;"/><path d="M24.7656,161.875 Q24.9219,161.6563 25.1094,161.5469 Q25.2969,161.4375 25.5156,161.4375 Q25.8906,161.4375 26.125,161.7031 Q26.3594,161.9531 26.3594,162.5625 L26.3594,164.0156 Q26.3594,164.625 26.125,164.8906 Q25.8906,165.1563 25.5156,165.1563 Q25.1719,165.1563 24.9688,164.9531 Q24.7656,164.7656 24.6563,164.25 Q24.6094,163.8906 24.4219,163.7031 Q24.0938,163.3281 23.4844,163.1094 Q22.875,162.8906 22.25,162.8906 Q21.4844,162.8906 20.8438,163.2188 Q20.2188,163.5469 19.7188,164.2969 Q19.2344,165.0469 19.2344,166.0781 L19.2344,167.1719 Q19.2344,168.4063 20.125,169.2344 Q21.0156,170.0469 22.6094,170.0469 Q23.5469,170.0469 24.2031,169.7969 Q24.5938,169.6406 25.0156,169.2031 Q25.2813,168.9375 25.4219,168.8594 Q25.5781,168.7813 25.7813,168.7813 Q26.1094,168.7813 26.3594,169.0469 Q26.625,169.2969 26.625,169.6406 Q26.625,169.9844 26.2813,170.3906 Q25.7813,170.9688 24.9844,171.2969 Q23.9063,171.75 22.6094,171.75 Q21.0938,171.75 19.8906,171.125 Q18.9063,170.625 18.2188,169.5625 Q17.5313,168.4844 17.5313,167.2031 L17.5313,166.0469 Q17.5313,164.7188 18.1406,163.5781 Q18.7656,162.4219 19.8594,161.8125 Q20.9531,161.1875 22.1875,161.1875 Q22.9219,161.1875 23.5625,161.3594 Q24.2188,161.5156 24.7656,161.875 Z " fill="#000000"/><text fill="#000000" font-family="sans-serif" font-size="14" lengthAdjust="spacing" textLength="113" x="36" y="171.7285">AppendCommand</text><line style="stroke:#181818;stroke-width:0.5;" x1="8" x2="151" y1="182" y2="182"/><rect fill="none" height="6" style="stroke:#C82930;stroke-width:1.0;" width="6" x="15" y="193.3047"/><text fill="#000000" font-family="sans-serif" font-size="14" lengthAdjust="spacing" textLength="108" x="27" y="200.5332">doc_: Document*</text><rect fill="none" height="6" style="stroke:#C82930;stroke-width:1.0;" width="6" x="15" y="210.9141"/><text fill="#000000" font-family="sans-serif" font-size="14" lengthAdjust="spacing" textLength="82" x="27" y="218.1426">state_: string</text><line style="stroke:#181818;stroke-width:0.5;" x1="8" x2="151" y1="225.2188" y2="225.2188"/><ellipse cx="18" cy="239.5234" fill="#84BE84" rx="3" ry="3" style="stroke:#038048;stroke-width:1.0;"/><text fill="#000000" font-family="sans-serif" font-size="14" lengthAdjust="spacing" textLength="94" x="27" y="243.752">Execute(): void</text><ellipse cx="18" cy="257.1328" fill="#84BE84" rx="3" ry="3" style="stroke:#038048;stroke-width:1.0;"/><text fill="#000000" font-family="sans-serif" font-size="14" lengthAdjust="spacing" textLength="77" x="27" y="261.3613">Undo(): void</text></g><path d="M187.5,164.5 L187.5,181.8516 L121,238.0234 L187.5,189.8516 L187.5,207.2031 A0,0 0 0 0 187.5,207.2031 L345.5,207.2031 A0,0 0 0 0 345.5,207.2031 L345.5,174.5 L335.5,164.5 L187.5,164.5 A0,0 0 0 0 187.5,164.5 " fill="#FEFFDD" style="stroke:#181818;stroke-width:0.5;"/><path d="M335.5,164.5 L335.5,174.5 L345.5,174.5 L335.5,164.5 " fill="#FEFFDD" style="stroke:#181818;stroke-width:0.5;"/><text fill="#000000" font-family="sans-serif" font-size="13" lengthAdjust="spacing" textLength="137" x="193.5" y="182.9951">state_ = doc.GetState()</text><text fill="#000000" font-family="sans-serif" font-size="13" lengthAdjust="spacing" textLength="77" x="193.5" y="199.3467">doc.Append()</text><path d="M187.5,217.2031 L187.5,226.3789 L104,255.6328 L187.5,234.3789 L187.5,243.5547 A0,0 0 0 0 187.5,243.5547 L322.5,243.5547 A0,0 0 0 0 322.5,243.5547 L322.5,227.2031 L312.5,217.2031 L187.5,217.2031 A0,0 0 0 0 187.5,217.2031 " fill="#FEFFDD" style="stroke:#181818;stroke-width:0.5;"/><path d="M312.5,217.2031 L312.5,227.2031 L322.5,227.2031 L312.5,217.2031 " fill="#FEFFDD" style="stroke:#181818;stroke-width:0.5;"/><text fill="#000000" font-family="sans-serif" font-size="13" lengthAdjust="spacing" textLength="114" x="193.5" y="235.6982">doc.Restore(state_)</text><!--class Menu--><g id="elem_Menu"><rect codeLine="46" fill="#F1F1F1" height="118.4375" id="Menu" rx="2.5" ry="2.5" style="stroke:#181818;stroke-width:0.5;" width="183" x="45" y="328"/><ellipse cx="114.75" cy="344" fill="#ADD1B2" rx="11" ry="11" style="stroke:#181818;stroke-width:1.0;"/><path d="M117.5156,339.875 Q117.6719,339.6563 117.8594,339.5469 Q118.0469,339.4375 118.2656,339.4375 Q118.6406,339.4375 118.875,339.7031 Q119.1094,339.9531 119.1094,340.5625 L119.1094,342.0156 Q119.1094,342.625 118.875,342.8906 Q118.6406,343.1563 118.2656,343.1563 Q117.9219,343.1563 117.7188,342.9531 Q117.5156,342.7656 117.4063,342.25 Q117.3594,341.8906 117.1719,341.7031 Q116.8438,341.3281 116.2344,341.1094 Q115.625,340.8906 115,340.8906 Q114.2344,340.8906 113.5938,341.2188 Q112.9688,341.5469 112.4688,342.2969 Q111.9844,343.0469 111.9844,344.0781 L111.9844,345.1719 Q111.9844,346.4063 112.875,347.2344 Q113.7656,348.0469 115.3594,348.0469 Q116.2969,348.0469 116.9531,347.7969 Q117.3438,347.6406 117.7656,347.2031 Q118.0313,346.9375 118.1719,346.8594 Q118.3281,346.7813 118.5313,346.7813 Q118.8594,346.7813 119.1094,347.0469 Q119.375,347.2969 119.375,347.6406 Q119.375,347.9844 119.0313,348.3906 Q118.5313,348.9688 117.7344,349.2969 Q116.6563,349.75 115.3594,349.75 Q113.8438,349.75 112.6406,349.125 Q111.6563,348.625 110.9688,347.5625 Q110.2813,346.4844 110.2813,345.2031 L110.2813,344.0469 Q110.2813,342.7188 110.8906,341.5781 Q111.5156,340.4219 112.6094,339.8125 Q113.7031,339.1875 114.9375,339.1875 Q115.6719,339.1875 116.3125,339.3594 Q116.9688,339.5156 117.5156,339.875 Z " fill="#000000"/><text fill="#000000" font-family="sans-serif" font-size="14" lengthAdjust="spacing" textLength="35" x="135.25" y="349.7285">Menu</text><line style="stroke:#181818;stroke-width:0.5;" x1="46" x2="227" y1="360" y2="360"/><rect fill="none" height="6" style="stroke:#C82930;stroke-width:1.0;" width="6" x="53" y="371.3047"/><text fill="#000000" font-family="sans-serif" font-size="14" lengthAdjust="spacing" textLength="103" x="65" y="378.5332">doc_: Document</text><line style="stroke:#181818;stroke-width:0.5;" x1="46" x2="227" y1="385.6094" y2="385.6094"/><ellipse cx="56" cy="399.9141" fill="#84BE84" rx="3" ry="3" style="stroke:#038048;stroke-width:1.0;"/><text fill="#000000" font-family="sans-serif" font-size="14" lengthAdjust="spacing" textLength="149" x="65" y="404.1426">ModifyDocument(): void</text><ellipse cx="56" cy="417.5234" fill="#84BE84" rx="3" ry="3" style="stroke:#038048;stroke-width:1.0;"/><text fill="#000000" font-family="sans-serif" font-size="14" lengthAdjust="spacing" textLength="157" x="65" y="421.752">AppendDocument(): void</text><ellipse cx="56" cy="435.1328" fill="#84BE84" rx="3" ry="3" style="stroke:#038048;stroke-width:1.0;"/><text fill="#000000" font-family="sans-serif" font-size="14" lengthAdjust="spacing" textLength="77" x="65" y="439.3613">Undo(): void</text></g><!--class KeyboardShortcuts--><g id="elem_KeyboardShortcuts"><rect codeLine="55" fill="#F1F1F1" height="118.4375" id="KeyboardShortcuts" rx="2.5" ry="2.5" style="stroke:#181818;stroke-width:0.5;" width="183" x="493" y="328"/><ellipse cx="521.5" cy="344" fill="#ADD1B2" rx="11" ry="11" style="stroke:#181818;stroke-width:1.0;"/><path d="M524.2656,339.875 Q524.4219,339.6563 524.6094,339.5469 Q524.7969,339.4375 525.0156,339.4375 Q525.3906,339.4375 525.625,339.7031 Q525.8594,339.9531 525.8594,340.5625 L525.8594,342.0156 Q525.8594,342.625 525.625,342.8906 Q525.3906,343.1563 525.0156,343.1563 Q524.6719,343.1563 524.4688,342.9531 Q524.2656,342.7656 524.1563,342.25 Q524.1094,341.8906 523.9219,341.7031 Q523.5938,341.3281 522.9844,341.1094 Q522.375,340.8906 521.75,340.8906 Q520.9844,340.8906 520.3438,341.2188 Q519.7188,341.5469 519.2188,342.2969 Q518.7344,343.0469 518.7344,344.0781 L518.7344,345.1719 Q518.7344,346.4063 519.625,347.2344 Q520.5156,348.0469 522.1094,348.0469 Q523.0469,348.0469 523.7031,347.7969 Q524.0938,347.6406 524.5156,347.2031 Q524.7813,346.9375 524.9219,346.8594 Q525.0781,346.7813 525.2813,346.7813 Q525.6094,346.7813 525.8594,347.0469 Q526.125,347.2969 526.125,347.6406 Q526.125,347.9844 525.7813,348.3906 Q525.2813,348.9688 524.4844,349.2969 Q523.4063,349.75 522.1094,349.75 Q520.5938,349.75 519.3906,349.125 Q518.4063,348.625 517.7188,347.5625 Q517.0313,346.4844 517.0313,345.2031 L517.0313,344.0469 Q517.0313,342.7188 517.6406,341.5781 Q518.2656,340.4219 519.3594,339.8125 Q520.4531,339.1875 521.6875,339.1875 Q522.4219,339.1875 523.0625,339.3594 Q523.7188,339.5156 524.2656,339.875 Z " fill="#000000"/><text fill="#000000" font-family="sans-serif" font-size="14" lengthAdjust="spacing" textLength="121" x="538.5" y="349.7285">KeyboardShortcuts</text><line style="stroke:#181818;stroke-width:0.5;" x1="494" x2="675" y1="360" y2="360"/><rect fill="none" height="6" style="stroke:#C82930;stroke-width:1.0;" width="6" x="501" y="371.3047"/><text fill="#000000" font-family="sans-serif" font-size="14" lengthAdjust="spacing" textLength="103" x="513" y="378.5332">doc_: Document</text><line style="stroke:#181818;stroke-width:0.5;" x1="494" x2="675" y1="385.6094" y2="385.6094"/><ellipse cx="504" cy="399.9141" fill="#84BE84" rx="3" ry="3" style="stroke:#038048;stroke-width:1.0;"/><text fill="#000000" font-family="sans-serif" font-size="14" lengthAdjust="spacing" textLength="149" x="513" y="404.1426">ModifyDocument(): void</text><ellipse cx="504" cy="417.5234" fill="#84BE84" rx="3" ry="3" style="stroke:#038048;stroke-width:1.0;"/><text fill="#000000" font-family="sans-serif" font-size="14" lengthAdjust="spacing" textLength="157" x="513" y="421.752">AppendDocument(): void</text><ellipse cx="504" cy="435.1328" fill="#84BE84" rx="3" ry="3" style="stroke:#038048;stroke-width:1.0;"/><text fill="#000000" font-family="sans-serif" font-size="14" lengthAdjust="spacing" textLength="77" x="513" y="439.3613">Undo(): void</text></g><!--link Menu to Document--><g id="link_Menu_Document"><path codeLine="53" d="M228.38,387 C240.07,387 245.77,387 257.47,387 " fill="none" id="Menu-to-Document" style="stroke:#181818;stroke-width:1.0;"/><polygon fill="#181818" points="263.47,387,254.47,383,258.47,387,254.47,391,263.47,387" style="stroke:#181818;stroke-width:1.0;"/></g><!--reverse link Document to KeyboardShortcuts--><g id="link_Document_KeyboardShortcuts"><path codeLine="62" d="M463.62,387 C475.35,387 481.08,387 492.81,387 " fill="none" id="Document-backto-KeyboardShortcuts" style="stroke:#181818;stroke-width:1.0;"/><polygon fill="#181818" points="457.62,387,466.62,391,462.62,387,466.62,383,457.62,387" style="stroke:#181818;stroke-width:1.0;"/></g><!--reverse link Command to ModifyCommand--><g id="link_Command_ModifyCommand"><path codeLine="64" d="M436.4154,85.7166 C475.7654,104.9266 511.89,123.65 556.5,150 C562.24,153.39 568.11,157.01 573.97,160.73 " fill="none" id="Command-backto-ModifyCommand" style="stroke:#181818;stroke-width:1.0;"/><polygon fill="none" points="420.24,77.82,433.7832,91.1084,439.0476,80.3248,420.24,77.82" style="stroke:#181818;stroke-width:1.0;"/></g><!--reverse link Command to AppendCommand--><g id="link_Command_AppendCommand"><path codeLine="65" d="M284.7534,87.734 C246.9834,107.104 213.4,125.04 170.5,150 C164.51,153.49 158.35,157.18 152.19,160.94 " fill="none" id="Command-backto-AppendCommand" style="stroke:#181818;stroke-width:1.0;"/><polygon fill="none" points="300.77,79.52,282.0154,82.3951,287.4914,93.0728,300.77,79.52" style="stroke:#181818;stroke-width:1.0;"/></g><!--link ModifyCommand to Document--><g id="link_ModifyCommand_Document"><path codeLine="67" d="M573.7,256.85 C567.91,260.66 562.12,264.42 556.5,268 C524.68,288.29 494.6362,306.6852 462.9562,325.6752 " fill="none" id="ModifyCommand-to-Document" style="stroke:#181818;stroke-width:1.0;"/><polygon fill="#181818" points="457.81,328.76,467.5859,327.5636,462.0985,326.1893,463.4728,320.7019,457.81,328.76" style="stroke:#181818;stroke-width:1.0;"/></g><!--link AppendCommand to Document--><g id="link_AppendCommand_Document"><path codeLine="68" d="M152.47,256.61 C158.56,260.47 164.63,264.31 170.5,268 C201.72,287.64 230.842,305.7962 261.522,324.8362 " fill="none" id="AppendCommand-to-Document" style="stroke:#181818;stroke-width:1.0;"/><polygon fill="#181818" points="266.62,328,261.0822,319.8555,262.3716,325.3635,256.8637,326.6529,266.62,328" style="stroke:#181818;stroke-width:1.0;"/></g><!--SRC=[lLD1JiCm4Bpd5NiC8FE0I5H2W3YWNgWuHwxjj94QRnGxG5NwT-pORcEtGVJI76UoCxEJ3TjGfU0PMTy8gM6NWNdkO8wyhhRvJG6VM7CFFhQja3m1NuLUQAg5XPNkQhdonBjG6ZkHAyi6Bipkiumk3KIP1ZP4UCAcePBx1Bl0xetIoxTWlNCu64SlV4YE-KZQAReTObq275bP71Q-zUWGiamsEETxQYPH2zY8IWDMiMTHU0KpwGpWmVhV7pipZ0L2tPdf5wpWtx8sWf-CMYx70gu4zyskKq9NhzP3tCZq_os4-qfRcDAze8QvaFt4zj751_3ivK-GQHU35nb2azdHnYTv4zibqeulrjXfKukwLgnJOsBFAueO_pAaRydFBFoPMNnA2PcESloIO-baEAL_0G00]--></g></svg>