<?xml version="1.0" encoding="us-ascii" standalone="no"?><svg xmlns="http://www.w3.org/2000/svg" xmlns:xlink="http://www.w3.org/1999/xlink" contentStyleType="text/css" height="384px" preserveAspectRatio="none" style="width:554px;height:384px;background:#FFFFFF;" version="1.1" viewBox="0 0 554 384" width="554px" zoomAndPan="magnify"><defs/><g><!--class Client--><g id="elem_Client"><rect codeLine="2" fill="#F1F1F1" height="48" id="Client" rx="2.5" ry="2.5" style="stroke:#181818;stroke-width:0.5;" width="68" x="82.5" y="185.5"/><ellipse cx="97.5" cy="201.5" fill="#ADD1B2" rx="11" ry="11" style="stroke:#181818;stroke-width:1.0;"/><path d="M100.2656,197.375 Q100.4219,197.1563 100.6094,197.0469 Q100.7969,196.9375 101.0156,196.9375 Q101.3906,196.9375 101.625,197.2031 Q101.8594,197.4531 101.8594,198.0625 L101.8594,199.5156 Q101.8594,200.125 101.625,200.3906 Q101.3906,200.6563 101.0156,200.6563 Q100.6719,200.6563 100.4688,200.4531 Q100.2656,200.2656 100.1563,199.75 Q100.1094,199.3906 99.9219,199.2031 Q99.5938,198.8281 98.9844,198.6094 Q98.375,198.3906 97.75,198.3906 Q96.9844,198.3906 96.3438,198.7188 Q95.7188,199.0469 95.2188,199.7969 Q94.7344,200.5469 94.7344,201.5781 L94.7344,202.6719 Q94.7344,203.9063 95.625,204.7344 Q96.5156,205.5469 98.1094,205.5469 Q99.0469,205.5469 99.7031,205.2969 Q100.0938,205.1406 100.5156,204.7031 Q100.7813,204.4375 100.9219,204.3594 Q101.0781,204.2813 101.2813,204.2813 Q101.6094,204.2813 101.8594,204.5469 Q102.125,204.7969 102.125,205.1406 Q102.125,205.4844 101.7813,205.8906 Q101.2813,206.4688 100.4844,206.7969 Q99.4063,207.25 98.1094,207.25 Q96.5938,207.25 95.3906,206.625 Q94.4063,206.125 93.7188,205.0625 Q93.0313,203.9844 93.0313,202.7031 L93.0313,201.5469 Q93.0313,200.2188 93.6406,199.0781 Q94.2656,197.9219 95.3594,197.3125 Q96.4531,196.6875 97.6875,196.6875 Q98.4219,196.6875 99.0625,196.8594 Q99.7188,197.0156 100.2656,197.375 Z " fill="#000000"/><text fill="#000000" font-family="sans-serif" font-size="14" lengthAdjust="spacing" textLength="36" x="111.5" y="207.2285">Client</text><line style="stroke:#181818;stroke-width:0.5;" x1="83.5" x2="149.5" y1="217.5" y2="217.5"/><line style="stroke:#181818;stroke-width:0.5;" x1="83.5" x2="149.5" y1="225.5" y2="225.5"/></g><!--class Invoker--><g id="elem_Invoker"><rect codeLine="5" fill="#F1F1F1" height="83.2188" id="Invoker" rx="2.5" ry="2.5" style="stroke:#181818;stroke-width:0.5;" width="219" x="7" y="7"/><ellipse cx="89.25" cy="23" fill="#ADD1B2" rx="11" ry="11" style="stroke:#181818;stroke-width:1.0;"/><path d="M92.0156,18.875 Q92.1719,18.6563 92.3594,18.5469 Q92.5469,18.4375 92.7656,18.4375 Q93.1406,18.4375 93.375,18.7031 Q93.6094,18.9531 93.6094,19.5625 L93.6094,21.0156 Q93.6094,21.625 93.375,21.8906 Q93.1406,22.1563 92.7656,22.1563 Q92.4219,22.1563 92.2188,21.9531 Q92.0156,21.7656 91.9063,21.25 Q91.8594,20.8906 91.6719,20.7031 Q91.3438,20.3281 90.7344,20.1094 Q90.125,19.8906 89.5,19.8906 Q88.7344,19.8906 88.0938,20.2188 Q87.4688,20.5469 86.9688,21.2969 Q86.4844,22.0469 86.4844,23.0781 L86.4844,24.1719 Q86.4844,25.4063 87.375,26.2344 Q88.2656,27.0469 89.8594,27.0469 Q90.7969,27.0469 91.4531,26.7969 Q91.8438,26.6406 92.2656,26.2031 Q92.5313,25.9375 92.6719,25.8594 Q92.8281,25.7813 93.0313,25.7813 Q93.3594,25.7813 93.6094,26.0469 Q93.875,26.2969 93.875,26.6406 Q93.875,26.9844 93.5313,27.3906 Q93.0313,27.9688 92.2344,28.2969 Q91.1563,28.75 89.8594,28.75 Q88.3438,28.75 87.1406,28.125 Q86.1563,27.625 85.4688,26.5625 Q84.7813,25.4844 84.7813,24.2031 L84.7813,23.0469 Q84.7813,21.7188 85.3906,20.5781 Q86.0156,19.4219 87.1094,18.8125 Q88.2031,18.1875 89.4375,18.1875 Q90.1719,18.1875 90.8125,18.3594 Q91.4688,18.5156 92.0156,18.875 Z " fill="#000000"/><text fill="#000000" font-family="sans-serif" font-size="14" lengthAdjust="spacing" textLength="46" x="109.75" y="28.7285">Invoker</text><line style="stroke:#181818;stroke-width:0.5;" x1="8" x2="225" y1="39" y2="39"/><line style="stroke:#181818;stroke-width:0.5;" x1="8" x2="225" y1="47" y2="47"/><ellipse cx="18" cy="61.3047" fill="#84BE84" rx="3" ry="3" style="stroke:#038048;stroke-width:1.0;"/><text fill="#000000" font-family="sans-serif" font-size="14" lengthAdjust="spacing" textLength="193" x="27" y="65.5332">SetCommand(cmd: Command)</text><ellipse cx="18" cy="78.9141" fill="#84BE84" rx="3" ry="3" style="stroke:#038048;stroke-width:1.0;"/><text fill="#000000" font-family="sans-serif" font-size="14" lengthAdjust="spacing" textLength="124" x="27" y="83.1426">ExecuteCommand()</text></g><!--class Command--><g id="elem_Command"><rect codeLine="10" fill="#F1F1F1" height="65.6094" id="Command" rx="2.5" ry="2.5" style="stroke:#181818;stroke-width:0.5;" width="120" x="261.5" y="15.5"/><ellipse cx="287.3" cy="31.5" fill="#B4A7E5" rx="11" ry="11" style="stroke:#181818;stroke-width:1.0;"/><path d="M288.2531,28.1406 L288.2531,34.7969 L289.9719,34.7969 Q290.5813,34.7969 290.8469,35.0313 Q291.1125,35.2656 291.1125,35.6563 Q291.1125,36.0313 290.8469,36.2656 Q290.5813,36.5 289.9719,36.5 L284.8313,36.5 Q284.2219,36.5 283.9563,36.2656 Q283.6906,36.0313 283.6906,35.6406 Q283.6906,35.2656 283.9563,35.0313 Q284.2219,34.7969 284.8313,34.7969 L286.55,34.7969 L286.55,28.1406 L284.8313,28.1406 Q284.2219,28.1406 283.9563,27.9063 Q283.6906,27.6719 283.6906,27.2813 Q283.6906,26.9063 283.9563,26.6719 Q284.2219,26.4375 284.8313,26.4375 L289.9719,26.4375 Q290.5813,26.4375 290.8469,26.6719 Q291.1125,26.9063 291.1125,27.2813 Q291.1125,27.6719 290.8469,27.9063 Q290.5813,28.1406 289.9719,28.1406 L288.2531,28.1406 Z " fill="#000000"/><text fill="#000000" font-family="sans-serif" font-size="14" font-style="italic" lengthAdjust="spacing" textLength="64" x="303.7" y="37.2285">Command</text><line style="stroke:#181818;stroke-width:0.5;" x1="262.5" x2="380.5" y1="47.5" y2="47.5"/><line style="stroke:#181818;stroke-width:0.5;" x1="262.5" x2="380.5" y1="55.5" y2="55.5"/><ellipse cx="272.5" cy="69.8047" fill="#84BE84" rx="3" ry="3" style="stroke:#038048;stroke-width:1.0;"/><text fill="#000000" font-family="sans-serif" font-size="14" lengthAdjust="spacing" textLength="94" x="281.5" y="74.0332">Execute(): void</text></g><!--class ConcreteCommand--><g id="elem_ConcreteCommand"><rect codeLine="14" fill="#F1F1F1" height="83.2188" id="ConcreteCommand" rx="2.5" ry="2.5" style="stroke:#181818;stroke-width:0.5;" width="154" x="244.5" y="168"/><ellipse cx="259.5" cy="184" fill="#ADD1B2" rx="11" ry="11" style="stroke:#181818;stroke-width:1.0;"/><path d="M262.2656,179.875 Q262.4219,179.6563 262.6094,179.5469 Q262.7969,179.4375 263.0156,179.4375 Q263.3906,179.4375 263.625,179.7031 Q263.8594,179.9531 263.8594,180.5625 L263.8594,182.0156 Q263.8594,182.625 263.625,182.8906 Q263.3906,183.1563 263.0156,183.1563 Q262.6719,183.1563 262.4688,182.9531 Q262.2656,182.7656 262.1563,182.25 Q262.1094,181.8906 261.9219,181.7031 Q261.5938,181.3281 260.9844,181.1094 Q260.375,180.8906 259.75,180.8906 Q258.9844,180.8906 258.3438,181.2188 Q257.7188,181.5469 257.2188,182.2969 Q256.7344,183.0469 256.7344,184.0781 L256.7344,185.1719 Q256.7344,186.4063 257.625,187.2344 Q258.5156,188.0469 260.1094,188.0469 Q261.0469,188.0469 261.7031,187.7969 Q262.0938,187.6406 262.5156,187.2031 Q262.7813,186.9375 262.9219,186.8594 Q263.0781,186.7813 263.2813,186.7813 Q263.6094,186.7813 263.8594,187.0469 Q264.125,187.2969 264.125,187.6406 Q264.125,187.9844 263.7813,188.3906 Q263.2813,188.9688 262.4844,189.2969 Q261.4063,189.75 260.1094,189.75 Q258.5938,189.75 257.3906,189.125 Q256.4063,188.625 255.7188,187.5625 Q255.0313,186.4844 255.0313,185.2031 L255.0313,184.0469 Q255.0313,182.7188 255.6406,181.5781 Q256.2656,180.4219 257.3594,179.8125 Q258.4531,179.1875 259.6875,179.1875 Q260.4219,179.1875 261.0625,179.3594 Q261.7188,179.5156 262.2656,179.875 Z " fill="#000000"/><text fill="#000000" font-family="sans-serif" font-size="14" lengthAdjust="spacing" textLength="122" x="273.5" y="189.7285">ConcreteCommand</text><line style="stroke:#181818;stroke-width:0.5;" x1="245.5" x2="397.5" y1="200" y2="200"/><rect fill="none" height="6" style="stroke:#C82930;stroke-width:1.0;" width="6" x="252.5" y="211.3047"/><text fill="#000000" font-family="sans-serif" font-size="14" lengthAdjust="spacing" textLength="115" x="264.5" y="218.5332">receiver: Receiver</text><line style="stroke:#181818;stroke-width:0.5;" x1="245.5" x2="397.5" y1="225.6094" y2="225.6094"/><ellipse cx="255.5" cy="239.9141" fill="#84BE84" rx="3" ry="3" style="stroke:#038048;stroke-width:1.0;"/><text fill="#000000" font-family="sans-serif" font-size="14" lengthAdjust="spacing" textLength="94" x="264.5" y="244.1426">Execute(): void</text></g><!--class Receiver--><g id="elem_Receiver"><rect codeLine="19" fill="#F1F1F1" height="65.6094" id="Receiver" rx="2.5" ry="2.5" style="stroke:#181818;stroke-width:0.5;" width="109" x="164" y="312"/><ellipse cx="188.45" cy="328" fill="#ADD1B2" rx="11" ry="11" style="stroke:#181818;stroke-width:1.0;"/><path d="M191.2156,323.875 Q191.3719,323.6563 191.5594,323.5469 Q191.7469,323.4375 191.9656,323.4375 Q192.3406,323.4375 192.575,323.7031 Q192.8094,323.9531 192.8094,324.5625 L192.8094,326.0156 Q192.8094,326.625 192.575,326.8906 Q192.3406,327.1563 191.9656,327.1563 Q191.6219,327.1563 191.4188,326.9531 Q191.2156,326.7656 191.1063,326.25 Q191.0594,325.8906 190.8719,325.7031 Q190.5438,325.3281 189.9344,325.1094 Q189.325,324.8906 188.7,324.8906 Q187.9344,324.8906 187.2938,325.2188 Q186.6688,325.5469 186.1688,326.2969 Q185.6844,327.0469 185.6844,328.0781 L185.6844,329.1719 Q185.6844,330.4063 186.575,331.2344 Q187.4656,332.0469 189.0594,332.0469 Q189.9969,332.0469 190.6531,331.7969 Q191.0438,331.6406 191.4656,331.2031 Q191.7313,330.9375 191.8719,330.8594 Q192.0281,330.7813 192.2313,330.7813 Q192.5594,330.7813 192.8094,331.0469 Q193.075,331.2969 193.075,331.6406 Q193.075,331.9844 192.7313,332.3906 Q192.2313,332.9688 191.4344,333.2969 Q190.3563,333.75 189.0594,333.75 Q187.5438,333.75 186.3406,333.125 Q185.3563,332.625 184.6688,331.5625 Q183.9813,330.4844 183.9813,329.2031 L183.9813,328.0469 Q183.9813,326.7188 184.5906,325.5781 Q185.2156,324.4219 186.3094,323.8125 Q187.4031,323.1875 188.6375,323.1875 Q189.3719,323.1875 190.0125,323.3594 Q190.6688,323.5156 191.2156,323.875 Z " fill="#000000"/><text fill="#000000" font-family="sans-serif" font-size="14" lengthAdjust="spacing" textLength="56" x="204.55" y="333.7285">Receiver</text><line style="stroke:#181818;stroke-width:0.5;" x1="165" x2="272" y1="344" y2="344"/><line style="stroke:#181818;stroke-width:0.5;" x1="165" x2="272" y1="352" y2="352"/><ellipse cx="175" cy="366.3047" fill="#84BE84" rx="3" ry="3" style="stroke:#038048;stroke-width:1.0;"/><text fill="#000000" font-family="sans-serif" font-size="14" lengthAdjust="spacing" textLength="83" x="184" y="370.5332">Action(): void</text></g><path d="M433.5,191.5 L433.5,200.6758 L358.5,238.4141 L433.5,208.6758 L433.5,217.8516 A0,0 0 0 0 433.5,217.8516 L547.5,217.8516 A0,0 0 0 0 547.5,217.8516 L547.5,201.5 L537.5,191.5 L433.5,191.5 A0,0 0 0 0 433.5,191.5 " fill="#FEFFDD" style="stroke:#181818;stroke-width:0.5;"/><path d="M537.5,191.5 L537.5,201.5 L547.5,201.5 L537.5,191.5 " fill="#FEFFDD" style="stroke:#181818;stroke-width:0.5;"/><text fill="#000000" font-family="sans-serif" font-size="13" lengthAdjust="spacing" textLength="93" x="439.5" y="209.9951">receiver.Action()</text><!--reverse link Invoker to Client--><g id="link_Invoker_Client"><path codeLine="23" d="M116.5,96.03 C116.5,126.21 116.5,160.34 116.5,185.29 " fill="none" id="Invoker-backto-Client" style="stroke:#181818;stroke-width:1.0;stroke-dasharray:7.0,7.0;"/><polygon fill="#181818" points="116.5,90.03,112.5,99.03,116.5,95.03,120.5,99.03,116.5,90.03" style="stroke:#181818;stroke-width:1.0;"/><text fill="#000000" font-family="sans-serif" font-size="13" lengthAdjust="spacing" textLength="87" x="121.5" y="134.4951">SetCommand()</text></g><!--link Client to ConcreteCommand--><g id="link_Client_ConcreteCommand"><path codeLine="24" d="M150.81,209.5 C176.34,209.5 206.21,209.5 238.47,209.5 " fill="none" id="Client-to-ConcreteCommand" style="stroke:#181818;stroke-width:1.0;"/><polygon fill="#181818" points="244.47,209.5,235.47,205.5,239.47,209.5,235.47,213.5,244.47,209.5" style="stroke:#181818;stroke-width:1.0;"/><text fill="#000000" font-family="sans-serif" font-size="13" lengthAdjust="spacing" textLength="57" x="169" y="202.9951">&#171;creates&#187;</text></g><!--link Client to Receiver--><g id="link_Client_Receiver"><path codeLine="25" d="M134.27,233.75 C150.71,255.27 171.6567,282.6928 190.0367,306.7428 " fill="none" id="Client-to-Receiver" style="stroke:#181818;stroke-width:1.0;"/><polygon fill="#181818" points="193.68,311.51,191.3932,301.9303,190.6439,307.5373,185.0369,306.788,193.68,311.51" style="stroke:#181818;stroke-width:1.0;"/></g><!--link Invoker to Command--><g id="link_Invoker_Command"><path codeLine="27" d="M226.21,48.5 C237.87,48.5 243.53,48.5 255.2,48.5 " fill="none" id="Invoker-to-Command" style="stroke:#181818;stroke-width:1.0;"/><polygon fill="#181818" points="261.2,48.5,252.2,44.5,256.2,48.5,252.2,52.5,261.2,48.5" style="stroke:#181818;stroke-width:1.0;"/></g><!--reverse link Command to ConcreteCommand--><g id="link_Command_ConcreteCommand"><path codeLine="29" d="M321.5,99.68 C321.5,124.54 321.5,141.11 321.5,167.88 " fill="none" id="Command-backto-ConcreteCommand" style="stroke:#181818;stroke-width:1.0;stroke-dasharray:7.0,7.0;"/><polygon fill="none" points="321.5,81.68,315.5,99.68,327.5,99.68,321.5,81.68" style="stroke:#181818;stroke-width:1.0;"/></g><!--link ConcreteCommand to Receiver--><g id="link_ConcreteCommand_Receiver"><path codeLine="30" d="M290.04,251.28 C275.01,270.76 260.9565,288.9806 246.9065,307.1806 " fill="none" id="ConcreteCommand-to-Receiver" style="stroke:#181818;stroke-width:1.0;"/><polygon fill="#181818" points="243.24,311.93,251.906,307.2502,246.2954,307.9721,245.5734,302.3615,243.24,311.93" style="stroke:#181818;stroke-width:1.0;"/></g><!--SRC=[XP113e8m44NtFSN45SJ00HhIn10NRlK4f0pQ2AqfXPYeTxSqRK5Os5Kxy_lcp-TjrVTGjWAbWHVv4C9TvIH7TKTjIs3F7YveIjLrbQmJtjKK_2FrxUCJ-M0mID899AH1tLGSWpZ2l3f9AOnArFFKKackCNByXmmqSXGZQWfdV_j72heuyy2DK78fz4ldmoDdSLyAk-MkwIx8CYskDvEnZKSAHM4BbS6UiOqw-YLXmWBa0DR8YZWvUi_zTJlxmKfb41mILBCsHwaFo8KGKin35WGjRWAGBm00]--></g></svg>