<?xml version="1.0" encoding="us-ascii" standalone="no"?><svg xmlns="http://www.w3.org/2000/svg" xmlns:xlink="http://www.w3.org/1999/xlink" contentStyleType="text/css" height="490px" preserveAspectRatio="none" style="width:562px;height:490px;background:#FFFFFF;" version="1.1" viewBox="0 0 562 490" width="562px" zoomAndPan="magnify"><defs/><g><!--class Game--><g id="elem_Game"><rect codeLine="1" fill="#F1F1F1" height="83.2188" id="Game" rx="2.5" ry="2.5" style="stroke:#181818;stroke-width:0.5;" width="91" x="7" y="51"/><ellipse cx="31.45" cy="67" fill="#ADD1B2" rx="11" ry="11" style="stroke:#181818;stroke-width:1.0;"/><path d="M34.2156,62.875 Q34.3719,62.6563 34.5594,62.5469 Q34.7469,62.4375 34.9656,62.4375 Q35.3406,62.4375 35.575,62.7031 Q35.8094,62.9531 35.8094,63.5625 L35.8094,65.0156 Q35.8094,65.625 35.575,65.8906 Q35.3406,66.1563 34.9656,66.1563 Q34.6219,66.1563 34.4188,65.9531 Q34.2156,65.7656 34.1063,65.25 Q34.0594,64.8906 33.8719,64.7031 Q33.5438,64.3281 32.9344,64.1094 Q32.325,63.8906 31.7,63.8906 Q30.9344,63.8906 30.2938,64.2188 Q29.6688,64.5469 29.1688,65.2969 Q28.6844,66.0469 28.6844,67.0781 L28.6844,68.1719 Q28.6844,69.4063 29.575,70.2344 Q30.4656,71.0469 32.0594,71.0469 Q32.9969,71.0469 33.6531,70.7969 Q34.0438,70.6406 34.4656,70.2031 Q34.7313,69.9375 34.8719,69.8594 Q35.0281,69.7813 35.2313,69.7813 Q35.5594,69.7813 35.8094,70.0469 Q36.075,70.2969 36.075,70.6406 Q36.075,70.9844 35.7313,71.3906 Q35.2313,71.9688 34.4344,72.2969 Q33.3563,72.75 32.0594,72.75 Q30.5438,72.75 29.3406,72.125 Q28.3563,71.625 27.6688,70.5625 Q26.9813,69.4844 26.9813,68.2031 L26.9813,67.0469 Q26.9813,65.7188 27.5906,64.5781 Q28.2156,63.4219 29.3094,62.8125 Q30.4031,62.1875 31.6375,62.1875 Q32.3719,62.1875 33.0125,62.3594 Q33.6688,62.5156 34.2156,62.875 Z " fill="#000000"/><text fill="#000000" font-family="sans-serif" font-size="14" lengthAdjust="spacing" textLength="38" x="47.55" y="72.7285">Game</text><line style="stroke:#181818;stroke-width:0.5;" x1="8" x2="97" y1="83" y2="83"/><text fill="#000000" font-family="sans-serif" font-size="14" lengthAdjust="spacing" textLength="77" x="13" y="101.5332">/ description</text><line style="stroke:#181818;stroke-width:0.5;" x1="8" x2="97" y1="108.6094" y2="108.6094"/><text fill="#000000" font-family="sans-serif" font-size="14" lengthAdjust="spacing" textLength="79" x="13" y="127.1426">PlayRound()</text></g><!--class Player--><g id="elem_Player"><rect codeLine="5" fill="#F1F1F1" height="171.2656" id="Player" rx="2.5" ry="2.5" style="stroke:#181818;stroke-width:0.5;" width="111" x="181" y="7"/><ellipse cx="213.55" cy="23" fill="#ADD1B2" rx="11" ry="11" style="stroke:#181818;stroke-width:1.0;"/><path d="M216.3156,18.875 Q216.4719,18.6563 216.6594,18.5469 Q216.8469,18.4375 217.0656,18.4375 Q217.4406,18.4375 217.675,18.7031 Q217.9094,18.9531 217.9094,19.5625 L217.9094,21.0156 Q217.9094,21.625 217.675,21.8906 Q217.4406,22.1563 217.0656,22.1563 Q216.7219,22.1563 216.5188,21.9531 Q216.3156,21.7656 216.2063,21.25 Q216.1594,20.8906 215.9719,20.7031 Q215.6438,20.3281 215.0344,20.1094 Q214.425,19.8906 213.8,19.8906 Q213.0344,19.8906 212.3938,20.2188 Q211.7688,20.5469 211.2688,21.2969 Q210.7844,22.0469 210.7844,23.0781 L210.7844,24.1719 Q210.7844,25.4063 211.675,26.2344 Q212.5656,27.0469 214.1594,27.0469 Q215.0969,27.0469 215.7531,26.7969 Q216.1438,26.6406 216.5656,26.2031 Q216.8313,25.9375 216.9719,25.8594 Q217.1281,25.7813 217.3313,25.7813 Q217.6594,25.7813 217.9094,26.0469 Q218.175,26.2969 218.175,26.6406 Q218.175,26.9844 217.8313,27.3906 Q217.3313,27.9688 216.5344,28.2969 Q215.4563,28.75 214.1594,28.75 Q212.6438,28.75 211.4406,28.125 Q210.4563,27.625 209.7688,26.5625 Q209.0813,25.4844 209.0813,24.2031 L209.0813,23.0469 Q209.0813,21.7188 209.6906,20.5781 Q210.3156,19.4219 211.4094,18.8125 Q212.5031,18.1875 213.7375,18.1875 Q214.4719,18.1875 215.1125,18.3594 Q215.7688,18.5156 216.3156,18.875 Z " fill="#000000"/><text fill="#000000" font-family="sans-serif" font-size="14" lengthAdjust="spacing" textLength="40" x="231.45" y="28.7285">Player</text><line style="stroke:#181818;stroke-width:0.5;" x1="182" x2="291" y1="39" y2="39"/><text fill="#000000" font-family="sans-serif" font-size="14" lengthAdjust="spacing" textLength="35" x="187" y="57.5332">name</text><text fill="#000000" font-family="sans-serif" font-size="14" lengthAdjust="spacing" textLength="57" x="187" y="75.1426">/ location</text><text fill="#000000" font-family="sans-serif" font-size="14" lengthAdjust="spacing" textLength="77" x="187" y="92.752">/ description</text><text fill="#000000" font-family="sans-serif" font-size="14" lengthAdjust="spacing" textLength="53" x="187" y="110.3613">/ actions</text><line style="stroke:#181818;stroke-width:0.5;" x1="182" x2="291" y1="117.4375" y2="117.4375"/><text fill="#000000" font-family="sans-serif" font-size="14" lengthAdjust="spacing" textLength="88" x="187" y="135.9707">SelectAction()</text><text fill="#000000" font-family="sans-serif" font-size="14" lengthAdjust="spacing" textLength="99" x="187" y="153.5801">PerformAction()</text><text fill="#000000" font-family="sans-serif" font-size="14" lengthAdjust="spacing" textLength="72" x="187" y="171.1895">TakeTurn()</text></g><!--class Pawn--><g id="elem_Pawn"><rect codeLine="14" fill="#F1F1F1" height="48" id="Pawn" rx="2.5" ry="2.5" style="stroke:#181818;stroke-width:0.5;" width="66" x="374.5" y="68.5"/><ellipse cx="389.5" cy="84.5" fill="#ADD1B2" rx="11" ry="11" style="stroke:#181818;stroke-width:1.0;"/><path d="M392.2656,80.375 Q392.4219,80.1563 392.6094,80.0469 Q392.7969,79.9375 393.0156,79.9375 Q393.3906,79.9375 393.625,80.2031 Q393.8594,80.4531 393.8594,81.0625 L393.8594,82.5156 Q393.8594,83.125 393.625,83.3906 Q393.3906,83.6563 393.0156,83.6563 Q392.6719,83.6563 392.4688,83.4531 Q392.2656,83.2656 392.1563,82.75 Q392.1094,82.3906 391.9219,82.2031 Q391.5938,81.8281 390.9844,81.6094 Q390.375,81.3906 389.75,81.3906 Q388.9844,81.3906 388.3438,81.7188 Q387.7188,82.0469 387.2188,82.7969 Q386.7344,83.5469 386.7344,84.5781 L386.7344,85.6719 Q386.7344,86.9063 387.625,87.7344 Q388.5156,88.5469 390.1094,88.5469 Q391.0469,88.5469 391.7031,88.2969 Q392.0938,88.1406 392.5156,87.7031 Q392.7813,87.4375 392.9219,87.3594 Q393.0781,87.2813 393.2813,87.2813 Q393.6094,87.2813 393.8594,87.5469 Q394.125,87.7969 394.125,88.1406 Q394.125,88.4844 393.7813,88.8906 Q393.2813,89.4688 392.4844,89.7969 Q391.4063,90.25 390.1094,90.25 Q388.5938,90.25 387.3906,89.625 Q386.4063,89.125 385.7188,88.0625 Q385.0313,86.9844 385.0313,85.7031 L385.0313,84.5469 Q385.0313,83.2188 385.6406,82.0781 Q386.2656,80.9219 387.3594,80.3125 Q388.4531,79.6875 389.6875,79.6875 Q390.4219,79.6875 391.0625,79.8594 Q391.7188,80.0156 392.2656,80.375 Z " fill="#000000"/><text fill="#000000" font-family="sans-serif" font-size="14" lengthAdjust="spacing" textLength="34" x="403.5" y="90.2285">Pawn</text><line style="stroke:#181818;stroke-width:0.5;" x1="375.5" x2="439.5" y1="100.5" y2="100.5"/><line style="stroke:#181818;stroke-width:0.5;" x1="375.5" x2="439.5" y1="108.5" y2="108.5"/></g><!--class World--><g id="elem_World"><rect codeLine="15" fill="#F1F1F1" height="65.6094" id="World" rx="2.5" ry="2.5" style="stroke:#181818;stroke-width:0.5;" width="131" x="87" y="256"/><ellipse cx="129.9" cy="272" fill="#ADD1B2" rx="11" ry="11" style="stroke:#181818;stroke-width:1.0;"/><path d="M132.6656,267.875 Q132.8219,267.6563 133.0094,267.5469 Q133.1969,267.4375 133.4156,267.4375 Q133.7906,267.4375 134.025,267.7031 Q134.2594,267.9531 134.2594,268.5625 L134.2594,270.0156 Q134.2594,270.625 134.025,270.8906 Q133.7906,271.1563 133.4156,271.1563 Q133.0719,271.1563 132.8688,270.9531 Q132.6656,270.7656 132.5563,270.25 Q132.5094,269.8906 132.3219,269.7031 Q131.9938,269.3281 131.3844,269.1094 Q130.775,268.8906 130.15,268.8906 Q129.3844,268.8906 128.7438,269.2188 Q128.1188,269.5469 127.6188,270.2969 Q127.1344,271.0469 127.1344,272.0781 L127.1344,273.1719 Q127.1344,274.4063 128.025,275.2344 Q128.9156,276.0469 130.5094,276.0469 Q131.4469,276.0469 132.1031,275.7969 Q132.4938,275.6406 132.9156,275.2031 Q133.1813,274.9375 133.3219,274.8594 Q133.4781,274.7813 133.6813,274.7813 Q134.0094,274.7813 134.2594,275.0469 Q134.525,275.2969 134.525,275.6406 Q134.525,275.9844 134.1813,276.3906 Q133.6813,276.9688 132.8844,277.2969 Q131.8063,277.75 130.5094,277.75 Q128.9938,277.75 127.7906,277.125 Q126.8063,276.625 126.1188,275.5625 Q125.4313,274.4844 125.4313,273.2031 L125.4313,272.0469 Q125.4313,270.7188 126.0406,269.5781 Q126.6656,268.4219 127.7594,267.8125 Q128.8531,267.1875 130.0875,267.1875 Q130.8219,267.1875 131.4625,267.3594 Q132.1188,267.5156 132.6656,267.875 Z " fill="#000000"/><text fill="#000000" font-family="sans-serif" font-size="14" lengthAdjust="spacing" textLength="37" x="150.1" y="277.7285">World</text><line style="stroke:#181818;stroke-width:0.5;" x1="88" x2="217" y1="288" y2="288"/><line style="stroke:#181818;stroke-width:0.5;" x1="88" x2="217" y1="296" y2="296"/><text fill="#000000" font-family="sans-serif" font-size="14" lengthAdjust="spacing" textLength="119" x="93" y="314.5332">getLocation(name)</text></g><!--class Location--><g id="elem_Location"><rect codeLine="18" fill="#F1F1F1" height="65.6094" id="Location" rx="2.5" ry="2.5" style="stroke:#181818;stroke-width:0.5;" width="86" x="347.5" y="256"/><ellipse cx="362.5" cy="272" fill="#ADD1B2" rx="11" ry="11" style="stroke:#181818;stroke-width:1.0;"/><path d="M365.2656,267.875 Q365.4219,267.6563 365.6094,267.5469 Q365.7969,267.4375 366.0156,267.4375 Q366.3906,267.4375 366.625,267.7031 Q366.8594,267.9531 366.8594,268.5625 L366.8594,270.0156 Q366.8594,270.625 366.625,270.8906 Q366.3906,271.1563 366.0156,271.1563 Q365.6719,271.1563 365.4688,270.9531 Q365.2656,270.7656 365.1563,270.25 Q365.1094,269.8906 364.9219,269.7031 Q364.5938,269.3281 363.9844,269.1094 Q363.375,268.8906 362.75,268.8906 Q361.9844,268.8906 361.3438,269.2188 Q360.7188,269.5469 360.2188,270.2969 Q359.7344,271.0469 359.7344,272.0781 L359.7344,273.1719 Q359.7344,274.4063 360.625,275.2344 Q361.5156,276.0469 363.1094,276.0469 Q364.0469,276.0469 364.7031,275.7969 Q365.0938,275.6406 365.5156,275.2031 Q365.7813,274.9375 365.9219,274.8594 Q366.0781,274.7813 366.2813,274.7813 Q366.6094,274.7813 366.8594,275.0469 Q367.125,275.2969 367.125,275.6406 Q367.125,275.9844 366.7813,276.3906 Q366.2813,276.9688 365.4844,277.2969 Q364.4063,277.75 363.1094,277.75 Q361.5938,277.75 360.3906,277.125 Q359.4063,276.625 358.7188,275.5625 Q358.0313,274.4844 358.0313,273.2031 L358.0313,272.0469 Q358.0313,270.7188 358.6406,269.5781 Q359.2656,268.4219 360.3594,267.8125 Q361.4531,267.1875 362.6875,267.1875 Q363.4219,267.1875 364.0625,267.3594 Q364.7188,267.5156 365.2656,267.875 Z " fill="#000000"/><text fill="#000000" font-family="sans-serif" font-size="14" lengthAdjust="spacing" textLength="54" x="376.5" y="277.7285">Location</text><line style="stroke:#181818;stroke-width:0.5;" x1="348.5" x2="432.5" y1="288" y2="288"/><text fill="#000000" font-family="sans-serif" font-size="14" lengthAdjust="spacing" textLength="35" x="353.5" y="306.5332">name</text><line style="stroke:#181818;stroke-width:0.5;" x1="348.5" x2="432.5" y1="313.6094" y2="313.6094"/></g><!--class Object--><g id="elem_Object"><rect codeLine="21" fill="#F1F1F1" height="83.2188" id="Object" rx="2.5" ry="2.5" style="stroke:#181818;stroke-width:0.5;" width="89" x="346" y="400"/><ellipse cx="368.2" cy="416" fill="#ADD1B2" rx="11" ry="11" style="stroke:#181818;stroke-width:1.0;"/><path d="M370.9656,411.875 Q371.1219,411.6563 371.3094,411.5469 Q371.4969,411.4375 371.7156,411.4375 Q372.0906,411.4375 372.325,411.7031 Q372.5594,411.9531 372.5594,412.5625 L372.5594,414.0156 Q372.5594,414.625 372.325,414.8906 Q372.0906,415.1563 371.7156,415.1563 Q371.3719,415.1563 371.1688,414.9531 Q370.9656,414.7656 370.8563,414.25 Q370.8094,413.8906 370.6219,413.7031 Q370.2938,413.3281 369.6844,413.1094 Q369.075,412.8906 368.45,412.8906 Q367.6844,412.8906 367.0438,413.2188 Q366.4188,413.5469 365.9188,414.2969 Q365.4344,415.0469 365.4344,416.0781 L365.4344,417.1719 Q365.4344,418.4063 366.325,419.2344 Q367.2156,420.0469 368.8094,420.0469 Q369.7469,420.0469 370.4031,419.7969 Q370.7938,419.6406 371.2156,419.2031 Q371.4813,418.9375 371.6219,418.8594 Q371.7781,418.7813 371.9813,418.7813 Q372.3094,418.7813 372.5594,419.0469 Q372.825,419.2969 372.825,419.6406 Q372.825,419.9844 372.4813,420.3906 Q371.9813,420.9688 371.1844,421.2969 Q370.1063,421.75 368.8094,421.75 Q367.2938,421.75 366.0906,421.125 Q365.1063,420.625 364.4188,419.5625 Q363.7313,418.4844 363.7313,417.2031 L363.7313,416.0469 Q363.7313,414.7188 364.3406,413.5781 Q364.9656,412.4219 366.0594,411.8125 Q367.1531,411.1875 368.3875,411.1875 Q369.1219,411.1875 369.7625,411.3594 Q370.4188,411.5156 370.9656,411.875 Z " fill="#000000"/><text fill="#000000" font-family="sans-serif" font-size="14" lengthAdjust="spacing" textLength="41" x="383.8" y="421.7285">Object</text><line style="stroke:#181818;stroke-width:0.5;" x1="347" x2="434" y1="432" y2="432"/><text fill="#000000" font-family="sans-serif" font-size="14" lengthAdjust="spacing" textLength="35" x="352" y="450.5332">name</text><text fill="#000000" font-family="sans-serif" font-size="14" lengthAdjust="spacing" textLength="77" x="352" y="468.1426">/ description</text><line style="stroke:#181818;stroke-width:0.5;" x1="347" x2="434" y1="475.2188" y2="475.2188"/></g><!--link Game to Player--><g id="link_Game_Player"><path codeLine="26" d="M98.46,92.5 C123.47,92.5 148.6,92.5 174.97,92.5 " fill="none" id="Game-to-Player" style="stroke:#181818;stroke-width:1.0;"/><polygon fill="#181818" points="180.97,92.5,171.97,88.5,175.97,92.5,171.97,96.5,180.97,92.5" style="stroke:#181818;stroke-width:1.0;"/><polygon fill="#000000" points="115.5,80.6758,124.5451,83.6147,124.5451,77.7369,115.5,80.6758" style="stroke:#000000;stroke-width:1.0;"/><text fill="#000000" font-family="sans-serif" font-size="13" lengthAdjust="spacing" textLength="33" x="129.5" y="85.9951">Plays</text><text fill="#000000" font-family="sans-serif" font-size="13" lengthAdjust="spacing" textLength="7" x="105.9124" y="107.079">1</text><text fill="#000000" font-family="sans-serif" font-size="13" lengthAdjust="spacing" textLength="20" x="152.9306" y="106.9251">1..*</text></g><!--link Player to Pawn--><g id="link_Player_Pawn"><path codeLine="27" d="M304.02,92.5 C331.23,92.5 345.07,92.5 368.42,92.5 " fill="none" id="Player-Pawn" style="stroke:#181818;stroke-width:1.0;"/><polygon fill="#181818" points="292.02,92.5,298.02,96.5,304.02,92.5,298.02,88.5,292.02,92.5" style="stroke:#181818;stroke-width:1.0;"/><polygon fill="#181818" points="374.42,92.5,365.42,88.5,369.42,92.5,365.42,96.5,374.42,92.5" style="stroke:#181818;stroke-width:1.0;"/><polygon fill="#000000" points="319.25,80.6758,310.2049,77.7369,310.2049,83.6147,319.25,80.6758" style="stroke:#000000;stroke-width:1.0;"/><text fill="#000000" font-family="sans-serif" font-size="13" lengthAdjust="spacing" textLength="33" x="323.25" y="85.9951">Owns</text><text fill="#000000" font-family="sans-serif" font-size="13" lengthAdjust="spacing" textLength="7" x="299.9443" y="106.9754">1</text><text fill="#000000" font-family="sans-serif" font-size="13" lengthAdjust="spacing" textLength="7" x="359.5693" y="107.5025">1</text></g><!--link Game to World--><g id="link_Game_World"><path codeLine="28" d="M78.9476,144.9417 C97.5676,181.1517 116.1673,217.3236 133.2773,250.6136 " fill="none" id="Game-World" style="stroke:#181818;stroke-width:1.0;"/><polygon fill="none" points="73.46,134.27,72.6466,141.4351,78.9476,144.9417,79.7611,137.7766,73.46,134.27" style="stroke:#181818;stroke-width:1.0;"/><polygon fill="#181818" points="136.02,255.95,135.4635,246.1169,133.7344,251.503,128.3483,249.7739,136.02,255.95" style="stroke:#181818;stroke-width:1.0;"/><polygon fill="#000000" points="127.7862,221.6225,126.2641,212.2345,121.0367,214.9221,127.7862,221.6225" style="stroke:#000000;stroke-width:1.0;"/><text fill="#000000" font-family="sans-serif" font-size="13" lengthAdjust="spacing" textLength="70" x="134.5" y="222.4951">Is played on</text><text fill="#000000" font-family="sans-serif" font-size="13" lengthAdjust="spacing" textLength="7" x="69.2427" y="155.7078">1</text><text fill="#000000" font-family="sans-serif" font-size="13" lengthAdjust="spacing" textLength="7" x="107.2491" y="245.0551">1</text></g><!--link World to Location--><g id="link_World_Location"><path codeLine="29" d="M218.16,289 C259.3,289 305.17,289 341.2,289 " fill="none" id="World-to-Location" style="stroke:#181818;stroke-width:1.0;"/><polygon fill="#181818" points="347.2,289,338.2,285,342.2,289,338.2,293,347.2,289" style="stroke:#181818;stroke-width:1.0;"/><polygon fill="#000000" points="253.75,277.1758,244.7049,274.2369,244.7049,280.1147,253.75,277.1758" style="stroke:#000000;stroke-width:1.0;"/><text fill="#000000" font-family="sans-serif" font-size="13" lengthAdjust="spacing" textLength="63" x="257.75" y="282.4951">consists of</text><text fill="#000000" font-family="sans-serif" font-size="13" lengthAdjust="spacing" textLength="7" x="225.8956" y="303.293">1</text><text fill="#000000" font-family="sans-serif" font-size="13" lengthAdjust="spacing" textLength="5" x="334.4331" y="303.62">*</text></g><!--link Pawn to Location--><g id="link_Pawn_Location"><path codeLine="30" d="M405.48,116.58 C402.46,151.19 397.2525,210.7028 393.8225,249.9428 " fill="none" id="Pawn-to-Location" style="stroke:#181818;stroke-width:1.0;"/><polygon fill="#181818" points="393.3,255.92,398.0685,247.3025,393.7354,250.939,390.0989,246.6059,393.3,255.92" style="stroke:#181818;stroke-width:1.0;"/><polygon fill="#000000" points="402.0646,222.1568,405.78,213.402,399.9245,212.8901,402.0646,222.1568" style="stroke:#000000;stroke-width:1.0;"/><text fill="#000000" font-family="sans-serif" font-size="13" lengthAdjust="spacing" textLength="24" x="411.5" y="222.4951">is in</text></g><!--link Location to Location--><g id="link_Location_Location"><path codeLine="31" d="M433.81,275.66 C452.5,274.57 468.5,279.02 468.5,289 C468.5,298.98 458.4898,303.7793 439.7998,302.6893 " fill="none" id="Location-to-Location" style="stroke:#181818;stroke-width:1.0;"/><polygon fill="#181818" points="433.81,302.34,442.5618,306.8572,438.8015,302.6311,443.0276,298.8708,433.81,302.34" style="stroke:#181818;stroke-width:1.0;"/><text fill="#000000" font-family="sans-serif" font-size="13" lengthAdjust="spacing" textLength="75" x="474.5" y="294.4951">connected to</text></g><!--link Location to Object--><g id="link_Location_Object"><path codeLine="32" d="M390.5,322.29 C390.5,345 390.5,369.57 390.5,393.93 " fill="none" id="Location-to-Object" style="stroke:#181818;stroke-width:1.0;"/><polygon fill="#181818" points="390.5,399.93,394.5,390.93,390.5,394.93,386.5,390.93,390.5,399.93" style="stroke:#181818;stroke-width:1.0;"/><polygon fill="#000000" points="395.5,366.1758,398.4389,357.1307,392.5611,357.1307,395.5,366.1758" style="stroke:#000000;stroke-width:1.0;"/><text fill="#000000" font-family="sans-serif" font-size="13" lengthAdjust="spacing" textLength="49" x="404.5" y="366.4951">contains</text><text fill="#000000" font-family="sans-serif" font-size="13" lengthAdjust="spacing" textLength="7" x="378.5203" y="343.206">1</text><ellipse cx="382.9313" cy="389.5605" fill="#000000" rx="2.5" ry="2.5" style="stroke:#000000;stroke-width:0.0;"/></g><!--SRC=[PL31IWCn4BtdAuQSwa9Rzbgau4a4eQ85pp6RIcgQb4nA4Uc_EpERxQusXv2yUU_Dcx718CAZEJZuKK1d2Pr3c_sn-1G5UGdc-pMTOZUxKnTbHS2OorKIILsr8Lbp5TvQBS5O_g3ytbnmjZm8GjxIo-LToeS_sDPykUqfnsbxSuxr-Pvow6gGJrUUQu0PXne50pm9F9Gs7tjASJlADFj5ALcHRgcaORwc2zh5ej739bRoGBXN5QZKfkT2goKq475pZWZhmL13cZE7wSJinrd14yAHZJf8aSWzt9F617memZ0SoIpjrcD1I3jIIKTsdp0yWcV7A_IlJWwHza6DInf9r5aBKpVqg2iJSZ6Un_a5]--></g></svg>