<?xml version="1.0" encoding="us-ascii" standalone="no"?><svg xmlns="http://www.w3.org/2000/svg" xmlns:xlink="http://www.w3.org/1999/xlink" contentStyleType="text/css" height="211px" preserveAspectRatio="none" style="width:304px;height:211px;background:#FFFFFF;" version="1.1" viewBox="0 0 304 211" width="304px" zoomAndPan="magnify"><defs/><g><rect fill="none" height="60.9609" style="stroke:#000000;stroke-width:1.5;" width="199" x="99" y="97.2188"/><line style="stroke:#181818;stroke-width:0.5;stroke-dasharray:5.0,5.0;" x1="35" x2="35" y1="37.6094" y2="175.1797"/><line style="stroke:#181818;stroke-width:0.5;stroke-dasharray:5.0,5.0;" x1="134" x2="134" y1="78.9141" y2="175.1797"/><line style="stroke:#181818;stroke-width:0.5;stroke-dasharray:5.0,5.0;" x1="242.5" x2="242.5" y1="146.875" y2="175.1797"/><rect fill="#E2E2F0" height="31.6094" rx="2.5" ry="2.5" style="stroke:#181818;stroke-width:0.5;" width="60" x="5" y="5"/><text fill="#000000" font-family="sans-serif" font-size="14" lengthAdjust="spacing" textLength="46" x="12" y="26.5332">System</text><rect fill="#E2E2F0" height="31.6094" rx="2.5" ry="2.5" style="stroke:#181818;stroke-width:0.5;" width="60" x="5" y="174.1797"/><text fill="#000000" font-family="sans-serif" font-size="14" lengthAdjust="spacing" textLength="46" x="12" y="195.7129">System</text><rect fill="#E2E2F0" height="31.6094" rx="2.5" ry="2.5" style="stroke:#181818;stroke-width:0.5;" width="51" x="109" y="174.1797"/><text fill="#000000" font-family="sans-serif" font-size="14" lengthAdjust="spacing" textLength="37" x="116" y="195.7129">World</text><rect fill="#E2E2F0" height="31.6094" rx="2.5" ry="2.5" style="stroke:#181818;stroke-width:0.5;" width="68" x="208.5" y="174.1797"/><text fill="#000000" font-family="sans-serif" font-size="14" lengthAdjust="spacing" textLength="54" x="215.5" y="195.7129">Location</text><polygon fill="#181818" points="97,65.9609,107,69.9609,97,73.9609,101,69.9609" style="stroke:#181818;stroke-width:1.0;"/><line style="stroke:#181818;stroke-width:1.0;stroke-dasharray:2.0,2.0;" x1="35" x2="103" y1="69.9609" y2="69.9609"/><text fill="#000000" font-family="sans-serif" font-size="13" lengthAdjust="spacing" textLength="50" x="42" y="65.1045">&#171;create&#187;</text><rect fill="#E2E2F0" height="31.6094" rx="2.5" ry="2.5" style="stroke:#181818;stroke-width:0.5;" width="51" x="109" y="47.6094"/><text fill="#000000" font-family="sans-serif" font-size="14" lengthAdjust="spacing" textLength="37" x="116" y="69.1426">World</text><path d="M99,97.2188 L172,97.2188 L172,105.5703 L162,115.5703 L99,115.5703 L99,97.2188 " fill="#EEEEEE" style="stroke:#000000;stroke-width:1.5;"/><rect fill="none" height="60.9609" style="stroke:#000000;stroke-width:1.5;" width="199" x="99" y="97.2188"/><text fill="#000000" font-family="sans-serif" font-size="13" font-weight="bold" lengthAdjust="spacing" textLength="28" x="114" y="111.7139">loop</text><text fill="#000000" font-family="sans-serif" font-size="11" font-weight="bold" lengthAdjust="spacing" textLength="106" x="187" y="110.6377">[world description]</text><polygon fill="#181818" points="196.5,133.9219,206.5,137.9219,196.5,141.9219,200.5,137.9219" style="stroke:#181818;stroke-width:1.0;"/><line style="stroke:#181818;stroke-width:1.0;stroke-dasharray:2.0,2.0;" x1="134.5" x2="202.5" y1="137.9219" y2="137.9219"/><text fill="#000000" font-family="sans-serif" font-size="13" lengthAdjust="spacing" textLength="50" x="141.5" y="133.0654">&#171;create&#187;</text><rect fill="#E2E2F0" height="31.6094" rx="2.5" ry="2.5" style="stroke:#181818;stroke-width:0.5;" width="68" x="208.5" y="115.5703"/><text fill="#000000" font-family="sans-serif" font-size="14" lengthAdjust="spacing" textLength="54" x="215.5" y="137.1035">Location</text><!--SRC=[AqWiAibCpYn8p2jH2AuiBadDvKekIaqiILK8po_AIU62Y2dewjf111Ii56ni82hixBXoylCB5Ch1uYcfnSb5cGKbcVbvN0f003N59pyv4Iu6CG5a5amOrRZKl1G0]--></g></svg>