<?xml version="1.0" encoding="us-ascii" standalone="no"?><svg xmlns="http://www.w3.org/2000/svg" xmlns:xlink="http://www.w3.org/1999/xlink" contentStyleType="text/css" height="514px" preserveAspectRatio="none" style="width:839px;height:514px;background:#FFFFFF;" version="1.1" viewBox="0 0 839 514" width="839px" zoomAndPan="magnify"><defs/><g><!--cluster adventure::v4b--><g id="cluster_adventure::v4b"><path d="M8.5,6 L116.5,6 A3.75,3.75 0 0 1 119,8.5 L126,29.6094 L829.5,29.6094 A2.5,2.5 0 0 1 832,32.1094 L832,504.5 A2.5,2.5 0 0 1 829.5,507 L8.5,507 A2.5,2.5 0 0 1 6,504.5 L6,8.5 A2.5,2.5 0 0 1 8.5,6 " fill="none" style="stroke:#000000;stroke-width:1.5;"/><line style="stroke:#000000;stroke-width:1.5;" x1="6" x2="126" y1="29.6094" y2="29.6094"/><text fill="#000000" font-family="sans-serif" font-size="14" font-weight="bold" lengthAdjust="spacing" textLength="107" x="10" y="22.5332">adventure::v4b</text></g><!--class Action--><g id="elem_Action"><rect codeLine="6" fill="#F1F1F1" height="83.2188" id="Action" rx="2.5" ry="2.5" style="stroke:#181818;stroke-width:0.5;" width="177" x="258.5" y="265"/><ellipse cx="323.25" cy="281" fill="#ADD1B2" rx="11" ry="11" style="stroke:#181818;stroke-width:1.0;"/><path d="M326.0156,276.875 Q326.1719,276.6563 326.3594,276.5469 Q326.5469,276.4375 326.7656,276.4375 Q327.1406,276.4375 327.375,276.7031 Q327.6094,276.9531 327.6094,277.5625 L327.6094,279.0156 Q327.6094,279.625 327.375,279.8906 Q327.1406,280.1563 326.7656,280.1563 Q326.4219,280.1563 326.2188,279.9531 Q326.0156,279.7656 325.9063,279.25 Q325.8594,278.8906 325.6719,278.7031 Q325.3438,278.3281 324.7344,278.1094 Q324.125,277.8906 323.5,277.8906 Q322.7344,277.8906 322.0938,278.2188 Q321.4688,278.5469 320.9688,279.2969 Q320.4844,280.0469 320.4844,281.0781 L320.4844,282.1719 Q320.4844,283.4063 321.375,284.2344 Q322.2656,285.0469 323.8594,285.0469 Q324.7969,285.0469 325.4531,284.7969 Q325.8438,284.6406 326.2656,284.2031 Q326.5313,283.9375 326.6719,283.8594 Q326.8281,283.7813 327.0313,283.7813 Q327.3594,283.7813 327.6094,284.0469 Q327.875,284.2969 327.875,284.6406 Q327.875,284.9844 327.5313,285.3906 Q327.0313,285.9688 326.2344,286.2969 Q325.1563,286.75 323.8594,286.75 Q322.3438,286.75 321.1406,286.125 Q320.1563,285.625 319.4688,284.5625 Q318.7813,283.4844 318.7813,282.2031 L318.7813,281.0469 Q318.7813,279.7188 319.3906,278.5781 Q320.0156,277.4219 321.1094,276.8125 Q322.2031,276.1875 323.4375,276.1875 Q324.1719,276.1875 324.8125,276.3594 Q325.4688,276.5156 326.0156,276.875 Z " fill="#000000"/><text fill="#000000" font-family="sans-serif" font-size="14" lengthAdjust="spacing" textLength="39" x="343.75" y="286.7285">Action</text><line style="stroke:#181818;stroke-width:0.5;" x1="259.5" x2="434.5" y1="297" y2="297"/><text fill="#000000" font-family="sans-serif" font-size="14" font-style="italic" lengthAdjust="spacing" textLength="93" x="264.5" y="315.5332">description: str</text><line style="stroke:#181818;stroke-width:0.5;" x1="259.5" x2="434.5" y1="322.6094" y2="322.6094"/><text fill="#000000" font-family="sans-serif" font-size="14" font-style="italic" lengthAdjust="spacing" textLength="165" x="264.5" y="341.1426">perform(instigator: Player)</text></g><!--class MoveAction--><g id="elem_MoveAction"><rect codeLine="11" fill="#F1F1F1" height="65.6094" id="MoveAction" rx="2.5" ry="2.5" style="stroke:#181818;stroke-width:0.5;" width="170" x="450" y="417"/><ellipse cx="494.25" cy="433" fill="#ADD1B2" rx="11" ry="11" style="stroke:#181818;stroke-width:1.0;"/><path d="M497.0156,428.875 Q497.1719,428.6563 497.3594,428.5469 Q497.5469,428.4375 497.7656,428.4375 Q498.1406,428.4375 498.375,428.7031 Q498.6094,428.9531 498.6094,429.5625 L498.6094,431.0156 Q498.6094,431.625 498.375,431.8906 Q498.1406,432.1563 497.7656,432.1563 Q497.4219,432.1563 497.2188,431.9531 Q497.0156,431.7656 496.9063,431.25 Q496.8594,430.8906 496.6719,430.7031 Q496.3438,430.3281 495.7344,430.1094 Q495.125,429.8906 494.5,429.8906 Q493.7344,429.8906 493.0938,430.2188 Q492.4688,430.5469 491.9688,431.2969 Q491.4844,432.0469 491.4844,433.0781 L491.4844,434.1719 Q491.4844,435.4063 492.375,436.2344 Q493.2656,437.0469 494.8594,437.0469 Q495.7969,437.0469 496.4531,436.7969 Q496.8438,436.6406 497.2656,436.2031 Q497.5313,435.9375 497.6719,435.8594 Q497.8281,435.7813 498.0313,435.7813 Q498.3594,435.7813 498.6094,436.0469 Q498.875,436.2969 498.875,436.6406 Q498.875,436.9844 498.5313,437.3906 Q498.0313,437.9688 497.2344,438.2969 Q496.1563,438.75 494.8594,438.75 Q493.3438,438.75 492.1406,438.125 Q491.1563,437.625 490.4688,436.5625 Q489.7813,435.4844 489.7813,434.2031 L489.7813,433.0469 Q489.7813,431.7188 490.3906,430.5781 Q491.0156,429.4219 492.1094,428.8125 Q493.2031,428.1875 494.4375,428.1875 Q495.1719,428.1875 495.8125,428.3594 Q496.4688,428.5156 497.0156,428.875 Z " fill="#000000"/><text fill="#000000" font-family="sans-serif" font-size="14" lengthAdjust="spacing" textLength="73" x="514.75" y="438.7285">MoveAction</text><line style="stroke:#181818;stroke-width:0.5;" x1="451" x2="619" y1="449" y2="449"/><line style="stroke:#181818;stroke-width:0.5;" x1="451" x2="619" y1="457" y2="457"/><text fill="#000000" font-family="sans-serif" font-size="14" lengthAdjust="spacing" textLength="71" x="456" y="475.5332">perform(...)</text></g><!--class SkipTurnAction--><g id="elem_SkipTurnAction"><rect codeLine="16" fill="#F1F1F1" height="65.6094" id="SkipTurnAction" rx="2.5" ry="2.5" style="stroke:#181818;stroke-width:0.5;" width="170" x="245" y="417"/><ellipse cx="278.9" cy="433" fill="#ADD1B2" rx="11" ry="11" style="stroke:#181818;stroke-width:1.0;"/><path d="M281.6656,428.875 Q281.8219,428.6563 282.0094,428.5469 Q282.1969,428.4375 282.4156,428.4375 Q282.7906,428.4375 283.025,428.7031 Q283.2594,428.9531 283.2594,429.5625 L283.2594,431.0156 Q283.2594,431.625 283.025,431.8906 Q282.7906,432.1563 282.4156,432.1563 Q282.0719,432.1563 281.8688,431.9531 Q281.6656,431.7656 281.5563,431.25 Q281.5094,430.8906 281.3219,430.7031 Q280.9938,430.3281 280.3844,430.1094 Q279.775,429.8906 279.15,429.8906 Q278.3844,429.8906 277.7438,430.2188 Q277.1188,430.5469 276.6188,431.2969 Q276.1344,432.0469 276.1344,433.0781 L276.1344,434.1719 Q276.1344,435.4063 277.025,436.2344 Q277.9156,437.0469 279.5094,437.0469 Q280.4469,437.0469 281.1031,436.7969 Q281.4938,436.6406 281.9156,436.2031 Q282.1813,435.9375 282.3219,435.8594 Q282.4781,435.7813 282.6813,435.7813 Q283.0094,435.7813 283.2594,436.0469 Q283.525,436.2969 283.525,436.6406 Q283.525,436.9844 283.1813,437.3906 Q282.6813,437.9688 281.8844,438.2969 Q280.8063,438.75 279.5094,438.75 Q277.9938,438.75 276.7906,438.125 Q275.8063,437.625 275.1188,436.5625 Q274.4313,435.4844 274.4313,434.2031 L274.4313,433.0469 Q274.4313,431.7188 275.0406,430.5781 Q275.6656,429.4219 276.7594,428.8125 Q277.8531,428.1875 279.0875,428.1875 Q279.8219,428.1875 280.4625,428.3594 Q281.1188,428.5156 281.6656,428.875 Z " fill="#000000"/><text fill="#000000" font-family="sans-serif" font-size="14" lengthAdjust="spacing" textLength="96" x="297.1" y="438.7285">SkipTurnAction</text><line style="stroke:#181818;stroke-width:0.5;" x1="246" x2="414" y1="449" y2="449"/><line style="stroke:#181818;stroke-width:0.5;" x1="246" x2="414" y1="457" y2="457"/><text fill="#000000" font-family="sans-serif" font-size="14" lengthAdjust="spacing" textLength="71" x="251" y="475.5332">perform(...)</text></g><!--class PlayerStrategy--><g id="elem_PlayerStrategy"><rect codeLine="22" fill="#87CEFA" height="100.8281" id="PlayerStrategy" rx="2.5" ry="2.5" style="stroke:#00008B;stroke-width:2.0;" width="170" x="471" y="256"/><ellipse cx="506.25" cy="272" fill="#EB937F" rx="11" ry="11" style="stroke:#181818;stroke-width:1.0;"/><path d="M505.1094,272.7969 L505.1094,275.2969 L509.4375,275.2969 L509.4375,274.375 Q509.4375,273.7656 509.6719,273.5 Q509.9219,273.2344 510.2969,273.2344 Q510.6719,273.2344 510.9063,273.5 Q511.1406,273.7656 511.1406,274.375 L511.1406,277 L503.1406,277 Q502.5156,277 502.25,276.7656 Q502,276.5313 502,276.1406 Q502,275.7656 502.2656,275.5313 Q502.5313,275.2969 503.1406,275.2969 L503.4063,275.2969 L503.4063,268.6406 L503.1406,268.6406 Q502.5156,268.6406 502.25,268.4063 Q502,268.1719 502,267.7813 Q502,267.4063 502.25,267.1719 Q502.5156,266.9375 503.1406,266.9375 L510.7656,266.9375 L510.7656,269.5313 Q510.7656,270.1406 510.5313,270.4063 Q510.3125,270.6563 509.9219,270.6563 Q509.5469,270.6563 509.3125,270.4063 Q509.0781,270.1406 509.0781,269.5313 L509.0781,268.6406 L505.1094,268.6406 L505.1094,271.0938 L506.5938,271.0938 Q506.5938,270.4375 506.7188,270.25 Q506.9844,269.8438 507.4531,269.8438 Q507.8281,269.8438 508.0625,270.1094 Q508.2969,270.3594 508.2969,270.9688 L508.2969,272.9375 Q508.2969,273.4844 508.1719,273.6719 Q507.9063,274.0625 507.4531,274.0625 Q506.9844,274.0625 506.7188,273.6563 Q506.5938,273.4688 506.5938,272.7969 L505.1094,272.7969 Z " fill="#000000"/><text fill="#000000" font-family="sans-serif" font-size="14" lengthAdjust="spacing" textLength="93" x="524.75" y="277.7285">PlayerStrategy</text><line style="stroke:#00008B;stroke-width:2.0;" x1="472" x2="640" y1="288" y2="288"/><text fill="#000000" font-family="sans-serif" font-size="14" lengthAdjust="spacing" textLength="65" x="477" y="306.5332">Interactive</text><text fill="#000000" font-family="sans-serif" font-size="14" lengthAdjust="spacing" textLength="67" x="477" y="324.1426">FirstAction</text><text fill="#000000" font-family="sans-serif" font-size="14" lengthAdjust="spacing" textLength="92" x="477" y="341.752">RandomAction</text><line style="stroke:#00008B;stroke-width:2.0;" x1="472" x2="640" y1="348.8281" y2="348.8281"/></g><!--class Player--><g id="elem_Player"><rect codeLine="28" fill="#F1F1F1" height="153.6563" id="Player" rx="2.5" ry="2.5" style="stroke:#181818;stroke-width:0.5;" width="302" x="227" y="42"/><ellipse cx="353.75" cy="58" fill="#ADD1B2" rx="11" ry="11" style="stroke:#181818;stroke-width:1.0;"/><path d="M356.5156,53.875 Q356.6719,53.6563 356.8594,53.5469 Q357.0469,53.4375 357.2656,53.4375 Q357.6406,53.4375 357.875,53.7031 Q358.1094,53.9531 358.1094,54.5625 L358.1094,56.0156 Q358.1094,56.625 357.875,56.8906 Q357.6406,57.1563 357.2656,57.1563 Q356.9219,57.1563 356.7188,56.9531 Q356.5156,56.7656 356.4063,56.25 Q356.3594,55.8906 356.1719,55.7031 Q355.8438,55.3281 355.2344,55.1094 Q354.625,54.8906 354,54.8906 Q353.2344,54.8906 352.5938,55.2188 Q351.9688,55.5469 351.4688,56.2969 Q350.9844,57.0469 350.9844,58.0781 L350.9844,59.1719 Q350.9844,60.4063 351.875,61.2344 Q352.7656,62.0469 354.3594,62.0469 Q355.2969,62.0469 355.9531,61.7969 Q356.3438,61.6406 356.7656,61.2031 Q357.0313,60.9375 357.1719,60.8594 Q357.3281,60.7813 357.5313,60.7813 Q357.8594,60.7813 358.1094,61.0469 Q358.375,61.2969 358.375,61.6406 Q358.375,61.9844 358.0313,62.3906 Q357.5313,62.9688 356.7344,63.2969 Q355.6563,63.75 354.3594,63.75 Q352.8438,63.75 351.6406,63.125 Q350.6563,62.625 349.9688,61.5625 Q349.2813,60.4844 349.2813,59.2031 L349.2813,58.0469 Q349.2813,56.7188 349.8906,55.5781 Q350.5156,54.4219 351.6094,53.8125 Q352.7031,53.1875 353.9375,53.1875 Q354.6719,53.1875 355.3125,53.3594 Q355.9688,53.5156 356.5156,53.875 Z " fill="#000000"/><text fill="#000000" font-family="sans-serif" font-size="14" lengthAdjust="spacing" textLength="40" x="374.25" y="63.7285">Player</text><line style="stroke:#181818;stroke-width:0.5;" x1="228" x2="528" y1="74" y2="74"/><text fill="#000000" font-family="sans-serif" font-size="14" lengthAdjust="spacing" textLength="75" x="233" y="92.5332">pawn: Pawn</text><line style="stroke:#181818;stroke-width:0.5;" x1="228" x2="528" y1="99.6094" y2="99.6094"/><text fill="#000000" font-family="sans-serif" font-size="14" lengthAdjust="spacing" textLength="111" x="233" y="118.1426">location: Location</text><text fill="#000000" font-family="sans-serif" font-size="14" lengthAdjust="spacing" textLength="117" x="233" y="135.752">actions: list[Action]</text><text fill="#000000" font-family="sans-serif" font-size="14" lengthAdjust="spacing" textLength="70" x="233" y="153.3613">take_turn()</text><text fill="#000000" font-family="sans-serif" font-size="14" font-weight="bold" lengthAdjust="spacing" textLength="290" x="233" y="170.9707">select_action(actions: list[Action]): Action</text><text fill="#000000" font-family="sans-serif" font-size="14" lengthAdjust="spacing" text-decoration="line-through" textLength="144" x="233" y="188.5801">perform(action: Action)</text></g><path d="M564.5,92.5 L564.5,109.8516 L303,147.6328 L564.5,117.8516 L564.5,135.2031 A0,0 0 0 0 564.5,135.2031 L815.5,135.2031 A0,0 0 0 0 815.5,135.2031 L815.5,102.5 L805.5,92.5 L564.5,92.5 A0,0 0 0 0 564.5,92.5 " fill="#FEFFDD" style="stroke:#181818;stroke-width:0.5;"/><path d="M805.5,92.5 L805.5,102.5 L815.5,102.5 L805.5,92.5 " fill="#FEFFDD" style="stroke:#181818;stroke-width:0.5;"/><text fill="#000000" font-family="sans-serif" font-size="13" lengthAdjust="spacing" textLength="230" x="570.5" y="110.9951">action = self.select_action(self.actions);</text><text fill="#000000" font-family="sans-serif" font-size="13" font-weight="bold" lengthAdjust="spacing" textLength="127" x="570.5" y="127.3467">action.perform(self);</text><!--class Pawn--><g id="elem_Pawn"><rect codeLine="44" fill="#F1F1F1" height="100.8281" id="Pawn" rx="2.5" ry="2.5" style="stroke:#181818;stroke-width:0.5;" width="170" x="22" y="68.5"/><ellipse cx="85.75" cy="84.5" fill="#ADD1B2" rx="11" ry="11" style="stroke:#181818;stroke-width:1.0;"/><path d="M88.5156,80.375 Q88.6719,80.1563 88.8594,80.0469 Q89.0469,79.9375 89.2656,79.9375 Q89.6406,79.9375 89.875,80.2031 Q90.1094,80.4531 90.1094,81.0625 L90.1094,82.5156 Q90.1094,83.125 89.875,83.3906 Q89.6406,83.6563 89.2656,83.6563 Q88.9219,83.6563 88.7188,83.4531 Q88.5156,83.2656 88.4063,82.75 Q88.3594,82.3906 88.1719,82.2031 Q87.8438,81.8281 87.2344,81.6094 Q86.625,81.3906 86,81.3906 Q85.2344,81.3906 84.5938,81.7188 Q83.9688,82.0469 83.4688,82.7969 Q82.9844,83.5469 82.9844,84.5781 L82.9844,85.6719 Q82.9844,86.9063 83.875,87.7344 Q84.7656,88.5469 86.3594,88.5469 Q87.2969,88.5469 87.9531,88.2969 Q88.3438,88.1406 88.7656,87.7031 Q89.0313,87.4375 89.1719,87.3594 Q89.3281,87.2813 89.5313,87.2813 Q89.8594,87.2813 90.1094,87.5469 Q90.375,87.7969 90.375,88.1406 Q90.375,88.4844 90.0313,88.8906 Q89.5313,89.4688 88.7344,89.7969 Q87.6563,90.25 86.3594,90.25 Q84.8438,90.25 83.6406,89.625 Q82.6563,89.125 81.9688,88.0625 Q81.2813,86.9844 81.2813,85.7031 L81.2813,84.5469 Q81.2813,83.2188 81.8906,82.0781 Q82.5156,80.9219 83.6094,80.3125 Q84.7031,79.6875 85.9375,79.6875 Q86.6719,79.6875 87.3125,79.8594 Q87.9688,80.0156 88.5156,80.375 Z " fill="#000000"/><text fill="#000000" font-family="sans-serif" font-size="14" lengthAdjust="spacing" textLength="34" x="106.25" y="90.2285">Pawn</text><line style="stroke:#181818;stroke-width:0.5;" x1="23" x2="191" y1="100.5" y2="100.5"/><text fill="#000000" font-family="sans-serif" font-size="14" lengthAdjust="spacing" textLength="59" x="28" y="119.0332">name: str</text><text fill="#000000" font-family="sans-serif" font-size="14" lengthAdjust="spacing" textLength="111" x="28" y="136.6426">location: Location</text><line style="stroke:#181818;stroke-width:0.5;" x1="23" x2="191" y1="143.7188" y2="143.7188"/><text fill="#000000" font-family="sans-serif" font-size="14" lengthAdjust="spacing" textLength="117" x="28" y="162.252">actions: list[Action]</text></g><!--class Location--><g id="elem_Location"><rect codeLine="53" fill="#F1F1F1" height="65.6094" id="Location" rx="2.5" ry="2.5" style="stroke:#181818;stroke-width:0.5;" width="171" x="22.5" y="273.5"/><ellipse cx="76.75" cy="289.5" fill="#ADD1B2" rx="11" ry="11" style="stroke:#181818;stroke-width:1.0;"/><path d="M79.5156,285.375 Q79.6719,285.1563 79.8594,285.0469 Q80.0469,284.9375 80.2656,284.9375 Q80.6406,284.9375 80.875,285.2031 Q81.1094,285.4531 81.1094,286.0625 L81.1094,287.5156 Q81.1094,288.125 80.875,288.3906 Q80.6406,288.6563 80.2656,288.6563 Q79.9219,288.6563 79.7188,288.4531 Q79.5156,288.2656 79.4063,287.75 Q79.3594,287.3906 79.1719,287.2031 Q78.8438,286.8281 78.2344,286.6094 Q77.625,286.3906 77,286.3906 Q76.2344,286.3906 75.5938,286.7188 Q74.9688,287.0469 74.4688,287.7969 Q73.9844,288.5469 73.9844,289.5781 L73.9844,290.6719 Q73.9844,291.9063 74.875,292.7344 Q75.7656,293.5469 77.3594,293.5469 Q78.2969,293.5469 78.9531,293.2969 Q79.3438,293.1406 79.7656,292.7031 Q80.0313,292.4375 80.1719,292.3594 Q80.3281,292.2813 80.5313,292.2813 Q80.8594,292.2813 81.1094,292.5469 Q81.375,292.7969 81.375,293.1406 Q81.375,293.4844 81.0313,293.8906 Q80.5313,294.4688 79.7344,294.7969 Q78.6563,295.25 77.3594,295.25 Q75.8438,295.25 74.6406,294.625 Q73.6563,294.125 72.9688,293.0625 Q72.2813,291.9844 72.2813,290.7031 L72.2813,289.5469 Q72.2813,288.2188 72.8906,287.0781 Q73.5156,285.9219 74.6094,285.3125 Q75.7031,284.6875 76.9375,284.6875 Q77.6719,284.6875 78.3125,284.8594 Q78.9688,285.0156 79.5156,285.375 Z " fill="#000000"/><text fill="#000000" font-family="sans-serif" font-size="14" lengthAdjust="spacing" textLength="54" x="97.25" y="295.2285">Location</text><line style="stroke:#181818;stroke-width:0.5;" x1="23.5" x2="192.5" y1="305.5" y2="305.5"/><line style="stroke:#181818;stroke-width:0.5;" x1="23.5" x2="192.5" y1="313.5" y2="313.5"/><text fill="#000000" font-family="sans-serif" font-size="14" lengthAdjust="spacing" textLength="159" x="28.5" y="332.0332">move_actions: list[Action]</text></g><!--class World--><g id="elem_World"><rect codeLine="57" fill="#F1F1F1" height="48" id="World" rx="2.5" ry="2.5" style="stroke:#181818;stroke-width:0.5;" width="170" x="23" y="426"/><ellipse cx="85.25" cy="442" fill="#ADD1B2" rx="11" ry="11" style="stroke:#181818;stroke-width:1.0;"/><path d="M88.0156,437.875 Q88.1719,437.6563 88.3594,437.5469 Q88.5469,437.4375 88.7656,437.4375 Q89.1406,437.4375 89.375,437.7031 Q89.6094,437.9531 89.6094,438.5625 L89.6094,440.0156 Q89.6094,440.625 89.375,440.8906 Q89.1406,441.1563 88.7656,441.1563 Q88.4219,441.1563 88.2188,440.9531 Q88.0156,440.7656 87.9063,440.25 Q87.8594,439.8906 87.6719,439.7031 Q87.3438,439.3281 86.7344,439.1094 Q86.125,438.8906 85.5,438.8906 Q84.7344,438.8906 84.0938,439.2188 Q83.4688,439.5469 82.9688,440.2969 Q82.4844,441.0469 82.4844,442.0781 L82.4844,443.1719 Q82.4844,444.4063 83.375,445.2344 Q84.2656,446.0469 85.8594,446.0469 Q86.7969,446.0469 87.4531,445.7969 Q87.8438,445.6406 88.2656,445.2031 Q88.5313,444.9375 88.6719,444.8594 Q88.8281,444.7813 89.0313,444.7813 Q89.3594,444.7813 89.6094,445.0469 Q89.875,445.2969 89.875,445.6406 Q89.875,445.9844 89.5313,446.3906 Q89.0313,446.9688 88.2344,447.2969 Q87.1563,447.75 85.8594,447.75 Q84.3438,447.75 83.1406,447.125 Q82.1563,446.625 81.4688,445.5625 Q80.7813,444.4844 80.7813,443.2031 L80.7813,442.0469 Q80.7813,440.7188 81.3906,439.5781 Q82.0156,438.4219 83.1094,437.8125 Q84.2031,437.1875 85.4375,437.1875 Q86.1719,437.1875 86.8125,437.3594 Q87.4688,437.5156 88.0156,437.875 Z " fill="#000000"/><text fill="#000000" font-family="sans-serif" font-size="14" lengthAdjust="spacing" textLength="37" x="105.75" y="447.7285">World</text><line style="stroke:#181818;stroke-width:0.5;" x1="24" x2="192" y1="458" y2="458"/><line style="stroke:#181818;stroke-width:0.5;" x1="24" x2="192" y1="466" y2="466"/></g><!--reverse link Action to MoveAction--><g id="link_Action_MoveAction"><path codeLine="14" d="M415.2534,358.8721 C444.3334,380.7521 465.34,396.57 492.46,416.98 " fill="none" id="Action-backto-MoveAction" style="stroke:#181818;stroke-width:1.0;"/><polygon fill="none" points="400.87,348.05,411.646,363.6666,418.8607,354.0777,400.87,348.05" style="stroke:#181818;stroke-width:1.0;"/></g><!--reverse link Action to SkipTurnAction--><g id="link_Action_SkipTurnAction"><path codeLine="19" d="M339.9818,365.9214 C337.3518,387.8014 336.3,396.57 333.85,416.98 " fill="none" id="Action-backto-SkipTurnAction" style="stroke:#181818;stroke-width:1.0;"/><polygon fill="none" points="342.13,348.05,334.0247,365.2053,345.939,366.6374,342.13,348.05" style="stroke:#181818;stroke-width:1.0;"/></g><!--link Player to PlayerStrategy--><g id="link_Player_PlayerStrategy"><path codeLine="42" d="M451.17,196.25 C470.44,216.34 486.5858,233.1607 504.1358,251.4507 " fill="none" id="Player-to-PlayerStrategy" style="stroke:#181818;stroke-width:1.0;"/><polygon fill="#181818" points="508.29,255.78,504.945,246.5166,504.8282,252.1722,499.1726,252.0555,508.29,255.78" style="stroke:#181818;stroke-width:1.0;"/></g><!--link Pawn to Player--><g id="link_Pawn_Player"><path codeLine="50" d="M198.22,119 C209.71,119 203.2,119 214.69,119 " fill="none" id="Pawn-Player" style="stroke:#181818;stroke-width:1.0;"/><polygon fill="#181818" points="192.22,119,201.22,123,197.22,119,201.22,115,192.22,119" style="stroke:#181818;stroke-width:1.0;"/><polygon fill="#181818" points="226.69,119,220.69,115,214.69,119,220.69,123,226.69,119" style="stroke:#181818;stroke-width:1.0;"/></g><!--link Player to Action--><g id="link_Player_Action"><path codeLine="51" d="M365.26,196.25 C361.33,219.74 358.1488,238.762 354.7888,258.872 " fill="none" id="Player-to-Action" style="stroke:#181818;stroke-width:1.0;stroke-dasharray:7.0,7.0;"/><polygon fill="#181818" points="353.8,264.79,359.2285,256.5722,354.624,259.8584,351.3379,255.2539,353.8,264.79" style="stroke:#181818;stroke-width:1.0;"/></g><!--link Location to World--><g id="link_Location_World"><path codeLine="60" d="M108,345.61 C108,371.86 108,390.36 108,413.83 " fill="none" id="Location-World" style="stroke:#181818;stroke-width:1.0;"/><polygon fill="#181818" points="108,339.61,104,348.61,108,344.61,112,348.61,108,339.61" style="stroke:#181818;stroke-width:1.0;"/><polygon fill="#181818" points="108,425.83,112,419.83,108,413.83,104,419.83,108,425.83" style="stroke:#181818;stroke-width:1.0;"/></g><!--link Pawn to Location--><g id="link_Pawn_Location"><path codeLine="61" d="M107.27,169.71 C107.45,202.66 107.6364,238.9101 107.7964,267.4701 " fill="none" id="Pawn-to-Location" style="stroke:#181818;stroke-width:1.0;"/><polygon fill="#181818" points="107.83,273.47,111.7795,264.4477,107.802,268.4701,103.7796,264.4925,107.83,273.47" style="stroke:#181818;stroke-width:1.0;"/></g><!--SRC=[fLDTQzim57tthn3TIromky5We6I6VJ0Oj52MGH_62B9rumZBaf7ab93vlq-AP4TEEmgT7enyTUyvvzuZwOQ9ZYZIeZicld2YzGEZPeVUVNYR91sf6b83kY9q3yBq2Z3Ulo-lq359a5r6rc1seEm_2gjo4EXJPPWKKTYj8ocrKQGo0wAWAyKwbuIH3VuhhmErbQfTCA4DgucH2gDxJWwWqgbaI2x8x-GUdXKmekLv7fUFkwWkwxliJn7QkCHVDwpxsIln6ewBsZbFr0s8lWsThkqi3DG7XDvm9Y0l9QVuAr7DPzx3ihGMuLjMxyowERX8fEUxCE3coFOmnRunfKt4vzOF8gXiduhmxNeL4Mn77grhz_OxXOwjlGUI3eZBYdXNRyFkQGuv4McCEDFcbwVzFQKPqi36NZMnECzlLHOQE5HcusiNpqAaE0noTLCMvreAl1XTyNLZNhgwSOTnoq8QGCgD4ybjQ1tZITE4we7GHsHrRVEvk5CeA4oNSHC-c8zgN6AwdDI2e2T-hoICFQFoKMJ5nLsO-MEDYDmHf8Nvc_e_JuQPdEkCmzOuFQFzuI1tElFva_7wHj98uqJRsYUtUP7Rupn8nMa02GS-TErUKJ5lxZIKSNRde-4l]--></g></svg>