<?xml version="1.0" encoding="us-ascii" standalone="no"?><svg xmlns="http://www.w3.org/2000/svg" xmlns:xlink="http://www.w3.org/1999/xlink" contentStyleType="text/css" height="319px" preserveAspectRatio="none" style="width:508px;height:319px;background:#FFFFFF;" version="1.1" viewBox="0 0 508 319" width="508px" zoomAndPan="magnify"><defs/><g><rect fill="#FFFFFF" height="52.3516" style="stroke:#181818;stroke-width:1.0;" width="10" x="31" y="47.6094"/><rect fill="#FFFFFF" height="194.7578" style="stroke:#181818;stroke-width:1.0;" width="10" x="131.5" y="69.9609"/><rect fill="#FFFFFF" height="30.3516" style="stroke:#181818;stroke-width:1.0;" width="10" x="272.5" y="173.6641"/><rect fill="#FFFFFF" height="30.3516" style="stroke:#181818;stroke-width:1.0;" width="10" x="425.5" y="234.3672"/><line style="stroke:#181818;stroke-width:0.5;stroke-dasharray:5.0,5.0;" x1="36" x2="36" y1="37.6094" y2="282.7188"/><line style="stroke:#181818;stroke-width:0.5;stroke-dasharray:5.0,5.0;" x1="136" x2="136" y1="37.6094" y2="282.7188"/><line style="stroke:#181818;stroke-width:0.5;stroke-dasharray:5.0,5.0;" x1="277" x2="277" y1="37.6094" y2="282.7188"/><line style="stroke:#181818;stroke-width:0.5;stroke-dasharray:5.0,5.0;" x1="430" x2="430" y1="37.6094" y2="282.7188"/><rect fill="#E2E2F0" height="31.6094" rx="2.5" ry="2.5" style="stroke:#181818;stroke-width:0.5;" width="62" x="5" y="5"/><text fill="#000000" font-family="sans-serif" font-size="14" lengthAdjust="spacing" textLength="48" x="12" y="26.5332">Context</text><rect fill="#E2E2F0" height="31.6094" rx="2.5" ry="2.5" style="stroke:#181818;stroke-width:0.5;" width="62" x="5" y="281.7188"/><text fill="#000000" font-family="sans-serif" font-size="14" lengthAdjust="spacing" textLength="48" x="12" y="303.252">Context</text><rect fill="#E2E2F0" height="31.6094" rx="2.5" ry="2.5" style="stroke:#181818;stroke-width:0.5;" width="119" x="77" y="5"/><text fill="#000000" font-family="sans-serif" font-size="14" lengthAdjust="spacing" textLength="105" x="84" y="26.5332">ConcreteSubject</text><rect fill="#E2E2F0" height="31.6094" rx="2.5" ry="2.5" style="stroke:#181818;stroke-width:0.5;" width="119" x="77" y="281.7188"/><text fill="#000000" font-family="sans-serif" font-size="14" lengthAdjust="spacing" textLength="105" x="84" y="303.252">ConcreteSubject</text><rect fill="#E2E2F0" height="31.6094" rx="2.5" ry="2.5" style="stroke:#181818;stroke-width:0.5;" width="143" x="206" y="5"/><text fill="#000000" font-family="sans-serif" font-size="14" lengthAdjust="spacing" textLength="129" x="213" y="26.5332">ConcreteObserver 1</text><rect fill="#E2E2F0" height="31.6094" rx="2.5" ry="2.5" style="stroke:#181818;stroke-width:0.5;" width="143" x="206" y="281.7188"/><text fill="#000000" font-family="sans-serif" font-size="14" lengthAdjust="spacing" textLength="129" x="213" y="303.252">ConcreteObserver 1</text><rect fill="#E2E2F0" height="31.6094" rx="2.5" ry="2.5" style="stroke:#181818;stroke-width:0.5;" width="143" x="359" y="5"/><text fill="#000000" font-family="sans-serif" font-size="14" lengthAdjust="spacing" textLength="129" x="366" y="26.5332">ConcreteObserver 2</text><rect fill="#E2E2F0" height="31.6094" rx="2.5" ry="2.5" style="stroke:#181818;stroke-width:0.5;" width="143" x="359" y="281.7188"/><text fill="#000000" font-family="sans-serif" font-size="14" lengthAdjust="spacing" textLength="129" x="366" y="303.252">ConcreteObserver 2</text><rect fill="#FFFFFF" height="52.3516" style="stroke:#181818;stroke-width:1.0;" width="10" x="31" y="47.6094"/><rect fill="#FFFFFF" height="194.7578" style="stroke:#181818;stroke-width:1.0;" width="10" x="131.5" y="69.9609"/><rect fill="#FFFFFF" height="30.3516" style="stroke:#181818;stroke-width:1.0;" width="10" x="272.5" y="173.6641"/><rect fill="#FFFFFF" height="30.3516" style="stroke:#181818;stroke-width:1.0;" width="10" x="425.5" y="234.3672"/><polygon fill="#181818" points="119.5,65.9609,129.5,69.9609,119.5,73.9609,123.5,69.9609" style="stroke:#181818;stroke-width:1.0;"/><line style="stroke:#181818;stroke-width:1.0;" x1="41" x2="125.5" y1="69.9609" y2="69.9609"/><text fill="#000000" font-family="sans-serif" font-size="13" lengthAdjust="spacing" textLength="46" x="48" y="65.1045">modify()</text><line style="stroke:#181818;stroke-width:1.0;" x1="141.5" x2="183.5" y1="130.3125" y2="130.3125"/><line style="stroke:#181818;stroke-width:1.0;" x1="183.5" x2="183.5" y1="130.3125" y2="143.3125"/><line style="stroke:#181818;stroke-width:1.0;" x1="142.5" x2="183.5" y1="143.3125" y2="143.3125"/><polygon fill="#181818" points="152.5,139.3125,142.5,143.3125,152.5,147.3125,148.5,143.3125" style="stroke:#181818;stroke-width:1.0;"/><text fill="#000000" font-family="sans-serif" font-size="13" lengthAdjust="spacing" textLength="39" x="148.5" y="125.4561">notify()</text><polygon fill="#181818" points="260.5,169.6641,270.5,173.6641,260.5,177.6641,264.5,173.6641" style="stroke:#181818;stroke-width:1.0;"/><line style="stroke:#181818;stroke-width:1.0;" x1="141.5" x2="266.5" y1="173.6641" y2="173.6641"/><text fill="#000000" font-family="sans-serif" font-size="13" lengthAdjust="spacing" textLength="54" x="148.5" y="168.8076">update(T)</text><polygon fill="#181818" points="152.5,200.0156,142.5,204.0156,152.5,208.0156,148.5,204.0156" style="stroke:#181818;stroke-width:1.0;"/><line style="stroke:#181818;stroke-width:1.0;stroke-dasharray:2.0,2.0;" x1="146.5" x2="276.5" y1="204.0156" y2="204.0156"/><text fill="#000000" font-family="sans-serif" font-size="13" lengthAdjust="spacing" textLength="28" x="158.5" y="199.1592">done</text><polygon fill="#181818" points="413.5,230.3672,423.5,234.3672,413.5,238.3672,417.5,234.3672" style="stroke:#181818;stroke-width:1.0;"/><line style="stroke:#181818;stroke-width:1.0;" x1="141.5" x2="419.5" y1="234.3672" y2="234.3672"/><text fill="#000000" font-family="sans-serif" font-size="13" lengthAdjust="spacing" textLength="54" x="148.5" y="229.5107">update(T)</text><polygon fill="#181818" points="147.5,260.7188,137.5,264.7188,147.5,268.7188,143.5,264.7188" style="stroke:#181818;stroke-width:1.0;"/><line style="stroke:#181818;stroke-width:1.0;stroke-dasharray:2.0,2.0;" x1="141.5" x2="429.5" y1="264.7188" y2="264.7188"/><text fill="#000000" font-family="sans-serif" font-size="13" lengthAdjust="spacing" textLength="28" x="153.5" y="259.8623">done</text><!--SRC=[XSuz3eCm30NWFQUmcEZ0GCOENJW0Gtg1aBXIAZM9Wa7qzZNYHwGgwkht-TbH9tB6HUq9YYPumeaAq3qq8dv59Y6X6hedcfMetwRjUamZ9gWNrjP_d5oT548RSgCcvFkYWUh6H-0Ahs3TurrU3h4I5ZEiTkq3BNeRjZLFXsYPblTZ2NysXzMsQOF7h9V1NYBFIgIOm_EI_5Nc7m00]--></g></svg>